M48
; DRILL file {KiCad 6.0.2+dfsg-1} date Mon Jun 12 23:47:38 2023
; FORMAT={-:-/ absolute / metric / decimal}
; #@! TF.CreationDate,2023-06-12T23:47:38+02:00
; #@! TF.GenerationSoftware,Kicad,Pcbnew,6.0.2+dfsg-1
; #@! TF.FileFunction,MixedPlating,1,2
FMAT,2
METRIC
; #@! TA.AperFunction,Plated,PTH,ViaDrill
T1C0.400
; #@! TA.AperFunction,Plated,PTH,ComponentDrill
T2C0.600
; #@! TA.AperFunction,Plated,PTH,ComponentDrill
T3C1.000
; #@! TA.AperFunction,Plated,PTH,ComponentDrill
T4C3.200
; #@! TA.AperFunction,NonPlated,NPTH,ComponentDrill
T5C0.650
%
G90
G05
T1
X150.6Y-50.51
X152.48Y-96.28
X152.5Y-101.36
X153.22Y-93.74
X153.8Y-54.9
X155.64Y-96.295
X156.52Y-56.605
X157.34Y-71.01
X157.705Y-62.635
X158.125Y-56.605
X161.3Y-54.9
X163.09Y-78.54
X163.09Y-79.54
X164.09Y-78.54
X164.09Y-79.54
X164.29Y-86.135
X164.85Y-106.55
X164.85Y-107.55
X164.85Y-112.0
X164.85Y-113.0
X165.8Y-62.6
X165.8Y-63.6
X165.8Y-64.6
X165.85Y-106.55
X165.85Y-107.55
X165.85Y-112.0
X165.85Y-113.0
X166.8Y-62.6
X166.8Y-63.6
X166.8Y-64.6
X168.865Y-79.745
X168.93Y-54.9
X171.66Y-56.6
X172.54Y-65.4
X172.54Y-66.4
X172.545Y-64.39
X172.8Y-70.5
X173.265Y-56.6
X173.54Y-65.4
X173.54Y-66.4
X173.545Y-64.39
X176.515Y-73.015
X176.53Y-54.9
X177.125Y-65.4
X177.125Y-66.4
X178.6Y-67.0
X178.6Y-68.0
X178.6Y-69.0
X179.6Y-67.0
X179.6Y-68.0
X179.6Y-69.0
X183.4Y-60.0
X184.405Y-59.995
X184.43Y-126.56
X185.0Y-69.0
X185.0Y-70.0
X185.75Y-87.0
X186.0Y-70.0
X186.93Y-61.0
X186.93Y-62.0
X187.0Y-87.0
X187.93Y-61.0
X187.93Y-62.0
X188.25Y-87.0
X189.4Y-67.4
X189.488Y-61.562
X189.55Y-87.0
X191.57Y-60.0
X192.5Y-57.05
X193.459Y-57.331
X195.862Y-60.072
X197.51Y-84.08
X198.396Y-69.409
X198.625Y-79.775
X199.102Y-68.702
X199.765Y-83.23
X201.1Y-72.05
X201.285Y-83.26
X202.645Y-77.5
X202.7Y-82.1
X204.1Y-74.605
X204.1Y-82.1
X205.26Y-53.6
X205.295Y-70.22
X205.3Y-68.57
X205.5Y-82.1
X205.905Y-67.72
X205.905Y-69.395
X206.26Y-53.6
X206.47Y-58.02
X206.535Y-79.81
X206.54Y-73.19
X206.625Y-63.205
X207.26Y-53.6
X207.81Y-73.19
X207.885Y-63.21
X207.89Y-61.945
X207.91Y-60.665
X208.26Y-53.6
X209.055Y-73.195
X209.185Y-79.95
X209.26Y-53.6
X209.505Y-67.245
X210.055Y-60.995
X210.26Y-53.6
X211.26Y-53.6
X211.455Y-60.995
X211.46Y-62.395
X211.845Y-84.35
X211.85Y-85.75
X212.26Y-53.6
X212.85Y-61.0
X212.85Y-62.4
X213.24Y-84.355
X213.24Y-85.755
X213.26Y-53.6
X214.16Y-76.785
X214.165Y-75.655
X214.165Y-77.865
X214.26Y-53.6
X215.26Y-53.6
X216.06Y-58.84
X216.26Y-53.6
X217.06Y-58.04
X217.26Y-53.6
X218.0Y-138.2
X218.0Y-139.2
X218.26Y-53.6
X218.825Y-57.805
X219.0Y-138.2
X219.0Y-139.2
X219.25Y-64.31
X219.255Y-62.99
X219.255Y-66.69
X219.26Y-53.6
X219.26Y-65.425
X219.605Y-59.075
X227.185Y-80.6
X227.19Y-82.0
X227.215Y-127.505
X227.22Y-128.905
X227.23Y-97.58
X227.235Y-98.98
X228.58Y-80.605
X228.58Y-82.005
X228.61Y-127.51
X228.61Y-128.91
X228.625Y-97.585
X228.625Y-98.985
X231.905Y-66.795
X231.91Y-68.195
X233.3Y-66.8
X233.3Y-68.2
X237.005Y-72.195
X237.01Y-73.595
X238.4Y-72.2
X238.4Y-73.6
T3
X144.9Y-86.12
X144.9Y-88.66
X144.9Y-91.2
X144.9Y-93.74
X144.9Y-96.28
X144.9Y-98.82
X144.9Y-101.36
X144.9Y-103.9
X201.685Y-134.67
X204.225Y-134.67
X206.765Y-134.67
X209.305Y-134.67
X211.845Y-134.67
X214.385Y-134.67
X221.345Y-74.81
X221.345Y-77.35
X227.185Y-54.735
X227.185Y-57.275
X227.185Y-59.815
X227.185Y-62.355
X227.185Y-64.895
X227.185Y-67.435
X227.3Y-71.1
X227.3Y-73.64
X227.3Y-76.18
X229.725Y-54.735
X229.725Y-57.275
X229.725Y-59.815
X229.725Y-62.355
X229.725Y-64.895
X229.725Y-67.435
X235.0Y-84.58
X235.0Y-87.12
X235.0Y-89.66
X235.0Y-92.2
X235.0Y-96.28
X235.0Y-98.82
X235.0Y-101.36
X235.0Y-103.9
T4
X144.0Y-49.0
X144.0Y-141.0
X236.0Y-49.0
X236.0Y-141.0
T5
X154.675Y-51.5
X160.455Y-51.5
X169.82Y-51.5
X175.6Y-51.5
T2
X153.245Y-48.15G85X153.245Y-47.55
G05
X153.245Y-52.58G85X153.245Y-51.48
G05
X161.885Y-48.15G85X161.885Y-47.55
G05
X161.885Y-52.58G85X161.885Y-51.48
G05
X168.39Y-48.15G85X168.39Y-47.55
G05
X168.39Y-52.58G85X168.39Y-51.48
G05
X177.03Y-48.15G85X177.03Y-47.55
G05
X177.03Y-52.58G85X177.03Y-51.48
G05
T0
M30
