G04 #@! TF.GenerationSoftware,KiCad,Pcbnew,6.0.2+dfsg-1*
G04 #@! TF.CreationDate,2023-06-12T23:47:37+02:00*
G04 #@! TF.ProjectId,Logic_1,4c6f6769-635f-4312-9e6b-696361645f70,rev?*
G04 #@! TF.SameCoordinates,Original*
G04 #@! TF.FileFunction,Copper,L2,Bot*
G04 #@! TF.FilePolarity,Positive*
%FSLAX46Y46*%
G04 Gerber Fmt 4.6, Leading zero omitted, Abs format (unit mm)*
G04 Created by KiCad (PCBNEW 6.0.2+dfsg-1) date 2023-06-12 23:47:37*
%MOMM*%
%LPD*%
G01*
G04 APERTURE LIST*
G04 #@! TA.AperFunction,ComponentPad*
%ADD10R,1.700000X1.700000*%
G04 #@! TD*
G04 #@! TA.AperFunction,ComponentPad*
%ADD11O,1.700000X1.700000*%
G04 #@! TD*
G04 #@! TA.AperFunction,ComponentPad*
%ADD12C,5.600000*%
G04 #@! TD*
G04 #@! TA.AperFunction,ComponentPad*
%ADD13O,1.000000X1.600000*%
G04 #@! TD*
G04 #@! TA.AperFunction,ComponentPad*
%ADD14O,1.000000X2.100000*%
G04 #@! TD*
G04 #@! TA.AperFunction,ViaPad*
%ADD15C,0.800000*%
G04 #@! TD*
G04 #@! TA.AperFunction,Conductor*
%ADD16C,2.000000*%
G04 #@! TD*
G04 #@! TA.AperFunction,Conductor*
%ADD17C,0.500000*%
G04 #@! TD*
G04 #@! TA.AperFunction,Conductor*
%ADD18C,0.300000*%
G04 #@! TD*
G04 #@! TA.AperFunction,Conductor*
%ADD19C,0.400000*%
G04 #@! TD*
G04 APERTURE END LIST*
D10*
G04 #@! TO.P,J3,1,Pin_1*
G04 #@! TO.N,/elektronika.sch/IO35*
X201685000Y-134670000D03*
D11*
G04 #@! TO.P,J3,2,Pin_2*
G04 #@! TO.N,/elektronika.sch/IO36*
X204225000Y-134670000D03*
G04 #@! TO.P,J3,3,Pin_3*
G04 #@! TO.N,/elektronika.sch/IO37*
X206765000Y-134670000D03*
G04 #@! TO.P,J3,4,Pin_4*
G04 #@! TO.N,/elektronika.sch/IO38*
X209305000Y-134670000D03*
G04 #@! TO.P,J3,5,Pin_5*
G04 #@! TO.N,/elektronika.sch/GND*
X211845000Y-134670000D03*
G04 #@! TO.P,J3,6,Pin_6*
G04 #@! TO.N,/elektronika.sch/5V*
X214385000Y-134670000D03*
G04 #@! TD*
D12*
G04 #@! TO.P,H1,1*
G04 #@! TO.N,N/C*
X144000000Y-49000000D03*
G04 #@! TD*
G04 #@! TO.P,H2,1*
G04 #@! TO.N,N/C*
X236000000Y-49000000D03*
G04 #@! TD*
G04 #@! TO.P,H3,1*
G04 #@! TO.N,N/C*
X144000000Y-141000000D03*
G04 #@! TD*
G04 #@! TO.P,H4,1*
G04 #@! TO.N,N/C*
X236000000Y-141000000D03*
G04 #@! TD*
D10*
G04 #@! TO.P,J7,1,Pin_1*
G04 #@! TO.N,/elektronika.sch/3V3*
X144900000Y-103900000D03*
D11*
G04 #@! TO.P,J7,2,Pin_2*
G04 #@! TO.N,/elektronika.sch/SW_7*
X144900000Y-101360000D03*
G04 #@! TO.P,J7,3,Pin_3*
G04 #@! TO.N,/elektronika.sch/GND*
X144900000Y-98820000D03*
G04 #@! TO.P,J7,4,Pin_4*
G04 #@! TO.N,/elektronika.sch/DATA_ZADANI_LED*
X144900000Y-96280000D03*
G04 #@! TO.P,J7,5,Pin_5*
G04 #@! TO.N,/elektronika.sch/DATA_HERNI_LED*
X144900000Y-93740000D03*
G04 #@! TO.P,J7,6,Pin_6*
G04 #@! TO.N,/elektronika.sch/V_LED*
X144900000Y-91200000D03*
G04 #@! TO.P,J7,7,Pin_7*
G04 #@! TO.N,/elektronika.sch/SENZOR_SVETLA*
X144900000Y-88660000D03*
G04 #@! TO.P,J7,8,Pin_8*
G04 #@! TO.N,/elektronika.sch/SW_12*
X144900000Y-86120000D03*
G04 #@! TD*
D13*
G04 #@! TO.P,J8,S1,SHIELD*
G04 #@! TO.N,N/C*
X177030000Y-47850000D03*
D14*
X168390000Y-52030000D03*
D13*
X168390000Y-47850000D03*
D14*
X177030000Y-52030000D03*
G04 #@! TD*
D10*
G04 #@! TO.P,J9,1,Pin_1*
G04 #@! TO.N,/elektronika.sch/SW_5*
X235000000Y-103900000D03*
D11*
G04 #@! TO.P,J9,2,Pin_2*
G04 #@! TO.N,/elektronika.sch/SW_9*
X235000000Y-101360000D03*
G04 #@! TO.P,J9,3,Pin_3*
G04 #@! TO.N,/elektronika.sch/SW_10*
X235000000Y-98820000D03*
G04 #@! TO.P,J9,4,Pin_4*
G04 #@! TO.N,/elektronika.sch/SW_4*
X235000000Y-96280000D03*
G04 #@! TD*
D10*
G04 #@! TO.P,J10,1,Pin_1*
G04 #@! TO.N,/elektronika.sch/SW_11*
X235000000Y-92200000D03*
D11*
G04 #@! TO.P,J10,2,Pin_2*
G04 #@! TO.N,/elektronika.sch/SW_8*
X235000000Y-89660000D03*
G04 #@! TO.P,J10,3,Pin_3*
G04 #@! TO.N,/elektronika.sch/SW_3*
X235000000Y-87120000D03*
G04 #@! TO.P,J10,4,Pin_4*
G04 #@! TO.N,/elektronika.sch/SW_2*
X235000000Y-84580000D03*
G04 #@! TD*
D13*
G04 #@! TO.P,J11,S1,SHIELD*
G04 #@! TO.N,N/C*
X153245000Y-47850000D03*
D14*
X153245000Y-52030000D03*
D13*
X161885000Y-47850000D03*
D14*
X161885000Y-52030000D03*
G04 #@! TD*
D10*
G04 #@! TO.P,J13,1,Pin_1*
G04 #@! TO.N,/elektronika.sch/3V3*
X227300000Y-71100000D03*
D11*
G04 #@! TO.P,J13,2,Pin_2*
G04 #@! TO.N,/elektronika.sch/PMOD-POWER*
X227300000Y-73640000D03*
G04 #@! TO.P,J13,3,Pin_3*
G04 #@! TO.N,/elektronika.sch/5V*
X227300000Y-76180000D03*
G04 #@! TD*
D10*
G04 #@! TO.P,J1,1,Pin_1*
G04 #@! TO.N,/elektronika.sch/IO39*
X227185000Y-67435000D03*
D11*
G04 #@! TO.P,J1,2,Pin_2*
G04 #@! TO.N,/elektronika.sch/IO18*
X229725000Y-67435000D03*
G04 #@! TO.P,J1,3,Pin_3*
G04 #@! TO.N,/elektronika.sch/IO40*
X227185000Y-64895000D03*
G04 #@! TO.P,J1,4,Pin_4*
G04 #@! TO.N,/elektronika.sch/IO17*
X229725000Y-64895000D03*
G04 #@! TO.P,J1,5,Pin_5*
G04 #@! TO.N,/elektronika.sch/IO41*
X227185000Y-62355000D03*
G04 #@! TO.P,J1,6,Pin_6*
G04 #@! TO.N,/elektronika.sch/IO16*
X229725000Y-62355000D03*
G04 #@! TO.P,J1,7,Pin_7*
G04 #@! TO.N,/elektronika.sch/IO42*
X227185000Y-59815000D03*
G04 #@! TO.P,J1,8,Pin_8*
G04 #@! TO.N,/elektronika.sch/IO15*
X229725000Y-59815000D03*
G04 #@! TO.P,J1,9,Pin_9*
G04 #@! TO.N,/elektronika.sch/GND*
X227185000Y-57275000D03*
G04 #@! TO.P,J1,10,Pin_10*
X229725000Y-57275000D03*
G04 #@! TO.P,J1,11,Pin_11*
G04 #@! TO.N,/elektronika.sch/PMOD-POWER*
X227185000Y-54735000D03*
G04 #@! TO.P,J1,12,Pin_12*
X229725000Y-54735000D03*
G04 #@! TD*
D10*
G04 #@! TO.P,J12,1,Pin_1*
G04 #@! TO.N,/elektronika.sch/ESP+programing/IO48*
X221345000Y-74810000D03*
D11*
G04 #@! TO.P,J12,2,Pin_2*
G04 #@! TO.N,/elektronika.sch/GND*
X221345000Y-77350000D03*
G04 #@! TD*
D15*
G04 #@! TO.N,/elektronika.sch/5V*
X166800000Y-64600000D03*
X184430000Y-126560000D03*
X166800000Y-63600000D03*
X157705000Y-62635000D03*
X166800000Y-62600000D03*
X165800000Y-63600000D03*
X165800000Y-62600000D03*
X189400000Y-67400000D03*
X165800000Y-64600000D03*
X150600000Y-50510000D03*
X172800000Y-70500000D03*
G04 #@! TO.N,/elektronika.sch/GND*
X156520000Y-56605000D03*
X228610000Y-128910000D03*
X233300000Y-68200000D03*
X187930000Y-62000000D03*
X164090000Y-78540000D03*
X211460000Y-62395000D03*
X173540000Y-65400000D03*
X164850000Y-113000000D03*
X231910000Y-68195000D03*
X218260000Y-53600000D03*
X165850000Y-112000000D03*
X219260000Y-53600000D03*
X164090000Y-79540000D03*
X158125000Y-56605000D03*
X204100000Y-74605000D03*
X173265000Y-56600000D03*
X177125000Y-65400000D03*
X187930000Y-61000000D03*
X210055000Y-60995000D03*
X168930000Y-54900000D03*
X228625000Y-98985000D03*
X211850000Y-85750000D03*
X205500000Y-82100000D03*
X213260000Y-53600000D03*
X207260000Y-53600000D03*
X228580000Y-80605000D03*
X219000000Y-138200000D03*
X165850000Y-106550000D03*
X228625000Y-97585000D03*
X227220000Y-128905000D03*
X153800000Y-54900000D03*
X218000000Y-138200000D03*
X231905000Y-66795000D03*
X228610000Y-127510000D03*
X212850000Y-61000000D03*
X237005000Y-72195000D03*
X186000000Y-70000000D03*
X186930000Y-62000000D03*
X177125000Y-66400000D03*
X186930000Y-61000000D03*
X164850000Y-106550000D03*
X176530000Y-54900000D03*
X227230000Y-97580000D03*
X211845000Y-84350000D03*
X205260000Y-53600000D03*
X165850000Y-113000000D03*
X172540000Y-65400000D03*
X238400000Y-73600000D03*
X165850000Y-107550000D03*
X227190000Y-82000000D03*
X214260000Y-53600000D03*
X227235000Y-98980000D03*
X172545000Y-64390000D03*
X213240000Y-85755000D03*
X164850000Y-107550000D03*
X213240000Y-84355000D03*
X185000000Y-70000000D03*
X163090000Y-79540000D03*
X172540000Y-66400000D03*
X206260000Y-53600000D03*
X238400000Y-72200000D03*
X209260000Y-53600000D03*
X218000000Y-139200000D03*
X227185000Y-80600000D03*
X216260000Y-53600000D03*
X161300000Y-54900000D03*
X233300000Y-66800000D03*
X173540000Y-66400000D03*
X173545000Y-64390000D03*
X211260000Y-53600000D03*
X204100000Y-82100000D03*
X210260000Y-53600000D03*
X215260000Y-53600000D03*
X227215000Y-127505000D03*
X208260000Y-53600000D03*
X211455000Y-60995000D03*
X163090000Y-78540000D03*
X212850000Y-62400000D03*
X164850000Y-112000000D03*
X217260000Y-53600000D03*
X202700000Y-82100000D03*
X212260000Y-53600000D03*
X228580000Y-82005000D03*
X171660000Y-56600000D03*
X219000000Y-139200000D03*
X237010000Y-73595000D03*
X185000000Y-69000000D03*
G04 #@! TO.N,/elektronika.sch/3V3*
X178600000Y-67000000D03*
X178600000Y-69000000D03*
X179600000Y-67000000D03*
X179600000Y-69000000D03*
X179600000Y-68000000D03*
X178600000Y-68000000D03*
G04 #@! TO.N,/elektronika.sch/DATA_HERNI_LED*
X153220000Y-93740000D03*
G04 #@! TO.N,/elektronika.sch/DATA_ZADANI_LED*
X152480000Y-96280000D03*
G04 #@! TO.N,/elektronika.sch/SENZOR_SVETLA*
X155640000Y-96295000D03*
X217060000Y-58040000D03*
X199765000Y-83230000D03*
G04 #@! TO.N,/elektronika.sch/SW_7*
X201285000Y-83260000D03*
X202645000Y-77500000D03*
X216060000Y-58840000D03*
X152500000Y-101360000D03*
G04 #@! TO.N,/elektronika.sch/SW_10*
X207810000Y-73190000D03*
G04 #@! TO.N,/elektronika.sch/SW_9*
X214165000Y-75655000D03*
G04 #@! TO.N,/elektronika.sch/SW_11*
X209505000Y-67245000D03*
G04 #@! TO.N,/elektronika.sch/SW_8*
X206625000Y-63205000D03*
G04 #@! TO.N,/elektronika.sch/SW_3*
X207885000Y-63210000D03*
G04 #@! TO.N,/elektronika.sch/SW_4*
X209055000Y-73195000D03*
G04 #@! TO.N,/elektronika.sch/IO15*
X219255000Y-62990000D03*
G04 #@! TO.N,/elektronika.sch/IO16*
X219250000Y-64310000D03*
G04 #@! TO.N,/elektronika.sch/IO17*
X219260000Y-65425000D03*
G04 #@! TO.N,/elektronika.sch/IO18*
X219255000Y-66690000D03*
G04 #@! TO.N,/elektronika.sch/ESP+programing/D+*
X198395709Y-69409219D03*
X184405000Y-59995000D03*
G04 #@! TO.N,/elektronika.sch/ESP+programing/D-*
X199102464Y-68702464D03*
X183400000Y-60000000D03*
G04 #@! TO.N,/elektronika.sch/ZAPINANI_1_CAST_LED*
X191570500Y-60000000D03*
X189488268Y-61561732D03*
X176515000Y-73015000D03*
X205905000Y-67720000D03*
G04 #@! TO.N,/elektronika.sch/PIEZO*
X214160000Y-76785000D03*
X209185000Y-79950000D03*
G04 #@! TO.N,/elektronika.sch/DATA_ZADANI_LED_LS*
X206535000Y-79810000D03*
X206540000Y-73190000D03*
G04 #@! TO.N,/elektronika.sch/ESP+programing/TX_ESP*
X193459280Y-57330690D03*
X218825000Y-57805000D03*
G04 #@! TO.N,/elektronika.sch/ESP+programing/RX_ESP*
X192500000Y-57050000D03*
X219605000Y-59075000D03*
G04 #@! TO.N,/elektronika.sch/SW_2*
X207890000Y-61945000D03*
G04 #@! TO.N,/elektronika.sch/EN*
X168865000Y-79745000D03*
X195862500Y-60072500D03*
X157340000Y-71010000D03*
X206470000Y-58020000D03*
X198625000Y-79775000D03*
G04 #@! TO.N,/elektronika.sch/SW_5*
X207910000Y-60665000D03*
G04 #@! TO.N,/elektronika.sch/ESP+programing/IO03-PD*
X189550000Y-87000000D03*
X201100000Y-72050000D03*
G04 #@! TO.N,/elektronika.sch/SW_12*
X197510000Y-84080000D03*
X164290000Y-86135000D03*
X214165000Y-77865000D03*
G04 #@! TO.N,/elektronika.sch/ESP+programing/IO11*
X205295000Y-70220000D03*
X188250000Y-87000000D03*
G04 #@! TO.N,/elektronika.sch/ESP+programing/IO12*
X205905000Y-69395000D03*
X187000000Y-87000000D03*
G04 #@! TO.N,/elektronika.sch/ESP+programing/IO13*
X205300000Y-68570000D03*
X185750000Y-87000000D03*
G04 #@! TD*
D16*
G04 #@! TO.N,/elektronika.sch/5V*
X214385000Y-119585000D02*
X224315000Y-119585000D01*
X166300000Y-71500000D02*
X166300000Y-62600000D01*
D17*
X184430000Y-126560000D02*
X202870000Y-108120000D01*
D16*
X238000000Y-105900000D02*
X238000000Y-82900000D01*
D18*
X173300000Y-71000000D02*
X172800000Y-70500000D01*
X189400000Y-68600000D02*
X187000000Y-71000000D01*
D17*
X202870000Y-108120000D02*
X202870000Y-108070000D01*
D18*
X189400000Y-67400000D02*
X189400000Y-68600000D01*
X157705000Y-62635000D02*
X150600000Y-55530000D01*
D16*
X202870000Y-108070000D02*
X214385000Y-119585000D01*
X224315000Y-119585000D02*
X238000000Y-105900000D01*
X238000000Y-82900000D02*
X231280000Y-76180000D01*
X195900000Y-101100000D02*
X166300000Y-71500000D01*
D18*
X187000000Y-71000000D02*
X173300000Y-71000000D01*
D16*
X195900000Y-101100000D02*
X202870000Y-108070000D01*
D18*
X150600000Y-55530000D02*
X150600000Y-50510000D01*
D16*
X214385000Y-119585000D02*
X214385000Y-134670000D01*
X231280000Y-76180000D02*
X227300000Y-76180000D01*
G04 #@! TO.N,/elektronika.sch/3V3*
X221900000Y-57100000D02*
X221900000Y-59990000D01*
X218510000Y-61390000D02*
X216900000Y-63000000D01*
X220030690Y-55230690D02*
X221900000Y-57100000D01*
X179100000Y-68500000D02*
X179100000Y-61800000D01*
X185669310Y-55230690D02*
X220030690Y-55230690D01*
X221300000Y-71100000D02*
X227300000Y-71100000D01*
X221900000Y-59990000D02*
X220500000Y-61390000D01*
X216900000Y-66700000D02*
X221300000Y-71100000D01*
X179100000Y-61800000D02*
X185669310Y-55230690D01*
X216900000Y-63000000D02*
X216900000Y-66700000D01*
X220500000Y-61390000D02*
X218510000Y-61390000D01*
D19*
G04 #@! TO.N,/elektronika.sch/DATA_HERNI_LED*
X153220000Y-93740000D02*
X144900000Y-93740000D01*
G04 #@! TO.N,/elektronika.sch/DATA_ZADANI_LED*
X144900000Y-96280000D02*
X152480000Y-96280000D01*
G04 #@! TO.N,/elektronika.sch/SENZOR_SVETLA*
X217060000Y-58040000D02*
X208120000Y-58040000D01*
X199765000Y-75490000D02*
X199765000Y-83230000D01*
X152340000Y-88660000D02*
X144900000Y-88660000D01*
X205991472Y-71785000D02*
X203470000Y-71785000D01*
X205135000Y-61025000D02*
X205135000Y-63988528D01*
X207410000Y-70366472D02*
X205991472Y-71785000D01*
X208120000Y-58040000D02*
X205135000Y-61025000D01*
X203470000Y-71785000D02*
X199765000Y-75490000D01*
X155640000Y-91960000D02*
X152340000Y-88660000D01*
X155640000Y-96295000D02*
X155640000Y-91960000D01*
X207410000Y-66263528D02*
X207410000Y-70366472D01*
X205135000Y-63988528D02*
X207410000Y-66263528D01*
G04 #@! TO.N,/elektronika.sch/SW_7*
X201280000Y-74920000D02*
X201280000Y-77600000D01*
X206240000Y-72385000D02*
X203815000Y-72385000D01*
X201380000Y-77500000D02*
X201280000Y-77600000D01*
X208010000Y-70615000D02*
X206240000Y-72385000D01*
X205735000Y-61355000D02*
X205735000Y-63740000D01*
X201280000Y-83255000D02*
X201280000Y-77600000D01*
X201285000Y-83260000D02*
X201280000Y-83255000D01*
X205735000Y-63740000D02*
X208010000Y-66015000D01*
X208010000Y-66015000D02*
X208010000Y-70615000D01*
X216060000Y-58840000D02*
X208250000Y-58840000D01*
X208250000Y-58840000D02*
X205735000Y-61355000D01*
X144900000Y-101360000D02*
X152500000Y-101360000D01*
X203815000Y-72385000D02*
X201280000Y-74920000D01*
X202645000Y-77500000D02*
X201380000Y-77500000D01*
G04 #@! TO.N,/elektronika.sch/SW_10*
X233308528Y-98820000D02*
X215590000Y-81101472D01*
X215590000Y-81101472D02*
X215590000Y-75890000D01*
X215590000Y-75890000D02*
X213780000Y-74080000D01*
X235000000Y-98820000D02*
X233308528Y-98820000D01*
X208700000Y-74080000D02*
X207810000Y-73190000D01*
X213780000Y-74080000D02*
X208700000Y-74080000D01*
G04 #@! TO.N,/elektronika.sch/SW_9*
X214990000Y-81350000D02*
X235000000Y-101360000D01*
X214990000Y-76480000D02*
X214990000Y-81350000D01*
X214165000Y-75655000D02*
X214990000Y-76480000D01*
G04 #@! TO.N,/elektronika.sch/SW_11*
X209505000Y-67245000D02*
X216790000Y-74530000D01*
X216790000Y-80604416D02*
X228385584Y-92200000D01*
X216790000Y-74530000D02*
X216790000Y-80604416D01*
X228385584Y-92200000D02*
X235000000Y-92200000D01*
G04 #@! TO.N,/elektronika.sch/SW_8*
X210305000Y-66913629D02*
X210305000Y-67196472D01*
X217390000Y-74281472D02*
X217390000Y-80355888D01*
X235000000Y-89660000D02*
X230680000Y-89660000D01*
X206625000Y-63205000D02*
X206625000Y-63233629D01*
X206625000Y-63233629D02*
X210305000Y-66913629D01*
X226694112Y-89660000D02*
X230680000Y-89660000D01*
X210305000Y-67196472D02*
X217390000Y-74281472D01*
X217390000Y-80355888D02*
X226694112Y-89660000D01*
X230680000Y-89660000D02*
X229981573Y-89660000D01*
G04 #@! TO.N,/elektronika.sch/SW_3*
X217990000Y-74032944D02*
X217990000Y-80107360D01*
X210905000Y-66230000D02*
X210905000Y-66947944D01*
X210905000Y-66947944D02*
X217990000Y-74032944D01*
X207885000Y-63210000D02*
X210905000Y-66230000D01*
X217990000Y-80107360D02*
X225002640Y-87120000D01*
X225002640Y-87120000D02*
X235000000Y-87120000D01*
G04 #@! TO.N,/elektronika.sch/SW_4*
X209055000Y-73195000D02*
X214115000Y-73195000D01*
X216190000Y-75270000D02*
X216190000Y-80852944D01*
X214115000Y-73195000D02*
X216190000Y-75270000D01*
X216190000Y-80852944D02*
X231617056Y-96280000D01*
X231617056Y-96280000D02*
X235000000Y-96280000D01*
G04 #@! TO.N,/elektronika.sch/IO15*
X228455000Y-58545000D02*
X229725000Y-59815000D01*
X222237233Y-62995000D02*
X226687233Y-58545000D01*
X219260000Y-62995000D02*
X219255000Y-62990000D01*
X226687233Y-58545000D02*
X228455000Y-58545000D01*
X219255000Y-62990000D02*
X221492233Y-62990000D01*
X222237233Y-62995000D02*
X219260000Y-62995000D01*
G04 #@! TO.N,/elektronika.sch/IO16*
X228455000Y-61085000D02*
X229725000Y-62355000D01*
X225465000Y-61085000D02*
X228455000Y-61085000D01*
X219250000Y-64310000D02*
X222230000Y-64310000D01*
X222235000Y-64315000D02*
X225465000Y-61085000D01*
X222230000Y-64310000D02*
X222235000Y-64315000D01*
G04 #@! TO.N,/elektronika.sch/IO17*
X222260000Y-65425000D02*
X219260000Y-65425000D01*
X229725000Y-64895000D02*
X228455000Y-63625000D01*
X228455000Y-63625000D02*
X224060000Y-63625000D01*
X224060000Y-63625000D02*
X222260000Y-65425000D01*
G04 #@! TO.N,/elektronika.sch/IO18*
X222245000Y-66690000D02*
X222775000Y-66160000D01*
X222775000Y-66160000D02*
X228450000Y-66160000D01*
X219255000Y-66690000D02*
X222245000Y-66690000D01*
X228450000Y-66160000D02*
X229725000Y-67435000D01*
D18*
G04 #@! TO.N,/elektronika.sch/ESP+programing/D+*
X188981490Y-59995000D02*
X184405000Y-59995000D01*
X198395709Y-69409219D02*
X188981490Y-59995000D01*
G04 #@! TO.N,/elektronika.sch/ESP+programing/D-*
X189595000Y-59195000D02*
X184144339Y-59195000D01*
X184144339Y-59195000D02*
X183400000Y-59939339D01*
X183400000Y-59939339D02*
X183400000Y-60000000D01*
X199102464Y-68702464D02*
X189595000Y-59195000D01*
D19*
G04 #@! TO.N,/elektronika.sch/ZAPINANI_1_CAST_LED*
X189488268Y-61561732D02*
X191995000Y-64068464D01*
X205905000Y-67720000D02*
X199290500Y-67720000D01*
X191995000Y-68975000D02*
X187955000Y-73015000D01*
X199290500Y-67720000D02*
X191570500Y-60000000D01*
X191995000Y-64068464D02*
X191995000Y-68975000D01*
X187955000Y-73015000D02*
X176515000Y-73015000D01*
G04 #@! TO.N,/elektronika.sch/PIEZO*
X212350000Y-76785000D02*
X209185000Y-79950000D01*
X214160000Y-76785000D02*
X212350000Y-76785000D01*
G04 #@! TO.N,/elektronika.sch/DATA_ZADANI_LED_LS*
X206535000Y-79810000D02*
X206540000Y-79805000D01*
X206540000Y-79805000D02*
X206540000Y-73190000D01*
D18*
G04 #@! TO.N,/elektronika.sch/ESP+programing/TX_ESP*
X193684312Y-57105658D02*
X218125658Y-57105658D01*
X193459280Y-57330690D02*
X193684312Y-57105658D01*
X218125658Y-57105658D02*
X218825000Y-57805000D01*
G04 #@! TO.N,/elektronika.sch/ESP+programing/RX_ESP*
X219605000Y-57524339D02*
X218686319Y-56605658D01*
X219605000Y-59075000D02*
X219605000Y-57524339D01*
X217745032Y-56580690D02*
X192969310Y-56580690D01*
X192969310Y-56580690D02*
X192500000Y-57050000D01*
X218686319Y-56605658D02*
X217770000Y-56605658D01*
X217770000Y-56605658D02*
X217745032Y-56580690D01*
D19*
G04 #@! TO.N,/elektronika.sch/SW_2*
X223311168Y-84580000D02*
X235000000Y-84580000D01*
X218590000Y-73784416D02*
X218590000Y-79858832D01*
X207890000Y-61945000D02*
X211505000Y-65560000D01*
X211505000Y-66699416D02*
X218590000Y-73784416D01*
X211505000Y-65560000D02*
X211505000Y-66699416D01*
X218590000Y-79858832D02*
X223311168Y-84580000D01*
G04 #@! TO.N,/elektronika.sch/EN*
X160130000Y-71010000D02*
X157340000Y-71010000D01*
X206810000Y-66630000D02*
X206810000Y-70117944D01*
D18*
X203831028Y-60072500D02*
X204535000Y-60776472D01*
D19*
X206810000Y-70117944D02*
X205742944Y-71185000D01*
X204535000Y-64355000D02*
X206810000Y-66630000D01*
X205742944Y-71185000D02*
X203221472Y-71185000D01*
X198625000Y-75781472D02*
X198625000Y-79775000D01*
X206470000Y-58020000D02*
X206470000Y-58841472D01*
X204535000Y-60776472D02*
X204535000Y-64355000D01*
X206470000Y-58841472D02*
X204535000Y-60776472D01*
D18*
X195862500Y-60072500D02*
X203831028Y-60072500D01*
D19*
X168865000Y-79745000D02*
X160130000Y-71010000D01*
X203221472Y-71185000D02*
X198625000Y-75781472D01*
G04 #@! TO.N,/elektronika.sch/SW_5*
X235497767Y-83310000D02*
X236250000Y-84062233D01*
X212105000Y-64860000D02*
X212105000Y-66450888D01*
X222889696Y-83310000D02*
X235497767Y-83310000D01*
X212105000Y-66450888D02*
X219190000Y-73535888D01*
X236250000Y-102650000D02*
X235000000Y-103900000D01*
X219190000Y-79610304D02*
X222889696Y-83310000D01*
X236250000Y-84062233D02*
X236250000Y-102650000D01*
X207910000Y-60665000D02*
X212105000Y-64860000D01*
X219190000Y-73535888D02*
X219190000Y-79610304D01*
G04 #@! TO.N,/elektronika.sch/ESP+programing/IO03-PD*
X201100000Y-72050000D02*
X189550000Y-83600000D01*
X189550000Y-83600000D02*
X189550000Y-87000000D01*
G04 #@! TO.N,/elektronika.sch/SW_12*
X164275000Y-86120000D02*
X144900000Y-86120000D01*
X164290000Y-86135000D02*
X164275000Y-86120000D01*
X214165000Y-77865000D02*
X207950000Y-84080000D01*
X207950000Y-84080000D02*
X197510000Y-84080000D01*
G04 #@! TO.N,/elektronika.sch/ESP+programing/IO11*
X188250000Y-83600000D02*
X201630000Y-70220000D01*
X201630000Y-70220000D02*
X205295000Y-70220000D01*
X188250000Y-87000000D02*
X188250000Y-83600000D01*
G04 #@! TO.N,/elektronika.sch/ESP+programing/IO12*
X201455000Y-69395000D02*
X205905000Y-69395000D01*
X187000000Y-83850000D02*
X201455000Y-69395000D01*
X187000000Y-87000000D02*
X187000000Y-83850000D01*
G04 #@! TO.N,/elektronika.sch/ESP+programing/IO13*
X201230000Y-68570000D02*
X205300000Y-68570000D01*
X185750000Y-84050000D02*
X201230000Y-68570000D01*
X185750000Y-87000000D02*
X185750000Y-84050000D01*
G04 #@! TD*
G04 #@! TA.AperFunction,Conductor*
G04 #@! TO.N,/elektronika.sch/GND*
G36*
X192942121Y-45270502D02*
G01*
X192988614Y-45324158D01*
X193000000Y-45376500D01*
X193000000Y-53000000D01*
X239623500Y-53000000D01*
X239691621Y-53020002D01*
X239738114Y-53073658D01*
X239749500Y-53126000D01*
X239749500Y-139962915D01*
X239747079Y-139987496D01*
X239744592Y-140000000D01*
X239747014Y-140012173D01*
X239747014Y-140023119D01*
X239747954Y-140035410D01*
X239731667Y-140408448D01*
X239730709Y-140419399D01*
X239678061Y-140819293D01*
X239676152Y-140830117D01*
X239588856Y-141223889D01*
X239586011Y-141234506D01*
X239568507Y-141290024D01*
X239464726Y-141619174D01*
X239460970Y-141629496D01*
X239408416Y-141756373D01*
X239306612Y-142002149D01*
X239301970Y-142012102D01*
X239115730Y-142369867D01*
X239110234Y-142379387D01*
X238893522Y-142719556D01*
X238887218Y-142728560D01*
X238673898Y-143006565D01*
X238641673Y-143048561D01*
X238634609Y-143056978D01*
X238362298Y-143354155D01*
X238362121Y-143354348D01*
X238354352Y-143362117D01*
X238071311Y-143621476D01*
X238056981Y-143634607D01*
X238048564Y-143641670D01*
X237937199Y-143727124D01*
X237728560Y-143887218D01*
X237719556Y-143893522D01*
X237379387Y-144110234D01*
X237369868Y-144115729D01*
X237012102Y-144301970D01*
X237002158Y-144306608D01*
X236629496Y-144460970D01*
X236619181Y-144464723D01*
X236234507Y-144586011D01*
X236223889Y-144588856D01*
X235830117Y-144676152D01*
X235819293Y-144678061D01*
X235419399Y-144730709D01*
X235408448Y-144731667D01*
X235035410Y-144747954D01*
X235023119Y-144747014D01*
X235012173Y-144747014D01*
X235000000Y-144744592D01*
X234987829Y-144747013D01*
X234987827Y-144747013D01*
X234987496Y-144747079D01*
X234962915Y-144749500D01*
X145037085Y-144749500D01*
X145012504Y-144747079D01*
X145012173Y-144747013D01*
X145012171Y-144747013D01*
X145000000Y-144744592D01*
X144987827Y-144747014D01*
X144976881Y-144747014D01*
X144964590Y-144747954D01*
X144591552Y-144731667D01*
X144580601Y-144730709D01*
X144180707Y-144678061D01*
X144169883Y-144676152D01*
X143776111Y-144588856D01*
X143765493Y-144586011D01*
X143380819Y-144464723D01*
X143370504Y-144460970D01*
X142997842Y-144306608D01*
X142987898Y-144301970D01*
X142630132Y-144115729D01*
X142620613Y-144110234D01*
X142280444Y-143893522D01*
X142271440Y-143887218D01*
X142062801Y-143727124D01*
X141951436Y-143641670D01*
X141943019Y-143634607D01*
X141928689Y-143621476D01*
X141645648Y-143362117D01*
X141637879Y-143354348D01*
X141637703Y-143354155D01*
X141365391Y-143056978D01*
X141358327Y-143048561D01*
X141326103Y-143006565D01*
X141112782Y-142728560D01*
X141106478Y-142719556D01*
X140889766Y-142379387D01*
X140884270Y-142369867D01*
X140698030Y-142012102D01*
X140693388Y-142002149D01*
X140591585Y-141756373D01*
X140539030Y-141629496D01*
X140535274Y-141619174D01*
X140431494Y-141290024D01*
X140413989Y-141234506D01*
X140411144Y-141223889D01*
X140352053Y-140957341D01*
X140944991Y-140957341D01*
X140959275Y-141298146D01*
X140959813Y-141301619D01*
X141010572Y-141629503D01*
X141011459Y-141635234D01*
X141100892Y-141964405D01*
X141102182Y-141967664D01*
X141102184Y-141967669D01*
X141119780Y-142012111D01*
X141226461Y-142281555D01*
X141228107Y-142284651D01*
X141228109Y-142284655D01*
X141384951Y-142579631D01*
X141386600Y-142582732D01*
X141388585Y-142585631D01*
X141577321Y-142861274D01*
X141577326Y-142861280D01*
X141579312Y-142864181D01*
X141802196Y-143122395D01*
X142052474Y-143354155D01*
X142327026Y-143556572D01*
X142330063Y-143558326D01*
X142330067Y-143558328D01*
X142444483Y-143624386D01*
X142622431Y-143727124D01*
X142625652Y-143728531D01*
X142931783Y-143862277D01*
X142931793Y-143862281D01*
X142935005Y-143863684D01*
X142938362Y-143864723D01*
X142938367Y-143864725D01*
X143257494Y-143963511D01*
X143260854Y-143964551D01*
X143264310Y-143965210D01*
X143264309Y-143965210D01*
X143592465Y-144027810D01*
X143592471Y-144027811D01*
X143595916Y-144028468D01*
X143774627Y-144042219D01*
X143932517Y-144054368D01*
X143932518Y-144054368D01*
X143936014Y-144054637D01*
X144148773Y-144047207D01*
X144273395Y-144042856D01*
X144273400Y-144042856D01*
X144276910Y-144042733D01*
X144445632Y-144017818D01*
X144610876Y-143993417D01*
X144610881Y-143993416D01*
X144614355Y-143992903D01*
X144617747Y-143992007D01*
X144617751Y-143992006D01*
X144940751Y-143906666D01*
X144940752Y-143906666D01*
X144944142Y-143905770D01*
X145262161Y-143782418D01*
X145564448Y-143624386D01*
X145847236Y-143433643D01*
X145935642Y-143358404D01*
X146104326Y-143214842D01*
X146104327Y-143214841D01*
X146106999Y-143212567D01*
X146261011Y-143048561D01*
X146306613Y-143000000D01*
X147648947Y-143000000D01*
X147649637Y-143006565D01*
X147661812Y-143122395D01*
X147667108Y-143172786D01*
X147669148Y-143179064D01*
X147669148Y-143179065D01*
X147680773Y-143214842D01*
X147720795Y-143338020D01*
X147724098Y-143343742D01*
X147724099Y-143343743D01*
X147730222Y-143354348D01*
X147807664Y-143488481D01*
X147812082Y-143493388D01*
X147812083Y-143493389D01*
X147871256Y-143559107D01*
X147923917Y-143617593D01*
X147929259Y-143621474D01*
X147929261Y-143621476D01*
X147952456Y-143638328D01*
X148064473Y-143719713D01*
X148070501Y-143722397D01*
X148070503Y-143722398D01*
X148201648Y-143780787D01*
X148223190Y-143790378D01*
X148308160Y-143808439D01*
X148386674Y-143825128D01*
X148386678Y-143825128D01*
X148393131Y-143826500D01*
X148566869Y-143826500D01*
X148573322Y-143825128D01*
X148573326Y-143825128D01*
X148651840Y-143808439D01*
X148736810Y-143790378D01*
X148758352Y-143780787D01*
X148889497Y-143722398D01*
X148889499Y-143722397D01*
X148895527Y-143719713D01*
X149007544Y-143638328D01*
X149030739Y-143621476D01*
X149030741Y-143621474D01*
X149036083Y-143617593D01*
X149088744Y-143559107D01*
X149147917Y-143493389D01*
X149147918Y-143493388D01*
X149152336Y-143488481D01*
X149229778Y-143354348D01*
X149235901Y-143343743D01*
X149235902Y-143343742D01*
X149239205Y-143338020D01*
X149279228Y-143214842D01*
X149290852Y-143179065D01*
X149290852Y-143179064D01*
X149292892Y-143172786D01*
X149298189Y-143122395D01*
X149310363Y-143006565D01*
X149311053Y-143000000D01*
X149297058Y-142866849D01*
X149293582Y-142833778D01*
X149293582Y-142833777D01*
X149292892Y-142827214D01*
X149259422Y-142724201D01*
X149241247Y-142668264D01*
X149241246Y-142668262D01*
X149239205Y-142661980D01*
X149152336Y-142511519D01*
X149051575Y-142399612D01*
X149040505Y-142387318D01*
X149040504Y-142387317D01*
X149036083Y-142382407D01*
X149025545Y-142374750D01*
X148900869Y-142284168D01*
X148900868Y-142284167D01*
X148895527Y-142280287D01*
X148889499Y-142277603D01*
X148889497Y-142277602D01*
X148742841Y-142212307D01*
X148742840Y-142212307D01*
X148736810Y-142209622D01*
X148651840Y-142191561D01*
X148573326Y-142174872D01*
X148573322Y-142174872D01*
X148566869Y-142173500D01*
X148393131Y-142173500D01*
X148386678Y-142174872D01*
X148386674Y-142174872D01*
X148308160Y-142191561D01*
X148223190Y-142209622D01*
X148217160Y-142212307D01*
X148217159Y-142212307D01*
X148070504Y-142277602D01*
X148070502Y-142277603D01*
X148064474Y-142280287D01*
X148059133Y-142284167D01*
X148059132Y-142284168D01*
X147929261Y-142378524D01*
X147929259Y-142378526D01*
X147923917Y-142382407D01*
X147919496Y-142387317D01*
X147919495Y-142387318D01*
X147908426Y-142399612D01*
X147807664Y-142511519D01*
X147720795Y-142661980D01*
X147718754Y-142668262D01*
X147718753Y-142668264D01*
X147700578Y-142724201D01*
X147667108Y-142827214D01*
X147666418Y-142833777D01*
X147666418Y-142833778D01*
X147662942Y-142866849D01*
X147648947Y-143000000D01*
X146306613Y-143000000D01*
X146338090Y-142966481D01*
X146338094Y-142966476D01*
X146340501Y-142963913D01*
X146342606Y-142961099D01*
X146342612Y-142961092D01*
X146519829Y-142724201D01*
X146544830Y-142690781D01*
X146547023Y-142687044D01*
X146610787Y-142578359D01*
X146717440Y-142396574D01*
X146725092Y-142379387D01*
X146854747Y-142088178D01*
X146854749Y-142088173D01*
X146856179Y-142084961D01*
X146959319Y-141759824D01*
X147025573Y-141425217D01*
X147038661Y-141269360D01*
X147053933Y-141087493D01*
X147053934Y-141087482D01*
X147054116Y-141085309D01*
X147055307Y-141000000D01*
X147053120Y-140960868D01*
X147052923Y-140957341D01*
X232944991Y-140957341D01*
X232959275Y-141298146D01*
X232959813Y-141301619D01*
X233010572Y-141629503D01*
X233011459Y-141635234D01*
X233100892Y-141964405D01*
X233102182Y-141967664D01*
X233102184Y-141967669D01*
X233119780Y-142012111D01*
X233226461Y-142281555D01*
X233228107Y-142284651D01*
X233228109Y-142284655D01*
X233384951Y-142579631D01*
X233386600Y-142582732D01*
X233388585Y-142585631D01*
X233577321Y-142861274D01*
X233577326Y-142861280D01*
X233579312Y-142864181D01*
X233802196Y-143122395D01*
X234052474Y-143354155D01*
X234327026Y-143556572D01*
X234330063Y-143558326D01*
X234330067Y-143558328D01*
X234444483Y-143624386D01*
X234622431Y-143727124D01*
X234625652Y-143728531D01*
X234931783Y-143862277D01*
X234931793Y-143862281D01*
X234935005Y-143863684D01*
X234938362Y-143864723D01*
X234938367Y-143864725D01*
X235257494Y-143963511D01*
X235260854Y-143964551D01*
X235264310Y-143965210D01*
X235264309Y-143965210D01*
X235592465Y-144027810D01*
X235592471Y-144027811D01*
X235595916Y-144028468D01*
X235774627Y-144042219D01*
X235932517Y-144054368D01*
X235932518Y-144054368D01*
X235936014Y-144054637D01*
X236148773Y-144047207D01*
X236273395Y-144042856D01*
X236273400Y-144042856D01*
X236276910Y-144042733D01*
X236445632Y-144017818D01*
X236610876Y-143993417D01*
X236610881Y-143993416D01*
X236614355Y-143992903D01*
X236617747Y-143992007D01*
X236617751Y-143992006D01*
X236940751Y-143906666D01*
X236940752Y-143906666D01*
X236944142Y-143905770D01*
X237262161Y-143782418D01*
X237564448Y-143624386D01*
X237847236Y-143433643D01*
X237935642Y-143358404D01*
X238104326Y-143214842D01*
X238104327Y-143214841D01*
X238106999Y-143212567D01*
X238261011Y-143048561D01*
X238338090Y-142966481D01*
X238338094Y-142966476D01*
X238340501Y-142963913D01*
X238342606Y-142961099D01*
X238342612Y-142961092D01*
X238519829Y-142724201D01*
X238544830Y-142690781D01*
X238547023Y-142687044D01*
X238610787Y-142578359D01*
X238717440Y-142396574D01*
X238725092Y-142379387D01*
X238854747Y-142088178D01*
X238854749Y-142088173D01*
X238856179Y-142084961D01*
X238959319Y-141759824D01*
X239025573Y-141425217D01*
X239038661Y-141269360D01*
X239053933Y-141087493D01*
X239053934Y-141087482D01*
X239054116Y-141085309D01*
X239055307Y-141000000D01*
X239053120Y-140960868D01*
X239036462Y-140662937D01*
X239036266Y-140659428D01*
X238998130Y-140433954D01*
X238979968Y-140326570D01*
X238979967Y-140326565D01*
X238979381Y-140323101D01*
X238885360Y-139995211D01*
X238839972Y-139885092D01*
X238756713Y-139683090D01*
X238756709Y-139683083D01*
X238755375Y-139679845D01*
X238591047Y-139380934D01*
X238394424Y-139102203D01*
X238320756Y-139019228D01*
X238170289Y-138849753D01*
X238170283Y-138849747D01*
X238167956Y-138847126D01*
X237914467Y-138618883D01*
X237821404Y-138552257D01*
X237639982Y-138422371D01*
X237639975Y-138422367D01*
X237637115Y-138420319D01*
X237339358Y-138253908D01*
X237024908Y-138121725D01*
X237021545Y-138120735D01*
X237021536Y-138120732D01*
X236820346Y-138061520D01*
X236697682Y-138025418D01*
X236427684Y-137977810D01*
X236365220Y-137966796D01*
X236365218Y-137966796D01*
X236361760Y-137966186D01*
X236358249Y-137965965D01*
X236358248Y-137965965D01*
X236024848Y-137944988D01*
X236024842Y-137944988D01*
X236021330Y-137944767D01*
X235924946Y-137949481D01*
X235684140Y-137961258D01*
X235684132Y-137961259D01*
X235680633Y-137961430D01*
X235677165Y-137961992D01*
X235677162Y-137961992D01*
X235347393Y-138015403D01*
X235347390Y-138015404D01*
X235343918Y-138015966D01*
X235340531Y-138016912D01*
X235340525Y-138016913D01*
X235018774Y-138106748D01*
X235015379Y-138107696D01*
X235012116Y-138109014D01*
X235012114Y-138109015D01*
X234702371Y-138234160D01*
X234699114Y-138235476D01*
X234399062Y-138397713D01*
X234118965Y-138592385D01*
X234116323Y-138594698D01*
X234116319Y-138594701D01*
X234086002Y-138621242D01*
X233862314Y-138817067D01*
X233632307Y-139068956D01*
X233431811Y-139344915D01*
X233263326Y-139641503D01*
X233128951Y-139955023D01*
X233030361Y-140281569D01*
X232968785Y-140617068D01*
X232968539Y-140620584D01*
X232968539Y-140620585D01*
X232954644Y-140819293D01*
X232944991Y-140957341D01*
X147052923Y-140957341D01*
X147036462Y-140662937D01*
X147036266Y-140659428D01*
X146998130Y-140433954D01*
X146979968Y-140326570D01*
X146979967Y-140326565D01*
X146979381Y-140323101D01*
X146885360Y-139995211D01*
X146839972Y-139885092D01*
X146756713Y-139683090D01*
X146756709Y-139683083D01*
X146755375Y-139679845D01*
X146591047Y-139380934D01*
X146394424Y-139102203D01*
X146320756Y-139019228D01*
X146170289Y-138849753D01*
X146170283Y-138849747D01*
X146167956Y-138847126D01*
X145914467Y-138618883D01*
X145821404Y-138552257D01*
X145639982Y-138422371D01*
X145639975Y-138422367D01*
X145637115Y-138420319D01*
X145339358Y-138253908D01*
X145024908Y-138121725D01*
X145021545Y-138120735D01*
X145021536Y-138120732D01*
X144820346Y-138061520D01*
X144697682Y-138025418D01*
X144427684Y-137977810D01*
X144365220Y-137966796D01*
X144365218Y-137966796D01*
X144361760Y-137966186D01*
X144358249Y-137965965D01*
X144358248Y-137965965D01*
X144024848Y-137944988D01*
X144024842Y-137944988D01*
X144021330Y-137944767D01*
X143924946Y-137949481D01*
X143684140Y-137961258D01*
X143684132Y-137961259D01*
X143680633Y-137961430D01*
X143677165Y-137961992D01*
X143677162Y-137961992D01*
X143347393Y-138015403D01*
X143347390Y-138015404D01*
X143343918Y-138015966D01*
X143340531Y-138016912D01*
X143340525Y-138016913D01*
X143018774Y-138106748D01*
X143015379Y-138107696D01*
X143012116Y-138109014D01*
X143012114Y-138109015D01*
X142702371Y-138234160D01*
X142699114Y-138235476D01*
X142399062Y-138397713D01*
X142118965Y-138592385D01*
X142116323Y-138594698D01*
X142116319Y-138594701D01*
X142086002Y-138621242D01*
X141862314Y-138817067D01*
X141632307Y-139068956D01*
X141431811Y-139344915D01*
X141263326Y-139641503D01*
X141128951Y-139955023D01*
X141030361Y-140281569D01*
X140968785Y-140617068D01*
X140968539Y-140620584D01*
X140968539Y-140620585D01*
X140954644Y-140819293D01*
X140944991Y-140957341D01*
X140352053Y-140957341D01*
X140323848Y-140830117D01*
X140321939Y-140819293D01*
X140269291Y-140419399D01*
X140268333Y-140408448D01*
X140252046Y-140035410D01*
X140252986Y-140023119D01*
X140252986Y-140012173D01*
X140255408Y-140000000D01*
X140252921Y-139987496D01*
X140250500Y-139962915D01*
X140250500Y-135544674D01*
X200584500Y-135544674D01*
X200599034Y-135617740D01*
X200654399Y-135700601D01*
X200737260Y-135755966D01*
X200810326Y-135770500D01*
X202559674Y-135770500D01*
X202632740Y-135755966D01*
X202715601Y-135700601D01*
X202770966Y-135617740D01*
X202785500Y-135544674D01*
X202785500Y-134641069D01*
X203120164Y-134641069D01*
X203133392Y-134842894D01*
X203183178Y-135038928D01*
X203267856Y-135222607D01*
X203271189Y-135227323D01*
X203370032Y-135367183D01*
X203384588Y-135387780D01*
X203529466Y-135528913D01*
X203534270Y-135532123D01*
X203601651Y-135577146D01*
X203697637Y-135641282D01*
X203702940Y-135643560D01*
X203702943Y-135643562D01*
X203866409Y-135713792D01*
X203883470Y-135721122D01*
X204080740Y-135765760D01*
X204086509Y-135765987D01*
X204086512Y-135765987D01*
X204162683Y-135768979D01*
X204282842Y-135773700D01*
X204369132Y-135761189D01*
X204477286Y-135745508D01*
X204477291Y-135745507D01*
X204483007Y-135744678D01*
X204488479Y-135742820D01*
X204488481Y-135742820D01*
X204669067Y-135681519D01*
X204669069Y-135681518D01*
X204674531Y-135679664D01*
X204827122Y-135594210D01*
X204845964Y-135583658D01*
X204845965Y-135583657D01*
X204851001Y-135580837D01*
X204913433Y-135528913D01*
X205002073Y-135455191D01*
X205006505Y-135451505D01*
X205121132Y-135313682D01*
X205132146Y-135300439D01*
X205135837Y-135296001D01*
X205234664Y-135119531D01*
X205240764Y-135101563D01*
X205297820Y-134933481D01*
X205297820Y-134933479D01*
X205299678Y-134928007D01*
X205300507Y-134922291D01*
X205300508Y-134922286D01*
X205317809Y-134802956D01*
X205328700Y-134727842D01*
X205330215Y-134670000D01*
X205327557Y-134641069D01*
X205660164Y-134641069D01*
X205673392Y-134842894D01*
X205723178Y-135038928D01*
X205807856Y-135222607D01*
X205811189Y-135227323D01*
X205910032Y-135367183D01*
X205924588Y-135387780D01*
X206069466Y-135528913D01*
X206074270Y-135532123D01*
X206141651Y-135577146D01*
X206237637Y-135641282D01*
X206242940Y-135643560D01*
X206242943Y-135643562D01*
X206406409Y-135713792D01*
X206423470Y-135721122D01*
X206620740Y-135765760D01*
X206626509Y-135765987D01*
X206626512Y-135765987D01*
X206702683Y-135768979D01*
X206822842Y-135773700D01*
X206909132Y-135761189D01*
X207017286Y-135745508D01*
X207017291Y-135745507D01*
X207023007Y-135744678D01*
X207028479Y-135742820D01*
X207028481Y-135742820D01*
X207209067Y-135681519D01*
X207209069Y-135681518D01*
X207214531Y-135679664D01*
X207367122Y-135594210D01*
X207385964Y-135583658D01*
X207385965Y-135583657D01*
X207391001Y-135580837D01*
X207453433Y-135528913D01*
X207542073Y-135455191D01*
X207546505Y-135451505D01*
X207661132Y-135313682D01*
X207672146Y-135300439D01*
X207675837Y-135296001D01*
X207774664Y-135119531D01*
X207780764Y-135101563D01*
X207837820Y-134933481D01*
X207837820Y-134933479D01*
X207839678Y-134928007D01*
X207840507Y-134922291D01*
X207840508Y-134922286D01*
X207857809Y-134802956D01*
X207868700Y-134727842D01*
X207870215Y-134670000D01*
X207867557Y-134641069D01*
X208200164Y-134641069D01*
X208213392Y-134842894D01*
X208263178Y-135038928D01*
X208347856Y-135222607D01*
X208351189Y-135227323D01*
X208450032Y-135367183D01*
X208464588Y-135387780D01*
X208609466Y-135528913D01*
X208614270Y-135532123D01*
X208681651Y-135577146D01*
X208777637Y-135641282D01*
X208782940Y-135643560D01*
X208782943Y-135643562D01*
X208946409Y-135713792D01*
X208963470Y-135721122D01*
X209160740Y-135765760D01*
X209166509Y-135765987D01*
X209166512Y-135765987D01*
X209242683Y-135768979D01*
X209362842Y-135773700D01*
X209449132Y-135761189D01*
X209557286Y-135745508D01*
X209557291Y-135745507D01*
X209563007Y-135744678D01*
X209568479Y-135742820D01*
X209568481Y-135742820D01*
X209749067Y-135681519D01*
X209749069Y-135681518D01*
X209754531Y-135679664D01*
X209907122Y-135594210D01*
X209925964Y-135583658D01*
X209925965Y-135583657D01*
X209931001Y-135580837D01*
X209993433Y-135528913D01*
X210082073Y-135455191D01*
X210086505Y-135451505D01*
X210201132Y-135313682D01*
X210212146Y-135300439D01*
X210215837Y-135296001D01*
X210314664Y-135119531D01*
X210318419Y-135108468D01*
X210359254Y-135050392D01*
X210425006Y-135023611D01*
X210494799Y-135036630D01*
X210546473Y-135085315D01*
X210554476Y-135101563D01*
X210626770Y-135279603D01*
X210631413Y-135288794D01*
X210742694Y-135470388D01*
X210748777Y-135478699D01*
X210888213Y-135639667D01*
X210895580Y-135646883D01*
X211059434Y-135782916D01*
X211067881Y-135788831D01*
X211251756Y-135896279D01*
X211261042Y-135900729D01*
X211460001Y-135976703D01*
X211469899Y-135979579D01*
X211573250Y-136000606D01*
X211587299Y-135999410D01*
X211591000Y-135989065D01*
X211591000Y-133353102D01*
X211587082Y-133339758D01*
X211572806Y-133337771D01*
X211534324Y-133343660D01*
X211524288Y-133346051D01*
X211321868Y-133412212D01*
X211312359Y-133416209D01*
X211123463Y-133514542D01*
X211114738Y-133520036D01*
X210944433Y-133647905D01*
X210936726Y-133654748D01*
X210789590Y-133808717D01*
X210783104Y-133816727D01*
X210663098Y-133992649D01*
X210658000Y-134001623D01*
X210568338Y-134194783D01*
X210564776Y-134204465D01*
X210558684Y-134226432D01*
X210521204Y-134286730D01*
X210457074Y-134317191D01*
X210386656Y-134308147D01*
X210332307Y-134262467D01*
X210324261Y-134248486D01*
X210323555Y-134247053D01*
X210247351Y-134092527D01*
X210229079Y-134068057D01*
X210129788Y-133935091D01*
X210129787Y-133935090D01*
X210126335Y-133930467D01*
X210103350Y-133909220D01*
X209982053Y-133797094D01*
X209982051Y-133797092D01*
X209977812Y-133793174D01*
X209950374Y-133775862D01*
X209811637Y-133688325D01*
X209806757Y-133685246D01*
X209618898Y-133610298D01*
X209420526Y-133570839D01*
X209414752Y-133570763D01*
X209414748Y-133570763D01*
X209312257Y-133569422D01*
X209218286Y-133568192D01*
X209212589Y-133569171D01*
X209212588Y-133569171D01*
X209024646Y-133601465D01*
X209024645Y-133601465D01*
X209018949Y-133602444D01*
X208829193Y-133672449D01*
X208655371Y-133775862D01*
X208503305Y-133909220D01*
X208378089Y-134068057D01*
X208283914Y-134247053D01*
X208223937Y-134440213D01*
X208200164Y-134641069D01*
X207867557Y-134641069D01*
X207851708Y-134468591D01*
X207796807Y-134273926D01*
X207707351Y-134092527D01*
X207689079Y-134068057D01*
X207589788Y-133935091D01*
X207589787Y-133935090D01*
X207586335Y-133930467D01*
X207563350Y-133909220D01*
X207442053Y-133797094D01*
X207442051Y-133797092D01*
X207437812Y-133793174D01*
X207410374Y-133775862D01*
X207271637Y-133688325D01*
X207266757Y-133685246D01*
X207078898Y-133610298D01*
X206880526Y-133570839D01*
X206874752Y-133570763D01*
X206874748Y-133570763D01*
X206772257Y-133569422D01*
X206678286Y-133568192D01*
X206672589Y-133569171D01*
X206672588Y-133569171D01*
X206484646Y-133601465D01*
X206484645Y-133601465D01*
X206478949Y-133602444D01*
X206289193Y-133672449D01*
X206115371Y-133775862D01*
X205963305Y-133909220D01*
X205838089Y-134068057D01*
X205743914Y-134247053D01*
X205683937Y-134440213D01*
X205660164Y-134641069D01*
X205327557Y-134641069D01*
X205311708Y-134468591D01*
X205256807Y-134273926D01*
X205167351Y-134092527D01*
X205149079Y-134068057D01*
X205049788Y-133935091D01*
X205049787Y-133935090D01*
X205046335Y-133930467D01*
X205023350Y-133909220D01*
X204902053Y-133797094D01*
X204902051Y-133797092D01*
X204897812Y-133793174D01*
X204870374Y-133775862D01*
X204731637Y-133688325D01*
X204726757Y-133685246D01*
X204538898Y-133610298D01*
X204340526Y-133570839D01*
X204334752Y-133570763D01*
X204334748Y-133570763D01*
X204232257Y-133569422D01*
X204138286Y-133568192D01*
X204132589Y-133569171D01*
X204132588Y-133569171D01*
X203944646Y-133601465D01*
X203944645Y-133601465D01*
X203938949Y-133602444D01*
X203749193Y-133672449D01*
X203575371Y-133775862D01*
X203423305Y-133909220D01*
X203298089Y-134068057D01*
X203203914Y-134247053D01*
X203143937Y-134440213D01*
X203120164Y-134641069D01*
X202785500Y-134641069D01*
X202785500Y-133795326D01*
X202770966Y-133722260D01*
X202715601Y-133639399D01*
X202632740Y-133584034D01*
X202559674Y-133569500D01*
X200810326Y-133569500D01*
X200737260Y-133584034D01*
X200654399Y-133639399D01*
X200599034Y-133722260D01*
X200584500Y-133795326D01*
X200584500Y-135544674D01*
X140250500Y-135544674D01*
X140250500Y-104774674D01*
X143799500Y-104774674D01*
X143814034Y-104847740D01*
X143869399Y-104930601D01*
X143952260Y-104985966D01*
X144025326Y-105000500D01*
X145774674Y-105000500D01*
X145847740Y-104985966D01*
X145930601Y-104930601D01*
X145985966Y-104847740D01*
X146000500Y-104774674D01*
X146000500Y-103025326D01*
X145985966Y-102952260D01*
X145930601Y-102869399D01*
X145847740Y-102814034D01*
X145774674Y-102799500D01*
X144025326Y-102799500D01*
X143952260Y-102814034D01*
X143869399Y-102869399D01*
X143814034Y-102952260D01*
X143799500Y-103025326D01*
X143799500Y-104774674D01*
X140250500Y-104774674D01*
X140250500Y-99087966D01*
X143568257Y-99087966D01*
X143598565Y-99222446D01*
X143601645Y-99232275D01*
X143681770Y-99429603D01*
X143686413Y-99438794D01*
X143797694Y-99620388D01*
X143803777Y-99628699D01*
X143943213Y-99789667D01*
X143950580Y-99796883D01*
X144114434Y-99932916D01*
X144122881Y-99938831D01*
X144306756Y-100046279D01*
X144316042Y-100050729D01*
X144470802Y-100109825D01*
X144527305Y-100152812D01*
X144551598Y-100219523D01*
X144535968Y-100288778D01*
X144485377Y-100338588D01*
X144469465Y-100345747D01*
X144429606Y-100360452D01*
X144424193Y-100362449D01*
X144250371Y-100465862D01*
X144098305Y-100599220D01*
X143973089Y-100758057D01*
X143878914Y-100937053D01*
X143818937Y-101130213D01*
X143795164Y-101331069D01*
X143808392Y-101532894D01*
X143809815Y-101538496D01*
X143846222Y-101681849D01*
X143858178Y-101728928D01*
X143942856Y-101912607D01*
X144059588Y-102077780D01*
X144204466Y-102218913D01*
X144372637Y-102331282D01*
X144377940Y-102333560D01*
X144377943Y-102333562D01*
X144466291Y-102371519D01*
X144558470Y-102411122D01*
X144755740Y-102455760D01*
X144761509Y-102455987D01*
X144761512Y-102455987D01*
X144837683Y-102458979D01*
X144957842Y-102463700D01*
X145044132Y-102451189D01*
X145152286Y-102435508D01*
X145152291Y-102435507D01*
X145158007Y-102434678D01*
X145163479Y-102432820D01*
X145163481Y-102432820D01*
X145344067Y-102371519D01*
X145344069Y-102371518D01*
X145349531Y-102369664D01*
X145526001Y-102270837D01*
X145588433Y-102218913D01*
X145677073Y-102145191D01*
X145681505Y-102141505D01*
X145810837Y-101986001D01*
X145815187Y-101978233D01*
X145873037Y-101874934D01*
X145923774Y-101825272D01*
X145982972Y-101810500D01*
X151979750Y-101810500D01*
X152047871Y-101830502D01*
X152064549Y-101843306D01*
X152120410Y-101894135D01*
X152127083Y-101897758D01*
X152252099Y-101965637D01*
X152252101Y-101965638D01*
X152258776Y-101969262D01*
X152266125Y-101971190D01*
X152403719Y-102007287D01*
X152403721Y-102007287D01*
X152411069Y-102009215D01*
X152494380Y-102010524D01*
X152560898Y-102011569D01*
X152560901Y-102011569D01*
X152568495Y-102011688D01*
X152721968Y-101976538D01*
X152862625Y-101905795D01*
X152898759Y-101874934D01*
X152976574Y-101808474D01*
X152976576Y-101808471D01*
X152982348Y-101803542D01*
X153074224Y-101675683D01*
X153132950Y-101529598D01*
X153155134Y-101373723D01*
X153155278Y-101360000D01*
X153136363Y-101203694D01*
X153080710Y-101056412D01*
X152991531Y-100926657D01*
X152937424Y-100878449D01*
X152879648Y-100826972D01*
X152879645Y-100826970D01*
X152873976Y-100821919D01*
X152860061Y-100814551D01*
X152790839Y-100777900D01*
X152734831Y-100748245D01*
X152718122Y-100744048D01*
X152589498Y-100711740D01*
X152589496Y-100711740D01*
X152582128Y-100709889D01*
X152574530Y-100709849D01*
X152574528Y-100709849D01*
X152507319Y-100709497D01*
X152424684Y-100709065D01*
X152417305Y-100710837D01*
X152417301Y-100710837D01*
X152278967Y-100744048D01*
X152278963Y-100744049D01*
X152271588Y-100745820D01*
X152131679Y-100818032D01*
X152125962Y-100823019D01*
X152125955Y-100823024D01*
X152062421Y-100878449D01*
X151997939Y-100908157D01*
X151979592Y-100909500D01*
X145983319Y-100909500D01*
X145915198Y-100889498D01*
X145870313Y-100839229D01*
X145842351Y-100782527D01*
X145824079Y-100758057D01*
X145724788Y-100625091D01*
X145724787Y-100625090D01*
X145721335Y-100620467D01*
X145698350Y-100599220D01*
X145577053Y-100487094D01*
X145577051Y-100487092D01*
X145572812Y-100483174D01*
X145545374Y-100465862D01*
X145406637Y-100378325D01*
X145401757Y-100375246D01*
X145325453Y-100344804D01*
X145269594Y-100300983D01*
X145246293Y-100233919D01*
X145262949Y-100164904D01*
X145314273Y-100115850D01*
X145335935Y-100107089D01*
X145392244Y-100090195D01*
X145401842Y-100086433D01*
X145593095Y-99992739D01*
X145601945Y-99987464D01*
X145775328Y-99863792D01*
X145783200Y-99857139D01*
X145934052Y-99706812D01*
X145940730Y-99698965D01*
X146065003Y-99526020D01*
X146070313Y-99517183D01*
X146164670Y-99326267D01*
X146168469Y-99316672D01*
X146230377Y-99112910D01*
X146232555Y-99102837D01*
X146233986Y-99091962D01*
X146231775Y-99077778D01*
X146218617Y-99074000D01*
X143583225Y-99074000D01*
X143569694Y-99077973D01*
X143568257Y-99087966D01*
X140250500Y-99087966D01*
X140250500Y-98554183D01*
X143564389Y-98554183D01*
X143565912Y-98562607D01*
X143578292Y-98566000D01*
X146218344Y-98566000D01*
X146231875Y-98562027D01*
X146233180Y-98552947D01*
X146191214Y-98385875D01*
X146187894Y-98376124D01*
X146102972Y-98180814D01*
X146098105Y-98171739D01*
X145982426Y-97992926D01*
X145976136Y-97984757D01*
X145832806Y-97827240D01*
X145825273Y-97820215D01*
X145658139Y-97688222D01*
X145649552Y-97682517D01*
X145463117Y-97579599D01*
X145453705Y-97575369D01*
X145333300Y-97532731D01*
X145275764Y-97491137D01*
X145249848Y-97425039D01*
X145263782Y-97355423D01*
X145313141Y-97304392D01*
X145334855Y-97294646D01*
X145338897Y-97293274D01*
X145344070Y-97291518D01*
X145344072Y-97291517D01*
X145349531Y-97289664D01*
X145526001Y-97190837D01*
X145588433Y-97138913D01*
X145677073Y-97065191D01*
X145681505Y-97061505D01*
X145810837Y-96906001D01*
X145815187Y-96898233D01*
X145873037Y-96794934D01*
X145923774Y-96745272D01*
X145982972Y-96730500D01*
X151959750Y-96730500D01*
X152027871Y-96750502D01*
X152044549Y-96763306D01*
X152100410Y-96814135D01*
X152128171Y-96829208D01*
X152232099Y-96885637D01*
X152232101Y-96885638D01*
X152238776Y-96889262D01*
X152246125Y-96891190D01*
X152383719Y-96927287D01*
X152383721Y-96927287D01*
X152391069Y-96929215D01*
X152474380Y-96930524D01*
X152540898Y-96931569D01*
X152540901Y-96931569D01*
X152548495Y-96931688D01*
X152701968Y-96896538D01*
X152842625Y-96825795D01*
X152878759Y-96794934D01*
X152956574Y-96728474D01*
X152956576Y-96728471D01*
X152962348Y-96723542D01*
X153054224Y-96595683D01*
X153112950Y-96449598D01*
X153135134Y-96293723D01*
X153135278Y-96280000D01*
X153116363Y-96123694D01*
X153064087Y-95985348D01*
X153063394Y-95983514D01*
X153063393Y-95983511D01*
X153060710Y-95976412D01*
X152971531Y-95846657D01*
X152876702Y-95762167D01*
X152859648Y-95746972D01*
X152859645Y-95746970D01*
X152853976Y-95741919D01*
X152840061Y-95734551D01*
X152743021Y-95683171D01*
X152714831Y-95668245D01*
X152698122Y-95664048D01*
X152569498Y-95631740D01*
X152569496Y-95631740D01*
X152562128Y-95629889D01*
X152554530Y-95629849D01*
X152554528Y-95629849D01*
X152487319Y-95629497D01*
X152404684Y-95629065D01*
X152397305Y-95630837D01*
X152397301Y-95630837D01*
X152258967Y-95664048D01*
X152258963Y-95664049D01*
X152251588Y-95665820D01*
X152111679Y-95738032D01*
X152105962Y-95743019D01*
X152105955Y-95743024D01*
X152042421Y-95798449D01*
X151977939Y-95828157D01*
X151959592Y-95829500D01*
X145983319Y-95829500D01*
X145915198Y-95809498D01*
X145870313Y-95759229D01*
X145842351Y-95702527D01*
X145824079Y-95678057D01*
X145724788Y-95545091D01*
X145724787Y-95545090D01*
X145721335Y-95540467D01*
X145698350Y-95519220D01*
X145577053Y-95407094D01*
X145577051Y-95407092D01*
X145572812Y-95403174D01*
X145545374Y-95385862D01*
X145406637Y-95298325D01*
X145401757Y-95295246D01*
X145213898Y-95220298D01*
X145015526Y-95180839D01*
X145009752Y-95180763D01*
X145009748Y-95180763D01*
X144907257Y-95179422D01*
X144813286Y-95178192D01*
X144807589Y-95179171D01*
X144807588Y-95179171D01*
X144619646Y-95211465D01*
X144619645Y-95211465D01*
X144613949Y-95212444D01*
X144424193Y-95282449D01*
X144250371Y-95385862D01*
X144098305Y-95519220D01*
X143973089Y-95678057D01*
X143878914Y-95857053D01*
X143818937Y-96050213D01*
X143795164Y-96251069D01*
X143808392Y-96452894D01*
X143813156Y-96471652D01*
X143846222Y-96601849D01*
X143858178Y-96648928D01*
X143942856Y-96832607D01*
X143946189Y-96837323D01*
X144022708Y-96945595D01*
X144059588Y-96997780D01*
X144204466Y-97138913D01*
X144372637Y-97251282D01*
X144377940Y-97253560D01*
X144377943Y-97253562D01*
X144478709Y-97296854D01*
X144533402Y-97342122D01*
X144554939Y-97409773D01*
X144536482Y-97478329D01*
X144483891Y-97526023D01*
X144468116Y-97532387D01*
X144376868Y-97562212D01*
X144367359Y-97566209D01*
X144178463Y-97664542D01*
X144169738Y-97670036D01*
X143999433Y-97797905D01*
X143991726Y-97804748D01*
X143844590Y-97958717D01*
X143838104Y-97966727D01*
X143718098Y-98142649D01*
X143713000Y-98151623D01*
X143623338Y-98344783D01*
X143619775Y-98354470D01*
X143564389Y-98554183D01*
X140250500Y-98554183D01*
X140250500Y-93711069D01*
X143795164Y-93711069D01*
X143808392Y-93912894D01*
X143809815Y-93918496D01*
X143846222Y-94061849D01*
X143858178Y-94108928D01*
X143942856Y-94292607D01*
X144059588Y-94457780D01*
X144204466Y-94598913D01*
X144372637Y-94711282D01*
X144377940Y-94713560D01*
X144377943Y-94713562D01*
X144466291Y-94751519D01*
X144558470Y-94791122D01*
X144755740Y-94835760D01*
X144761509Y-94835987D01*
X144761512Y-94835987D01*
X144837683Y-94838979D01*
X144957842Y-94843700D01*
X145044132Y-94831189D01*
X145152286Y-94815508D01*
X145152291Y-94815507D01*
X145158007Y-94814678D01*
X145163479Y-94812820D01*
X145163481Y-94812820D01*
X145344067Y-94751519D01*
X145344069Y-94751518D01*
X145349531Y-94749664D01*
X145526001Y-94650837D01*
X145588433Y-94598913D01*
X145677073Y-94525191D01*
X145681505Y-94521505D01*
X145810837Y-94366001D01*
X145815187Y-94358233D01*
X145873037Y-94254934D01*
X145923774Y-94205272D01*
X145982972Y-94190500D01*
X152699750Y-94190500D01*
X152767871Y-94210502D01*
X152784549Y-94223306D01*
X152840410Y-94274135D01*
X152847083Y-94277758D01*
X152972099Y-94345637D01*
X152972101Y-94345638D01*
X152978776Y-94349262D01*
X152986125Y-94351190D01*
X153123719Y-94387287D01*
X153123721Y-94387287D01*
X153131069Y-94389215D01*
X153214380Y-94390524D01*
X153280898Y-94391569D01*
X153280901Y-94391569D01*
X153288495Y-94391688D01*
X153441968Y-94356538D01*
X153582625Y-94285795D01*
X153618759Y-94254934D01*
X153696574Y-94188474D01*
X153696576Y-94188471D01*
X153702348Y-94183542D01*
X153794224Y-94055683D01*
X153852950Y-93909598D01*
X153875134Y-93753723D01*
X153875278Y-93740000D01*
X153856363Y-93583694D01*
X153800710Y-93436412D01*
X153711531Y-93306657D01*
X153657424Y-93258449D01*
X153599648Y-93206972D01*
X153599645Y-93206970D01*
X153593976Y-93201919D01*
X153580061Y-93194551D01*
X153519578Y-93162527D01*
X153454831Y-93128245D01*
X153438122Y-93124048D01*
X153309498Y-93091740D01*
X153309496Y-93091740D01*
X153302128Y-93089889D01*
X153294530Y-93089849D01*
X153294528Y-93089849D01*
X153227319Y-93089497D01*
X153144684Y-93089065D01*
X153137305Y-93090837D01*
X153137301Y-93090837D01*
X152998967Y-93124048D01*
X152998963Y-93124049D01*
X152991588Y-93125820D01*
X152851679Y-93198032D01*
X152845962Y-93203019D01*
X152845955Y-93203024D01*
X152782421Y-93258449D01*
X152717939Y-93288157D01*
X152699592Y-93289500D01*
X145983319Y-93289500D01*
X145915198Y-93269498D01*
X145870313Y-93219229D01*
X145842351Y-93162527D01*
X145824079Y-93138057D01*
X145724788Y-93005091D01*
X145724787Y-93005090D01*
X145721335Y-93000467D01*
X145698350Y-92979220D01*
X145577053Y-92867094D01*
X145577051Y-92867092D01*
X145572812Y-92863174D01*
X145545374Y-92845862D01*
X145406637Y-92758325D01*
X145401757Y-92755246D01*
X145213898Y-92680298D01*
X145015526Y-92640839D01*
X145009752Y-92640763D01*
X145009748Y-92640763D01*
X144907257Y-92639422D01*
X144813286Y-92638192D01*
X144807589Y-92639171D01*
X144807588Y-92639171D01*
X144619646Y-92671465D01*
X144619645Y-92671465D01*
X144613949Y-92672444D01*
X144424193Y-92742449D01*
X144250371Y-92845862D01*
X144098305Y-92979220D01*
X143973089Y-93138057D01*
X143878914Y-93317053D01*
X143818937Y-93510213D01*
X143795164Y-93711069D01*
X140250500Y-93711069D01*
X140250500Y-91171069D01*
X143795164Y-91171069D01*
X143808392Y-91372894D01*
X143858178Y-91568928D01*
X143942856Y-91752607D01*
X144059588Y-91917780D01*
X144204466Y-92058913D01*
X144372637Y-92171282D01*
X144377940Y-92173560D01*
X144377943Y-92173562D01*
X144466291Y-92211519D01*
X144558470Y-92251122D01*
X144755740Y-92295760D01*
X144761509Y-92295987D01*
X144761512Y-92295987D01*
X144837683Y-92298979D01*
X144957842Y-92303700D01*
X145044132Y-92291189D01*
X145152286Y-92275508D01*
X145152291Y-92275507D01*
X145158007Y-92274678D01*
X145163479Y-92272820D01*
X145163481Y-92272820D01*
X145344067Y-92211519D01*
X145344069Y-92211518D01*
X145349531Y-92209664D01*
X145526001Y-92110837D01*
X145588433Y-92058913D01*
X145677073Y-91985191D01*
X145681505Y-91981505D01*
X145810837Y-91826001D01*
X145909664Y-91649531D01*
X145918501Y-91623500D01*
X145972820Y-91463481D01*
X145972820Y-91463479D01*
X145974678Y-91458007D01*
X145975507Y-91452291D01*
X145975508Y-91452286D01*
X145994795Y-91319259D01*
X146003700Y-91257842D01*
X146005215Y-91200000D01*
X145986708Y-90998591D01*
X145931807Y-90803926D01*
X145846668Y-90631282D01*
X145844906Y-90627708D01*
X145842351Y-90622527D01*
X145824079Y-90598057D01*
X145724788Y-90465091D01*
X145724787Y-90465090D01*
X145721335Y-90460467D01*
X145698350Y-90439220D01*
X145577053Y-90327094D01*
X145577051Y-90327092D01*
X145572812Y-90323174D01*
X145545374Y-90305862D01*
X145406637Y-90218325D01*
X145401757Y-90215246D01*
X145213898Y-90140298D01*
X145015526Y-90100839D01*
X145009752Y-90100763D01*
X145009748Y-90100763D01*
X144907257Y-90099422D01*
X144813286Y-90098192D01*
X144807589Y-90099171D01*
X144807588Y-90099171D01*
X144619646Y-90131465D01*
X144619645Y-90131465D01*
X144613949Y-90132444D01*
X144424193Y-90202449D01*
X144250371Y-90305862D01*
X144098305Y-90439220D01*
X143973089Y-90598057D01*
X143878914Y-90777053D01*
X143818937Y-90970213D01*
X143795164Y-91171069D01*
X140250500Y-91171069D01*
X140250500Y-88631069D01*
X143795164Y-88631069D01*
X143808392Y-88832894D01*
X143858178Y-89028928D01*
X143942856Y-89212607D01*
X144059588Y-89377780D01*
X144204466Y-89518913D01*
X144372637Y-89631282D01*
X144377940Y-89633560D01*
X144377943Y-89633562D01*
X144466291Y-89671519D01*
X144558470Y-89711122D01*
X144755740Y-89755760D01*
X144761509Y-89755987D01*
X144761512Y-89755987D01*
X144837683Y-89758979D01*
X144957842Y-89763700D01*
X145044132Y-89751189D01*
X145152286Y-89735508D01*
X145152291Y-89735507D01*
X145158007Y-89734678D01*
X145163479Y-89732820D01*
X145163481Y-89732820D01*
X145344067Y-89671519D01*
X145344069Y-89671518D01*
X145349531Y-89669664D01*
X145526001Y-89570837D01*
X145588433Y-89518913D01*
X145677073Y-89445191D01*
X145681505Y-89441505D01*
X145810837Y-89286001D01*
X145853679Y-89209500D01*
X145873037Y-89174934D01*
X145923774Y-89125272D01*
X145982972Y-89110500D01*
X152101207Y-89110500D01*
X152169328Y-89130502D01*
X152190302Y-89147405D01*
X155152595Y-92109698D01*
X155186621Y-92172010D01*
X155189500Y-92198793D01*
X155189500Y-95769030D01*
X155169498Y-95837151D01*
X155158020Y-95852184D01*
X155153034Y-95856533D01*
X155062501Y-95985348D01*
X155005309Y-96132039D01*
X154984758Y-96288138D01*
X155002035Y-96444633D01*
X155056143Y-96592490D01*
X155060380Y-96598796D01*
X155060382Y-96598799D01*
X155094068Y-96648928D01*
X155143958Y-96723172D01*
X155166270Y-96743474D01*
X155222824Y-96794934D01*
X155260410Y-96829135D01*
X155281885Y-96840795D01*
X155392099Y-96900637D01*
X155392101Y-96900638D01*
X155398776Y-96904262D01*
X155406125Y-96906190D01*
X155543719Y-96942287D01*
X155543721Y-96942287D01*
X155551069Y-96944215D01*
X155634380Y-96945524D01*
X155700898Y-96946569D01*
X155700901Y-96946569D01*
X155708495Y-96946688D01*
X155861968Y-96911538D01*
X156002625Y-96840795D01*
X156046002Y-96803748D01*
X156116574Y-96743474D01*
X156116576Y-96743471D01*
X156122348Y-96738542D01*
X156214224Y-96610683D01*
X156272950Y-96464598D01*
X156295134Y-96308723D01*
X156295278Y-96295000D01*
X156276363Y-96138694D01*
X156242929Y-96050213D01*
X156223394Y-95998514D01*
X156223393Y-95998511D01*
X156220710Y-95991412D01*
X156131531Y-95861657D01*
X156125865Y-95856609D01*
X156121986Y-95852209D01*
X156091941Y-95787883D01*
X156090500Y-95768884D01*
X156090500Y-91994220D01*
X156091373Y-91979411D01*
X156094257Y-91955043D01*
X156095364Y-91945690D01*
X156093672Y-91936426D01*
X156093672Y-91936422D01*
X156084827Y-91887989D01*
X156084178Y-91884088D01*
X156076851Y-91835355D01*
X156076849Y-91835347D01*
X156075449Y-91826038D01*
X156072323Y-91819528D01*
X156071026Y-91812427D01*
X156043982Y-91760363D01*
X156042214Y-91756825D01*
X156020886Y-91712411D01*
X156016809Y-91703921D01*
X156011922Y-91698635D01*
X156011895Y-91698595D01*
X156008580Y-91692212D01*
X156004275Y-91687172D01*
X155967048Y-91649945D01*
X155963618Y-91646379D01*
X155931246Y-91611359D01*
X155924854Y-91604444D01*
X155918495Y-91600751D01*
X155912337Y-91595234D01*
X152682753Y-88365650D01*
X152672899Y-88354561D01*
X152657707Y-88335291D01*
X152657705Y-88335289D01*
X152651872Y-88327890D01*
X152644125Y-88322535D01*
X152644123Y-88322534D01*
X152603625Y-88294545D01*
X152600403Y-88292243D01*
X152560758Y-88262960D01*
X152560757Y-88262959D01*
X152553184Y-88257366D01*
X152546368Y-88254973D01*
X152540431Y-88250869D01*
X152531451Y-88248029D01*
X152531449Y-88248028D01*
X152511283Y-88241650D01*
X152484481Y-88233174D01*
X152480750Y-88231929D01*
X152434263Y-88215604D01*
X152434261Y-88215604D01*
X152425369Y-88212481D01*
X152418181Y-88212199D01*
X152418122Y-88212188D01*
X152411270Y-88210020D01*
X152404663Y-88209500D01*
X152351984Y-88209500D01*
X152347037Y-88209403D01*
X152290006Y-88207162D01*
X152282900Y-88209046D01*
X152274653Y-88209500D01*
X145983319Y-88209500D01*
X145915198Y-88189498D01*
X145870313Y-88139229D01*
X145864206Y-88126845D01*
X145842351Y-88082527D01*
X145824079Y-88058057D01*
X145724788Y-87925091D01*
X145724787Y-87925090D01*
X145721335Y-87920467D01*
X145698350Y-87899220D01*
X145577053Y-87787094D01*
X145577051Y-87787092D01*
X145572812Y-87783174D01*
X145545374Y-87765862D01*
X145406637Y-87678325D01*
X145401757Y-87675246D01*
X145213898Y-87600298D01*
X145015526Y-87560839D01*
X145009752Y-87560763D01*
X145009748Y-87560763D01*
X144907257Y-87559422D01*
X144813286Y-87558192D01*
X144807589Y-87559171D01*
X144807588Y-87559171D01*
X144619646Y-87591465D01*
X144619645Y-87591465D01*
X144613949Y-87592444D01*
X144424193Y-87662449D01*
X144250371Y-87765862D01*
X144098305Y-87899220D01*
X143973089Y-88058057D01*
X143878914Y-88237053D01*
X143818937Y-88430213D01*
X143795164Y-88631069D01*
X140250500Y-88631069D01*
X140250500Y-86091069D01*
X143795164Y-86091069D01*
X143808392Y-86292894D01*
X143858178Y-86488928D01*
X143942856Y-86672607D01*
X143946189Y-86677323D01*
X144054064Y-86829963D01*
X144059588Y-86837780D01*
X144204466Y-86978913D01*
X144209270Y-86982123D01*
X144262675Y-87017807D01*
X144372637Y-87091282D01*
X144377940Y-87093560D01*
X144377943Y-87093562D01*
X144553163Y-87168842D01*
X144558470Y-87171122D01*
X144755740Y-87215760D01*
X144761509Y-87215987D01*
X144761512Y-87215987D01*
X144837683Y-87218979D01*
X144957842Y-87223700D01*
X145044132Y-87211189D01*
X145152286Y-87195508D01*
X145152291Y-87195507D01*
X145158007Y-87194678D01*
X145163479Y-87192820D01*
X145163481Y-87192820D01*
X145344067Y-87131519D01*
X145344069Y-87131518D01*
X145349531Y-87129664D01*
X145526001Y-87030837D01*
X145588433Y-86978913D01*
X145677073Y-86905191D01*
X145681505Y-86901505D01*
X145810837Y-86746001D01*
X145838608Y-86696412D01*
X145873037Y-86634934D01*
X145923774Y-86585272D01*
X145982972Y-86570500D01*
X163753266Y-86570500D01*
X163821387Y-86590502D01*
X163838063Y-86603305D01*
X163884920Y-86645941D01*
X163903089Y-86662473D01*
X163910410Y-86669135D01*
X163931885Y-86680795D01*
X164042099Y-86740637D01*
X164042101Y-86740638D01*
X164048776Y-86744262D01*
X164056125Y-86746190D01*
X164193719Y-86782287D01*
X164193721Y-86782287D01*
X164201069Y-86784215D01*
X164284380Y-86785524D01*
X164350898Y-86786569D01*
X164350901Y-86786569D01*
X164358495Y-86786688D01*
X164511968Y-86751538D01*
X164652625Y-86680795D01*
X164693434Y-86645941D01*
X164766574Y-86583474D01*
X164766576Y-86583471D01*
X164772348Y-86578542D01*
X164864224Y-86450683D01*
X164922950Y-86304598D01*
X164945134Y-86148723D01*
X164945278Y-86135000D01*
X164926363Y-85978694D01*
X164892929Y-85890213D01*
X164873394Y-85838514D01*
X164873393Y-85838511D01*
X164870710Y-85831412D01*
X164781531Y-85701657D01*
X164703796Y-85632397D01*
X164669648Y-85601972D01*
X164669645Y-85601970D01*
X164663976Y-85596919D01*
X164524831Y-85523245D01*
X164460073Y-85506979D01*
X164379498Y-85486740D01*
X164379496Y-85486740D01*
X164372128Y-85484889D01*
X164364530Y-85484849D01*
X164364528Y-85484849D01*
X164297319Y-85484497D01*
X164214684Y-85484065D01*
X164207305Y-85485837D01*
X164207301Y-85485837D01*
X164068967Y-85519048D01*
X164068963Y-85519049D01*
X164061588Y-85520820D01*
X163921679Y-85593032D01*
X163915957Y-85598024D01*
X163915955Y-85598025D01*
X163869616Y-85638449D01*
X163805134Y-85668157D01*
X163786787Y-85669500D01*
X145983319Y-85669500D01*
X145915198Y-85649498D01*
X145870313Y-85599229D01*
X145842351Y-85542527D01*
X145827953Y-85523245D01*
X145724788Y-85385091D01*
X145724787Y-85385090D01*
X145721335Y-85380467D01*
X145698350Y-85359220D01*
X145577053Y-85247094D01*
X145577051Y-85247092D01*
X145572812Y-85243174D01*
X145545374Y-85225862D01*
X145406637Y-85138325D01*
X145401757Y-85135246D01*
X145213898Y-85060298D01*
X145015526Y-85020839D01*
X145009752Y-85020763D01*
X145009748Y-85020763D01*
X144907257Y-85019422D01*
X144813286Y-85018192D01*
X144807589Y-85019171D01*
X144807588Y-85019171D01*
X144619646Y-85051465D01*
X144619645Y-85051465D01*
X144613949Y-85052444D01*
X144424193Y-85122449D01*
X144250371Y-85225862D01*
X144098305Y-85359220D01*
X143973089Y-85518057D01*
X143878914Y-85697053D01*
X143818937Y-85890213D01*
X143795164Y-86091069D01*
X140250500Y-86091069D01*
X140250500Y-71003138D01*
X156684758Y-71003138D01*
X156702035Y-71159633D01*
X156756143Y-71307490D01*
X156760380Y-71313796D01*
X156760382Y-71313799D01*
X156794358Y-71364360D01*
X156843958Y-71438172D01*
X156960410Y-71544135D01*
X156978259Y-71553826D01*
X157092099Y-71615637D01*
X157092101Y-71615638D01*
X157098776Y-71619262D01*
X157106125Y-71621190D01*
X157243719Y-71657287D01*
X157243721Y-71657287D01*
X157251069Y-71659215D01*
X157334380Y-71660524D01*
X157400898Y-71661569D01*
X157400901Y-71661569D01*
X157408495Y-71661688D01*
X157561968Y-71626538D01*
X157702625Y-71555795D01*
X157708397Y-71550866D01*
X157708399Y-71550864D01*
X157756311Y-71509943D01*
X157778855Y-71490689D01*
X157843644Y-71461658D01*
X157860685Y-71460500D01*
X159891207Y-71460500D01*
X159959328Y-71480502D01*
X159980302Y-71497405D01*
X168177070Y-79694173D01*
X168211096Y-79756485D01*
X168213214Y-79769441D01*
X168227035Y-79894633D01*
X168281143Y-80042490D01*
X168285380Y-80048796D01*
X168285382Y-80048799D01*
X168313527Y-80090683D01*
X168368958Y-80173172D01*
X168418819Y-80218542D01*
X168450633Y-80247490D01*
X168485410Y-80279135D01*
X168540663Y-80309135D01*
X168617099Y-80350637D01*
X168617101Y-80350638D01*
X168623776Y-80354262D01*
X168631125Y-80356190D01*
X168768719Y-80392287D01*
X168768721Y-80392287D01*
X168776069Y-80394215D01*
X168859380Y-80395524D01*
X168925898Y-80396569D01*
X168925901Y-80396569D01*
X168933495Y-80396688D01*
X169086968Y-80361538D01*
X169227625Y-80290795D01*
X169311545Y-80219121D01*
X169341574Y-80193474D01*
X169341576Y-80193471D01*
X169347348Y-80188542D01*
X169439224Y-80060683D01*
X169497950Y-79914598D01*
X169512248Y-79814134D01*
X169519553Y-79762807D01*
X169519553Y-79762804D01*
X169520134Y-79758723D01*
X169520278Y-79745000D01*
X169501363Y-79588694D01*
X169497289Y-79577911D01*
X169448394Y-79448514D01*
X169448393Y-79448511D01*
X169445710Y-79441412D01*
X169356531Y-79311657D01*
X169286240Y-79249030D01*
X169244648Y-79211972D01*
X169244645Y-79211970D01*
X169238976Y-79206919D01*
X169099831Y-79133245D01*
X169092466Y-79131395D01*
X168954499Y-79096740D01*
X168954495Y-79096740D01*
X168947128Y-79094889D01*
X168939527Y-79094849D01*
X168939526Y-79094849D01*
X168903293Y-79094659D01*
X168835278Y-79074300D01*
X168814859Y-79057756D01*
X161204525Y-71447422D01*
X165045547Y-71447422D01*
X165048421Y-71508364D01*
X165049360Y-71528271D01*
X165049500Y-71534207D01*
X165049500Y-71556630D01*
X165049750Y-71559428D01*
X165051804Y-71582452D01*
X165052163Y-71587713D01*
X165056063Y-71670398D01*
X165057314Y-71675861D01*
X165057315Y-71675867D01*
X165060028Y-71687711D01*
X165062710Y-71704645D01*
X165064289Y-71722339D01*
X165065771Y-71727755D01*
X165065771Y-71727757D01*
X165086131Y-71802181D01*
X165087417Y-71807299D01*
X165105897Y-71887987D01*
X165108095Y-71893141D01*
X165108099Y-71893152D01*
X165112866Y-71904326D01*
X165118505Y-71920516D01*
X165123192Y-71937651D01*
X165158835Y-72012377D01*
X165160993Y-72017157D01*
X165163184Y-72022294D01*
X165193476Y-72093313D01*
X165203236Y-72108171D01*
X165211642Y-72123091D01*
X165219292Y-72139129D01*
X165222563Y-72143682D01*
X165222566Y-72143686D01*
X165267589Y-72206341D01*
X165270579Y-72210690D01*
X165312425Y-72274394D01*
X165316031Y-72279884D01*
X165319106Y-72283335D01*
X165334398Y-72300499D01*
X165342640Y-72310786D01*
X165349552Y-72320405D01*
X165395456Y-72364889D01*
X165425791Y-72394286D01*
X165427201Y-72395675D01*
X201567761Y-108536235D01*
X201601787Y-108598547D01*
X201596722Y-108669362D01*
X201567761Y-108714425D01*
X184404074Y-125878112D01*
X184344394Y-125911535D01*
X184285560Y-125925660D01*
X184208967Y-125944048D01*
X184208963Y-125944049D01*
X184201588Y-125945820D01*
X184061679Y-126018032D01*
X184055957Y-126023024D01*
X184055955Y-126023025D01*
X183948759Y-126116538D01*
X183948756Y-126116541D01*
X183943034Y-126121533D01*
X183852501Y-126250348D01*
X183795309Y-126397039D01*
X183774758Y-126553138D01*
X183792035Y-126709633D01*
X183846143Y-126857490D01*
X183850380Y-126863796D01*
X183850382Y-126863799D01*
X183890709Y-126923811D01*
X183933958Y-126988172D01*
X184050410Y-127094135D01*
X184057085Y-127097759D01*
X184182099Y-127165637D01*
X184182101Y-127165638D01*
X184188776Y-127169262D01*
X184196125Y-127171190D01*
X184333719Y-127207287D01*
X184333721Y-127207287D01*
X184341069Y-127209215D01*
X184424380Y-127210524D01*
X184490898Y-127211569D01*
X184490901Y-127211569D01*
X184498495Y-127211688D01*
X184651968Y-127176538D01*
X184792625Y-127105795D01*
X184818869Y-127083381D01*
X184906574Y-127008474D01*
X184906576Y-127008471D01*
X184912348Y-127003542D01*
X185004224Y-126875683D01*
X185062950Y-126729598D01*
X185072747Y-126660761D01*
X185102148Y-126596138D01*
X185108395Y-126589419D01*
X202275575Y-109422239D01*
X202337887Y-109388213D01*
X202408702Y-109393278D01*
X202453765Y-109422239D01*
X213097595Y-120066069D01*
X213131621Y-120128381D01*
X213134500Y-120155164D01*
X213134500Y-133743551D01*
X213114498Y-133811672D01*
X213060842Y-133858165D01*
X212990568Y-133868269D01*
X212925988Y-133838775D01*
X212915307Y-133828351D01*
X212777806Y-133677240D01*
X212770273Y-133670215D01*
X212603139Y-133538222D01*
X212594552Y-133532517D01*
X212408117Y-133429599D01*
X212398705Y-133425369D01*
X212197959Y-133354280D01*
X212187988Y-133351646D01*
X212116837Y-133338972D01*
X212103540Y-133340432D01*
X212099000Y-133354989D01*
X212099000Y-135988517D01*
X212103064Y-136002359D01*
X212116478Y-136004393D01*
X212123184Y-136003534D01*
X212133262Y-136001392D01*
X212337255Y-135940191D01*
X212346842Y-135936433D01*
X212538095Y-135842739D01*
X212546945Y-135837464D01*
X212720328Y-135713792D01*
X212728200Y-135707139D01*
X212879052Y-135556812D01*
X212885730Y-135548965D01*
X213010003Y-135376020D01*
X213015313Y-135367183D01*
X213061490Y-135273752D01*
X213109604Y-135221545D01*
X213178305Y-135203638D01*
X213245781Y-135225717D01*
X213288172Y-135275333D01*
X213304292Y-135309129D01*
X213434552Y-135490405D01*
X213484169Y-135538487D01*
X213588578Y-135639667D01*
X213594854Y-135645749D01*
X213780132Y-135770250D01*
X213785278Y-135772509D01*
X213785280Y-135772510D01*
X213866470Y-135808150D01*
X213984529Y-135859974D01*
X213989977Y-135861282D01*
X213989983Y-135861284D01*
X214196128Y-135910775D01*
X214196129Y-135910775D01*
X214201585Y-135912085D01*
X214285803Y-135916941D01*
X214418831Y-135924611D01*
X214418834Y-135924611D01*
X214424438Y-135924934D01*
X214646044Y-135898117D01*
X214859400Y-135832481D01*
X214973725Y-135773473D01*
X215052774Y-135732672D01*
X215057759Y-135730099D01*
X215062201Y-135726690D01*
X215062205Y-135726688D01*
X215230410Y-135597620D01*
X215234854Y-135594210D01*
X215385086Y-135429107D01*
X215503707Y-135240010D01*
X215586966Y-135032895D01*
X215608688Y-134928007D01*
X215625153Y-134848496D01*
X215632233Y-134814310D01*
X215635500Y-134757651D01*
X215635500Y-120961500D01*
X215655502Y-120893379D01*
X215709158Y-120846886D01*
X215761500Y-120835500D01*
X224224138Y-120835500D01*
X224240585Y-120836578D01*
X224256853Y-120838720D01*
X224256855Y-120838720D01*
X224262422Y-120839453D01*
X224343270Y-120835640D01*
X224349207Y-120835500D01*
X224371630Y-120835500D01*
X224390517Y-120833815D01*
X224397452Y-120833196D01*
X224402713Y-120832837D01*
X224403499Y-120832800D01*
X224485398Y-120828937D01*
X224490861Y-120827686D01*
X224490867Y-120827685D01*
X224502711Y-120824972D01*
X224519645Y-120822290D01*
X224537339Y-120820711D01*
X224542755Y-120819229D01*
X224542757Y-120819229D01*
X224617181Y-120798869D01*
X224622299Y-120797583D01*
X224697521Y-120780355D01*
X224697522Y-120780355D01*
X224702987Y-120779103D01*
X224708141Y-120776905D01*
X224708152Y-120776901D01*
X224719326Y-120772134D01*
X224735517Y-120766495D01*
X224747233Y-120763290D01*
X224747232Y-120763290D01*
X224752651Y-120761808D01*
X224827377Y-120726165D01*
X224832157Y-120724007D01*
X224850646Y-120716121D01*
X224908313Y-120691524D01*
X224923171Y-120681764D01*
X224938091Y-120673358D01*
X224954129Y-120665708D01*
X224958682Y-120662437D01*
X224958686Y-120662434D01*
X225021341Y-120617411D01*
X225025690Y-120614421D01*
X225091024Y-120571505D01*
X225091028Y-120571502D01*
X225094884Y-120568969D01*
X225115501Y-120550601D01*
X225125786Y-120542360D01*
X225135405Y-120535448D01*
X225209286Y-120459209D01*
X225210675Y-120457799D01*
X238819984Y-106848490D01*
X238832375Y-106837622D01*
X238845410Y-106827620D01*
X238849854Y-106824210D01*
X238904346Y-106764324D01*
X238908445Y-106760029D01*
X238924281Y-106744193D01*
X238940916Y-106724298D01*
X238944387Y-106720319D01*
X238996310Y-106663257D01*
X238996311Y-106663256D01*
X239000086Y-106659107D01*
X239009530Y-106644052D01*
X239019600Y-106630193D01*
X239027397Y-106620868D01*
X239027398Y-106620866D01*
X239030997Y-106616562D01*
X239072008Y-106544663D01*
X239074704Y-106540157D01*
X239118707Y-106470010D01*
X239125335Y-106453521D01*
X239132795Y-106438091D01*
X239138814Y-106427539D01*
X239138815Y-106427537D01*
X239141595Y-106422663D01*
X239169227Y-106344634D01*
X239171092Y-106339698D01*
X239199874Y-106268099D01*
X239201966Y-106262895D01*
X239205568Y-106245503D01*
X239210178Y-106228992D01*
X239214234Y-106217538D01*
X239216109Y-106212243D01*
X239229486Y-106130550D01*
X239230448Y-106125359D01*
X239232295Y-106116440D01*
X239247233Y-106044310D01*
X239248823Y-106016738D01*
X239250270Y-106003632D01*
X239251275Y-105997496D01*
X239251275Y-105997491D01*
X239252182Y-105991954D01*
X239250516Y-105885865D01*
X239250500Y-105883887D01*
X239250500Y-82990862D01*
X239251578Y-82974415D01*
X239253720Y-82958147D01*
X239253720Y-82958145D01*
X239254453Y-82952578D01*
X239250640Y-82871729D01*
X239250500Y-82865793D01*
X239250500Y-82843370D01*
X239248646Y-82822595D01*
X239248196Y-82817548D01*
X239247837Y-82812287D01*
X239246858Y-82791533D01*
X239243937Y-82729602D01*
X239242686Y-82724139D01*
X239242685Y-82724133D01*
X239239972Y-82712289D01*
X239237290Y-82695355D01*
X239236210Y-82683257D01*
X239235711Y-82677661D01*
X239213869Y-82597819D01*
X239212583Y-82592701D01*
X239195355Y-82517479D01*
X239195355Y-82517478D01*
X239194103Y-82512013D01*
X239191905Y-82506859D01*
X239191901Y-82506848D01*
X239187134Y-82495674D01*
X239181495Y-82479483D01*
X239178290Y-82467767D01*
X239176808Y-82462349D01*
X239141165Y-82387623D01*
X239139007Y-82382843D01*
X239131121Y-82364354D01*
X239106524Y-82306687D01*
X239096764Y-82291829D01*
X239088358Y-82276909D01*
X239080708Y-82260871D01*
X239077437Y-82256318D01*
X239077434Y-82256314D01*
X239032411Y-82193659D01*
X239029421Y-82189310D01*
X238986502Y-82123972D01*
X238986501Y-82123971D01*
X238983969Y-82120116D01*
X238965595Y-82099493D01*
X238957347Y-82089197D01*
X238953721Y-82084150D01*
X238953720Y-82084149D01*
X238950448Y-82079595D01*
X238874241Y-82005745D01*
X238872831Y-82004356D01*
X235550834Y-78682359D01*
X232228490Y-75360016D01*
X232217622Y-75347625D01*
X232207620Y-75334590D01*
X232204210Y-75330146D01*
X232144324Y-75275654D01*
X232140029Y-75271555D01*
X232124194Y-75255720D01*
X232104296Y-75239083D01*
X232100331Y-75235624D01*
X232043256Y-75183689D01*
X232043254Y-75183687D01*
X232039107Y-75179914D01*
X232024052Y-75170470D01*
X232010193Y-75160400D01*
X232000868Y-75152603D01*
X232000866Y-75152602D01*
X231996562Y-75149003D01*
X231942252Y-75118025D01*
X231924663Y-75107992D01*
X231920157Y-75105296D01*
X231850010Y-75061293D01*
X231833521Y-75054665D01*
X231818091Y-75047205D01*
X231807539Y-75041186D01*
X231807537Y-75041185D01*
X231802663Y-75038405D01*
X231724639Y-75010775D01*
X231719703Y-75008910D01*
X231648094Y-74980124D01*
X231642895Y-74978034D01*
X231637409Y-74976898D01*
X231637403Y-74976896D01*
X231625494Y-74974430D01*
X231608998Y-74969825D01*
X231592244Y-74963892D01*
X231529352Y-74953593D01*
X231510551Y-74950514D01*
X231505363Y-74949552D01*
X231445248Y-74937103D01*
X231424310Y-74932767D01*
X231419699Y-74932501D01*
X231419698Y-74932501D01*
X231396739Y-74931177D01*
X231383636Y-74929730D01*
X231377502Y-74928726D01*
X231377496Y-74928726D01*
X231371954Y-74927818D01*
X231366340Y-74927906D01*
X231366338Y-74927906D01*
X231265895Y-74929484D01*
X231263916Y-74929500D01*
X227688332Y-74929500D01*
X227620211Y-74909498D01*
X227573718Y-74855842D01*
X227563614Y-74785568D01*
X227593108Y-74720988D01*
X227647830Y-74684187D01*
X227744067Y-74651519D01*
X227744069Y-74651518D01*
X227749531Y-74649664D01*
X227872017Y-74581069D01*
X227920964Y-74553658D01*
X227920965Y-74553657D01*
X227926001Y-74550837D01*
X227949539Y-74531261D01*
X228004385Y-74485645D01*
X228081505Y-74421505D01*
X228210837Y-74266001D01*
X228309664Y-74089531D01*
X228364070Y-73929259D01*
X228372820Y-73903481D01*
X228372820Y-73903479D01*
X228374678Y-73898007D01*
X228375507Y-73892291D01*
X228375508Y-73892286D01*
X228400253Y-73721613D01*
X228403700Y-73697842D01*
X228405215Y-73640000D01*
X228386708Y-73438591D01*
X228376368Y-73401926D01*
X228333376Y-73249490D01*
X228331807Y-73243926D01*
X228242351Y-73062527D01*
X228224079Y-73038057D01*
X228124788Y-72905091D01*
X228124787Y-72905090D01*
X228121335Y-72900467D01*
X228115844Y-72895391D01*
X227977053Y-72767094D01*
X227977051Y-72767092D01*
X227972812Y-72763174D01*
X227943216Y-72744500D01*
X227806637Y-72658325D01*
X227801757Y-72655246D01*
X227613898Y-72580298D01*
X227597434Y-72577023D01*
X227567015Y-72570972D01*
X227504106Y-72538063D01*
X227468975Y-72476368D01*
X227472776Y-72405473D01*
X227514302Y-72347888D01*
X227558348Y-72325860D01*
X227737651Y-72276808D01*
X227742709Y-72274396D01*
X227742713Y-72274394D01*
X227871901Y-72212774D01*
X227926145Y-72200500D01*
X228174674Y-72200500D01*
X228247740Y-72185966D01*
X228330601Y-72130601D01*
X228385966Y-72047740D01*
X228400500Y-71974674D01*
X228400500Y-71730735D01*
X228411127Y-71680089D01*
X228487717Y-71505613D01*
X228487718Y-71505611D01*
X228489974Y-71500471D01*
X228542085Y-71283415D01*
X228549823Y-71149215D01*
X228554611Y-71066169D01*
X228554611Y-71066166D01*
X228554934Y-71060562D01*
X228528117Y-70838956D01*
X228462481Y-70625600D01*
X228414535Y-70532708D01*
X228400500Y-70474917D01*
X228400500Y-70225326D01*
X228385966Y-70152260D01*
X228330601Y-70069399D01*
X228247740Y-70014034D01*
X228174674Y-69999500D01*
X227934895Y-69999500D01*
X227877692Y-69985767D01*
X227874762Y-69984274D01*
X227870010Y-69981293D01*
X227864811Y-69979203D01*
X227864805Y-69979200D01*
X227668097Y-69900125D01*
X227668095Y-69900124D01*
X227662895Y-69898034D01*
X227657407Y-69896897D01*
X227657402Y-69896896D01*
X227490468Y-69862326D01*
X227444310Y-69852767D01*
X227439697Y-69852501D01*
X227389474Y-69849605D01*
X227389470Y-69849605D01*
X227387651Y-69849500D01*
X221870164Y-69849500D01*
X221802043Y-69829498D01*
X221781069Y-69812595D01*
X219465902Y-67497428D01*
X219431876Y-67435116D01*
X219436941Y-67364301D01*
X219479488Y-67307465D01*
X219498382Y-67295768D01*
X219582098Y-67253663D01*
X219617625Y-67235795D01*
X219623397Y-67230866D01*
X219623399Y-67230864D01*
X219693854Y-67170689D01*
X219758644Y-67141658D01*
X219775685Y-67140500D01*
X222210780Y-67140500D01*
X222225589Y-67141373D01*
X222259310Y-67145364D01*
X222268574Y-67143672D01*
X222268575Y-67143672D01*
X222317001Y-67134828D01*
X222320904Y-67134178D01*
X222369645Y-67126850D01*
X222369646Y-67126850D01*
X222378962Y-67125449D01*
X222385475Y-67122321D01*
X222392573Y-67121025D01*
X222444647Y-67093975D01*
X222448137Y-67092232D01*
X222501079Y-67066809D01*
X222506365Y-67061923D01*
X222506413Y-67061890D01*
X222512788Y-67058579D01*
X222517828Y-67054275D01*
X222555055Y-67017048D01*
X222558621Y-67013618D01*
X222593641Y-66981246D01*
X222600556Y-66974854D01*
X222604249Y-66968495D01*
X222609766Y-66962337D01*
X222924698Y-66647405D01*
X222987010Y-66613379D01*
X223013793Y-66610500D01*
X225958500Y-66610500D01*
X226026621Y-66630502D01*
X226073114Y-66684158D01*
X226084500Y-66736500D01*
X226084500Y-68309674D01*
X226099034Y-68382740D01*
X226105928Y-68393057D01*
X226105928Y-68393058D01*
X226112619Y-68403072D01*
X226154399Y-68465601D01*
X226237260Y-68520966D01*
X226310326Y-68535500D01*
X228059674Y-68535500D01*
X228132740Y-68520966D01*
X228215601Y-68465601D01*
X228257381Y-68403072D01*
X228264072Y-68393058D01*
X228264072Y-68393057D01*
X228270966Y-68382740D01*
X228285500Y-68309674D01*
X228285500Y-66936793D01*
X228305502Y-66868672D01*
X228359158Y-66822179D01*
X228429432Y-66812075D01*
X228494012Y-66841569D01*
X228500595Y-66847698D01*
X228640883Y-66987986D01*
X228674909Y-67050298D01*
X228672121Y-67114444D01*
X228643937Y-67205213D01*
X228620164Y-67406069D01*
X228633392Y-67607894D01*
X228651268Y-67678282D01*
X228675584Y-67774025D01*
X228683178Y-67803928D01*
X228767856Y-67987607D01*
X228884588Y-68152780D01*
X229029466Y-68293913D01*
X229197637Y-68406282D01*
X229202940Y-68408560D01*
X229202943Y-68408562D01*
X229378163Y-68483842D01*
X229383470Y-68486122D01*
X229580740Y-68530760D01*
X229586509Y-68530987D01*
X229586512Y-68530987D01*
X229662683Y-68533979D01*
X229782842Y-68538700D01*
X229869132Y-68526189D01*
X229977286Y-68510508D01*
X229977291Y-68510507D01*
X229983007Y-68509678D01*
X229988479Y-68507820D01*
X229988481Y-68507820D01*
X230169067Y-68446519D01*
X230169069Y-68446518D01*
X230174531Y-68444664D01*
X230351001Y-68345837D01*
X230366286Y-68333125D01*
X230447241Y-68265795D01*
X230506505Y-68216505D01*
X230635837Y-68061001D01*
X230734664Y-67884531D01*
X230746905Y-67848472D01*
X230797820Y-67698481D01*
X230797820Y-67698479D01*
X230799678Y-67693007D01*
X230800507Y-67687291D01*
X230800508Y-67687286D01*
X230820587Y-67548799D01*
X230828700Y-67492842D01*
X230830215Y-67435000D01*
X230811708Y-67233591D01*
X230756807Y-67038926D01*
X230667351Y-66857527D01*
X230640956Y-66822179D01*
X230549788Y-66700091D01*
X230549787Y-66700090D01*
X230546335Y-66695467D01*
X230522015Y-66672986D01*
X230402053Y-66562094D01*
X230402051Y-66562092D01*
X230397812Y-66558174D01*
X230226757Y-66450246D01*
X230038898Y-66375298D01*
X229840526Y-66335839D01*
X229834752Y-66335763D01*
X229834748Y-66335763D01*
X229732257Y-66334422D01*
X229638286Y-66333192D01*
X229632589Y-66334171D01*
X229632588Y-66334171D01*
X229444646Y-66366465D01*
X229444645Y-66366465D01*
X229438949Y-66367444D01*
X229420715Y-66374171D01*
X229409135Y-66378443D01*
X229338302Y-66383255D01*
X229276429Y-66349326D01*
X228883952Y-65956849D01*
X228849926Y-65894537D01*
X228854991Y-65823722D01*
X228897538Y-65766886D01*
X228964058Y-65742075D01*
X229033432Y-65757166D01*
X229043049Y-65762989D01*
X229088580Y-65793412D01*
X229197637Y-65866282D01*
X229202940Y-65868560D01*
X229202943Y-65868562D01*
X229371623Y-65941032D01*
X229383470Y-65946122D01*
X229580740Y-65990760D01*
X229586509Y-65990987D01*
X229586512Y-65990987D01*
X229662683Y-65993979D01*
X229782842Y-65998700D01*
X229869132Y-65986189D01*
X229977286Y-65970508D01*
X229977291Y-65970507D01*
X229983007Y-65969678D01*
X229988479Y-65967820D01*
X229988481Y-65967820D01*
X230169067Y-65906519D01*
X230169069Y-65906518D01*
X230174531Y-65904664D01*
X230351001Y-65805837D01*
X230413433Y-65753913D01*
X230502073Y-65680191D01*
X230506505Y-65676505D01*
X230588469Y-65577954D01*
X230632146Y-65525439D01*
X230635837Y-65521001D01*
X230734664Y-65344531D01*
X230762667Y-65262039D01*
X230797820Y-65158481D01*
X230797820Y-65158479D01*
X230799678Y-65153007D01*
X230800507Y-65147291D01*
X230800508Y-65147286D01*
X230825560Y-64974500D01*
X230828700Y-64952842D01*
X230830215Y-64895000D01*
X230811708Y-64693591D01*
X230804159Y-64666822D01*
X230758376Y-64504490D01*
X230756807Y-64498926D01*
X230667351Y-64317527D01*
X230649079Y-64293057D01*
X230549788Y-64160091D01*
X230549787Y-64160090D01*
X230546335Y-64155467D01*
X230537218Y-64147039D01*
X230402053Y-64022094D01*
X230402051Y-64022092D01*
X230397812Y-64018174D01*
X230226757Y-63910246D01*
X230038898Y-63835298D01*
X229840526Y-63795839D01*
X229834752Y-63795763D01*
X229834748Y-63795763D01*
X229732257Y-63794422D01*
X229638286Y-63793192D01*
X229632589Y-63794171D01*
X229632588Y-63794171D01*
X229444646Y-63826465D01*
X229444645Y-63826465D01*
X229438949Y-63827444D01*
X229420715Y-63834171D01*
X229409135Y-63838443D01*
X229338302Y-63843255D01*
X229276429Y-63809326D01*
X228883952Y-63416849D01*
X228849926Y-63354537D01*
X228854991Y-63283722D01*
X228897538Y-63226886D01*
X228964058Y-63202075D01*
X229033432Y-63217166D01*
X229043049Y-63222989D01*
X229096063Y-63258412D01*
X229197637Y-63326282D01*
X229202940Y-63328560D01*
X229202943Y-63328562D01*
X229291291Y-63366519D01*
X229383470Y-63406122D01*
X229580740Y-63450760D01*
X229586509Y-63450987D01*
X229586512Y-63450987D01*
X229662683Y-63453979D01*
X229782842Y-63458700D01*
X229873883Y-63445500D01*
X229977286Y-63430508D01*
X229977291Y-63430507D01*
X229983007Y-63429678D01*
X229988479Y-63427820D01*
X229988481Y-63427820D01*
X230169067Y-63366519D01*
X230169069Y-63366518D01*
X230174531Y-63364664D01*
X230302694Y-63292890D01*
X230345964Y-63268658D01*
X230345965Y-63268657D01*
X230351001Y-63265837D01*
X230358556Y-63259554D01*
X230461736Y-63173739D01*
X230506505Y-63136505D01*
X230635837Y-62981001D01*
X230638659Y-62975963D01*
X230679875Y-62902364D01*
X230734664Y-62804531D01*
X230738998Y-62791765D01*
X230797820Y-62618481D01*
X230797820Y-62618479D01*
X230799678Y-62613007D01*
X230800507Y-62607291D01*
X230800508Y-62607286D01*
X230820310Y-62470708D01*
X230828700Y-62412842D01*
X230830215Y-62355000D01*
X230811708Y-62153591D01*
X230806656Y-62135676D01*
X230764651Y-61986740D01*
X230756807Y-61958926D01*
X230667351Y-61777527D01*
X230649079Y-61753057D01*
X230549788Y-61620091D01*
X230549787Y-61620090D01*
X230546335Y-61615467D01*
X230539510Y-61609158D01*
X230402053Y-61482094D01*
X230402051Y-61482092D01*
X230397812Y-61478174D01*
X230287728Y-61408716D01*
X230231637Y-61373325D01*
X230226757Y-61370246D01*
X230038898Y-61295298D01*
X229840526Y-61255839D01*
X229834752Y-61255763D01*
X229834748Y-61255763D01*
X229732257Y-61254422D01*
X229638286Y-61253192D01*
X229632589Y-61254171D01*
X229632588Y-61254171D01*
X229444646Y-61286465D01*
X229444645Y-61286465D01*
X229438949Y-61287444D01*
X229420715Y-61294171D01*
X229409135Y-61298443D01*
X229338302Y-61303255D01*
X229276429Y-61269326D01*
X228883952Y-60876849D01*
X228849926Y-60814537D01*
X228854991Y-60743722D01*
X228897538Y-60686886D01*
X228964058Y-60662075D01*
X229033432Y-60677166D01*
X229043049Y-60682989D01*
X229096063Y-60718412D01*
X229197637Y-60786282D01*
X229202940Y-60788560D01*
X229202943Y-60788562D01*
X229378163Y-60863842D01*
X229383470Y-60866122D01*
X229580740Y-60910760D01*
X229586509Y-60910987D01*
X229586512Y-60910987D01*
X229662683Y-60913979D01*
X229782842Y-60918700D01*
X229869132Y-60906189D01*
X229977286Y-60890508D01*
X229977291Y-60890507D01*
X229983007Y-60889678D01*
X229988479Y-60887820D01*
X229988481Y-60887820D01*
X230169067Y-60826519D01*
X230169069Y-60826518D01*
X230174531Y-60824664D01*
X230351001Y-60725837D01*
X230357148Y-60720725D01*
X230463632Y-60632162D01*
X230506505Y-60596505D01*
X230635837Y-60441001D01*
X230638659Y-60435963D01*
X230666069Y-60387017D01*
X230734664Y-60264531D01*
X230751355Y-60215363D01*
X230797820Y-60078481D01*
X230797820Y-60078479D01*
X230799678Y-60073007D01*
X230800507Y-60067291D01*
X230800508Y-60067286D01*
X230828167Y-59876516D01*
X230828700Y-59872842D01*
X230830215Y-59815000D01*
X230811708Y-59613591D01*
X230795618Y-59556538D01*
X230768079Y-59458895D01*
X230756807Y-59418926D01*
X230667351Y-59237527D01*
X230652086Y-59217084D01*
X230549788Y-59080091D01*
X230549787Y-59080090D01*
X230546335Y-59075467D01*
X230538407Y-59068138D01*
X230402053Y-58942094D01*
X230402051Y-58942092D01*
X230397812Y-58938174D01*
X230226757Y-58830246D01*
X230150453Y-58799804D01*
X230094594Y-58755983D01*
X230071293Y-58688919D01*
X230087949Y-58619904D01*
X230139273Y-58570850D01*
X230160935Y-58562089D01*
X230217244Y-58545195D01*
X230226842Y-58541433D01*
X230418095Y-58447739D01*
X230426945Y-58442464D01*
X230600328Y-58318792D01*
X230608200Y-58312139D01*
X230759052Y-58161812D01*
X230765730Y-58153965D01*
X230890003Y-57981020D01*
X230895313Y-57972183D01*
X230989670Y-57781267D01*
X230993469Y-57771672D01*
X231055377Y-57567910D01*
X231057555Y-57557837D01*
X231058986Y-57546962D01*
X231056775Y-57532778D01*
X231043617Y-57529000D01*
X225868225Y-57529000D01*
X225854694Y-57532973D01*
X225853257Y-57542966D01*
X225883565Y-57677446D01*
X225886645Y-57687275D01*
X225966770Y-57884603D01*
X225971413Y-57893794D01*
X226082694Y-58075388D01*
X226088777Y-58083699D01*
X226208161Y-58221519D01*
X226237644Y-58286104D01*
X226227529Y-58356376D01*
X226202019Y-58393111D01*
X222087535Y-62507595D01*
X222025223Y-62541621D01*
X221998440Y-62544500D01*
X221594390Y-62544500D01*
X221570323Y-62542177D01*
X221563503Y-62540020D01*
X221556896Y-62539500D01*
X221425069Y-62539500D01*
X221356948Y-62519498D01*
X221310455Y-62465842D01*
X221300351Y-62395568D01*
X221334586Y-62325815D01*
X221394287Y-62264209D01*
X221395675Y-62262799D01*
X222719984Y-60938490D01*
X222732375Y-60927622D01*
X222745410Y-60917620D01*
X222749854Y-60914210D01*
X222804346Y-60854324D01*
X222808445Y-60850029D01*
X222824280Y-60834194D01*
X222840917Y-60814296D01*
X222844376Y-60810331D01*
X222846465Y-60808036D01*
X222900086Y-60749107D01*
X222909530Y-60734052D01*
X222919600Y-60720193D01*
X222919940Y-60719787D01*
X222930997Y-60706562D01*
X222958618Y-60658138D01*
X222972008Y-60634663D01*
X222974704Y-60630157D01*
X223018707Y-60560010D01*
X223025335Y-60543521D01*
X223032795Y-60528091D01*
X223038814Y-60517539D01*
X223038815Y-60517537D01*
X223041595Y-60512663D01*
X223060807Y-60458411D01*
X223069224Y-60434642D01*
X223071089Y-60429707D01*
X223099874Y-60358101D01*
X223099876Y-60358093D01*
X223101966Y-60352895D01*
X223105571Y-60335489D01*
X223110176Y-60318996D01*
X223116108Y-60302243D01*
X223129488Y-60220542D01*
X223130448Y-60215363D01*
X223131205Y-60211710D01*
X223147233Y-60134310D01*
X223148823Y-60106739D01*
X223150270Y-60093636D01*
X223151274Y-60087502D01*
X223151274Y-60087496D01*
X223152182Y-60081954D01*
X223152045Y-60073188D01*
X223150516Y-59975895D01*
X223150500Y-59973916D01*
X223150500Y-57190862D01*
X223151578Y-57174415D01*
X223153721Y-57158136D01*
X223154453Y-57152578D01*
X223150640Y-57071722D01*
X223150500Y-57065787D01*
X223150500Y-57043370D01*
X223150252Y-57040586D01*
X223150251Y-57040574D01*
X223148197Y-57017561D01*
X223147838Y-57012298D01*
X223147691Y-57009183D01*
X225849389Y-57009183D01*
X225850912Y-57017607D01*
X225863292Y-57021000D01*
X231043344Y-57021000D01*
X231056875Y-57017027D01*
X231058180Y-57007947D01*
X231016214Y-56840875D01*
X231012894Y-56831124D01*
X230927972Y-56635814D01*
X230923105Y-56626739D01*
X230807426Y-56447926D01*
X230801136Y-56439757D01*
X230657806Y-56282240D01*
X230650273Y-56275215D01*
X230483139Y-56143222D01*
X230474552Y-56137517D01*
X230288117Y-56034599D01*
X230278705Y-56030369D01*
X230158300Y-55987731D01*
X230100764Y-55946137D01*
X230074848Y-55880039D01*
X230088782Y-55810423D01*
X230138141Y-55759392D01*
X230159855Y-55749646D01*
X230163897Y-55748274D01*
X230169070Y-55746518D01*
X230169072Y-55746517D01*
X230174531Y-55744664D01*
X230318317Y-55664141D01*
X230345964Y-55648658D01*
X230345965Y-55648657D01*
X230351001Y-55645837D01*
X230413433Y-55593913D01*
X230502073Y-55520191D01*
X230506505Y-55516505D01*
X230635837Y-55361001D01*
X230734664Y-55184531D01*
X230799678Y-54993007D01*
X230800507Y-54987291D01*
X230800508Y-54987286D01*
X230828167Y-54796516D01*
X230828700Y-54792842D01*
X230830215Y-54735000D01*
X230811708Y-54533591D01*
X230756807Y-54338926D01*
X230667351Y-54157527D01*
X230653245Y-54138636D01*
X230549788Y-54000091D01*
X230549787Y-54000090D01*
X230546335Y-53995467D01*
X230538263Y-53988005D01*
X230402053Y-53862094D01*
X230402051Y-53862092D01*
X230397812Y-53858174D01*
X230370374Y-53840862D01*
X230231637Y-53753325D01*
X230226757Y-53750246D01*
X230038898Y-53675298D01*
X229840526Y-53635839D01*
X229834752Y-53635763D01*
X229834748Y-53635763D01*
X229732257Y-53634422D01*
X229638286Y-53633192D01*
X229632589Y-53634171D01*
X229632588Y-53634171D01*
X229444646Y-53666465D01*
X229444645Y-53666465D01*
X229438949Y-53667444D01*
X229249193Y-53737449D01*
X229075371Y-53840862D01*
X228923305Y-53974220D01*
X228798089Y-54133057D01*
X228703914Y-54312053D01*
X228643937Y-54505213D01*
X228620164Y-54706069D01*
X228633392Y-54907894D01*
X228683178Y-55103928D01*
X228767856Y-55287607D01*
X228771189Y-55292323D01*
X228821921Y-55364107D01*
X228884588Y-55452780D01*
X229029466Y-55593913D01*
X229197637Y-55706282D01*
X229202940Y-55708560D01*
X229202943Y-55708562D01*
X229303709Y-55751854D01*
X229358402Y-55797122D01*
X229379939Y-55864773D01*
X229361482Y-55933329D01*
X229308891Y-55981023D01*
X229293116Y-55987387D01*
X229201868Y-56017212D01*
X229192359Y-56021209D01*
X229003463Y-56119542D01*
X228994738Y-56125036D01*
X228824433Y-56252905D01*
X228816726Y-56259748D01*
X228669590Y-56413717D01*
X228663104Y-56421727D01*
X228558193Y-56575521D01*
X228503282Y-56620524D01*
X228432757Y-56628695D01*
X228369010Y-56597441D01*
X228348313Y-56572957D01*
X228267427Y-56447926D01*
X228261136Y-56439757D01*
X228117806Y-56282240D01*
X228110273Y-56275215D01*
X227943139Y-56143222D01*
X227934552Y-56137517D01*
X227748117Y-56034599D01*
X227738705Y-56030369D01*
X227618300Y-55987731D01*
X227560764Y-55946137D01*
X227534848Y-55880039D01*
X227548782Y-55810423D01*
X227598141Y-55759392D01*
X227619855Y-55749646D01*
X227623897Y-55748274D01*
X227629070Y-55746518D01*
X227629072Y-55746517D01*
X227634531Y-55744664D01*
X227778317Y-55664141D01*
X227805964Y-55648658D01*
X227805965Y-55648657D01*
X227811001Y-55645837D01*
X227873433Y-55593913D01*
X227962073Y-55520191D01*
X227966505Y-55516505D01*
X228095837Y-55361001D01*
X228194664Y-55184531D01*
X228259678Y-54993007D01*
X228260507Y-54987291D01*
X228260508Y-54987286D01*
X228288167Y-54796516D01*
X228288700Y-54792842D01*
X228290215Y-54735000D01*
X228271708Y-54533591D01*
X228216807Y-54338926D01*
X228127351Y-54157527D01*
X228113245Y-54138636D01*
X228009788Y-54000091D01*
X228009787Y-54000090D01*
X228006335Y-53995467D01*
X227998263Y-53988005D01*
X227862053Y-53862094D01*
X227862051Y-53862092D01*
X227857812Y-53858174D01*
X227830374Y-53840862D01*
X227691637Y-53753325D01*
X227686757Y-53750246D01*
X227498898Y-53675298D01*
X227300526Y-53635839D01*
X227294752Y-53635763D01*
X227294748Y-53635763D01*
X227192257Y-53634422D01*
X227098286Y-53633192D01*
X227092589Y-53634171D01*
X227092588Y-53634171D01*
X226904646Y-53666465D01*
X226904645Y-53666465D01*
X226898949Y-53667444D01*
X226709193Y-53737449D01*
X226535371Y-53840862D01*
X226383305Y-53974220D01*
X226258089Y-54133057D01*
X226163914Y-54312053D01*
X226103937Y-54505213D01*
X226080164Y-54706069D01*
X226093392Y-54907894D01*
X226143178Y-55103928D01*
X226227856Y-55287607D01*
X226231189Y-55292323D01*
X226281921Y-55364107D01*
X226344588Y-55452780D01*
X226489466Y-55593913D01*
X226657637Y-55706282D01*
X226662940Y-55708560D01*
X226662943Y-55708562D01*
X226763709Y-55751854D01*
X226818402Y-55797122D01*
X226839939Y-55864773D01*
X226821482Y-55933329D01*
X226768891Y-55981023D01*
X226753116Y-55987387D01*
X226661868Y-56017212D01*
X226652359Y-56021209D01*
X226463463Y-56119542D01*
X226454738Y-56125036D01*
X226284433Y-56252905D01*
X226276726Y-56259748D01*
X226129590Y-56413717D01*
X226123104Y-56421727D01*
X226003098Y-56597649D01*
X225998000Y-56606623D01*
X225908338Y-56799783D01*
X225904775Y-56809470D01*
X225849389Y-57009183D01*
X223147691Y-57009183D01*
X223144202Y-56935208D01*
X223143938Y-56929602D01*
X223139970Y-56912275D01*
X223137291Y-56895360D01*
X223136210Y-56883247D01*
X223136209Y-56883243D01*
X223135711Y-56877661D01*
X223134232Y-56872255D01*
X223134231Y-56872249D01*
X223113875Y-56797841D01*
X223112589Y-56792723D01*
X223102215Y-56747430D01*
X223094104Y-56712013D01*
X223087396Y-56696285D01*
X223087131Y-56695664D01*
X223081494Y-56679477D01*
X223078289Y-56667760D01*
X223078286Y-56667753D01*
X223076808Y-56662349D01*
X223064152Y-56635814D01*
X223041175Y-56587644D01*
X223039014Y-56582859D01*
X223006524Y-56506688D01*
X223003447Y-56502004D01*
X223003444Y-56501998D01*
X222996767Y-56491834D01*
X222988355Y-56476903D01*
X222983124Y-56465937D01*
X222980708Y-56460871D01*
X222932399Y-56393643D01*
X222929410Y-56389293D01*
X222886510Y-56323983D01*
X222883970Y-56320116D01*
X222880896Y-56316666D01*
X222880890Y-56316658D01*
X222865596Y-56299492D01*
X222857352Y-56289203D01*
X222850448Y-56279595D01*
X222774209Y-56205714D01*
X222772799Y-56204325D01*
X220979180Y-54410706D01*
X220968312Y-54398315D01*
X220958310Y-54385280D01*
X220954900Y-54380836D01*
X220895014Y-54326344D01*
X220890719Y-54322245D01*
X220874884Y-54306410D01*
X220854986Y-54289773D01*
X220851021Y-54286314D01*
X220832526Y-54269484D01*
X220789797Y-54230604D01*
X220774742Y-54221160D01*
X220760883Y-54211090D01*
X220751558Y-54203293D01*
X220751556Y-54203292D01*
X220747252Y-54199693D01*
X220682411Y-54162708D01*
X220675353Y-54158682D01*
X220670847Y-54155986D01*
X220600700Y-54111983D01*
X220584211Y-54105355D01*
X220568781Y-54097895D01*
X220558229Y-54091876D01*
X220558227Y-54091875D01*
X220553353Y-54089095D01*
X220475329Y-54061465D01*
X220470393Y-54059600D01*
X220398784Y-54030814D01*
X220393585Y-54028724D01*
X220388099Y-54027588D01*
X220388093Y-54027586D01*
X220376184Y-54025120D01*
X220359688Y-54020515D01*
X220342934Y-54014582D01*
X220286486Y-54005338D01*
X220261241Y-54001204D01*
X220256053Y-54000242D01*
X220195938Y-53987793D01*
X220175000Y-53983457D01*
X220170389Y-53983191D01*
X220170388Y-53983191D01*
X220147429Y-53981867D01*
X220134326Y-53980420D01*
X220128192Y-53979416D01*
X220128186Y-53979416D01*
X220122644Y-53978508D01*
X220117030Y-53978596D01*
X220117028Y-53978596D01*
X220016585Y-53980174D01*
X220014606Y-53980190D01*
X185760164Y-53980190D01*
X185743718Y-53979112D01*
X185727447Y-53976970D01*
X185721887Y-53976238D01*
X185716287Y-53976502D01*
X185716286Y-53976502D01*
X185641052Y-53980050D01*
X185635117Y-53980190D01*
X185612680Y-53980190D01*
X185609896Y-53980438D01*
X185609884Y-53980439D01*
X185586849Y-53982495D01*
X185581586Y-53982854D01*
X185545513Y-53984555D01*
X185498912Y-53986753D01*
X185493449Y-53988004D01*
X185493443Y-53988005D01*
X185481599Y-53990718D01*
X185464665Y-53993400D01*
X185446971Y-53994979D01*
X185441555Y-53996461D01*
X185441553Y-53996461D01*
X185367133Y-54016820D01*
X185362015Y-54018106D01*
X185286788Y-54035335D01*
X185286787Y-54035335D01*
X185281322Y-54036587D01*
X185276161Y-54038788D01*
X185276162Y-54038788D01*
X185264975Y-54043559D01*
X185248800Y-54049192D01*
X185237071Y-54052401D01*
X185237067Y-54052402D01*
X185231659Y-54053882D01*
X185226593Y-54056298D01*
X185226594Y-54056298D01*
X185156944Y-54089519D01*
X185152135Y-54091690D01*
X185104559Y-54111983D01*
X185075997Y-54124166D01*
X185061139Y-54133926D01*
X185046219Y-54142332D01*
X185030181Y-54149982D01*
X185025620Y-54153260D01*
X185025619Y-54153260D01*
X184962941Y-54198297D01*
X184958596Y-54201284D01*
X184889425Y-54246721D01*
X184868801Y-54265097D01*
X184858520Y-54273334D01*
X184848905Y-54280242D01*
X184823036Y-54306937D01*
X184775024Y-54356481D01*
X184773635Y-54357891D01*
X178280016Y-60851510D01*
X178267626Y-60862377D01*
X178250146Y-60875790D01*
X178211308Y-60918473D01*
X178195654Y-60935676D01*
X178191555Y-60939971D01*
X178175720Y-60955806D01*
X178159083Y-60975704D01*
X178155624Y-60979669D01*
X178114597Y-61024757D01*
X178099914Y-61040893D01*
X178090470Y-61055948D01*
X178080401Y-61069806D01*
X178069003Y-61083438D01*
X178066222Y-61088314D01*
X178027992Y-61155337D01*
X178025296Y-61159843D01*
X177981293Y-61229990D01*
X177974665Y-61246479D01*
X177967205Y-61261909D01*
X177958405Y-61277337D01*
X177952444Y-61294171D01*
X177930775Y-61355361D01*
X177928910Y-61360297D01*
X177924911Y-61370246D01*
X177898034Y-61437105D01*
X177896898Y-61442591D01*
X177896896Y-61442597D01*
X177894430Y-61454506D01*
X177889825Y-61471002D01*
X177883892Y-61487756D01*
X177879800Y-61512747D01*
X177870514Y-61569449D01*
X177869552Y-61574637D01*
X177852767Y-61655690D01*
X177852501Y-61660301D01*
X177852501Y-61660302D01*
X177851177Y-61683261D01*
X177849730Y-61696364D01*
X177848726Y-61702498D01*
X177848726Y-61702504D01*
X177847818Y-61708046D01*
X177847906Y-61713660D01*
X177847906Y-61713662D01*
X177849484Y-61814105D01*
X177849500Y-61816084D01*
X177849500Y-68556630D01*
X177849749Y-68559417D01*
X177849749Y-68559423D01*
X177852282Y-68587807D01*
X177864289Y-68722339D01*
X177865770Y-68727753D01*
X177865771Y-68727758D01*
X177917320Y-68916188D01*
X177923192Y-68937651D01*
X177925609Y-68942718D01*
X177925610Y-68942721D01*
X177934108Y-68960538D01*
X177945621Y-69000956D01*
X177962035Y-69149633D01*
X178016143Y-69297490D01*
X178020380Y-69303796D01*
X178020382Y-69303799D01*
X178037926Y-69329907D01*
X178103958Y-69428172D01*
X178220410Y-69534135D01*
X178265933Y-69558852D01*
X178352099Y-69605637D01*
X178352101Y-69605638D01*
X178358776Y-69609262D01*
X178366125Y-69611190D01*
X178503718Y-69647287D01*
X178503722Y-69647288D01*
X178511069Y-69649215D01*
X178566957Y-69650093D01*
X178584822Y-69650374D01*
X178633487Y-69660984D01*
X178686555Y-69684279D01*
X178699529Y-69689974D01*
X178704980Y-69691283D01*
X178704984Y-69691284D01*
X178911128Y-69740775D01*
X178911129Y-69740775D01*
X178916585Y-69742085D01*
X179000803Y-69746941D01*
X179133831Y-69754611D01*
X179133834Y-69754611D01*
X179139438Y-69754934D01*
X179361044Y-69728117D01*
X179574400Y-69662481D01*
X179578618Y-69660304D01*
X179627831Y-69651049D01*
X179630748Y-69651095D01*
X179660897Y-69651569D01*
X179660900Y-69651569D01*
X179668495Y-69651688D01*
X179821968Y-69616538D01*
X179962625Y-69545795D01*
X179988869Y-69523381D01*
X180076574Y-69448474D01*
X180076576Y-69448471D01*
X180082348Y-69443542D01*
X180174224Y-69315683D01*
X180232950Y-69169598D01*
X180248108Y-69063089D01*
X180254553Y-69017807D01*
X180254553Y-69017804D01*
X180255134Y-69013723D01*
X180255255Y-69002169D01*
X180264341Y-68956493D01*
X180299872Y-68868107D01*
X180299876Y-68868095D01*
X180301966Y-68862895D01*
X180308881Y-68829507D01*
X180346296Y-68648834D01*
X180347233Y-68644310D01*
X180350500Y-68587651D01*
X180350500Y-62370164D01*
X180370502Y-62302043D01*
X180387405Y-62281069D01*
X182557299Y-60111175D01*
X182619611Y-60077149D01*
X182690426Y-60082214D01*
X182747262Y-60124761D01*
X182764719Y-60156967D01*
X182816143Y-60297490D01*
X182820380Y-60303796D01*
X182820382Y-60303799D01*
X182826274Y-60312567D01*
X182903958Y-60428172D01*
X182920890Y-60443579D01*
X183013734Y-60528060D01*
X183020410Y-60534135D01*
X183037710Y-60543528D01*
X183152099Y-60605637D01*
X183152101Y-60605638D01*
X183158776Y-60609262D01*
X183166125Y-60611190D01*
X183303719Y-60647287D01*
X183303721Y-60647287D01*
X183311069Y-60649215D01*
X183394380Y-60650524D01*
X183460898Y-60651569D01*
X183460901Y-60651569D01*
X183468495Y-60651688D01*
X183621968Y-60616538D01*
X183762625Y-60545795D01*
X183823154Y-60494099D01*
X183887943Y-60465069D01*
X183958143Y-60475674D01*
X183989782Y-60496717D01*
X184019789Y-60524021D01*
X184019793Y-60524024D01*
X184025410Y-60529135D01*
X184053171Y-60544208D01*
X184157099Y-60600637D01*
X184157101Y-60600638D01*
X184163776Y-60604262D01*
X184171125Y-60606190D01*
X184308719Y-60642287D01*
X184308721Y-60642287D01*
X184316069Y-60644215D01*
X184399380Y-60645524D01*
X184465898Y-60646569D01*
X184465901Y-60646569D01*
X184473495Y-60646688D01*
X184626968Y-60611538D01*
X184767625Y-60540795D01*
X184803793Y-60509905D01*
X184881568Y-60443479D01*
X184881570Y-60443477D01*
X184887348Y-60438542D01*
X184889610Y-60435394D01*
X184949082Y-60399609D01*
X184980997Y-60395500D01*
X188763407Y-60395500D01*
X188831528Y-60415502D01*
X188852502Y-60432405D01*
X189208996Y-60788899D01*
X189243022Y-60851211D01*
X189237957Y-60922026D01*
X189195410Y-60978862D01*
X189177691Y-60989960D01*
X189126695Y-61016281D01*
X189119947Y-61019764D01*
X189114225Y-61024756D01*
X189114223Y-61024757D01*
X189007027Y-61118270D01*
X189007024Y-61118273D01*
X189001302Y-61123265D01*
X188910769Y-61252080D01*
X188853577Y-61398771D01*
X188852586Y-61406300D01*
X188834548Y-61543312D01*
X188833026Y-61554870D01*
X188850303Y-61711365D01*
X188904411Y-61859222D01*
X188992226Y-61989904D01*
X188997842Y-61995014D01*
X189099026Y-62087084D01*
X189108678Y-62095867D01*
X189115353Y-62099491D01*
X189240367Y-62167369D01*
X189240369Y-62167370D01*
X189247044Y-62170994D01*
X189254393Y-62172922D01*
X189391986Y-62209019D01*
X189391990Y-62209020D01*
X189399337Y-62210947D01*
X189450965Y-62211758D01*
X189518762Y-62232827D01*
X189538080Y-62248647D01*
X191507595Y-64218162D01*
X191541621Y-64280474D01*
X191544500Y-64307257D01*
X191544500Y-68736207D01*
X191524498Y-68804328D01*
X191507595Y-68825302D01*
X187805302Y-72527595D01*
X187742990Y-72561621D01*
X187716207Y-72564500D01*
X177035263Y-72564500D01*
X176967142Y-72544498D01*
X176951444Y-72532576D01*
X176894648Y-72481972D01*
X176894645Y-72481970D01*
X176888976Y-72476919D01*
X176749831Y-72403245D01*
X176733122Y-72399048D01*
X176604498Y-72366740D01*
X176604496Y-72366740D01*
X176597128Y-72364889D01*
X176589530Y-72364849D01*
X176589528Y-72364849D01*
X176522319Y-72364497D01*
X176439684Y-72364065D01*
X176432305Y-72365837D01*
X176432301Y-72365837D01*
X176293967Y-72399048D01*
X176293963Y-72399049D01*
X176286588Y-72400820D01*
X176146679Y-72473032D01*
X176140957Y-72478024D01*
X176140955Y-72478025D01*
X176033759Y-72571538D01*
X176033756Y-72571541D01*
X176028034Y-72576533D01*
X176023667Y-72582747D01*
X175971538Y-72656919D01*
X175937501Y-72705348D01*
X175880309Y-72852039D01*
X175876731Y-72879220D01*
X175860972Y-72998918D01*
X175859758Y-73008138D01*
X175877035Y-73164633D01*
X175931143Y-73312490D01*
X175935380Y-73318796D01*
X175935382Y-73318799D01*
X175948700Y-73338618D01*
X176018958Y-73443172D01*
X176135410Y-73549135D01*
X176174037Y-73570108D01*
X176267099Y-73620637D01*
X176267101Y-73620638D01*
X176273776Y-73624262D01*
X176281125Y-73626190D01*
X176418719Y-73662287D01*
X176418721Y-73662287D01*
X176426069Y-73664215D01*
X176509380Y-73665524D01*
X176575898Y-73666569D01*
X176575901Y-73666569D01*
X176583495Y-73666688D01*
X176736968Y-73631538D01*
X176877625Y-73560795D01*
X176883397Y-73555866D01*
X176883399Y-73555864D01*
X176953854Y-73495689D01*
X177018644Y-73466658D01*
X177035685Y-73465500D01*
X187920780Y-73465500D01*
X187935589Y-73466373D01*
X187969310Y-73470364D01*
X187978574Y-73468672D01*
X187978575Y-73468672D01*
X188027001Y-73459828D01*
X188030904Y-73459178D01*
X188079645Y-73451850D01*
X188079646Y-73451850D01*
X188088962Y-73450449D01*
X188095475Y-73447321D01*
X188102573Y-73446025D01*
X188154647Y-73418975D01*
X188158137Y-73417232D01*
X188211079Y-73391809D01*
X188216365Y-73386923D01*
X188216413Y-73386890D01*
X188222788Y-73383579D01*
X188227828Y-73379275D01*
X188265055Y-73342048D01*
X188268621Y-73338618D01*
X188274982Y-73332738D01*
X188310556Y-73299854D01*
X188314249Y-73293495D01*
X188319766Y-73287337D01*
X192289350Y-69317753D01*
X192300439Y-69307899D01*
X192319711Y-69292706D01*
X192319715Y-69292702D01*
X192327110Y-69286872D01*
X192332464Y-69279125D01*
X192332468Y-69279121D01*
X192360477Y-69238596D01*
X192362758Y-69235402D01*
X192397635Y-69188183D01*
X192400029Y-69181366D01*
X192404131Y-69175431D01*
X192421812Y-69119525D01*
X192423060Y-69115785D01*
X192439400Y-69069255D01*
X192439401Y-69069252D01*
X192442520Y-69060369D01*
X192442803Y-69053184D01*
X192442817Y-69053111D01*
X192444980Y-69046270D01*
X192445500Y-69039663D01*
X192445500Y-68986994D01*
X192445597Y-68982048D01*
X192447468Y-68934415D01*
X192447838Y-68925006D01*
X192445954Y-68917900D01*
X192445500Y-68909653D01*
X192445500Y-64329592D01*
X192465502Y-64261471D01*
X192519158Y-64214978D01*
X192589432Y-64204874D01*
X192654012Y-64234368D01*
X192660595Y-64240497D01*
X197706068Y-69285970D01*
X197740094Y-69348282D01*
X197741895Y-69391510D01*
X197740467Y-69402357D01*
X197757744Y-69558852D01*
X197811852Y-69706709D01*
X197816089Y-69713015D01*
X197816091Y-69713018D01*
X197834743Y-69740775D01*
X197899667Y-69837391D01*
X198016119Y-69943354D01*
X198052348Y-69963025D01*
X198147808Y-70014856D01*
X198147810Y-70014857D01*
X198154485Y-70018481D01*
X198161834Y-70020409D01*
X198299428Y-70056506D01*
X198299430Y-70056506D01*
X198306778Y-70058434D01*
X198390089Y-70059743D01*
X198456607Y-70060788D01*
X198456610Y-70060788D01*
X198464204Y-70060907D01*
X198617677Y-70025757D01*
X198758334Y-69955014D01*
X198826382Y-69896896D01*
X198872283Y-69857693D01*
X198872285Y-69857690D01*
X198878057Y-69852761D01*
X198969933Y-69724902D01*
X199028659Y-69578817D01*
X199045245Y-69462277D01*
X199074646Y-69397654D01*
X199134317Y-69359185D01*
X199156820Y-69354720D01*
X199163361Y-69354033D01*
X199170959Y-69354152D01*
X199324432Y-69319002D01*
X199465089Y-69248259D01*
X199491333Y-69225845D01*
X199579038Y-69150938D01*
X199579040Y-69150935D01*
X199584812Y-69146006D01*
X199676688Y-69018147D01*
X199689212Y-68986994D01*
X199712660Y-68928663D01*
X199735414Y-68872062D01*
X199748318Y-68781395D01*
X199757017Y-68720271D01*
X199757017Y-68720268D01*
X199757598Y-68716187D01*
X199757742Y-68702464D01*
X199738827Y-68546158D01*
X199716623Y-68487397D01*
X199685858Y-68405978D01*
X199685857Y-68405975D01*
X199683174Y-68398876D01*
X199678872Y-68392616D01*
X199661863Y-68367867D01*
X199639763Y-68300397D01*
X199657649Y-68231690D01*
X199709841Y-68183560D01*
X199765703Y-68170500D01*
X200688207Y-68170500D01*
X200756328Y-68190502D01*
X200802821Y-68244158D01*
X200812925Y-68314432D01*
X200783431Y-68379012D01*
X200777302Y-68385595D01*
X185455650Y-83707247D01*
X185444561Y-83717101D01*
X185425291Y-83732293D01*
X185425289Y-83732295D01*
X185417890Y-83738128D01*
X185412535Y-83745875D01*
X185412534Y-83745877D01*
X185402428Y-83760500D01*
X185385059Y-83785632D01*
X185384545Y-83786375D01*
X185382250Y-83789587D01*
X185347366Y-83836816D01*
X185344973Y-83843632D01*
X185340869Y-83849569D01*
X185338029Y-83858549D01*
X185338028Y-83858551D01*
X185331650Y-83878717D01*
X185324067Y-83902698D01*
X185323182Y-83905495D01*
X185321929Y-83909250D01*
X185315250Y-83928271D01*
X185302481Y-83964631D01*
X185302199Y-83971819D01*
X185302188Y-83971878D01*
X185300020Y-83978730D01*
X185299500Y-83985337D01*
X185299500Y-84038016D01*
X185299403Y-84042962D01*
X185297162Y-84099994D01*
X185299046Y-84107100D01*
X185299500Y-84115347D01*
X185299500Y-86474030D01*
X185279498Y-86542151D01*
X185268020Y-86557184D01*
X185263034Y-86561533D01*
X185258667Y-86567747D01*
X185184864Y-86672758D01*
X185172501Y-86690348D01*
X185115309Y-86837039D01*
X185114318Y-86844568D01*
X185096631Y-86978913D01*
X185094758Y-86993138D01*
X185112035Y-87149633D01*
X185166143Y-87297490D01*
X185170380Y-87303796D01*
X185170382Y-87303799D01*
X185210709Y-87363811D01*
X185253958Y-87428172D01*
X185370410Y-87534135D01*
X185419592Y-87560839D01*
X185502099Y-87605637D01*
X185502101Y-87605638D01*
X185508776Y-87609262D01*
X185516125Y-87611190D01*
X185653719Y-87647287D01*
X185653721Y-87647287D01*
X185661069Y-87649215D01*
X185744380Y-87650524D01*
X185810898Y-87651569D01*
X185810901Y-87651569D01*
X185818495Y-87651688D01*
X185971968Y-87616538D01*
X186112625Y-87545795D01*
X186138869Y-87523381D01*
X186226574Y-87448474D01*
X186226576Y-87448471D01*
X186232348Y-87443542D01*
X186272251Y-87388011D01*
X186328246Y-87344363D01*
X186398949Y-87337917D01*
X186461914Y-87370720D01*
X186479150Y-87391253D01*
X186503958Y-87428172D01*
X186620410Y-87534135D01*
X186669592Y-87560839D01*
X186752099Y-87605637D01*
X186752101Y-87605638D01*
X186758776Y-87609262D01*
X186766125Y-87611190D01*
X186903719Y-87647287D01*
X186903721Y-87647287D01*
X186911069Y-87649215D01*
X186994380Y-87650524D01*
X187060898Y-87651569D01*
X187060901Y-87651569D01*
X187068495Y-87651688D01*
X187221968Y-87616538D01*
X187362625Y-87545795D01*
X187388869Y-87523381D01*
X187476574Y-87448474D01*
X187476576Y-87448471D01*
X187482348Y-87443542D01*
X187522251Y-87388011D01*
X187578246Y-87344363D01*
X187648949Y-87337917D01*
X187711914Y-87370720D01*
X187729150Y-87391253D01*
X187753958Y-87428172D01*
X187870410Y-87534135D01*
X187919592Y-87560839D01*
X188002099Y-87605637D01*
X188002101Y-87605638D01*
X188008776Y-87609262D01*
X188016125Y-87611190D01*
X188153719Y-87647287D01*
X188153721Y-87647287D01*
X188161069Y-87649215D01*
X188244380Y-87650524D01*
X188310898Y-87651569D01*
X188310901Y-87651569D01*
X188318495Y-87651688D01*
X188471968Y-87616538D01*
X188612625Y-87545795D01*
X188638869Y-87523381D01*
X188726574Y-87448474D01*
X188726576Y-87448471D01*
X188732348Y-87443542D01*
X188739721Y-87433282D01*
X188798090Y-87352054D01*
X188854084Y-87308406D01*
X188924788Y-87301960D01*
X188987752Y-87334763D01*
X189004987Y-87355295D01*
X189053958Y-87428172D01*
X189170410Y-87534135D01*
X189219592Y-87560839D01*
X189302099Y-87605637D01*
X189302101Y-87605638D01*
X189308776Y-87609262D01*
X189316125Y-87611190D01*
X189453719Y-87647287D01*
X189453721Y-87647287D01*
X189461069Y-87649215D01*
X189544380Y-87650524D01*
X189610898Y-87651569D01*
X189610901Y-87651569D01*
X189618495Y-87651688D01*
X189771968Y-87616538D01*
X189912625Y-87545795D01*
X189938869Y-87523381D01*
X190026574Y-87448474D01*
X190026576Y-87448471D01*
X190032348Y-87443542D01*
X190124224Y-87315683D01*
X190182950Y-87169598D01*
X190202297Y-87033658D01*
X190204553Y-87017807D01*
X190204553Y-87017804D01*
X190205134Y-87013723D01*
X190205278Y-87000000D01*
X190186363Y-86843694D01*
X190164777Y-86786569D01*
X190133394Y-86703514D01*
X190133393Y-86703511D01*
X190130710Y-86696412D01*
X190041531Y-86566657D01*
X190035865Y-86561609D01*
X190031986Y-86557209D01*
X190001941Y-86492883D01*
X190000500Y-86473884D01*
X190000500Y-83838793D01*
X190020502Y-83770672D01*
X190037405Y-83749698D01*
X197959405Y-75827698D01*
X198021717Y-75793672D01*
X198092532Y-75798737D01*
X198149368Y-75841284D01*
X198174179Y-75907804D01*
X198174500Y-75916793D01*
X198174500Y-79249030D01*
X198154498Y-79317151D01*
X198143020Y-79332184D01*
X198138034Y-79336533D01*
X198119580Y-79362791D01*
X198064324Y-79441412D01*
X198047501Y-79465348D01*
X197990309Y-79612039D01*
X197989318Y-79619568D01*
X197970998Y-79758723D01*
X197969758Y-79768138D01*
X197987035Y-79924633D01*
X198041143Y-80072490D01*
X198045380Y-80078796D01*
X198045382Y-80078799D01*
X198072152Y-80118636D01*
X198128958Y-80203172D01*
X198146486Y-80219121D01*
X198225255Y-80290795D01*
X198245410Y-80309135D01*
X198252085Y-80312759D01*
X198377099Y-80380637D01*
X198377101Y-80380638D01*
X198383776Y-80384262D01*
X198391125Y-80386190D01*
X198528719Y-80422287D01*
X198528721Y-80422287D01*
X198536069Y-80424215D01*
X198619380Y-80425524D01*
X198685898Y-80426569D01*
X198685901Y-80426569D01*
X198693495Y-80426688D01*
X198846968Y-80391538D01*
X198987625Y-80320795D01*
X199106670Y-80219121D01*
X199171459Y-80190090D01*
X199241659Y-80200695D01*
X199294982Y-80247570D01*
X199314500Y-80314932D01*
X199314500Y-82704030D01*
X199294498Y-82772151D01*
X199283020Y-82787184D01*
X199278034Y-82791533D01*
X199273667Y-82797747D01*
X199198307Y-82904973D01*
X199187501Y-82920348D01*
X199130309Y-83067039D01*
X199127291Y-83089963D01*
X199114508Y-83187060D01*
X199109758Y-83223138D01*
X199127035Y-83379633D01*
X199156518Y-83460199D01*
X199161144Y-83531045D01*
X199126734Y-83593145D01*
X199064213Y-83626784D01*
X199038192Y-83629500D01*
X198030263Y-83629500D01*
X197962142Y-83609498D01*
X197946444Y-83597576D01*
X197889648Y-83546972D01*
X197889645Y-83546970D01*
X197883976Y-83541919D01*
X197859067Y-83528730D01*
X197751543Y-83471799D01*
X197751544Y-83471799D01*
X197744831Y-83468245D01*
X197728122Y-83464048D01*
X197599498Y-83431740D01*
X197599496Y-83431740D01*
X197592128Y-83429889D01*
X197584530Y-83429849D01*
X197584528Y-83429849D01*
X197517319Y-83429497D01*
X197434684Y-83429065D01*
X197427305Y-83430837D01*
X197427301Y-83430837D01*
X197288967Y-83464048D01*
X197288963Y-83464049D01*
X197281588Y-83465820D01*
X197141679Y-83538032D01*
X197135957Y-83543024D01*
X197135955Y-83543025D01*
X197028759Y-83636538D01*
X197028756Y-83636541D01*
X197023034Y-83641533D01*
X197010890Y-83658812D01*
X196939197Y-83760821D01*
X196932501Y-83770348D01*
X196875309Y-83917039D01*
X196874318Y-83924568D01*
X196858078Y-84047922D01*
X196854758Y-84073138D01*
X196872035Y-84229633D01*
X196926143Y-84377490D01*
X197013958Y-84508172D01*
X197130410Y-84614135D01*
X197151885Y-84625795D01*
X197262099Y-84685637D01*
X197262101Y-84685638D01*
X197268776Y-84689262D01*
X197276125Y-84691190D01*
X197413719Y-84727287D01*
X197413721Y-84727287D01*
X197421069Y-84729215D01*
X197504380Y-84730524D01*
X197570898Y-84731569D01*
X197570901Y-84731569D01*
X197578495Y-84731688D01*
X197731968Y-84696538D01*
X197872625Y-84625795D01*
X197878397Y-84620866D01*
X197878399Y-84620864D01*
X197948854Y-84560689D01*
X198013644Y-84531658D01*
X198030685Y-84530500D01*
X207915780Y-84530500D01*
X207930589Y-84531373D01*
X207964310Y-84535364D01*
X207973574Y-84533672D01*
X207973575Y-84533672D01*
X208022001Y-84524828D01*
X208025904Y-84524178D01*
X208074645Y-84516850D01*
X208074646Y-84516850D01*
X208083962Y-84515449D01*
X208090475Y-84512321D01*
X208097573Y-84511025D01*
X208149647Y-84483975D01*
X208153137Y-84482232D01*
X208206079Y-84456809D01*
X208211365Y-84451923D01*
X208211413Y-84451890D01*
X208217788Y-84448579D01*
X208222828Y-84444275D01*
X208260055Y-84407048D01*
X208263621Y-84403618D01*
X208298641Y-84371246D01*
X208305556Y-84364854D01*
X208309249Y-84358495D01*
X208314766Y-84352337D01*
X214113973Y-78553130D01*
X214176285Y-78519104D01*
X214205047Y-78516241D01*
X214209599Y-78516313D01*
X214225898Y-78516569D01*
X214225901Y-78516569D01*
X214233495Y-78516688D01*
X214385370Y-78481904D01*
X214456237Y-78486193D01*
X214513536Y-78528115D01*
X214539073Y-78594360D01*
X214539500Y-78604724D01*
X214539500Y-81315780D01*
X214538627Y-81330589D01*
X214534636Y-81364310D01*
X214536328Y-81373574D01*
X214536328Y-81373575D01*
X214545172Y-81422001D01*
X214545822Y-81425904D01*
X214554551Y-81483962D01*
X214557679Y-81490475D01*
X214558975Y-81497573D01*
X214586025Y-81549647D01*
X214587768Y-81553137D01*
X214613191Y-81606079D01*
X214618077Y-81611365D01*
X214618110Y-81611413D01*
X214621421Y-81617788D01*
X214625725Y-81622828D01*
X214662952Y-81660055D01*
X214666381Y-81663620D01*
X214705146Y-81705556D01*
X214711505Y-81709249D01*
X214717663Y-81714766D01*
X233915883Y-100912986D01*
X233949909Y-100975298D01*
X233947121Y-101039444D01*
X233918937Y-101130213D01*
X233895164Y-101331069D01*
X233908392Y-101532894D01*
X233909815Y-101538496D01*
X233946222Y-101681849D01*
X233958178Y-101728928D01*
X234042856Y-101912607D01*
X234159588Y-102077780D01*
X234304466Y-102218913D01*
X234472637Y-102331282D01*
X234477940Y-102333560D01*
X234477943Y-102333562D01*
X234566291Y-102371519D01*
X234658470Y-102411122D01*
X234855740Y-102455760D01*
X234861509Y-102455987D01*
X234861512Y-102455987D01*
X234937683Y-102458979D01*
X235057842Y-102463700D01*
X235144132Y-102451189D01*
X235252286Y-102435508D01*
X235252291Y-102435507D01*
X235258007Y-102434678D01*
X235263479Y-102432820D01*
X235263481Y-102432820D01*
X235444067Y-102371519D01*
X235444069Y-102371518D01*
X235449531Y-102369664D01*
X235611933Y-102278715D01*
X235681143Y-102262882D01*
X235747925Y-102286979D01*
X235791078Y-102343356D01*
X235799500Y-102388650D01*
X235799500Y-102411207D01*
X235779498Y-102479328D01*
X235762595Y-102500302D01*
X235500302Y-102762595D01*
X235437990Y-102796621D01*
X235411207Y-102799500D01*
X234125326Y-102799500D01*
X234052260Y-102814034D01*
X233969399Y-102869399D01*
X233914034Y-102952260D01*
X233899500Y-103025326D01*
X233899500Y-104774674D01*
X233914034Y-104847740D01*
X233969399Y-104930601D01*
X234052260Y-104985966D01*
X234125326Y-105000500D01*
X235874674Y-105000500D01*
X235947740Y-104985966D01*
X236030601Y-104930601D01*
X236085966Y-104847740D01*
X236100500Y-104774674D01*
X236100500Y-103488793D01*
X236120502Y-103420672D01*
X236137405Y-103399698D01*
X236534405Y-103002698D01*
X236596717Y-102968672D01*
X236667532Y-102973737D01*
X236724368Y-103016284D01*
X236749179Y-103082804D01*
X236749500Y-103091793D01*
X236749500Y-105329836D01*
X236729498Y-105397957D01*
X236712595Y-105418931D01*
X223833931Y-118297595D01*
X223771619Y-118331621D01*
X223744836Y-118334500D01*
X214955165Y-118334500D01*
X214887044Y-118314498D01*
X214866070Y-118297595D01*
X203714194Y-107145720D01*
X167587405Y-71018931D01*
X167553379Y-70956619D01*
X167550500Y-70929836D01*
X167550500Y-70493138D01*
X172144758Y-70493138D01*
X172162035Y-70649633D01*
X172216143Y-70797490D01*
X172220380Y-70803796D01*
X172220382Y-70803799D01*
X172238140Y-70830225D01*
X172303958Y-70928172D01*
X172420410Y-71034135D01*
X172427085Y-71037759D01*
X172552099Y-71105637D01*
X172552101Y-71105638D01*
X172558776Y-71109262D01*
X172566125Y-71111190D01*
X172703719Y-71147287D01*
X172703721Y-71147287D01*
X172711069Y-71149215D01*
X172772786Y-71150185D01*
X172834536Y-71151155D01*
X172902334Y-71172224D01*
X172921651Y-71188044D01*
X173039091Y-71305484D01*
X173039095Y-71305487D01*
X173061658Y-71328050D01*
X173070497Y-71332554D01*
X173070499Y-71332555D01*
X173081258Y-71338037D01*
X173098113Y-71348365D01*
X173107888Y-71355467D01*
X173115911Y-71361296D01*
X173136830Y-71368093D01*
X173155092Y-71375658D01*
X173165859Y-71381144D01*
X173165863Y-71381145D01*
X173174696Y-71385646D01*
X173184487Y-71387197D01*
X173184488Y-71387197D01*
X173196422Y-71389087D01*
X173215647Y-71393703D01*
X173227132Y-71397435D01*
X173227136Y-71397436D01*
X173236567Y-71400500D01*
X187063433Y-71400500D01*
X187072864Y-71397436D01*
X187072868Y-71397435D01*
X187084353Y-71393703D01*
X187103578Y-71389087D01*
X187115512Y-71387197D01*
X187115513Y-71387197D01*
X187125304Y-71385646D01*
X187134137Y-71381145D01*
X187134141Y-71381144D01*
X187144906Y-71375659D01*
X187163166Y-71368095D01*
X187184090Y-71361296D01*
X187201893Y-71348361D01*
X187218745Y-71338035D01*
X187229502Y-71332554D01*
X187238342Y-71328050D01*
X187260905Y-71305487D01*
X187260909Y-71305484D01*
X189705484Y-68860909D01*
X189705487Y-68860905D01*
X189728050Y-68838342D01*
X189732552Y-68829507D01*
X189738037Y-68818743D01*
X189748366Y-68801887D01*
X189755467Y-68792113D01*
X189761297Y-68784089D01*
X189768096Y-68763164D01*
X189775660Y-68744903D01*
X189781144Y-68734140D01*
X189781144Y-68734139D01*
X189785646Y-68725304D01*
X189789087Y-68703578D01*
X189793703Y-68684352D01*
X189797435Y-68672867D01*
X189797435Y-68672865D01*
X189800500Y-68663433D01*
X189800500Y-67971534D01*
X189820502Y-67903413D01*
X189844669Y-67875723D01*
X189876576Y-67848472D01*
X189876577Y-67848471D01*
X189882348Y-67843542D01*
X189974224Y-67715683D01*
X190032950Y-67569598D01*
X190051579Y-67438704D01*
X190054553Y-67417807D01*
X190054553Y-67417804D01*
X190055134Y-67413723D01*
X190055202Y-67407254D01*
X190055235Y-67404134D01*
X190055235Y-67404128D01*
X190055278Y-67400000D01*
X190036363Y-67243694D01*
X190008777Y-67170689D01*
X189983394Y-67103514D01*
X189983393Y-67103511D01*
X189980710Y-67096412D01*
X189891531Y-66966657D01*
X189835509Y-66916743D01*
X189779648Y-66866972D01*
X189779645Y-66866970D01*
X189773976Y-66861919D01*
X189634831Y-66788245D01*
X189625177Y-66785820D01*
X189489498Y-66751740D01*
X189489496Y-66751740D01*
X189482128Y-66749889D01*
X189474530Y-66749849D01*
X189474528Y-66749849D01*
X189407319Y-66749497D01*
X189324684Y-66749065D01*
X189317305Y-66750837D01*
X189317301Y-66750837D01*
X189178967Y-66784048D01*
X189178963Y-66784049D01*
X189171588Y-66785820D01*
X189031679Y-66858032D01*
X189025957Y-66863024D01*
X189025955Y-66863025D01*
X188918759Y-66956538D01*
X188918756Y-66956541D01*
X188913034Y-66961533D01*
X188884466Y-67002181D01*
X188828341Y-67082039D01*
X188822501Y-67090348D01*
X188765309Y-67237039D01*
X188761212Y-67268157D01*
X188751269Y-67343686D01*
X188744758Y-67393138D01*
X188762035Y-67549633D01*
X188816143Y-67697490D01*
X188820380Y-67703796D01*
X188820382Y-67703799D01*
X188860709Y-67763811D01*
X188903958Y-67828172D01*
X188909576Y-67833284D01*
X188958299Y-67877618D01*
X188995222Y-67938258D01*
X188999500Y-67970812D01*
X188999500Y-68381917D01*
X188979498Y-68450038D01*
X188962595Y-68471012D01*
X186871012Y-70562595D01*
X186808700Y-70596621D01*
X186781917Y-70599500D01*
X173578990Y-70599500D01*
X173510869Y-70579498D01*
X173464376Y-70525842D01*
X173453903Y-70488637D01*
X173442456Y-70394048D01*
X173436363Y-70343694D01*
X173380710Y-70196412D01*
X173291531Y-70066657D01*
X173233391Y-70014856D01*
X173179648Y-69966972D01*
X173179645Y-69966970D01*
X173173976Y-69961919D01*
X173034831Y-69888245D01*
X173018122Y-69884048D01*
X172889498Y-69851740D01*
X172889496Y-69851740D01*
X172882128Y-69849889D01*
X172874530Y-69849849D01*
X172874528Y-69849849D01*
X172807319Y-69849497D01*
X172724684Y-69849065D01*
X172717305Y-69850837D01*
X172717301Y-69850837D01*
X172578967Y-69884048D01*
X172578963Y-69884049D01*
X172571588Y-69885820D01*
X172431679Y-69958032D01*
X172425957Y-69963024D01*
X172425955Y-69963025D01*
X172318759Y-70056538D01*
X172318756Y-70056541D01*
X172313034Y-70061533D01*
X172222501Y-70190348D01*
X172165309Y-70337039D01*
X172164318Y-70344568D01*
X172147157Y-70474917D01*
X172144758Y-70493138D01*
X167550500Y-70493138D01*
X167550500Y-62543370D01*
X167549683Y-62534208D01*
X167543230Y-62461909D01*
X167535711Y-62377661D01*
X167533661Y-62370164D01*
X167490325Y-62211758D01*
X167476808Y-62162349D01*
X167473688Y-62155806D01*
X167412154Y-62026799D01*
X167380708Y-61960871D01*
X167250448Y-61779595D01*
X167157843Y-61689854D01*
X167094174Y-61628154D01*
X167094171Y-61628152D01*
X167090146Y-61624251D01*
X166904868Y-61499750D01*
X166890157Y-61493292D01*
X166763102Y-61437519D01*
X166700471Y-61410026D01*
X166695023Y-61408718D01*
X166695017Y-61408716D01*
X166488872Y-61359225D01*
X166488871Y-61359225D01*
X166483415Y-61357915D01*
X166399197Y-61353059D01*
X166266169Y-61345389D01*
X166266166Y-61345389D01*
X166260562Y-61345066D01*
X166038956Y-61371883D01*
X165825600Y-61437519D01*
X165820610Y-61440095D01*
X165820609Y-61440095D01*
X165679850Y-61512747D01*
X165627241Y-61539901D01*
X165622799Y-61543310D01*
X165622795Y-61543312D01*
X165502851Y-61635348D01*
X165450146Y-61675790D01*
X165299914Y-61840893D01*
X165181293Y-62029990D01*
X165121907Y-62177719D01*
X165108502Y-62211066D01*
X165098034Y-62237105D01*
X165096897Y-62242593D01*
X165096896Y-62242598D01*
X165067767Y-62383256D01*
X165052767Y-62455690D01*
X165052501Y-62460303D01*
X165051344Y-62480377D01*
X165049500Y-62512349D01*
X165049500Y-71409138D01*
X165048422Y-71425585D01*
X165045547Y-71447422D01*
X161204525Y-71447422D01*
X160472753Y-70715650D01*
X160462899Y-70704561D01*
X160447707Y-70685291D01*
X160447705Y-70685289D01*
X160441872Y-70677890D01*
X160434125Y-70672535D01*
X160434123Y-70672534D01*
X160393625Y-70644545D01*
X160390403Y-70642243D01*
X160350758Y-70612960D01*
X160350757Y-70612959D01*
X160343184Y-70607366D01*
X160336368Y-70604973D01*
X160330431Y-70600869D01*
X160321451Y-70598029D01*
X160321449Y-70598028D01*
X160301283Y-70591650D01*
X160274481Y-70583174D01*
X160270750Y-70581929D01*
X160224263Y-70565604D01*
X160224261Y-70565604D01*
X160215369Y-70562481D01*
X160208181Y-70562199D01*
X160208122Y-70562188D01*
X160201270Y-70560020D01*
X160194663Y-70559500D01*
X160141984Y-70559500D01*
X160137037Y-70559403D01*
X160080006Y-70557162D01*
X160072900Y-70559046D01*
X160064653Y-70559500D01*
X157860263Y-70559500D01*
X157792142Y-70539498D01*
X157776444Y-70527576D01*
X157719648Y-70476972D01*
X157719645Y-70476970D01*
X157713976Y-70471919D01*
X157574831Y-70398245D01*
X157558122Y-70394048D01*
X157429498Y-70361740D01*
X157429496Y-70361740D01*
X157422128Y-70359889D01*
X157414530Y-70359849D01*
X157414528Y-70359849D01*
X157347319Y-70359497D01*
X157264684Y-70359065D01*
X157257305Y-70360837D01*
X157257301Y-70360837D01*
X157118967Y-70394048D01*
X157118963Y-70394049D01*
X157111588Y-70395820D01*
X156971679Y-70468032D01*
X156965957Y-70473024D01*
X156965955Y-70473025D01*
X156858759Y-70566538D01*
X156858756Y-70566541D01*
X156853034Y-70571533D01*
X156832481Y-70600777D01*
X156777039Y-70679663D01*
X156762501Y-70700348D01*
X156705309Y-70847039D01*
X156704318Y-70854568D01*
X156694628Y-70928172D01*
X156684758Y-71003138D01*
X140250500Y-71003138D01*
X140250500Y-50037085D01*
X140252921Y-50012504D01*
X140252987Y-50012173D01*
X140252987Y-50012171D01*
X140255408Y-50000000D01*
X140252986Y-49987827D01*
X140252986Y-49976881D01*
X140252046Y-49964590D01*
X140268333Y-49591552D01*
X140269291Y-49580601D01*
X140321939Y-49180707D01*
X140323848Y-49169883D01*
X140370967Y-48957341D01*
X140944991Y-48957341D01*
X140959275Y-49298146D01*
X140959813Y-49301619D01*
X141004697Y-49591552D01*
X141011459Y-49635234D01*
X141100892Y-49964405D01*
X141102182Y-49967664D01*
X141102184Y-49967669D01*
X141106974Y-49979767D01*
X141226461Y-50281555D01*
X141228107Y-50284651D01*
X141228109Y-50284655D01*
X141348293Y-50510688D01*
X141386600Y-50582732D01*
X141388585Y-50585631D01*
X141577321Y-50861274D01*
X141577326Y-50861280D01*
X141579312Y-50864181D01*
X141802196Y-51122395D01*
X141804766Y-51124775D01*
X141804770Y-51124779D01*
X141895753Y-51209030D01*
X142052474Y-51354155D01*
X142055296Y-51356236D01*
X142055299Y-51356238D01*
X142147658Y-51424331D01*
X142327026Y-51556572D01*
X142330063Y-51558326D01*
X142330067Y-51558328D01*
X142444483Y-51624386D01*
X142622431Y-51727124D01*
X142625652Y-51728531D01*
X142931783Y-51862277D01*
X142931793Y-51862281D01*
X142935005Y-51863684D01*
X142938362Y-51864723D01*
X142938367Y-51864725D01*
X143257494Y-51963511D01*
X143260854Y-51964551D01*
X143264310Y-51965210D01*
X143264309Y-51965210D01*
X143592465Y-52027810D01*
X143592471Y-52027811D01*
X143595916Y-52028468D01*
X143774627Y-52042219D01*
X143932517Y-52054368D01*
X143932518Y-52054368D01*
X143936014Y-52054637D01*
X144148773Y-52047207D01*
X144273395Y-52042856D01*
X144273400Y-52042856D01*
X144276910Y-52042733D01*
X144445632Y-52017818D01*
X144610876Y-51993417D01*
X144610881Y-51993416D01*
X144614355Y-51992903D01*
X144617747Y-51992007D01*
X144617751Y-51992006D01*
X144940751Y-51906666D01*
X144940752Y-51906666D01*
X144944142Y-51905770D01*
X145262161Y-51782418D01*
X145564448Y-51624386D01*
X145847236Y-51433643D01*
X145936173Y-51357952D01*
X146104326Y-51214842D01*
X146104327Y-51214841D01*
X146106999Y-51212567D01*
X146227241Y-51084523D01*
X146338090Y-50966481D01*
X146338094Y-50966476D01*
X146340501Y-50963913D01*
X146342606Y-50961099D01*
X146342612Y-50961092D01*
X146542721Y-50693600D01*
X146544830Y-50690781D01*
X146547253Y-50686652D01*
X146650893Y-50510000D01*
X146654919Y-50503138D01*
X149944758Y-50503138D01*
X149962035Y-50659633D01*
X150016143Y-50807490D01*
X150020380Y-50813796D01*
X150020382Y-50813799D01*
X150052284Y-50861274D01*
X150103958Y-50938172D01*
X150109576Y-50943284D01*
X150158299Y-50987618D01*
X150195222Y-51048258D01*
X150199500Y-51080812D01*
X150199500Y-55593433D01*
X150202564Y-55602864D01*
X150202565Y-55602868D01*
X150206297Y-55614353D01*
X150210913Y-55633578D01*
X150214354Y-55655304D01*
X150218855Y-55664137D01*
X150218856Y-55664141D01*
X150224341Y-55674906D01*
X150231905Y-55693166D01*
X150238704Y-55714090D01*
X150251639Y-55731893D01*
X150261965Y-55748745D01*
X150271950Y-55768342D01*
X150294513Y-55790905D01*
X150294516Y-55790909D01*
X153665457Y-59161849D01*
X157015359Y-62511751D01*
X157049385Y-62574063D01*
X157051186Y-62617291D01*
X157049758Y-62628138D01*
X157067035Y-62784633D01*
X157121143Y-62932490D01*
X157125380Y-62938796D01*
X157125382Y-62938799D01*
X157153741Y-62981001D01*
X157208958Y-63063172D01*
X157325410Y-63169135D01*
X157341986Y-63178135D01*
X157457099Y-63240637D01*
X157457101Y-63240638D01*
X157463776Y-63244262D01*
X157471125Y-63246190D01*
X157608719Y-63282287D01*
X157608721Y-63282287D01*
X157616069Y-63284215D01*
X157699380Y-63285524D01*
X157765898Y-63286569D01*
X157765901Y-63286569D01*
X157773495Y-63286688D01*
X157926968Y-63251538D01*
X158067625Y-63180795D01*
X158148304Y-63111889D01*
X158181574Y-63083474D01*
X158181576Y-63083471D01*
X158187348Y-63078542D01*
X158279224Y-62950683D01*
X158337950Y-62804598D01*
X158356825Y-62671972D01*
X158359553Y-62652807D01*
X158359553Y-62652804D01*
X158360134Y-62648723D01*
X158360278Y-62635000D01*
X158341363Y-62478694D01*
X158332671Y-62455690D01*
X158288394Y-62338514D01*
X158288393Y-62338511D01*
X158285710Y-62331412D01*
X158196531Y-62201657D01*
X158136338Y-62148027D01*
X158084648Y-62101972D01*
X158084645Y-62101970D01*
X158078976Y-62096919D01*
X157939831Y-62023245D01*
X157807094Y-61989904D01*
X157794498Y-61986740D01*
X157794496Y-61986740D01*
X157787128Y-61984889D01*
X157779530Y-61984849D01*
X157779528Y-61984849D01*
X157742133Y-61984654D01*
X157672212Y-61984288D01*
X157604198Y-61963930D01*
X157583777Y-61947385D01*
X151037405Y-55401012D01*
X151003379Y-55338700D01*
X151000500Y-55311917D01*
X151000500Y-52623822D01*
X152494500Y-52623822D01*
X152509657Y-52753828D01*
X152512153Y-52760705D01*
X152512154Y-52760708D01*
X152566872Y-52911452D01*
X152569369Y-52918331D01*
X152665323Y-53064685D01*
X152792372Y-53185040D01*
X152943702Y-53272939D01*
X153111193Y-53323667D01*
X153285862Y-53334503D01*
X153293078Y-53333263D01*
X153293080Y-53333263D01*
X153451125Y-53306106D01*
X153451127Y-53306105D01*
X153458340Y-53304866D01*
X153619373Y-53236346D01*
X153760324Y-53132617D01*
X153765063Y-53127039D01*
X153765066Y-53127036D01*
X153868893Y-53004824D01*
X153868896Y-53004820D01*
X153873632Y-52999245D01*
X153953219Y-52843384D01*
X153994815Y-52673394D01*
X153995500Y-52662352D01*
X153995500Y-51931003D01*
X154015502Y-51862882D01*
X154069158Y-51816389D01*
X154139432Y-51806285D01*
X154204012Y-51835779D01*
X154221461Y-51854298D01*
X154264549Y-51910451D01*
X154384767Y-52002698D01*
X154524764Y-52060687D01*
X154637280Y-52075500D01*
X154712720Y-52075500D01*
X154825236Y-52060687D01*
X154965233Y-52002698D01*
X155085451Y-51910451D01*
X155177698Y-51790233D01*
X155235687Y-51650236D01*
X155255466Y-51500000D01*
X159874534Y-51500000D01*
X159894313Y-51650236D01*
X159952302Y-51790233D01*
X160044549Y-51910451D01*
X160164767Y-52002698D01*
X160304764Y-52060687D01*
X160417280Y-52075500D01*
X160492720Y-52075500D01*
X160605236Y-52060687D01*
X160745233Y-52002698D01*
X160865451Y-51910451D01*
X160908538Y-51854299D01*
X160965876Y-51812432D01*
X161036747Y-51808210D01*
X161098649Y-51842974D01*
X161131931Y-51905687D01*
X161134500Y-51931003D01*
X161134500Y-52623822D01*
X161149657Y-52753828D01*
X161152153Y-52760705D01*
X161152154Y-52760708D01*
X161206872Y-52911452D01*
X161209369Y-52918331D01*
X161305323Y-53064685D01*
X161432372Y-53185040D01*
X161583702Y-53272939D01*
X161751193Y-53323667D01*
X161925862Y-53334503D01*
X161933078Y-53333263D01*
X161933080Y-53333263D01*
X162091125Y-53306106D01*
X162091127Y-53306105D01*
X162098340Y-53304866D01*
X162259373Y-53236346D01*
X162400324Y-53132617D01*
X162405063Y-53127039D01*
X162405066Y-53127036D01*
X162508893Y-53004824D01*
X162508896Y-53004820D01*
X162513632Y-52999245D01*
X162593219Y-52843384D01*
X162634815Y-52673394D01*
X162635500Y-52662352D01*
X162635500Y-52623822D01*
X167639500Y-52623822D01*
X167654657Y-52753828D01*
X167657153Y-52760705D01*
X167657154Y-52760708D01*
X167711872Y-52911452D01*
X167714369Y-52918331D01*
X167810323Y-53064685D01*
X167937372Y-53185040D01*
X168088702Y-53272939D01*
X168256193Y-53323667D01*
X168430862Y-53334503D01*
X168438078Y-53333263D01*
X168438080Y-53333263D01*
X168596125Y-53306106D01*
X168596127Y-53306105D01*
X168603340Y-53304866D01*
X168764373Y-53236346D01*
X168905324Y-53132617D01*
X168910063Y-53127039D01*
X168910066Y-53127036D01*
X169013893Y-53004824D01*
X169013896Y-53004820D01*
X169018632Y-52999245D01*
X169098219Y-52843384D01*
X169139815Y-52673394D01*
X169140500Y-52662352D01*
X169140500Y-51931003D01*
X169160502Y-51862882D01*
X169214158Y-51816389D01*
X169284432Y-51806285D01*
X169349012Y-51835779D01*
X169366461Y-51854298D01*
X169409549Y-51910451D01*
X169529767Y-52002698D01*
X169669764Y-52060687D01*
X169782280Y-52075500D01*
X169857720Y-52075500D01*
X169970236Y-52060687D01*
X170110233Y-52002698D01*
X170230451Y-51910451D01*
X170322698Y-51790233D01*
X170380687Y-51650236D01*
X170400466Y-51500000D01*
X175019534Y-51500000D01*
X175039313Y-51650236D01*
X175097302Y-51790233D01*
X175189549Y-51910451D01*
X175309767Y-52002698D01*
X175449764Y-52060687D01*
X175562280Y-52075500D01*
X175637720Y-52075500D01*
X175750236Y-52060687D01*
X175890233Y-52002698D01*
X176010451Y-51910451D01*
X176053538Y-51854299D01*
X176110876Y-51812432D01*
X176181747Y-51808210D01*
X176243649Y-51842974D01*
X176276931Y-51905687D01*
X176279500Y-51931003D01*
X176279500Y-52623822D01*
X176294657Y-52753828D01*
X176297153Y-52760705D01*
X176297154Y-52760708D01*
X176351872Y-52911452D01*
X176354369Y-52918331D01*
X176450323Y-53064685D01*
X176577372Y-53185040D01*
X176728702Y-53272939D01*
X176896193Y-53323667D01*
X177070862Y-53334503D01*
X177078078Y-53333263D01*
X177078080Y-53333263D01*
X177236125Y-53306106D01*
X177236127Y-53306105D01*
X177243340Y-53304866D01*
X177404373Y-53236346D01*
X177545324Y-53132617D01*
X177550063Y-53127039D01*
X177550066Y-53127036D01*
X177653893Y-53004824D01*
X177653896Y-53004820D01*
X177658632Y-52999245D01*
X177738219Y-52843384D01*
X177779815Y-52673394D01*
X177780500Y-52662352D01*
X177780500Y-51436178D01*
X177765343Y-51306172D01*
X177756061Y-51280599D01*
X177708128Y-51148548D01*
X177708127Y-51148546D01*
X177705631Y-51141669D01*
X177609677Y-50995315D01*
X177482628Y-50874960D01*
X177331298Y-50787061D01*
X177163807Y-50736333D01*
X176989138Y-50725497D01*
X176981922Y-50726737D01*
X176981920Y-50726737D01*
X176823875Y-50753894D01*
X176823873Y-50753895D01*
X176816660Y-50755134D01*
X176655627Y-50823654D01*
X176514676Y-50927383D01*
X176509937Y-50932961D01*
X176509934Y-50932964D01*
X176406107Y-51055176D01*
X176406104Y-51055180D01*
X176401368Y-51060755D01*
X176386665Y-51089549D01*
X176325654Y-51209030D01*
X176276860Y-51260603D01*
X176207930Y-51277609D01*
X176140749Y-51254648D01*
X176105116Y-51215604D01*
X176102698Y-51209767D01*
X176010451Y-51089549D01*
X175890233Y-50997302D01*
X175750236Y-50939313D01*
X175702011Y-50932964D01*
X175641807Y-50925038D01*
X175641806Y-50925038D01*
X175637720Y-50924500D01*
X175562280Y-50924500D01*
X175558194Y-50925038D01*
X175558193Y-50925038D01*
X175497989Y-50932964D01*
X175449764Y-50939313D01*
X175309767Y-50997302D01*
X175189549Y-51089549D01*
X175097302Y-51209767D01*
X175039313Y-51349764D01*
X175019534Y-51500000D01*
X170400466Y-51500000D01*
X170380687Y-51349764D01*
X170322698Y-51209767D01*
X170230451Y-51089549D01*
X170110233Y-50997302D01*
X169970236Y-50939313D01*
X169922011Y-50932964D01*
X169861807Y-50925038D01*
X169861806Y-50925038D01*
X169857720Y-50924500D01*
X169782280Y-50924500D01*
X169778194Y-50925038D01*
X169778193Y-50925038D01*
X169717989Y-50932964D01*
X169669764Y-50939313D01*
X169529767Y-50997302D01*
X169409549Y-51089549D01*
X169404523Y-51096099D01*
X169322333Y-51203211D01*
X169317302Y-51209767D01*
X169314142Y-51217396D01*
X169313694Y-51218172D01*
X169262311Y-51267164D01*
X169192597Y-51280599D01*
X169126686Y-51254211D01*
X169086137Y-51198162D01*
X169068127Y-51148546D01*
X169065631Y-51141669D01*
X168969677Y-50995315D01*
X168842628Y-50874960D01*
X168691298Y-50787061D01*
X168523807Y-50736333D01*
X168349138Y-50725497D01*
X168341922Y-50726737D01*
X168341920Y-50726737D01*
X168183875Y-50753894D01*
X168183873Y-50753895D01*
X168176660Y-50755134D01*
X168015627Y-50823654D01*
X167874676Y-50927383D01*
X167869937Y-50932961D01*
X167869934Y-50932964D01*
X167766107Y-51055176D01*
X167766104Y-51055180D01*
X167761368Y-51060755D01*
X167731251Y-51119735D01*
X167685655Y-51209030D01*
X167681781Y-51216616D01*
X167680042Y-51223721D01*
X167680041Y-51223725D01*
X167661550Y-51299292D01*
X167640185Y-51386606D01*
X167639500Y-51397648D01*
X167639500Y-52623822D01*
X162635500Y-52623822D01*
X162635500Y-51436178D01*
X162620343Y-51306172D01*
X162611061Y-51280599D01*
X162563128Y-51148548D01*
X162563127Y-51148546D01*
X162560631Y-51141669D01*
X162464677Y-50995315D01*
X162337628Y-50874960D01*
X162186298Y-50787061D01*
X162018807Y-50736333D01*
X161844138Y-50725497D01*
X161836922Y-50726737D01*
X161836920Y-50726737D01*
X161678875Y-50753894D01*
X161678873Y-50753895D01*
X161671660Y-50755134D01*
X161510627Y-50823654D01*
X161369676Y-50927383D01*
X161364937Y-50932961D01*
X161364934Y-50932964D01*
X161261107Y-51055176D01*
X161261104Y-51055180D01*
X161256368Y-51060755D01*
X161241665Y-51089549D01*
X161180654Y-51209030D01*
X161131860Y-51260603D01*
X161062930Y-51277609D01*
X160995749Y-51254648D01*
X160960116Y-51215604D01*
X160957698Y-51209767D01*
X160865451Y-51089549D01*
X160745233Y-50997302D01*
X160605236Y-50939313D01*
X160557011Y-50932964D01*
X160496807Y-50925038D01*
X160496806Y-50925038D01*
X160492720Y-50924500D01*
X160417280Y-50924500D01*
X160413194Y-50925038D01*
X160413193Y-50925038D01*
X160352989Y-50932964D01*
X160304764Y-50939313D01*
X160164767Y-50997302D01*
X160044549Y-51089549D01*
X159952302Y-51209767D01*
X159894313Y-51349764D01*
X159874534Y-51500000D01*
X155255466Y-51500000D01*
X155235687Y-51349764D01*
X155177698Y-51209767D01*
X155085451Y-51089549D01*
X154965233Y-50997302D01*
X154825236Y-50939313D01*
X154777011Y-50932964D01*
X154716807Y-50925038D01*
X154716806Y-50925038D01*
X154712720Y-50924500D01*
X154637280Y-50924500D01*
X154633194Y-50925038D01*
X154633193Y-50925038D01*
X154572989Y-50932964D01*
X154524764Y-50939313D01*
X154384767Y-50997302D01*
X154264549Y-51089549D01*
X154259523Y-51096099D01*
X154177333Y-51203211D01*
X154172302Y-51209767D01*
X154169142Y-51217396D01*
X154168694Y-51218172D01*
X154117311Y-51267164D01*
X154047597Y-51280599D01*
X153981686Y-51254211D01*
X153941137Y-51198162D01*
X153923127Y-51148546D01*
X153920631Y-51141669D01*
X153824677Y-50995315D01*
X153697628Y-50874960D01*
X153546298Y-50787061D01*
X153378807Y-50736333D01*
X153204138Y-50725497D01*
X153196922Y-50726737D01*
X153196920Y-50726737D01*
X153038875Y-50753894D01*
X153038873Y-50753895D01*
X153031660Y-50755134D01*
X152870627Y-50823654D01*
X152729676Y-50927383D01*
X152724937Y-50932961D01*
X152724934Y-50932964D01*
X152621107Y-51055176D01*
X152621104Y-51055180D01*
X152616368Y-51060755D01*
X152586251Y-51119735D01*
X152540655Y-51209030D01*
X152536781Y-51216616D01*
X152535042Y-51223721D01*
X152535041Y-51223725D01*
X152516550Y-51299292D01*
X152495185Y-51386606D01*
X152494500Y-51397648D01*
X152494500Y-52623822D01*
X151000500Y-52623822D01*
X151000500Y-51081534D01*
X151020502Y-51013413D01*
X151044669Y-50985723D01*
X151076576Y-50958472D01*
X151076577Y-50958471D01*
X151082348Y-50953542D01*
X151174224Y-50825683D01*
X151232950Y-50679598D01*
X151255134Y-50523723D01*
X151255278Y-50510000D01*
X151236363Y-50353694D01*
X151231175Y-50339963D01*
X151183394Y-50213514D01*
X151183393Y-50213511D01*
X151180710Y-50206412D01*
X151091531Y-50076657D01*
X151033187Y-50024674D01*
X150979648Y-49976972D01*
X150979645Y-49976970D01*
X150973976Y-49971919D01*
X150834831Y-49898245D01*
X150818122Y-49894048D01*
X150689498Y-49861740D01*
X150689496Y-49861740D01*
X150682128Y-49859889D01*
X150674530Y-49859849D01*
X150674528Y-49859849D01*
X150607319Y-49859497D01*
X150524684Y-49859065D01*
X150517305Y-49860837D01*
X150517301Y-49860837D01*
X150378967Y-49894048D01*
X150378963Y-49894049D01*
X150371588Y-49895820D01*
X150231679Y-49968032D01*
X150225957Y-49973024D01*
X150225955Y-49973025D01*
X150118759Y-50066538D01*
X150118756Y-50066541D01*
X150113034Y-50071533D01*
X150022501Y-50200348D01*
X149965309Y-50347039D01*
X149944758Y-50503138D01*
X146654919Y-50503138D01*
X146717440Y-50396574D01*
X146718872Y-50393358D01*
X146854747Y-50088178D01*
X146854749Y-50088173D01*
X146856179Y-50084961D01*
X146959319Y-49759824D01*
X147025573Y-49425217D01*
X147054116Y-49085309D01*
X147055307Y-49000000D01*
X147053120Y-48960868D01*
X147038681Y-48702617D01*
X147036266Y-48659428D01*
X147028515Y-48613602D01*
X146979968Y-48326570D01*
X146979967Y-48326565D01*
X146979381Y-48323101D01*
X146942311Y-48193822D01*
X152494500Y-48193822D01*
X152509657Y-48323828D01*
X152512153Y-48330705D01*
X152512154Y-48330708D01*
X152566872Y-48481452D01*
X152569369Y-48488331D01*
X152665323Y-48634685D01*
X152792372Y-48755040D01*
X152943702Y-48842939D01*
X153111193Y-48893667D01*
X153285862Y-48904503D01*
X153293078Y-48903263D01*
X153293080Y-48903263D01*
X153451125Y-48876106D01*
X153451127Y-48876105D01*
X153458340Y-48874866D01*
X153619373Y-48806346D01*
X153760324Y-48702617D01*
X153765063Y-48697039D01*
X153765066Y-48697036D01*
X153868893Y-48574824D01*
X153868896Y-48574820D01*
X153873632Y-48569245D01*
X153953219Y-48413384D01*
X153963714Y-48370497D01*
X153984628Y-48285024D01*
X153994815Y-48243394D01*
X153995500Y-48232352D01*
X153995500Y-48193822D01*
X161134500Y-48193822D01*
X161149657Y-48323828D01*
X161152153Y-48330705D01*
X161152154Y-48330708D01*
X161206872Y-48481452D01*
X161209369Y-48488331D01*
X161305323Y-48634685D01*
X161432372Y-48755040D01*
X161583702Y-48842939D01*
X161751193Y-48893667D01*
X161925862Y-48904503D01*
X161933078Y-48903263D01*
X161933080Y-48903263D01*
X162091125Y-48876106D01*
X162091127Y-48876105D01*
X162098340Y-48874866D01*
X162259373Y-48806346D01*
X162400324Y-48702617D01*
X162405063Y-48697039D01*
X162405066Y-48697036D01*
X162508893Y-48574824D01*
X162508896Y-48574820D01*
X162513632Y-48569245D01*
X162593219Y-48413384D01*
X162603714Y-48370497D01*
X162624628Y-48285024D01*
X162634815Y-48243394D01*
X162635500Y-48232352D01*
X162635500Y-48193822D01*
X167639500Y-48193822D01*
X167654657Y-48323828D01*
X167657153Y-48330705D01*
X167657154Y-48330708D01*
X167711872Y-48481452D01*
X167714369Y-48488331D01*
X167810323Y-48634685D01*
X167937372Y-48755040D01*
X168088702Y-48842939D01*
X168256193Y-48893667D01*
X168430862Y-48904503D01*
X168438078Y-48903263D01*
X168438080Y-48903263D01*
X168596125Y-48876106D01*
X168596127Y-48876105D01*
X168603340Y-48874866D01*
X168764373Y-48806346D01*
X168905324Y-48702617D01*
X168910063Y-48697039D01*
X168910066Y-48697036D01*
X169013893Y-48574824D01*
X169013896Y-48574820D01*
X169018632Y-48569245D01*
X169098219Y-48413384D01*
X169108714Y-48370497D01*
X169129628Y-48285024D01*
X169139815Y-48243394D01*
X169140500Y-48232352D01*
X169140500Y-48193822D01*
X176279500Y-48193822D01*
X176294657Y-48323828D01*
X176297153Y-48330705D01*
X176297154Y-48330708D01*
X176351872Y-48481452D01*
X176354369Y-48488331D01*
X176450323Y-48634685D01*
X176577372Y-48755040D01*
X176728702Y-48842939D01*
X176896193Y-48893667D01*
X177070862Y-48904503D01*
X177078078Y-48903263D01*
X177078080Y-48903263D01*
X177236125Y-48876106D01*
X177236127Y-48876105D01*
X177243340Y-48874866D01*
X177404373Y-48806346D01*
X177545324Y-48702617D01*
X177550063Y-48697039D01*
X177550066Y-48697036D01*
X177653893Y-48574824D01*
X177653896Y-48574820D01*
X177658632Y-48569245D01*
X177738219Y-48413384D01*
X177748714Y-48370497D01*
X177769628Y-48285024D01*
X177779815Y-48243394D01*
X177780500Y-48232352D01*
X177780500Y-47506178D01*
X177765343Y-47376172D01*
X177752962Y-47342061D01*
X177708128Y-47218548D01*
X177705631Y-47211669D01*
X177609677Y-47065315D01*
X177482628Y-46944960D01*
X177331298Y-46857061D01*
X177163807Y-46806333D01*
X176989138Y-46795497D01*
X176981922Y-46796737D01*
X176981920Y-46796737D01*
X176823875Y-46823894D01*
X176823873Y-46823895D01*
X176816660Y-46825134D01*
X176655627Y-46893654D01*
X176514676Y-46997383D01*
X176509937Y-47002961D01*
X176509934Y-47002964D01*
X176406107Y-47125176D01*
X176406104Y-47125180D01*
X176401368Y-47130755D01*
X176321781Y-47286616D01*
X176320042Y-47293721D01*
X176320041Y-47293725D01*
X176308214Y-47342061D01*
X176280185Y-47456606D01*
X176279500Y-47467648D01*
X176279500Y-48193822D01*
X169140500Y-48193822D01*
X169140500Y-47506178D01*
X169125343Y-47376172D01*
X169112962Y-47342061D01*
X169068128Y-47218548D01*
X169065631Y-47211669D01*
X168969677Y-47065315D01*
X168842628Y-46944960D01*
X168691298Y-46857061D01*
X168523807Y-46806333D01*
X168349138Y-46795497D01*
X168341922Y-46796737D01*
X168341920Y-46796737D01*
X168183875Y-46823894D01*
X168183873Y-46823895D01*
X168176660Y-46825134D01*
X168015627Y-46893654D01*
X167874676Y-46997383D01*
X167869937Y-47002961D01*
X167869934Y-47002964D01*
X167766107Y-47125176D01*
X167766104Y-47125180D01*
X167761368Y-47130755D01*
X167681781Y-47286616D01*
X167680042Y-47293721D01*
X167680041Y-47293725D01*
X167668214Y-47342061D01*
X167640185Y-47456606D01*
X167639500Y-47467648D01*
X167639500Y-48193822D01*
X162635500Y-48193822D01*
X162635500Y-47506178D01*
X162620343Y-47376172D01*
X162607962Y-47342061D01*
X162563128Y-47218548D01*
X162560631Y-47211669D01*
X162464677Y-47065315D01*
X162337628Y-46944960D01*
X162186298Y-46857061D01*
X162018807Y-46806333D01*
X161844138Y-46795497D01*
X161836922Y-46796737D01*
X161836920Y-46796737D01*
X161678875Y-46823894D01*
X161678873Y-46823895D01*
X161671660Y-46825134D01*
X161510627Y-46893654D01*
X161369676Y-46997383D01*
X161364937Y-47002961D01*
X161364934Y-47002964D01*
X161261107Y-47125176D01*
X161261104Y-47125180D01*
X161256368Y-47130755D01*
X161176781Y-47286616D01*
X161175042Y-47293721D01*
X161175041Y-47293725D01*
X161163214Y-47342061D01*
X161135185Y-47456606D01*
X161134500Y-47467648D01*
X161134500Y-48193822D01*
X153995500Y-48193822D01*
X153995500Y-47506178D01*
X153980343Y-47376172D01*
X153967962Y-47342061D01*
X153923128Y-47218548D01*
X153920631Y-47211669D01*
X153824677Y-47065315D01*
X153697628Y-46944960D01*
X153546298Y-46857061D01*
X153378807Y-46806333D01*
X153204138Y-46795497D01*
X153196922Y-46796737D01*
X153196920Y-46796737D01*
X153038875Y-46823894D01*
X153038873Y-46823895D01*
X153031660Y-46825134D01*
X152870627Y-46893654D01*
X152729676Y-46997383D01*
X152724937Y-47002961D01*
X152724934Y-47002964D01*
X152621107Y-47125176D01*
X152621104Y-47125180D01*
X152616368Y-47130755D01*
X152536781Y-47286616D01*
X152535042Y-47293721D01*
X152535041Y-47293725D01*
X152523214Y-47342061D01*
X152495185Y-47456606D01*
X152494500Y-47467648D01*
X152494500Y-48193822D01*
X146942311Y-48193822D01*
X146885360Y-47995211D01*
X146799827Y-47787693D01*
X146756713Y-47683090D01*
X146756709Y-47683083D01*
X146755375Y-47679845D01*
X146591047Y-47380934D01*
X146394424Y-47102203D01*
X146309513Y-47006565D01*
X146303684Y-47000000D01*
X147648947Y-47000000D01*
X147667108Y-47172786D01*
X147669148Y-47179064D01*
X147669148Y-47179065D01*
X147702088Y-47280444D01*
X147720795Y-47338020D01*
X147807664Y-47488481D01*
X147812082Y-47493388D01*
X147812083Y-47493389D01*
X147919495Y-47612682D01*
X147923917Y-47617593D01*
X147929259Y-47621474D01*
X147929261Y-47621476D01*
X148059131Y-47715832D01*
X148064473Y-47719713D01*
X148070501Y-47722397D01*
X148070503Y-47722398D01*
X148217159Y-47787693D01*
X148223190Y-47790378D01*
X148308160Y-47808439D01*
X148386674Y-47825128D01*
X148386678Y-47825128D01*
X148393131Y-47826500D01*
X148566869Y-47826500D01*
X148573322Y-47825128D01*
X148573326Y-47825128D01*
X148651840Y-47808439D01*
X148736810Y-47790378D01*
X148742841Y-47787693D01*
X148889497Y-47722398D01*
X148889499Y-47722397D01*
X148895527Y-47719713D01*
X148900869Y-47715832D01*
X149030739Y-47621476D01*
X149030741Y-47621474D01*
X149036083Y-47617593D01*
X149040505Y-47612682D01*
X149147917Y-47493389D01*
X149147918Y-47493388D01*
X149152336Y-47488481D01*
X149239205Y-47338020D01*
X149257913Y-47280444D01*
X149290852Y-47179065D01*
X149290852Y-47179064D01*
X149292892Y-47172786D01*
X149311053Y-47000000D01*
X149292892Y-46827214D01*
X149286797Y-46808455D01*
X149241247Y-46668264D01*
X149241246Y-46668262D01*
X149239205Y-46661980D01*
X149152336Y-46511519D01*
X149051675Y-46399723D01*
X149040505Y-46387318D01*
X149040504Y-46387317D01*
X149036083Y-46382407D01*
X149012666Y-46365393D01*
X148900869Y-46284168D01*
X148900868Y-46284167D01*
X148895527Y-46280287D01*
X148889499Y-46277603D01*
X148889497Y-46277602D01*
X148742841Y-46212307D01*
X148742840Y-46212307D01*
X148736810Y-46209622D01*
X148651839Y-46191561D01*
X148573326Y-46174872D01*
X148573322Y-46174872D01*
X148566869Y-46173500D01*
X148393131Y-46173500D01*
X148386678Y-46174872D01*
X148386674Y-46174872D01*
X148308160Y-46191561D01*
X148223190Y-46209622D01*
X148217160Y-46212307D01*
X148217159Y-46212307D01*
X148070504Y-46277602D01*
X148070502Y-46277603D01*
X148064474Y-46280287D01*
X148059133Y-46284167D01*
X148059132Y-46284168D01*
X147929261Y-46378524D01*
X147929259Y-46378526D01*
X147923917Y-46382407D01*
X147919496Y-46387317D01*
X147919495Y-46387318D01*
X147908326Y-46399723D01*
X147807664Y-46511519D01*
X147720795Y-46661980D01*
X147718754Y-46668262D01*
X147718753Y-46668264D01*
X147673203Y-46808455D01*
X147667108Y-46827214D01*
X147648947Y-47000000D01*
X146303684Y-47000000D01*
X146170289Y-46849753D01*
X146170283Y-46849747D01*
X146167956Y-46847126D01*
X146146715Y-46828000D01*
X145917087Y-46621242D01*
X145917086Y-46621241D01*
X145914467Y-46618883D01*
X145665853Y-46440893D01*
X145639982Y-46422371D01*
X145639975Y-46422367D01*
X145637115Y-46420319D01*
X145339358Y-46253908D01*
X145024908Y-46121725D01*
X145021545Y-46120735D01*
X145021536Y-46120732D01*
X144820346Y-46061520D01*
X144697682Y-46025418D01*
X144427684Y-45977810D01*
X144365220Y-45966796D01*
X144365218Y-45966796D01*
X144361760Y-45966186D01*
X144358249Y-45965965D01*
X144358248Y-45965965D01*
X144024848Y-45944988D01*
X144024842Y-45944988D01*
X144021330Y-45944767D01*
X143924946Y-45949481D01*
X143684140Y-45961258D01*
X143684132Y-45961259D01*
X143680633Y-45961430D01*
X143677165Y-45961992D01*
X143677162Y-45961992D01*
X143347393Y-46015403D01*
X143347390Y-46015404D01*
X143343918Y-46015966D01*
X143340531Y-46016912D01*
X143340525Y-46016913D01*
X143019741Y-46106478D01*
X143015379Y-46107696D01*
X143012116Y-46109014D01*
X143012114Y-46109015D01*
X142756459Y-46212307D01*
X142699114Y-46235476D01*
X142399062Y-46397713D01*
X142118965Y-46592385D01*
X142116323Y-46594698D01*
X142116319Y-46594701D01*
X141885537Y-46796737D01*
X141862314Y-46817067D01*
X141632307Y-47068956D01*
X141431811Y-47344915D01*
X141430069Y-47347981D01*
X141430068Y-47347983D01*
X141409600Y-47384014D01*
X141263326Y-47641503D01*
X141128951Y-47955023D01*
X141115797Y-47998591D01*
X141041887Y-48243394D01*
X141030361Y-48281569D01*
X141029727Y-48285024D01*
X140978759Y-48562727D01*
X140968785Y-48617068D01*
X140968539Y-48620584D01*
X140968539Y-48620585D01*
X140948686Y-48904503D01*
X140944991Y-48957341D01*
X140370967Y-48957341D01*
X140411144Y-48776111D01*
X140413989Y-48765493D01*
X140535277Y-48380819D01*
X140539033Y-48370497D01*
X140693392Y-47997842D01*
X140698034Y-47987889D01*
X140713390Y-47958392D01*
X140884271Y-47630132D01*
X140889766Y-47620613D01*
X141106478Y-47280444D01*
X141112782Y-47271440D01*
X141304276Y-47021880D01*
X141358330Y-46951436D01*
X141365393Y-46943019D01*
X141366984Y-46941283D01*
X141637883Y-46645648D01*
X141645652Y-46637879D01*
X141663809Y-46621242D01*
X141943022Y-46365391D01*
X141951439Y-46358327D01*
X142085281Y-46255627D01*
X142147023Y-46208250D01*
X142271440Y-46112782D01*
X142280444Y-46106478D01*
X142620613Y-45889766D01*
X142630133Y-45884270D01*
X142690058Y-45853075D01*
X142987898Y-45698030D01*
X142997842Y-45693392D01*
X143370504Y-45539030D01*
X143380819Y-45535277D01*
X143765494Y-45413989D01*
X143776111Y-45411144D01*
X144169883Y-45323848D01*
X144180707Y-45321939D01*
X144580601Y-45269291D01*
X144591552Y-45268333D01*
X144964590Y-45252046D01*
X144976881Y-45252986D01*
X144987827Y-45252986D01*
X145000000Y-45255408D01*
X145012171Y-45252987D01*
X145012173Y-45252987D01*
X145012504Y-45252921D01*
X145037085Y-45250500D01*
X192874000Y-45250500D01*
X192942121Y-45270502D01*
G37*
G04 #@! TD.AperFunction*
G04 #@! TA.AperFunction,Conductor*
G36*
X219528647Y-56501192D02*
G01*
X219549621Y-56518095D01*
X220612595Y-57581069D01*
X220646621Y-57643381D01*
X220649500Y-57670164D01*
X220649500Y-59419836D01*
X220629498Y-59487957D01*
X220612595Y-59508931D01*
X220018931Y-60102595D01*
X219956619Y-60136621D01*
X219929836Y-60139500D01*
X218600862Y-60139500D01*
X218584415Y-60138422D01*
X218568147Y-60136280D01*
X218568145Y-60136280D01*
X218562578Y-60135547D01*
X218486572Y-60139132D01*
X218481729Y-60139360D01*
X218475793Y-60139500D01*
X218453370Y-60139500D01*
X218434483Y-60141185D01*
X218427548Y-60141804D01*
X218422287Y-60142163D01*
X218339602Y-60146063D01*
X218334139Y-60147314D01*
X218334133Y-60147315D01*
X218322289Y-60150028D01*
X218305355Y-60152710D01*
X218287661Y-60154289D01*
X218282245Y-60155771D01*
X218282243Y-60155771D01*
X218207819Y-60176131D01*
X218202701Y-60177417D01*
X218127479Y-60194645D01*
X218127478Y-60194645D01*
X218122013Y-60195897D01*
X218116859Y-60198095D01*
X218116848Y-60198099D01*
X218105674Y-60202866D01*
X218089484Y-60208505D01*
X218072349Y-60213192D01*
X217997623Y-60248835D01*
X217992843Y-60250993D01*
X217974354Y-60258879D01*
X217916687Y-60283476D01*
X217901829Y-60293236D01*
X217886909Y-60301642D01*
X217870871Y-60309292D01*
X217866315Y-60312566D01*
X217866313Y-60312567D01*
X217803646Y-60357598D01*
X217799297Y-60360587D01*
X217730116Y-60406030D01*
X217726666Y-60409104D01*
X217726658Y-60409110D01*
X217709492Y-60424404D01*
X217699205Y-60432646D01*
X217689595Y-60439552D01*
X217621418Y-60509905D01*
X217615714Y-60515791D01*
X217614325Y-60517201D01*
X216080016Y-62051510D01*
X216067626Y-62062377D01*
X216050146Y-62075790D01*
X216010195Y-62119696D01*
X215995654Y-62135676D01*
X215991555Y-62139971D01*
X215975720Y-62155806D01*
X215959083Y-62175704D01*
X215955624Y-62179669D01*
X215907254Y-62232827D01*
X215899914Y-62240893D01*
X215890470Y-62255948D01*
X215880401Y-62269806D01*
X215869003Y-62283438D01*
X215866222Y-62288314D01*
X215827992Y-62355337D01*
X215825296Y-62359843D01*
X215781293Y-62429990D01*
X215774665Y-62446479D01*
X215767205Y-62461909D01*
X215761683Y-62471591D01*
X215758405Y-62477337D01*
X215747690Y-62507595D01*
X215730775Y-62555361D01*
X215728910Y-62560297D01*
X215698034Y-62637105D01*
X215696898Y-62642591D01*
X215696896Y-62642597D01*
X215694430Y-62654506D01*
X215689825Y-62671002D01*
X215683892Y-62687756D01*
X215674648Y-62744204D01*
X215670514Y-62769449D01*
X215669552Y-62774637D01*
X215657103Y-62834752D01*
X215652767Y-62855690D01*
X215652501Y-62860301D01*
X215652501Y-62860302D01*
X215651177Y-62883261D01*
X215649730Y-62896364D01*
X215648726Y-62902498D01*
X215648726Y-62902504D01*
X215647818Y-62908046D01*
X215647906Y-62913660D01*
X215647906Y-62913662D01*
X215649484Y-63014105D01*
X215649500Y-63016084D01*
X215649500Y-66609138D01*
X215648422Y-66625585D01*
X215645547Y-66647422D01*
X215646753Y-66672986D01*
X215649360Y-66728271D01*
X215649500Y-66734207D01*
X215649500Y-66756630D01*
X215649750Y-66759428D01*
X215651804Y-66782452D01*
X215652163Y-66787713D01*
X215656063Y-66870398D01*
X215657314Y-66875861D01*
X215657315Y-66875867D01*
X215660028Y-66887711D01*
X215662710Y-66904645D01*
X215664289Y-66922339D01*
X215665771Y-66927755D01*
X215665771Y-66927757D01*
X215686131Y-67002181D01*
X215687417Y-67007299D01*
X215699162Y-67058579D01*
X215705897Y-67087987D01*
X215708095Y-67093141D01*
X215708099Y-67093152D01*
X215712866Y-67104326D01*
X215718505Y-67120516D01*
X215723192Y-67137651D01*
X215758835Y-67212377D01*
X215760993Y-67217157D01*
X215793476Y-67293313D01*
X215803236Y-67308171D01*
X215811642Y-67323091D01*
X215819292Y-67339129D01*
X215822563Y-67343682D01*
X215822566Y-67343686D01*
X215837380Y-67364301D01*
X215867394Y-67406069D01*
X215867589Y-67406341D01*
X215870577Y-67410687D01*
X215916031Y-67479884D01*
X215927576Y-67492842D01*
X215934398Y-67500499D01*
X215942640Y-67510786D01*
X215949552Y-67520405D01*
X215992549Y-67562072D01*
X216025791Y-67594286D01*
X216027201Y-67595675D01*
X220351510Y-71919984D01*
X220362377Y-71932374D01*
X220375790Y-71949854D01*
X220435342Y-72004042D01*
X220435676Y-72004346D01*
X220439971Y-72008445D01*
X220455807Y-72024281D01*
X220457960Y-72026081D01*
X220457962Y-72026083D01*
X220475702Y-72040916D01*
X220479669Y-72044376D01*
X220519261Y-72080403D01*
X220533450Y-72093313D01*
X220540893Y-72100086D01*
X220555948Y-72109530D01*
X220569806Y-72119599D01*
X220583438Y-72130997D01*
X220588314Y-72133778D01*
X220655337Y-72172008D01*
X220659843Y-72174704D01*
X220729990Y-72218707D01*
X220746479Y-72225335D01*
X220761909Y-72232795D01*
X220777337Y-72241595D01*
X220843226Y-72264928D01*
X220855366Y-72269227D01*
X220860302Y-72271092D01*
X220878203Y-72278288D01*
X220937105Y-72301966D01*
X220942599Y-72303104D01*
X220942603Y-72303105D01*
X220954497Y-72305568D01*
X220971009Y-72310178D01*
X220987757Y-72316109D01*
X221058963Y-72327769D01*
X221069450Y-72329486D01*
X221074641Y-72330448D01*
X221155690Y-72347233D01*
X221160300Y-72347499D01*
X221160301Y-72347499D01*
X221183262Y-72348823D01*
X221196368Y-72350270D01*
X221202504Y-72351275D01*
X221202509Y-72351275D01*
X221208046Y-72352182D01*
X221213660Y-72352094D01*
X221213662Y-72352094D01*
X221314135Y-72350516D01*
X221316113Y-72350500D01*
X226909978Y-72350500D01*
X226978099Y-72370502D01*
X227024592Y-72424158D01*
X227034696Y-72494432D01*
X227005202Y-72559012D01*
X226953589Y-72594712D01*
X226824193Y-72642449D01*
X226819232Y-72645401D01*
X226819231Y-72645401D01*
X226806405Y-72653032D01*
X226650371Y-72745862D01*
X226498305Y-72879220D01*
X226373089Y-73038057D01*
X226278914Y-73217053D01*
X226234653Y-73359598D01*
X226224652Y-73391809D01*
X226218937Y-73410213D01*
X226195164Y-73611069D01*
X226208392Y-73812894D01*
X226258178Y-74008928D01*
X226342856Y-74192607D01*
X226459588Y-74357780D01*
X226604466Y-74498913D01*
X226772637Y-74611282D01*
X226777940Y-74613560D01*
X226777943Y-74613562D01*
X226866291Y-74651519D01*
X226958470Y-74691122D01*
X227022348Y-74705576D01*
X227038212Y-74709166D01*
X227100239Y-74743709D01*
X227133743Y-74806303D01*
X227128089Y-74877074D01*
X227085070Y-74933553D01*
X227043653Y-74953593D01*
X226862349Y-75003192D01*
X226857291Y-75005604D01*
X226857287Y-75005606D01*
X226792448Y-75036533D01*
X226660871Y-75099292D01*
X226479595Y-75229552D01*
X226452303Y-75257715D01*
X226346599Y-75366793D01*
X226324251Y-75389854D01*
X226199750Y-75575132D01*
X226197491Y-75580278D01*
X226197490Y-75580280D01*
X226171008Y-75640607D01*
X226110026Y-75779529D01*
X226108718Y-75784977D01*
X226108716Y-75784983D01*
X226064760Y-75968075D01*
X226057915Y-75996585D01*
X226057592Y-76002190D01*
X226046185Y-76200036D01*
X226045066Y-76219438D01*
X226071883Y-76441044D01*
X226137519Y-76654400D01*
X226239901Y-76852759D01*
X226243310Y-76857201D01*
X226243312Y-76857205D01*
X226269857Y-76891799D01*
X226375790Y-77029854D01*
X226540893Y-77180086D01*
X226729990Y-77298707D01*
X226937105Y-77381966D01*
X226942593Y-77383103D01*
X226942598Y-77383104D01*
X227107155Y-77417182D01*
X227155690Y-77427233D01*
X227160303Y-77427499D01*
X227210526Y-77430395D01*
X227210530Y-77430395D01*
X227212349Y-77430500D01*
X230709836Y-77430500D01*
X230777957Y-77450502D01*
X230798931Y-77467405D01*
X236712595Y-83381069D01*
X236746621Y-83443381D01*
X236749500Y-83470164D01*
X236749500Y-83618040D01*
X236729498Y-83686161D01*
X236675842Y-83732654D01*
X236605568Y-83742758D01*
X236544721Y-83716375D01*
X236541243Y-83713589D01*
X236534854Y-83706677D01*
X236528497Y-83702984D01*
X236522337Y-83697467D01*
X235840520Y-83015650D01*
X235830666Y-83004561D01*
X235815474Y-82985291D01*
X235815472Y-82985289D01*
X235809639Y-82977890D01*
X235801892Y-82972535D01*
X235801890Y-82972534D01*
X235761392Y-82944545D01*
X235758170Y-82942243D01*
X235718525Y-82912960D01*
X235718524Y-82912959D01*
X235710951Y-82907366D01*
X235704135Y-82904973D01*
X235698198Y-82900869D01*
X235689218Y-82898029D01*
X235689216Y-82898028D01*
X235669050Y-82891650D01*
X235642248Y-82883174D01*
X235638517Y-82881929D01*
X235592030Y-82865604D01*
X235592028Y-82865604D01*
X235583136Y-82862481D01*
X235575948Y-82862199D01*
X235575889Y-82862188D01*
X235569037Y-82860020D01*
X235562430Y-82859500D01*
X235509751Y-82859500D01*
X235504804Y-82859403D01*
X235447773Y-82857162D01*
X235440667Y-82859046D01*
X235432420Y-82859500D01*
X223128489Y-82859500D01*
X223060368Y-82839498D01*
X223039394Y-82822595D01*
X219677405Y-79460606D01*
X219643379Y-79398294D01*
X219640500Y-79371511D01*
X219640500Y-77617966D01*
X220013257Y-77617966D01*
X220043565Y-77752446D01*
X220046645Y-77762275D01*
X220126770Y-77959603D01*
X220131413Y-77968794D01*
X220242694Y-78150388D01*
X220248777Y-78158699D01*
X220388213Y-78319667D01*
X220395580Y-78326883D01*
X220559434Y-78462916D01*
X220567881Y-78468831D01*
X220751756Y-78576279D01*
X220761042Y-78580729D01*
X220960001Y-78656703D01*
X220969899Y-78659579D01*
X221073250Y-78680606D01*
X221087299Y-78679410D01*
X221091000Y-78669065D01*
X221091000Y-78668517D01*
X221599000Y-78668517D01*
X221603064Y-78682359D01*
X221616478Y-78684393D01*
X221623184Y-78683534D01*
X221633262Y-78681392D01*
X221837255Y-78620191D01*
X221846842Y-78616433D01*
X222038095Y-78522739D01*
X222046945Y-78517464D01*
X222220328Y-78393792D01*
X222228200Y-78387139D01*
X222379052Y-78236812D01*
X222385730Y-78228965D01*
X222510003Y-78056020D01*
X222515313Y-78047183D01*
X222609670Y-77856267D01*
X222613469Y-77846672D01*
X222675377Y-77642910D01*
X222677555Y-77632837D01*
X222678986Y-77621962D01*
X222676775Y-77607778D01*
X222663617Y-77604000D01*
X221617115Y-77604000D01*
X221601876Y-77608475D01*
X221600671Y-77609865D01*
X221599000Y-77617548D01*
X221599000Y-78668517D01*
X221091000Y-78668517D01*
X221091000Y-77622115D01*
X221086525Y-77606876D01*
X221085135Y-77605671D01*
X221077452Y-77604000D01*
X220028225Y-77604000D01*
X220014694Y-77607973D01*
X220013257Y-77617966D01*
X219640500Y-77617966D01*
X219640500Y-77084183D01*
X220009389Y-77084183D01*
X220010912Y-77092607D01*
X220023292Y-77096000D01*
X222663344Y-77096000D01*
X222676875Y-77092027D01*
X222678180Y-77082947D01*
X222636214Y-76915875D01*
X222632894Y-76906124D01*
X222547972Y-76710814D01*
X222543105Y-76701739D01*
X222427426Y-76522926D01*
X222421136Y-76514757D01*
X222277806Y-76357240D01*
X222270273Y-76350215D01*
X222103139Y-76218222D01*
X222094552Y-76212517D01*
X221975521Y-76146808D01*
X221925551Y-76096376D01*
X221910779Y-76026933D01*
X221935895Y-75960528D01*
X221992926Y-75918243D01*
X222036415Y-75910500D01*
X222219674Y-75910500D01*
X222292740Y-75895966D01*
X222375601Y-75840601D01*
X222430966Y-75757740D01*
X222445500Y-75684674D01*
X222445500Y-73935326D01*
X222430966Y-73862260D01*
X222375601Y-73779399D01*
X222292740Y-73724034D01*
X222219674Y-73709500D01*
X220470326Y-73709500D01*
X220397260Y-73724034D01*
X220314399Y-73779399D01*
X220259034Y-73862260D01*
X220244500Y-73935326D01*
X220244500Y-75684674D01*
X220259034Y-75757740D01*
X220314399Y-75840601D01*
X220397260Y-75895966D01*
X220470326Y-75910500D01*
X220654184Y-75910500D01*
X220722305Y-75930502D01*
X220768798Y-75984158D01*
X220778902Y-76054432D01*
X220749408Y-76119012D01*
X220712365Y-76148263D01*
X220623458Y-76194545D01*
X220614738Y-76200036D01*
X220444433Y-76327905D01*
X220436726Y-76334748D01*
X220289590Y-76488717D01*
X220283104Y-76496727D01*
X220163098Y-76672649D01*
X220158000Y-76681623D01*
X220068338Y-76874783D01*
X220064775Y-76884470D01*
X220009389Y-77084183D01*
X219640500Y-77084183D01*
X219640500Y-73570108D01*
X219641373Y-73555299D01*
X219644257Y-73530931D01*
X219645364Y-73521578D01*
X219640291Y-73493799D01*
X219634828Y-73463887D01*
X219634178Y-73459984D01*
X219626850Y-73411243D01*
X219626850Y-73411242D01*
X219625449Y-73401926D01*
X219622321Y-73395413D01*
X219621025Y-73388315D01*
X219593975Y-73336241D01*
X219592225Y-73332738D01*
X219579504Y-73306246D01*
X219566809Y-73279809D01*
X219561923Y-73274523D01*
X219561890Y-73274475D01*
X219558579Y-73268100D01*
X219554275Y-73263060D01*
X219517048Y-73225833D01*
X219513618Y-73222267D01*
X219481246Y-73187247D01*
X219474854Y-73180332D01*
X219468495Y-73176639D01*
X219462337Y-73171122D01*
X212592405Y-66301190D01*
X212558379Y-66238878D01*
X212555500Y-66212095D01*
X212555500Y-64894220D01*
X212556373Y-64879411D01*
X212559257Y-64855043D01*
X212560364Y-64845690D01*
X212549828Y-64787999D01*
X212549178Y-64784096D01*
X212541850Y-64735355D01*
X212541850Y-64735354D01*
X212540449Y-64726038D01*
X212537321Y-64719525D01*
X212536025Y-64712427D01*
X212508975Y-64660353D01*
X212507225Y-64656850D01*
X212481809Y-64603921D01*
X212476923Y-64598635D01*
X212476890Y-64598587D01*
X212473579Y-64592212D01*
X212469275Y-64587172D01*
X212432048Y-64549945D01*
X212428618Y-64546379D01*
X212396246Y-64511359D01*
X212389854Y-64504444D01*
X212383495Y-64500751D01*
X212377337Y-64495234D01*
X208598545Y-60716442D01*
X208564519Y-60654130D01*
X208562553Y-60642484D01*
X208562529Y-60642287D01*
X208546363Y-60508694D01*
X208521744Y-60443542D01*
X208493394Y-60368514D01*
X208493393Y-60368511D01*
X208490710Y-60361412D01*
X208401531Y-60231657D01*
X208337631Y-60174724D01*
X208289648Y-60131972D01*
X208289645Y-60131970D01*
X208283976Y-60126919D01*
X208144831Y-60053245D01*
X207996923Y-60016093D01*
X207996922Y-60016093D01*
X207992128Y-60014889D01*
X207992329Y-60014090D01*
X207932882Y-59988161D01*
X207893483Y-59929099D01*
X207892269Y-59858113D01*
X207924659Y-59802444D01*
X208399698Y-59327405D01*
X208462010Y-59293379D01*
X208488793Y-59290500D01*
X215539750Y-59290500D01*
X215607871Y-59310502D01*
X215624549Y-59323306D01*
X215655798Y-59351740D01*
X215680410Y-59374135D01*
X215712943Y-59391799D01*
X215812099Y-59445637D01*
X215812101Y-59445638D01*
X215818776Y-59449262D01*
X215826125Y-59451190D01*
X215963719Y-59487287D01*
X215963721Y-59487287D01*
X215971069Y-59489215D01*
X216054380Y-59490524D01*
X216120898Y-59491569D01*
X216120901Y-59491569D01*
X216128495Y-59491688D01*
X216281968Y-59456538D01*
X216422625Y-59385795D01*
X216464666Y-59349889D01*
X216536574Y-59288474D01*
X216536576Y-59288471D01*
X216542348Y-59283542D01*
X216634224Y-59155683D01*
X216692950Y-59009598D01*
X216703115Y-58938174D01*
X216714553Y-58857807D01*
X216714553Y-58857804D01*
X216715134Y-58853723D01*
X216715278Y-58840000D01*
X216710319Y-58799023D01*
X216721993Y-58728995D01*
X216769676Y-58676393D01*
X216838227Y-58657921D01*
X216867380Y-58662013D01*
X216963719Y-58687287D01*
X216963721Y-58687287D01*
X216971069Y-58689215D01*
X217054380Y-58690524D01*
X217120898Y-58691569D01*
X217120901Y-58691569D01*
X217128495Y-58691688D01*
X217281968Y-58656538D01*
X217422625Y-58585795D01*
X217478723Y-58537883D01*
X217536574Y-58488474D01*
X217536576Y-58488471D01*
X217542348Y-58483542D01*
X217634224Y-58355683D01*
X217639420Y-58342759D01*
X217686700Y-58225145D01*
X217692950Y-58209598D01*
X217706559Y-58113975D01*
X217714553Y-58057807D01*
X217714553Y-58057804D01*
X217715134Y-58053723D01*
X217715278Y-58040000D01*
X217714519Y-58033723D01*
X217707071Y-57972183D01*
X217696363Y-57883694D01*
X217664034Y-57798138D01*
X217643394Y-57743514D01*
X217643393Y-57743511D01*
X217640710Y-57736412D01*
X217636414Y-57730161D01*
X217636409Y-57730152D01*
X217618108Y-57703525D01*
X217596008Y-57636056D01*
X217613893Y-57567349D01*
X217666085Y-57519219D01*
X217721948Y-57506158D01*
X217907575Y-57506158D01*
X217975696Y-57526160D01*
X217996670Y-57543063D01*
X218135359Y-57681752D01*
X218169385Y-57744064D01*
X218171186Y-57787292D01*
X218169758Y-57798138D01*
X218187035Y-57954633D01*
X218241143Y-58102490D01*
X218245380Y-58108796D01*
X218245382Y-58108799D01*
X218275733Y-58153965D01*
X218328958Y-58233172D01*
X218445410Y-58339135D01*
X218477164Y-58356376D01*
X218577099Y-58410637D01*
X218577101Y-58410638D01*
X218583776Y-58414262D01*
X218591125Y-58416190D01*
X218728719Y-58452287D01*
X218728721Y-58452287D01*
X218736069Y-58454215D01*
X218819380Y-58455524D01*
X218885898Y-58456569D01*
X218885901Y-58456569D01*
X218893495Y-58456688D01*
X218993565Y-58433769D01*
X219064431Y-58438058D01*
X219121729Y-58479980D01*
X219147267Y-58546225D01*
X219132936Y-58615760D01*
X219118944Y-58635739D01*
X219118034Y-58636533D01*
X219113669Y-58642743D01*
X219113666Y-58642747D01*
X219031870Y-58759131D01*
X219027501Y-58765348D01*
X218970309Y-58912039D01*
X218969318Y-58919568D01*
X218956688Y-59015502D01*
X218949758Y-59068138D01*
X218967035Y-59224633D01*
X219021143Y-59372490D01*
X219025380Y-59378796D01*
X219025382Y-59378799D01*
X219065709Y-59438811D01*
X219108958Y-59503172D01*
X219225410Y-59609135D01*
X219232085Y-59612759D01*
X219357099Y-59680637D01*
X219357101Y-59680638D01*
X219363776Y-59684262D01*
X219371125Y-59686190D01*
X219508719Y-59722287D01*
X219508721Y-59722287D01*
X219516069Y-59724215D01*
X219599380Y-59725524D01*
X219665898Y-59726569D01*
X219665901Y-59726569D01*
X219673495Y-59726688D01*
X219826968Y-59691538D01*
X219967625Y-59620795D01*
X220023683Y-59572917D01*
X220081574Y-59523474D01*
X220081576Y-59523471D01*
X220087348Y-59518542D01*
X220179224Y-59390683D01*
X220187931Y-59369025D01*
X220220312Y-59288474D01*
X220237950Y-59244598D01*
X220260134Y-59088723D01*
X220260278Y-59075000D01*
X220241363Y-58918694D01*
X220230338Y-58889516D01*
X220188394Y-58778514D01*
X220188393Y-58778511D01*
X220185710Y-58771412D01*
X220096531Y-58641657D01*
X220047681Y-58598133D01*
X220010125Y-58537883D01*
X220005500Y-58504057D01*
X220005500Y-57460906D01*
X220002436Y-57451475D01*
X220002435Y-57451471D01*
X219998703Y-57439986D01*
X219994087Y-57420761D01*
X219992197Y-57408827D01*
X219992197Y-57408826D01*
X219990646Y-57399035D01*
X219986145Y-57390202D01*
X219986144Y-57390198D01*
X219980659Y-57379433D01*
X219973093Y-57361169D01*
X219970699Y-57353799D01*
X219966296Y-57340249D01*
X219960467Y-57332227D01*
X219960466Y-57332224D01*
X219953368Y-57322455D01*
X219943038Y-57305598D01*
X219937552Y-57294832D01*
X219937551Y-57294831D01*
X219933050Y-57285997D01*
X219655000Y-57007947D01*
X219343339Y-56696285D01*
X219309313Y-56633973D01*
X219314378Y-56563158D01*
X219356925Y-56506322D01*
X219423445Y-56481511D01*
X219432434Y-56481190D01*
X219460526Y-56481190D01*
X219528647Y-56501192D01*
G37*
G04 #@! TD.AperFunction*
G04 #@! TA.AperFunction,Conductor*
G36*
X205863745Y-72855502D02*
G01*
X205910238Y-72909158D01*
X205920342Y-72979432D01*
X205913018Y-73007266D01*
X205905309Y-73027039D01*
X205903186Y-73043167D01*
X205886340Y-73171122D01*
X205884758Y-73183138D01*
X205902035Y-73339633D01*
X205956143Y-73487490D01*
X205960380Y-73493796D01*
X205960382Y-73493799D01*
X205968368Y-73505683D01*
X206043958Y-73618172D01*
X206049574Y-73623282D01*
X206054542Y-73629038D01*
X206053210Y-73630187D01*
X206085223Y-73682765D01*
X206089500Y-73715317D01*
X206089500Y-79278478D01*
X206069498Y-79346599D01*
X206057134Y-79362791D01*
X206053759Y-79366538D01*
X206048034Y-79371533D01*
X206043669Y-79377743D01*
X206043666Y-79377747D01*
X205977122Y-79472430D01*
X205957501Y-79500348D01*
X205900309Y-79647039D01*
X205899318Y-79654568D01*
X205881656Y-79788723D01*
X205879758Y-79803138D01*
X205897035Y-79959633D01*
X205951143Y-80107490D01*
X205955380Y-80113796D01*
X205955382Y-80113799D01*
X205991042Y-80166866D01*
X206038958Y-80238172D01*
X206155410Y-80344135D01*
X206183171Y-80359208D01*
X206287099Y-80415637D01*
X206287101Y-80415638D01*
X206293776Y-80419262D01*
X206301125Y-80421190D01*
X206438719Y-80457287D01*
X206438721Y-80457287D01*
X206446069Y-80459215D01*
X206529380Y-80460524D01*
X206595898Y-80461569D01*
X206595901Y-80461569D01*
X206603495Y-80461688D01*
X206756968Y-80426538D01*
X206897625Y-80355795D01*
X206944383Y-80315860D01*
X207011574Y-80258474D01*
X207011576Y-80258471D01*
X207017348Y-80253542D01*
X207109224Y-80125683D01*
X207167950Y-79979598D01*
X207190134Y-79823723D01*
X207190278Y-79810000D01*
X207171363Y-79653694D01*
X207115710Y-79506412D01*
X207026531Y-79376657D01*
X207021767Y-79372413D01*
X206991941Y-79308558D01*
X206990500Y-79289556D01*
X206990500Y-73715954D01*
X207010502Y-73647833D01*
X207019955Y-73635586D01*
X207022348Y-73633542D01*
X207033393Y-73618172D01*
X207040239Y-73608643D01*
X207072587Y-73563627D01*
X207128581Y-73519980D01*
X207199284Y-73513534D01*
X207262249Y-73546337D01*
X207279485Y-73566870D01*
X207313958Y-73618172D01*
X207430410Y-73724135D01*
X207437085Y-73727759D01*
X207562099Y-73795637D01*
X207562101Y-73795638D01*
X207568776Y-73799262D01*
X207576125Y-73801190D01*
X207713718Y-73837287D01*
X207713722Y-73837288D01*
X207721069Y-73839215D01*
X207772697Y-73840026D01*
X207840494Y-73861095D01*
X207859812Y-73876915D01*
X208357247Y-74374350D01*
X208367101Y-74385439D01*
X208382293Y-74404709D01*
X208388128Y-74412110D01*
X208395875Y-74417465D01*
X208395877Y-74417466D01*
X208436375Y-74445455D01*
X208439587Y-74447750D01*
X208486816Y-74482634D01*
X208493632Y-74485027D01*
X208499569Y-74489131D01*
X208508549Y-74491971D01*
X208508551Y-74491972D01*
X208528717Y-74498350D01*
X208555519Y-74506826D01*
X208559250Y-74508071D01*
X208605737Y-74524396D01*
X208605739Y-74524396D01*
X208614631Y-74527519D01*
X208621819Y-74527801D01*
X208621878Y-74527812D01*
X208628730Y-74529980D01*
X208635337Y-74530500D01*
X208688016Y-74530500D01*
X208692962Y-74530597D01*
X208749994Y-74532838D01*
X208757100Y-74530954D01*
X208765347Y-74530500D01*
X213541207Y-74530500D01*
X213609328Y-74550502D01*
X213630302Y-74567405D01*
X213924865Y-74861968D01*
X213958891Y-74924280D01*
X213953826Y-74995095D01*
X213911279Y-75051931D01*
X213893561Y-75063028D01*
X213880638Y-75069698D01*
X213803430Y-75109547D01*
X213803427Y-75109549D01*
X213796679Y-75113032D01*
X213790957Y-75118024D01*
X213790955Y-75118025D01*
X213683759Y-75211538D01*
X213683756Y-75211541D01*
X213678034Y-75216533D01*
X213587501Y-75345348D01*
X213530309Y-75492039D01*
X213529318Y-75499568D01*
X213510979Y-75638866D01*
X213509758Y-75648138D01*
X213527035Y-75804633D01*
X213581143Y-75952490D01*
X213585380Y-75958796D01*
X213585382Y-75958799D01*
X213602423Y-75984158D01*
X213668958Y-76083172D01*
X213674577Y-76088285D01*
X213674578Y-76088286D01*
X213704272Y-76115306D01*
X213741195Y-76175946D01*
X213739472Y-76246922D01*
X213699650Y-76305699D01*
X213634372Y-76333616D01*
X213619473Y-76334500D01*
X212384220Y-76334500D01*
X212369411Y-76333627D01*
X212345043Y-76330743D01*
X212335690Y-76329636D01*
X212326426Y-76331328D01*
X212326425Y-76331328D01*
X212277999Y-76340172D01*
X212274096Y-76340822D01*
X212225355Y-76348150D01*
X212225354Y-76348150D01*
X212216038Y-76349551D01*
X212209525Y-76352679D01*
X212202427Y-76353975D01*
X212150353Y-76381025D01*
X212146863Y-76382768D01*
X212093921Y-76408191D01*
X212088635Y-76413077D01*
X212088587Y-76413110D01*
X212082212Y-76416421D01*
X212077172Y-76420725D01*
X212039945Y-76457952D01*
X212036380Y-76461381D01*
X211994444Y-76500146D01*
X211990751Y-76506505D01*
X211985234Y-76512663D01*
X209235546Y-79262351D01*
X209173234Y-79296377D01*
X209145792Y-79299254D01*
X209109684Y-79299065D01*
X209102305Y-79300837D01*
X209102301Y-79300837D01*
X208963967Y-79334048D01*
X208963963Y-79334049D01*
X208956588Y-79335820D01*
X208816679Y-79408032D01*
X208810957Y-79413024D01*
X208810955Y-79413025D01*
X208703759Y-79506538D01*
X208703756Y-79506541D01*
X208698034Y-79511533D01*
X208693667Y-79517747D01*
X208622720Y-79618694D01*
X208607501Y-79640348D01*
X208550309Y-79787039D01*
X208545479Y-79823723D01*
X208532587Y-79921652D01*
X208529758Y-79943138D01*
X208547035Y-80099633D01*
X208601143Y-80247490D01*
X208605380Y-80253796D01*
X208605382Y-80253799D01*
X208630243Y-80290795D01*
X208688958Y-80378172D01*
X208805410Y-80484135D01*
X208812085Y-80487759D01*
X208937099Y-80555637D01*
X208937101Y-80555638D01*
X208943776Y-80559262D01*
X208951125Y-80561190D01*
X209088719Y-80597287D01*
X209088721Y-80597287D01*
X209096069Y-80599215D01*
X209179380Y-80600524D01*
X209245898Y-80601569D01*
X209245901Y-80601569D01*
X209253495Y-80601688D01*
X209406968Y-80566538D01*
X209547625Y-80495795D01*
X209589545Y-80459992D01*
X209661574Y-80398474D01*
X209661576Y-80398471D01*
X209667348Y-80393542D01*
X209759224Y-80265683D01*
X209817950Y-80119598D01*
X209839480Y-79968316D01*
X209868881Y-79903694D01*
X209875128Y-79896975D01*
X212499698Y-77272405D01*
X212562010Y-77238379D01*
X212588793Y-77235500D01*
X213569734Y-77235500D01*
X213637855Y-77255502D01*
X213684348Y-77309158D01*
X213694452Y-77379432D01*
X213672822Y-77433949D01*
X213587501Y-77555348D01*
X213530309Y-77702039D01*
X213529318Y-77709567D01*
X213511550Y-77844526D01*
X213482827Y-77909453D01*
X213475723Y-77917174D01*
X207800302Y-83592595D01*
X207737990Y-83626621D01*
X207711207Y-83629500D01*
X202024041Y-83629500D01*
X201955920Y-83609498D01*
X201909427Y-83555842D01*
X201899323Y-83485568D01*
X201907134Y-83456503D01*
X201915115Y-83436651D01*
X201915116Y-83436649D01*
X201917950Y-83429598D01*
X201940134Y-83273723D01*
X201940278Y-83260000D01*
X201921363Y-83103694D01*
X201878728Y-82990862D01*
X201868394Y-82963514D01*
X201868393Y-82963511D01*
X201865710Y-82956412D01*
X201776531Y-82826657D01*
X201770864Y-82821608D01*
X201765837Y-82815906D01*
X201767310Y-82814608D01*
X201735127Y-82762980D01*
X201730500Y-82729150D01*
X201730500Y-78076500D01*
X201750502Y-78008379D01*
X201804158Y-77961886D01*
X201856500Y-77950500D01*
X202124750Y-77950500D01*
X202192871Y-77970502D01*
X202209549Y-77983306D01*
X202265410Y-78034135D01*
X202272083Y-78037758D01*
X202397099Y-78105637D01*
X202397101Y-78105638D01*
X202403776Y-78109262D01*
X202411125Y-78111190D01*
X202548719Y-78147287D01*
X202548721Y-78147287D01*
X202556069Y-78149215D01*
X202639380Y-78150524D01*
X202705898Y-78151569D01*
X202705901Y-78151569D01*
X202713495Y-78151688D01*
X202866968Y-78116538D01*
X203007625Y-78045795D01*
X203051434Y-78008379D01*
X203121574Y-77948474D01*
X203121576Y-77948471D01*
X203127348Y-77943542D01*
X203219224Y-77815683D01*
X203277950Y-77669598D01*
X203300134Y-77513723D01*
X203300278Y-77500000D01*
X203281363Y-77343694D01*
X203225710Y-77196412D01*
X203136531Y-77066657D01*
X203034603Y-76975842D01*
X203024648Y-76966972D01*
X203024645Y-76966970D01*
X203018976Y-76961919D01*
X203005061Y-76954551D01*
X202886543Y-76891799D01*
X202886544Y-76891799D01*
X202879831Y-76888245D01*
X202826236Y-76874783D01*
X202734498Y-76851740D01*
X202734496Y-76851740D01*
X202727128Y-76849889D01*
X202719530Y-76849849D01*
X202719528Y-76849849D01*
X202652319Y-76849497D01*
X202569684Y-76849065D01*
X202562305Y-76850837D01*
X202562301Y-76850837D01*
X202423967Y-76884048D01*
X202423963Y-76884049D01*
X202416588Y-76885820D01*
X202276679Y-76958032D01*
X202270962Y-76963019D01*
X202270955Y-76963024D01*
X202207421Y-77018449D01*
X202142939Y-77048157D01*
X202124592Y-77049500D01*
X201856500Y-77049500D01*
X201788379Y-77029498D01*
X201741886Y-76975842D01*
X201730500Y-76923500D01*
X201730500Y-75158793D01*
X201750502Y-75090672D01*
X201767405Y-75069698D01*
X203964698Y-72872405D01*
X204027010Y-72838379D01*
X204053793Y-72835500D01*
X205795624Y-72835500D01*
X205863745Y-72855502D01*
G37*
G04 #@! TD.AperFunction*
G04 #@! TD*
M02*
