G04 #@! TF.GenerationSoftware,KiCad,Pcbnew,6.0.2+dfsg-1*
G04 #@! TF.CreationDate,2023-06-12T22:06:14+02:00*
G04 #@! TF.ProjectId,Logic_1,4c6f6769-635f-4312-9e6b-696361645f70,rev?*
G04 #@! TF.SameCoordinates,Original*
G04 #@! TF.FileFunction,Paste,Top*
G04 #@! TF.FilePolarity,Positive*
%FSLAX46Y46*%
G04 Gerber Fmt 4.6, Leading zero omitted, Abs format (unit mm)*
G04 Created by KiCad (PCBNEW 6.0.2+dfsg-1) date 2023-06-12 22:06:14*
%MOMM*%
%LPD*%
G01*
G04 APERTURE LIST*
G04 Aperture macros list*
%AMRoundRect*
0 Rectangle with rounded corners*
0 $1 Rounding radius*
0 $2 $3 $4 $5 $6 $7 $8 $9 X,Y pos of 4 corners*
0 Add a 4 corners polygon primitive as box body*
4,1,4,$2,$3,$4,$5,$6,$7,$8,$9,$2,$3,0*
0 Add four circle primitives for the rounded corners*
1,1,$1+$1,$2,$3*
1,1,$1+$1,$4,$5*
1,1,$1+$1,$6,$7*
1,1,$1+$1,$8,$9*
0 Add four rect primitives between the rounded corners*
20,1,$1+$1,$2,$3,$4,$5,0*
20,1,$1+$1,$4,$5,$6,$7,0*
20,1,$1+$1,$6,$7,$8,$9,0*
20,1,$1+$1,$8,$9,$2,$3,0*%
G04 Aperture macros list end*
%ADD10RoundRect,0.135000X-0.135000X-0.185000X0.135000X-0.185000X0.135000X0.185000X-0.135000X0.185000X0*%
%ADD11RoundRect,0.175000X0.475000X-0.175000X0.475000X0.175000X-0.475000X0.175000X-0.475000X-0.175000X0*%
%ADD12RoundRect,0.300000X-0.700000X0.300000X-0.700000X-0.300000X0.700000X-0.300000X0.700000X0.300000X0*%
%ADD13RoundRect,0.287500X-0.412500X0.287500X-0.412500X-0.287500X0.412500X-0.287500X0.412500X0.287500X0*%
%ADD14RoundRect,0.300000X-0.400000X0.300000X-0.400000X-0.300000X0.400000X-0.300000X0.400000X0.300000X0*%
%ADD15R,0.800000X0.900000*%
%ADD16R,0.900000X1.200000*%
%ADD17RoundRect,0.135000X0.185000X-0.135000X0.185000X0.135000X-0.185000X0.135000X-0.185000X-0.135000X0*%
%ADD18RoundRect,0.225000X0.250000X-0.225000X0.250000X0.225000X-0.250000X0.225000X-0.250000X-0.225000X0*%
%ADD19RoundRect,0.100000X-0.650000X-0.350000X0.650000X-0.350000X0.650000X0.350000X-0.650000X0.350000X0*%
%ADD20RoundRect,0.100000X-0.350000X0.650000X-0.350000X-0.650000X0.350000X-0.650000X0.350000X0.650000X0*%
%ADD21RoundRect,0.100000X-0.350000X-0.350000X0.350000X-0.350000X0.350000X0.350000X-0.350000X0.350000X0*%
%ADD22RoundRect,0.140000X-0.140000X-0.170000X0.140000X-0.170000X0.140000X0.170000X-0.140000X0.170000X0*%
%ADD23RoundRect,0.218750X-0.218750X-0.256250X0.218750X-0.256250X0.218750X0.256250X-0.218750X0.256250X0*%
%ADD24RoundRect,0.225000X-0.250000X0.225000X-0.250000X-0.225000X0.250000X-0.225000X0.250000X0.225000X0*%
%ADD25RoundRect,0.218750X0.256250X-0.218750X0.256250X0.218750X-0.256250X0.218750X-0.256250X-0.218750X0*%
%ADD26RoundRect,0.135000X-0.185000X0.135000X-0.185000X-0.135000X0.185000X-0.135000X0.185000X0.135000X0*%
%ADD27R,0.900000X0.800000*%
%ADD28RoundRect,0.200000X1.800000X1.800000X-1.800000X1.800000X-1.800000X-1.800000X1.800000X-1.800000X0*%
%ADD29RoundRect,0.225000X-0.225000X-0.225000X0.225000X-0.225000X0.225000X0.225000X-0.225000X0.225000X0*%
%ADD30RoundRect,0.062500X-0.337500X-0.062500X0.337500X-0.062500X0.337500X0.062500X-0.337500X0.062500X0*%
%ADD31RoundRect,0.062500X-0.062500X-0.337500X0.062500X-0.337500X0.062500X0.337500X-0.062500X0.337500X0*%
%ADD32RoundRect,0.135000X0.135000X0.185000X-0.135000X0.185000X-0.135000X-0.185000X0.135000X-0.185000X0*%
%ADD33R,2.000000X1.500000*%
%ADD34R,2.000000X3.800000*%
%ADD35R,0.600000X1.450000*%
%ADD36R,0.300000X1.450000*%
%ADD37R,1.300000X0.700000*%
%ADD38R,1.800000X2.500000*%
%ADD39RoundRect,0.140000X-0.170000X0.140000X-0.170000X-0.140000X0.170000X-0.140000X0.170000X0.140000X0*%
%ADD40RoundRect,0.225000X-0.225000X-0.250000X0.225000X-0.250000X0.225000X0.250000X-0.225000X0.250000X0*%
G04 APERTURE END LIST*
D10*
G04 #@! TO.C,R19*
X198000000Y-110400000D03*
X199020000Y-110400000D03*
G04 #@! TD*
D11*
G04 #@! TO.C,J2*
X157180000Y-118252500D03*
X157180000Y-117152500D03*
X157180000Y-116052500D03*
X157180000Y-114952500D03*
X157180000Y-113852500D03*
X157180000Y-112752500D03*
X157180000Y-111652500D03*
X157180000Y-110552500D03*
X157180000Y-109452500D03*
D12*
X146530000Y-108352500D03*
X146630000Y-123872500D03*
D13*
X156330000Y-108302500D03*
D14*
X156330000Y-123032500D03*
G04 #@! TD*
D15*
G04 #@! TO.C,Q6*
X199950000Y-111900000D03*
X198050000Y-111900000D03*
X199000000Y-113900000D03*
G04 #@! TD*
D16*
G04 #@! TO.C,D114*
X188350000Y-117400000D03*
X191650000Y-117400000D03*
G04 #@! TD*
D17*
G04 #@! TO.C,R16*
X173960000Y-55905000D03*
X173960000Y-54885000D03*
G04 #@! TD*
G04 #@! TO.C,R17*
X170955000Y-55895000D03*
X170955000Y-54875000D03*
G04 #@! TD*
D18*
G04 #@! TO.C,C24*
X188050000Y-68425000D03*
X188050000Y-66875000D03*
G04 #@! TD*
D19*
G04 #@! TO.C,U3*
X203505000Y-53995000D03*
X203505000Y-55265000D03*
X203505000Y-56535000D03*
X203505000Y-57805000D03*
X203505000Y-59075000D03*
X203505000Y-60345000D03*
X203505000Y-61615000D03*
X203505000Y-62885000D03*
X203505000Y-64155000D03*
X203505000Y-65425000D03*
X203505000Y-66695000D03*
X203505000Y-67965000D03*
X203505000Y-69235000D03*
X203505000Y-70505000D03*
D20*
X205270000Y-71735000D03*
X206540000Y-71735000D03*
X207810000Y-71775000D03*
X209080000Y-71775000D03*
X210350000Y-71775000D03*
X211620000Y-71775000D03*
X212890000Y-71775000D03*
X214160000Y-71775000D03*
X215430000Y-71775000D03*
X216700000Y-71775000D03*
X217970000Y-71775000D03*
X219240000Y-71775000D03*
D19*
X221005000Y-70505000D03*
X221005000Y-69235000D03*
X221005000Y-67965000D03*
X221005000Y-66695000D03*
X221005000Y-65425000D03*
X221005000Y-64155000D03*
X221005000Y-62885000D03*
X221005000Y-61615000D03*
X221005000Y-60345000D03*
X221005000Y-59075000D03*
X221005000Y-57805000D03*
X221005000Y-56535000D03*
X221005000Y-55265000D03*
X221005000Y-53995000D03*
D21*
X209355000Y-63095000D03*
X212155000Y-60295000D03*
X210755000Y-63095000D03*
X210755000Y-60295000D03*
X209355000Y-61695000D03*
X212155000Y-63095000D03*
X210755000Y-61695000D03*
X209355000Y-60295000D03*
X212155000Y-61695000D03*
G04 #@! TD*
D22*
G04 #@! TO.C,C25*
X178010000Y-63505000D03*
X178970000Y-63505000D03*
G04 #@! TD*
D23*
G04 #@! TO.C,D2*
X178960000Y-61935000D03*
X180535000Y-61935000D03*
G04 #@! TD*
D24*
G04 #@! TO.C,C1*
X222930000Y-55200000D03*
X222930000Y-56750000D03*
G04 #@! TD*
D18*
G04 #@! TO.C,C4*
X217040000Y-133260000D03*
X217040000Y-131710000D03*
G04 #@! TD*
D25*
G04 #@! TO.C,D10*
X197695000Y-59495000D03*
X197695000Y-57920000D03*
G04 #@! TD*
D24*
G04 #@! TO.C,C5*
X224440000Y-55200000D03*
X224440000Y-56750000D03*
G04 #@! TD*
D25*
G04 #@! TO.C,D1*
X150600000Y-53387500D03*
X150600000Y-51812500D03*
G04 #@! TD*
D15*
G04 #@! TO.C,Q2*
X195345000Y-58675000D03*
X193445000Y-58675000D03*
X194395000Y-60675000D03*
G04 #@! TD*
D26*
G04 #@! TO.C,R15*
X163495000Y-71690000D03*
X163495000Y-72710000D03*
G04 #@! TD*
D27*
G04 #@! TO.C,Q5*
X161000000Y-73155000D03*
X161000000Y-71255000D03*
X159000000Y-72205000D03*
G04 #@! TD*
D10*
G04 #@! TO.C,R3*
X176550000Y-61940000D03*
X177570000Y-61940000D03*
G04 #@! TD*
G04 #@! TO.C,R7*
X200880000Y-60340000D03*
X201900000Y-60340000D03*
G04 #@! TD*
D17*
G04 #@! TO.C,R10*
X207800000Y-75110000D03*
X207800000Y-74090000D03*
G04 #@! TD*
G04 #@! TO.C,R14*
X212255000Y-75115000D03*
X212255000Y-74095000D03*
G04 #@! TD*
D15*
G04 #@! TO.C,Q4*
X162545000Y-76755000D03*
X164445000Y-76755000D03*
X163495000Y-74755000D03*
G04 #@! TD*
D10*
G04 #@! TO.C,R9*
X200880000Y-67970000D03*
X201900000Y-67970000D03*
G04 #@! TD*
D28*
G04 #@! TO.C,BZ1*
X180950000Y-127400000D03*
X198950000Y-127400000D03*
G04 #@! TD*
D29*
G04 #@! TO.C,U2*
X191880000Y-64910000D03*
X190760000Y-63790000D03*
X193000000Y-66030000D03*
X190760000Y-64910000D03*
X193000000Y-63790000D03*
X191880000Y-66030000D03*
X191880000Y-63790000D03*
X190760000Y-66030000D03*
X193000000Y-64910000D03*
D30*
X189430000Y-63410000D03*
X189430000Y-63910000D03*
X189430000Y-64410000D03*
X189430000Y-64910000D03*
X189430000Y-65410000D03*
X189430000Y-65910000D03*
X189430000Y-66410000D03*
D31*
X190380000Y-67360000D03*
X190880000Y-67360000D03*
X191380000Y-67360000D03*
X191880000Y-67360000D03*
X192380000Y-67360000D03*
X192880000Y-67360000D03*
X193380000Y-67360000D03*
D30*
X194330000Y-66410000D03*
X194330000Y-65910000D03*
X194330000Y-65410000D03*
X194330000Y-64910000D03*
X194330000Y-64410000D03*
X194330000Y-63910000D03*
X194330000Y-63410000D03*
D31*
X193380000Y-62460000D03*
X192880000Y-62460000D03*
X192380000Y-62460000D03*
X191880000Y-62460000D03*
X191380000Y-62460000D03*
X190880000Y-62460000D03*
X190380000Y-62460000D03*
G04 #@! TD*
D15*
G04 #@! TO.C,Q1*
X191320000Y-58680000D03*
X189420000Y-58680000D03*
X190370000Y-60680000D03*
G04 #@! TD*
D17*
G04 #@! TO.C,R2*
X150600000Y-56110000D03*
X150600000Y-55090000D03*
G04 #@! TD*
D10*
G04 #@! TO.C,R8*
X200880000Y-61615000D03*
X201900000Y-61615000D03*
G04 #@! TD*
D27*
G04 #@! TO.C,Q8*
X178555000Y-78275000D03*
X178555000Y-76375000D03*
X176555000Y-77325000D03*
G04 #@! TD*
D17*
G04 #@! TO.C,R12*
X209070000Y-75110000D03*
X209070000Y-74090000D03*
G04 #@! TD*
D32*
G04 #@! TO.C,R18*
X148475000Y-93740000D03*
X147455000Y-93740000D03*
G04 #@! TD*
D27*
G04 #@! TO.C,Q7*
X178560000Y-82705000D03*
X178560000Y-80805000D03*
X176560000Y-81755000D03*
G04 #@! TD*
D10*
G04 #@! TO.C,R4*
X200880000Y-57805000D03*
X201900000Y-57805000D03*
G04 #@! TD*
D32*
G04 #@! TO.C,R11*
X148470000Y-96285000D03*
X147450000Y-96285000D03*
G04 #@! TD*
D33*
G04 #@! TO.C,U1*
X175340000Y-65905000D03*
D34*
X181640000Y-68205000D03*
D33*
X175340000Y-68205000D03*
X175340000Y-70505000D03*
G04 #@! TD*
D35*
G04 #@! TO.C,J8*
X175960000Y-52945000D03*
X175160000Y-52945000D03*
D36*
X173960000Y-52945000D03*
X172960000Y-52945000D03*
X172460000Y-52945000D03*
X171460000Y-52945000D03*
D35*
X170260000Y-52945000D03*
X169460000Y-52945000D03*
X169460000Y-52945000D03*
X170260000Y-52945000D03*
D36*
X170960000Y-52945000D03*
X171960000Y-52945000D03*
X173460000Y-52945000D03*
X174460000Y-52945000D03*
D35*
X175160000Y-52945000D03*
X175960000Y-52945000D03*
G04 #@! TD*
D37*
G04 #@! TO.C,BOOT1*
X142200000Y-58665000D03*
X147800000Y-58665000D03*
X147800000Y-62315000D03*
X142200000Y-62315000D03*
G04 #@! TD*
D38*
G04 #@! TO.C,D7*
X170250000Y-62630000D03*
X170250000Y-58630000D03*
G04 #@! TD*
D10*
G04 #@! TO.C,R6*
X200875000Y-59075000D03*
X201895000Y-59075000D03*
G04 #@! TD*
D25*
G04 #@! TO.C,D9*
X199595000Y-59495000D03*
X199595000Y-57920000D03*
G04 #@! TD*
D17*
G04 #@! TO.C,R21*
X155815000Y-55910000D03*
X155815000Y-54890000D03*
G04 #@! TD*
D24*
G04 #@! TO.C,C128*
X186400000Y-66875000D03*
X186400000Y-68425000D03*
G04 #@! TD*
G04 #@! TO.C,C27*
X200200000Y-53720000D03*
X200200000Y-55270000D03*
G04 #@! TD*
D32*
G04 #@! TO.C,R26*
X193165000Y-54885000D03*
X192145000Y-54885000D03*
G04 #@! TD*
D10*
G04 #@! TO.C,R34*
X160640000Y-110900000D03*
X161660000Y-110900000D03*
G04 #@! TD*
D39*
G04 #@! TO.C,C28*
X201965000Y-54305000D03*
X201965000Y-55265000D03*
G04 #@! TD*
D32*
G04 #@! TO.C,R33*
X190510000Y-115400000D03*
X189490000Y-115400000D03*
G04 #@! TD*
D37*
G04 #@! TO.C,RESET1*
X142200000Y-65665000D03*
X147800000Y-65665000D03*
X147800000Y-69315000D03*
X142200000Y-69315000D03*
G04 #@! TD*
D32*
G04 #@! TO.C,R29*
X221845000Y-79965000D03*
X220825000Y-79965000D03*
G04 #@! TD*
D10*
G04 #@! TO.C,R35*
X160650000Y-113850000D03*
X161670000Y-113850000D03*
G04 #@! TD*
D26*
G04 #@! TO.C,R31*
X196795000Y-61190000D03*
X196795000Y-62210000D03*
G04 #@! TD*
D32*
G04 #@! TO.C,R1*
X204820000Y-77500000D03*
X203800000Y-77500000D03*
G04 #@! TD*
D26*
G04 #@! TO.C,R24*
X199595000Y-61185000D03*
X199595000Y-62205000D03*
G04 #@! TD*
D35*
G04 #@! TO.C,J11*
X160815000Y-52945000D03*
X160015000Y-52945000D03*
D36*
X158815000Y-52945000D03*
X157815000Y-52945000D03*
X157315000Y-52945000D03*
X156315000Y-52945000D03*
D35*
X155115000Y-52945000D03*
X154315000Y-52945000D03*
X154315000Y-52945000D03*
X155115000Y-52945000D03*
D36*
X155815000Y-52945000D03*
X156815000Y-52945000D03*
X158315000Y-52945000D03*
X159315000Y-52945000D03*
D35*
X160015000Y-52945000D03*
X160815000Y-52945000D03*
G04 #@! TD*
D10*
G04 #@! TO.C,R36*
X160690000Y-116500000D03*
X161710000Y-116500000D03*
G04 #@! TD*
D18*
G04 #@! TO.C,C127*
X172850000Y-69025000D03*
X172850000Y-67475000D03*
G04 #@! TD*
D38*
G04 #@! TO.C,D8*
X160020000Y-62635000D03*
X160020000Y-58635000D03*
G04 #@! TD*
D39*
G04 #@! TO.C,C29*
X149750000Y-60040000D03*
X149750000Y-61000000D03*
G04 #@! TD*
D26*
G04 #@! TO.C,R23*
X198255000Y-61190000D03*
X198255000Y-62210000D03*
G04 #@! TD*
D10*
G04 #@! TO.C,R32*
X211745000Y-77865000D03*
X212765000Y-77865000D03*
G04 #@! TD*
D40*
G04 #@! TO.C,C23*
X149575000Y-103900000D03*
X151125000Y-103900000D03*
G04 #@! TD*
D26*
G04 #@! TO.C,R27*
X206535000Y-74090000D03*
X206535000Y-75110000D03*
G04 #@! TD*
G04 #@! TO.C,R30*
X205275000Y-74090000D03*
X205275000Y-75110000D03*
G04 #@! TD*
D39*
G04 #@! TO.C,C26*
X149750000Y-67035000D03*
X149750000Y-67995000D03*
G04 #@! TD*
D40*
G04 #@! TO.C,C22*
X160975000Y-115150000D03*
X162525000Y-115150000D03*
G04 #@! TD*
D10*
G04 #@! TO.C,R25*
X192145000Y-56055000D03*
X193165000Y-56055000D03*
G04 #@! TD*
D17*
G04 #@! TO.C,R22*
X190865000Y-70050000D03*
X190865000Y-69030000D03*
G04 #@! TD*
D32*
G04 #@! TO.C,R28*
X178510000Y-73015000D03*
X177490000Y-73015000D03*
G04 #@! TD*
D17*
G04 #@! TO.C,R20*
X158820000Y-55910000D03*
X158820000Y-54890000D03*
G04 #@! TD*
M02*
