M48
; DRILL file {KiCad 6.0.2+dfsg-1} date Fri Feb 17 06:09:52 2023
; FORMAT={-:-/ absolute / metric / decimal}
; #@! TF.CreationDate,2023-02-17T06:09:52+01:00
; #@! TF.GenerationSoftware,Kicad,Pcbnew,6.0.2+dfsg-1
; #@! TF.FileFunction,MixedPlating,1,2
FMAT,2
METRIC
; #@! TA.AperFunction,Plated,PTH,ViaDrill
T1C0.400
; #@! TA.AperFunction,Plated,PTH,ComponentDrill
T2C0.600
; #@! TA.AperFunction,Plated,PTH,ComponentDrill
T3C1.000
; #@! TA.AperFunction,Plated,PTH,ComponentDrill
T4C1.020
; #@! TA.AperFunction,Plated,PTH,ComponentDrill
T5C3.200
; #@! TA.AperFunction,NonPlated,NPTH,ComponentDrill
T6C0.650
%
G90
G05
T1
X106.907Y-54.817
X108.787Y-100.587
X108.807Y-105.667
X109.527Y-98.047
X110.108Y-59.207
X111.947Y-100.602
X112.828Y-60.912
X113.647Y-75.317
X114.012Y-66.942
X114.432Y-60.912
X117.608Y-59.207
X119.397Y-82.847
X119.397Y-83.847
X120.397Y-82.847
X120.397Y-83.847
X120.597Y-90.442
X121.097Y-66.403
X121.097Y-67.403
X121.157Y-110.858
X121.157Y-111.858
X121.157Y-116.307
X121.157Y-117.307
X122.107Y-66.407
X122.107Y-67.407
X122.157Y-110.858
X122.157Y-111.858
X122.157Y-116.307
X122.157Y-117.307
X123.107Y-66.407
X123.107Y-67.407
X125.172Y-84.052
X125.237Y-59.207
X127.968Y-60.907
X128.847Y-69.707
X128.847Y-70.707
X128.852Y-68.697
X129.107Y-74.807
X129.572Y-60.907
X129.847Y-69.707
X129.847Y-70.707
X129.852Y-68.697
X132.822Y-77.322
X132.838Y-59.207
X133.433Y-68.707
X133.433Y-69.707
X133.433Y-70.707
X136.058Y-64.322
X137.312Y-64.307
X141.308Y-73.307
X141.308Y-74.307
X142.058Y-91.307
X142.308Y-74.307
X143.308Y-65.307
X143.308Y-66.307
X143.308Y-91.307
X144.308Y-65.307
X144.558Y-91.307
X145.707Y-71.707
X145.727Y-66.483
X145.857Y-91.307
X146.808Y-58.407
X146.848Y-61.269
X148.808Y-61.357
X149.812Y-61.357
X152.542Y-61.852
X153.817Y-88.388
X154.687Y-74.295
X154.933Y-84.082
X155.327Y-73.528
X156.072Y-87.537
X157.407Y-76.358
X157.593Y-87.567
X158.952Y-81.807
X159.007Y-86.407
X160.407Y-78.912
X160.407Y-86.407
X161.602Y-74.528
X161.607Y-72.877
X161.808Y-86.407
X162.213Y-72.028
X162.213Y-73.703
X162.843Y-84.117
X162.847Y-77.498
X162.933Y-67.513
X163.317Y-61.807
X164.117Y-77.498
X164.192Y-67.517
X164.197Y-66.252
X164.218Y-64.972
X165.362Y-77.502
X165.492Y-84.257
X165.812Y-71.552
X166.362Y-65.302
X167.762Y-65.302
X167.767Y-66.703
X168.153Y-88.657
X168.157Y-90.057
X169.157Y-65.307
X169.157Y-66.707
X169.547Y-88.662
X169.547Y-90.062
X170.468Y-81.093
X170.472Y-79.962
X170.472Y-82.172
X172.892Y-62.622
X173.558Y-71.657
X173.558Y-72.657
X173.707Y-61.807
X174.308Y-142.507
X174.308Y-143.507
X174.558Y-71.657
X174.558Y-72.657
X175.132Y-62.112
X175.308Y-142.507
X175.308Y-143.507
X175.558Y-68.617
X175.562Y-67.297
X175.562Y-70.998
X175.567Y-69.733
X175.912Y-63.383
X183.492Y-74.197
X183.498Y-75.597
X183.522Y-131.812
X183.528Y-133.213
X183.537Y-101.887
X183.542Y-103.287
X184.887Y-74.203
X184.887Y-75.602
X184.917Y-131.817
X184.917Y-133.218
X184.933Y-101.892
X184.933Y-103.292
T3
X101.207Y-90.427
X101.207Y-92.968
X101.207Y-95.507
X101.207Y-98.047
X101.207Y-100.587
X101.207Y-103.127
X101.207Y-105.667
X101.207Y-108.207
X157.993Y-138.977
X160.532Y-138.977
X163.072Y-138.977
X165.612Y-138.977
X168.153Y-138.977
X170.692Y-138.977
X177.653Y-79.117
X177.653Y-81.657
X183.492Y-59.042
X183.492Y-61.582
X183.492Y-64.123
X183.492Y-66.662
X183.492Y-69.203
X183.492Y-71.742
X186.032Y-59.042
X186.032Y-61.582
X186.032Y-64.123
X186.032Y-66.662
X186.032Y-69.203
X186.032Y-71.742
X191.308Y-88.888
X191.308Y-91.427
X191.308Y-93.968
X191.308Y-96.507
X191.308Y-100.587
X191.308Y-103.127
X191.308Y-105.667
X191.308Y-108.207
T4
X142.498Y-140.407
X150.118Y-140.407
T5
X100.307Y-53.307
X100.307Y-145.308
X192.308Y-53.307
X192.308Y-145.308
T6
X110.983Y-55.807
X116.762Y-55.807
X126.127Y-55.807
X131.907Y-55.807
T2
X109.552Y-52.457G85X109.552Y-51.857
G05
X109.552Y-56.887G85X109.552Y-55.787
G05
X118.192Y-52.457G85X118.192Y-51.857
G05
X118.192Y-56.887G85X118.192Y-55.787
G05
X124.697Y-52.457G85X124.697Y-51.857
G05
X124.697Y-56.887G85X124.697Y-55.787
G05
X133.338Y-52.457G85X133.338Y-51.857
G05
X133.338Y-56.887G85X133.338Y-55.787
G05
T0
M30
