G04 #@! TF.GenerationSoftware,KiCad,Pcbnew,6.0.2+dfsg-1*
G04 #@! TF.CreationDate,2023-02-17T06:09:52+01:00*
G04 #@! TF.ProjectId,procesor,70726f63-6573-46f7-922e-6b696361645f,rev?*
G04 #@! TF.SameCoordinates,Original*
G04 #@! TF.FileFunction,Soldermask,Top*
G04 #@! TF.FilePolarity,Negative*
%FSLAX46Y46*%
G04 Gerber Fmt 4.6, Leading zero omitted, Abs format (unit mm)*
G04 Created by KiCad (PCBNEW 6.0.2+dfsg-1) date 2023-02-17 06:09:52*
%MOMM*%
%LPD*%
G01*
G04 APERTURE LIST*
G04 Aperture macros list*
%AMRoundRect*
0 Rectangle with rounded corners*
0 $1 Rounding radius*
0 $2 $3 $4 $5 $6 $7 $8 $9 X,Y pos of 4 corners*
0 Add a 4 corners polygon primitive as box body*
4,1,4,$2,$3,$4,$5,$6,$7,$8,$9,$2,$3,0*
0 Add four circle primitives for the rounded corners*
1,1,$1+$1,$2,$3*
1,1,$1+$1,$4,$5*
1,1,$1+$1,$6,$7*
1,1,$1+$1,$8,$9*
0 Add four rect primitives between the rounded corners*
20,1,$1+$1,$2,$3,$4,$5,0*
20,1,$1+$1,$4,$5,$6,$7,0*
20,1,$1+$1,$6,$7,$8,$9,0*
20,1,$1+$1,$8,$9,$2,$3,0*%
G04 Aperture macros list end*
%ADD10RoundRect,0.185000X0.185000X-0.135000X0.185000X0.135000X-0.185000X0.135000X-0.185000X-0.135000X0*%
%ADD11RoundRect,0.225000X0.475000X-0.175000X0.475000X0.175000X-0.475000X0.175000X-0.475000X-0.175000X0*%
%ADD12RoundRect,0.350000X-0.700000X0.300000X-0.700000X-0.300000X0.700000X-0.300000X0.700000X0.300000X0*%
%ADD13RoundRect,0.337500X-0.412500X0.287500X-0.412500X-0.287500X0.412500X-0.287500X0.412500X0.287500X0*%
%ADD14RoundRect,0.350000X-0.400000X0.300000X-0.400000X-0.300000X0.400000X-0.300000X0.400000X0.300000X0*%
%ADD15RoundRect,0.050000X-0.450000X-0.400000X0.450000X-0.400000X0.450000X0.400000X-0.450000X0.400000X0*%
%ADD16RoundRect,0.050000X0.450000X0.600000X-0.450000X0.600000X-0.450000X-0.600000X0.450000X-0.600000X0*%
%ADD17RoundRect,0.050000X0.850000X-0.850000X0.850000X0.850000X-0.850000X0.850000X-0.850000X-0.850000X0*%
%ADD18O,1.800000X1.800000*%
%ADD19RoundRect,0.275000X0.250000X-0.225000X0.250000X0.225000X-0.250000X0.225000X-0.250000X-0.225000X0*%
%ADD20RoundRect,0.150000X-0.650000X-0.350000X0.650000X-0.350000X0.650000X0.350000X-0.650000X0.350000X0*%
%ADD21RoundRect,0.150000X-0.350000X0.650000X-0.350000X-0.650000X0.350000X-0.650000X0.350000X0.650000X0*%
%ADD22RoundRect,0.150000X-0.350000X-0.350000X0.350000X-0.350000X0.350000X0.350000X-0.350000X0.350000X0*%
%ADD23RoundRect,0.190000X-0.140000X-0.170000X0.140000X-0.170000X0.140000X0.170000X-0.140000X0.170000X0*%
%ADD24RoundRect,0.268750X-0.218750X-0.256250X0.218750X-0.256250X0.218750X0.256250X-0.218750X0.256250X0*%
%ADD25RoundRect,0.275000X-0.250000X0.225000X-0.250000X-0.225000X0.250000X-0.225000X0.250000X0.225000X0*%
%ADD26RoundRect,0.268750X0.256250X-0.218750X0.256250X0.218750X-0.256250X0.218750X-0.256250X-0.218750X0*%
%ADD27RoundRect,0.050000X-0.400000X0.450000X-0.400000X-0.450000X0.400000X-0.450000X0.400000X0.450000X0*%
%ADD28RoundRect,0.185000X-0.185000X0.135000X-0.185000X-0.135000X0.185000X-0.135000X0.185000X0.135000X0*%
%ADD29RoundRect,0.050000X0.450000X0.400000X-0.450000X0.400000X-0.450000X-0.400000X0.450000X-0.400000X0*%
%ADD30RoundRect,0.185000X-0.135000X-0.185000X0.135000X-0.185000X0.135000X0.185000X-0.135000X0.185000X0*%
%ADD31RoundRect,0.050000X0.400000X-0.450000X0.400000X0.450000X-0.400000X0.450000X-0.400000X-0.450000X0*%
%ADD32C,2.100000*%
%ADD33RoundRect,0.112500X-0.337500X-0.062500X0.337500X-0.062500X0.337500X0.062500X-0.337500X0.062500X0*%
%ADD34RoundRect,0.112500X-0.062500X-0.337500X0.062500X-0.337500X0.062500X0.337500X-0.062500X0.337500X0*%
%ADD35RoundRect,0.050000X-1.675000X-1.675000X1.675000X-1.675000X1.675000X1.675000X-1.675000X1.675000X0*%
%ADD36C,5.700000*%
%ADD37RoundRect,0.185000X0.135000X0.185000X-0.135000X0.185000X-0.135000X-0.185000X0.135000X-0.185000X0*%
%ADD38RoundRect,0.050000X-1.000000X-0.750000X1.000000X-0.750000X1.000000X0.750000X-1.000000X0.750000X0*%
%ADD39RoundRect,0.050000X-1.000000X-1.900000X1.000000X-1.900000X1.000000X1.900000X-1.000000X1.900000X0*%
%ADD40RoundRect,0.050000X0.850000X0.850000X-0.850000X0.850000X-0.850000X-0.850000X0.850000X-0.850000X0*%
%ADD41C,0.750000*%
%ADD42RoundRect,0.050000X0.300000X0.725000X-0.300000X0.725000X-0.300000X-0.725000X0.300000X-0.725000X0*%
%ADD43RoundRect,0.050000X0.150000X0.725000X-0.150000X0.725000X-0.150000X-0.725000X0.150000X-0.725000X0*%
%ADD44O,1.100000X1.700000*%
%ADD45O,1.100000X2.200000*%
%ADD46RoundRect,0.050000X-0.650000X-0.350000X0.650000X-0.350000X0.650000X0.350000X-0.650000X0.350000X0*%
%ADD47RoundRect,0.050000X0.900000X-1.250000X0.900000X1.250000X-0.900000X1.250000X-0.900000X-1.250000X0*%
%ADD48RoundRect,0.190000X-0.170000X0.140000X-0.170000X-0.140000X0.170000X-0.140000X0.170000X0.140000X0*%
%ADD49RoundRect,0.275000X-0.225000X-0.250000X0.225000X-0.250000X0.225000X0.250000X-0.225000X0.250000X0*%
%ADD50RoundRect,0.050000X-0.850000X-0.850000X0.850000X-0.850000X0.850000X0.850000X-0.850000X0.850000X0*%
G04 APERTURE END LIST*
D10*
G04 #@! TO.C,R19*
X134007500Y-141517500D03*
X134007500Y-140497500D03*
G04 #@! TD*
D11*
G04 #@! TO.C,J2*
X113487500Y-122560000D03*
X113487500Y-121460000D03*
X113487500Y-120360000D03*
X113487500Y-119260000D03*
X113487500Y-118160000D03*
X113487500Y-117060000D03*
X113487500Y-115960000D03*
X113487500Y-114860000D03*
X113487500Y-113760000D03*
D12*
X102837500Y-112660000D03*
X102937500Y-128180000D03*
D13*
X112637500Y-112610000D03*
D14*
X112637500Y-127340000D03*
G04 #@! TD*
D15*
G04 #@! TO.C,Q6*
X136007500Y-139457500D03*
X136007500Y-141357500D03*
X138007500Y-140407500D03*
G04 #@! TD*
D16*
G04 #@! TO.C,D114*
X147857500Y-132107500D03*
X144557500Y-132107500D03*
G04 #@! TD*
D10*
G04 #@! TO.C,R16*
X130267500Y-60212500D03*
X130267500Y-59192500D03*
G04 #@! TD*
G04 #@! TO.C,R17*
X127262500Y-60202500D03*
X127262500Y-59182500D03*
G04 #@! TD*
D17*
G04 #@! TO.C,J3*
X157992500Y-138977500D03*
D18*
X160532500Y-138977500D03*
X163072500Y-138977500D03*
X165612500Y-138977500D03*
X168152500Y-138977500D03*
X170692500Y-138977500D03*
G04 #@! TD*
D19*
G04 #@! TO.C,C24*
X144357500Y-72732500D03*
X144357500Y-71182500D03*
G04 #@! TD*
D20*
G04 #@! TO.C,U3*
X159812500Y-58302500D03*
X159812500Y-59572500D03*
X159812500Y-60842500D03*
X159812500Y-62112500D03*
X159812500Y-63382500D03*
X159812500Y-64652500D03*
X159812500Y-65922500D03*
X159812500Y-67192500D03*
X159812500Y-68462500D03*
X159812500Y-69732500D03*
X159812500Y-71002500D03*
X159812500Y-72272500D03*
X159812500Y-73542500D03*
X159812500Y-74812500D03*
D21*
X161577500Y-76042500D03*
X162847500Y-76042500D03*
X164117500Y-76082500D03*
X165387500Y-76082500D03*
X166657500Y-76082500D03*
X167927500Y-76082500D03*
X169197500Y-76082500D03*
X170467500Y-76082500D03*
X171737500Y-76082500D03*
X173007500Y-76082500D03*
X174277500Y-76082500D03*
X175547500Y-76082500D03*
D20*
X177312500Y-74812500D03*
X177312500Y-73542500D03*
X177312500Y-72272500D03*
X177312500Y-71002500D03*
X177312500Y-69732500D03*
X177312500Y-68462500D03*
X177312500Y-67192500D03*
X177312500Y-65922500D03*
X177312500Y-64652500D03*
X177312500Y-63382500D03*
X177312500Y-62112500D03*
X177312500Y-60842500D03*
X177312500Y-59572500D03*
X177312500Y-58302500D03*
D22*
X165662500Y-67402500D03*
X168462500Y-64602500D03*
X167062500Y-67402500D03*
X167062500Y-64602500D03*
X165662500Y-66002500D03*
X168462500Y-67402500D03*
X167062500Y-66002500D03*
X165662500Y-64602500D03*
X168462500Y-66002500D03*
G04 #@! TD*
D23*
G04 #@! TO.C,C25*
X134317500Y-67812500D03*
X135277500Y-67812500D03*
G04 #@! TD*
D24*
G04 #@! TO.C,D2*
X135267500Y-66242500D03*
X136842500Y-66242500D03*
G04 #@! TD*
D25*
G04 #@! TO.C,C1*
X179237500Y-59507500D03*
X179237500Y-61057500D03*
G04 #@! TD*
D19*
G04 #@! TO.C,C4*
X173347500Y-137567500D03*
X173347500Y-136017500D03*
G04 #@! TD*
D26*
G04 #@! TO.C,D10*
X154002500Y-63802500D03*
X154002500Y-62227500D03*
G04 #@! TD*
D25*
G04 #@! TO.C,C5*
X180747500Y-59507500D03*
X180747500Y-61057500D03*
G04 #@! TD*
D26*
G04 #@! TO.C,D1*
X106907500Y-57695000D03*
X106907500Y-56120000D03*
G04 #@! TD*
D27*
G04 #@! TO.C,Q2*
X151652500Y-62982500D03*
X149752500Y-62982500D03*
X150702500Y-64982500D03*
G04 #@! TD*
D28*
G04 #@! TO.C,R15*
X119802500Y-75997500D03*
X119802500Y-77017500D03*
G04 #@! TD*
D29*
G04 #@! TO.C,Q5*
X117307500Y-77462500D03*
X117307500Y-75562500D03*
X115307500Y-76512500D03*
G04 #@! TD*
D30*
G04 #@! TO.C,R3*
X132857500Y-66247500D03*
X133877500Y-66247500D03*
G04 #@! TD*
G04 #@! TO.C,R7*
X157187500Y-64647500D03*
X158207500Y-64647500D03*
G04 #@! TD*
D10*
G04 #@! TO.C,R10*
X164107500Y-79417500D03*
X164107500Y-78397500D03*
G04 #@! TD*
G04 #@! TO.C,R14*
X168562500Y-79422500D03*
X168562500Y-78402500D03*
G04 #@! TD*
D31*
G04 #@! TO.C,Q4*
X118852500Y-81062500D03*
X120752500Y-81062500D03*
X119802500Y-79062500D03*
G04 #@! TD*
D30*
G04 #@! TO.C,R9*
X157187500Y-72277500D03*
X158207500Y-72277500D03*
G04 #@! TD*
D32*
G04 #@! TO.C,BZ1*
X150117500Y-140407500D03*
X142497500Y-140407500D03*
G04 #@! TD*
D33*
G04 #@! TO.C,U2*
X145737500Y-67717500D03*
X145737500Y-68217500D03*
X145737500Y-68717500D03*
X145737500Y-69217500D03*
X145737500Y-69717500D03*
X145737500Y-70217500D03*
X145737500Y-70717500D03*
D34*
X146687500Y-71667500D03*
X147187500Y-71667500D03*
X147687500Y-71667500D03*
X148187500Y-71667500D03*
X148687500Y-71667500D03*
X149187500Y-71667500D03*
X149687500Y-71667500D03*
D33*
X150637500Y-70717500D03*
X150637500Y-70217500D03*
X150637500Y-69717500D03*
X150637500Y-69217500D03*
X150637500Y-68717500D03*
X150637500Y-68217500D03*
X150637500Y-67717500D03*
D34*
X149687500Y-66767500D03*
X149187500Y-66767500D03*
X148687500Y-66767500D03*
X148187500Y-66767500D03*
X147687500Y-66767500D03*
X147187500Y-66767500D03*
X146687500Y-66767500D03*
D35*
X148187500Y-69217500D03*
G04 #@! TD*
D27*
G04 #@! TO.C,Q1*
X147627500Y-62987500D03*
X145727500Y-62987500D03*
X146677500Y-64987500D03*
G04 #@! TD*
D36*
G04 #@! TO.C,H1*
X100307500Y-53307500D03*
G04 #@! TD*
G04 #@! TO.C,H2*
X192307500Y-53307500D03*
G04 #@! TD*
D10*
G04 #@! TO.C,R2*
X106907500Y-60417500D03*
X106907500Y-59397500D03*
G04 #@! TD*
D36*
G04 #@! TO.C,H3*
X100307500Y-145307500D03*
G04 #@! TD*
D30*
G04 #@! TO.C,R8*
X157187500Y-65922500D03*
X158207500Y-65922500D03*
G04 #@! TD*
D36*
G04 #@! TO.C,H4*
X192307500Y-145307500D03*
G04 #@! TD*
D29*
G04 #@! TO.C,Q8*
X134862500Y-82582500D03*
X134862500Y-80682500D03*
X132862500Y-81632500D03*
G04 #@! TD*
D10*
G04 #@! TO.C,R12*
X165377500Y-79417500D03*
X165377500Y-78397500D03*
G04 #@! TD*
D37*
G04 #@! TO.C,R18*
X104782500Y-98047500D03*
X103762500Y-98047500D03*
G04 #@! TD*
D29*
G04 #@! TO.C,Q7*
X134867500Y-87012500D03*
X134867500Y-85112500D03*
X132867500Y-86062500D03*
G04 #@! TD*
D30*
G04 #@! TO.C,R4*
X157187500Y-62112500D03*
X158207500Y-62112500D03*
G04 #@! TD*
D37*
G04 #@! TO.C,R11*
X104777500Y-100592500D03*
X103757500Y-100592500D03*
G04 #@! TD*
D38*
G04 #@! TO.C,U1*
X131647500Y-70212500D03*
D39*
X137947500Y-72512500D03*
D38*
X131647500Y-72512500D03*
X131647500Y-74812500D03*
G04 #@! TD*
D40*
G04 #@! TO.C,J7*
X101207500Y-108207500D03*
D18*
X101207500Y-105667500D03*
X101207500Y-103127500D03*
X101207500Y-100587500D03*
X101207500Y-98047500D03*
X101207500Y-95507500D03*
X101207500Y-92967500D03*
X101207500Y-90427500D03*
G04 #@! TD*
D41*
G04 #@! TO.C,J8*
X131907500Y-55807500D03*
X126127500Y-55807500D03*
D42*
X132267500Y-57252500D03*
X131467500Y-57252500D03*
D43*
X130267500Y-57252500D03*
X129267500Y-57252500D03*
X128767500Y-57252500D03*
X127767500Y-57252500D03*
D42*
X126567500Y-57252500D03*
X125767500Y-57252500D03*
X125767500Y-57252500D03*
X126567500Y-57252500D03*
D43*
X127267500Y-57252500D03*
X128267500Y-57252500D03*
X129767500Y-57252500D03*
X130767500Y-57252500D03*
D42*
X131467500Y-57252500D03*
X132267500Y-57252500D03*
D44*
X133337500Y-52157500D03*
D45*
X124697500Y-56337500D03*
D44*
X124697500Y-52157500D03*
D45*
X133337500Y-56337500D03*
G04 #@! TD*
D40*
G04 #@! TO.C,J9*
X191307500Y-108207500D03*
D18*
X191307500Y-105667500D03*
X191307500Y-103127500D03*
X191307500Y-100587500D03*
G04 #@! TD*
D40*
G04 #@! TO.C,J10*
X191307500Y-96507500D03*
D18*
X191307500Y-93967500D03*
X191307500Y-91427500D03*
X191307500Y-88887500D03*
G04 #@! TD*
D46*
G04 #@! TO.C,BOOT1*
X98507500Y-62972500D03*
X104107500Y-62972500D03*
X104107500Y-66622500D03*
X98507500Y-66622500D03*
G04 #@! TD*
D47*
G04 #@! TO.C,D7*
X126557500Y-66937500D03*
X126557500Y-62937500D03*
G04 #@! TD*
D30*
G04 #@! TO.C,R6*
X157182500Y-63382500D03*
X158202500Y-63382500D03*
G04 #@! TD*
D26*
G04 #@! TO.C,D9*
X155902500Y-63802500D03*
X155902500Y-62227500D03*
G04 #@! TD*
D10*
G04 #@! TO.C,R21*
X112122500Y-60217500D03*
X112122500Y-59197500D03*
G04 #@! TD*
D25*
G04 #@! TO.C,C128*
X142707500Y-71182500D03*
X142707500Y-72732500D03*
G04 #@! TD*
G04 #@! TO.C,C27*
X156507500Y-58027500D03*
X156507500Y-59577500D03*
G04 #@! TD*
D37*
G04 #@! TO.C,R26*
X149472500Y-59192500D03*
X148452500Y-59192500D03*
G04 #@! TD*
D30*
G04 #@! TO.C,R34*
X116947500Y-115207500D03*
X117967500Y-115207500D03*
G04 #@! TD*
D48*
G04 #@! TO.C,C28*
X158272500Y-58612500D03*
X158272500Y-59572500D03*
G04 #@! TD*
D30*
G04 #@! TO.C,R33*
X145797500Y-129257500D03*
X146817500Y-129257500D03*
G04 #@! TD*
D46*
G04 #@! TO.C,RESET1*
X98507500Y-69972500D03*
X104107500Y-69972500D03*
X104107500Y-73622500D03*
X98507500Y-73622500D03*
G04 #@! TD*
D37*
G04 #@! TO.C,R29*
X178152500Y-84272500D03*
X177132500Y-84272500D03*
G04 #@! TD*
D30*
G04 #@! TO.C,R35*
X116957500Y-118157500D03*
X117977500Y-118157500D03*
G04 #@! TD*
D28*
G04 #@! TO.C,R31*
X153102500Y-65497500D03*
X153102500Y-66517500D03*
G04 #@! TD*
D37*
G04 #@! TO.C,R1*
X161127500Y-81807500D03*
X160107500Y-81807500D03*
G04 #@! TD*
D28*
G04 #@! TO.C,R24*
X155902500Y-65492500D03*
X155902500Y-66512500D03*
G04 #@! TD*
D41*
G04 #@! TO.C,J11*
X110982500Y-55807500D03*
X116762500Y-55807500D03*
D42*
X117122500Y-57252500D03*
X116322500Y-57252500D03*
D43*
X115122500Y-57252500D03*
X114122500Y-57252500D03*
X113622500Y-57252500D03*
X112622500Y-57252500D03*
D42*
X111422500Y-57252500D03*
X110622500Y-57252500D03*
X110622500Y-57252500D03*
X111422500Y-57252500D03*
D43*
X112122500Y-57252500D03*
X113122500Y-57252500D03*
X114622500Y-57252500D03*
X115622500Y-57252500D03*
D42*
X116322500Y-57252500D03*
X117122500Y-57252500D03*
D44*
X109552500Y-52157500D03*
D45*
X109552500Y-56337500D03*
D44*
X118192500Y-52157500D03*
D45*
X118192500Y-56337500D03*
G04 #@! TD*
D30*
G04 #@! TO.C,R36*
X116997500Y-120807500D03*
X118017500Y-120807500D03*
G04 #@! TD*
D19*
G04 #@! TO.C,C127*
X129157500Y-73332500D03*
X129157500Y-71782500D03*
G04 #@! TD*
D47*
G04 #@! TO.C,D8*
X116327500Y-66942500D03*
X116327500Y-62942500D03*
G04 #@! TD*
D48*
G04 #@! TO.C,C29*
X106057500Y-64347500D03*
X106057500Y-65307500D03*
G04 #@! TD*
D28*
G04 #@! TO.C,R23*
X154562500Y-65497500D03*
X154562500Y-66517500D03*
G04 #@! TD*
D30*
G04 #@! TO.C,R32*
X168052500Y-82172500D03*
X169072500Y-82172500D03*
G04 #@! TD*
D49*
G04 #@! TO.C,C23*
X105882500Y-108207500D03*
X107432500Y-108207500D03*
G04 #@! TD*
D28*
G04 #@! TO.C,R27*
X162842500Y-78397500D03*
X162842500Y-79417500D03*
G04 #@! TD*
G04 #@! TO.C,R30*
X161582500Y-78397500D03*
X161582500Y-79417500D03*
G04 #@! TD*
D40*
G04 #@! TO.C,J1*
X183492500Y-71742500D03*
D18*
X186032500Y-71742500D03*
X183492500Y-69202500D03*
X186032500Y-69202500D03*
X183492500Y-66662500D03*
X186032500Y-66662500D03*
X183492500Y-64122500D03*
X186032500Y-64122500D03*
X183492500Y-61582500D03*
X186032500Y-61582500D03*
X183492500Y-59042500D03*
X186032500Y-59042500D03*
G04 #@! TD*
D48*
G04 #@! TO.C,C26*
X106057500Y-71342500D03*
X106057500Y-72302500D03*
G04 #@! TD*
D49*
G04 #@! TO.C,C22*
X117282500Y-119457500D03*
X118832500Y-119457500D03*
G04 #@! TD*
D50*
G04 #@! TO.C,J12*
X177652500Y-79117500D03*
D18*
X177652500Y-81657500D03*
G04 #@! TD*
D30*
G04 #@! TO.C,R25*
X148452500Y-60362500D03*
X149472500Y-60362500D03*
G04 #@! TD*
D10*
G04 #@! TO.C,R22*
X147172500Y-74357500D03*
X147172500Y-73337500D03*
G04 #@! TD*
G04 #@! TO.C,R28*
X152812500Y-60207500D03*
X152812500Y-59187500D03*
G04 #@! TD*
G04 #@! TO.C,R20*
X115127500Y-60217500D03*
X115127500Y-59197500D03*
G04 #@! TD*
M02*
