G04 #@! TF.GenerationSoftware,KiCad,Pcbnew,6.0.2+dfsg-1*
G04 #@! TF.CreationDate,2023-02-17T06:09:52+01:00*
G04 #@! TF.ProjectId,procesor,70726f63-6573-46f7-922e-6b696361645f,rev?*
G04 #@! TF.SameCoordinates,Original*
G04 #@! TF.FileFunction,Soldermask,Bot*
G04 #@! TF.FilePolarity,Negative*
%FSLAX46Y46*%
G04 Gerber Fmt 4.6, Leading zero omitted, Abs format (unit mm)*
G04 Created by KiCad (PCBNEW 6.0.2+dfsg-1) date 2023-02-17 06:09:52*
%MOMM*%
%LPD*%
G01*
G04 APERTURE LIST*
G04 Aperture macros list*
%AMRoundRect*
0 Rectangle with rounded corners*
0 $1 Rounding radius*
0 $2 $3 $4 $5 $6 $7 $8 $9 X,Y pos of 4 corners*
0 Add a 4 corners polygon primitive as box body*
4,1,4,$2,$3,$4,$5,$6,$7,$8,$9,$2,$3,0*
0 Add four circle primitives for the rounded corners*
1,1,$1+$1,$2,$3*
1,1,$1+$1,$4,$5*
1,1,$1+$1,$6,$7*
1,1,$1+$1,$8,$9*
0 Add four rect primitives between the rounded corners*
20,1,$1+$1,$2,$3,$4,$5,0*
20,1,$1+$1,$4,$5,$6,$7,0*
20,1,$1+$1,$6,$7,$8,$9,0*
20,1,$1+$1,$8,$9,$2,$3,0*%
G04 Aperture macros list end*
%ADD10RoundRect,0.050000X0.850000X-0.850000X0.850000X0.850000X-0.850000X0.850000X-0.850000X-0.850000X0*%
%ADD11O,1.800000X1.800000*%
%ADD12C,2.100000*%
%ADD13C,5.700000*%
%ADD14RoundRect,0.050000X0.850000X0.850000X-0.850000X0.850000X-0.850000X-0.850000X0.850000X-0.850000X0*%
%ADD15C,0.750000*%
%ADD16O,1.100000X1.700000*%
%ADD17O,1.100000X2.200000*%
%ADD18RoundRect,0.050000X-0.850000X-0.850000X0.850000X-0.850000X0.850000X0.850000X-0.850000X0.850000X0*%
G04 APERTURE END LIST*
D10*
G04 #@! TO.C,J3*
X157992500Y-138977500D03*
D11*
X160532500Y-138977500D03*
X163072500Y-138977500D03*
X165612500Y-138977500D03*
X168152500Y-138977500D03*
X170692500Y-138977500D03*
G04 #@! TD*
D12*
G04 #@! TO.C,BZ1*
X150117500Y-140407500D03*
X142497500Y-140407500D03*
G04 #@! TD*
D13*
G04 #@! TO.C,H1*
X100307500Y-53307500D03*
G04 #@! TD*
G04 #@! TO.C,H2*
X192307500Y-53307500D03*
G04 #@! TD*
G04 #@! TO.C,H3*
X100307500Y-145307500D03*
G04 #@! TD*
G04 #@! TO.C,H4*
X192307500Y-145307500D03*
G04 #@! TD*
D14*
G04 #@! TO.C,J7*
X101207500Y-108207500D03*
D11*
X101207500Y-105667500D03*
X101207500Y-103127500D03*
X101207500Y-100587500D03*
X101207500Y-98047500D03*
X101207500Y-95507500D03*
X101207500Y-92967500D03*
X101207500Y-90427500D03*
G04 #@! TD*
D15*
G04 #@! TO.C,J8*
X131907500Y-55807500D03*
X126127500Y-55807500D03*
D16*
X133337500Y-52157500D03*
D17*
X124697500Y-56337500D03*
D16*
X124697500Y-52157500D03*
D17*
X133337500Y-56337500D03*
G04 #@! TD*
D14*
G04 #@! TO.C,J9*
X191307500Y-108207500D03*
D11*
X191307500Y-105667500D03*
X191307500Y-103127500D03*
X191307500Y-100587500D03*
G04 #@! TD*
D14*
G04 #@! TO.C,J10*
X191307500Y-96507500D03*
D11*
X191307500Y-93967500D03*
X191307500Y-91427500D03*
X191307500Y-88887500D03*
G04 #@! TD*
D15*
G04 #@! TO.C,J11*
X110982500Y-55807500D03*
X116762500Y-55807500D03*
D16*
X109552500Y-52157500D03*
D17*
X109552500Y-56337500D03*
D16*
X118192500Y-52157500D03*
D17*
X118192500Y-56337500D03*
G04 #@! TD*
D14*
G04 #@! TO.C,J1*
X183492500Y-71742500D03*
D11*
X186032500Y-71742500D03*
X183492500Y-69202500D03*
X186032500Y-69202500D03*
X183492500Y-66662500D03*
X186032500Y-66662500D03*
X183492500Y-64122500D03*
X186032500Y-64122500D03*
X183492500Y-61582500D03*
X186032500Y-61582500D03*
X183492500Y-59042500D03*
X186032500Y-59042500D03*
G04 #@! TD*
D18*
G04 #@! TO.C,J12*
X177652500Y-79117500D03*
D11*
X177652500Y-81657500D03*
G04 #@! TD*
M02*
