G04 #@! TF.GenerationSoftware,KiCad,Pcbnew,6.0.2+dfsg-1*
G04 #@! TF.CreationDate,2023-02-17T06:09:51+01:00*
G04 #@! TF.ProjectId,procesor,70726f63-6573-46f7-922e-6b696361645f,rev?*
G04 #@! TF.SameCoordinates,Original*
G04 #@! TF.FileFunction,Copper,L2,Bot*
G04 #@! TF.FilePolarity,Positive*
%FSLAX46Y46*%
G04 Gerber Fmt 4.6, Leading zero omitted, Abs format (unit mm)*
G04 Created by KiCad (PCBNEW 6.0.2+dfsg-1) date 2023-02-17 06:09:51*
%MOMM*%
%LPD*%
G01*
G04 APERTURE LIST*
G04 #@! TA.AperFunction,ComponentPad*
%ADD10R,1.700000X1.700000*%
G04 #@! TD*
G04 #@! TA.AperFunction,ComponentPad*
%ADD11O,1.700000X1.700000*%
G04 #@! TD*
G04 #@! TA.AperFunction,ComponentPad*
%ADD12C,2.000000*%
G04 #@! TD*
G04 #@! TA.AperFunction,ComponentPad*
%ADD13C,5.600000*%
G04 #@! TD*
G04 #@! TA.AperFunction,ComponentPad*
%ADD14O,1.000000X1.600000*%
G04 #@! TD*
G04 #@! TA.AperFunction,ComponentPad*
%ADD15O,1.000000X2.100000*%
G04 #@! TD*
G04 #@! TA.AperFunction,ViaPad*
%ADD16C,0.800000*%
G04 #@! TD*
G04 #@! TA.AperFunction,Conductor*
%ADD17C,2.000000*%
G04 #@! TD*
G04 #@! TA.AperFunction,Conductor*
%ADD18C,0.800000*%
G04 #@! TD*
G04 #@! TA.AperFunction,Conductor*
%ADD19C,0.300000*%
G04 #@! TD*
G04 #@! TA.AperFunction,Conductor*
%ADD20C,0.400000*%
G04 #@! TD*
G04 #@! TA.AperFunction,Conductor*
%ADD21C,0.200000*%
G04 #@! TD*
G04 APERTURE END LIST*
D10*
G04 #@! TO.P,J3,1,Pin_1*
G04 #@! TO.N,/elektronika.sch/IO35*
X157992500Y-138977500D03*
D11*
G04 #@! TO.P,J3,2,Pin_2*
G04 #@! TO.N,/elektronika.sch/IO36*
X160532500Y-138977500D03*
G04 #@! TO.P,J3,3,Pin_3*
G04 #@! TO.N,/elektronika.sch/IO37*
X163072500Y-138977500D03*
G04 #@! TO.P,J3,4,Pin_4*
G04 #@! TO.N,/elektronika.sch/IO38*
X165612500Y-138977500D03*
G04 #@! TO.P,J3,5,Pin_5*
G04 #@! TO.N,/elektronika.sch/GND*
X168152500Y-138977500D03*
G04 #@! TO.P,J3,6,Pin_6*
G04 #@! TO.N,/elektronika.sch/5V*
X170692500Y-138977500D03*
G04 #@! TD*
D12*
G04 #@! TO.P,BZ1,1,-*
G04 #@! TO.N,/elektronika.sch/5V*
X150117500Y-140407500D03*
G04 #@! TO.P,BZ1,2,+*
G04 #@! TO.N,Net-(BZ1-Pad2)*
X142497500Y-140407500D03*
G04 #@! TD*
D13*
G04 #@! TO.P,H1,1*
G04 #@! TO.N,N/C*
X100307500Y-53307500D03*
G04 #@! TD*
G04 #@! TO.P,H2,1*
G04 #@! TO.N,N/C*
X192307500Y-53307500D03*
G04 #@! TD*
G04 #@! TO.P,H3,1*
G04 #@! TO.N,N/C*
X100307500Y-145307500D03*
G04 #@! TD*
G04 #@! TO.P,H4,1*
G04 #@! TO.N,N/C*
X192307500Y-145307500D03*
G04 #@! TD*
D10*
G04 #@! TO.P,J7,1,Pin_1*
G04 #@! TO.N,/elektronika.sch/3V3*
X101207500Y-108207500D03*
D11*
G04 #@! TO.P,J7,2,Pin_2*
G04 #@! TO.N,/elektronika.sch/SW_7*
X101207500Y-105667500D03*
G04 #@! TO.P,J7,3,Pin_3*
G04 #@! TO.N,/elektronika.sch/GND*
X101207500Y-103127500D03*
G04 #@! TO.P,J7,4,Pin_4*
G04 #@! TO.N,/elektronika.sch/DATA_ZADANI_LED*
X101207500Y-100587500D03*
G04 #@! TO.P,J7,5,Pin_5*
G04 #@! TO.N,/elektronika.sch/DATA_HERNI_LED*
X101207500Y-98047500D03*
G04 #@! TO.P,J7,6,Pin_6*
G04 #@! TO.N,/elektronika.sch/V_LED*
X101207500Y-95507500D03*
G04 #@! TO.P,J7,7,Pin_7*
G04 #@! TO.N,/elektronika.sch/SENZOR_SVETLA*
X101207500Y-92967500D03*
G04 #@! TO.P,J7,8,Pin_8*
G04 #@! TO.N,/elektronika.sch/SW_12*
X101207500Y-90427500D03*
G04 #@! TD*
D14*
G04 #@! TO.P,J8,S1,SHIELD*
G04 #@! TO.N,N/C*
X133337500Y-52157500D03*
D15*
X124697500Y-56337500D03*
D14*
X124697500Y-52157500D03*
D15*
X133337500Y-56337500D03*
G04 #@! TD*
D10*
G04 #@! TO.P,J9,1,Pin_1*
G04 #@! TO.N,/elektronika.sch/SW_5*
X191307500Y-108207500D03*
D11*
G04 #@! TO.P,J9,2,Pin_2*
G04 #@! TO.N,/elektronika.sch/SW_9*
X191307500Y-105667500D03*
G04 #@! TO.P,J9,3,Pin_3*
G04 #@! TO.N,/elektronika.sch/SW_10*
X191307500Y-103127500D03*
G04 #@! TO.P,J9,4,Pin_4*
G04 #@! TO.N,/elektronika.sch/SW_4*
X191307500Y-100587500D03*
G04 #@! TD*
D10*
G04 #@! TO.P,J10,1,Pin_1*
G04 #@! TO.N,/elektronika.sch/SW_11*
X191307500Y-96507500D03*
D11*
G04 #@! TO.P,J10,2,Pin_2*
G04 #@! TO.N,/elektronika.sch/SW_8*
X191307500Y-93967500D03*
G04 #@! TO.P,J10,3,Pin_3*
G04 #@! TO.N,/elektronika.sch/SW_3*
X191307500Y-91427500D03*
G04 #@! TO.P,J10,4,Pin_4*
G04 #@! TO.N,/elektronika.sch/SW_2*
X191307500Y-88887500D03*
G04 #@! TD*
D14*
G04 #@! TO.P,J11,S1,SHIELD*
G04 #@! TO.N,N/C*
X109552500Y-52157500D03*
D15*
X109552500Y-56337500D03*
D14*
X118192500Y-52157500D03*
D15*
X118192500Y-56337500D03*
G04 #@! TD*
D10*
G04 #@! TO.P,J1,1,Pin_1*
G04 #@! TO.N,/elektronika.sch/IO39*
X183492500Y-71742500D03*
D11*
G04 #@! TO.P,J1,2,Pin_2*
G04 #@! TO.N,/elektronika.sch/IO18*
X186032500Y-71742500D03*
G04 #@! TO.P,J1,3,Pin_3*
G04 #@! TO.N,/elektronika.sch/IO40*
X183492500Y-69202500D03*
G04 #@! TO.P,J1,4,Pin_4*
G04 #@! TO.N,/elektronika.sch/IO17*
X186032500Y-69202500D03*
G04 #@! TO.P,J1,5,Pin_5*
G04 #@! TO.N,/elektronika.sch/IO41*
X183492500Y-66662500D03*
G04 #@! TO.P,J1,6,Pin_6*
G04 #@! TO.N,/elektronika.sch/IO16*
X186032500Y-66662500D03*
G04 #@! TO.P,J1,7,Pin_7*
G04 #@! TO.N,/elektronika.sch/IO42*
X183492500Y-64122500D03*
G04 #@! TO.P,J1,8,Pin_8*
G04 #@! TO.N,/elektronika.sch/IO15*
X186032500Y-64122500D03*
G04 #@! TO.P,J1,9,Pin_9*
G04 #@! TO.N,/elektronika.sch/GND*
X183492500Y-61582500D03*
G04 #@! TO.P,J1,10,Pin_10*
X186032500Y-61582500D03*
G04 #@! TO.P,J1,11,Pin_11*
G04 #@! TO.N,/elektronika.sch/5V*
X183492500Y-59042500D03*
G04 #@! TO.P,J1,12,Pin_12*
X186032500Y-59042500D03*
G04 #@! TD*
D10*
G04 #@! TO.P,J12,1,Pin_1*
G04 #@! TO.N,/elektronika.sch/ESP+programing/IO48*
X177652500Y-79117500D03*
D11*
G04 #@! TO.P,J12,2,Pin_2*
G04 #@! TO.N,/elektronika.sch/GND*
X177652500Y-81657500D03*
G04 #@! TD*
D16*
G04 #@! TO.N,/elektronika.sch/5V*
X121097500Y-67402500D03*
X123107500Y-67407500D03*
X114012500Y-66942500D03*
X123107500Y-66407500D03*
X122107500Y-67407500D03*
X122107500Y-66407500D03*
X145707500Y-71707500D03*
X121097500Y-66402500D03*
X106907500Y-54817500D03*
X129107500Y-74807500D03*
G04 #@! TO.N,/elektronika.sch/GND*
X144307500Y-65307500D03*
X112827500Y-60912500D03*
X184917500Y-133217500D03*
X174557500Y-72657500D03*
X120397500Y-82847500D03*
X167767500Y-66702500D03*
X129847500Y-69707500D03*
X121157500Y-117307500D03*
X122157500Y-116307500D03*
X120397500Y-83847500D03*
X114432500Y-60912500D03*
X160407500Y-78912500D03*
X129572500Y-60907500D03*
X133432500Y-69707500D03*
X166362500Y-65302500D03*
X125237500Y-59207500D03*
X184932500Y-103292500D03*
X168157500Y-90057500D03*
X161807500Y-86407500D03*
X173557500Y-72657500D03*
X184887500Y-74202500D03*
X175307500Y-142507500D03*
X122157500Y-110857500D03*
X184932500Y-101892500D03*
X183527500Y-133212500D03*
X173557500Y-71657500D03*
X110107500Y-59207500D03*
X174307500Y-142507500D03*
X184917500Y-131817500D03*
X169157500Y-65307500D03*
X142307500Y-74307500D03*
X143307500Y-66307500D03*
X133432500Y-70707500D03*
X143307500Y-65307500D03*
X121157500Y-110857500D03*
X132837500Y-59207500D03*
X183537500Y-101887500D03*
X168152500Y-88657500D03*
X122157500Y-117307500D03*
X128847500Y-69707500D03*
X122157500Y-111857500D03*
X183497500Y-75597500D03*
X183542500Y-103287500D03*
X128852500Y-68697500D03*
X169547500Y-90062500D03*
X121157500Y-111857500D03*
X169547500Y-88662500D03*
X141307500Y-74307500D03*
X119397500Y-83847500D03*
X128847500Y-70707500D03*
X174307500Y-143507500D03*
X183492500Y-74197500D03*
X117607500Y-59207500D03*
X129847500Y-70707500D03*
X129852500Y-68697500D03*
X160407500Y-86407500D03*
X174557500Y-71657500D03*
X183522500Y-131812500D03*
X167762500Y-65302500D03*
X119397500Y-82847500D03*
X169157500Y-66707500D03*
X133432500Y-68707500D03*
X121157500Y-116307500D03*
X159007500Y-86407500D03*
X184887500Y-75602500D03*
X127967500Y-60907500D03*
X175307500Y-143507500D03*
X141307500Y-73307500D03*
G04 #@! TO.N,/elektronika.sch/DATA_HERNI_LED*
X109527500Y-98047500D03*
G04 #@! TO.N,/elektronika.sch/DATA_ZADANI_LED*
X108787500Y-100587500D03*
G04 #@! TO.N,/elektronika.sch/SENZOR_SVETLA*
X111947500Y-100602500D03*
X156072500Y-87537500D03*
X173707500Y-61807500D03*
G04 #@! TO.N,/elektronika.sch/SW_7*
X157592500Y-87567500D03*
X158952500Y-81807500D03*
X172892500Y-62622500D03*
X108807500Y-105667500D03*
G04 #@! TO.N,/elektronika.sch/SW_10*
X164117500Y-77497500D03*
G04 #@! TO.N,/elektronika.sch/SW_9*
X170472500Y-79962500D03*
G04 #@! TO.N,/elektronika.sch/SW_11*
X165812500Y-71552500D03*
G04 #@! TO.N,/elektronika.sch/SW_8*
X162932500Y-67512500D03*
G04 #@! TO.N,/elektronika.sch/SW_3*
X164192500Y-67517500D03*
G04 #@! TO.N,/elektronika.sch/SW_4*
X165362500Y-77502500D03*
G04 #@! TO.N,/elektronika.sch/IO15*
X175562500Y-67297500D03*
G04 #@! TO.N,/elektronika.sch/IO16*
X175557500Y-68617500D03*
G04 #@! TO.N,/elektronika.sch/IO17*
X175567500Y-69732500D03*
G04 #@! TO.N,/elektronika.sch/IO18*
X175562500Y-70997500D03*
G04 #@! TO.N,/elektronika.sch/ESP+programing/D+*
X154687114Y-74294905D03*
X137312500Y-64307500D03*
G04 #@! TO.N,/elektronika.sch/ESP+programing/D-*
X155327500Y-73527500D03*
X136057500Y-64322500D03*
G04 #@! TO.N,/elektronika.sch/ZAPINANI_1_CAST_LED*
X146847502Y-61268874D03*
X145727500Y-66482500D03*
X132822500Y-77322500D03*
X146807500Y-58407500D03*
X162212500Y-72027500D03*
G04 #@! TO.N,/elektronika.sch/PIEZO*
X170467500Y-81092500D03*
X165492500Y-84257500D03*
G04 #@! TO.N,/elektronika.sch/DATA_ZADANI_LED_LS*
X162842500Y-84117500D03*
X162847500Y-77497500D03*
G04 #@! TO.N,/elektronika.sch/ESP+programing/TX_ESP*
X149812500Y-61357500D03*
X175132500Y-62112500D03*
G04 #@! TO.N,/elektronika.sch/ESP+programing/RX_ESP*
X148807500Y-61357500D03*
X175912500Y-63382500D03*
G04 #@! TO.N,/elektronika.sch/SW_2*
X164197500Y-66252500D03*
G04 #@! TO.N,/elektronika.sch/EN*
X125172500Y-84052500D03*
X152542500Y-61852500D03*
X113647500Y-75317500D03*
X163317500Y-61807500D03*
X154932500Y-84082500D03*
G04 #@! TO.N,/elektronika.sch/SW_5*
X164217500Y-64972500D03*
G04 #@! TO.N,/elektronika.sch/ESP+programing/IO03-PD*
X145857500Y-91307500D03*
X157407500Y-76357500D03*
G04 #@! TO.N,/elektronika.sch/SW_12*
X153817500Y-88387500D03*
X120597500Y-90442500D03*
X170472500Y-82172500D03*
G04 #@! TO.N,/elektronika.sch/ESP+programing/IO11*
X161602500Y-74527500D03*
X144557500Y-91307500D03*
G04 #@! TO.N,/elektronika.sch/ESP+programing/IO12*
X162212500Y-73702500D03*
X143307500Y-91307500D03*
G04 #@! TO.N,/elektronika.sch/ESP+programing/IO13*
X161607500Y-72877500D03*
X142057500Y-91307500D03*
G04 #@! TD*
D17*
G04 #@! TO.N,/elektronika.sch/5V*
X186032500Y-59042500D02*
X183492500Y-59042500D01*
D18*
X170692500Y-138977500D02*
X169242500Y-140427500D01*
D17*
X194317500Y-64732500D02*
X188627500Y-59042500D01*
X141632500Y-56307500D02*
X131002500Y-66937500D01*
X152027500Y-59042500D02*
X149292500Y-56307500D01*
D19*
X129607500Y-75307500D02*
X129107500Y-74807500D01*
X145707500Y-72907500D02*
X143307500Y-75307500D01*
X145707500Y-71707500D02*
X145707500Y-72907500D01*
X114012500Y-66942500D02*
X106907500Y-59837500D01*
D17*
X194317500Y-115352500D02*
X194317500Y-64732500D01*
D18*
X169242500Y-140427500D02*
X150137500Y-140427500D01*
D17*
X183492500Y-59042500D02*
X152027500Y-59042500D01*
X131002500Y-66937500D02*
X120557500Y-66937500D01*
X170692500Y-138977500D02*
X194317500Y-115352500D01*
D18*
X150137500Y-140427500D02*
X150117500Y-140407500D01*
D17*
X188627500Y-59042500D02*
X186032500Y-59042500D01*
X149292500Y-56307500D02*
X141632500Y-56307500D01*
D19*
X143307500Y-75307500D02*
X129607500Y-75307500D01*
X106907500Y-59837500D02*
X106907500Y-54817500D01*
D20*
G04 #@! TO.N,/elektronika.sch/DATA_HERNI_LED*
X109527500Y-98047500D02*
X101207500Y-98047500D01*
G04 #@! TO.N,/elektronika.sch/DATA_ZADANI_LED*
X101207500Y-100587500D02*
X108787500Y-100587500D01*
G04 #@! TO.N,/elektronika.sch/SENZOR_SVETLA*
X161442500Y-65332500D02*
X161442500Y-68296028D01*
X164967500Y-61807500D02*
X161442500Y-65332500D01*
X162298972Y-76092500D02*
X159777500Y-76092500D01*
X156072500Y-79797500D02*
X156072500Y-87537500D01*
X161442500Y-68296028D02*
X163717500Y-70571028D01*
X106452500Y-92967500D02*
X101207500Y-92967500D01*
X111947500Y-100602500D02*
X111947500Y-98462500D01*
X163717500Y-70571028D02*
X163717500Y-74673972D01*
X173707500Y-61807500D02*
X164967500Y-61807500D01*
X159777500Y-76092500D02*
X156072500Y-79797500D01*
X163717500Y-74673972D02*
X162298972Y-76092500D01*
X111947500Y-98462500D02*
X106452500Y-92967500D01*
G04 #@! TO.N,/elektronika.sch/SW_7*
X157687500Y-81807500D02*
X157587500Y-81907500D01*
X157587500Y-87562500D02*
X157587500Y-81907500D01*
X157587500Y-79227500D02*
X157587500Y-81907500D01*
X157592500Y-87567500D02*
X157587500Y-87562500D01*
X164557500Y-63147500D02*
X162042500Y-65662500D01*
X162042500Y-68047500D02*
X164317500Y-70322500D01*
X172892500Y-62622500D02*
X172367500Y-63147500D01*
X101207500Y-105667500D02*
X108807500Y-105667500D01*
X164317500Y-70322500D02*
X164317500Y-74922500D01*
X162042500Y-65662500D02*
X162042500Y-68047500D01*
X172367500Y-63147500D02*
X164557500Y-63147500D01*
X162547500Y-76692500D02*
X160122500Y-76692500D01*
X160122500Y-76692500D02*
X157587500Y-79227500D01*
X164317500Y-74922500D02*
X162547500Y-76692500D01*
X158952500Y-81807500D02*
X157687500Y-81807500D01*
G04 #@! TO.N,/elektronika.sch/SW_10*
X191307500Y-103127500D02*
X189902500Y-103127500D01*
X165007500Y-78387500D02*
X164117500Y-77497500D01*
X171937500Y-79932500D02*
X170392500Y-78387500D01*
X171937500Y-85162500D02*
X171937500Y-79932500D01*
X189902500Y-103127500D02*
X171937500Y-85162500D01*
X170392500Y-78387500D02*
X165007500Y-78387500D01*
G04 #@! TO.N,/elektronika.sch/SW_9*
X171297500Y-85657500D02*
X191307500Y-105667500D01*
X171297500Y-80787500D02*
X171297500Y-85657500D01*
X170472500Y-79962500D02*
X171297500Y-80787500D01*
G04 #@! TO.N,/elektronika.sch/SW_11*
X165812500Y-71552500D02*
X173357500Y-79097500D01*
X173357500Y-84367500D02*
X185497500Y-96507500D01*
X173357500Y-79097500D02*
X173357500Y-84367500D01*
X185497500Y-96507500D02*
X191307500Y-96507500D01*
G04 #@! TO.N,/elektronika.sch/SW_8*
X191307500Y-93967500D02*
X186987500Y-93967500D01*
X174092500Y-78672500D02*
X174092500Y-83977500D01*
X174092500Y-83977500D02*
X184082500Y-93967500D01*
X162932500Y-67512500D02*
X174092500Y-78672500D01*
X184082500Y-93967500D02*
X186987500Y-93967500D01*
X186987500Y-93967500D02*
X186289073Y-93967500D01*
G04 #@! TO.N,/elektronika.sch/SW_3*
X174787500Y-78112500D02*
X174787500Y-83497500D01*
X164192500Y-67517500D02*
X174787500Y-78112500D01*
X182717500Y-91427500D02*
X191307500Y-91427500D01*
X174787500Y-83497500D02*
X182717500Y-91427500D01*
G04 #@! TO.N,/elektronika.sch/SW_4*
X165362500Y-77502500D02*
X170652500Y-77502500D01*
X170652500Y-77502500D02*
X172632500Y-79482500D01*
X188462500Y-100587500D02*
X191307500Y-100587500D01*
X172632500Y-79482500D02*
X172632500Y-84757500D01*
X172632500Y-84757500D02*
X188462500Y-100587500D01*
G04 #@! TO.N,/elektronika.sch/IO15*
X184762500Y-62852500D02*
X186032500Y-64122500D01*
X178544733Y-67302500D02*
X182994733Y-62852500D01*
X175567500Y-67302500D02*
X175562500Y-67297500D01*
X182994733Y-62852500D02*
X184762500Y-62852500D01*
X175562500Y-67297500D02*
X177799733Y-67297500D01*
X178544733Y-67302500D02*
X175567500Y-67302500D01*
G04 #@! TO.N,/elektronika.sch/IO16*
X184762500Y-65392500D02*
X186032500Y-66662500D01*
X181772500Y-65392500D02*
X184762500Y-65392500D01*
X175557500Y-68617500D02*
X178537500Y-68617500D01*
X178542500Y-68622500D02*
X181772500Y-65392500D01*
X178537500Y-68617500D02*
X178542500Y-68622500D01*
G04 #@! TO.N,/elektronika.sch/IO17*
X178567500Y-69732500D02*
X175567500Y-69732500D01*
X186032500Y-69202500D02*
X184762500Y-67932500D01*
X184762500Y-67932500D02*
X180367500Y-67932500D01*
X180367500Y-67932500D02*
X178567500Y-69732500D01*
G04 #@! TO.N,/elektronika.sch/IO18*
X178552500Y-70997500D02*
X179082500Y-70467500D01*
X179082500Y-70467500D02*
X184757500Y-70467500D01*
X175562500Y-70997500D02*
X178552500Y-70997500D01*
X184757500Y-70467500D02*
X186032500Y-71742500D01*
D19*
G04 #@! TO.N,/elektronika.sch/ESP+programing/D+*
X144694709Y-64302500D02*
X137317500Y-64302500D01*
X154687114Y-74294905D02*
X144694709Y-64302500D01*
X137317500Y-64302500D02*
X137312500Y-64307500D01*
G04 #@! TO.N,/elektronika.sch/ESP+programing/D-*
X136877500Y-63502500D02*
X145302500Y-63502500D01*
X136877500Y-63502500D02*
X136057500Y-64322500D01*
X145302500Y-63502500D02*
X145462500Y-63662500D01*
X145462500Y-63662500D02*
X155327500Y-73527500D01*
D20*
G04 #@! TO.N,/elektronika.sch/ZAPINANI_1_CAST_LED*
X146807500Y-58407500D02*
X146807500Y-61228872D01*
X148302500Y-73282500D02*
X144262500Y-77322500D01*
X146807500Y-61228872D02*
X157606129Y-72027500D01*
X148302500Y-72592500D02*
X148302500Y-73282500D01*
X145727500Y-66482500D02*
X145812500Y-66482500D01*
X157606129Y-72027500D02*
X162212500Y-72027500D01*
X145812500Y-66482500D02*
X148302500Y-68972500D01*
X148302500Y-68972500D02*
X148302500Y-72592500D01*
X144262500Y-77322500D02*
X132822500Y-77322500D01*
G04 #@! TO.N,/elektronika.sch/PIEZO*
X168657500Y-81092500D02*
X165492500Y-84257500D01*
X170467500Y-81092500D02*
X168657500Y-81092500D01*
G04 #@! TO.N,/elektronika.sch/DATA_ZADANI_LED_LS*
X162842500Y-84117500D02*
X162847500Y-84112500D01*
X162847500Y-84112500D02*
X162847500Y-77497500D01*
D21*
G04 #@! TO.N,/elektronika.sch/ESP+programing/TX_ESP*
X175132500Y-62112500D02*
X173837500Y-60817500D01*
X173837500Y-60817500D02*
X150352500Y-60817500D01*
X150352500Y-60817500D02*
X149812500Y-61357500D01*
G04 #@! TO.N,/elektronika.sch/ESP+programing/RX_ESP*
X175912500Y-63382500D02*
X175912500Y-61782500D01*
X175912500Y-61782500D02*
X174472500Y-60342500D01*
X174472500Y-60342500D02*
X149822500Y-60342500D01*
X149822500Y-60342500D02*
X148807500Y-61357500D01*
D20*
G04 #@! TO.N,/elektronika.sch/SW_2*
X175472500Y-77527500D02*
X175472500Y-83049860D01*
X164197500Y-66252500D02*
X175472500Y-77527500D01*
X175472500Y-83049860D02*
X181310140Y-88887500D01*
X181310140Y-88887500D02*
X191307500Y-88887500D01*
D21*
G04 #@! TO.N,/elektronika.sch/EN*
X155957500Y-61312500D02*
X155963263Y-61306737D01*
D20*
X163317500Y-62608972D02*
X160842500Y-65083972D01*
X116437500Y-75317500D02*
X113647500Y-75317500D01*
X163117500Y-70937500D02*
X163117500Y-74425444D01*
X163117500Y-74425444D02*
X162050444Y-75492500D01*
X160842500Y-68662500D02*
X163117500Y-70937500D01*
X163317500Y-61807500D02*
X163317500Y-62608972D01*
X162050444Y-75492500D02*
X159528972Y-75492500D01*
X154932500Y-80088972D02*
X154932500Y-84082500D01*
X160842500Y-65083972D02*
X160842500Y-68662500D01*
D21*
X153077500Y-61317500D02*
X156702500Y-61317500D01*
X155963263Y-61306737D02*
X162816737Y-61306737D01*
X152542500Y-61852500D02*
X153077500Y-61317500D01*
D20*
X125172500Y-84052500D02*
X116437500Y-75317500D01*
D21*
X162816737Y-61306737D02*
X163317500Y-61807500D01*
D20*
X159528972Y-75492500D02*
X154932500Y-80088972D01*
G04 #@! TO.N,/elektronika.sch/SW_5*
X176182500Y-82911332D02*
X180888668Y-87617500D01*
X191805267Y-87617500D02*
X192557500Y-88369733D01*
X192557500Y-106957500D02*
X191307500Y-108207500D01*
X192557500Y-88369733D02*
X192557500Y-106957500D01*
X176182500Y-76937500D02*
X176182500Y-82911332D01*
X180888668Y-87617500D02*
X191805267Y-87617500D01*
X164217500Y-64972500D02*
X176182500Y-76937500D01*
G04 #@! TO.N,/elektronika.sch/ESP+programing/IO03-PD*
X157407500Y-76357500D02*
X145857500Y-87907500D01*
X145857500Y-87907500D02*
X145857500Y-91307500D01*
G04 #@! TO.N,/elektronika.sch/SW_12*
X120582500Y-90427500D02*
X101207500Y-90427500D01*
X120597500Y-90442500D02*
X120582500Y-90427500D01*
X170472500Y-82172500D02*
X164257500Y-88387500D01*
X164257500Y-88387500D02*
X153817500Y-88387500D01*
G04 #@! TO.N,/elektronika.sch/ESP+programing/IO11*
X144557500Y-87907500D02*
X157937500Y-74527500D01*
X157937500Y-74527500D02*
X161602500Y-74527500D01*
X144557500Y-91307500D02*
X144557500Y-87907500D01*
G04 #@! TO.N,/elektronika.sch/ESP+programing/IO12*
X157762500Y-73702500D02*
X162212500Y-73702500D01*
X143307500Y-88157500D02*
X157762500Y-73702500D01*
X143307500Y-91307500D02*
X143307500Y-88157500D01*
G04 #@! TO.N,/elektronika.sch/ESP+programing/IO13*
X157537500Y-72877500D02*
X161607500Y-72877500D01*
X142057500Y-88357500D02*
X157537500Y-72877500D01*
X142057500Y-91307500D02*
X142057500Y-88357500D01*
G04 #@! TD*
G04 #@! TA.AperFunction,Conductor*
G04 #@! TO.N,/elektronika.sch/GND*
G36*
X149249621Y-49578002D02*
G01*
X149296114Y-49631658D01*
X149307500Y-49684000D01*
X149307500Y-54931000D01*
X149287498Y-54999121D01*
X149233842Y-55045614D01*
X149181500Y-55057000D01*
X141723362Y-55057000D01*
X141706915Y-55055922D01*
X141690647Y-55053780D01*
X141690645Y-55053780D01*
X141685078Y-55053047D01*
X141609072Y-55056632D01*
X141604229Y-55056860D01*
X141598293Y-55057000D01*
X141575870Y-55057000D01*
X141556983Y-55058685D01*
X141550048Y-55059304D01*
X141544787Y-55059663D01*
X141462102Y-55063563D01*
X141456639Y-55064814D01*
X141456633Y-55064815D01*
X141444789Y-55067528D01*
X141427855Y-55070210D01*
X141410161Y-55071789D01*
X141404745Y-55073271D01*
X141404743Y-55073271D01*
X141330319Y-55093631D01*
X141325201Y-55094917D01*
X141249979Y-55112145D01*
X141249978Y-55112145D01*
X141244513Y-55113397D01*
X141239359Y-55115595D01*
X141239348Y-55115599D01*
X141228174Y-55120366D01*
X141211984Y-55126005D01*
X141194849Y-55130692D01*
X141120123Y-55166335D01*
X141115343Y-55168493D01*
X141107869Y-55171681D01*
X141039187Y-55200976D01*
X141024329Y-55210736D01*
X141009409Y-55219142D01*
X140993371Y-55226792D01*
X140988818Y-55230063D01*
X140988814Y-55230066D01*
X140926159Y-55275089D01*
X140921810Y-55278079D01*
X140856602Y-55320913D01*
X140852616Y-55323531D01*
X140849176Y-55326596D01*
X140849172Y-55326599D01*
X140831997Y-55341902D01*
X140821700Y-55350151D01*
X140812095Y-55357052D01*
X140781802Y-55388312D01*
X140738245Y-55433259D01*
X140736856Y-55434669D01*
X135611121Y-60560405D01*
X130521431Y-65650095D01*
X130459119Y-65684121D01*
X130432336Y-65687000D01*
X120500870Y-65687000D01*
X120498083Y-65687249D01*
X120498077Y-65687249D01*
X120440453Y-65692392D01*
X120335161Y-65701789D01*
X120329747Y-65703270D01*
X120329742Y-65703271D01*
X120202396Y-65738110D01*
X120119849Y-65760692D01*
X120114791Y-65763104D01*
X120114787Y-65763106D01*
X120019110Y-65808742D01*
X119918371Y-65856792D01*
X119737095Y-65987052D01*
X119733188Y-65991084D01*
X119630482Y-66097068D01*
X119581751Y-66147354D01*
X119457250Y-66332632D01*
X119367526Y-66537029D01*
X119366218Y-66542477D01*
X119366216Y-66542483D01*
X119323516Y-66720342D01*
X119315415Y-66754085D01*
X119311897Y-66815095D01*
X119304552Y-66942500D01*
X119302566Y-66976938D01*
X119329383Y-67198544D01*
X119395019Y-67411900D01*
X119397595Y-67416890D01*
X119397595Y-67416891D01*
X119475101Y-67567054D01*
X119497401Y-67610259D01*
X119500810Y-67614701D01*
X119500812Y-67614705D01*
X119611140Y-67758487D01*
X119633290Y-67787354D01*
X119798393Y-67937586D01*
X119987490Y-68056207D01*
X120104736Y-68103339D01*
X120188334Y-68136945D01*
X120194605Y-68139466D01*
X120200093Y-68140603D01*
X120200098Y-68140604D01*
X120361546Y-68174038D01*
X120413190Y-68184733D01*
X120417803Y-68184999D01*
X120468026Y-68187895D01*
X120468030Y-68187895D01*
X120469849Y-68188000D01*
X130911638Y-68188000D01*
X130928085Y-68189078D01*
X130944353Y-68191220D01*
X130944355Y-68191220D01*
X130949922Y-68191953D01*
X131030770Y-68188140D01*
X131036707Y-68188000D01*
X131059130Y-68188000D01*
X131078017Y-68186315D01*
X131084952Y-68185696D01*
X131090213Y-68185337D01*
X131097379Y-68184999D01*
X131172898Y-68181437D01*
X131178361Y-68180186D01*
X131178367Y-68180185D01*
X131190211Y-68177472D01*
X131207145Y-68174790D01*
X131224839Y-68173211D01*
X131230255Y-68171729D01*
X131230257Y-68171729D01*
X131304681Y-68151369D01*
X131309799Y-68150083D01*
X131385021Y-68132855D01*
X131385022Y-68132855D01*
X131390487Y-68131603D01*
X131395641Y-68129405D01*
X131395652Y-68129401D01*
X131406826Y-68124634D01*
X131423017Y-68118995D01*
X131434733Y-68115790D01*
X131434732Y-68115790D01*
X131440151Y-68114308D01*
X131514877Y-68078665D01*
X131519657Y-68076507D01*
X131540832Y-68067475D01*
X131595813Y-68044024D01*
X131610671Y-68034264D01*
X131625591Y-68025858D01*
X131641629Y-68018208D01*
X131646182Y-68014937D01*
X131646186Y-68014934D01*
X131708841Y-67969911D01*
X131713190Y-67966921D01*
X131721425Y-67961512D01*
X131753309Y-67940568D01*
X131778524Y-67924005D01*
X131778528Y-67924002D01*
X131782384Y-67921469D01*
X131803001Y-67903101D01*
X131813286Y-67894860D01*
X131822905Y-67887948D01*
X131896786Y-67811709D01*
X131898175Y-67810299D01*
X135230873Y-64477601D01*
X135293185Y-64443575D01*
X135364000Y-64448640D01*
X135420836Y-64491187D01*
X135438294Y-64523395D01*
X135471031Y-64612854D01*
X135471033Y-64612858D01*
X135473643Y-64619990D01*
X135477880Y-64626296D01*
X135477882Y-64626299D01*
X135502314Y-64662657D01*
X135561458Y-64750672D01*
X135578598Y-64766268D01*
X135661907Y-64842073D01*
X135677910Y-64856635D01*
X135727639Y-64883636D01*
X135809599Y-64928137D01*
X135809601Y-64928138D01*
X135816276Y-64931762D01*
X135823625Y-64933690D01*
X135961219Y-64969787D01*
X135961221Y-64969787D01*
X135968569Y-64971715D01*
X136051880Y-64973024D01*
X136118398Y-64974069D01*
X136118401Y-64974069D01*
X136125995Y-64974188D01*
X136279468Y-64939038D01*
X136420125Y-64868295D01*
X136472299Y-64823734D01*
X136534074Y-64770974D01*
X136534076Y-64770971D01*
X136539848Y-64766042D01*
X136587544Y-64699667D01*
X136643538Y-64656019D01*
X136714241Y-64649573D01*
X136777206Y-64682376D01*
X136794446Y-64702915D01*
X136816458Y-64735672D01*
X136856492Y-64772100D01*
X136926234Y-64835560D01*
X136932910Y-64841635D01*
X136972922Y-64863360D01*
X137064599Y-64913137D01*
X137064601Y-64913138D01*
X137071276Y-64916762D01*
X137078625Y-64918690D01*
X137216219Y-64954787D01*
X137216221Y-64954787D01*
X137223569Y-64956715D01*
X137306880Y-64958024D01*
X137373398Y-64959069D01*
X137373401Y-64959069D01*
X137380995Y-64959188D01*
X137534468Y-64924038D01*
X137675125Y-64853295D01*
X137719842Y-64815103D01*
X137789073Y-64755975D01*
X137789076Y-64755972D01*
X137794848Y-64751042D01*
X137799279Y-64744875D01*
X137800348Y-64743713D01*
X137861181Y-64707109D01*
X137893095Y-64703000D01*
X144476626Y-64703000D01*
X144544747Y-64723002D01*
X144565721Y-64739905D01*
X145505779Y-65679963D01*
X145539805Y-65742275D01*
X145534740Y-65813090D01*
X145492193Y-65869926D01*
X145474474Y-65881024D01*
X145434376Y-65901720D01*
X145359179Y-65940532D01*
X145353457Y-65945524D01*
X145353455Y-65945525D01*
X145246259Y-66039038D01*
X145246256Y-66039041D01*
X145240534Y-66044033D01*
X145214975Y-66080400D01*
X145164648Y-66152008D01*
X145150001Y-66172848D01*
X145092809Y-66319539D01*
X145091818Y-66327068D01*
X145074906Y-66455527D01*
X145072258Y-66475638D01*
X145089535Y-66632133D01*
X145143643Y-66779990D01*
X145147880Y-66786296D01*
X145147882Y-66786299D01*
X145170025Y-66819251D01*
X145231458Y-66910672D01*
X145250621Y-66928109D01*
X145310413Y-66982515D01*
X145347910Y-67016635D01*
X145354585Y-67020259D01*
X145479599Y-67088137D01*
X145479601Y-67088138D01*
X145486276Y-67091762D01*
X145493625Y-67093690D01*
X145631219Y-67129787D01*
X145631221Y-67129787D01*
X145638569Y-67131715D01*
X145710573Y-67132846D01*
X145776553Y-67133883D01*
X145844352Y-67154952D01*
X145863669Y-67170772D01*
X147815095Y-69122198D01*
X147849121Y-69184510D01*
X147852000Y-69211293D01*
X147852000Y-73043707D01*
X147831998Y-73111828D01*
X147815095Y-73132802D01*
X144112802Y-76835095D01*
X144050490Y-76869121D01*
X144023707Y-76872000D01*
X133342763Y-76872000D01*
X133274642Y-76851998D01*
X133258944Y-76840076D01*
X133202148Y-76789472D01*
X133202145Y-76789470D01*
X133196476Y-76784419D01*
X133057331Y-76710745D01*
X132974395Y-76689913D01*
X132911998Y-76674240D01*
X132911996Y-76674240D01*
X132904628Y-76672389D01*
X132897030Y-76672349D01*
X132897028Y-76672349D01*
X132829819Y-76671997D01*
X132747184Y-76671565D01*
X132739805Y-76673337D01*
X132739801Y-76673337D01*
X132601467Y-76706548D01*
X132601463Y-76706549D01*
X132594088Y-76708320D01*
X132454179Y-76780532D01*
X132448457Y-76785524D01*
X132448455Y-76785525D01*
X132341259Y-76879038D01*
X132341256Y-76879041D01*
X132335534Y-76884033D01*
X132314530Y-76913919D01*
X132279038Y-76964419D01*
X132245001Y-77012848D01*
X132187809Y-77159539D01*
X132186818Y-77167068D01*
X132168472Y-77306418D01*
X132167258Y-77315638D01*
X132184535Y-77472133D01*
X132238643Y-77619990D01*
X132242880Y-77626296D01*
X132242882Y-77626299D01*
X132256200Y-77646118D01*
X132326458Y-77750672D01*
X132442910Y-77856635D01*
X132502869Y-77889190D01*
X132574599Y-77928137D01*
X132574601Y-77928138D01*
X132581276Y-77931762D01*
X132588625Y-77933690D01*
X132726219Y-77969787D01*
X132726221Y-77969787D01*
X132733569Y-77971715D01*
X132816880Y-77973024D01*
X132883398Y-77974069D01*
X132883401Y-77974069D01*
X132890995Y-77974188D01*
X133044468Y-77939038D01*
X133185125Y-77868295D01*
X133190897Y-77863366D01*
X133190899Y-77863364D01*
X133261354Y-77803189D01*
X133326144Y-77774158D01*
X133343185Y-77773000D01*
X144228280Y-77773000D01*
X144243089Y-77773873D01*
X144276810Y-77777864D01*
X144286074Y-77776172D01*
X144286075Y-77776172D01*
X144334501Y-77767328D01*
X144338404Y-77766678D01*
X144387145Y-77759350D01*
X144387146Y-77759350D01*
X144396462Y-77757949D01*
X144402975Y-77754821D01*
X144410073Y-77753525D01*
X144462147Y-77726475D01*
X144465637Y-77724732D01*
X144518579Y-77699309D01*
X144523865Y-77694423D01*
X144523913Y-77694390D01*
X144530288Y-77691079D01*
X144535328Y-77686775D01*
X144572555Y-77649548D01*
X144576121Y-77646118D01*
X144618056Y-77607354D01*
X144621749Y-77600995D01*
X144627266Y-77594837D01*
X148596850Y-73625253D01*
X148607939Y-73615399D01*
X148627211Y-73600206D01*
X148627215Y-73600202D01*
X148634610Y-73594372D01*
X148639964Y-73586625D01*
X148639968Y-73586621D01*
X148667977Y-73546096D01*
X148670258Y-73542902D01*
X148705135Y-73495683D01*
X148707529Y-73488866D01*
X148711631Y-73482931D01*
X148729312Y-73427025D01*
X148730560Y-73423285D01*
X148746900Y-73376755D01*
X148746901Y-73376752D01*
X148750020Y-73367869D01*
X148750303Y-73360684D01*
X148750317Y-73360611D01*
X148752480Y-73353770D01*
X148753000Y-73347163D01*
X148753000Y-73294494D01*
X148753097Y-73289548D01*
X148754968Y-73241915D01*
X148755338Y-73232506D01*
X148753454Y-73225400D01*
X148753000Y-73217153D01*
X148753000Y-69231374D01*
X148773002Y-69163253D01*
X148826658Y-69116760D01*
X148896932Y-69106656D01*
X148961512Y-69136150D01*
X148968095Y-69142279D01*
X153997473Y-74171657D01*
X154031499Y-74233969D01*
X154033300Y-74277197D01*
X154031872Y-74288043D01*
X154049149Y-74444538D01*
X154103257Y-74592395D01*
X154107494Y-74598701D01*
X154107496Y-74598704D01*
X154137995Y-74644091D01*
X154191072Y-74723077D01*
X154196688Y-74728187D01*
X154276311Y-74800638D01*
X154307524Y-74829040D01*
X154367483Y-74861595D01*
X154439213Y-74900542D01*
X154439215Y-74900543D01*
X154445890Y-74904167D01*
X154453239Y-74906095D01*
X154572438Y-74937366D01*
X154633254Y-74974000D01*
X154664609Y-75037697D01*
X154656550Y-75108235D01*
X154629560Y-75148337D01*
X141763150Y-88014747D01*
X141752061Y-88024601D01*
X141732791Y-88039793D01*
X141732789Y-88039795D01*
X141725390Y-88045628D01*
X141720035Y-88053375D01*
X141720034Y-88053377D01*
X141715465Y-88059988D01*
X141692559Y-88093132D01*
X141692045Y-88093875D01*
X141689750Y-88097087D01*
X141654866Y-88144316D01*
X141652473Y-88151132D01*
X141648369Y-88157069D01*
X141645529Y-88166049D01*
X141645528Y-88166051D01*
X141639150Y-88186217D01*
X141631567Y-88210198D01*
X141630682Y-88212995D01*
X141629429Y-88216750D01*
X141622750Y-88235771D01*
X141609981Y-88272131D01*
X141609699Y-88279319D01*
X141609688Y-88279378D01*
X141607520Y-88286230D01*
X141607000Y-88292837D01*
X141607000Y-88345516D01*
X141606903Y-88350462D01*
X141604662Y-88407494D01*
X141606546Y-88414600D01*
X141607000Y-88422847D01*
X141607000Y-90781530D01*
X141586998Y-90849651D01*
X141575520Y-90864684D01*
X141570534Y-90869033D01*
X141566167Y-90875247D01*
X141492364Y-90980258D01*
X141480001Y-90997848D01*
X141422809Y-91144539D01*
X141421818Y-91152068D01*
X141404131Y-91286413D01*
X141402258Y-91300638D01*
X141419535Y-91457133D01*
X141473643Y-91604990D01*
X141477880Y-91611296D01*
X141477882Y-91611299D01*
X141518209Y-91671311D01*
X141561458Y-91735672D01*
X141677910Y-91841635D01*
X141727092Y-91868339D01*
X141809599Y-91913137D01*
X141809601Y-91913138D01*
X141816276Y-91916762D01*
X141823625Y-91918690D01*
X141961219Y-91954787D01*
X141961221Y-91954787D01*
X141968569Y-91956715D01*
X142051880Y-91958024D01*
X142118398Y-91959069D01*
X142118401Y-91959069D01*
X142125995Y-91959188D01*
X142279468Y-91924038D01*
X142420125Y-91853295D01*
X142446369Y-91830881D01*
X142534074Y-91755974D01*
X142534076Y-91755971D01*
X142539848Y-91751042D01*
X142579751Y-91695511D01*
X142635746Y-91651863D01*
X142706449Y-91645417D01*
X142769414Y-91678220D01*
X142786650Y-91698753D01*
X142811458Y-91735672D01*
X142927910Y-91841635D01*
X142977092Y-91868339D01*
X143059599Y-91913137D01*
X143059601Y-91913138D01*
X143066276Y-91916762D01*
X143073625Y-91918690D01*
X143211219Y-91954787D01*
X143211221Y-91954787D01*
X143218569Y-91956715D01*
X143301880Y-91958024D01*
X143368398Y-91959069D01*
X143368401Y-91959069D01*
X143375995Y-91959188D01*
X143529468Y-91924038D01*
X143670125Y-91853295D01*
X143696369Y-91830881D01*
X143784074Y-91755974D01*
X143784076Y-91755971D01*
X143789848Y-91751042D01*
X143829751Y-91695511D01*
X143885746Y-91651863D01*
X143956449Y-91645417D01*
X144019414Y-91678220D01*
X144036650Y-91698753D01*
X144061458Y-91735672D01*
X144177910Y-91841635D01*
X144227092Y-91868339D01*
X144309599Y-91913137D01*
X144309601Y-91913138D01*
X144316276Y-91916762D01*
X144323625Y-91918690D01*
X144461219Y-91954787D01*
X144461221Y-91954787D01*
X144468569Y-91956715D01*
X144551880Y-91958024D01*
X144618398Y-91959069D01*
X144618401Y-91959069D01*
X144625995Y-91959188D01*
X144779468Y-91924038D01*
X144920125Y-91853295D01*
X144946369Y-91830881D01*
X145034074Y-91755974D01*
X145034076Y-91755971D01*
X145039848Y-91751042D01*
X145047221Y-91740782D01*
X145105590Y-91659554D01*
X145161584Y-91615906D01*
X145232288Y-91609460D01*
X145295252Y-91642263D01*
X145312487Y-91662795D01*
X145361458Y-91735672D01*
X145477910Y-91841635D01*
X145527092Y-91868339D01*
X145609599Y-91913137D01*
X145609601Y-91913138D01*
X145616276Y-91916762D01*
X145623625Y-91918690D01*
X145761219Y-91954787D01*
X145761221Y-91954787D01*
X145768569Y-91956715D01*
X145851880Y-91958024D01*
X145918398Y-91959069D01*
X145918401Y-91959069D01*
X145925995Y-91959188D01*
X146079468Y-91924038D01*
X146220125Y-91853295D01*
X146246369Y-91830881D01*
X146334074Y-91755974D01*
X146334076Y-91755971D01*
X146339848Y-91751042D01*
X146431724Y-91623183D01*
X146490450Y-91477098D01*
X146509797Y-91341158D01*
X146512053Y-91325307D01*
X146512053Y-91325304D01*
X146512634Y-91321223D01*
X146512778Y-91307500D01*
X146493863Y-91151194D01*
X146472277Y-91094069D01*
X146440894Y-91011014D01*
X146440893Y-91011011D01*
X146438210Y-91003912D01*
X146349031Y-90874157D01*
X146343365Y-90869109D01*
X146339486Y-90864709D01*
X146309441Y-90800383D01*
X146308000Y-90781384D01*
X146308000Y-88146293D01*
X146328002Y-88078172D01*
X146344905Y-88057198D01*
X154266905Y-80135198D01*
X154329217Y-80101172D01*
X154400032Y-80106237D01*
X154456868Y-80148784D01*
X154481679Y-80215304D01*
X154482000Y-80224293D01*
X154482000Y-83556530D01*
X154461998Y-83624651D01*
X154450520Y-83639684D01*
X154445534Y-83644033D01*
X154427080Y-83670291D01*
X154371824Y-83748912D01*
X154355001Y-83772848D01*
X154297809Y-83919539D01*
X154296818Y-83927068D01*
X154278498Y-84066223D01*
X154277258Y-84075638D01*
X154294535Y-84232133D01*
X154348643Y-84379990D01*
X154352880Y-84386296D01*
X154352882Y-84386299D01*
X154379652Y-84426136D01*
X154436458Y-84510672D01*
X154453986Y-84526621D01*
X154532755Y-84598295D01*
X154552910Y-84616635D01*
X154559585Y-84620259D01*
X154684599Y-84688137D01*
X154684601Y-84688138D01*
X154691276Y-84691762D01*
X154698625Y-84693690D01*
X154836219Y-84729787D01*
X154836221Y-84729787D01*
X154843569Y-84731715D01*
X154926880Y-84733024D01*
X154993398Y-84734069D01*
X154993401Y-84734069D01*
X155000995Y-84734188D01*
X155154468Y-84699038D01*
X155295125Y-84628295D01*
X155414170Y-84526621D01*
X155478959Y-84497590D01*
X155549159Y-84508195D01*
X155602482Y-84555070D01*
X155622000Y-84622432D01*
X155622000Y-87011530D01*
X155601998Y-87079651D01*
X155590520Y-87094684D01*
X155585534Y-87099033D01*
X155581167Y-87105247D01*
X155505807Y-87212473D01*
X155495001Y-87227848D01*
X155437809Y-87374539D01*
X155434791Y-87397463D01*
X155422008Y-87494560D01*
X155417258Y-87530638D01*
X155434535Y-87687133D01*
X155464018Y-87767699D01*
X155468644Y-87838545D01*
X155434234Y-87900645D01*
X155371713Y-87934284D01*
X155345692Y-87937000D01*
X154337763Y-87937000D01*
X154269642Y-87916998D01*
X154253944Y-87905076D01*
X154197148Y-87854472D01*
X154197145Y-87854470D01*
X154191476Y-87849419D01*
X154166567Y-87836230D01*
X154059043Y-87779299D01*
X154059044Y-87779299D01*
X154052331Y-87775745D01*
X154035622Y-87771548D01*
X153906998Y-87739240D01*
X153906996Y-87739240D01*
X153899628Y-87737389D01*
X153892030Y-87737349D01*
X153892028Y-87737349D01*
X153824819Y-87736997D01*
X153742184Y-87736565D01*
X153734805Y-87738337D01*
X153734801Y-87738337D01*
X153596467Y-87771548D01*
X153596463Y-87771549D01*
X153589088Y-87773320D01*
X153449179Y-87845532D01*
X153443457Y-87850524D01*
X153443455Y-87850525D01*
X153336259Y-87944038D01*
X153336256Y-87944041D01*
X153330534Y-87949033D01*
X153318390Y-87966312D01*
X153246697Y-88068321D01*
X153240001Y-88077848D01*
X153182809Y-88224539D01*
X153181818Y-88232068D01*
X153165578Y-88355422D01*
X153162258Y-88380638D01*
X153179535Y-88537133D01*
X153233643Y-88684990D01*
X153321458Y-88815672D01*
X153437910Y-88921635D01*
X153459385Y-88933295D01*
X153569599Y-88993137D01*
X153569601Y-88993138D01*
X153576276Y-88996762D01*
X153583625Y-88998690D01*
X153721219Y-89034787D01*
X153721221Y-89034787D01*
X153728569Y-89036715D01*
X153811880Y-89038024D01*
X153878398Y-89039069D01*
X153878401Y-89039069D01*
X153885995Y-89039188D01*
X154039468Y-89004038D01*
X154180125Y-88933295D01*
X154185897Y-88928366D01*
X154185899Y-88928364D01*
X154256354Y-88868189D01*
X154321144Y-88839158D01*
X154338185Y-88838000D01*
X164223280Y-88838000D01*
X164238089Y-88838873D01*
X164271810Y-88842864D01*
X164281074Y-88841172D01*
X164281075Y-88841172D01*
X164329501Y-88832328D01*
X164333404Y-88831678D01*
X164382145Y-88824350D01*
X164382146Y-88824350D01*
X164391462Y-88822949D01*
X164397975Y-88819821D01*
X164405073Y-88818525D01*
X164457147Y-88791475D01*
X164460637Y-88789732D01*
X164513579Y-88764309D01*
X164518865Y-88759423D01*
X164518913Y-88759390D01*
X164525288Y-88756079D01*
X164530328Y-88751775D01*
X164567555Y-88714548D01*
X164571121Y-88711118D01*
X164606141Y-88678746D01*
X164613056Y-88672354D01*
X164616749Y-88665995D01*
X164622266Y-88659837D01*
X170421473Y-82860630D01*
X170483785Y-82826604D01*
X170512547Y-82823741D01*
X170517099Y-82823813D01*
X170533398Y-82824069D01*
X170533401Y-82824069D01*
X170540995Y-82824188D01*
X170692870Y-82789404D01*
X170763737Y-82793693D01*
X170821036Y-82835615D01*
X170846573Y-82901860D01*
X170847000Y-82912224D01*
X170847000Y-85623280D01*
X170846127Y-85638089D01*
X170842136Y-85671810D01*
X170843828Y-85681074D01*
X170843828Y-85681075D01*
X170852672Y-85729501D01*
X170853322Y-85733404D01*
X170862051Y-85791462D01*
X170865179Y-85797975D01*
X170866475Y-85805073D01*
X170893525Y-85857147D01*
X170895268Y-85860637D01*
X170920691Y-85913579D01*
X170925577Y-85918865D01*
X170925610Y-85918913D01*
X170928921Y-85925288D01*
X170933225Y-85930328D01*
X170970452Y-85967555D01*
X170973881Y-85971120D01*
X171012646Y-86013056D01*
X171019005Y-86016749D01*
X171025163Y-86022266D01*
X190223383Y-105220486D01*
X190257409Y-105282798D01*
X190254621Y-105346944D01*
X190226437Y-105437713D01*
X190202664Y-105638569D01*
X190215892Y-105840394D01*
X190217315Y-105845996D01*
X190253722Y-105989349D01*
X190265678Y-106036428D01*
X190350356Y-106220107D01*
X190467088Y-106385280D01*
X190611966Y-106526413D01*
X190780137Y-106638782D01*
X190785440Y-106641060D01*
X190785443Y-106641062D01*
X190873791Y-106679019D01*
X190965970Y-106718622D01*
X191163240Y-106763260D01*
X191169009Y-106763487D01*
X191169012Y-106763487D01*
X191245183Y-106766479D01*
X191365342Y-106771200D01*
X191451632Y-106758689D01*
X191559786Y-106743008D01*
X191559791Y-106743007D01*
X191565507Y-106742178D01*
X191570979Y-106740320D01*
X191570981Y-106740320D01*
X191751567Y-106679019D01*
X191751569Y-106679018D01*
X191757031Y-106677164D01*
X191919433Y-106586215D01*
X191988643Y-106570382D01*
X192055425Y-106594479D01*
X192098578Y-106650856D01*
X192107000Y-106696150D01*
X192107000Y-106718707D01*
X192086998Y-106786828D01*
X192070095Y-106807802D01*
X191807802Y-107070095D01*
X191745490Y-107104121D01*
X191718707Y-107107000D01*
X190432826Y-107107000D01*
X190359760Y-107121534D01*
X190276899Y-107176899D01*
X190221534Y-107259760D01*
X190207000Y-107332826D01*
X190207000Y-109082174D01*
X190221534Y-109155240D01*
X190276899Y-109238101D01*
X190359760Y-109293466D01*
X190432826Y-109308000D01*
X192182174Y-109308000D01*
X192255240Y-109293466D01*
X192338101Y-109238101D01*
X192393466Y-109155240D01*
X192408000Y-109082174D01*
X192408000Y-107796293D01*
X192428002Y-107728172D01*
X192444905Y-107707198D01*
X192851850Y-107300253D01*
X192863339Y-107290084D01*
X192863394Y-107290041D01*
X192929380Y-107263842D01*
X192999055Y-107277476D01*
X193050298Y-107326615D01*
X193067000Y-107389305D01*
X193067000Y-114782336D01*
X193046998Y-114850457D01*
X193030095Y-114871431D01*
X169768220Y-138133306D01*
X169661503Y-138260938D01*
X169634019Y-138309123D01*
X169593424Y-138380293D01*
X169542298Y-138429554D01*
X169472656Y-138443355D01*
X169406608Y-138417314D01*
X169368426Y-138368107D01*
X169355472Y-138338314D01*
X169350605Y-138329239D01*
X169234926Y-138150426D01*
X169228636Y-138142257D01*
X169085306Y-137984740D01*
X169077773Y-137977715D01*
X168910639Y-137845722D01*
X168902052Y-137840017D01*
X168715617Y-137737099D01*
X168706205Y-137732869D01*
X168505459Y-137661780D01*
X168495488Y-137659146D01*
X168424337Y-137646472D01*
X168411040Y-137647932D01*
X168406500Y-137662489D01*
X168406500Y-139105500D01*
X168386498Y-139173621D01*
X168332842Y-139220114D01*
X168280500Y-139231500D01*
X168024500Y-139231500D01*
X167956379Y-139211498D01*
X167909886Y-139157842D01*
X167898500Y-139105500D01*
X167898500Y-137660602D01*
X167894582Y-137647258D01*
X167880306Y-137645271D01*
X167841824Y-137651160D01*
X167831788Y-137653551D01*
X167629368Y-137719712D01*
X167619859Y-137723709D01*
X167430963Y-137822042D01*
X167422238Y-137827536D01*
X167251933Y-137955405D01*
X167244226Y-137962248D01*
X167097090Y-138116217D01*
X167090604Y-138124227D01*
X166970598Y-138300149D01*
X166965500Y-138309123D01*
X166875838Y-138502283D01*
X166872276Y-138511965D01*
X166866184Y-138533932D01*
X166828704Y-138594230D01*
X166764574Y-138624691D01*
X166694156Y-138615647D01*
X166639807Y-138569967D01*
X166631761Y-138555986D01*
X166631055Y-138554553D01*
X166554851Y-138400027D01*
X166536579Y-138375557D01*
X166437288Y-138242591D01*
X166437287Y-138242590D01*
X166433835Y-138237967D01*
X166410850Y-138216720D01*
X166289553Y-138104594D01*
X166289551Y-138104592D01*
X166285312Y-138100674D01*
X166257874Y-138083362D01*
X166119137Y-137995825D01*
X166114257Y-137992746D01*
X165926398Y-137917798D01*
X165728026Y-137878339D01*
X165722252Y-137878263D01*
X165722248Y-137878263D01*
X165619757Y-137876922D01*
X165525786Y-137875692D01*
X165520089Y-137876671D01*
X165520088Y-137876671D01*
X165332146Y-137908965D01*
X165332145Y-137908965D01*
X165326449Y-137909944D01*
X165136693Y-137979949D01*
X164962871Y-138083362D01*
X164810805Y-138216720D01*
X164685589Y-138375557D01*
X164591414Y-138554553D01*
X164531437Y-138747713D01*
X164507664Y-138948569D01*
X164520892Y-139150394D01*
X164526791Y-139173621D01*
X164564869Y-139323553D01*
X164570678Y-139346428D01*
X164655356Y-139530107D01*
X164658686Y-139534819D01*
X164658689Y-139534824D01*
X164689401Y-139578280D01*
X164712382Y-139645455D01*
X164695397Y-139714390D01*
X164643840Y-139763199D01*
X164586504Y-139777000D01*
X164101150Y-139777000D01*
X164033029Y-139756998D01*
X163986536Y-139703342D01*
X163976432Y-139633068D01*
X163991215Y-139589434D01*
X164069413Y-139449799D01*
X164082164Y-139427031D01*
X164088264Y-139409063D01*
X164145320Y-139240981D01*
X164145320Y-139240979D01*
X164147178Y-139235507D01*
X164148007Y-139229791D01*
X164148008Y-139229786D01*
X164175667Y-139039016D01*
X164176200Y-139035342D01*
X164177715Y-138977500D01*
X164159208Y-138776091D01*
X164104307Y-138581426D01*
X164014851Y-138400027D01*
X163996579Y-138375557D01*
X163897288Y-138242591D01*
X163897287Y-138242590D01*
X163893835Y-138237967D01*
X163870850Y-138216720D01*
X163749553Y-138104594D01*
X163749551Y-138104592D01*
X163745312Y-138100674D01*
X163717874Y-138083362D01*
X163579137Y-137995825D01*
X163574257Y-137992746D01*
X163386398Y-137917798D01*
X163188026Y-137878339D01*
X163182252Y-137878263D01*
X163182248Y-137878263D01*
X163079757Y-137876922D01*
X162985786Y-137875692D01*
X162980089Y-137876671D01*
X162980088Y-137876671D01*
X162792146Y-137908965D01*
X162792145Y-137908965D01*
X162786449Y-137909944D01*
X162596693Y-137979949D01*
X162422871Y-138083362D01*
X162270805Y-138216720D01*
X162145589Y-138375557D01*
X162051414Y-138554553D01*
X161991437Y-138747713D01*
X161967664Y-138948569D01*
X161980892Y-139150394D01*
X161986791Y-139173621D01*
X162024869Y-139323553D01*
X162030678Y-139346428D01*
X162115356Y-139530107D01*
X162118686Y-139534819D01*
X162118689Y-139534824D01*
X162149401Y-139578280D01*
X162172382Y-139645455D01*
X162155397Y-139714390D01*
X162103840Y-139763199D01*
X162046504Y-139777000D01*
X161561150Y-139777000D01*
X161493029Y-139756998D01*
X161446536Y-139703342D01*
X161436432Y-139633068D01*
X161451215Y-139589434D01*
X161529413Y-139449799D01*
X161542164Y-139427031D01*
X161548264Y-139409063D01*
X161605320Y-139240981D01*
X161605320Y-139240979D01*
X161607178Y-139235507D01*
X161608007Y-139229791D01*
X161608008Y-139229786D01*
X161635667Y-139039016D01*
X161636200Y-139035342D01*
X161637715Y-138977500D01*
X161619208Y-138776091D01*
X161564307Y-138581426D01*
X161474851Y-138400027D01*
X161456579Y-138375557D01*
X161357288Y-138242591D01*
X161357287Y-138242590D01*
X161353835Y-138237967D01*
X161330850Y-138216720D01*
X161209553Y-138104594D01*
X161209551Y-138104592D01*
X161205312Y-138100674D01*
X161177874Y-138083362D01*
X161039137Y-137995825D01*
X161034257Y-137992746D01*
X160846398Y-137917798D01*
X160648026Y-137878339D01*
X160642252Y-137878263D01*
X160642248Y-137878263D01*
X160539757Y-137876922D01*
X160445786Y-137875692D01*
X160440089Y-137876671D01*
X160440088Y-137876671D01*
X160252146Y-137908965D01*
X160252145Y-137908965D01*
X160246449Y-137909944D01*
X160056693Y-137979949D01*
X159882871Y-138083362D01*
X159730805Y-138216720D01*
X159605589Y-138375557D01*
X159511414Y-138554553D01*
X159451437Y-138747713D01*
X159427664Y-138948569D01*
X159440892Y-139150394D01*
X159446791Y-139173621D01*
X159484869Y-139323553D01*
X159490678Y-139346428D01*
X159575356Y-139530107D01*
X159578686Y-139534819D01*
X159578689Y-139534824D01*
X159609401Y-139578280D01*
X159632382Y-139645455D01*
X159615397Y-139714390D01*
X159563840Y-139763199D01*
X159506504Y-139777000D01*
X159219000Y-139777000D01*
X159150879Y-139756998D01*
X159104386Y-139703342D01*
X159093000Y-139651000D01*
X159093000Y-138102826D01*
X159078466Y-138029760D01*
X159023101Y-137946899D01*
X158940240Y-137891534D01*
X158867174Y-137877000D01*
X157117826Y-137877000D01*
X157044760Y-137891534D01*
X156961899Y-137946899D01*
X156906534Y-138029760D01*
X156892000Y-138102826D01*
X156892000Y-139651000D01*
X156871998Y-139719121D01*
X156818342Y-139765614D01*
X156766000Y-139777000D01*
X151268189Y-139777000D01*
X151200068Y-139756998D01*
X151164976Y-139723270D01*
X151114372Y-139651000D01*
X151079098Y-139600623D01*
X150924377Y-139445902D01*
X150919869Y-139442745D01*
X150919866Y-139442743D01*
X150749648Y-139323555D01*
X150749645Y-139323553D01*
X150745139Y-139320398D01*
X150740157Y-139318075D01*
X150740152Y-139318072D01*
X150551812Y-139230248D01*
X150551811Y-139230247D01*
X150546830Y-139227925D01*
X150541522Y-139226503D01*
X150541520Y-139226502D01*
X150475755Y-139208880D01*
X150335477Y-139171293D01*
X150117500Y-139152223D01*
X149899523Y-139171293D01*
X149759245Y-139208880D01*
X149693480Y-139226502D01*
X149693478Y-139226503D01*
X149688170Y-139227925D01*
X149683190Y-139230247D01*
X149683188Y-139230248D01*
X149494843Y-139318075D01*
X149494840Y-139318077D01*
X149489862Y-139320398D01*
X149310623Y-139445902D01*
X149155902Y-139600623D01*
X149030398Y-139779862D01*
X148937925Y-139978170D01*
X148881293Y-140189523D01*
X148862223Y-140407500D01*
X148881293Y-140625477D01*
X148937925Y-140836830D01*
X148940247Y-140841810D01*
X148940248Y-140841812D01*
X149027650Y-141029244D01*
X149030398Y-141035138D01*
X149155902Y-141214377D01*
X149310623Y-141369098D01*
X149315131Y-141372255D01*
X149315134Y-141372257D01*
X149485352Y-141491445D01*
X149489861Y-141494602D01*
X149494843Y-141496925D01*
X149494848Y-141496928D01*
X149683188Y-141584752D01*
X149688170Y-141587075D01*
X149693478Y-141588497D01*
X149693480Y-141588498D01*
X149759245Y-141606120D01*
X149899523Y-141643707D01*
X150117500Y-141662777D01*
X150335477Y-141643707D01*
X150475755Y-141606120D01*
X150541520Y-141588498D01*
X150541522Y-141588497D01*
X150546830Y-141587075D01*
X150551812Y-141584752D01*
X150740152Y-141496928D01*
X150740157Y-141496925D01*
X150745139Y-141494602D01*
X150749648Y-141491445D01*
X150919866Y-141372257D01*
X150919869Y-141372255D01*
X150924377Y-141369098D01*
X151079098Y-141214377D01*
X151082257Y-141209866D01*
X151136969Y-141131729D01*
X151192426Y-141087401D01*
X151240182Y-141078000D01*
X169161500Y-141078000D01*
X169173140Y-141078549D01*
X169180796Y-141080260D01*
X169188719Y-141080011D01*
X169250730Y-141078062D01*
X169254688Y-141078000D01*
X169283425Y-141078000D01*
X169287696Y-141077461D01*
X169299524Y-141076529D01*
X169345069Y-141075097D01*
X169352683Y-141072885D01*
X169352688Y-141072884D01*
X169365292Y-141069222D01*
X169384656Y-141065211D01*
X169405558Y-141062571D01*
X169412929Y-141059652D01*
X169412931Y-141059652D01*
X169447920Y-141045798D01*
X169459131Y-141041959D01*
X169502898Y-141029244D01*
X169521036Y-141018518D01*
X169538781Y-141009824D01*
X169558371Y-141002068D01*
X169595238Y-140975282D01*
X169605146Y-140968775D01*
X169637542Y-140949617D01*
X169637547Y-140949613D01*
X169644365Y-140945581D01*
X169659258Y-140930688D01*
X169674292Y-140917847D01*
X169684923Y-140910123D01*
X169691337Y-140905463D01*
X169720380Y-140870356D01*
X169728369Y-140861577D01*
X170346855Y-140243091D01*
X170409167Y-140209065D01*
X170452395Y-140207264D01*
X170550537Y-140220185D01*
X170634353Y-140231220D01*
X170634355Y-140231220D01*
X170639922Y-140231953D01*
X170862898Y-140221437D01*
X170924782Y-140207264D01*
X171075016Y-140172856D01*
X171080487Y-140171603D01*
X171085645Y-140169403D01*
X171085648Y-140169402D01*
X171280658Y-140086223D01*
X171280660Y-140086222D01*
X171285813Y-140084024D01*
X171438876Y-139983480D01*
X171468524Y-139964005D01*
X171468528Y-139964002D01*
X171472384Y-139961469D01*
X171514758Y-139923716D01*
X195137484Y-116300990D01*
X195149875Y-116290122D01*
X195162910Y-116280120D01*
X195167354Y-116276710D01*
X195221846Y-116216824D01*
X195225945Y-116212529D01*
X195241780Y-116196694D01*
X195258421Y-116176791D01*
X195261874Y-116172834D01*
X195272839Y-116160784D01*
X195317586Y-116111607D01*
X195327024Y-116096562D01*
X195337091Y-116082704D01*
X195348497Y-116069063D01*
X195389512Y-115997157D01*
X195392208Y-115992651D01*
X195436207Y-115922510D01*
X195442839Y-115906012D01*
X195450291Y-115890599D01*
X195459095Y-115875163D01*
X195486725Y-115797139D01*
X195488590Y-115792203D01*
X195517376Y-115720594D01*
X195519466Y-115715395D01*
X195520602Y-115709909D01*
X195520604Y-115709903D01*
X195523070Y-115697994D01*
X195527675Y-115681498D01*
X195533608Y-115664744D01*
X195546985Y-115583056D01*
X195547947Y-115577867D01*
X195563796Y-115501335D01*
X195563796Y-115501334D01*
X195564733Y-115496810D01*
X195566323Y-115469239D01*
X195567770Y-115456133D01*
X195568775Y-115449998D01*
X195568776Y-115449991D01*
X195569682Y-115444455D01*
X195568016Y-115338395D01*
X195568000Y-115336417D01*
X195568000Y-64823362D01*
X195569078Y-64806915D01*
X195571220Y-64790647D01*
X195571220Y-64790645D01*
X195571953Y-64785078D01*
X195568140Y-64704229D01*
X195568000Y-64698293D01*
X195568000Y-64675870D01*
X195565696Y-64650048D01*
X195565337Y-64644787D01*
X195565300Y-64644001D01*
X195561437Y-64562102D01*
X195560186Y-64556639D01*
X195560185Y-64556633D01*
X195557472Y-64544789D01*
X195554790Y-64527855D01*
X195553710Y-64515757D01*
X195553211Y-64510161D01*
X195548086Y-64491428D01*
X195531369Y-64430319D01*
X195530083Y-64425201D01*
X195512855Y-64349979D01*
X195512855Y-64349978D01*
X195511603Y-64344513D01*
X195509405Y-64339359D01*
X195509401Y-64339348D01*
X195504634Y-64328174D01*
X195498995Y-64311983D01*
X195494308Y-64294849D01*
X195458665Y-64220123D01*
X195456507Y-64215343D01*
X195435295Y-64165613D01*
X195424024Y-64139187D01*
X195414264Y-64124329D01*
X195405858Y-64109409D01*
X195398208Y-64093371D01*
X195394937Y-64088818D01*
X195394934Y-64088814D01*
X195353989Y-64031834D01*
X195349908Y-64026155D01*
X195346921Y-64021810D01*
X195304002Y-63956472D01*
X195304001Y-63956471D01*
X195301469Y-63952616D01*
X195283095Y-63931993D01*
X195274847Y-63921697D01*
X195271221Y-63916650D01*
X195271220Y-63916649D01*
X195267948Y-63912095D01*
X195191741Y-63838245D01*
X195190331Y-63836856D01*
X189575990Y-58222516D01*
X189565122Y-58210125D01*
X189555120Y-58197090D01*
X189551710Y-58192646D01*
X189491824Y-58138154D01*
X189487529Y-58134055D01*
X189471694Y-58118220D01*
X189451796Y-58101583D01*
X189447831Y-58098124D01*
X189440696Y-58091631D01*
X189386607Y-58042414D01*
X189371552Y-58032970D01*
X189357693Y-58022900D01*
X189348368Y-58015103D01*
X189348366Y-58015102D01*
X189344062Y-58011503D01*
X189278588Y-57974157D01*
X189272163Y-57970492D01*
X189267657Y-57967796D01*
X189197510Y-57923793D01*
X189181021Y-57917165D01*
X189165591Y-57909705D01*
X189155039Y-57903686D01*
X189155037Y-57903685D01*
X189150163Y-57900905D01*
X189072139Y-57873275D01*
X189067203Y-57871410D01*
X188995594Y-57842624D01*
X188990395Y-57840534D01*
X188984909Y-57839398D01*
X188984903Y-57839396D01*
X188972994Y-57836930D01*
X188956498Y-57832325D01*
X188939744Y-57826392D01*
X188883296Y-57817148D01*
X188858051Y-57813014D01*
X188852863Y-57812052D01*
X188792748Y-57799603D01*
X188771810Y-57795267D01*
X188767199Y-57795001D01*
X188767198Y-57795001D01*
X188744239Y-57793677D01*
X188731136Y-57792230D01*
X188725002Y-57791226D01*
X188724996Y-57791226D01*
X188719454Y-57790318D01*
X188713840Y-57790406D01*
X188713838Y-57790406D01*
X188613395Y-57791984D01*
X188611416Y-57792000D01*
X152597664Y-57792000D01*
X152529543Y-57771998D01*
X152508569Y-57755095D01*
X152276069Y-57522595D01*
X152242043Y-57460283D01*
X152247108Y-57389468D01*
X152289655Y-57332632D01*
X152356175Y-57307821D01*
X152365164Y-57307500D01*
X195931000Y-57307500D01*
X195999121Y-57327502D01*
X196045614Y-57381158D01*
X196057000Y-57433500D01*
X196057000Y-144270415D01*
X196054579Y-144294996D01*
X196052092Y-144307500D01*
X196054514Y-144319673D01*
X196054514Y-144330619D01*
X196055454Y-144342910D01*
X196039167Y-144715948D01*
X196038209Y-144726899D01*
X195985561Y-145126793D01*
X195983652Y-145137617D01*
X195896356Y-145531389D01*
X195893511Y-145542006D01*
X195876007Y-145597524D01*
X195772226Y-145926674D01*
X195768470Y-145936996D01*
X195715916Y-146063873D01*
X195614112Y-146309649D01*
X195609470Y-146319602D01*
X195423230Y-146677367D01*
X195417734Y-146686887D01*
X195201022Y-147027056D01*
X195194718Y-147036060D01*
X194981398Y-147314065D01*
X194949173Y-147356061D01*
X194942109Y-147364478D01*
X194669798Y-147661655D01*
X194669621Y-147661848D01*
X194661852Y-147669617D01*
X194378811Y-147928976D01*
X194364481Y-147942107D01*
X194356064Y-147949170D01*
X194244699Y-148034624D01*
X194036060Y-148194718D01*
X194027056Y-148201022D01*
X193686887Y-148417734D01*
X193677368Y-148423229D01*
X193319602Y-148609470D01*
X193309658Y-148614108D01*
X192936996Y-148768470D01*
X192926681Y-148772223D01*
X192542007Y-148893511D01*
X192531389Y-148896356D01*
X192137617Y-148983652D01*
X192126793Y-148985561D01*
X191726899Y-149038209D01*
X191715948Y-149039167D01*
X191342910Y-149055454D01*
X191330619Y-149054514D01*
X191319673Y-149054514D01*
X191307500Y-149052092D01*
X191295329Y-149054513D01*
X191295327Y-149054513D01*
X191294996Y-149054579D01*
X191270415Y-149057000D01*
X101344585Y-149057000D01*
X101320004Y-149054579D01*
X101319673Y-149054513D01*
X101319671Y-149054513D01*
X101307500Y-149052092D01*
X101295327Y-149054514D01*
X101284381Y-149054514D01*
X101272090Y-149055454D01*
X100899052Y-149039167D01*
X100888101Y-149038209D01*
X100488207Y-148985561D01*
X100477383Y-148983652D01*
X100083611Y-148896356D01*
X100072993Y-148893511D01*
X99688319Y-148772223D01*
X99678004Y-148768470D01*
X99305342Y-148614108D01*
X99295398Y-148609470D01*
X98937632Y-148423229D01*
X98928113Y-148417734D01*
X98587944Y-148201022D01*
X98578940Y-148194718D01*
X98370301Y-148034624D01*
X98258936Y-147949170D01*
X98250519Y-147942107D01*
X98236189Y-147928976D01*
X97953148Y-147669617D01*
X97945379Y-147661848D01*
X97945203Y-147661655D01*
X97672891Y-147364478D01*
X97665827Y-147356061D01*
X97633603Y-147314065D01*
X97420282Y-147036060D01*
X97413978Y-147027056D01*
X97197266Y-146686887D01*
X97191770Y-146677367D01*
X97005530Y-146319602D01*
X97000888Y-146309649D01*
X96899085Y-146063873D01*
X96846530Y-145936996D01*
X96842774Y-145926674D01*
X96738994Y-145597524D01*
X96721489Y-145542006D01*
X96718644Y-145531389D01*
X96659553Y-145264841D01*
X97252491Y-145264841D01*
X97266775Y-145605646D01*
X97267313Y-145609119D01*
X97318072Y-145937003D01*
X97318959Y-145942734D01*
X97408392Y-146271905D01*
X97409682Y-146275164D01*
X97409684Y-146275169D01*
X97427280Y-146319611D01*
X97533961Y-146589055D01*
X97535607Y-146592151D01*
X97535609Y-146592155D01*
X97692451Y-146887131D01*
X97694100Y-146890232D01*
X97696085Y-146893131D01*
X97884821Y-147168774D01*
X97884826Y-147168780D01*
X97886812Y-147171681D01*
X98109696Y-147429895D01*
X98359974Y-147661655D01*
X98634526Y-147864072D01*
X98637563Y-147865826D01*
X98637567Y-147865828D01*
X98751983Y-147931886D01*
X98929931Y-148034624D01*
X98933152Y-148036031D01*
X99239283Y-148169777D01*
X99239293Y-148169781D01*
X99242505Y-148171184D01*
X99245862Y-148172223D01*
X99245867Y-148172225D01*
X99564994Y-148271011D01*
X99568354Y-148272051D01*
X99571810Y-148272710D01*
X99571809Y-148272710D01*
X99899965Y-148335310D01*
X99899971Y-148335311D01*
X99903416Y-148335968D01*
X100082127Y-148349719D01*
X100240017Y-148361868D01*
X100240018Y-148361868D01*
X100243514Y-148362137D01*
X100456273Y-148354707D01*
X100580895Y-148350356D01*
X100580900Y-148350356D01*
X100584410Y-148350233D01*
X100753132Y-148325318D01*
X100918376Y-148300917D01*
X100918381Y-148300916D01*
X100921855Y-148300403D01*
X100925247Y-148299507D01*
X100925251Y-148299506D01*
X101248251Y-148214166D01*
X101248252Y-148214166D01*
X101251642Y-148213270D01*
X101569661Y-148089918D01*
X101871948Y-147931886D01*
X102154736Y-147741143D01*
X102243142Y-147665904D01*
X102411826Y-147522342D01*
X102411827Y-147522341D01*
X102414499Y-147520067D01*
X102614113Y-147307500D01*
X103956447Y-147307500D01*
X103957137Y-147314065D01*
X103969312Y-147429895D01*
X103974608Y-147480286D01*
X103976648Y-147486564D01*
X103976648Y-147486565D01*
X103988273Y-147522342D01*
X104028295Y-147645520D01*
X104031598Y-147651242D01*
X104031599Y-147651243D01*
X104037722Y-147661848D01*
X104115164Y-147795981D01*
X104119582Y-147800888D01*
X104119583Y-147800889D01*
X104178756Y-147866607D01*
X104231417Y-147925093D01*
X104236759Y-147928974D01*
X104236761Y-147928976D01*
X104259956Y-147945828D01*
X104371973Y-148027213D01*
X104378001Y-148029897D01*
X104378003Y-148029898D01*
X104509148Y-148088287D01*
X104530690Y-148097878D01*
X104615660Y-148115939D01*
X104694174Y-148132628D01*
X104694178Y-148132628D01*
X104700631Y-148134000D01*
X104874369Y-148134000D01*
X104880822Y-148132628D01*
X104880826Y-148132628D01*
X104959340Y-148115939D01*
X105044310Y-148097878D01*
X105065852Y-148088287D01*
X105196997Y-148029898D01*
X105196999Y-148029897D01*
X105203027Y-148027213D01*
X105315044Y-147945828D01*
X105338239Y-147928976D01*
X105338241Y-147928974D01*
X105343583Y-147925093D01*
X105396244Y-147866607D01*
X105455417Y-147800889D01*
X105455418Y-147800888D01*
X105459836Y-147795981D01*
X105537278Y-147661848D01*
X105543401Y-147651243D01*
X105543402Y-147651242D01*
X105546705Y-147645520D01*
X105586728Y-147522342D01*
X105598352Y-147486565D01*
X105598352Y-147486564D01*
X105600392Y-147480286D01*
X105605689Y-147429895D01*
X105617863Y-147314065D01*
X105618553Y-147307500D01*
X105604558Y-147174349D01*
X105601082Y-147141278D01*
X105601082Y-147141277D01*
X105600392Y-147134714D01*
X105566922Y-147031701D01*
X105548747Y-146975764D01*
X105548746Y-146975762D01*
X105546705Y-146969480D01*
X105459836Y-146819019D01*
X105359075Y-146707112D01*
X105348005Y-146694818D01*
X105348004Y-146694817D01*
X105343583Y-146689907D01*
X105333045Y-146682250D01*
X105208369Y-146591668D01*
X105208368Y-146591667D01*
X105203027Y-146587787D01*
X105196999Y-146585103D01*
X105196997Y-146585102D01*
X105050341Y-146519807D01*
X105050340Y-146519807D01*
X105044310Y-146517122D01*
X104959340Y-146499061D01*
X104880826Y-146482372D01*
X104880822Y-146482372D01*
X104874369Y-146481000D01*
X104700631Y-146481000D01*
X104694178Y-146482372D01*
X104694174Y-146482372D01*
X104615660Y-146499061D01*
X104530690Y-146517122D01*
X104524660Y-146519807D01*
X104524659Y-146519807D01*
X104378004Y-146585102D01*
X104378002Y-146585103D01*
X104371974Y-146587787D01*
X104366633Y-146591667D01*
X104366632Y-146591668D01*
X104236761Y-146686024D01*
X104236759Y-146686026D01*
X104231417Y-146689907D01*
X104226996Y-146694817D01*
X104226995Y-146694818D01*
X104215926Y-146707112D01*
X104115164Y-146819019D01*
X104028295Y-146969480D01*
X104026254Y-146975762D01*
X104026253Y-146975764D01*
X104008078Y-147031701D01*
X103974608Y-147134714D01*
X103973918Y-147141277D01*
X103973918Y-147141278D01*
X103970442Y-147174349D01*
X103956447Y-147307500D01*
X102614113Y-147307500D01*
X102620278Y-147300935D01*
X102645590Y-147273981D01*
X102645594Y-147273976D01*
X102648001Y-147271413D01*
X102650106Y-147268599D01*
X102650112Y-147268592D01*
X102827329Y-147031701D01*
X102852330Y-146998281D01*
X102869228Y-146969480D01*
X102918287Y-146885859D01*
X103024940Y-146704074D01*
X103032592Y-146686887D01*
X103162247Y-146395678D01*
X103162249Y-146395673D01*
X103163679Y-146392461D01*
X103266819Y-146067324D01*
X103333073Y-145732717D01*
X103346161Y-145576860D01*
X103361433Y-145394993D01*
X103361434Y-145394982D01*
X103361616Y-145392809D01*
X103362807Y-145307500D01*
X103360620Y-145268368D01*
X103360423Y-145264841D01*
X189252491Y-145264841D01*
X189266775Y-145605646D01*
X189267313Y-145609119D01*
X189318072Y-145937003D01*
X189318959Y-145942734D01*
X189408392Y-146271905D01*
X189409682Y-146275164D01*
X189409684Y-146275169D01*
X189427280Y-146319611D01*
X189533961Y-146589055D01*
X189535607Y-146592151D01*
X189535609Y-146592155D01*
X189692451Y-146887131D01*
X189694100Y-146890232D01*
X189696085Y-146893131D01*
X189884821Y-147168774D01*
X189884826Y-147168780D01*
X189886812Y-147171681D01*
X190109696Y-147429895D01*
X190359974Y-147661655D01*
X190634526Y-147864072D01*
X190637563Y-147865826D01*
X190637567Y-147865828D01*
X190751983Y-147931886D01*
X190929931Y-148034624D01*
X190933152Y-148036031D01*
X191239283Y-148169777D01*
X191239293Y-148169781D01*
X191242505Y-148171184D01*
X191245862Y-148172223D01*
X191245867Y-148172225D01*
X191564994Y-148271011D01*
X191568354Y-148272051D01*
X191571810Y-148272710D01*
X191571809Y-148272710D01*
X191899965Y-148335310D01*
X191899971Y-148335311D01*
X191903416Y-148335968D01*
X192082127Y-148349719D01*
X192240017Y-148361868D01*
X192240018Y-148361868D01*
X192243514Y-148362137D01*
X192456273Y-148354707D01*
X192580895Y-148350356D01*
X192580900Y-148350356D01*
X192584410Y-148350233D01*
X192753132Y-148325318D01*
X192918376Y-148300917D01*
X192918381Y-148300916D01*
X192921855Y-148300403D01*
X192925247Y-148299507D01*
X192925251Y-148299506D01*
X193248251Y-148214166D01*
X193248252Y-148214166D01*
X193251642Y-148213270D01*
X193569661Y-148089918D01*
X193871948Y-147931886D01*
X194154736Y-147741143D01*
X194243142Y-147665904D01*
X194411826Y-147522342D01*
X194411827Y-147522341D01*
X194414499Y-147520067D01*
X194620278Y-147300935D01*
X194645590Y-147273981D01*
X194645594Y-147273976D01*
X194648001Y-147271413D01*
X194650106Y-147268599D01*
X194650112Y-147268592D01*
X194827329Y-147031701D01*
X194852330Y-146998281D01*
X194869228Y-146969480D01*
X194918287Y-146885859D01*
X195024940Y-146704074D01*
X195032592Y-146686887D01*
X195162247Y-146395678D01*
X195162249Y-146395673D01*
X195163679Y-146392461D01*
X195266819Y-146067324D01*
X195333073Y-145732717D01*
X195346161Y-145576860D01*
X195361433Y-145394993D01*
X195361434Y-145394982D01*
X195361616Y-145392809D01*
X195362807Y-145307500D01*
X195360620Y-145268368D01*
X195343962Y-144970437D01*
X195343766Y-144966928D01*
X195305630Y-144741454D01*
X195287468Y-144634070D01*
X195287467Y-144634065D01*
X195286881Y-144630601D01*
X195192860Y-144302711D01*
X195147472Y-144192592D01*
X195064213Y-143990590D01*
X195064209Y-143990583D01*
X195062875Y-143987345D01*
X194898547Y-143688434D01*
X194701924Y-143409703D01*
X194628256Y-143326728D01*
X194477789Y-143157253D01*
X194477783Y-143157247D01*
X194475456Y-143154626D01*
X194221967Y-142926383D01*
X194128904Y-142859757D01*
X193947482Y-142729871D01*
X193947475Y-142729867D01*
X193944615Y-142727819D01*
X193646858Y-142561408D01*
X193332408Y-142429225D01*
X193329045Y-142428235D01*
X193329036Y-142428232D01*
X193127846Y-142369020D01*
X193005182Y-142332918D01*
X192735184Y-142285310D01*
X192672720Y-142274296D01*
X192672718Y-142274296D01*
X192669260Y-142273686D01*
X192665749Y-142273465D01*
X192665748Y-142273465D01*
X192332348Y-142252488D01*
X192332342Y-142252488D01*
X192328830Y-142252267D01*
X192232446Y-142256981D01*
X191991640Y-142268758D01*
X191991632Y-142268759D01*
X191988133Y-142268930D01*
X191984665Y-142269492D01*
X191984662Y-142269492D01*
X191654893Y-142322903D01*
X191654890Y-142322904D01*
X191651418Y-142323466D01*
X191648031Y-142324412D01*
X191648025Y-142324413D01*
X191326274Y-142414248D01*
X191322879Y-142415196D01*
X191319616Y-142416514D01*
X191319614Y-142416515D01*
X191009871Y-142541660D01*
X191006614Y-142542976D01*
X190706562Y-142705213D01*
X190426465Y-142899885D01*
X190423823Y-142902198D01*
X190423819Y-142902201D01*
X190393502Y-142928742D01*
X190169814Y-143124567D01*
X189939807Y-143376456D01*
X189739311Y-143652415D01*
X189570826Y-143949003D01*
X189436451Y-144262523D01*
X189337861Y-144589069D01*
X189276285Y-144924568D01*
X189276039Y-144928084D01*
X189276039Y-144928085D01*
X189262144Y-145126793D01*
X189252491Y-145264841D01*
X103360423Y-145264841D01*
X103343962Y-144970437D01*
X103343766Y-144966928D01*
X103305630Y-144741454D01*
X103287468Y-144634070D01*
X103287467Y-144634065D01*
X103286881Y-144630601D01*
X103192860Y-144302711D01*
X103147472Y-144192592D01*
X103064213Y-143990590D01*
X103064209Y-143990583D01*
X103062875Y-143987345D01*
X102898547Y-143688434D01*
X102701924Y-143409703D01*
X102628256Y-143326728D01*
X102477789Y-143157253D01*
X102477783Y-143157247D01*
X102475456Y-143154626D01*
X102221967Y-142926383D01*
X102128904Y-142859757D01*
X101947482Y-142729871D01*
X101947475Y-142729867D01*
X101944615Y-142727819D01*
X101646858Y-142561408D01*
X101332408Y-142429225D01*
X101329045Y-142428235D01*
X101329036Y-142428232D01*
X101127846Y-142369020D01*
X101005182Y-142332918D01*
X100735184Y-142285310D01*
X100672720Y-142274296D01*
X100672718Y-142274296D01*
X100669260Y-142273686D01*
X100665749Y-142273465D01*
X100665748Y-142273465D01*
X100332348Y-142252488D01*
X100332342Y-142252488D01*
X100328830Y-142252267D01*
X100232446Y-142256981D01*
X99991640Y-142268758D01*
X99991632Y-142268759D01*
X99988133Y-142268930D01*
X99984665Y-142269492D01*
X99984662Y-142269492D01*
X99654893Y-142322903D01*
X99654890Y-142322904D01*
X99651418Y-142323466D01*
X99648031Y-142324412D01*
X99648025Y-142324413D01*
X99326274Y-142414248D01*
X99322879Y-142415196D01*
X99319616Y-142416514D01*
X99319614Y-142416515D01*
X99009871Y-142541660D01*
X99006614Y-142542976D01*
X98706562Y-142705213D01*
X98426465Y-142899885D01*
X98423823Y-142902198D01*
X98423819Y-142902201D01*
X98393502Y-142928742D01*
X98169814Y-143124567D01*
X97939807Y-143376456D01*
X97739311Y-143652415D01*
X97570826Y-143949003D01*
X97436451Y-144262523D01*
X97337861Y-144589069D01*
X97276285Y-144924568D01*
X97276039Y-144928084D01*
X97276039Y-144928085D01*
X97262144Y-145126793D01*
X97252491Y-145264841D01*
X96659553Y-145264841D01*
X96631348Y-145137617D01*
X96629439Y-145126793D01*
X96576791Y-144726899D01*
X96575833Y-144715948D01*
X96559546Y-144342910D01*
X96560486Y-144330619D01*
X96560486Y-144319673D01*
X96562908Y-144307500D01*
X96560421Y-144294996D01*
X96558000Y-144270415D01*
X96558000Y-140407500D01*
X141242223Y-140407500D01*
X141261293Y-140625477D01*
X141317925Y-140836830D01*
X141320247Y-140841810D01*
X141320248Y-140841812D01*
X141407650Y-141029244D01*
X141410398Y-141035138D01*
X141535902Y-141214377D01*
X141690623Y-141369098D01*
X141695131Y-141372255D01*
X141695134Y-141372257D01*
X141865352Y-141491445D01*
X141869861Y-141494602D01*
X141874843Y-141496925D01*
X141874848Y-141496928D01*
X142063188Y-141584752D01*
X142068170Y-141587075D01*
X142073478Y-141588497D01*
X142073480Y-141588498D01*
X142139245Y-141606120D01*
X142279523Y-141643707D01*
X142497500Y-141662777D01*
X142715477Y-141643707D01*
X142855755Y-141606120D01*
X142921520Y-141588498D01*
X142921522Y-141588497D01*
X142926830Y-141587075D01*
X142931812Y-141584752D01*
X143120152Y-141496928D01*
X143120157Y-141496925D01*
X143125139Y-141494602D01*
X143129648Y-141491445D01*
X143299866Y-141372257D01*
X143299869Y-141372255D01*
X143304377Y-141369098D01*
X143459098Y-141214377D01*
X143584602Y-141035138D01*
X143587351Y-141029244D01*
X143674752Y-140841812D01*
X143674753Y-140841810D01*
X143677075Y-140836830D01*
X143733707Y-140625477D01*
X143752777Y-140407500D01*
X143733707Y-140189523D01*
X143677075Y-139978170D01*
X143584602Y-139779862D01*
X143459098Y-139600623D01*
X143304377Y-139445902D01*
X143299869Y-139442745D01*
X143299866Y-139442743D01*
X143129648Y-139323555D01*
X143129645Y-139323553D01*
X143125139Y-139320398D01*
X143120157Y-139318075D01*
X143120152Y-139318072D01*
X142931812Y-139230248D01*
X142931811Y-139230247D01*
X142926830Y-139227925D01*
X142921522Y-139226503D01*
X142921520Y-139226502D01*
X142855755Y-139208880D01*
X142715477Y-139171293D01*
X142497500Y-139152223D01*
X142279523Y-139171293D01*
X142139245Y-139208880D01*
X142073480Y-139226502D01*
X142073478Y-139226503D01*
X142068170Y-139227925D01*
X142063190Y-139230247D01*
X142063188Y-139230248D01*
X141874843Y-139318075D01*
X141874840Y-139318077D01*
X141869862Y-139320398D01*
X141690623Y-139445902D01*
X141535902Y-139600623D01*
X141410398Y-139779862D01*
X141317925Y-139978170D01*
X141261293Y-140189523D01*
X141242223Y-140407500D01*
X96558000Y-140407500D01*
X96558000Y-109082174D01*
X100107000Y-109082174D01*
X100121534Y-109155240D01*
X100176899Y-109238101D01*
X100259760Y-109293466D01*
X100332826Y-109308000D01*
X102082174Y-109308000D01*
X102155240Y-109293466D01*
X102238101Y-109238101D01*
X102293466Y-109155240D01*
X102308000Y-109082174D01*
X102308000Y-107332826D01*
X102293466Y-107259760D01*
X102238101Y-107176899D01*
X102155240Y-107121534D01*
X102082174Y-107107000D01*
X100332826Y-107107000D01*
X100259760Y-107121534D01*
X100176899Y-107176899D01*
X100121534Y-107259760D01*
X100107000Y-107332826D01*
X100107000Y-109082174D01*
X96558000Y-109082174D01*
X96558000Y-103395466D01*
X99875757Y-103395466D01*
X99906065Y-103529946D01*
X99909145Y-103539775D01*
X99989270Y-103737103D01*
X99993913Y-103746294D01*
X100105194Y-103927888D01*
X100111277Y-103936199D01*
X100250713Y-104097167D01*
X100258080Y-104104383D01*
X100421934Y-104240416D01*
X100430381Y-104246331D01*
X100614256Y-104353779D01*
X100623542Y-104358229D01*
X100778302Y-104417325D01*
X100834805Y-104460312D01*
X100859098Y-104527023D01*
X100843468Y-104596278D01*
X100792877Y-104646088D01*
X100776965Y-104653247D01*
X100737106Y-104667952D01*
X100731693Y-104669949D01*
X100557871Y-104773362D01*
X100405805Y-104906720D01*
X100280589Y-105065557D01*
X100186414Y-105244553D01*
X100126437Y-105437713D01*
X100102664Y-105638569D01*
X100115892Y-105840394D01*
X100117315Y-105845996D01*
X100153722Y-105989349D01*
X100165678Y-106036428D01*
X100250356Y-106220107D01*
X100367088Y-106385280D01*
X100511966Y-106526413D01*
X100680137Y-106638782D01*
X100685440Y-106641060D01*
X100685443Y-106641062D01*
X100773791Y-106679019D01*
X100865970Y-106718622D01*
X101063240Y-106763260D01*
X101069009Y-106763487D01*
X101069012Y-106763487D01*
X101145183Y-106766479D01*
X101265342Y-106771200D01*
X101351632Y-106758689D01*
X101459786Y-106743008D01*
X101459791Y-106743007D01*
X101465507Y-106742178D01*
X101470979Y-106740320D01*
X101470981Y-106740320D01*
X101651567Y-106679019D01*
X101651569Y-106679018D01*
X101657031Y-106677164D01*
X101833501Y-106578337D01*
X101895933Y-106526413D01*
X101984573Y-106452691D01*
X101989005Y-106449005D01*
X102118337Y-106293501D01*
X102122687Y-106285733D01*
X102180537Y-106182434D01*
X102231274Y-106132772D01*
X102290472Y-106118000D01*
X108287250Y-106118000D01*
X108355371Y-106138002D01*
X108372049Y-106150806D01*
X108427910Y-106201635D01*
X108434583Y-106205258D01*
X108559599Y-106273137D01*
X108559601Y-106273138D01*
X108566276Y-106276762D01*
X108573625Y-106278690D01*
X108711219Y-106314787D01*
X108711221Y-106314787D01*
X108718569Y-106316715D01*
X108801880Y-106318024D01*
X108868398Y-106319069D01*
X108868401Y-106319069D01*
X108875995Y-106319188D01*
X109029468Y-106284038D01*
X109170125Y-106213295D01*
X109206259Y-106182434D01*
X109284074Y-106115974D01*
X109284076Y-106115971D01*
X109289848Y-106111042D01*
X109381724Y-105983183D01*
X109440450Y-105837098D01*
X109462634Y-105681223D01*
X109462778Y-105667500D01*
X109443863Y-105511194D01*
X109388210Y-105363912D01*
X109299031Y-105234157D01*
X109244924Y-105185949D01*
X109187148Y-105134472D01*
X109187145Y-105134470D01*
X109181476Y-105129419D01*
X109167561Y-105122051D01*
X109098339Y-105085400D01*
X109042331Y-105055745D01*
X109025622Y-105051548D01*
X108896998Y-105019240D01*
X108896996Y-105019240D01*
X108889628Y-105017389D01*
X108882030Y-105017349D01*
X108882028Y-105017349D01*
X108814819Y-105016997D01*
X108732184Y-105016565D01*
X108724805Y-105018337D01*
X108724801Y-105018337D01*
X108586467Y-105051548D01*
X108586463Y-105051549D01*
X108579088Y-105053320D01*
X108439179Y-105125532D01*
X108433462Y-105130519D01*
X108433455Y-105130524D01*
X108369921Y-105185949D01*
X108305439Y-105215657D01*
X108287092Y-105217000D01*
X102290819Y-105217000D01*
X102222698Y-105196998D01*
X102177813Y-105146729D01*
X102149851Y-105090027D01*
X102131579Y-105065557D01*
X102032288Y-104932591D01*
X102032287Y-104932590D01*
X102028835Y-104927967D01*
X102005850Y-104906720D01*
X101884553Y-104794594D01*
X101884551Y-104794592D01*
X101880312Y-104790674D01*
X101852874Y-104773362D01*
X101714137Y-104685825D01*
X101709257Y-104682746D01*
X101632953Y-104652304D01*
X101577094Y-104608483D01*
X101553793Y-104541419D01*
X101570449Y-104472404D01*
X101621773Y-104423350D01*
X101643435Y-104414589D01*
X101699744Y-104397695D01*
X101709342Y-104393933D01*
X101900595Y-104300239D01*
X101909445Y-104294964D01*
X102082828Y-104171292D01*
X102090700Y-104164639D01*
X102241552Y-104014312D01*
X102248230Y-104006465D01*
X102372503Y-103833520D01*
X102377813Y-103824683D01*
X102472170Y-103633767D01*
X102475969Y-103624172D01*
X102537877Y-103420410D01*
X102540055Y-103410337D01*
X102541486Y-103399462D01*
X102539275Y-103385278D01*
X102526117Y-103381500D01*
X99890725Y-103381500D01*
X99877194Y-103385473D01*
X99875757Y-103395466D01*
X96558000Y-103395466D01*
X96558000Y-102861683D01*
X99871889Y-102861683D01*
X99873412Y-102870107D01*
X99885792Y-102873500D01*
X102525844Y-102873500D01*
X102539375Y-102869527D01*
X102540680Y-102860447D01*
X102498714Y-102693375D01*
X102495394Y-102683624D01*
X102410472Y-102488314D01*
X102405605Y-102479239D01*
X102289926Y-102300426D01*
X102283636Y-102292257D01*
X102140306Y-102134740D01*
X102132773Y-102127715D01*
X101965639Y-101995722D01*
X101957052Y-101990017D01*
X101770617Y-101887099D01*
X101761205Y-101882869D01*
X101640800Y-101840231D01*
X101583264Y-101798637D01*
X101557348Y-101732539D01*
X101571282Y-101662923D01*
X101620641Y-101611892D01*
X101642355Y-101602146D01*
X101646397Y-101600774D01*
X101651570Y-101599018D01*
X101651572Y-101599017D01*
X101657031Y-101597164D01*
X101833501Y-101498337D01*
X101895933Y-101446413D01*
X101984573Y-101372691D01*
X101989005Y-101369005D01*
X102118337Y-101213501D01*
X102122687Y-101205733D01*
X102180537Y-101102434D01*
X102231274Y-101052772D01*
X102290472Y-101038000D01*
X108267250Y-101038000D01*
X108335371Y-101058002D01*
X108352049Y-101070806D01*
X108407910Y-101121635D01*
X108435671Y-101136708D01*
X108539599Y-101193137D01*
X108539601Y-101193138D01*
X108546276Y-101196762D01*
X108553625Y-101198690D01*
X108691219Y-101234787D01*
X108691221Y-101234787D01*
X108698569Y-101236715D01*
X108781880Y-101238024D01*
X108848398Y-101239069D01*
X108848401Y-101239069D01*
X108855995Y-101239188D01*
X109009468Y-101204038D01*
X109150125Y-101133295D01*
X109186259Y-101102434D01*
X109264074Y-101035974D01*
X109264076Y-101035971D01*
X109269848Y-101031042D01*
X109361724Y-100903183D01*
X109420450Y-100757098D01*
X109442634Y-100601223D01*
X109442778Y-100587500D01*
X109423863Y-100431194D01*
X109371587Y-100292848D01*
X109370894Y-100291014D01*
X109370893Y-100291011D01*
X109368210Y-100283912D01*
X109279031Y-100154157D01*
X109184202Y-100069667D01*
X109167148Y-100054472D01*
X109167145Y-100054470D01*
X109161476Y-100049419D01*
X109147561Y-100042051D01*
X109050521Y-99990671D01*
X109022331Y-99975745D01*
X109005622Y-99971548D01*
X108876998Y-99939240D01*
X108876996Y-99939240D01*
X108869628Y-99937389D01*
X108862030Y-99937349D01*
X108862028Y-99937349D01*
X108794819Y-99936997D01*
X108712184Y-99936565D01*
X108704805Y-99938337D01*
X108704801Y-99938337D01*
X108566467Y-99971548D01*
X108566463Y-99971549D01*
X108559088Y-99973320D01*
X108419179Y-100045532D01*
X108413462Y-100050519D01*
X108413455Y-100050524D01*
X108349921Y-100105949D01*
X108285439Y-100135657D01*
X108267092Y-100137000D01*
X102290819Y-100137000D01*
X102222698Y-100116998D01*
X102177813Y-100066729D01*
X102149851Y-100010027D01*
X102131579Y-99985557D01*
X102032288Y-99852591D01*
X102032287Y-99852590D01*
X102028835Y-99847967D01*
X102005850Y-99826720D01*
X101884553Y-99714594D01*
X101884551Y-99714592D01*
X101880312Y-99710674D01*
X101852874Y-99693362D01*
X101714137Y-99605825D01*
X101709257Y-99602746D01*
X101521398Y-99527798D01*
X101323026Y-99488339D01*
X101317252Y-99488263D01*
X101317248Y-99488263D01*
X101214757Y-99486922D01*
X101120786Y-99485692D01*
X101115089Y-99486671D01*
X101115088Y-99486671D01*
X100927146Y-99518965D01*
X100927145Y-99518965D01*
X100921449Y-99519944D01*
X100731693Y-99589949D01*
X100557871Y-99693362D01*
X100405805Y-99826720D01*
X100280589Y-99985557D01*
X100186414Y-100164553D01*
X100126437Y-100357713D01*
X100102664Y-100558569D01*
X100115892Y-100760394D01*
X100120656Y-100779152D01*
X100153722Y-100909349D01*
X100165678Y-100956428D01*
X100250356Y-101140107D01*
X100253689Y-101144823D01*
X100330208Y-101253095D01*
X100367088Y-101305280D01*
X100511966Y-101446413D01*
X100680137Y-101558782D01*
X100685440Y-101561060D01*
X100685443Y-101561062D01*
X100786209Y-101604354D01*
X100840902Y-101649622D01*
X100862439Y-101717273D01*
X100843982Y-101785829D01*
X100791391Y-101833523D01*
X100775616Y-101839887D01*
X100684368Y-101869712D01*
X100674859Y-101873709D01*
X100485963Y-101972042D01*
X100477238Y-101977536D01*
X100306933Y-102105405D01*
X100299226Y-102112248D01*
X100152090Y-102266217D01*
X100145604Y-102274227D01*
X100025598Y-102450149D01*
X100020500Y-102459123D01*
X99930838Y-102652283D01*
X99927275Y-102661970D01*
X99871889Y-102861683D01*
X96558000Y-102861683D01*
X96558000Y-98018569D01*
X100102664Y-98018569D01*
X100115892Y-98220394D01*
X100117315Y-98225996D01*
X100158100Y-98386588D01*
X100165678Y-98416428D01*
X100250356Y-98600107D01*
X100367088Y-98765280D01*
X100511966Y-98906413D01*
X100680137Y-99018782D01*
X100685440Y-99021060D01*
X100685443Y-99021062D01*
X100773791Y-99059019D01*
X100865970Y-99098622D01*
X101063240Y-99143260D01*
X101069009Y-99143487D01*
X101069012Y-99143487D01*
X101145183Y-99146479D01*
X101265342Y-99151200D01*
X101351632Y-99138689D01*
X101459786Y-99123008D01*
X101459791Y-99123007D01*
X101465507Y-99122178D01*
X101470979Y-99120320D01*
X101470981Y-99120320D01*
X101651567Y-99059019D01*
X101651569Y-99059018D01*
X101657031Y-99057164D01*
X101833501Y-98958337D01*
X101895933Y-98906413D01*
X101984573Y-98832691D01*
X101989005Y-98829005D01*
X102118337Y-98673501D01*
X102122687Y-98665733D01*
X102180537Y-98562434D01*
X102231274Y-98512772D01*
X102290472Y-98498000D01*
X109007250Y-98498000D01*
X109075371Y-98518002D01*
X109092049Y-98530806D01*
X109147910Y-98581635D01*
X109154583Y-98585258D01*
X109279599Y-98653137D01*
X109279601Y-98653138D01*
X109286276Y-98656762D01*
X109293625Y-98658690D01*
X109431219Y-98694787D01*
X109431221Y-98694787D01*
X109438569Y-98696715D01*
X109521880Y-98698024D01*
X109588398Y-98699069D01*
X109588401Y-98699069D01*
X109595995Y-98699188D01*
X109749468Y-98664038D01*
X109890125Y-98593295D01*
X109926259Y-98562434D01*
X110004074Y-98495974D01*
X110004076Y-98495971D01*
X110009848Y-98491042D01*
X110101724Y-98363183D01*
X110160450Y-98217098D01*
X110182634Y-98061223D01*
X110182778Y-98047500D01*
X110163863Y-97891194D01*
X110108210Y-97743912D01*
X110019031Y-97614157D01*
X109964924Y-97565949D01*
X109907148Y-97514472D01*
X109907145Y-97514470D01*
X109901476Y-97509419D01*
X109887561Y-97502051D01*
X109827078Y-97470027D01*
X109762331Y-97435745D01*
X109745622Y-97431548D01*
X109616998Y-97399240D01*
X109616996Y-97399240D01*
X109609628Y-97397389D01*
X109602030Y-97397349D01*
X109602028Y-97397349D01*
X109534819Y-97396997D01*
X109452184Y-97396565D01*
X109444805Y-97398337D01*
X109444801Y-97398337D01*
X109306467Y-97431548D01*
X109306463Y-97431549D01*
X109299088Y-97433320D01*
X109159179Y-97505532D01*
X109153462Y-97510519D01*
X109153455Y-97510524D01*
X109089921Y-97565949D01*
X109025439Y-97595657D01*
X109007092Y-97597000D01*
X102290819Y-97597000D01*
X102222698Y-97576998D01*
X102177813Y-97526729D01*
X102149851Y-97470027D01*
X102131579Y-97445557D01*
X102032288Y-97312591D01*
X102032287Y-97312590D01*
X102028835Y-97307967D01*
X102005850Y-97286720D01*
X101884553Y-97174594D01*
X101884551Y-97174592D01*
X101880312Y-97170674D01*
X101852874Y-97153362D01*
X101714137Y-97065825D01*
X101709257Y-97062746D01*
X101521398Y-96987798D01*
X101323026Y-96948339D01*
X101317252Y-96948263D01*
X101317248Y-96948263D01*
X101214757Y-96946922D01*
X101120786Y-96945692D01*
X101115089Y-96946671D01*
X101115088Y-96946671D01*
X100927146Y-96978965D01*
X100927145Y-96978965D01*
X100921449Y-96979944D01*
X100731693Y-97049949D01*
X100557871Y-97153362D01*
X100405805Y-97286720D01*
X100280589Y-97445557D01*
X100186414Y-97624553D01*
X100126437Y-97817713D01*
X100102664Y-98018569D01*
X96558000Y-98018569D01*
X96558000Y-95478569D01*
X100102664Y-95478569D01*
X100115892Y-95680394D01*
X100165678Y-95876428D01*
X100250356Y-96060107D01*
X100367088Y-96225280D01*
X100511966Y-96366413D01*
X100680137Y-96478782D01*
X100685440Y-96481060D01*
X100685443Y-96481062D01*
X100773791Y-96519019D01*
X100865970Y-96558622D01*
X101063240Y-96603260D01*
X101069009Y-96603487D01*
X101069012Y-96603487D01*
X101145183Y-96606479D01*
X101265342Y-96611200D01*
X101351632Y-96598689D01*
X101459786Y-96583008D01*
X101459791Y-96583007D01*
X101465507Y-96582178D01*
X101470979Y-96580320D01*
X101470981Y-96580320D01*
X101651567Y-96519019D01*
X101651569Y-96519018D01*
X101657031Y-96517164D01*
X101833501Y-96418337D01*
X101895933Y-96366413D01*
X101984573Y-96292691D01*
X101989005Y-96289005D01*
X102118337Y-96133501D01*
X102217164Y-95957031D01*
X102226001Y-95931000D01*
X102280320Y-95770981D01*
X102280320Y-95770979D01*
X102282178Y-95765507D01*
X102283007Y-95759791D01*
X102283008Y-95759786D01*
X102302295Y-95626759D01*
X102311200Y-95565342D01*
X102312715Y-95507500D01*
X102294208Y-95306091D01*
X102239307Y-95111426D01*
X102154168Y-94938782D01*
X102152406Y-94935208D01*
X102149851Y-94930027D01*
X102131579Y-94905557D01*
X102032288Y-94772591D01*
X102032287Y-94772590D01*
X102028835Y-94767967D01*
X102005850Y-94746720D01*
X101884553Y-94634594D01*
X101884551Y-94634592D01*
X101880312Y-94630674D01*
X101852874Y-94613362D01*
X101714137Y-94525825D01*
X101709257Y-94522746D01*
X101521398Y-94447798D01*
X101323026Y-94408339D01*
X101317252Y-94408263D01*
X101317248Y-94408263D01*
X101214757Y-94406922D01*
X101120786Y-94405692D01*
X101115089Y-94406671D01*
X101115088Y-94406671D01*
X100927146Y-94438965D01*
X100927145Y-94438965D01*
X100921449Y-94439944D01*
X100731693Y-94509949D01*
X100557871Y-94613362D01*
X100405805Y-94746720D01*
X100280589Y-94905557D01*
X100186414Y-95084553D01*
X100126437Y-95277713D01*
X100102664Y-95478569D01*
X96558000Y-95478569D01*
X96558000Y-92938569D01*
X100102664Y-92938569D01*
X100115892Y-93140394D01*
X100165678Y-93336428D01*
X100250356Y-93520107D01*
X100367088Y-93685280D01*
X100511966Y-93826413D01*
X100680137Y-93938782D01*
X100685440Y-93941060D01*
X100685443Y-93941062D01*
X100773791Y-93979019D01*
X100865970Y-94018622D01*
X101063240Y-94063260D01*
X101069009Y-94063487D01*
X101069012Y-94063487D01*
X101145183Y-94066479D01*
X101265342Y-94071200D01*
X101351632Y-94058689D01*
X101459786Y-94043008D01*
X101459791Y-94043007D01*
X101465507Y-94042178D01*
X101470979Y-94040320D01*
X101470981Y-94040320D01*
X101651567Y-93979019D01*
X101651569Y-93979018D01*
X101657031Y-93977164D01*
X101833501Y-93878337D01*
X101895933Y-93826413D01*
X101984573Y-93752691D01*
X101989005Y-93749005D01*
X102118337Y-93593501D01*
X102161179Y-93517000D01*
X102180537Y-93482434D01*
X102231274Y-93432772D01*
X102290472Y-93418000D01*
X106213707Y-93418000D01*
X106281828Y-93438002D01*
X106302802Y-93454905D01*
X111460095Y-98612199D01*
X111494121Y-98674511D01*
X111497000Y-98701294D01*
X111497000Y-100076530D01*
X111476998Y-100144651D01*
X111465520Y-100159684D01*
X111460534Y-100164033D01*
X111370001Y-100292848D01*
X111312809Y-100439539D01*
X111292258Y-100595638D01*
X111309535Y-100752133D01*
X111363643Y-100899990D01*
X111367880Y-100906296D01*
X111367882Y-100906299D01*
X111401568Y-100956428D01*
X111451458Y-101030672D01*
X111473770Y-101050974D01*
X111530324Y-101102434D01*
X111567910Y-101136635D01*
X111589385Y-101148295D01*
X111699599Y-101208137D01*
X111699601Y-101208138D01*
X111706276Y-101211762D01*
X111713625Y-101213690D01*
X111851219Y-101249787D01*
X111851221Y-101249787D01*
X111858569Y-101251715D01*
X111941880Y-101253024D01*
X112008398Y-101254069D01*
X112008401Y-101254069D01*
X112015995Y-101254188D01*
X112169468Y-101219038D01*
X112310125Y-101148295D01*
X112353502Y-101111248D01*
X112424074Y-101050974D01*
X112424076Y-101050971D01*
X112429848Y-101046042D01*
X112521724Y-100918183D01*
X112580450Y-100772098D01*
X112602634Y-100616223D01*
X112602778Y-100602500D01*
X112583863Y-100446194D01*
X112550429Y-100357713D01*
X112530894Y-100306014D01*
X112530893Y-100306011D01*
X112528210Y-100298912D01*
X112439031Y-100169157D01*
X112433365Y-100164109D01*
X112429486Y-100159709D01*
X112399441Y-100095383D01*
X112398000Y-100076384D01*
X112398000Y-98496720D01*
X112398873Y-98481911D01*
X112401757Y-98457543D01*
X112402864Y-98448190D01*
X112401172Y-98438926D01*
X112401172Y-98438922D01*
X112392327Y-98390489D01*
X112391678Y-98386588D01*
X112384351Y-98337855D01*
X112384349Y-98337847D01*
X112382949Y-98328538D01*
X112379823Y-98322028D01*
X112378526Y-98314927D01*
X112351482Y-98262863D01*
X112349714Y-98259325D01*
X112328386Y-98214911D01*
X112324309Y-98206421D01*
X112319426Y-98201140D01*
X112319391Y-98201088D01*
X112316080Y-98194712D01*
X112311776Y-98189672D01*
X112274536Y-98152432D01*
X112271106Y-98148866D01*
X112238745Y-98113857D01*
X112238742Y-98113855D01*
X112232354Y-98106944D01*
X112225998Y-98103253D01*
X112219844Y-98097740D01*
X106795253Y-92673150D01*
X106785399Y-92662061D01*
X106770207Y-92642791D01*
X106770205Y-92642789D01*
X106764372Y-92635390D01*
X106756625Y-92630035D01*
X106756623Y-92630034D01*
X106716125Y-92602045D01*
X106712903Y-92599743D01*
X106673258Y-92570460D01*
X106673257Y-92570459D01*
X106665684Y-92564866D01*
X106658868Y-92562473D01*
X106652931Y-92558369D01*
X106643951Y-92555529D01*
X106643949Y-92555528D01*
X106623783Y-92549150D01*
X106596981Y-92540674D01*
X106593250Y-92539429D01*
X106546763Y-92523104D01*
X106546761Y-92523104D01*
X106537869Y-92519981D01*
X106530681Y-92519699D01*
X106530622Y-92519688D01*
X106523770Y-92517520D01*
X106517163Y-92517000D01*
X106464484Y-92517000D01*
X106459537Y-92516903D01*
X106402506Y-92514662D01*
X106395400Y-92516546D01*
X106387153Y-92517000D01*
X102290819Y-92517000D01*
X102222698Y-92496998D01*
X102177813Y-92446729D01*
X102171706Y-92434345D01*
X102149851Y-92390027D01*
X102131579Y-92365557D01*
X102032288Y-92232591D01*
X102032287Y-92232590D01*
X102028835Y-92227967D01*
X102005850Y-92206720D01*
X101884553Y-92094594D01*
X101884551Y-92094592D01*
X101880312Y-92090674D01*
X101852874Y-92073362D01*
X101714137Y-91985825D01*
X101709257Y-91982746D01*
X101521398Y-91907798D01*
X101323026Y-91868339D01*
X101317252Y-91868263D01*
X101317248Y-91868263D01*
X101214757Y-91866922D01*
X101120786Y-91865692D01*
X101115089Y-91866671D01*
X101115088Y-91866671D01*
X100927146Y-91898965D01*
X100927145Y-91898965D01*
X100921449Y-91899944D01*
X100731693Y-91969949D01*
X100557871Y-92073362D01*
X100405805Y-92206720D01*
X100280589Y-92365557D01*
X100186414Y-92544553D01*
X100126437Y-92737713D01*
X100102664Y-92938569D01*
X96558000Y-92938569D01*
X96558000Y-90398569D01*
X100102664Y-90398569D01*
X100115892Y-90600394D01*
X100165678Y-90796428D01*
X100250356Y-90980107D01*
X100253689Y-90984823D01*
X100361564Y-91137463D01*
X100367088Y-91145280D01*
X100511966Y-91286413D01*
X100516770Y-91289623D01*
X100570175Y-91325307D01*
X100680137Y-91398782D01*
X100685440Y-91401060D01*
X100685443Y-91401062D01*
X100860663Y-91476342D01*
X100865970Y-91478622D01*
X101063240Y-91523260D01*
X101069009Y-91523487D01*
X101069012Y-91523487D01*
X101145183Y-91526479D01*
X101265342Y-91531200D01*
X101351632Y-91518689D01*
X101459786Y-91503008D01*
X101459791Y-91503007D01*
X101465507Y-91502178D01*
X101470979Y-91500320D01*
X101470981Y-91500320D01*
X101651567Y-91439019D01*
X101651569Y-91439018D01*
X101657031Y-91437164D01*
X101833501Y-91338337D01*
X101895933Y-91286413D01*
X101984573Y-91212691D01*
X101989005Y-91209005D01*
X102118337Y-91053501D01*
X102146108Y-91003912D01*
X102180537Y-90942434D01*
X102231274Y-90892772D01*
X102290472Y-90878000D01*
X120060766Y-90878000D01*
X120128887Y-90898002D01*
X120145563Y-90910805D01*
X120192420Y-90953441D01*
X120210589Y-90969973D01*
X120217910Y-90976635D01*
X120239385Y-90988295D01*
X120349599Y-91048137D01*
X120349601Y-91048138D01*
X120356276Y-91051762D01*
X120363625Y-91053690D01*
X120501219Y-91089787D01*
X120501221Y-91089787D01*
X120508569Y-91091715D01*
X120591880Y-91093024D01*
X120658398Y-91094069D01*
X120658401Y-91094069D01*
X120665995Y-91094188D01*
X120819468Y-91059038D01*
X120960125Y-90988295D01*
X121000934Y-90953441D01*
X121074074Y-90890974D01*
X121074076Y-90890971D01*
X121079848Y-90886042D01*
X121171724Y-90758183D01*
X121230450Y-90612098D01*
X121252634Y-90456223D01*
X121252778Y-90442500D01*
X121233863Y-90286194D01*
X121200429Y-90197713D01*
X121180894Y-90146014D01*
X121180893Y-90146011D01*
X121178210Y-90138912D01*
X121089031Y-90009157D01*
X121011296Y-89939897D01*
X120977148Y-89909472D01*
X120977145Y-89909470D01*
X120971476Y-89904419D01*
X120832331Y-89830745D01*
X120767573Y-89814479D01*
X120686998Y-89794240D01*
X120686996Y-89794240D01*
X120679628Y-89792389D01*
X120672030Y-89792349D01*
X120672028Y-89792349D01*
X120604819Y-89791997D01*
X120522184Y-89791565D01*
X120514805Y-89793337D01*
X120514801Y-89793337D01*
X120376467Y-89826548D01*
X120376463Y-89826549D01*
X120369088Y-89828320D01*
X120229179Y-89900532D01*
X120223457Y-89905524D01*
X120223455Y-89905525D01*
X120177116Y-89945949D01*
X120112634Y-89975657D01*
X120094287Y-89977000D01*
X102290819Y-89977000D01*
X102222698Y-89956998D01*
X102177813Y-89906729D01*
X102149851Y-89850027D01*
X102135453Y-89830745D01*
X102032288Y-89692591D01*
X102032287Y-89692590D01*
X102028835Y-89687967D01*
X102005850Y-89666720D01*
X101884553Y-89554594D01*
X101884551Y-89554592D01*
X101880312Y-89550674D01*
X101852874Y-89533362D01*
X101714137Y-89445825D01*
X101709257Y-89442746D01*
X101521398Y-89367798D01*
X101323026Y-89328339D01*
X101317252Y-89328263D01*
X101317248Y-89328263D01*
X101214757Y-89326922D01*
X101120786Y-89325692D01*
X101115089Y-89326671D01*
X101115088Y-89326671D01*
X100927146Y-89358965D01*
X100927145Y-89358965D01*
X100921449Y-89359944D01*
X100731693Y-89429949D01*
X100557871Y-89533362D01*
X100405805Y-89666720D01*
X100280589Y-89825557D01*
X100186414Y-90004553D01*
X100126437Y-90197713D01*
X100102664Y-90398569D01*
X96558000Y-90398569D01*
X96558000Y-75310638D01*
X112992258Y-75310638D01*
X113009535Y-75467133D01*
X113063643Y-75614990D01*
X113067880Y-75621296D01*
X113067882Y-75621299D01*
X113101858Y-75671860D01*
X113151458Y-75745672D01*
X113267910Y-75851635D01*
X113289385Y-75863295D01*
X113399599Y-75923137D01*
X113399601Y-75923138D01*
X113406276Y-75926762D01*
X113413625Y-75928690D01*
X113551219Y-75964787D01*
X113551221Y-75964787D01*
X113558569Y-75966715D01*
X113641880Y-75968024D01*
X113708398Y-75969069D01*
X113708401Y-75969069D01*
X113715995Y-75969188D01*
X113869468Y-75934038D01*
X114010125Y-75863295D01*
X114015897Y-75858366D01*
X114015899Y-75858364D01*
X114063811Y-75817443D01*
X114086355Y-75798189D01*
X114151144Y-75769158D01*
X114168185Y-75768000D01*
X116198707Y-75768000D01*
X116266828Y-75788002D01*
X116287802Y-75804905D01*
X124484570Y-84001673D01*
X124518596Y-84063985D01*
X124520714Y-84076941D01*
X124534535Y-84202133D01*
X124588643Y-84349990D01*
X124592880Y-84356296D01*
X124592882Y-84356299D01*
X124621027Y-84398183D01*
X124676458Y-84480672D01*
X124726319Y-84526042D01*
X124758133Y-84554990D01*
X124792910Y-84586635D01*
X124848163Y-84616635D01*
X124924599Y-84658137D01*
X124924601Y-84658138D01*
X124931276Y-84661762D01*
X124938625Y-84663690D01*
X125076219Y-84699787D01*
X125076221Y-84699787D01*
X125083569Y-84701715D01*
X125166880Y-84703024D01*
X125233398Y-84704069D01*
X125233401Y-84704069D01*
X125240995Y-84704188D01*
X125394468Y-84669038D01*
X125535125Y-84598295D01*
X125619045Y-84526621D01*
X125649074Y-84500974D01*
X125649076Y-84500971D01*
X125654848Y-84496042D01*
X125746724Y-84368183D01*
X125805450Y-84222098D01*
X125819748Y-84121634D01*
X125827053Y-84070307D01*
X125827053Y-84070304D01*
X125827634Y-84066223D01*
X125827778Y-84052500D01*
X125808863Y-83896194D01*
X125804789Y-83885411D01*
X125755894Y-83756014D01*
X125755893Y-83756011D01*
X125753210Y-83748912D01*
X125664031Y-83619157D01*
X125593740Y-83556530D01*
X125552148Y-83519472D01*
X125552145Y-83519470D01*
X125546476Y-83514419D01*
X125407331Y-83440745D01*
X125399966Y-83438895D01*
X125261999Y-83404240D01*
X125261995Y-83404240D01*
X125254628Y-83402389D01*
X125247027Y-83402349D01*
X125247026Y-83402349D01*
X125210793Y-83402159D01*
X125142778Y-83381800D01*
X125122359Y-83365256D01*
X116780253Y-75023150D01*
X116770399Y-75012061D01*
X116755207Y-74992791D01*
X116755205Y-74992789D01*
X116749372Y-74985390D01*
X116741625Y-74980035D01*
X116741623Y-74980034D01*
X116701125Y-74952045D01*
X116697903Y-74949743D01*
X116693639Y-74946593D01*
X116650684Y-74914866D01*
X116643868Y-74912473D01*
X116637931Y-74908369D01*
X116628951Y-74905529D01*
X116628949Y-74905528D01*
X116608783Y-74899150D01*
X116581981Y-74890674D01*
X116578250Y-74889429D01*
X116531763Y-74873104D01*
X116531761Y-74873104D01*
X116522869Y-74869981D01*
X116515681Y-74869699D01*
X116515622Y-74869688D01*
X116508770Y-74867520D01*
X116502163Y-74867000D01*
X116449484Y-74867000D01*
X116444537Y-74866903D01*
X116387506Y-74864662D01*
X116380400Y-74866546D01*
X116372153Y-74867000D01*
X114167763Y-74867000D01*
X114099642Y-74846998D01*
X114083944Y-74835076D01*
X114045292Y-74800638D01*
X128452258Y-74800638D01*
X128469535Y-74957133D01*
X128523643Y-75104990D01*
X128527880Y-75111296D01*
X128527882Y-75111299D01*
X128545640Y-75137725D01*
X128611458Y-75235672D01*
X128727910Y-75341635D01*
X128734585Y-75345259D01*
X128859599Y-75413137D01*
X128859601Y-75413138D01*
X128866276Y-75416762D01*
X128873625Y-75418690D01*
X129011219Y-75454787D01*
X129011221Y-75454787D01*
X129018569Y-75456715D01*
X129080286Y-75457685D01*
X129142036Y-75458655D01*
X129209834Y-75479724D01*
X129229151Y-75495544D01*
X129346591Y-75612984D01*
X129346595Y-75612987D01*
X129369158Y-75635550D01*
X129377997Y-75640054D01*
X129377999Y-75640055D01*
X129388758Y-75645537D01*
X129405613Y-75655865D01*
X129415388Y-75662967D01*
X129423411Y-75668796D01*
X129444330Y-75675593D01*
X129462592Y-75683158D01*
X129473359Y-75688644D01*
X129473363Y-75688645D01*
X129482196Y-75693146D01*
X129491987Y-75694697D01*
X129491988Y-75694697D01*
X129503922Y-75696587D01*
X129523147Y-75701203D01*
X129534632Y-75704935D01*
X129534636Y-75704936D01*
X129544067Y-75708000D01*
X143370933Y-75708000D01*
X143380364Y-75704936D01*
X143380368Y-75704935D01*
X143391853Y-75701203D01*
X143411078Y-75696587D01*
X143423012Y-75694697D01*
X143423013Y-75694697D01*
X143432804Y-75693146D01*
X143441637Y-75688645D01*
X143441641Y-75688644D01*
X143452406Y-75683159D01*
X143470666Y-75675595D01*
X143491590Y-75668796D01*
X143509393Y-75655861D01*
X143526245Y-75645535D01*
X143537002Y-75640054D01*
X143545842Y-75635550D01*
X143568405Y-75612987D01*
X143568409Y-75612984D01*
X146012984Y-73168409D01*
X146012987Y-73168405D01*
X146035550Y-73145842D01*
X146040052Y-73137007D01*
X146045537Y-73126243D01*
X146055866Y-73109387D01*
X146062967Y-73099613D01*
X146068797Y-73091589D01*
X146075596Y-73070664D01*
X146083160Y-73052403D01*
X146088644Y-73041640D01*
X146088644Y-73041639D01*
X146093146Y-73032804D01*
X146096587Y-73011078D01*
X146101203Y-72991852D01*
X146104935Y-72980367D01*
X146104935Y-72980365D01*
X146108000Y-72970933D01*
X146108000Y-72279034D01*
X146128002Y-72210913D01*
X146152169Y-72183223D01*
X146184076Y-72155972D01*
X146184077Y-72155971D01*
X146189848Y-72151042D01*
X146281724Y-72023183D01*
X146340450Y-71877098D01*
X146362634Y-71721223D01*
X146362778Y-71707500D01*
X146343863Y-71551194D01*
X146316277Y-71478189D01*
X146290894Y-71411014D01*
X146290893Y-71411011D01*
X146288210Y-71403912D01*
X146199031Y-71274157D01*
X146152471Y-71232674D01*
X146087148Y-71174472D01*
X146087145Y-71174470D01*
X146081476Y-71169419D01*
X145942331Y-71095745D01*
X145908304Y-71087198D01*
X145796998Y-71059240D01*
X145796996Y-71059240D01*
X145789628Y-71057389D01*
X145782030Y-71057349D01*
X145782028Y-71057349D01*
X145714819Y-71056997D01*
X145632184Y-71056565D01*
X145624805Y-71058337D01*
X145624801Y-71058337D01*
X145486467Y-71091548D01*
X145486463Y-71091549D01*
X145479088Y-71093320D01*
X145472343Y-71096801D01*
X145472344Y-71096801D01*
X145361009Y-71154265D01*
X145339179Y-71165532D01*
X145333457Y-71170524D01*
X145333455Y-71170525D01*
X145226259Y-71264038D01*
X145226256Y-71264041D01*
X145220534Y-71269033D01*
X145197857Y-71301299D01*
X145135841Y-71389539D01*
X145130001Y-71397848D01*
X145072809Y-71544539D01*
X145068712Y-71575657D01*
X145059032Y-71649188D01*
X145052258Y-71700638D01*
X145069535Y-71857133D01*
X145123643Y-72004990D01*
X145127880Y-72011296D01*
X145127882Y-72011299D01*
X145168209Y-72071311D01*
X145211458Y-72135672D01*
X145217076Y-72140784D01*
X145265799Y-72185118D01*
X145302722Y-72245758D01*
X145307000Y-72278312D01*
X145307000Y-72689417D01*
X145286998Y-72757538D01*
X145270095Y-72778512D01*
X143178512Y-74870095D01*
X143116200Y-74904121D01*
X143089417Y-74907000D01*
X129886490Y-74907000D01*
X129818369Y-74886998D01*
X129771876Y-74833342D01*
X129761403Y-74796137D01*
X129752562Y-74723077D01*
X129743863Y-74651194D01*
X129721645Y-74592395D01*
X129690894Y-74511014D01*
X129690893Y-74511011D01*
X129688210Y-74503912D01*
X129599031Y-74374157D01*
X129510081Y-74294905D01*
X129487148Y-74274472D01*
X129487145Y-74274470D01*
X129481476Y-74269419D01*
X129342331Y-74195745D01*
X129325622Y-74191548D01*
X129196998Y-74159240D01*
X129196996Y-74159240D01*
X129189628Y-74157389D01*
X129182030Y-74157349D01*
X129182028Y-74157349D01*
X129114819Y-74156997D01*
X129032184Y-74156565D01*
X129024805Y-74158337D01*
X129024801Y-74158337D01*
X128886467Y-74191548D01*
X128886463Y-74191549D01*
X128879088Y-74193320D01*
X128739179Y-74265532D01*
X128733457Y-74270524D01*
X128733455Y-74270525D01*
X128626259Y-74364038D01*
X128626256Y-74364041D01*
X128620534Y-74369033D01*
X128616167Y-74375247D01*
X128562456Y-74451670D01*
X128530001Y-74497848D01*
X128472809Y-74644539D01*
X128471818Y-74652068D01*
X128455052Y-74779419D01*
X128452258Y-74800638D01*
X114045292Y-74800638D01*
X114027148Y-74784472D01*
X114027145Y-74784470D01*
X114021476Y-74779419D01*
X113882331Y-74705745D01*
X113865622Y-74701548D01*
X113736998Y-74669240D01*
X113736996Y-74669240D01*
X113729628Y-74667389D01*
X113722030Y-74667349D01*
X113722028Y-74667349D01*
X113654819Y-74666997D01*
X113572184Y-74666565D01*
X113564805Y-74668337D01*
X113564801Y-74668337D01*
X113426467Y-74701548D01*
X113426463Y-74701549D01*
X113419088Y-74703320D01*
X113279179Y-74775532D01*
X113273457Y-74780524D01*
X113273455Y-74780525D01*
X113166259Y-74874038D01*
X113166256Y-74874041D01*
X113160534Y-74879033D01*
X113139981Y-74908277D01*
X113084539Y-74987163D01*
X113070001Y-75007848D01*
X113012809Y-75154539D01*
X113011818Y-75162068D01*
X113002128Y-75235672D01*
X112992258Y-75310638D01*
X96558000Y-75310638D01*
X96558000Y-54344585D01*
X96560421Y-54320004D01*
X96560487Y-54319673D01*
X96560487Y-54319671D01*
X96562908Y-54307500D01*
X96560486Y-54295327D01*
X96560486Y-54284381D01*
X96559546Y-54272090D01*
X96575833Y-53899052D01*
X96576791Y-53888101D01*
X96629439Y-53488207D01*
X96631348Y-53477383D01*
X96678467Y-53264841D01*
X97252491Y-53264841D01*
X97266775Y-53605646D01*
X97267313Y-53609119D01*
X97312197Y-53899052D01*
X97318959Y-53942734D01*
X97408392Y-54271905D01*
X97409682Y-54275164D01*
X97409684Y-54275169D01*
X97414474Y-54287267D01*
X97533961Y-54589055D01*
X97535607Y-54592151D01*
X97535609Y-54592155D01*
X97655793Y-54818188D01*
X97694100Y-54890232D01*
X97696085Y-54893131D01*
X97884821Y-55168774D01*
X97884826Y-55168780D01*
X97886812Y-55171681D01*
X98109696Y-55429895D01*
X98112266Y-55432275D01*
X98112270Y-55432279D01*
X98203253Y-55516530D01*
X98359974Y-55661655D01*
X98362796Y-55663736D01*
X98362799Y-55663738D01*
X98455158Y-55731831D01*
X98634526Y-55864072D01*
X98637563Y-55865826D01*
X98637567Y-55865828D01*
X98751983Y-55931886D01*
X98929931Y-56034624D01*
X98933152Y-56036031D01*
X99239283Y-56169777D01*
X99239293Y-56169781D01*
X99242505Y-56171184D01*
X99245862Y-56172223D01*
X99245867Y-56172225D01*
X99564994Y-56271011D01*
X99568354Y-56272051D01*
X99571810Y-56272710D01*
X99571809Y-56272710D01*
X99899965Y-56335310D01*
X99899971Y-56335311D01*
X99903416Y-56335968D01*
X100082127Y-56349719D01*
X100240017Y-56361868D01*
X100240018Y-56361868D01*
X100243514Y-56362137D01*
X100456273Y-56354707D01*
X100580895Y-56350356D01*
X100580900Y-56350356D01*
X100584410Y-56350233D01*
X100753132Y-56325318D01*
X100918376Y-56300917D01*
X100918381Y-56300916D01*
X100921855Y-56300403D01*
X100925247Y-56299507D01*
X100925251Y-56299506D01*
X101248251Y-56214166D01*
X101248252Y-56214166D01*
X101251642Y-56213270D01*
X101569661Y-56089918D01*
X101871948Y-55931886D01*
X102154736Y-55741143D01*
X102243673Y-55665452D01*
X102411826Y-55522342D01*
X102411827Y-55522341D01*
X102414499Y-55520067D01*
X102534741Y-55392023D01*
X102645590Y-55273981D01*
X102645594Y-55273976D01*
X102648001Y-55271413D01*
X102650106Y-55268599D01*
X102650112Y-55268592D01*
X102850221Y-55001100D01*
X102852330Y-54998281D01*
X102854753Y-54994152D01*
X102958393Y-54817500D01*
X102962419Y-54810638D01*
X106252258Y-54810638D01*
X106269535Y-54967133D01*
X106323643Y-55114990D01*
X106327880Y-55121296D01*
X106327882Y-55121299D01*
X106358136Y-55166321D01*
X106411458Y-55245672D01*
X106417076Y-55250784D01*
X106465799Y-55295118D01*
X106502722Y-55355758D01*
X106507000Y-55388312D01*
X106507000Y-59900933D01*
X106510064Y-59910364D01*
X106510065Y-59910368D01*
X106513797Y-59921853D01*
X106518413Y-59941078D01*
X106521854Y-59962804D01*
X106526355Y-59971637D01*
X106526356Y-59971641D01*
X106531841Y-59982406D01*
X106539405Y-60000666D01*
X106546204Y-60021590D01*
X106559139Y-60039393D01*
X106569465Y-60056245D01*
X106579450Y-60075842D01*
X106602013Y-60098405D01*
X106602016Y-60098409D01*
X109978156Y-63474548D01*
X113322859Y-66819251D01*
X113356885Y-66881563D01*
X113358686Y-66924791D01*
X113357258Y-66935638D01*
X113374535Y-67092133D01*
X113428643Y-67239990D01*
X113432880Y-67246296D01*
X113432882Y-67246299D01*
X113461241Y-67288501D01*
X113516458Y-67370672D01*
X113632910Y-67476635D01*
X113649486Y-67485635D01*
X113764599Y-67548137D01*
X113764601Y-67548138D01*
X113771276Y-67551762D01*
X113778625Y-67553690D01*
X113916219Y-67589787D01*
X113916221Y-67589787D01*
X113923569Y-67591715D01*
X114006880Y-67593024D01*
X114073398Y-67594069D01*
X114073401Y-67594069D01*
X114080995Y-67594188D01*
X114234468Y-67559038D01*
X114375125Y-67488295D01*
X114426982Y-67444005D01*
X114489074Y-67390974D01*
X114489076Y-67390971D01*
X114494848Y-67386042D01*
X114586724Y-67258183D01*
X114645450Y-67112098D01*
X114657728Y-67025826D01*
X114667053Y-66960307D01*
X114667053Y-66960304D01*
X114667634Y-66956223D01*
X114667778Y-66942500D01*
X114648863Y-66786194D01*
X114610208Y-66683895D01*
X114595894Y-66646014D01*
X114595893Y-66646011D01*
X114593210Y-66638912D01*
X114504031Y-66509157D01*
X114443838Y-66455527D01*
X114392148Y-66409472D01*
X114392145Y-66409470D01*
X114386476Y-66404419D01*
X114247331Y-66330745D01*
X114174547Y-66312463D01*
X114101998Y-66294240D01*
X114101996Y-66294240D01*
X114094628Y-66292389D01*
X114087030Y-66292349D01*
X114087028Y-66292349D01*
X114049633Y-66292154D01*
X113979712Y-66291788D01*
X113911698Y-66271430D01*
X113891277Y-66254885D01*
X107344905Y-59708512D01*
X107310879Y-59646200D01*
X107308000Y-59619417D01*
X107308000Y-56931322D01*
X108802000Y-56931322D01*
X108817157Y-57061328D01*
X108819653Y-57068205D01*
X108819654Y-57068208D01*
X108874372Y-57218952D01*
X108876869Y-57225831D01*
X108972823Y-57372185D01*
X109099872Y-57492540D01*
X109251202Y-57580439D01*
X109418693Y-57631167D01*
X109593362Y-57642003D01*
X109600578Y-57640763D01*
X109600580Y-57640763D01*
X109758625Y-57613606D01*
X109758627Y-57613605D01*
X109765840Y-57612366D01*
X109926873Y-57543846D01*
X110067824Y-57440117D01*
X110072563Y-57434539D01*
X110072566Y-57434536D01*
X110176393Y-57312324D01*
X110176396Y-57312320D01*
X110181132Y-57306745D01*
X110260719Y-57150884D01*
X110302315Y-56980894D01*
X110303000Y-56969852D01*
X110303000Y-56238503D01*
X110323002Y-56170382D01*
X110376658Y-56123889D01*
X110446932Y-56113785D01*
X110511512Y-56143279D01*
X110528961Y-56161798D01*
X110572049Y-56217951D01*
X110692267Y-56310198D01*
X110832264Y-56368187D01*
X110944780Y-56383000D01*
X111020220Y-56383000D01*
X111132736Y-56368187D01*
X111272733Y-56310198D01*
X111392951Y-56217951D01*
X111485198Y-56097733D01*
X111543187Y-55957736D01*
X111562966Y-55807500D01*
X116182034Y-55807500D01*
X116201813Y-55957736D01*
X116259802Y-56097733D01*
X116352049Y-56217951D01*
X116472267Y-56310198D01*
X116612264Y-56368187D01*
X116724780Y-56383000D01*
X116800220Y-56383000D01*
X116912736Y-56368187D01*
X117052733Y-56310198D01*
X117172951Y-56217951D01*
X117216038Y-56161799D01*
X117273376Y-56119932D01*
X117344247Y-56115710D01*
X117406149Y-56150474D01*
X117439431Y-56213187D01*
X117442000Y-56238503D01*
X117442000Y-56931322D01*
X117457157Y-57061328D01*
X117459653Y-57068205D01*
X117459654Y-57068208D01*
X117514372Y-57218952D01*
X117516869Y-57225831D01*
X117612823Y-57372185D01*
X117739872Y-57492540D01*
X117891202Y-57580439D01*
X118058693Y-57631167D01*
X118233362Y-57642003D01*
X118240578Y-57640763D01*
X118240580Y-57640763D01*
X118398625Y-57613606D01*
X118398627Y-57613605D01*
X118405840Y-57612366D01*
X118566873Y-57543846D01*
X118707824Y-57440117D01*
X118712563Y-57434539D01*
X118712566Y-57434536D01*
X118816393Y-57312324D01*
X118816396Y-57312320D01*
X118821132Y-57306745D01*
X118900719Y-57150884D01*
X118942315Y-56980894D01*
X118943000Y-56969852D01*
X118943000Y-56931322D01*
X123947000Y-56931322D01*
X123962157Y-57061328D01*
X123964653Y-57068205D01*
X123964654Y-57068208D01*
X124019372Y-57218952D01*
X124021869Y-57225831D01*
X124117823Y-57372185D01*
X124244872Y-57492540D01*
X124396202Y-57580439D01*
X124563693Y-57631167D01*
X124738362Y-57642003D01*
X124745578Y-57640763D01*
X124745580Y-57640763D01*
X124903625Y-57613606D01*
X124903627Y-57613605D01*
X124910840Y-57612366D01*
X125071873Y-57543846D01*
X125212824Y-57440117D01*
X125217563Y-57434539D01*
X125217566Y-57434536D01*
X125321393Y-57312324D01*
X125321396Y-57312320D01*
X125326132Y-57306745D01*
X125405719Y-57150884D01*
X125447315Y-56980894D01*
X125448000Y-56969852D01*
X125448000Y-56238503D01*
X125468002Y-56170382D01*
X125521658Y-56123889D01*
X125591932Y-56113785D01*
X125656512Y-56143279D01*
X125673961Y-56161798D01*
X125717049Y-56217951D01*
X125837267Y-56310198D01*
X125977264Y-56368187D01*
X126089780Y-56383000D01*
X126165220Y-56383000D01*
X126277736Y-56368187D01*
X126417733Y-56310198D01*
X126537951Y-56217951D01*
X126630198Y-56097733D01*
X126688187Y-55957736D01*
X126707966Y-55807500D01*
X131327034Y-55807500D01*
X131346813Y-55957736D01*
X131404802Y-56097733D01*
X131497049Y-56217951D01*
X131617267Y-56310198D01*
X131757264Y-56368187D01*
X131869780Y-56383000D01*
X131945220Y-56383000D01*
X132057736Y-56368187D01*
X132197733Y-56310198D01*
X132317951Y-56217951D01*
X132361038Y-56161799D01*
X132418376Y-56119932D01*
X132489247Y-56115710D01*
X132551149Y-56150474D01*
X132584431Y-56213187D01*
X132587000Y-56238503D01*
X132587000Y-56931322D01*
X132602157Y-57061328D01*
X132604653Y-57068205D01*
X132604654Y-57068208D01*
X132659372Y-57218952D01*
X132661869Y-57225831D01*
X132757823Y-57372185D01*
X132884872Y-57492540D01*
X133036202Y-57580439D01*
X133203693Y-57631167D01*
X133378362Y-57642003D01*
X133385578Y-57640763D01*
X133385580Y-57640763D01*
X133543625Y-57613606D01*
X133543627Y-57613605D01*
X133550840Y-57612366D01*
X133711873Y-57543846D01*
X133852824Y-57440117D01*
X133857563Y-57434539D01*
X133857566Y-57434536D01*
X133961393Y-57312324D01*
X133961396Y-57312320D01*
X133966132Y-57306745D01*
X134045719Y-57150884D01*
X134087315Y-56980894D01*
X134088000Y-56969852D01*
X134088000Y-55743678D01*
X134072843Y-55613672D01*
X134063561Y-55588099D01*
X134015628Y-55456048D01*
X134015627Y-55456046D01*
X134013131Y-55449169D01*
X133917177Y-55302815D01*
X133790128Y-55182460D01*
X133638798Y-55094561D01*
X133471307Y-55043833D01*
X133296638Y-55032997D01*
X133289422Y-55034237D01*
X133289420Y-55034237D01*
X133131375Y-55061394D01*
X133131373Y-55061395D01*
X133124160Y-55062634D01*
X133048290Y-55094917D01*
X132988481Y-55120366D01*
X132963127Y-55131154D01*
X132822176Y-55234883D01*
X132817437Y-55240461D01*
X132817434Y-55240464D01*
X132713607Y-55362676D01*
X132713604Y-55362680D01*
X132708868Y-55368255D01*
X132694165Y-55397049D01*
X132633154Y-55516530D01*
X132584360Y-55568103D01*
X132515430Y-55585109D01*
X132448249Y-55562148D01*
X132412616Y-55523104D01*
X132410198Y-55517267D01*
X132317951Y-55397049D01*
X132197733Y-55304802D01*
X132057736Y-55246813D01*
X132009511Y-55240464D01*
X131949307Y-55232538D01*
X131949306Y-55232538D01*
X131945220Y-55232000D01*
X131869780Y-55232000D01*
X131865694Y-55232538D01*
X131865693Y-55232538D01*
X131805489Y-55240464D01*
X131757264Y-55246813D01*
X131617267Y-55304802D01*
X131497049Y-55397049D01*
X131404802Y-55517267D01*
X131346813Y-55657264D01*
X131327034Y-55807500D01*
X126707966Y-55807500D01*
X126688187Y-55657264D01*
X126630198Y-55517267D01*
X126537951Y-55397049D01*
X126417733Y-55304802D01*
X126277736Y-55246813D01*
X126229511Y-55240464D01*
X126169307Y-55232538D01*
X126169306Y-55232538D01*
X126165220Y-55232000D01*
X126089780Y-55232000D01*
X126085694Y-55232538D01*
X126085693Y-55232538D01*
X126025489Y-55240464D01*
X125977264Y-55246813D01*
X125837267Y-55304802D01*
X125717049Y-55397049D01*
X125712023Y-55403599D01*
X125629833Y-55510711D01*
X125624802Y-55517267D01*
X125621642Y-55524896D01*
X125621194Y-55525672D01*
X125569811Y-55574664D01*
X125500097Y-55588099D01*
X125434186Y-55561711D01*
X125393637Y-55505662D01*
X125375627Y-55456046D01*
X125373131Y-55449169D01*
X125277177Y-55302815D01*
X125150128Y-55182460D01*
X124998798Y-55094561D01*
X124831307Y-55043833D01*
X124656638Y-55032997D01*
X124649422Y-55034237D01*
X124649420Y-55034237D01*
X124491375Y-55061394D01*
X124491373Y-55061395D01*
X124484160Y-55062634D01*
X124408290Y-55094917D01*
X124348481Y-55120366D01*
X124323127Y-55131154D01*
X124182176Y-55234883D01*
X124177437Y-55240461D01*
X124177434Y-55240464D01*
X124073607Y-55362676D01*
X124073604Y-55362680D01*
X124068868Y-55368255D01*
X124038751Y-55427235D01*
X123993155Y-55516530D01*
X123989281Y-55524116D01*
X123987542Y-55531221D01*
X123987541Y-55531225D01*
X123969050Y-55606792D01*
X123947685Y-55694106D01*
X123947000Y-55705148D01*
X123947000Y-56931322D01*
X118943000Y-56931322D01*
X118943000Y-55743678D01*
X118927843Y-55613672D01*
X118918561Y-55588099D01*
X118870628Y-55456048D01*
X118870627Y-55456046D01*
X118868131Y-55449169D01*
X118772177Y-55302815D01*
X118645128Y-55182460D01*
X118493798Y-55094561D01*
X118326307Y-55043833D01*
X118151638Y-55032997D01*
X118144422Y-55034237D01*
X118144420Y-55034237D01*
X117986375Y-55061394D01*
X117986373Y-55061395D01*
X117979160Y-55062634D01*
X117903290Y-55094917D01*
X117843481Y-55120366D01*
X117818127Y-55131154D01*
X117677176Y-55234883D01*
X117672437Y-55240461D01*
X117672434Y-55240464D01*
X117568607Y-55362676D01*
X117568604Y-55362680D01*
X117563868Y-55368255D01*
X117549165Y-55397049D01*
X117488154Y-55516530D01*
X117439360Y-55568103D01*
X117370430Y-55585109D01*
X117303249Y-55562148D01*
X117267616Y-55523104D01*
X117265198Y-55517267D01*
X117172951Y-55397049D01*
X117052733Y-55304802D01*
X116912736Y-55246813D01*
X116864511Y-55240464D01*
X116804307Y-55232538D01*
X116804306Y-55232538D01*
X116800220Y-55232000D01*
X116724780Y-55232000D01*
X116720694Y-55232538D01*
X116720693Y-55232538D01*
X116660489Y-55240464D01*
X116612264Y-55246813D01*
X116472267Y-55304802D01*
X116352049Y-55397049D01*
X116259802Y-55517267D01*
X116201813Y-55657264D01*
X116182034Y-55807500D01*
X111562966Y-55807500D01*
X111543187Y-55657264D01*
X111485198Y-55517267D01*
X111392951Y-55397049D01*
X111272733Y-55304802D01*
X111132736Y-55246813D01*
X111084511Y-55240464D01*
X111024307Y-55232538D01*
X111024306Y-55232538D01*
X111020220Y-55232000D01*
X110944780Y-55232000D01*
X110940694Y-55232538D01*
X110940693Y-55232538D01*
X110880489Y-55240464D01*
X110832264Y-55246813D01*
X110692267Y-55304802D01*
X110572049Y-55397049D01*
X110567023Y-55403599D01*
X110484833Y-55510711D01*
X110479802Y-55517267D01*
X110476642Y-55524896D01*
X110476194Y-55525672D01*
X110424811Y-55574664D01*
X110355097Y-55588099D01*
X110289186Y-55561711D01*
X110248637Y-55505662D01*
X110230627Y-55456046D01*
X110228131Y-55449169D01*
X110132177Y-55302815D01*
X110005128Y-55182460D01*
X109853798Y-55094561D01*
X109686307Y-55043833D01*
X109511638Y-55032997D01*
X109504422Y-55034237D01*
X109504420Y-55034237D01*
X109346375Y-55061394D01*
X109346373Y-55061395D01*
X109339160Y-55062634D01*
X109263290Y-55094917D01*
X109203481Y-55120366D01*
X109178127Y-55131154D01*
X109037176Y-55234883D01*
X109032437Y-55240461D01*
X109032434Y-55240464D01*
X108928607Y-55362676D01*
X108928604Y-55362680D01*
X108923868Y-55368255D01*
X108893751Y-55427235D01*
X108848155Y-55516530D01*
X108844281Y-55524116D01*
X108842542Y-55531221D01*
X108842541Y-55531225D01*
X108824050Y-55606792D01*
X108802685Y-55694106D01*
X108802000Y-55705148D01*
X108802000Y-56931322D01*
X107308000Y-56931322D01*
X107308000Y-55389034D01*
X107328002Y-55320913D01*
X107352169Y-55293223D01*
X107384076Y-55265972D01*
X107384077Y-55265971D01*
X107389848Y-55261042D01*
X107481724Y-55133183D01*
X107486877Y-55120366D01*
X107513832Y-55053312D01*
X107540450Y-54987098D01*
X107562634Y-54831223D01*
X107562778Y-54817500D01*
X107543863Y-54661194D01*
X107538675Y-54647463D01*
X107490894Y-54521014D01*
X107490893Y-54521011D01*
X107488210Y-54513912D01*
X107399031Y-54384157D01*
X107340687Y-54332174D01*
X107287148Y-54284472D01*
X107287145Y-54284470D01*
X107281476Y-54279419D01*
X107142331Y-54205745D01*
X107125622Y-54201548D01*
X106996998Y-54169240D01*
X106996996Y-54169240D01*
X106989628Y-54167389D01*
X106982030Y-54167349D01*
X106982028Y-54167349D01*
X106914819Y-54166997D01*
X106832184Y-54166565D01*
X106824805Y-54168337D01*
X106824801Y-54168337D01*
X106686467Y-54201548D01*
X106686463Y-54201549D01*
X106679088Y-54203320D01*
X106539179Y-54275532D01*
X106533457Y-54280524D01*
X106533455Y-54280525D01*
X106426259Y-54374038D01*
X106426256Y-54374041D01*
X106420534Y-54379033D01*
X106330001Y-54507848D01*
X106272809Y-54654539D01*
X106252258Y-54810638D01*
X102962419Y-54810638D01*
X103024940Y-54704074D01*
X103026372Y-54700858D01*
X103162247Y-54395678D01*
X103162249Y-54395673D01*
X103163679Y-54392461D01*
X103266819Y-54067324D01*
X103333073Y-53732717D01*
X103361616Y-53392809D01*
X103362807Y-53307500D01*
X103360620Y-53268368D01*
X103346181Y-53010117D01*
X103343766Y-52966928D01*
X103336015Y-52921102D01*
X103287468Y-52634070D01*
X103287467Y-52634065D01*
X103286881Y-52630601D01*
X103249811Y-52501322D01*
X108802000Y-52501322D01*
X108817157Y-52631328D01*
X108819653Y-52638205D01*
X108819654Y-52638208D01*
X108874372Y-52788952D01*
X108876869Y-52795831D01*
X108972823Y-52942185D01*
X109099872Y-53062540D01*
X109251202Y-53150439D01*
X109418693Y-53201167D01*
X109593362Y-53212003D01*
X109600578Y-53210763D01*
X109600580Y-53210763D01*
X109758625Y-53183606D01*
X109758627Y-53183605D01*
X109765840Y-53182366D01*
X109926873Y-53113846D01*
X110067824Y-53010117D01*
X110072563Y-53004539D01*
X110072566Y-53004536D01*
X110176393Y-52882324D01*
X110176396Y-52882320D01*
X110181132Y-52876745D01*
X110260719Y-52720884D01*
X110271214Y-52677997D01*
X110292128Y-52592524D01*
X110302315Y-52550894D01*
X110303000Y-52539852D01*
X110303000Y-52501322D01*
X117442000Y-52501322D01*
X117457157Y-52631328D01*
X117459653Y-52638205D01*
X117459654Y-52638208D01*
X117514372Y-52788952D01*
X117516869Y-52795831D01*
X117612823Y-52942185D01*
X117739872Y-53062540D01*
X117891202Y-53150439D01*
X118058693Y-53201167D01*
X118233362Y-53212003D01*
X118240578Y-53210763D01*
X118240580Y-53210763D01*
X118398625Y-53183606D01*
X118398627Y-53183605D01*
X118405840Y-53182366D01*
X118566873Y-53113846D01*
X118707824Y-53010117D01*
X118712563Y-53004539D01*
X118712566Y-53004536D01*
X118816393Y-52882324D01*
X118816396Y-52882320D01*
X118821132Y-52876745D01*
X118900719Y-52720884D01*
X118911214Y-52677997D01*
X118932128Y-52592524D01*
X118942315Y-52550894D01*
X118943000Y-52539852D01*
X118943000Y-52501322D01*
X123947000Y-52501322D01*
X123962157Y-52631328D01*
X123964653Y-52638205D01*
X123964654Y-52638208D01*
X124019372Y-52788952D01*
X124021869Y-52795831D01*
X124117823Y-52942185D01*
X124244872Y-53062540D01*
X124396202Y-53150439D01*
X124563693Y-53201167D01*
X124738362Y-53212003D01*
X124745578Y-53210763D01*
X124745580Y-53210763D01*
X124903625Y-53183606D01*
X124903627Y-53183605D01*
X124910840Y-53182366D01*
X125071873Y-53113846D01*
X125212824Y-53010117D01*
X125217563Y-53004539D01*
X125217566Y-53004536D01*
X125321393Y-52882324D01*
X125321396Y-52882320D01*
X125326132Y-52876745D01*
X125405719Y-52720884D01*
X125416214Y-52677997D01*
X125437128Y-52592524D01*
X125447315Y-52550894D01*
X125448000Y-52539852D01*
X125448000Y-52501322D01*
X132587000Y-52501322D01*
X132602157Y-52631328D01*
X132604653Y-52638205D01*
X132604654Y-52638208D01*
X132659372Y-52788952D01*
X132661869Y-52795831D01*
X132757823Y-52942185D01*
X132884872Y-53062540D01*
X133036202Y-53150439D01*
X133203693Y-53201167D01*
X133378362Y-53212003D01*
X133385578Y-53210763D01*
X133385580Y-53210763D01*
X133543625Y-53183606D01*
X133543627Y-53183605D01*
X133550840Y-53182366D01*
X133711873Y-53113846D01*
X133852824Y-53010117D01*
X133857563Y-53004539D01*
X133857566Y-53004536D01*
X133961393Y-52882324D01*
X133961396Y-52882320D01*
X133966132Y-52876745D01*
X134045719Y-52720884D01*
X134056214Y-52677997D01*
X134077128Y-52592524D01*
X134087315Y-52550894D01*
X134088000Y-52539852D01*
X134088000Y-51813678D01*
X134072843Y-51683672D01*
X134060462Y-51649561D01*
X134015628Y-51526048D01*
X134013131Y-51519169D01*
X133917177Y-51372815D01*
X133790128Y-51252460D01*
X133638798Y-51164561D01*
X133471307Y-51113833D01*
X133296638Y-51102997D01*
X133289422Y-51104237D01*
X133289420Y-51104237D01*
X133131375Y-51131394D01*
X133131373Y-51131395D01*
X133124160Y-51132634D01*
X132963127Y-51201154D01*
X132822176Y-51304883D01*
X132817437Y-51310461D01*
X132817434Y-51310464D01*
X132713607Y-51432676D01*
X132713604Y-51432680D01*
X132708868Y-51438255D01*
X132629281Y-51594116D01*
X132627542Y-51601221D01*
X132627541Y-51601225D01*
X132615714Y-51649561D01*
X132587685Y-51764106D01*
X132587000Y-51775148D01*
X132587000Y-52501322D01*
X125448000Y-52501322D01*
X125448000Y-51813678D01*
X125432843Y-51683672D01*
X125420462Y-51649561D01*
X125375628Y-51526048D01*
X125373131Y-51519169D01*
X125277177Y-51372815D01*
X125150128Y-51252460D01*
X124998798Y-51164561D01*
X124831307Y-51113833D01*
X124656638Y-51102997D01*
X124649422Y-51104237D01*
X124649420Y-51104237D01*
X124491375Y-51131394D01*
X124491373Y-51131395D01*
X124484160Y-51132634D01*
X124323127Y-51201154D01*
X124182176Y-51304883D01*
X124177437Y-51310461D01*
X124177434Y-51310464D01*
X124073607Y-51432676D01*
X124073604Y-51432680D01*
X124068868Y-51438255D01*
X123989281Y-51594116D01*
X123987542Y-51601221D01*
X123987541Y-51601225D01*
X123975714Y-51649561D01*
X123947685Y-51764106D01*
X123947000Y-51775148D01*
X123947000Y-52501322D01*
X118943000Y-52501322D01*
X118943000Y-51813678D01*
X118927843Y-51683672D01*
X118915462Y-51649561D01*
X118870628Y-51526048D01*
X118868131Y-51519169D01*
X118772177Y-51372815D01*
X118645128Y-51252460D01*
X118493798Y-51164561D01*
X118326307Y-51113833D01*
X118151638Y-51102997D01*
X118144422Y-51104237D01*
X118144420Y-51104237D01*
X117986375Y-51131394D01*
X117986373Y-51131395D01*
X117979160Y-51132634D01*
X117818127Y-51201154D01*
X117677176Y-51304883D01*
X117672437Y-51310461D01*
X117672434Y-51310464D01*
X117568607Y-51432676D01*
X117568604Y-51432680D01*
X117563868Y-51438255D01*
X117484281Y-51594116D01*
X117482542Y-51601221D01*
X117482541Y-51601225D01*
X117470714Y-51649561D01*
X117442685Y-51764106D01*
X117442000Y-51775148D01*
X117442000Y-52501322D01*
X110303000Y-52501322D01*
X110303000Y-51813678D01*
X110287843Y-51683672D01*
X110275462Y-51649561D01*
X110230628Y-51526048D01*
X110228131Y-51519169D01*
X110132177Y-51372815D01*
X110005128Y-51252460D01*
X109853798Y-51164561D01*
X109686307Y-51113833D01*
X109511638Y-51102997D01*
X109504422Y-51104237D01*
X109504420Y-51104237D01*
X109346375Y-51131394D01*
X109346373Y-51131395D01*
X109339160Y-51132634D01*
X109178127Y-51201154D01*
X109037176Y-51304883D01*
X109032437Y-51310461D01*
X109032434Y-51310464D01*
X108928607Y-51432676D01*
X108928604Y-51432680D01*
X108923868Y-51438255D01*
X108844281Y-51594116D01*
X108842542Y-51601221D01*
X108842541Y-51601225D01*
X108830714Y-51649561D01*
X108802685Y-51764106D01*
X108802000Y-51775148D01*
X108802000Y-52501322D01*
X103249811Y-52501322D01*
X103192860Y-52302711D01*
X103107327Y-52095193D01*
X103064213Y-51990590D01*
X103064209Y-51990583D01*
X103062875Y-51987345D01*
X102898547Y-51688434D01*
X102701924Y-51409703D01*
X102617013Y-51314065D01*
X102611184Y-51307500D01*
X103956447Y-51307500D01*
X103974608Y-51480286D01*
X103976648Y-51486564D01*
X103976648Y-51486565D01*
X104009588Y-51587944D01*
X104028295Y-51645520D01*
X104115164Y-51795981D01*
X104119582Y-51800888D01*
X104119583Y-51800889D01*
X104226995Y-51920182D01*
X104231417Y-51925093D01*
X104236759Y-51928974D01*
X104236761Y-51928976D01*
X104366631Y-52023332D01*
X104371973Y-52027213D01*
X104378001Y-52029897D01*
X104378003Y-52029898D01*
X104524659Y-52095193D01*
X104530690Y-52097878D01*
X104615660Y-52115939D01*
X104694174Y-52132628D01*
X104694178Y-52132628D01*
X104700631Y-52134000D01*
X104874369Y-52134000D01*
X104880822Y-52132628D01*
X104880826Y-52132628D01*
X104959339Y-52115939D01*
X105044310Y-52097878D01*
X105050341Y-52095193D01*
X105196997Y-52029898D01*
X105196999Y-52029897D01*
X105203027Y-52027213D01*
X105208369Y-52023332D01*
X105338239Y-51928976D01*
X105338241Y-51928974D01*
X105343583Y-51925093D01*
X105348005Y-51920182D01*
X105455417Y-51800889D01*
X105455418Y-51800888D01*
X105459836Y-51795981D01*
X105546705Y-51645520D01*
X105565413Y-51587944D01*
X105598352Y-51486565D01*
X105598352Y-51486564D01*
X105600392Y-51480286D01*
X105618553Y-51307500D01*
X105600392Y-51134714D01*
X105594297Y-51115955D01*
X105548747Y-50975764D01*
X105548746Y-50975762D01*
X105546705Y-50969480D01*
X105459836Y-50819019D01*
X105359175Y-50707223D01*
X105348005Y-50694818D01*
X105348004Y-50694817D01*
X105343583Y-50689907D01*
X105320166Y-50672893D01*
X105208369Y-50591668D01*
X105208368Y-50591667D01*
X105203027Y-50587787D01*
X105196999Y-50585103D01*
X105196997Y-50585102D01*
X105050341Y-50519807D01*
X105050340Y-50519807D01*
X105044310Y-50517122D01*
X104959339Y-50499061D01*
X104880826Y-50482372D01*
X104880822Y-50482372D01*
X104874369Y-50481000D01*
X104700631Y-50481000D01*
X104694178Y-50482372D01*
X104694174Y-50482372D01*
X104615661Y-50499061D01*
X104530690Y-50517122D01*
X104524660Y-50519807D01*
X104524659Y-50519807D01*
X104378004Y-50585102D01*
X104378002Y-50585103D01*
X104371974Y-50587787D01*
X104366633Y-50591667D01*
X104366632Y-50591668D01*
X104236761Y-50686024D01*
X104236759Y-50686026D01*
X104231417Y-50689907D01*
X104226996Y-50694817D01*
X104226995Y-50694818D01*
X104215826Y-50707223D01*
X104115164Y-50819019D01*
X104028295Y-50969480D01*
X104026254Y-50975762D01*
X104026253Y-50975764D01*
X103980703Y-51115955D01*
X103974608Y-51134714D01*
X103956447Y-51307500D01*
X102611184Y-51307500D01*
X102477789Y-51157253D01*
X102477783Y-51157247D01*
X102475456Y-51154626D01*
X102454215Y-51135500D01*
X102224587Y-50928742D01*
X102224586Y-50928741D01*
X102221967Y-50926383D01*
X101973353Y-50748393D01*
X101947482Y-50729871D01*
X101947475Y-50729867D01*
X101944615Y-50727819D01*
X101646858Y-50561408D01*
X101332408Y-50429225D01*
X101329045Y-50428235D01*
X101329036Y-50428232D01*
X101127846Y-50369020D01*
X101005182Y-50332918D01*
X100735184Y-50285310D01*
X100672720Y-50274296D01*
X100672718Y-50274296D01*
X100669260Y-50273686D01*
X100665749Y-50273465D01*
X100665748Y-50273465D01*
X100332348Y-50252488D01*
X100332342Y-50252488D01*
X100328830Y-50252267D01*
X100232446Y-50256981D01*
X99991640Y-50268758D01*
X99991632Y-50268759D01*
X99988133Y-50268930D01*
X99984665Y-50269492D01*
X99984662Y-50269492D01*
X99654893Y-50322903D01*
X99654890Y-50322904D01*
X99651418Y-50323466D01*
X99648031Y-50324412D01*
X99648025Y-50324413D01*
X99327241Y-50413978D01*
X99322879Y-50415196D01*
X99319616Y-50416514D01*
X99319614Y-50416515D01*
X99063959Y-50519807D01*
X99006614Y-50542976D01*
X98706562Y-50705213D01*
X98426465Y-50899885D01*
X98423823Y-50902198D01*
X98423819Y-50902201D01*
X98193037Y-51104237D01*
X98169814Y-51124567D01*
X97939807Y-51376456D01*
X97739311Y-51652415D01*
X97737569Y-51655481D01*
X97737568Y-51655483D01*
X97717100Y-51691514D01*
X97570826Y-51949003D01*
X97436451Y-52262523D01*
X97423297Y-52306091D01*
X97349387Y-52550894D01*
X97337861Y-52589069D01*
X97337227Y-52592524D01*
X97286259Y-52870227D01*
X97276285Y-52924568D01*
X97276039Y-52928084D01*
X97276039Y-52928085D01*
X97256186Y-53212003D01*
X97252491Y-53264841D01*
X96678467Y-53264841D01*
X96718644Y-53083611D01*
X96721489Y-53072993D01*
X96842777Y-52688319D01*
X96846533Y-52677997D01*
X97000892Y-52305342D01*
X97005534Y-52295389D01*
X97020890Y-52265892D01*
X97191771Y-51937632D01*
X97197266Y-51928113D01*
X97413978Y-51587944D01*
X97420282Y-51578940D01*
X97582308Y-51367783D01*
X97665830Y-51258936D01*
X97672893Y-51250519D01*
X97674484Y-51248783D01*
X97945383Y-50953148D01*
X97953152Y-50945379D01*
X97971309Y-50928742D01*
X98250522Y-50672891D01*
X98258939Y-50665827D01*
X98392781Y-50563127D01*
X98454523Y-50515750D01*
X98578940Y-50420282D01*
X98587944Y-50413978D01*
X98928113Y-50197266D01*
X98937633Y-50191770D01*
X98997558Y-50160575D01*
X99295398Y-50005530D01*
X99305342Y-50000892D01*
X99678004Y-49846530D01*
X99688319Y-49842777D01*
X100072994Y-49721489D01*
X100083611Y-49718644D01*
X100477383Y-49631348D01*
X100488207Y-49629439D01*
X100888101Y-49576791D01*
X100899052Y-49575833D01*
X101272090Y-49559546D01*
X101284381Y-49560486D01*
X101295327Y-49560486D01*
X101307500Y-49562908D01*
X101319671Y-49560487D01*
X101319673Y-49560487D01*
X101320004Y-49560421D01*
X101344585Y-49558000D01*
X149181500Y-49558000D01*
X149249621Y-49578002D01*
G37*
G04 #@! TD.AperFunction*
G04 #@! TA.AperFunction,Conductor*
G36*
X182638535Y-60313002D02*
G01*
X182685028Y-60366658D01*
X182695132Y-60436932D01*
X182665638Y-60501512D01*
X182646067Y-60519760D01*
X182591933Y-60560405D01*
X182584226Y-60567248D01*
X182437090Y-60721217D01*
X182430604Y-60729227D01*
X182310598Y-60905149D01*
X182305500Y-60914123D01*
X182215838Y-61107283D01*
X182212275Y-61116970D01*
X182156889Y-61316683D01*
X182158412Y-61325107D01*
X182170792Y-61328500D01*
X187350844Y-61328500D01*
X187364375Y-61324527D01*
X187365680Y-61315447D01*
X187323714Y-61148375D01*
X187320394Y-61138624D01*
X187235472Y-60943314D01*
X187230605Y-60934239D01*
X187114926Y-60755426D01*
X187108636Y-60747257D01*
X186965306Y-60589740D01*
X186957773Y-60582715D01*
X186875679Y-60517882D01*
X186834616Y-60459965D01*
X186831384Y-60389042D01*
X186867009Y-60327631D01*
X186930180Y-60295228D01*
X186953771Y-60293000D01*
X188057336Y-60293000D01*
X188125457Y-60313002D01*
X188146431Y-60329905D01*
X193030095Y-65213569D01*
X193064121Y-65275881D01*
X193067000Y-65302664D01*
X193067000Y-87935270D01*
X193046998Y-88003391D01*
X192993342Y-88049884D01*
X192923068Y-88059988D01*
X192858488Y-88030494D01*
X192848929Y-88021239D01*
X192848748Y-88021094D01*
X192842354Y-88014177D01*
X192835995Y-88010484D01*
X192829837Y-88004967D01*
X192148020Y-87323150D01*
X192138166Y-87312061D01*
X192122974Y-87292791D01*
X192122972Y-87292789D01*
X192117139Y-87285390D01*
X192109392Y-87280035D01*
X192109390Y-87280034D01*
X192068892Y-87252045D01*
X192065670Y-87249743D01*
X192026025Y-87220460D01*
X192026024Y-87220459D01*
X192018451Y-87214866D01*
X192011635Y-87212473D01*
X192005698Y-87208369D01*
X191996718Y-87205529D01*
X191996716Y-87205528D01*
X191976550Y-87199150D01*
X191949748Y-87190674D01*
X191946017Y-87189429D01*
X191899530Y-87173104D01*
X191899528Y-87173104D01*
X191890636Y-87169981D01*
X191883448Y-87169699D01*
X191883389Y-87169688D01*
X191876537Y-87167520D01*
X191869930Y-87167000D01*
X191817251Y-87167000D01*
X191812304Y-87166903D01*
X191755273Y-87164662D01*
X191748167Y-87166546D01*
X191739920Y-87167000D01*
X181127462Y-87167000D01*
X181059341Y-87146998D01*
X181038367Y-87130095D01*
X177045811Y-83137539D01*
X177011785Y-83075227D01*
X177016850Y-83004412D01*
X177059397Y-82947576D01*
X177125917Y-82922765D01*
X177179856Y-82930734D01*
X177267505Y-82964204D01*
X177277399Y-82967079D01*
X177380750Y-82988106D01*
X177394799Y-82986910D01*
X177398500Y-82976565D01*
X177398500Y-82976017D01*
X177906500Y-82976017D01*
X177910564Y-82989859D01*
X177923978Y-82991893D01*
X177930684Y-82991034D01*
X177940762Y-82988892D01*
X178144755Y-82927691D01*
X178154342Y-82923933D01*
X178345595Y-82830239D01*
X178354445Y-82824964D01*
X178527828Y-82701292D01*
X178535700Y-82694639D01*
X178686552Y-82544312D01*
X178693230Y-82536465D01*
X178817503Y-82363520D01*
X178822813Y-82354683D01*
X178917170Y-82163767D01*
X178920969Y-82154172D01*
X178982877Y-81950410D01*
X178985055Y-81940337D01*
X178986486Y-81929462D01*
X178984275Y-81915278D01*
X178971117Y-81911500D01*
X177924615Y-81911500D01*
X177909376Y-81915975D01*
X177908171Y-81917365D01*
X177906500Y-81925048D01*
X177906500Y-82976017D01*
X177398500Y-82976017D01*
X177398500Y-81529500D01*
X177418502Y-81461379D01*
X177472158Y-81414886D01*
X177524500Y-81403500D01*
X178970844Y-81403500D01*
X178984375Y-81399527D01*
X178985680Y-81390447D01*
X178943714Y-81223375D01*
X178940394Y-81213624D01*
X178855472Y-81018314D01*
X178850605Y-81009239D01*
X178734926Y-80830426D01*
X178728636Y-80822257D01*
X178585306Y-80664740D01*
X178577773Y-80657715D01*
X178410639Y-80525722D01*
X178402052Y-80520017D01*
X178283021Y-80454308D01*
X178233051Y-80403876D01*
X178218279Y-80334433D01*
X178243395Y-80268028D01*
X178300426Y-80225743D01*
X178343915Y-80218000D01*
X178527174Y-80218000D01*
X178600240Y-80203466D01*
X178683101Y-80148101D01*
X178738466Y-80065240D01*
X178753000Y-79992174D01*
X178753000Y-78242826D01*
X178738466Y-78169760D01*
X178683101Y-78086899D01*
X178600240Y-78031534D01*
X178527174Y-78017000D01*
X176777826Y-78017000D01*
X176771761Y-78018206D01*
X176771349Y-78018247D01*
X176701596Y-78005018D01*
X176650068Y-77956177D01*
X176633000Y-77892854D01*
X176633000Y-76971719D01*
X176633873Y-76956910D01*
X176636757Y-76932541D01*
X176637864Y-76923189D01*
X176636172Y-76913926D01*
X176636172Y-76913919D01*
X176627325Y-76865482D01*
X176626674Y-76861575D01*
X176619350Y-76812856D01*
X176619350Y-76812855D01*
X176617949Y-76803538D01*
X176614821Y-76797025D01*
X176613525Y-76789927D01*
X176586472Y-76737847D01*
X176584723Y-76734345D01*
X176563387Y-76689913D01*
X176563386Y-76689912D01*
X176559309Y-76681421D01*
X176554423Y-76676136D01*
X176554392Y-76676089D01*
X176551079Y-76669711D01*
X176546775Y-76664672D01*
X176509548Y-76627445D01*
X176506118Y-76623879D01*
X176473746Y-76588859D01*
X176467354Y-76581944D01*
X176460995Y-76578251D01*
X176454837Y-76572734D01*
X168492741Y-68610638D01*
X174902258Y-68610638D01*
X174919535Y-68767133D01*
X174973643Y-68914990D01*
X174977880Y-68921296D01*
X174977882Y-68921299D01*
X175018209Y-68981311D01*
X175061458Y-69045672D01*
X175067073Y-69050781D01*
X175067077Y-69050786D01*
X175105546Y-69085789D01*
X175142469Y-69146428D01*
X175140746Y-69217404D01*
X175103578Y-69273930D01*
X175080534Y-69294033D01*
X174990001Y-69422848D01*
X174932809Y-69569539D01*
X174931818Y-69577068D01*
X174921949Y-69652031D01*
X174912258Y-69725638D01*
X174929535Y-69882133D01*
X174983643Y-70029990D01*
X174987880Y-70036296D01*
X174987882Y-70036299D01*
X175013476Y-70074386D01*
X175071458Y-70160672D01*
X175104278Y-70190536D01*
X175187910Y-70266635D01*
X175186780Y-70267877D01*
X175225054Y-70316447D01*
X175231874Y-70387115D01*
X175199405Y-70450252D01*
X175190960Y-70458340D01*
X175075534Y-70559033D01*
X175071167Y-70565247D01*
X174992664Y-70676945D01*
X174985001Y-70687848D01*
X174927809Y-70834539D01*
X174926818Y-70842068D01*
X174909878Y-70970741D01*
X174907258Y-70990638D01*
X174924535Y-71147133D01*
X174978643Y-71294990D01*
X174982880Y-71301296D01*
X174982882Y-71301299D01*
X175020848Y-71357798D01*
X175066458Y-71425672D01*
X175090996Y-71448000D01*
X175137730Y-71490524D01*
X175182910Y-71531635D01*
X175229623Y-71556998D01*
X175314599Y-71603137D01*
X175314601Y-71603138D01*
X175321276Y-71606762D01*
X175328625Y-71608690D01*
X175466219Y-71644787D01*
X175466221Y-71644787D01*
X175473569Y-71646715D01*
X175556880Y-71648024D01*
X175623398Y-71649069D01*
X175623401Y-71649069D01*
X175630995Y-71649188D01*
X175784468Y-71614038D01*
X175925125Y-71543295D01*
X175930897Y-71538366D01*
X175930899Y-71538364D01*
X176001354Y-71478189D01*
X176066144Y-71449158D01*
X176083185Y-71448000D01*
X178518280Y-71448000D01*
X178533089Y-71448873D01*
X178566810Y-71452864D01*
X178576074Y-71451172D01*
X178576075Y-71451172D01*
X178624501Y-71442328D01*
X178628404Y-71441678D01*
X178677145Y-71434350D01*
X178677146Y-71434350D01*
X178686462Y-71432949D01*
X178692975Y-71429821D01*
X178700073Y-71428525D01*
X178752147Y-71401475D01*
X178755637Y-71399732D01*
X178808579Y-71374309D01*
X178813865Y-71369423D01*
X178813913Y-71369390D01*
X178820288Y-71366079D01*
X178825328Y-71361775D01*
X178862555Y-71324548D01*
X178866121Y-71321118D01*
X178901141Y-71288746D01*
X178908056Y-71282354D01*
X178911749Y-71275995D01*
X178917266Y-71269837D01*
X179232198Y-70954905D01*
X179294510Y-70920879D01*
X179321293Y-70918000D01*
X182266000Y-70918000D01*
X182334121Y-70938002D01*
X182380614Y-70991658D01*
X182392000Y-71044000D01*
X182392000Y-72617174D01*
X182406534Y-72690240D01*
X182461899Y-72773101D01*
X182544760Y-72828466D01*
X182617826Y-72843000D01*
X184367174Y-72843000D01*
X184440240Y-72828466D01*
X184523101Y-72773101D01*
X184578466Y-72690240D01*
X184593000Y-72617174D01*
X184593000Y-71244293D01*
X184613002Y-71176172D01*
X184666658Y-71129679D01*
X184736932Y-71119575D01*
X184801512Y-71149069D01*
X184808095Y-71155198D01*
X184948383Y-71295486D01*
X184982409Y-71357798D01*
X184979621Y-71421944D01*
X184951437Y-71512713D01*
X184927664Y-71713569D01*
X184940892Y-71915394D01*
X184958768Y-71985782D01*
X184983084Y-72081525D01*
X184990678Y-72111428D01*
X185075356Y-72295107D01*
X185078689Y-72299823D01*
X185182332Y-72446475D01*
X185192088Y-72460280D01*
X185336966Y-72601413D01*
X185505137Y-72713782D01*
X185510440Y-72716060D01*
X185510443Y-72716062D01*
X185685663Y-72791342D01*
X185690970Y-72793622D01*
X185888240Y-72838260D01*
X185894009Y-72838487D01*
X185894012Y-72838487D01*
X185970183Y-72841479D01*
X186090342Y-72846200D01*
X186176632Y-72833689D01*
X186284786Y-72818008D01*
X186284791Y-72818007D01*
X186290507Y-72817178D01*
X186295979Y-72815320D01*
X186295981Y-72815320D01*
X186476567Y-72754019D01*
X186476569Y-72754018D01*
X186482031Y-72752164D01*
X186658501Y-72653337D01*
X186673786Y-72640625D01*
X186778082Y-72553882D01*
X186814005Y-72524005D01*
X186943337Y-72368501D01*
X186963253Y-72332939D01*
X186993845Y-72278312D01*
X187042164Y-72192031D01*
X187054405Y-72155972D01*
X187105320Y-72005981D01*
X187105320Y-72005979D01*
X187107178Y-72000507D01*
X187108007Y-71994791D01*
X187108008Y-71994786D01*
X187128087Y-71856299D01*
X187136200Y-71800342D01*
X187137715Y-71742500D01*
X187119208Y-71541091D01*
X187064307Y-71346426D01*
X186974851Y-71165027D01*
X186948456Y-71129679D01*
X186857288Y-71007591D01*
X186857287Y-71007590D01*
X186853835Y-71002967D01*
X186818973Y-70970741D01*
X186709553Y-70869594D01*
X186709551Y-70869592D01*
X186705312Y-70865674D01*
X186655966Y-70834539D01*
X186539137Y-70760825D01*
X186534257Y-70757746D01*
X186346398Y-70682798D01*
X186148026Y-70643339D01*
X186142252Y-70643263D01*
X186142248Y-70643263D01*
X186039757Y-70641922D01*
X185945786Y-70640692D01*
X185940089Y-70641671D01*
X185940088Y-70641671D01*
X185752146Y-70673965D01*
X185752145Y-70673965D01*
X185746449Y-70674944D01*
X185728215Y-70681671D01*
X185716635Y-70685943D01*
X185645802Y-70690755D01*
X185583929Y-70656826D01*
X185191452Y-70264349D01*
X185157426Y-70202037D01*
X185162491Y-70131222D01*
X185205038Y-70074386D01*
X185271558Y-70049575D01*
X185340932Y-70064666D01*
X185350549Y-70070489D01*
X185396080Y-70100912D01*
X185505137Y-70173782D01*
X185510440Y-70176060D01*
X185510443Y-70176062D01*
X185679123Y-70248532D01*
X185690970Y-70253622D01*
X185888240Y-70298260D01*
X185894009Y-70298487D01*
X185894012Y-70298487D01*
X185970183Y-70301479D01*
X186090342Y-70306200D01*
X186176632Y-70293689D01*
X186284786Y-70278008D01*
X186284791Y-70278007D01*
X186290507Y-70277178D01*
X186295979Y-70275320D01*
X186295981Y-70275320D01*
X186476567Y-70214019D01*
X186476569Y-70214018D01*
X186482031Y-70212164D01*
X186658501Y-70113337D01*
X186720933Y-70061413D01*
X186809573Y-69987691D01*
X186814005Y-69984005D01*
X186895969Y-69885454D01*
X186939646Y-69832939D01*
X186943337Y-69828501D01*
X187042164Y-69652031D01*
X187070167Y-69569539D01*
X187105320Y-69465981D01*
X187105320Y-69465979D01*
X187107178Y-69460507D01*
X187108007Y-69454791D01*
X187108008Y-69454786D01*
X187133060Y-69282000D01*
X187136200Y-69260342D01*
X187137715Y-69202500D01*
X187119208Y-69001091D01*
X187111659Y-68974322D01*
X187065876Y-68811990D01*
X187064307Y-68806426D01*
X186974851Y-68625027D01*
X186956579Y-68600557D01*
X186857288Y-68467591D01*
X186857287Y-68467590D01*
X186853835Y-68462967D01*
X186844718Y-68454539D01*
X186709553Y-68329594D01*
X186709551Y-68329592D01*
X186705312Y-68325674D01*
X186534257Y-68217746D01*
X186346398Y-68142798D01*
X186148026Y-68103339D01*
X186142252Y-68103263D01*
X186142248Y-68103263D01*
X186039757Y-68101922D01*
X185945786Y-68100692D01*
X185940089Y-68101671D01*
X185940088Y-68101671D01*
X185752146Y-68133965D01*
X185752145Y-68133965D01*
X185746449Y-68134944D01*
X185739860Y-68137375D01*
X185716635Y-68145943D01*
X185645802Y-68150755D01*
X185583929Y-68116826D01*
X185191452Y-67724349D01*
X185157426Y-67662037D01*
X185162491Y-67591222D01*
X185205038Y-67534386D01*
X185271558Y-67509575D01*
X185340932Y-67524666D01*
X185350549Y-67530489D01*
X185403563Y-67565912D01*
X185505137Y-67633782D01*
X185510440Y-67636060D01*
X185510443Y-67636062D01*
X185598791Y-67674019D01*
X185690970Y-67713622D01*
X185888240Y-67758260D01*
X185894009Y-67758487D01*
X185894012Y-67758487D01*
X185970183Y-67761479D01*
X186090342Y-67766200D01*
X186181383Y-67753000D01*
X186284786Y-67738008D01*
X186284791Y-67738007D01*
X186290507Y-67737178D01*
X186295979Y-67735320D01*
X186295981Y-67735320D01*
X186476567Y-67674019D01*
X186476569Y-67674018D01*
X186482031Y-67672164D01*
X186610194Y-67600390D01*
X186653464Y-67576158D01*
X186653465Y-67576157D01*
X186658501Y-67573337D01*
X186666056Y-67567054D01*
X186769236Y-67481239D01*
X186814005Y-67444005D01*
X186943337Y-67288501D01*
X186946159Y-67283463D01*
X186987375Y-67209864D01*
X187042164Y-67112031D01*
X187046498Y-67099265D01*
X187105320Y-66925981D01*
X187105320Y-66925979D01*
X187107178Y-66920507D01*
X187108007Y-66914791D01*
X187108008Y-66914786D01*
X187128586Y-66772854D01*
X187136200Y-66720342D01*
X187137715Y-66662500D01*
X187119208Y-66461091D01*
X187064307Y-66266426D01*
X186974851Y-66085027D01*
X186956579Y-66060557D01*
X186857288Y-65927591D01*
X186857287Y-65927590D01*
X186853835Y-65922967D01*
X186847010Y-65916658D01*
X186709553Y-65789594D01*
X186709551Y-65789592D01*
X186705312Y-65785674D01*
X186636529Y-65742275D01*
X186539137Y-65680825D01*
X186534257Y-65677746D01*
X186346398Y-65602798D01*
X186148026Y-65563339D01*
X186142252Y-65563263D01*
X186142248Y-65563263D01*
X186039757Y-65561922D01*
X185945786Y-65560692D01*
X185940089Y-65561671D01*
X185940088Y-65561671D01*
X185752146Y-65593965D01*
X185752145Y-65593965D01*
X185746449Y-65594944D01*
X185728215Y-65601671D01*
X185716635Y-65605943D01*
X185645802Y-65610755D01*
X185583929Y-65576826D01*
X185191452Y-65184349D01*
X185157426Y-65122037D01*
X185162491Y-65051222D01*
X185205038Y-64994386D01*
X185271558Y-64969575D01*
X185340932Y-64984666D01*
X185350549Y-64990489D01*
X185403563Y-65025912D01*
X185505137Y-65093782D01*
X185510440Y-65096060D01*
X185510443Y-65096062D01*
X185598791Y-65134019D01*
X185690970Y-65173622D01*
X185888240Y-65218260D01*
X185894009Y-65218487D01*
X185894012Y-65218487D01*
X185970183Y-65221479D01*
X186090342Y-65226200D01*
X186177458Y-65213569D01*
X186284786Y-65198008D01*
X186284791Y-65198007D01*
X186290507Y-65197178D01*
X186295979Y-65195320D01*
X186295981Y-65195320D01*
X186476567Y-65134019D01*
X186476569Y-65134018D01*
X186482031Y-65132164D01*
X186658501Y-65033337D01*
X186664648Y-65028225D01*
X186768438Y-64941903D01*
X186814005Y-64904005D01*
X186943337Y-64748501D01*
X186946159Y-64743463D01*
X186987375Y-64669864D01*
X187042164Y-64572031D01*
X187045535Y-64562102D01*
X187105320Y-64385981D01*
X187105320Y-64385979D01*
X187107178Y-64380507D01*
X187108007Y-64374791D01*
X187108008Y-64374786D01*
X187128043Y-64236599D01*
X187136200Y-64180342D01*
X187137715Y-64122500D01*
X187119208Y-63921091D01*
X187064307Y-63726426D01*
X186974851Y-63545027D01*
X186959586Y-63524584D01*
X186857288Y-63387591D01*
X186857287Y-63387590D01*
X186853835Y-63382967D01*
X186845907Y-63375638D01*
X186709553Y-63249594D01*
X186709551Y-63249592D01*
X186705312Y-63245674D01*
X186534257Y-63137746D01*
X186457953Y-63107304D01*
X186402094Y-63063483D01*
X186378793Y-62996419D01*
X186395449Y-62927404D01*
X186446773Y-62878350D01*
X186468435Y-62869589D01*
X186524744Y-62852695D01*
X186534342Y-62848933D01*
X186725595Y-62755239D01*
X186734445Y-62749964D01*
X186907828Y-62626292D01*
X186915700Y-62619639D01*
X187066552Y-62469312D01*
X187073230Y-62461465D01*
X187197503Y-62288520D01*
X187202813Y-62279683D01*
X187297170Y-62088767D01*
X187300969Y-62079172D01*
X187362877Y-61875410D01*
X187365055Y-61865337D01*
X187366486Y-61854462D01*
X187364275Y-61840278D01*
X187351117Y-61836500D01*
X182175725Y-61836500D01*
X182162194Y-61840473D01*
X182160757Y-61850466D01*
X182191065Y-61984946D01*
X182194145Y-61994775D01*
X182274270Y-62192103D01*
X182278913Y-62201294D01*
X182390194Y-62382888D01*
X182396277Y-62391199D01*
X182515661Y-62529019D01*
X182545144Y-62593604D01*
X182535029Y-62663876D01*
X182509519Y-62700611D01*
X178395035Y-66815095D01*
X178332723Y-66849121D01*
X178305940Y-66852000D01*
X177901890Y-66852000D01*
X177877823Y-66849677D01*
X177871003Y-66847520D01*
X177864396Y-66847000D01*
X176082763Y-66847000D01*
X176014642Y-66826998D01*
X175998944Y-66815076D01*
X175942148Y-66764472D01*
X175942145Y-66764470D01*
X175936476Y-66759419D01*
X175916096Y-66748628D01*
X175804043Y-66689299D01*
X175804044Y-66689299D01*
X175797331Y-66685745D01*
X175780622Y-66681548D01*
X175651998Y-66649240D01*
X175651996Y-66649240D01*
X175644628Y-66647389D01*
X175637030Y-66647349D01*
X175637028Y-66647349D01*
X175569819Y-66646997D01*
X175487184Y-66646565D01*
X175479805Y-66648337D01*
X175479801Y-66648337D01*
X175341467Y-66681548D01*
X175341463Y-66681549D01*
X175334088Y-66683320D01*
X175194179Y-66755532D01*
X175188457Y-66760524D01*
X175188455Y-66760525D01*
X175081259Y-66854038D01*
X175081256Y-66854041D01*
X175075534Y-66859033D01*
X175043720Y-66904299D01*
X174990888Y-66979472D01*
X174985001Y-66987848D01*
X174927809Y-67134539D01*
X174926818Y-67142068D01*
X174909516Y-67273488D01*
X174907258Y-67290638D01*
X174924535Y-67447133D01*
X174978643Y-67594990D01*
X174982880Y-67601296D01*
X174982882Y-67601299D01*
X175004710Y-67633782D01*
X175066458Y-67725672D01*
X175076513Y-67734821D01*
X175161012Y-67811709D01*
X175182910Y-67831635D01*
X175207120Y-67844780D01*
X175257440Y-67894860D01*
X175272697Y-67964198D01*
X175248046Y-68030777D01*
X175204787Y-68067475D01*
X175195933Y-68072045D01*
X175195927Y-68072049D01*
X175189179Y-68075532D01*
X175183457Y-68080524D01*
X175183455Y-68080525D01*
X175076259Y-68174038D01*
X175076256Y-68174041D01*
X175070534Y-68179033D01*
X174980001Y-68307848D01*
X174922809Y-68454539D01*
X174921091Y-68467591D01*
X174905370Y-68587003D01*
X174902258Y-68610638D01*
X168492741Y-68610638D01*
X164906045Y-65023942D01*
X164872019Y-64961630D01*
X164870053Y-64949984D01*
X164870035Y-64949832D01*
X164853863Y-64816194D01*
X164842105Y-64785078D01*
X164800894Y-64676014D01*
X164800893Y-64676011D01*
X164798210Y-64668912D01*
X164709031Y-64539157D01*
X164633805Y-64472133D01*
X164597148Y-64439472D01*
X164597145Y-64439470D01*
X164591476Y-64434419D01*
X164578917Y-64427769D01*
X164499993Y-64385981D01*
X164452331Y-64360745D01*
X164304423Y-64323593D01*
X164304422Y-64323593D01*
X164299628Y-64322389D01*
X164299829Y-64321590D01*
X164240382Y-64295661D01*
X164200983Y-64236599D01*
X164199769Y-64165613D01*
X164232159Y-64109944D01*
X164707198Y-63634905D01*
X164769510Y-63600879D01*
X164796293Y-63598000D01*
X172333280Y-63598000D01*
X172348089Y-63598873D01*
X172381810Y-63602864D01*
X172391074Y-63601172D01*
X172391075Y-63601172D01*
X172439501Y-63592328D01*
X172443404Y-63591678D01*
X172492145Y-63584350D01*
X172492146Y-63584350D01*
X172501462Y-63582949D01*
X172507975Y-63579821D01*
X172515073Y-63578525D01*
X172567147Y-63551475D01*
X172570637Y-63549732D01*
X172623579Y-63524309D01*
X172628865Y-63519423D01*
X172628913Y-63519390D01*
X172635288Y-63516079D01*
X172640328Y-63511775D01*
X172677555Y-63474548D01*
X172681121Y-63471118D01*
X172716141Y-63438746D01*
X172723056Y-63432354D01*
X172726749Y-63425995D01*
X172732266Y-63419837D01*
X172841473Y-63310630D01*
X172903785Y-63276604D01*
X172932547Y-63273741D01*
X172937099Y-63273813D01*
X172953398Y-63274069D01*
X172953401Y-63274069D01*
X172960995Y-63274188D01*
X173114468Y-63239038D01*
X173255125Y-63168295D01*
X173294803Y-63134407D01*
X173369074Y-63070974D01*
X173369076Y-63070971D01*
X173374848Y-63066042D01*
X173466724Y-62938183D01*
X173525450Y-62792098D01*
X173541831Y-62676998D01*
X173547053Y-62640307D01*
X173547053Y-62640304D01*
X173547634Y-62636223D01*
X173547778Y-62622500D01*
X173544895Y-62598672D01*
X173556568Y-62528644D01*
X173604250Y-62476042D01*
X173671961Y-62457554D01*
X173768397Y-62459069D01*
X173768400Y-62459069D01*
X173775995Y-62459188D01*
X173929468Y-62424038D01*
X174070125Y-62353295D01*
X174096369Y-62330881D01*
X174184074Y-62255974D01*
X174184076Y-62255971D01*
X174189848Y-62251042D01*
X174261353Y-62151532D01*
X174317348Y-62107884D01*
X174388051Y-62101438D01*
X174451016Y-62134241D01*
X174486250Y-62195877D01*
X174488915Y-62211230D01*
X174491415Y-62233868D01*
X174494535Y-62262133D01*
X174548643Y-62409990D01*
X174552880Y-62416296D01*
X174552882Y-62416299D01*
X174581623Y-62459069D01*
X174636458Y-62540672D01*
X174642074Y-62545782D01*
X174745956Y-62640307D01*
X174752910Y-62646635D01*
X174759585Y-62650259D01*
X174884599Y-62718137D01*
X174884601Y-62718138D01*
X174891276Y-62721762D01*
X174898625Y-62723690D01*
X175036219Y-62759787D01*
X175036221Y-62759787D01*
X175043569Y-62761715D01*
X175126880Y-62763024D01*
X175193398Y-62764069D01*
X175193401Y-62764069D01*
X175200995Y-62764188D01*
X175301065Y-62741269D01*
X175371931Y-62745558D01*
X175429229Y-62787480D01*
X175454767Y-62853725D01*
X175440436Y-62923260D01*
X175426444Y-62943239D01*
X175425534Y-62944033D01*
X175421169Y-62950243D01*
X175421166Y-62950247D01*
X175339784Y-63066042D01*
X175335001Y-63072848D01*
X175277809Y-63219539D01*
X175276818Y-63227068D01*
X175259710Y-63357016D01*
X175257258Y-63375638D01*
X175274535Y-63532133D01*
X175328643Y-63679990D01*
X175332880Y-63686296D01*
X175332882Y-63686299D01*
X175373209Y-63746311D01*
X175416458Y-63810672D01*
X175532910Y-63916635D01*
X175554385Y-63928295D01*
X175664599Y-63988137D01*
X175664601Y-63988138D01*
X175671276Y-63991762D01*
X175678625Y-63993690D01*
X175816219Y-64029787D01*
X175816221Y-64029787D01*
X175823569Y-64031715D01*
X175906880Y-64033024D01*
X175973398Y-64034069D01*
X175973401Y-64034069D01*
X175980995Y-64034188D01*
X176134468Y-63999038D01*
X176275125Y-63928295D01*
X176323246Y-63887196D01*
X176389074Y-63830974D01*
X176389076Y-63830971D01*
X176394848Y-63826042D01*
X176486724Y-63698183D01*
X176545450Y-63552098D01*
X176562492Y-63432354D01*
X176567053Y-63400307D01*
X176567053Y-63400304D01*
X176567634Y-63396223D01*
X176567778Y-63382500D01*
X176548863Y-63226194D01*
X176537838Y-63197016D01*
X176495894Y-63086014D01*
X176495893Y-63086011D01*
X176493210Y-63078912D01*
X176404031Y-62949157D01*
X176305180Y-62861084D01*
X176267625Y-62800835D01*
X176263000Y-62767009D01*
X176263000Y-61833326D01*
X176265033Y-61814227D01*
X176265260Y-61809423D01*
X176267452Y-61799240D01*
X176263873Y-61769001D01*
X176263564Y-61763753D01*
X176263428Y-61763764D01*
X176263000Y-61758585D01*
X176263000Y-61753385D01*
X176262147Y-61748259D01*
X176262146Y-61748250D01*
X176260113Y-61736037D01*
X176259276Y-61730161D01*
X176254961Y-61693703D01*
X176254961Y-61693702D01*
X176253737Y-61683362D01*
X176250076Y-61675739D01*
X176248688Y-61667397D01*
X176241994Y-61654990D01*
X176238145Y-61647858D01*
X176226306Y-61625916D01*
X176223633Y-61620669D01*
X176203227Y-61578174D01*
X176199908Y-61574226D01*
X176197979Y-61572297D01*
X176196510Y-61570696D01*
X176196253Y-61570219D01*
X176196276Y-61570198D01*
X176196187Y-61570097D01*
X176193278Y-61564706D01*
X176156864Y-61531045D01*
X176153298Y-61527616D01*
X175133777Y-60508095D01*
X175099751Y-60445783D01*
X175104816Y-60374968D01*
X175147363Y-60318132D01*
X175213883Y-60293321D01*
X175222872Y-60293000D01*
X182570414Y-60293000D01*
X182638535Y-60313002D01*
G37*
G04 #@! TD.AperFunction*
G04 #@! TA.AperFunction,Conductor*
G36*
X162171245Y-77163002D02*
G01*
X162217738Y-77216658D01*
X162227842Y-77286932D01*
X162220518Y-77314766D01*
X162212809Y-77334539D01*
X162192258Y-77490638D01*
X162209535Y-77647133D01*
X162263643Y-77794990D01*
X162267880Y-77801296D01*
X162267882Y-77801299D01*
X162275868Y-77813183D01*
X162351458Y-77925672D01*
X162357074Y-77930782D01*
X162362042Y-77936538D01*
X162360710Y-77937687D01*
X162392723Y-77990265D01*
X162397000Y-78022817D01*
X162397000Y-83585978D01*
X162376998Y-83654099D01*
X162364634Y-83670291D01*
X162361259Y-83674038D01*
X162355534Y-83679033D01*
X162351169Y-83685243D01*
X162351166Y-83685247D01*
X162284622Y-83779930D01*
X162265001Y-83807848D01*
X162207809Y-83954539D01*
X162206818Y-83962068D01*
X162189156Y-84096223D01*
X162187258Y-84110638D01*
X162204535Y-84267133D01*
X162258643Y-84414990D01*
X162262880Y-84421296D01*
X162262882Y-84421299D01*
X162298542Y-84474366D01*
X162346458Y-84545672D01*
X162462910Y-84651635D01*
X162490671Y-84666708D01*
X162594599Y-84723137D01*
X162594601Y-84723138D01*
X162601276Y-84726762D01*
X162608625Y-84728690D01*
X162746219Y-84764787D01*
X162746221Y-84764787D01*
X162753569Y-84766715D01*
X162836880Y-84768024D01*
X162903398Y-84769069D01*
X162903401Y-84769069D01*
X162910995Y-84769188D01*
X163064468Y-84734038D01*
X163205125Y-84663295D01*
X163251883Y-84623360D01*
X163319074Y-84565974D01*
X163319076Y-84565971D01*
X163324848Y-84561042D01*
X163416724Y-84433183D01*
X163475450Y-84287098D01*
X163497634Y-84131223D01*
X163497778Y-84117500D01*
X163478863Y-83961194D01*
X163423210Y-83813912D01*
X163334031Y-83684157D01*
X163329267Y-83679913D01*
X163299441Y-83616058D01*
X163298000Y-83597056D01*
X163298000Y-78023454D01*
X163318002Y-77955333D01*
X163327455Y-77943086D01*
X163329848Y-77941042D01*
X163340893Y-77925672D01*
X163347739Y-77916143D01*
X163380087Y-77871127D01*
X163436081Y-77827480D01*
X163506784Y-77821034D01*
X163569749Y-77853837D01*
X163586985Y-77874370D01*
X163621458Y-77925672D01*
X163737910Y-78031635D01*
X163744585Y-78035259D01*
X163869599Y-78103137D01*
X163869601Y-78103138D01*
X163876276Y-78106762D01*
X163883625Y-78108690D01*
X164021218Y-78144787D01*
X164021222Y-78144788D01*
X164028569Y-78146715D01*
X164080197Y-78147526D01*
X164147994Y-78168595D01*
X164167312Y-78184415D01*
X164664747Y-78681850D01*
X164674601Y-78692939D01*
X164689793Y-78712209D01*
X164695628Y-78719610D01*
X164703375Y-78724965D01*
X164703377Y-78724966D01*
X164743875Y-78752955D01*
X164747087Y-78755250D01*
X164794316Y-78790134D01*
X164801132Y-78792527D01*
X164807069Y-78796631D01*
X164816049Y-78799471D01*
X164816051Y-78799472D01*
X164836217Y-78805850D01*
X164863019Y-78814326D01*
X164866750Y-78815571D01*
X164913237Y-78831896D01*
X164913239Y-78831896D01*
X164922131Y-78835019D01*
X164929319Y-78835301D01*
X164929378Y-78835312D01*
X164936230Y-78837480D01*
X164942837Y-78838000D01*
X164995516Y-78838000D01*
X165000462Y-78838097D01*
X165057494Y-78840338D01*
X165064600Y-78838454D01*
X165072847Y-78838000D01*
X170153707Y-78838000D01*
X170221828Y-78858002D01*
X170242802Y-78874905D01*
X170466709Y-79098812D01*
X170500735Y-79161124D01*
X170495670Y-79231939D01*
X170453123Y-79288775D01*
X170397070Y-79311092D01*
X170397184Y-79311565D01*
X170317795Y-79330625D01*
X170251467Y-79346548D01*
X170251463Y-79346549D01*
X170244088Y-79348320D01*
X170104179Y-79420532D01*
X170098457Y-79425524D01*
X170098455Y-79425525D01*
X169991259Y-79519038D01*
X169991256Y-79519041D01*
X169985534Y-79524033D01*
X169895001Y-79652848D01*
X169837809Y-79799539D01*
X169836818Y-79807068D01*
X169818479Y-79946366D01*
X169817258Y-79955638D01*
X169834535Y-80112133D01*
X169888643Y-80259990D01*
X169892880Y-80266296D01*
X169892882Y-80266299D01*
X169909923Y-80291658D01*
X169976458Y-80390672D01*
X169982077Y-80395785D01*
X169982078Y-80395786D01*
X170011772Y-80422806D01*
X170048695Y-80483446D01*
X170046972Y-80554422D01*
X170007150Y-80613199D01*
X169941872Y-80641116D01*
X169926973Y-80642000D01*
X168691720Y-80642000D01*
X168676911Y-80641127D01*
X168652543Y-80638243D01*
X168643190Y-80637136D01*
X168633926Y-80638828D01*
X168633925Y-80638828D01*
X168585499Y-80647672D01*
X168581596Y-80648322D01*
X168532855Y-80655650D01*
X168532854Y-80655650D01*
X168523538Y-80657051D01*
X168517025Y-80660179D01*
X168509927Y-80661475D01*
X168457853Y-80688525D01*
X168454363Y-80690268D01*
X168401421Y-80715691D01*
X168396135Y-80720577D01*
X168396087Y-80720610D01*
X168389712Y-80723921D01*
X168384672Y-80728225D01*
X168347445Y-80765452D01*
X168343880Y-80768881D01*
X168301944Y-80807646D01*
X168298251Y-80814005D01*
X168292734Y-80820163D01*
X165543046Y-83569851D01*
X165480734Y-83603877D01*
X165453292Y-83606754D01*
X165417184Y-83606565D01*
X165409805Y-83608337D01*
X165409801Y-83608337D01*
X165271467Y-83641548D01*
X165271463Y-83641549D01*
X165264088Y-83643320D01*
X165124179Y-83715532D01*
X165118457Y-83720524D01*
X165118455Y-83720525D01*
X165011259Y-83814038D01*
X165011256Y-83814041D01*
X165005534Y-83819033D01*
X165001167Y-83825247D01*
X164930220Y-83926194D01*
X164915001Y-83947848D01*
X164857809Y-84094539D01*
X164852979Y-84131223D01*
X164840087Y-84229152D01*
X164837258Y-84250638D01*
X164854535Y-84407133D01*
X164908643Y-84554990D01*
X164912880Y-84561296D01*
X164912882Y-84561299D01*
X164937743Y-84598295D01*
X164996458Y-84685672D01*
X165112910Y-84791635D01*
X165119585Y-84795259D01*
X165244599Y-84863137D01*
X165244601Y-84863138D01*
X165251276Y-84866762D01*
X165258625Y-84868690D01*
X165396219Y-84904787D01*
X165396221Y-84904787D01*
X165403569Y-84906715D01*
X165486880Y-84908024D01*
X165553398Y-84909069D01*
X165553401Y-84909069D01*
X165560995Y-84909188D01*
X165714468Y-84874038D01*
X165855125Y-84803295D01*
X165897045Y-84767492D01*
X165969074Y-84705974D01*
X165969076Y-84705971D01*
X165974848Y-84701042D01*
X166066724Y-84573183D01*
X166125450Y-84427098D01*
X166146980Y-84275816D01*
X166176381Y-84211194D01*
X166182628Y-84204475D01*
X168807198Y-81579905D01*
X168869510Y-81545879D01*
X168896293Y-81543000D01*
X169877234Y-81543000D01*
X169945355Y-81563002D01*
X169991848Y-81616658D01*
X170001952Y-81686932D01*
X169980322Y-81741449D01*
X169895001Y-81862848D01*
X169837809Y-82009539D01*
X169836818Y-82017067D01*
X169819050Y-82152026D01*
X169790327Y-82216953D01*
X169783223Y-82224674D01*
X164107802Y-87900095D01*
X164045490Y-87934121D01*
X164018707Y-87937000D01*
X158331541Y-87937000D01*
X158263420Y-87916998D01*
X158216927Y-87863342D01*
X158206823Y-87793068D01*
X158214634Y-87764003D01*
X158222615Y-87744151D01*
X158222616Y-87744149D01*
X158225450Y-87737098D01*
X158247634Y-87581223D01*
X158247778Y-87567500D01*
X158228863Y-87411194D01*
X158191404Y-87312061D01*
X158175894Y-87271014D01*
X158175893Y-87271011D01*
X158173210Y-87263912D01*
X158084031Y-87134157D01*
X158078364Y-87129108D01*
X158073337Y-87123406D01*
X158074810Y-87122108D01*
X158042627Y-87070480D01*
X158038000Y-87036650D01*
X158038000Y-82384000D01*
X158058002Y-82315879D01*
X158111658Y-82269386D01*
X158164000Y-82258000D01*
X158432250Y-82258000D01*
X158500371Y-82278002D01*
X158517049Y-82290806D01*
X158572910Y-82341635D01*
X158579583Y-82345258D01*
X158704599Y-82413137D01*
X158704601Y-82413138D01*
X158711276Y-82416762D01*
X158718625Y-82418690D01*
X158856219Y-82454787D01*
X158856221Y-82454787D01*
X158863569Y-82456715D01*
X158946880Y-82458024D01*
X159013398Y-82459069D01*
X159013401Y-82459069D01*
X159020995Y-82459188D01*
X159174468Y-82424038D01*
X159315125Y-82353295D01*
X159358934Y-82315879D01*
X159429074Y-82255974D01*
X159429076Y-82255971D01*
X159434848Y-82251042D01*
X159526724Y-82123183D01*
X159585450Y-81977098D01*
X159607634Y-81821223D01*
X159607778Y-81807500D01*
X159588863Y-81651194D01*
X159533210Y-81503912D01*
X159444031Y-81374157D01*
X159342103Y-81283342D01*
X159332148Y-81274472D01*
X159332145Y-81274470D01*
X159326476Y-81269419D01*
X159312561Y-81262051D01*
X159194043Y-81199299D01*
X159194044Y-81199299D01*
X159187331Y-81195745D01*
X159170622Y-81191548D01*
X159041998Y-81159240D01*
X159041996Y-81159240D01*
X159034628Y-81157389D01*
X159027030Y-81157349D01*
X159027028Y-81157349D01*
X158959819Y-81156997D01*
X158877184Y-81156565D01*
X158869805Y-81158337D01*
X158869801Y-81158337D01*
X158731467Y-81191548D01*
X158731463Y-81191549D01*
X158724088Y-81193320D01*
X158584179Y-81265532D01*
X158578462Y-81270519D01*
X158578455Y-81270524D01*
X158514921Y-81325949D01*
X158450439Y-81355657D01*
X158432092Y-81357000D01*
X158164000Y-81357000D01*
X158095879Y-81336998D01*
X158049386Y-81283342D01*
X158038000Y-81231000D01*
X158038000Y-79466293D01*
X158058002Y-79398172D01*
X158074905Y-79377198D01*
X160272198Y-77179905D01*
X160334510Y-77145879D01*
X160361293Y-77143000D01*
X162103124Y-77143000D01*
X162171245Y-77163002D01*
G37*
G04 #@! TD.AperFunction*
G04 #@! TD*
M02*
