G04 #@! TF.GenerationSoftware,KiCad,Pcbnew,6.0.2+dfsg-1*
G04 #@! TF.CreationDate,2023-02-17T06:09:52+01:00*
G04 #@! TF.ProjectId,procesor,70726f63-6573-46f7-922e-6b696361645f,rev?*
G04 #@! TF.SameCoordinates,Original*
G04 #@! TF.FileFunction,Legend,Top*
G04 #@! TF.FilePolarity,Positive*
%FSLAX46Y46*%
G04 Gerber Fmt 4.6, Leading zero omitted, Abs format (unit mm)*
G04 Created by KiCad (PCBNEW 6.0.2+dfsg-1) date 2023-02-17 06:09:52*
%MOMM*%
%LPD*%
G01*
G04 APERTURE LIST*
%ADD10C,0.200000*%
%ADD11C,0.250000*%
%ADD12C,0.300000*%
%ADD13C,0.150000*%
%ADD14C,0.120000*%
%ADD15C,0.050000*%
G04 APERTURE END LIST*
D10*
X99559642Y-68975357D02*
X99159642Y-68403928D01*
X98873928Y-68975357D02*
X98873928Y-67775357D01*
X99331071Y-67775357D01*
X99445357Y-67832500D01*
X99502500Y-67889642D01*
X99559642Y-68003928D01*
X99559642Y-68175357D01*
X99502500Y-68289642D01*
X99445357Y-68346785D01*
X99331071Y-68403928D01*
X98873928Y-68403928D01*
X100073928Y-68346785D02*
X100473928Y-68346785D01*
X100645357Y-68975357D02*
X100073928Y-68975357D01*
X100073928Y-67775357D01*
X100645357Y-67775357D01*
X101102500Y-68918214D02*
X101273928Y-68975357D01*
X101559642Y-68975357D01*
X101673928Y-68918214D01*
X101731071Y-68861071D01*
X101788214Y-68746785D01*
X101788214Y-68632500D01*
X101731071Y-68518214D01*
X101673928Y-68461071D01*
X101559642Y-68403928D01*
X101331071Y-68346785D01*
X101216785Y-68289642D01*
X101159642Y-68232500D01*
X101102500Y-68118214D01*
X101102500Y-68003928D01*
X101159642Y-67889642D01*
X101216785Y-67832500D01*
X101331071Y-67775357D01*
X101616785Y-67775357D01*
X101788214Y-67832500D01*
X102302500Y-68346785D02*
X102702500Y-68346785D01*
X102873928Y-68975357D02*
X102302500Y-68975357D01*
X102302500Y-67775357D01*
X102873928Y-67775357D01*
X103216785Y-67775357D02*
X103902500Y-67775357D01*
X103559642Y-68975357D02*
X103559642Y-67775357D01*
D11*
X115493214Y-70565357D02*
X115493214Y-69365357D01*
X115950357Y-69365357D01*
X116064642Y-69422500D01*
X116121785Y-69479642D01*
X116178928Y-69593928D01*
X116178928Y-69765357D01*
X116121785Y-69879642D01*
X116064642Y-69936785D01*
X115950357Y-69993928D01*
X115493214Y-69993928D01*
X116864642Y-70565357D02*
X116750357Y-70508214D01*
X116693214Y-70451071D01*
X116636071Y-70336785D01*
X116636071Y-69993928D01*
X116693214Y-69879642D01*
X116750357Y-69822500D01*
X116864642Y-69765357D01*
X117036071Y-69765357D01*
X117150357Y-69822500D01*
X117207500Y-69879642D01*
X117264642Y-69993928D01*
X117264642Y-70336785D01*
X117207500Y-70451071D01*
X117150357Y-70508214D01*
X117036071Y-70565357D01*
X116864642Y-70565357D01*
X117664642Y-69765357D02*
X117893214Y-70565357D01*
X118121785Y-69993928D01*
X118350357Y-70565357D01*
X118578928Y-69765357D01*
X119493214Y-70508214D02*
X119378928Y-70565357D01*
X119150357Y-70565357D01*
X119036071Y-70508214D01*
X118978928Y-70393928D01*
X118978928Y-69936785D01*
X119036071Y-69822500D01*
X119150357Y-69765357D01*
X119378928Y-69765357D01*
X119493214Y-69822500D01*
X119550357Y-69936785D01*
X119550357Y-70051071D01*
X118978928Y-70165357D01*
X120064642Y-70565357D02*
X120064642Y-69765357D01*
X120064642Y-69993928D02*
X120121785Y-69879642D01*
X120178928Y-69822500D01*
X120293214Y-69765357D01*
X120407500Y-69765357D01*
X122293214Y-69365357D02*
X121721785Y-69365357D01*
X121664642Y-69936785D01*
X121721785Y-69879642D01*
X121836071Y-69822500D01*
X122121785Y-69822500D01*
X122236071Y-69879642D01*
X122293214Y-69936785D01*
X122350357Y-70051071D01*
X122350357Y-70336785D01*
X122293214Y-70451071D01*
X122236071Y-70508214D01*
X122121785Y-70565357D01*
X121836071Y-70565357D01*
X121721785Y-70508214D01*
X121664642Y-70451071D01*
X122693214Y-69365357D02*
X123093214Y-70565357D01*
X123493214Y-69365357D01*
X130281785Y-78510357D02*
X130281785Y-77310357D01*
X130738928Y-77310357D01*
X130853214Y-77367500D01*
X130910357Y-77424642D01*
X130967500Y-77538928D01*
X130967500Y-77710357D01*
X130910357Y-77824642D01*
X130853214Y-77881785D01*
X130738928Y-77938928D01*
X130281785Y-77938928D01*
X131653214Y-78510357D02*
X131538928Y-78453214D01*
X131481785Y-78396071D01*
X131424642Y-78281785D01*
X131424642Y-77938928D01*
X131481785Y-77824642D01*
X131538928Y-77767500D01*
X131653214Y-77710357D01*
X131824642Y-77710357D01*
X131938928Y-77767500D01*
X131996071Y-77824642D01*
X132053214Y-77938928D01*
X132053214Y-78281785D01*
X131996071Y-78396071D01*
X131938928Y-78453214D01*
X131824642Y-78510357D01*
X131653214Y-78510357D01*
X132453214Y-77710357D02*
X132681785Y-78510357D01*
X132910357Y-77938928D01*
X133138928Y-78510357D01*
X133367500Y-77710357D01*
X134281785Y-78453214D02*
X134167500Y-78510357D01*
X133938928Y-78510357D01*
X133824642Y-78453214D01*
X133767500Y-78338928D01*
X133767500Y-77881785D01*
X133824642Y-77767500D01*
X133938928Y-77710357D01*
X134167500Y-77710357D01*
X134281785Y-77767500D01*
X134338928Y-77881785D01*
X134338928Y-77996071D01*
X133767500Y-78110357D01*
X134853214Y-78510357D02*
X134853214Y-77710357D01*
X134853214Y-77938928D02*
X134910357Y-77824642D01*
X134967500Y-77767500D01*
X135081785Y-77710357D01*
X135196071Y-77710357D01*
X136396071Y-77310357D02*
X137138928Y-77310357D01*
X136738928Y-77767500D01*
X136910357Y-77767500D01*
X137024642Y-77824642D01*
X137081785Y-77881785D01*
X137138928Y-77996071D01*
X137138928Y-78281785D01*
X137081785Y-78396071D01*
X137024642Y-78453214D01*
X136910357Y-78510357D01*
X136567500Y-78510357D01*
X136453214Y-78453214D01*
X136396071Y-78396071D01*
X137481785Y-77310357D02*
X137881785Y-78510357D01*
X138281785Y-77310357D01*
X138567500Y-77310357D02*
X139310357Y-77310357D01*
X138910357Y-77767500D01*
X139081785Y-77767500D01*
X139196071Y-77824642D01*
X139253214Y-77881785D01*
X139310357Y-77996071D01*
X139310357Y-78281785D01*
X139253214Y-78396071D01*
X139196071Y-78453214D01*
X139081785Y-78510357D01*
X138738928Y-78510357D01*
X138624642Y-78453214D01*
X138567500Y-78396071D01*
D12*
X137874166Y-133757500D02*
X140540833Y-133757500D01*
X139207500Y-135090833D02*
X139207500Y-132424166D01*
D10*
X99673928Y-61271785D02*
X99845357Y-61328928D01*
X99902500Y-61386071D01*
X99959642Y-61500357D01*
X99959642Y-61671785D01*
X99902500Y-61786071D01*
X99845357Y-61843214D01*
X99731071Y-61900357D01*
X99273928Y-61900357D01*
X99273928Y-60700357D01*
X99673928Y-60700357D01*
X99788214Y-60757500D01*
X99845357Y-60814642D01*
X99902500Y-60928928D01*
X99902500Y-61043214D01*
X99845357Y-61157500D01*
X99788214Y-61214642D01*
X99673928Y-61271785D01*
X99273928Y-61271785D01*
X100702500Y-60700357D02*
X100931071Y-60700357D01*
X101045357Y-60757500D01*
X101159642Y-60871785D01*
X101216785Y-61100357D01*
X101216785Y-61500357D01*
X101159642Y-61728928D01*
X101045357Y-61843214D01*
X100931071Y-61900357D01*
X100702500Y-61900357D01*
X100588214Y-61843214D01*
X100473928Y-61728928D01*
X100416785Y-61500357D01*
X100416785Y-61100357D01*
X100473928Y-60871785D01*
X100588214Y-60757500D01*
X100702500Y-60700357D01*
X101959642Y-60700357D02*
X102188214Y-60700357D01*
X102302500Y-60757500D01*
X102416785Y-60871785D01*
X102473928Y-61100357D01*
X102473928Y-61500357D01*
X102416785Y-61728928D01*
X102302500Y-61843214D01*
X102188214Y-61900357D01*
X101959642Y-61900357D01*
X101845357Y-61843214D01*
X101731071Y-61728928D01*
X101673928Y-61500357D01*
X101673928Y-61100357D01*
X101731071Y-60871785D01*
X101845357Y-60757500D01*
X101959642Y-60700357D01*
X102816785Y-60700357D02*
X103502500Y-60700357D01*
X103159642Y-61900357D02*
X103159642Y-60700357D01*
D13*
X170164880Y-135882976D02*
X170164880Y-136359166D01*
X170641071Y-136406785D01*
X170593452Y-136359166D01*
X170545833Y-136263928D01*
X170545833Y-136025833D01*
X170593452Y-135930595D01*
X170641071Y-135882976D01*
X170736309Y-135835357D01*
X170974404Y-135835357D01*
X171069642Y-135882976D01*
X171117261Y-135930595D01*
X171164880Y-136025833D01*
X171164880Y-136263928D01*
X171117261Y-136359166D01*
X171069642Y-136406785D01*
X170164880Y-135549642D02*
X171164880Y-135216309D01*
X170164880Y-134882976D01*
D10*
X130516071Y-135470357D02*
X130516071Y-134270357D01*
X131316071Y-134270357D02*
X131544642Y-134270357D01*
X131658928Y-134327500D01*
X131773214Y-134441785D01*
X131830357Y-134670357D01*
X131830357Y-135070357D01*
X131773214Y-135298928D01*
X131658928Y-135413214D01*
X131544642Y-135470357D01*
X131316071Y-135470357D01*
X131201785Y-135413214D01*
X131087500Y-135298928D01*
X131030357Y-135070357D01*
X131030357Y-134670357D01*
X131087500Y-134441785D01*
X131201785Y-134327500D01*
X131316071Y-134270357D01*
X132973214Y-135470357D02*
X132287500Y-135470357D01*
X132630357Y-135470357D02*
X132630357Y-134270357D01*
X132516071Y-134441785D01*
X132401785Y-134556071D01*
X132287500Y-134613214D01*
X134001785Y-134670357D02*
X134001785Y-135470357D01*
X133716071Y-134213214D02*
X133430357Y-135070357D01*
X134173214Y-135070357D01*
X104093214Y-52250357D02*
X104093214Y-53221785D01*
X104150357Y-53336071D01*
X104207500Y-53393214D01*
X104321785Y-53450357D01*
X104550357Y-53450357D01*
X104664642Y-53393214D01*
X104721785Y-53336071D01*
X104778928Y-53221785D01*
X104778928Y-52250357D01*
X105293214Y-53107500D02*
X105864642Y-53107500D01*
X105178928Y-53450357D02*
X105578928Y-52250357D01*
X105978928Y-53450357D01*
X107064642Y-53450357D02*
X106664642Y-52878928D01*
X106378928Y-53450357D02*
X106378928Y-52250357D01*
X106836071Y-52250357D01*
X106950357Y-52307500D01*
X107007500Y-52364642D01*
X107064642Y-52478928D01*
X107064642Y-52650357D01*
X107007500Y-52764642D01*
X106950357Y-52821785D01*
X106836071Y-52878928D01*
X106378928Y-52878928D01*
X107407500Y-52250357D02*
X108093214Y-52250357D01*
X107750357Y-53450357D02*
X107750357Y-52250357D01*
D13*
X163549880Y-137553690D02*
X162549880Y-137553690D01*
X162549880Y-136887023D02*
X162549880Y-136696547D01*
X162597500Y-136601309D01*
X162692738Y-136506071D01*
X162883214Y-136458452D01*
X163216547Y-136458452D01*
X163407023Y-136506071D01*
X163502261Y-136601309D01*
X163549880Y-136696547D01*
X163549880Y-136887023D01*
X163502261Y-136982261D01*
X163407023Y-137077500D01*
X163216547Y-137125119D01*
X162883214Y-137125119D01*
X162692738Y-137077500D01*
X162597500Y-136982261D01*
X162549880Y-136887023D01*
X162549880Y-136125119D02*
X162549880Y-135506071D01*
X162930833Y-135839404D01*
X162930833Y-135696547D01*
X162978452Y-135601309D01*
X163026071Y-135553690D01*
X163121309Y-135506071D01*
X163359404Y-135506071D01*
X163454642Y-135553690D01*
X163502261Y-135601309D01*
X163549880Y-135696547D01*
X163549880Y-135982261D01*
X163502261Y-136077500D01*
X163454642Y-136125119D01*
X162549880Y-135172738D02*
X162549880Y-134506071D01*
X163549880Y-134934642D01*
X158469880Y-137568690D02*
X157469880Y-137568690D01*
X157469880Y-136902023D02*
X157469880Y-136711547D01*
X157517500Y-136616309D01*
X157612738Y-136521071D01*
X157803214Y-136473452D01*
X158136547Y-136473452D01*
X158327023Y-136521071D01*
X158422261Y-136616309D01*
X158469880Y-136711547D01*
X158469880Y-136902023D01*
X158422261Y-136997261D01*
X158327023Y-137092500D01*
X158136547Y-137140119D01*
X157803214Y-137140119D01*
X157612738Y-137092500D01*
X157517500Y-136997261D01*
X157469880Y-136902023D01*
X157469880Y-136140119D02*
X157469880Y-135521071D01*
X157850833Y-135854404D01*
X157850833Y-135711547D01*
X157898452Y-135616309D01*
X157946071Y-135568690D01*
X158041309Y-135521071D01*
X158279404Y-135521071D01*
X158374642Y-135568690D01*
X158422261Y-135616309D01*
X158469880Y-135711547D01*
X158469880Y-135997261D01*
X158422261Y-136092500D01*
X158374642Y-136140119D01*
X157469880Y-134616309D02*
X157469880Y-135092500D01*
X157946071Y-135140119D01*
X157898452Y-135092500D01*
X157850833Y-134997261D01*
X157850833Y-134759166D01*
X157898452Y-134663928D01*
X157946071Y-134616309D01*
X158041309Y-134568690D01*
X158279404Y-134568690D01*
X158374642Y-134616309D01*
X158422261Y-134663928D01*
X158469880Y-134759166D01*
X158469880Y-134997261D01*
X158422261Y-135092500D01*
X158374642Y-135140119D01*
X166079880Y-137563690D02*
X165079880Y-137563690D01*
X165079880Y-136897023D02*
X165079880Y-136706547D01*
X165127500Y-136611309D01*
X165222738Y-136516071D01*
X165413214Y-136468452D01*
X165746547Y-136468452D01*
X165937023Y-136516071D01*
X166032261Y-136611309D01*
X166079880Y-136706547D01*
X166079880Y-136897023D01*
X166032261Y-136992261D01*
X165937023Y-137087500D01*
X165746547Y-137135119D01*
X165413214Y-137135119D01*
X165222738Y-137087500D01*
X165127500Y-136992261D01*
X165079880Y-136897023D01*
X165079880Y-136135119D02*
X165079880Y-135516071D01*
X165460833Y-135849404D01*
X165460833Y-135706547D01*
X165508452Y-135611309D01*
X165556071Y-135563690D01*
X165651309Y-135516071D01*
X165889404Y-135516071D01*
X165984642Y-135563690D01*
X166032261Y-135611309D01*
X166079880Y-135706547D01*
X166079880Y-135992261D01*
X166032261Y-136087500D01*
X165984642Y-136135119D01*
X165508452Y-134944642D02*
X165460833Y-135039880D01*
X165413214Y-135087500D01*
X165317976Y-135135119D01*
X165270357Y-135135119D01*
X165175119Y-135087500D01*
X165127500Y-135039880D01*
X165079880Y-134944642D01*
X165079880Y-134754166D01*
X165127500Y-134658928D01*
X165175119Y-134611309D01*
X165270357Y-134563690D01*
X165317976Y-134563690D01*
X165413214Y-134611309D01*
X165460833Y-134658928D01*
X165508452Y-134754166D01*
X165508452Y-134944642D01*
X165556071Y-135039880D01*
X165603690Y-135087500D01*
X165698928Y-135135119D01*
X165889404Y-135135119D01*
X165984642Y-135087500D01*
X166032261Y-135039880D01*
X166079880Y-134944642D01*
X166079880Y-134754166D01*
X166032261Y-134658928D01*
X165984642Y-134611309D01*
X165889404Y-134563690D01*
X165698928Y-134563690D01*
X165603690Y-134611309D01*
X165556071Y-134658928D01*
X165508452Y-134754166D01*
X167682500Y-136884404D02*
X167634880Y-136979642D01*
X167634880Y-137122500D01*
X167682500Y-137265357D01*
X167777738Y-137360595D01*
X167872976Y-137408214D01*
X168063452Y-137455833D01*
X168206309Y-137455833D01*
X168396785Y-137408214D01*
X168492023Y-137360595D01*
X168587261Y-137265357D01*
X168634880Y-137122500D01*
X168634880Y-137027261D01*
X168587261Y-136884404D01*
X168539642Y-136836785D01*
X168206309Y-136836785D01*
X168206309Y-137027261D01*
X168634880Y-136408214D02*
X167634880Y-136408214D01*
X168634880Y-135836785D01*
X167634880Y-135836785D01*
X168634880Y-135360595D02*
X167634880Y-135360595D01*
X167634880Y-135122500D01*
X167682500Y-134979642D01*
X167777738Y-134884404D01*
X167872976Y-134836785D01*
X168063452Y-134789166D01*
X168206309Y-134789166D01*
X168396785Y-134836785D01*
X168492023Y-134884404D01*
X168587261Y-134979642D01*
X168634880Y-135122500D01*
X168634880Y-135360595D01*
D12*
X139828928Y-98752261D02*
X138876547Y-98752261D01*
X138876547Y-96752261D01*
X140781309Y-98752261D02*
X140590833Y-98657023D01*
X140495595Y-98561785D01*
X140400357Y-98371309D01*
X140400357Y-97799880D01*
X140495595Y-97609404D01*
X140590833Y-97514166D01*
X140781309Y-97418928D01*
X141067023Y-97418928D01*
X141257500Y-97514166D01*
X141352738Y-97609404D01*
X141447976Y-97799880D01*
X141447976Y-98371309D01*
X141352738Y-98561785D01*
X141257500Y-98657023D01*
X141067023Y-98752261D01*
X140781309Y-98752261D01*
X143162261Y-97418928D02*
X143162261Y-99037976D01*
X143067023Y-99228452D01*
X142971785Y-99323690D01*
X142781309Y-99418928D01*
X142495595Y-99418928D01*
X142305119Y-99323690D01*
X143162261Y-98657023D02*
X142971785Y-98752261D01*
X142590833Y-98752261D01*
X142400357Y-98657023D01*
X142305119Y-98561785D01*
X142209880Y-98371309D01*
X142209880Y-97799880D01*
X142305119Y-97609404D01*
X142400357Y-97514166D01*
X142590833Y-97418928D01*
X142971785Y-97418928D01*
X143162261Y-97514166D01*
X144114642Y-98752261D02*
X144114642Y-97418928D01*
X144114642Y-96752261D02*
X144019404Y-96847500D01*
X144114642Y-96942738D01*
X144209880Y-96847500D01*
X144114642Y-96752261D01*
X144114642Y-96942738D01*
X145924166Y-98657023D02*
X145733690Y-98752261D01*
X145352738Y-98752261D01*
X145162261Y-98657023D01*
X145067023Y-98561785D01*
X144971785Y-98371309D01*
X144971785Y-97799880D01*
X145067023Y-97609404D01*
X145162261Y-97514166D01*
X145352738Y-97418928D01*
X145733690Y-97418928D01*
X145924166Y-97514166D01*
X148114642Y-97418928D02*
X148590833Y-98752261D01*
X149067023Y-97418928D01*
X149733690Y-96942738D02*
X149828928Y-96847500D01*
X150019404Y-96752261D01*
X150495595Y-96752261D01*
X150686071Y-96847500D01*
X150781309Y-96942738D01*
X150876547Y-97133214D01*
X150876547Y-97323690D01*
X150781309Y-97609404D01*
X149638452Y-98752261D01*
X150876547Y-98752261D01*
X151733690Y-98561785D02*
X151828928Y-98657023D01*
X151733690Y-98752261D01*
X151638452Y-98657023D01*
X151733690Y-98561785D01*
X151733690Y-98752261D01*
X153067023Y-96752261D02*
X153257500Y-96752261D01*
X153447976Y-96847500D01*
X153543214Y-96942738D01*
X153638452Y-97133214D01*
X153733690Y-97514166D01*
X153733690Y-97990357D01*
X153638452Y-98371309D01*
X153543214Y-98561785D01*
X153447976Y-98657023D01*
X153257500Y-98752261D01*
X153067023Y-98752261D01*
X152876547Y-98657023D01*
X152781309Y-98561785D01*
X152686071Y-98371309D01*
X152590833Y-97990357D01*
X152590833Y-97514166D01*
X152686071Y-97133214D01*
X152781309Y-96942738D01*
X152876547Y-96847500D01*
X153067023Y-96752261D01*
X136686071Y-101972261D02*
X136686071Y-99972261D01*
X136686071Y-100734166D02*
X136876547Y-100638928D01*
X137257500Y-100638928D01*
X137447976Y-100734166D01*
X137543214Y-100829404D01*
X137638452Y-101019880D01*
X137638452Y-101591309D01*
X137543214Y-101781785D01*
X137447976Y-101877023D01*
X137257500Y-101972261D01*
X136876547Y-101972261D01*
X136686071Y-101877023D01*
X138305119Y-100638928D02*
X138781309Y-101972261D01*
X139257500Y-100638928D02*
X138781309Y-101972261D01*
X138590833Y-102448452D01*
X138495595Y-102543690D01*
X138305119Y-102638928D01*
X142686071Y-101972261D02*
X142019404Y-101019880D01*
X141543214Y-101972261D02*
X141543214Y-99972261D01*
X142305119Y-99972261D01*
X142495595Y-100067500D01*
X142590833Y-100162738D01*
X142686071Y-100353214D01*
X142686071Y-100638928D01*
X142590833Y-100829404D01*
X142495595Y-100924642D01*
X142305119Y-101019880D01*
X141543214Y-101019880D01*
X143828928Y-101972261D02*
X143638452Y-101877023D01*
X143543214Y-101781785D01*
X143447976Y-101591309D01*
X143447976Y-101019880D01*
X143543214Y-100829404D01*
X143638452Y-100734166D01*
X143828928Y-100638928D01*
X144114642Y-100638928D01*
X144305119Y-100734166D01*
X144400357Y-100829404D01*
X144495595Y-101019880D01*
X144495595Y-101591309D01*
X144400357Y-101781785D01*
X144305119Y-101877023D01*
X144114642Y-101972261D01*
X143828928Y-101972261D01*
X145352738Y-101972261D02*
X145352738Y-99972261D01*
X145352738Y-100734166D02*
X145543214Y-100638928D01*
X145924166Y-100638928D01*
X146114642Y-100734166D01*
X146209880Y-100829404D01*
X146305119Y-101019880D01*
X146305119Y-101591309D01*
X146209880Y-101781785D01*
X146114642Y-101877023D01*
X145924166Y-101972261D01*
X145543214Y-101972261D01*
X145352738Y-101877023D01*
X147447976Y-101972261D02*
X147257500Y-101877023D01*
X147162261Y-101781785D01*
X147067023Y-101591309D01*
X147067023Y-101019880D01*
X147162261Y-100829404D01*
X147257500Y-100734166D01*
X147447976Y-100638928D01*
X147733690Y-100638928D01*
X147924166Y-100734166D01*
X148019404Y-100829404D01*
X148114642Y-101019880D01*
X148114642Y-101591309D01*
X148019404Y-101781785D01*
X147924166Y-101877023D01*
X147733690Y-101972261D01*
X147447976Y-101972261D01*
X148686071Y-100638928D02*
X149447976Y-100638928D01*
X148971785Y-99972261D02*
X148971785Y-101686547D01*
X149067023Y-101877023D01*
X149257500Y-101972261D01*
X149447976Y-101972261D01*
X150971785Y-101972261D02*
X150971785Y-100924642D01*
X150876547Y-100734166D01*
X150686071Y-100638928D01*
X150305119Y-100638928D01*
X150114642Y-100734166D01*
X150971785Y-101877023D02*
X150781309Y-101972261D01*
X150305119Y-101972261D01*
X150114642Y-101877023D01*
X150019404Y-101686547D01*
X150019404Y-101496071D01*
X150114642Y-101305595D01*
X150305119Y-101210357D01*
X150781309Y-101210357D01*
X150971785Y-101115119D01*
X150686071Y-99877023D02*
X150400357Y-100162738D01*
X151924166Y-101972261D02*
X151924166Y-100638928D01*
X151924166Y-101019880D02*
X152019404Y-100829404D01*
X152114642Y-100734166D01*
X152305119Y-100638928D01*
X152495595Y-100638928D01*
X153162261Y-100638928D02*
X153162261Y-101972261D01*
X153162261Y-100829404D02*
X153257500Y-100734166D01*
X153447976Y-100638928D01*
X153733690Y-100638928D01*
X153924166Y-100734166D01*
X154019404Y-100924642D01*
X154019404Y-101972261D01*
X155828928Y-101972261D02*
X155828928Y-100924642D01*
X155733690Y-100734166D01*
X155543214Y-100638928D01*
X155162261Y-100638928D01*
X154971785Y-100734166D01*
X155828928Y-101877023D02*
X155638452Y-101972261D01*
X155162261Y-101972261D01*
X154971785Y-101877023D01*
X154876547Y-101686547D01*
X154876547Y-101496071D01*
X154971785Y-101305595D01*
X155162261Y-101210357D01*
X155638452Y-101210357D01*
X155828928Y-101115119D01*
D13*
X161009880Y-137558690D02*
X160009880Y-137558690D01*
X160009880Y-136892023D02*
X160009880Y-136701547D01*
X160057500Y-136606309D01*
X160152738Y-136511071D01*
X160343214Y-136463452D01*
X160676547Y-136463452D01*
X160867023Y-136511071D01*
X160962261Y-136606309D01*
X161009880Y-136701547D01*
X161009880Y-136892023D01*
X160962261Y-136987261D01*
X160867023Y-137082500D01*
X160676547Y-137130119D01*
X160343214Y-137130119D01*
X160152738Y-137082500D01*
X160057500Y-136987261D01*
X160009880Y-136892023D01*
X160009880Y-136130119D02*
X160009880Y-135511071D01*
X160390833Y-135844404D01*
X160390833Y-135701547D01*
X160438452Y-135606309D01*
X160486071Y-135558690D01*
X160581309Y-135511071D01*
X160819404Y-135511071D01*
X160914642Y-135558690D01*
X160962261Y-135606309D01*
X161009880Y-135701547D01*
X161009880Y-135987261D01*
X160962261Y-136082500D01*
X160914642Y-136130119D01*
X160009880Y-134653928D02*
X160009880Y-134844404D01*
X160057500Y-134939642D01*
X160105119Y-134987261D01*
X160247976Y-135082500D01*
X160438452Y-135130119D01*
X160819404Y-135130119D01*
X160914642Y-135082500D01*
X160962261Y-135034880D01*
X161009880Y-134939642D01*
X161009880Y-134749166D01*
X160962261Y-134653928D01*
X160914642Y-134606309D01*
X160819404Y-134558690D01*
X160581309Y-134558690D01*
X160486071Y-134606309D01*
X160438452Y-134653928D01*
X160390833Y-134749166D01*
X160390833Y-134939642D01*
X160438452Y-135034880D01*
X160486071Y-135082500D01*
X160581309Y-135130119D01*
D10*
X136593214Y-51550357D02*
X136593214Y-52521785D01*
X136650357Y-52636071D01*
X136707500Y-52693214D01*
X136821785Y-52750357D01*
X137050357Y-52750357D01*
X137164642Y-52693214D01*
X137221785Y-52636071D01*
X137278928Y-52521785D01*
X137278928Y-51550357D01*
X137793214Y-52693214D02*
X137964642Y-52750357D01*
X138250357Y-52750357D01*
X138364642Y-52693214D01*
X138421785Y-52636071D01*
X138478928Y-52521785D01*
X138478928Y-52407500D01*
X138421785Y-52293214D01*
X138364642Y-52236071D01*
X138250357Y-52178928D01*
X138021785Y-52121785D01*
X137907500Y-52064642D01*
X137850357Y-52007500D01*
X137793214Y-51893214D01*
X137793214Y-51778928D01*
X137850357Y-51664642D01*
X137907500Y-51607500D01*
X138021785Y-51550357D01*
X138307500Y-51550357D01*
X138478928Y-51607500D01*
X139393214Y-52121785D02*
X139564642Y-52178928D01*
X139621785Y-52236071D01*
X139678928Y-52350357D01*
X139678928Y-52521785D01*
X139621785Y-52636071D01*
X139564642Y-52693214D01*
X139450357Y-52750357D01*
X138993214Y-52750357D01*
X138993214Y-51550357D01*
X139393214Y-51550357D01*
X139507500Y-51607500D01*
X139564642Y-51664642D01*
X139621785Y-51778928D01*
X139621785Y-51893214D01*
X139564642Y-52007500D01*
X139507500Y-52064642D01*
X139393214Y-52121785D01*
X138993214Y-52121785D01*
D13*
G04 #@! TO.C,R19*
X131164642Y-140759880D02*
X130831309Y-140283690D01*
X130593214Y-140759880D02*
X130593214Y-139759880D01*
X130974166Y-139759880D01*
X131069404Y-139807500D01*
X131117023Y-139855119D01*
X131164642Y-139950357D01*
X131164642Y-140093214D01*
X131117023Y-140188452D01*
X131069404Y-140236071D01*
X130974166Y-140283690D01*
X130593214Y-140283690D01*
X132117023Y-140759880D02*
X131545595Y-140759880D01*
X131831309Y-140759880D02*
X131831309Y-139759880D01*
X131736071Y-139902738D01*
X131640833Y-139997976D01*
X131545595Y-140045595D01*
X132593214Y-140759880D02*
X132783690Y-140759880D01*
X132878928Y-140712261D01*
X132926547Y-140664642D01*
X133021785Y-140521785D01*
X133069404Y-140331309D01*
X133069404Y-139950357D01*
X133021785Y-139855119D01*
X132974166Y-139807500D01*
X132878928Y-139759880D01*
X132688452Y-139759880D01*
X132593214Y-139807500D01*
X132545595Y-139855119D01*
X132497976Y-139950357D01*
X132497976Y-140188452D01*
X132545595Y-140283690D01*
X132593214Y-140331309D01*
X132688452Y-140378928D01*
X132878928Y-140378928D01*
X132974166Y-140331309D01*
X133021785Y-140283690D01*
X133069404Y-140188452D01*
G04 #@! TO.C,J2*
X107285119Y-119826666D02*
X106570833Y-119826666D01*
X106427976Y-119779047D01*
X106332738Y-119683809D01*
X106285119Y-119540952D01*
X106285119Y-119445714D01*
X107189880Y-120255238D02*
X107237500Y-120302857D01*
X107285119Y-120398095D01*
X107285119Y-120636190D01*
X107237500Y-120731428D01*
X107189880Y-120779047D01*
X107094642Y-120826666D01*
X106999404Y-120826666D01*
X106856547Y-120779047D01*
X106285119Y-120207619D01*
X106285119Y-120826666D01*
G04 #@! TO.C,Q6*
X136912261Y-137055119D02*
X136817023Y-137007500D01*
X136721785Y-136912261D01*
X136578928Y-136769404D01*
X136483690Y-136721785D01*
X136388452Y-136721785D01*
X136436071Y-136959880D02*
X136340833Y-136912261D01*
X136245595Y-136817023D01*
X136197976Y-136626547D01*
X136197976Y-136293214D01*
X136245595Y-136102738D01*
X136340833Y-136007500D01*
X136436071Y-135959880D01*
X136626547Y-135959880D01*
X136721785Y-136007500D01*
X136817023Y-136102738D01*
X136864642Y-136293214D01*
X136864642Y-136626547D01*
X136817023Y-136817023D01*
X136721785Y-136912261D01*
X136626547Y-136959880D01*
X136436071Y-136959880D01*
X137721785Y-135959880D02*
X137531309Y-135959880D01*
X137436071Y-136007500D01*
X137388452Y-136055119D01*
X137293214Y-136197976D01*
X137245595Y-136388452D01*
X137245595Y-136769404D01*
X137293214Y-136864642D01*
X137340833Y-136912261D01*
X137436071Y-136959880D01*
X137626547Y-136959880D01*
X137721785Y-136912261D01*
X137769404Y-136864642D01*
X137817023Y-136769404D01*
X137817023Y-136531309D01*
X137769404Y-136436071D01*
X137721785Y-136388452D01*
X137626547Y-136340833D01*
X137436071Y-136340833D01*
X137340833Y-136388452D01*
X137293214Y-136436071D01*
X137245595Y-136531309D01*
G04 #@! TO.C,D114*
X144517023Y-134559880D02*
X144517023Y-133559880D01*
X144755119Y-133559880D01*
X144897976Y-133607500D01*
X144993214Y-133702738D01*
X145040833Y-133797976D01*
X145088452Y-133988452D01*
X145088452Y-134131309D01*
X145040833Y-134321785D01*
X144993214Y-134417023D01*
X144897976Y-134512261D01*
X144755119Y-134559880D01*
X144517023Y-134559880D01*
X146040833Y-134559880D02*
X145469404Y-134559880D01*
X145755119Y-134559880D02*
X145755119Y-133559880D01*
X145659880Y-133702738D01*
X145564642Y-133797976D01*
X145469404Y-133845595D01*
X146993214Y-134559880D02*
X146421785Y-134559880D01*
X146707500Y-134559880D02*
X146707500Y-133559880D01*
X146612261Y-133702738D01*
X146517023Y-133797976D01*
X146421785Y-133845595D01*
X147850357Y-133893214D02*
X147850357Y-134559880D01*
X147612261Y-133512261D02*
X147374166Y-134226547D01*
X147993214Y-134226547D01*
G04 #@! TO.C,R16*
X131759642Y-60149880D02*
X131426309Y-59673690D01*
X131188214Y-60149880D02*
X131188214Y-59149880D01*
X131569166Y-59149880D01*
X131664404Y-59197500D01*
X131712023Y-59245119D01*
X131759642Y-59340357D01*
X131759642Y-59483214D01*
X131712023Y-59578452D01*
X131664404Y-59626071D01*
X131569166Y-59673690D01*
X131188214Y-59673690D01*
X132712023Y-60149880D02*
X132140595Y-60149880D01*
X132426309Y-60149880D02*
X132426309Y-59149880D01*
X132331071Y-59292738D01*
X132235833Y-59387976D01*
X132140595Y-59435595D01*
X133569166Y-59149880D02*
X133378690Y-59149880D01*
X133283452Y-59197500D01*
X133235833Y-59245119D01*
X133140595Y-59387976D01*
X133092976Y-59578452D01*
X133092976Y-59959404D01*
X133140595Y-60054642D01*
X133188214Y-60102261D01*
X133283452Y-60149880D01*
X133473928Y-60149880D01*
X133569166Y-60102261D01*
X133616785Y-60054642D01*
X133664404Y-59959404D01*
X133664404Y-59721309D01*
X133616785Y-59626071D01*
X133569166Y-59578452D01*
X133473928Y-59530833D01*
X133283452Y-59530833D01*
X133188214Y-59578452D01*
X133140595Y-59626071D01*
X133092976Y-59721309D01*
G04 #@! TO.C,R17*
X124434642Y-60149880D02*
X124101309Y-59673690D01*
X123863214Y-60149880D02*
X123863214Y-59149880D01*
X124244166Y-59149880D01*
X124339404Y-59197500D01*
X124387023Y-59245119D01*
X124434642Y-59340357D01*
X124434642Y-59483214D01*
X124387023Y-59578452D01*
X124339404Y-59626071D01*
X124244166Y-59673690D01*
X123863214Y-59673690D01*
X125387023Y-60149880D02*
X124815595Y-60149880D01*
X125101309Y-60149880D02*
X125101309Y-59149880D01*
X125006071Y-59292738D01*
X124910833Y-59387976D01*
X124815595Y-59435595D01*
X125720357Y-59149880D02*
X126387023Y-59149880D01*
X125958452Y-60149880D01*
G04 #@! TO.C,J3*
X154674880Y-143690833D02*
X155389166Y-143690833D01*
X155532023Y-143738452D01*
X155627261Y-143833690D01*
X155674880Y-143976547D01*
X155674880Y-144071785D01*
X154674880Y-143309880D02*
X154674880Y-142690833D01*
X155055833Y-143024166D01*
X155055833Y-142881309D01*
X155103452Y-142786071D01*
X155151071Y-142738452D01*
X155246309Y-142690833D01*
X155484404Y-142690833D01*
X155579642Y-142738452D01*
X155627261Y-142786071D01*
X155674880Y-142881309D01*
X155674880Y-143167023D01*
X155627261Y-143262261D01*
X155579642Y-143309880D01*
G04 #@! TO.C,C24*
X143284642Y-72600357D02*
X143332261Y-72647976D01*
X143379880Y-72790833D01*
X143379880Y-72886071D01*
X143332261Y-73028928D01*
X143237023Y-73124166D01*
X143141785Y-73171785D01*
X142951309Y-73219404D01*
X142808452Y-73219404D01*
X142617976Y-73171785D01*
X142522738Y-73124166D01*
X142427500Y-73028928D01*
X142379880Y-72886071D01*
X142379880Y-72790833D01*
X142427500Y-72647976D01*
X142475119Y-72600357D01*
X142475119Y-72219404D02*
X142427500Y-72171785D01*
X142379880Y-72076547D01*
X142379880Y-71838452D01*
X142427500Y-71743214D01*
X142475119Y-71695595D01*
X142570357Y-71647976D01*
X142665595Y-71647976D01*
X142808452Y-71695595D01*
X143379880Y-72267023D01*
X143379880Y-71647976D01*
X142713214Y-70790833D02*
X143379880Y-70790833D01*
X142332261Y-71028928D02*
X143046547Y-71267023D01*
X143046547Y-70647976D01*
G04 #@! TO.C,U3*
X167800595Y-51854880D02*
X167800595Y-52664404D01*
X167848214Y-52759642D01*
X167895833Y-52807261D01*
X167991071Y-52854880D01*
X168181547Y-52854880D01*
X168276785Y-52807261D01*
X168324404Y-52759642D01*
X168372023Y-52664404D01*
X168372023Y-51854880D01*
X168752976Y-51854880D02*
X169372023Y-51854880D01*
X169038690Y-52235833D01*
X169181547Y-52235833D01*
X169276785Y-52283452D01*
X169324404Y-52331071D01*
X169372023Y-52426309D01*
X169372023Y-52664404D01*
X169324404Y-52759642D01*
X169276785Y-52807261D01*
X169181547Y-52854880D01*
X168895833Y-52854880D01*
X168800595Y-52807261D01*
X168752976Y-52759642D01*
G04 #@! TO.C,C25*
X136704642Y-68194642D02*
X136657023Y-68242261D01*
X136514166Y-68289880D01*
X136418928Y-68289880D01*
X136276071Y-68242261D01*
X136180833Y-68147023D01*
X136133214Y-68051785D01*
X136085595Y-67861309D01*
X136085595Y-67718452D01*
X136133214Y-67527976D01*
X136180833Y-67432738D01*
X136276071Y-67337500D01*
X136418928Y-67289880D01*
X136514166Y-67289880D01*
X136657023Y-67337500D01*
X136704642Y-67385119D01*
X137085595Y-67385119D02*
X137133214Y-67337500D01*
X137228452Y-67289880D01*
X137466547Y-67289880D01*
X137561785Y-67337500D01*
X137609404Y-67385119D01*
X137657023Y-67480357D01*
X137657023Y-67575595D01*
X137609404Y-67718452D01*
X137037976Y-68289880D01*
X137657023Y-68289880D01*
X138561785Y-67289880D02*
X138085595Y-67289880D01*
X138037976Y-67766071D01*
X138085595Y-67718452D01*
X138180833Y-67670833D01*
X138418928Y-67670833D01*
X138514166Y-67718452D01*
X138561785Y-67766071D01*
X138609404Y-67861309D01*
X138609404Y-68099404D01*
X138561785Y-68194642D01*
X138514166Y-68242261D01*
X138418928Y-68289880D01*
X138180833Y-68289880D01*
X138085595Y-68242261D01*
X138037976Y-68194642D01*
G04 #@! TO.C,D2*
X137924904Y-66710880D02*
X137924904Y-65710880D01*
X138163000Y-65710880D01*
X138305857Y-65758500D01*
X138401095Y-65853738D01*
X138448714Y-65948976D01*
X138496333Y-66139452D01*
X138496333Y-66282309D01*
X138448714Y-66472785D01*
X138401095Y-66568023D01*
X138305857Y-66663261D01*
X138163000Y-66710880D01*
X137924904Y-66710880D01*
X138877285Y-65806119D02*
X138924904Y-65758500D01*
X139020142Y-65710880D01*
X139258238Y-65710880D01*
X139353476Y-65758500D01*
X139401095Y-65806119D01*
X139448714Y-65901357D01*
X139448714Y-65996595D01*
X139401095Y-66139452D01*
X138829666Y-66710880D01*
X139448714Y-66710880D01*
G04 #@! TO.C,C1*
X181024642Y-60449166D02*
X181072261Y-60496785D01*
X181119880Y-60639642D01*
X181119880Y-60734880D01*
X181072261Y-60877738D01*
X180977023Y-60972976D01*
X180881785Y-61020595D01*
X180691309Y-61068214D01*
X180548452Y-61068214D01*
X180357976Y-61020595D01*
X180262738Y-60972976D01*
X180167500Y-60877738D01*
X180119880Y-60734880D01*
X180119880Y-60639642D01*
X180167500Y-60496785D01*
X180215119Y-60449166D01*
X181119880Y-59496785D02*
X181119880Y-60068214D01*
X181119880Y-59782500D02*
X180119880Y-59782500D01*
X180262738Y-59877738D01*
X180357976Y-59972976D01*
X180405595Y-60068214D01*
G04 #@! TO.C,C4*
X172274642Y-136959166D02*
X172322261Y-137006785D01*
X172369880Y-137149642D01*
X172369880Y-137244880D01*
X172322261Y-137387738D01*
X172227023Y-137482976D01*
X172131785Y-137530595D01*
X171941309Y-137578214D01*
X171798452Y-137578214D01*
X171607976Y-137530595D01*
X171512738Y-137482976D01*
X171417500Y-137387738D01*
X171369880Y-137244880D01*
X171369880Y-137149642D01*
X171417500Y-137006785D01*
X171465119Y-136959166D01*
X171703214Y-136102023D02*
X172369880Y-136102023D01*
X171322261Y-136340119D02*
X172036547Y-136578214D01*
X172036547Y-135959166D01*
G04 #@! TO.C,D10*
X154454880Y-61229285D02*
X153454880Y-61229285D01*
X153454880Y-60991190D01*
X153502500Y-60848333D01*
X153597738Y-60753095D01*
X153692976Y-60705476D01*
X153883452Y-60657857D01*
X154026309Y-60657857D01*
X154216785Y-60705476D01*
X154312023Y-60753095D01*
X154407261Y-60848333D01*
X154454880Y-60991190D01*
X154454880Y-61229285D01*
X154454880Y-59705476D02*
X154454880Y-60276904D01*
X154454880Y-59991190D02*
X153454880Y-59991190D01*
X153597738Y-60086428D01*
X153692976Y-60181666D01*
X153740595Y-60276904D01*
X153454880Y-59086428D02*
X153454880Y-58991190D01*
X153502500Y-58895952D01*
X153550119Y-58848333D01*
X153645357Y-58800714D01*
X153835833Y-58753095D01*
X154073928Y-58753095D01*
X154264404Y-58800714D01*
X154359642Y-58848333D01*
X154407261Y-58895952D01*
X154454880Y-58991190D01*
X154454880Y-59086428D01*
X154407261Y-59181666D01*
X154359642Y-59229285D01*
X154264404Y-59276904D01*
X154073928Y-59324523D01*
X153835833Y-59324523D01*
X153645357Y-59276904D01*
X153550119Y-59229285D01*
X153502500Y-59181666D01*
X153454880Y-59086428D01*
G04 #@! TO.C,C5*
X182534642Y-60449166D02*
X182582261Y-60496785D01*
X182629880Y-60639642D01*
X182629880Y-60734880D01*
X182582261Y-60877738D01*
X182487023Y-60972976D01*
X182391785Y-61020595D01*
X182201309Y-61068214D01*
X182058452Y-61068214D01*
X181867976Y-61020595D01*
X181772738Y-60972976D01*
X181677500Y-60877738D01*
X181629880Y-60734880D01*
X181629880Y-60639642D01*
X181677500Y-60496785D01*
X181725119Y-60449166D01*
X181629880Y-59544404D02*
X181629880Y-60020595D01*
X182106071Y-60068214D01*
X182058452Y-60020595D01*
X182010833Y-59925357D01*
X182010833Y-59687261D01*
X182058452Y-59592023D01*
X182106071Y-59544404D01*
X182201309Y-59496785D01*
X182439404Y-59496785D01*
X182534642Y-59544404D01*
X182582261Y-59592023D01*
X182629880Y-59687261D01*
X182629880Y-59925357D01*
X182582261Y-60020595D01*
X182534642Y-60068214D01*
G04 #@! TO.C,D1*
X103969404Y-56759880D02*
X103969404Y-55759880D01*
X104207500Y-55759880D01*
X104350357Y-55807500D01*
X104445595Y-55902738D01*
X104493214Y-55997976D01*
X104540833Y-56188452D01*
X104540833Y-56331309D01*
X104493214Y-56521785D01*
X104445595Y-56617023D01*
X104350357Y-56712261D01*
X104207500Y-56759880D01*
X103969404Y-56759880D01*
X105493214Y-56759880D02*
X104921785Y-56759880D01*
X105207500Y-56759880D02*
X105207500Y-55759880D01*
X105112261Y-55902738D01*
X105017023Y-55997976D01*
X104921785Y-56045595D01*
G04 #@! TO.C,Q2*
X151502261Y-62030119D02*
X151407023Y-61982500D01*
X151311785Y-61887261D01*
X151168928Y-61744404D01*
X151073690Y-61696785D01*
X150978452Y-61696785D01*
X151026071Y-61934880D02*
X150930833Y-61887261D01*
X150835595Y-61792023D01*
X150787976Y-61601547D01*
X150787976Y-61268214D01*
X150835595Y-61077738D01*
X150930833Y-60982500D01*
X151026071Y-60934880D01*
X151216547Y-60934880D01*
X151311785Y-60982500D01*
X151407023Y-61077738D01*
X151454642Y-61268214D01*
X151454642Y-61601547D01*
X151407023Y-61792023D01*
X151311785Y-61887261D01*
X151216547Y-61934880D01*
X151026071Y-61934880D01*
X151835595Y-61030119D02*
X151883214Y-60982500D01*
X151978452Y-60934880D01*
X152216547Y-60934880D01*
X152311785Y-60982500D01*
X152359404Y-61030119D01*
X152407023Y-61125357D01*
X152407023Y-61220595D01*
X152359404Y-61363452D01*
X151787976Y-61934880D01*
X152407023Y-61934880D01*
G04 #@! TO.C,R15*
X121424880Y-77150357D02*
X120948690Y-77483690D01*
X121424880Y-77721785D02*
X120424880Y-77721785D01*
X120424880Y-77340833D01*
X120472500Y-77245595D01*
X120520119Y-77197976D01*
X120615357Y-77150357D01*
X120758214Y-77150357D01*
X120853452Y-77197976D01*
X120901071Y-77245595D01*
X120948690Y-77340833D01*
X120948690Y-77721785D01*
X121424880Y-76197976D02*
X121424880Y-76769404D01*
X121424880Y-76483690D02*
X120424880Y-76483690D01*
X120567738Y-76578928D01*
X120662976Y-76674166D01*
X120710595Y-76769404D01*
X120424880Y-75293214D02*
X120424880Y-75769404D01*
X120901071Y-75817023D01*
X120853452Y-75769404D01*
X120805833Y-75674166D01*
X120805833Y-75436071D01*
X120853452Y-75340833D01*
X120901071Y-75293214D01*
X120996309Y-75245595D01*
X121234404Y-75245595D01*
X121329642Y-75293214D01*
X121377261Y-75340833D01*
X121424880Y-75436071D01*
X121424880Y-75674166D01*
X121377261Y-75769404D01*
X121329642Y-75817023D01*
G04 #@! TO.C,Q5*
X116272261Y-74510119D02*
X116177023Y-74462500D01*
X116081785Y-74367261D01*
X115938928Y-74224404D01*
X115843690Y-74176785D01*
X115748452Y-74176785D01*
X115796071Y-74414880D02*
X115700833Y-74367261D01*
X115605595Y-74272023D01*
X115557976Y-74081547D01*
X115557976Y-73748214D01*
X115605595Y-73557738D01*
X115700833Y-73462500D01*
X115796071Y-73414880D01*
X115986547Y-73414880D01*
X116081785Y-73462500D01*
X116177023Y-73557738D01*
X116224642Y-73748214D01*
X116224642Y-74081547D01*
X116177023Y-74272023D01*
X116081785Y-74367261D01*
X115986547Y-74414880D01*
X115796071Y-74414880D01*
X117129404Y-73414880D02*
X116653214Y-73414880D01*
X116605595Y-73891071D01*
X116653214Y-73843452D01*
X116748452Y-73795833D01*
X116986547Y-73795833D01*
X117081785Y-73843452D01*
X117129404Y-73891071D01*
X117177023Y-73986309D01*
X117177023Y-74224404D01*
X117129404Y-74319642D01*
X117081785Y-74367261D01*
X116986547Y-74414880D01*
X116748452Y-74414880D01*
X116653214Y-74367261D01*
X116605595Y-74319642D01*
G04 #@! TO.C,R3*
X133199333Y-65456880D02*
X132866000Y-64980690D01*
X132627904Y-65456880D02*
X132627904Y-64456880D01*
X133008857Y-64456880D01*
X133104095Y-64504500D01*
X133151714Y-64552119D01*
X133199333Y-64647357D01*
X133199333Y-64790214D01*
X133151714Y-64885452D01*
X133104095Y-64933071D01*
X133008857Y-64980690D01*
X132627904Y-64980690D01*
X133532666Y-64456880D02*
X134151714Y-64456880D01*
X133818380Y-64837833D01*
X133961238Y-64837833D01*
X134056476Y-64885452D01*
X134104095Y-64933071D01*
X134151714Y-65028309D01*
X134151714Y-65266404D01*
X134104095Y-65361642D01*
X134056476Y-65409261D01*
X133961238Y-65456880D01*
X133675523Y-65456880D01*
X133580285Y-65409261D01*
X133532666Y-65361642D01*
G04 #@! TO.C,R10*
X163359880Y-79430357D02*
X162883690Y-79763690D01*
X163359880Y-80001785D02*
X162359880Y-80001785D01*
X162359880Y-79620833D01*
X162407500Y-79525595D01*
X162455119Y-79477976D01*
X162550357Y-79430357D01*
X162693214Y-79430357D01*
X162788452Y-79477976D01*
X162836071Y-79525595D01*
X162883690Y-79620833D01*
X162883690Y-80001785D01*
X163359880Y-78477976D02*
X163359880Y-79049404D01*
X163359880Y-78763690D02*
X162359880Y-78763690D01*
X162502738Y-78858928D01*
X162597976Y-78954166D01*
X162645595Y-79049404D01*
X162359880Y-77858928D02*
X162359880Y-77763690D01*
X162407500Y-77668452D01*
X162455119Y-77620833D01*
X162550357Y-77573214D01*
X162740833Y-77525595D01*
X162978928Y-77525595D01*
X163169404Y-77573214D01*
X163264642Y-77620833D01*
X163312261Y-77668452D01*
X163359880Y-77763690D01*
X163359880Y-77858928D01*
X163312261Y-77954166D01*
X163264642Y-78001785D01*
X163169404Y-78049404D01*
X162978928Y-78097023D01*
X162740833Y-78097023D01*
X162550357Y-78049404D01*
X162455119Y-78001785D01*
X162407500Y-77954166D01*
X162359880Y-77858928D01*
G04 #@! TO.C,R14*
X170204880Y-79555357D02*
X169728690Y-79888690D01*
X170204880Y-80126785D02*
X169204880Y-80126785D01*
X169204880Y-79745833D01*
X169252500Y-79650595D01*
X169300119Y-79602976D01*
X169395357Y-79555357D01*
X169538214Y-79555357D01*
X169633452Y-79602976D01*
X169681071Y-79650595D01*
X169728690Y-79745833D01*
X169728690Y-80126785D01*
X170204880Y-78602976D02*
X170204880Y-79174404D01*
X170204880Y-78888690D02*
X169204880Y-78888690D01*
X169347738Y-78983928D01*
X169442976Y-79079166D01*
X169490595Y-79174404D01*
X169538214Y-77745833D02*
X170204880Y-77745833D01*
X169157261Y-77983928D02*
X169871547Y-78222023D01*
X169871547Y-77602976D01*
G04 #@! TO.C,Q4*
X117850119Y-80157738D02*
X117802500Y-80252976D01*
X117707261Y-80348214D01*
X117564404Y-80491071D01*
X117516785Y-80586309D01*
X117516785Y-80681547D01*
X117754880Y-80633928D02*
X117707261Y-80729166D01*
X117612023Y-80824404D01*
X117421547Y-80872023D01*
X117088214Y-80872023D01*
X116897738Y-80824404D01*
X116802500Y-80729166D01*
X116754880Y-80633928D01*
X116754880Y-80443452D01*
X116802500Y-80348214D01*
X116897738Y-80252976D01*
X117088214Y-80205357D01*
X117421547Y-80205357D01*
X117612023Y-80252976D01*
X117707261Y-80348214D01*
X117754880Y-80443452D01*
X117754880Y-80633928D01*
X117088214Y-79348214D02*
X117754880Y-79348214D01*
X116707261Y-79586309D02*
X117421547Y-79824404D01*
X117421547Y-79205357D01*
G04 #@! TO.C,R9*
X157560833Y-73859880D02*
X157227500Y-73383690D01*
X156989404Y-73859880D02*
X156989404Y-72859880D01*
X157370357Y-72859880D01*
X157465595Y-72907500D01*
X157513214Y-72955119D01*
X157560833Y-73050357D01*
X157560833Y-73193214D01*
X157513214Y-73288452D01*
X157465595Y-73336071D01*
X157370357Y-73383690D01*
X156989404Y-73383690D01*
X158037023Y-73859880D02*
X158227500Y-73859880D01*
X158322738Y-73812261D01*
X158370357Y-73764642D01*
X158465595Y-73621785D01*
X158513214Y-73431309D01*
X158513214Y-73050357D01*
X158465595Y-72955119D01*
X158417976Y-72907500D01*
X158322738Y-72859880D01*
X158132261Y-72859880D01*
X158037023Y-72907500D01*
X157989404Y-72955119D01*
X157941785Y-73050357D01*
X157941785Y-73288452D01*
X157989404Y-73383690D01*
X158037023Y-73431309D01*
X158132261Y-73478928D01*
X158322738Y-73478928D01*
X158417976Y-73431309D01*
X158465595Y-73383690D01*
X158513214Y-73288452D01*
D10*
G04 #@! TO.C,BZ1*
X152150357Y-135721785D02*
X152321785Y-135778928D01*
X152378928Y-135836071D01*
X152436071Y-135950357D01*
X152436071Y-136121785D01*
X152378928Y-136236071D01*
X152321785Y-136293214D01*
X152207500Y-136350357D01*
X151750357Y-136350357D01*
X151750357Y-135150357D01*
X152150357Y-135150357D01*
X152264642Y-135207500D01*
X152321785Y-135264642D01*
X152378928Y-135378928D01*
X152378928Y-135493214D01*
X152321785Y-135607500D01*
X152264642Y-135664642D01*
X152150357Y-135721785D01*
X151750357Y-135721785D01*
X152836071Y-135150357D02*
X153636071Y-135150357D01*
X152836071Y-136350357D01*
X153636071Y-136350357D01*
X154721785Y-136350357D02*
X154036071Y-136350357D01*
X154378928Y-136350357D02*
X154378928Y-135150357D01*
X154264642Y-135321785D01*
X154150357Y-135436071D01*
X154036071Y-135493214D01*
D13*
G04 #@! TO.C,U2*
X149577595Y-72371880D02*
X149577595Y-73181404D01*
X149625214Y-73276642D01*
X149672833Y-73324261D01*
X149768071Y-73371880D01*
X149958547Y-73371880D01*
X150053785Y-73324261D01*
X150101404Y-73276642D01*
X150149023Y-73181404D01*
X150149023Y-72371880D01*
X150577595Y-72467119D02*
X150625214Y-72419500D01*
X150720452Y-72371880D01*
X150958547Y-72371880D01*
X151053785Y-72419500D01*
X151101404Y-72467119D01*
X151149023Y-72562357D01*
X151149023Y-72657595D01*
X151101404Y-72800452D01*
X150529976Y-73371880D01*
X151149023Y-73371880D01*
G04 #@! TO.C,Q1*
X146582261Y-62035119D02*
X146487023Y-61987500D01*
X146391785Y-61892261D01*
X146248928Y-61749404D01*
X146153690Y-61701785D01*
X146058452Y-61701785D01*
X146106071Y-61939880D02*
X146010833Y-61892261D01*
X145915595Y-61797023D01*
X145867976Y-61606547D01*
X145867976Y-61273214D01*
X145915595Y-61082738D01*
X146010833Y-60987500D01*
X146106071Y-60939880D01*
X146296547Y-60939880D01*
X146391785Y-60987500D01*
X146487023Y-61082738D01*
X146534642Y-61273214D01*
X146534642Y-61606547D01*
X146487023Y-61797023D01*
X146391785Y-61892261D01*
X146296547Y-61939880D01*
X146106071Y-61939880D01*
X147487023Y-61939880D02*
X146915595Y-61939880D01*
X147201309Y-61939880D02*
X147201309Y-60939880D01*
X147106071Y-61082738D01*
X147010833Y-61177976D01*
X146915595Y-61225595D01*
G04 #@! TO.C,R2*
X104565833Y-59794880D02*
X104232500Y-59318690D01*
X103994404Y-59794880D02*
X103994404Y-58794880D01*
X104375357Y-58794880D01*
X104470595Y-58842500D01*
X104518214Y-58890119D01*
X104565833Y-58985357D01*
X104565833Y-59128214D01*
X104518214Y-59223452D01*
X104470595Y-59271071D01*
X104375357Y-59318690D01*
X103994404Y-59318690D01*
X104946785Y-58890119D02*
X104994404Y-58842500D01*
X105089642Y-58794880D01*
X105327738Y-58794880D01*
X105422976Y-58842500D01*
X105470595Y-58890119D01*
X105518214Y-58985357D01*
X105518214Y-59080595D01*
X105470595Y-59223452D01*
X104899166Y-59794880D01*
X105518214Y-59794880D01*
G04 #@! TO.C,Q8*
X135460119Y-84527738D02*
X135412500Y-84622976D01*
X135317261Y-84718214D01*
X135174404Y-84861071D01*
X135126785Y-84956309D01*
X135126785Y-85051547D01*
X135364880Y-85003928D02*
X135317261Y-85099166D01*
X135222023Y-85194404D01*
X135031547Y-85242023D01*
X134698214Y-85242023D01*
X134507738Y-85194404D01*
X134412500Y-85099166D01*
X134364880Y-85003928D01*
X134364880Y-84813452D01*
X134412500Y-84718214D01*
X134507738Y-84622976D01*
X134698214Y-84575357D01*
X135031547Y-84575357D01*
X135222023Y-84622976D01*
X135317261Y-84718214D01*
X135364880Y-84813452D01*
X135364880Y-85003928D01*
X134793452Y-84003928D02*
X134745833Y-84099166D01*
X134698214Y-84146785D01*
X134602976Y-84194404D01*
X134555357Y-84194404D01*
X134460119Y-84146785D01*
X134412500Y-84099166D01*
X134364880Y-84003928D01*
X134364880Y-83813452D01*
X134412500Y-83718214D01*
X134460119Y-83670595D01*
X134555357Y-83622976D01*
X134602976Y-83622976D01*
X134698214Y-83670595D01*
X134745833Y-83718214D01*
X134793452Y-83813452D01*
X134793452Y-84003928D01*
X134841071Y-84099166D01*
X134888690Y-84146785D01*
X134983928Y-84194404D01*
X135174404Y-84194404D01*
X135269642Y-84146785D01*
X135317261Y-84099166D01*
X135364880Y-84003928D01*
X135364880Y-83813452D01*
X135317261Y-83718214D01*
X135269642Y-83670595D01*
X135174404Y-83622976D01*
X134983928Y-83622976D01*
X134888690Y-83670595D01*
X134841071Y-83718214D01*
X134793452Y-83813452D01*
G04 #@! TO.C,R12*
X167029880Y-79560357D02*
X166553690Y-79893690D01*
X167029880Y-80131785D02*
X166029880Y-80131785D01*
X166029880Y-79750833D01*
X166077500Y-79655595D01*
X166125119Y-79607976D01*
X166220357Y-79560357D01*
X166363214Y-79560357D01*
X166458452Y-79607976D01*
X166506071Y-79655595D01*
X166553690Y-79750833D01*
X166553690Y-80131785D01*
X167029880Y-78607976D02*
X167029880Y-79179404D01*
X167029880Y-78893690D02*
X166029880Y-78893690D01*
X166172738Y-78988928D01*
X166267976Y-79084166D01*
X166315595Y-79179404D01*
X166125119Y-78227023D02*
X166077500Y-78179404D01*
X166029880Y-78084166D01*
X166029880Y-77846071D01*
X166077500Y-77750833D01*
X166125119Y-77703214D01*
X166220357Y-77655595D01*
X166315595Y-77655595D01*
X166458452Y-77703214D01*
X167029880Y-78274642D01*
X167029880Y-77655595D01*
G04 #@! TO.C,R18*
X106039642Y-98599880D02*
X105706309Y-98123690D01*
X105468214Y-98599880D02*
X105468214Y-97599880D01*
X105849166Y-97599880D01*
X105944404Y-97647500D01*
X105992023Y-97695119D01*
X106039642Y-97790357D01*
X106039642Y-97933214D01*
X105992023Y-98028452D01*
X105944404Y-98076071D01*
X105849166Y-98123690D01*
X105468214Y-98123690D01*
X106992023Y-98599880D02*
X106420595Y-98599880D01*
X106706309Y-98599880D02*
X106706309Y-97599880D01*
X106611071Y-97742738D01*
X106515833Y-97837976D01*
X106420595Y-97885595D01*
X107563452Y-98028452D02*
X107468214Y-97980833D01*
X107420595Y-97933214D01*
X107372976Y-97837976D01*
X107372976Y-97790357D01*
X107420595Y-97695119D01*
X107468214Y-97647500D01*
X107563452Y-97599880D01*
X107753928Y-97599880D01*
X107849166Y-97647500D01*
X107896785Y-97695119D01*
X107944404Y-97790357D01*
X107944404Y-97837976D01*
X107896785Y-97933214D01*
X107849166Y-97980833D01*
X107753928Y-98028452D01*
X107563452Y-98028452D01*
X107468214Y-98076071D01*
X107420595Y-98123690D01*
X107372976Y-98218928D01*
X107372976Y-98409404D01*
X107420595Y-98504642D01*
X107468214Y-98552261D01*
X107563452Y-98599880D01*
X107753928Y-98599880D01*
X107849166Y-98552261D01*
X107896785Y-98504642D01*
X107944404Y-98409404D01*
X107944404Y-98218928D01*
X107896785Y-98123690D01*
X107849166Y-98076071D01*
X107753928Y-98028452D01*
G04 #@! TO.C,Q7*
X134015119Y-88957738D02*
X133967500Y-89052976D01*
X133872261Y-89148214D01*
X133729404Y-89291071D01*
X133681785Y-89386309D01*
X133681785Y-89481547D01*
X133919880Y-89433928D02*
X133872261Y-89529166D01*
X133777023Y-89624404D01*
X133586547Y-89672023D01*
X133253214Y-89672023D01*
X133062738Y-89624404D01*
X132967500Y-89529166D01*
X132919880Y-89433928D01*
X132919880Y-89243452D01*
X132967500Y-89148214D01*
X133062738Y-89052976D01*
X133253214Y-89005357D01*
X133586547Y-89005357D01*
X133777023Y-89052976D01*
X133872261Y-89148214D01*
X133919880Y-89243452D01*
X133919880Y-89433928D01*
X132919880Y-88672023D02*
X132919880Y-88005357D01*
X133919880Y-88433928D01*
G04 #@! TO.C,R11*
X105994642Y-101044880D02*
X105661309Y-100568690D01*
X105423214Y-101044880D02*
X105423214Y-100044880D01*
X105804166Y-100044880D01*
X105899404Y-100092500D01*
X105947023Y-100140119D01*
X105994642Y-100235357D01*
X105994642Y-100378214D01*
X105947023Y-100473452D01*
X105899404Y-100521071D01*
X105804166Y-100568690D01*
X105423214Y-100568690D01*
X106947023Y-101044880D02*
X106375595Y-101044880D01*
X106661309Y-101044880D02*
X106661309Y-100044880D01*
X106566071Y-100187738D01*
X106470833Y-100282976D01*
X106375595Y-100330595D01*
X107899404Y-101044880D02*
X107327976Y-101044880D01*
X107613690Y-101044880D02*
X107613690Y-100044880D01*
X107518452Y-100187738D01*
X107423214Y-100282976D01*
X107327976Y-100330595D01*
G04 #@! TO.C,U1*
X131130595Y-78604880D02*
X131130595Y-79414404D01*
X131178214Y-79509642D01*
X131225833Y-79557261D01*
X131321071Y-79604880D01*
X131511547Y-79604880D01*
X131606785Y-79557261D01*
X131654404Y-79509642D01*
X131702023Y-79414404D01*
X131702023Y-78604880D01*
X132702023Y-79604880D02*
X132130595Y-79604880D01*
X132416309Y-79604880D02*
X132416309Y-78604880D01*
X132321071Y-78747738D01*
X132225833Y-78842976D01*
X132130595Y-78890595D01*
G04 #@! TO.C,J7*
X100874166Y-109989880D02*
X100874166Y-110704166D01*
X100826547Y-110847023D01*
X100731309Y-110942261D01*
X100588452Y-110989880D01*
X100493214Y-110989880D01*
X101255119Y-109989880D02*
X101921785Y-109989880D01*
X101493214Y-110989880D01*
G04 #@! TO.C,J8*
X128684166Y-52664880D02*
X128684166Y-53379166D01*
X128636547Y-53522023D01*
X128541309Y-53617261D01*
X128398452Y-53664880D01*
X128303214Y-53664880D01*
X129303214Y-53093452D02*
X129207976Y-53045833D01*
X129160357Y-52998214D01*
X129112738Y-52902976D01*
X129112738Y-52855357D01*
X129160357Y-52760119D01*
X129207976Y-52712500D01*
X129303214Y-52664880D01*
X129493690Y-52664880D01*
X129588928Y-52712500D01*
X129636547Y-52760119D01*
X129684166Y-52855357D01*
X129684166Y-52902976D01*
X129636547Y-52998214D01*
X129588928Y-53045833D01*
X129493690Y-53093452D01*
X129303214Y-53093452D01*
X129207976Y-53141071D01*
X129160357Y-53188690D01*
X129112738Y-53283928D01*
X129112738Y-53474404D01*
X129160357Y-53569642D01*
X129207976Y-53617261D01*
X129303214Y-53664880D01*
X129493690Y-53664880D01*
X129588928Y-53617261D01*
X129636547Y-53569642D01*
X129684166Y-53474404D01*
X129684166Y-53283928D01*
X129636547Y-53188690D01*
X129588928Y-53141071D01*
X129493690Y-53093452D01*
G04 #@! TO.C,J9*
X193874880Y-104760833D02*
X194589166Y-104760833D01*
X194732023Y-104808452D01*
X194827261Y-104903690D01*
X194874880Y-105046547D01*
X194874880Y-105141785D01*
X194874880Y-104237023D02*
X194874880Y-104046547D01*
X194827261Y-103951309D01*
X194779642Y-103903690D01*
X194636785Y-103808452D01*
X194446309Y-103760833D01*
X194065357Y-103760833D01*
X193970119Y-103808452D01*
X193922500Y-103856071D01*
X193874880Y-103951309D01*
X193874880Y-104141785D01*
X193922500Y-104237023D01*
X193970119Y-104284642D01*
X194065357Y-104332261D01*
X194303452Y-104332261D01*
X194398690Y-104284642D01*
X194446309Y-104237023D01*
X194493928Y-104141785D01*
X194493928Y-103951309D01*
X194446309Y-103856071D01*
X194398690Y-103808452D01*
X194303452Y-103760833D01*
G04 #@! TO.C,J10*
X193894880Y-93522023D02*
X194609166Y-93522023D01*
X194752023Y-93569642D01*
X194847261Y-93664880D01*
X194894880Y-93807738D01*
X194894880Y-93902976D01*
X194894880Y-92522023D02*
X194894880Y-93093452D01*
X194894880Y-92807738D02*
X193894880Y-92807738D01*
X194037738Y-92902976D01*
X194132976Y-92998214D01*
X194180595Y-93093452D01*
X193894880Y-91902976D02*
X193894880Y-91807738D01*
X193942500Y-91712500D01*
X193990119Y-91664880D01*
X194085357Y-91617261D01*
X194275833Y-91569642D01*
X194513928Y-91569642D01*
X194704404Y-91617261D01*
X194799642Y-91664880D01*
X194847261Y-91712500D01*
X194894880Y-91807738D01*
X194894880Y-91902976D01*
X194847261Y-91998214D01*
X194799642Y-92045833D01*
X194704404Y-92093452D01*
X194513928Y-92141071D01*
X194275833Y-92141071D01*
X194085357Y-92093452D01*
X193990119Y-92045833D01*
X193942500Y-91998214D01*
X193894880Y-91902976D01*
G04 #@! TO.C,BOOT1*
X99444166Y-64746071D02*
X99587023Y-64793690D01*
X99634642Y-64841309D01*
X99682261Y-64936547D01*
X99682261Y-65079404D01*
X99634642Y-65174642D01*
X99587023Y-65222261D01*
X99491785Y-65269880D01*
X99110833Y-65269880D01*
X99110833Y-64269880D01*
X99444166Y-64269880D01*
X99539404Y-64317500D01*
X99587023Y-64365119D01*
X99634642Y-64460357D01*
X99634642Y-64555595D01*
X99587023Y-64650833D01*
X99539404Y-64698452D01*
X99444166Y-64746071D01*
X99110833Y-64746071D01*
X100301309Y-64269880D02*
X100491785Y-64269880D01*
X100587023Y-64317500D01*
X100682261Y-64412738D01*
X100729880Y-64603214D01*
X100729880Y-64936547D01*
X100682261Y-65127023D01*
X100587023Y-65222261D01*
X100491785Y-65269880D01*
X100301309Y-65269880D01*
X100206071Y-65222261D01*
X100110833Y-65127023D01*
X100063214Y-64936547D01*
X100063214Y-64603214D01*
X100110833Y-64412738D01*
X100206071Y-64317500D01*
X100301309Y-64269880D01*
X101348928Y-64269880D02*
X101539404Y-64269880D01*
X101634642Y-64317500D01*
X101729880Y-64412738D01*
X101777500Y-64603214D01*
X101777500Y-64936547D01*
X101729880Y-65127023D01*
X101634642Y-65222261D01*
X101539404Y-65269880D01*
X101348928Y-65269880D01*
X101253690Y-65222261D01*
X101158452Y-65127023D01*
X101110833Y-64936547D01*
X101110833Y-64603214D01*
X101158452Y-64412738D01*
X101253690Y-64317500D01*
X101348928Y-64269880D01*
X102063214Y-64269880D02*
X102634642Y-64269880D01*
X102348928Y-65269880D02*
X102348928Y-64269880D01*
X103491785Y-65269880D02*
X102920357Y-65269880D01*
X103206071Y-65269880D02*
X103206071Y-64269880D01*
X103110833Y-64412738D01*
X103015595Y-64507976D01*
X102920357Y-64555595D01*
G04 #@! TO.C,D7*
X129994404Y-64679880D02*
X129994404Y-63679880D01*
X130232500Y-63679880D01*
X130375357Y-63727500D01*
X130470595Y-63822738D01*
X130518214Y-63917976D01*
X130565833Y-64108452D01*
X130565833Y-64251309D01*
X130518214Y-64441785D01*
X130470595Y-64537023D01*
X130375357Y-64632261D01*
X130232500Y-64679880D01*
X129994404Y-64679880D01*
X130899166Y-63679880D02*
X131565833Y-63679880D01*
X131137261Y-64679880D01*
G04 #@! TO.C,D9*
X156354880Y-61240595D02*
X155354880Y-61240595D01*
X155354880Y-61002500D01*
X155402500Y-60859642D01*
X155497738Y-60764404D01*
X155592976Y-60716785D01*
X155783452Y-60669166D01*
X155926309Y-60669166D01*
X156116785Y-60716785D01*
X156212023Y-60764404D01*
X156307261Y-60859642D01*
X156354880Y-61002500D01*
X156354880Y-61240595D01*
X156354880Y-60192976D02*
X156354880Y-60002500D01*
X156307261Y-59907261D01*
X156259642Y-59859642D01*
X156116785Y-59764404D01*
X155926309Y-59716785D01*
X155545357Y-59716785D01*
X155450119Y-59764404D01*
X155402500Y-59812023D01*
X155354880Y-59907261D01*
X155354880Y-60097738D01*
X155402500Y-60192976D01*
X155450119Y-60240595D01*
X155545357Y-60288214D01*
X155783452Y-60288214D01*
X155878690Y-60240595D01*
X155926309Y-60192976D01*
X155973928Y-60097738D01*
X155973928Y-59907261D01*
X155926309Y-59812023D01*
X155878690Y-59764404D01*
X155783452Y-59716785D01*
G04 #@! TO.C,R21*
X109544642Y-59904880D02*
X109211309Y-59428690D01*
X108973214Y-59904880D02*
X108973214Y-58904880D01*
X109354166Y-58904880D01*
X109449404Y-58952500D01*
X109497023Y-59000119D01*
X109544642Y-59095357D01*
X109544642Y-59238214D01*
X109497023Y-59333452D01*
X109449404Y-59381071D01*
X109354166Y-59428690D01*
X108973214Y-59428690D01*
X109925595Y-59000119D02*
X109973214Y-58952500D01*
X110068452Y-58904880D01*
X110306547Y-58904880D01*
X110401785Y-58952500D01*
X110449404Y-59000119D01*
X110497023Y-59095357D01*
X110497023Y-59190595D01*
X110449404Y-59333452D01*
X109877976Y-59904880D01*
X110497023Y-59904880D01*
X111449404Y-59904880D02*
X110877976Y-59904880D01*
X111163690Y-59904880D02*
X111163690Y-58904880D01*
X111068452Y-59047738D01*
X110973214Y-59142976D01*
X110877976Y-59190595D01*
G04 #@! TO.C,C128*
X144494642Y-73076547D02*
X144542261Y-73124166D01*
X144589880Y-73267023D01*
X144589880Y-73362261D01*
X144542261Y-73505119D01*
X144447023Y-73600357D01*
X144351785Y-73647976D01*
X144161309Y-73695595D01*
X144018452Y-73695595D01*
X143827976Y-73647976D01*
X143732738Y-73600357D01*
X143637500Y-73505119D01*
X143589880Y-73362261D01*
X143589880Y-73267023D01*
X143637500Y-73124166D01*
X143685119Y-73076547D01*
X144589880Y-72124166D02*
X144589880Y-72695595D01*
X144589880Y-72409880D02*
X143589880Y-72409880D01*
X143732738Y-72505119D01*
X143827976Y-72600357D01*
X143875595Y-72695595D01*
X143685119Y-71743214D02*
X143637500Y-71695595D01*
X143589880Y-71600357D01*
X143589880Y-71362261D01*
X143637500Y-71267023D01*
X143685119Y-71219404D01*
X143780357Y-71171785D01*
X143875595Y-71171785D01*
X144018452Y-71219404D01*
X144589880Y-71790833D01*
X144589880Y-71171785D01*
X144018452Y-70600357D02*
X143970833Y-70695595D01*
X143923214Y-70743214D01*
X143827976Y-70790833D01*
X143780357Y-70790833D01*
X143685119Y-70743214D01*
X143637500Y-70695595D01*
X143589880Y-70600357D01*
X143589880Y-70409880D01*
X143637500Y-70314642D01*
X143685119Y-70267023D01*
X143780357Y-70219404D01*
X143827976Y-70219404D01*
X143923214Y-70267023D01*
X143970833Y-70314642D01*
X144018452Y-70409880D01*
X144018452Y-70600357D01*
X144066071Y-70695595D01*
X144113690Y-70743214D01*
X144208928Y-70790833D01*
X144399404Y-70790833D01*
X144494642Y-70743214D01*
X144542261Y-70695595D01*
X144589880Y-70600357D01*
X144589880Y-70409880D01*
X144542261Y-70314642D01*
X144494642Y-70267023D01*
X144399404Y-70219404D01*
X144208928Y-70219404D01*
X144113690Y-70267023D01*
X144066071Y-70314642D01*
X144018452Y-70409880D01*
G04 #@! TO.C,C27*
X158294642Y-59445357D02*
X158342261Y-59492976D01*
X158389880Y-59635833D01*
X158389880Y-59731071D01*
X158342261Y-59873928D01*
X158247023Y-59969166D01*
X158151785Y-60016785D01*
X157961309Y-60064404D01*
X157818452Y-60064404D01*
X157627976Y-60016785D01*
X157532738Y-59969166D01*
X157437500Y-59873928D01*
X157389880Y-59731071D01*
X157389880Y-59635833D01*
X157437500Y-59492976D01*
X157485119Y-59445357D01*
X157485119Y-59064404D02*
X157437500Y-59016785D01*
X157389880Y-58921547D01*
X157389880Y-58683452D01*
X157437500Y-58588214D01*
X157485119Y-58540595D01*
X157580357Y-58492976D01*
X157675595Y-58492976D01*
X157818452Y-58540595D01*
X158389880Y-59112023D01*
X158389880Y-58492976D01*
X157389880Y-58159642D02*
X157389880Y-57492976D01*
X158389880Y-57921547D01*
G04 #@! TO.C,R26*
X145819642Y-59644880D02*
X145486309Y-59168690D01*
X145248214Y-59644880D02*
X145248214Y-58644880D01*
X145629166Y-58644880D01*
X145724404Y-58692500D01*
X145772023Y-58740119D01*
X145819642Y-58835357D01*
X145819642Y-58978214D01*
X145772023Y-59073452D01*
X145724404Y-59121071D01*
X145629166Y-59168690D01*
X145248214Y-59168690D01*
X146200595Y-58740119D02*
X146248214Y-58692500D01*
X146343452Y-58644880D01*
X146581547Y-58644880D01*
X146676785Y-58692500D01*
X146724404Y-58740119D01*
X146772023Y-58835357D01*
X146772023Y-58930595D01*
X146724404Y-59073452D01*
X146152976Y-59644880D01*
X146772023Y-59644880D01*
X147629166Y-58644880D02*
X147438690Y-58644880D01*
X147343452Y-58692500D01*
X147295833Y-58740119D01*
X147200595Y-58882976D01*
X147152976Y-59073452D01*
X147152976Y-59454404D01*
X147200595Y-59549642D01*
X147248214Y-59597261D01*
X147343452Y-59644880D01*
X147533928Y-59644880D01*
X147629166Y-59597261D01*
X147676785Y-59549642D01*
X147724404Y-59454404D01*
X147724404Y-59216309D01*
X147676785Y-59121071D01*
X147629166Y-59073452D01*
X147533928Y-59025833D01*
X147343452Y-59025833D01*
X147248214Y-59073452D01*
X147200595Y-59121071D01*
X147152976Y-59216309D01*
G04 #@! TO.C,R34*
X116814642Y-114489880D02*
X116481309Y-114013690D01*
X116243214Y-114489880D02*
X116243214Y-113489880D01*
X116624166Y-113489880D01*
X116719404Y-113537500D01*
X116767023Y-113585119D01*
X116814642Y-113680357D01*
X116814642Y-113823214D01*
X116767023Y-113918452D01*
X116719404Y-113966071D01*
X116624166Y-114013690D01*
X116243214Y-114013690D01*
X117147976Y-113489880D02*
X117767023Y-113489880D01*
X117433690Y-113870833D01*
X117576547Y-113870833D01*
X117671785Y-113918452D01*
X117719404Y-113966071D01*
X117767023Y-114061309D01*
X117767023Y-114299404D01*
X117719404Y-114394642D01*
X117671785Y-114442261D01*
X117576547Y-114489880D01*
X117290833Y-114489880D01*
X117195595Y-114442261D01*
X117147976Y-114394642D01*
X118624166Y-113823214D02*
X118624166Y-114489880D01*
X118386071Y-113442261D02*
X118147976Y-114156547D01*
X118767023Y-114156547D01*
G04 #@! TO.C,C28*
X159789642Y-59735357D02*
X159837261Y-59782976D01*
X159884880Y-59925833D01*
X159884880Y-60021071D01*
X159837261Y-60163928D01*
X159742023Y-60259166D01*
X159646785Y-60306785D01*
X159456309Y-60354404D01*
X159313452Y-60354404D01*
X159122976Y-60306785D01*
X159027738Y-60259166D01*
X158932500Y-60163928D01*
X158884880Y-60021071D01*
X158884880Y-59925833D01*
X158932500Y-59782976D01*
X158980119Y-59735357D01*
X158980119Y-59354404D02*
X158932500Y-59306785D01*
X158884880Y-59211547D01*
X158884880Y-58973452D01*
X158932500Y-58878214D01*
X158980119Y-58830595D01*
X159075357Y-58782976D01*
X159170595Y-58782976D01*
X159313452Y-58830595D01*
X159884880Y-59402023D01*
X159884880Y-58782976D01*
X159313452Y-58211547D02*
X159265833Y-58306785D01*
X159218214Y-58354404D01*
X159122976Y-58402023D01*
X159075357Y-58402023D01*
X158980119Y-58354404D01*
X158932500Y-58306785D01*
X158884880Y-58211547D01*
X158884880Y-58021071D01*
X158932500Y-57925833D01*
X158980119Y-57878214D01*
X159075357Y-57830595D01*
X159122976Y-57830595D01*
X159218214Y-57878214D01*
X159265833Y-57925833D01*
X159313452Y-58021071D01*
X159313452Y-58211547D01*
X159361071Y-58306785D01*
X159408690Y-58354404D01*
X159503928Y-58402023D01*
X159694404Y-58402023D01*
X159789642Y-58354404D01*
X159837261Y-58306785D01*
X159884880Y-58211547D01*
X159884880Y-58021071D01*
X159837261Y-57925833D01*
X159789642Y-57878214D01*
X159694404Y-57830595D01*
X159503928Y-57830595D01*
X159408690Y-57878214D01*
X159361071Y-57925833D01*
X159313452Y-58021071D01*
G04 #@! TO.C,R33*
X145664642Y-128539880D02*
X145331309Y-128063690D01*
X145093214Y-128539880D02*
X145093214Y-127539880D01*
X145474166Y-127539880D01*
X145569404Y-127587500D01*
X145617023Y-127635119D01*
X145664642Y-127730357D01*
X145664642Y-127873214D01*
X145617023Y-127968452D01*
X145569404Y-128016071D01*
X145474166Y-128063690D01*
X145093214Y-128063690D01*
X145997976Y-127539880D02*
X146617023Y-127539880D01*
X146283690Y-127920833D01*
X146426547Y-127920833D01*
X146521785Y-127968452D01*
X146569404Y-128016071D01*
X146617023Y-128111309D01*
X146617023Y-128349404D01*
X146569404Y-128444642D01*
X146521785Y-128492261D01*
X146426547Y-128539880D01*
X146140833Y-128539880D01*
X146045595Y-128492261D01*
X145997976Y-128444642D01*
X146950357Y-127539880D02*
X147569404Y-127539880D01*
X147236071Y-127920833D01*
X147378928Y-127920833D01*
X147474166Y-127968452D01*
X147521785Y-128016071D01*
X147569404Y-128111309D01*
X147569404Y-128349404D01*
X147521785Y-128444642D01*
X147474166Y-128492261D01*
X147378928Y-128539880D01*
X147093214Y-128539880D01*
X146997976Y-128492261D01*
X146950357Y-128444642D01*
G04 #@! TO.C,RESET1*
X99348928Y-72289880D02*
X99015595Y-71813690D01*
X98777500Y-72289880D02*
X98777500Y-71289880D01*
X99158452Y-71289880D01*
X99253690Y-71337500D01*
X99301309Y-71385119D01*
X99348928Y-71480357D01*
X99348928Y-71623214D01*
X99301309Y-71718452D01*
X99253690Y-71766071D01*
X99158452Y-71813690D01*
X98777500Y-71813690D01*
X99777500Y-71766071D02*
X100110833Y-71766071D01*
X100253690Y-72289880D02*
X99777500Y-72289880D01*
X99777500Y-71289880D01*
X100253690Y-71289880D01*
X100634642Y-72242261D02*
X100777500Y-72289880D01*
X101015595Y-72289880D01*
X101110833Y-72242261D01*
X101158452Y-72194642D01*
X101206071Y-72099404D01*
X101206071Y-72004166D01*
X101158452Y-71908928D01*
X101110833Y-71861309D01*
X101015595Y-71813690D01*
X100825119Y-71766071D01*
X100729880Y-71718452D01*
X100682261Y-71670833D01*
X100634642Y-71575595D01*
X100634642Y-71480357D01*
X100682261Y-71385119D01*
X100729880Y-71337500D01*
X100825119Y-71289880D01*
X101063214Y-71289880D01*
X101206071Y-71337500D01*
X101634642Y-71766071D02*
X101967976Y-71766071D01*
X102110833Y-72289880D02*
X101634642Y-72289880D01*
X101634642Y-71289880D01*
X102110833Y-71289880D01*
X102396547Y-71289880D02*
X102967976Y-71289880D01*
X102682261Y-72289880D02*
X102682261Y-71289880D01*
X103825119Y-72289880D02*
X103253690Y-72289880D01*
X103539404Y-72289880D02*
X103539404Y-71289880D01*
X103444166Y-71432738D01*
X103348928Y-71527976D01*
X103253690Y-71575595D01*
G04 #@! TO.C,R29*
X176999642Y-85894880D02*
X176666309Y-85418690D01*
X176428214Y-85894880D02*
X176428214Y-84894880D01*
X176809166Y-84894880D01*
X176904404Y-84942500D01*
X176952023Y-84990119D01*
X176999642Y-85085357D01*
X176999642Y-85228214D01*
X176952023Y-85323452D01*
X176904404Y-85371071D01*
X176809166Y-85418690D01*
X176428214Y-85418690D01*
X177380595Y-84990119D02*
X177428214Y-84942500D01*
X177523452Y-84894880D01*
X177761547Y-84894880D01*
X177856785Y-84942500D01*
X177904404Y-84990119D01*
X177952023Y-85085357D01*
X177952023Y-85180595D01*
X177904404Y-85323452D01*
X177332976Y-85894880D01*
X177952023Y-85894880D01*
X178428214Y-85894880D02*
X178618690Y-85894880D01*
X178713928Y-85847261D01*
X178761547Y-85799642D01*
X178856785Y-85656785D01*
X178904404Y-85466309D01*
X178904404Y-85085357D01*
X178856785Y-84990119D01*
X178809166Y-84942500D01*
X178713928Y-84894880D01*
X178523452Y-84894880D01*
X178428214Y-84942500D01*
X178380595Y-84990119D01*
X178332976Y-85085357D01*
X178332976Y-85323452D01*
X178380595Y-85418690D01*
X178428214Y-85466309D01*
X178523452Y-85513928D01*
X178713928Y-85513928D01*
X178809166Y-85466309D01*
X178856785Y-85418690D01*
X178904404Y-85323452D01*
G04 #@! TO.C,R35*
X116824642Y-117439880D02*
X116491309Y-116963690D01*
X116253214Y-117439880D02*
X116253214Y-116439880D01*
X116634166Y-116439880D01*
X116729404Y-116487500D01*
X116777023Y-116535119D01*
X116824642Y-116630357D01*
X116824642Y-116773214D01*
X116777023Y-116868452D01*
X116729404Y-116916071D01*
X116634166Y-116963690D01*
X116253214Y-116963690D01*
X117157976Y-116439880D02*
X117777023Y-116439880D01*
X117443690Y-116820833D01*
X117586547Y-116820833D01*
X117681785Y-116868452D01*
X117729404Y-116916071D01*
X117777023Y-117011309D01*
X117777023Y-117249404D01*
X117729404Y-117344642D01*
X117681785Y-117392261D01*
X117586547Y-117439880D01*
X117300833Y-117439880D01*
X117205595Y-117392261D01*
X117157976Y-117344642D01*
X118681785Y-116439880D02*
X118205595Y-116439880D01*
X118157976Y-116916071D01*
X118205595Y-116868452D01*
X118300833Y-116820833D01*
X118538928Y-116820833D01*
X118634166Y-116868452D01*
X118681785Y-116916071D01*
X118729404Y-117011309D01*
X118729404Y-117249404D01*
X118681785Y-117344642D01*
X118634166Y-117392261D01*
X118538928Y-117439880D01*
X118300833Y-117439880D01*
X118205595Y-117392261D01*
X118157976Y-117344642D01*
G04 #@! TO.C,R31*
X153554880Y-69075357D02*
X153078690Y-69408690D01*
X153554880Y-69646785D02*
X152554880Y-69646785D01*
X152554880Y-69265833D01*
X152602500Y-69170595D01*
X152650119Y-69122976D01*
X152745357Y-69075357D01*
X152888214Y-69075357D01*
X152983452Y-69122976D01*
X153031071Y-69170595D01*
X153078690Y-69265833D01*
X153078690Y-69646785D01*
X152554880Y-68742023D02*
X152554880Y-68122976D01*
X152935833Y-68456309D01*
X152935833Y-68313452D01*
X152983452Y-68218214D01*
X153031071Y-68170595D01*
X153126309Y-68122976D01*
X153364404Y-68122976D01*
X153459642Y-68170595D01*
X153507261Y-68218214D01*
X153554880Y-68313452D01*
X153554880Y-68599166D01*
X153507261Y-68694404D01*
X153459642Y-68742023D01*
X153554880Y-67170595D02*
X153554880Y-67742023D01*
X153554880Y-67456309D02*
X152554880Y-67456309D01*
X152697738Y-67551547D01*
X152792976Y-67646785D01*
X152840595Y-67742023D01*
G04 #@! TO.C,R1*
X160450833Y-83429880D02*
X160117500Y-82953690D01*
X159879404Y-83429880D02*
X159879404Y-82429880D01*
X160260357Y-82429880D01*
X160355595Y-82477500D01*
X160403214Y-82525119D01*
X160450833Y-82620357D01*
X160450833Y-82763214D01*
X160403214Y-82858452D01*
X160355595Y-82906071D01*
X160260357Y-82953690D01*
X159879404Y-82953690D01*
X161403214Y-83429880D02*
X160831785Y-83429880D01*
X161117500Y-83429880D02*
X161117500Y-82429880D01*
X161022261Y-82572738D01*
X160927023Y-82667976D01*
X160831785Y-82715595D01*
G04 #@! TO.C,R24*
X156349880Y-69110357D02*
X155873690Y-69443690D01*
X156349880Y-69681785D02*
X155349880Y-69681785D01*
X155349880Y-69300833D01*
X155397500Y-69205595D01*
X155445119Y-69157976D01*
X155540357Y-69110357D01*
X155683214Y-69110357D01*
X155778452Y-69157976D01*
X155826071Y-69205595D01*
X155873690Y-69300833D01*
X155873690Y-69681785D01*
X155445119Y-68729404D02*
X155397500Y-68681785D01*
X155349880Y-68586547D01*
X155349880Y-68348452D01*
X155397500Y-68253214D01*
X155445119Y-68205595D01*
X155540357Y-68157976D01*
X155635595Y-68157976D01*
X155778452Y-68205595D01*
X156349880Y-68777023D01*
X156349880Y-68157976D01*
X155683214Y-67300833D02*
X156349880Y-67300833D01*
X155302261Y-67538928D02*
X156016547Y-67777023D01*
X156016547Y-67157976D01*
G04 #@! TO.C,J11*
X113062976Y-52659880D02*
X113062976Y-53374166D01*
X113015357Y-53517023D01*
X112920119Y-53612261D01*
X112777261Y-53659880D01*
X112682023Y-53659880D01*
X114062976Y-53659880D02*
X113491547Y-53659880D01*
X113777261Y-53659880D02*
X113777261Y-52659880D01*
X113682023Y-52802738D01*
X113586785Y-52897976D01*
X113491547Y-52945595D01*
X115015357Y-53659880D02*
X114443928Y-53659880D01*
X114729642Y-53659880D02*
X114729642Y-52659880D01*
X114634404Y-52802738D01*
X114539166Y-52897976D01*
X114443928Y-52945595D01*
G04 #@! TO.C,R36*
X116864642Y-120089880D02*
X116531309Y-119613690D01*
X116293214Y-120089880D02*
X116293214Y-119089880D01*
X116674166Y-119089880D01*
X116769404Y-119137500D01*
X116817023Y-119185119D01*
X116864642Y-119280357D01*
X116864642Y-119423214D01*
X116817023Y-119518452D01*
X116769404Y-119566071D01*
X116674166Y-119613690D01*
X116293214Y-119613690D01*
X117197976Y-119089880D02*
X117817023Y-119089880D01*
X117483690Y-119470833D01*
X117626547Y-119470833D01*
X117721785Y-119518452D01*
X117769404Y-119566071D01*
X117817023Y-119661309D01*
X117817023Y-119899404D01*
X117769404Y-119994642D01*
X117721785Y-120042261D01*
X117626547Y-120089880D01*
X117340833Y-120089880D01*
X117245595Y-120042261D01*
X117197976Y-119994642D01*
X118674166Y-119089880D02*
X118483690Y-119089880D01*
X118388452Y-119137500D01*
X118340833Y-119185119D01*
X118245595Y-119327976D01*
X118197976Y-119518452D01*
X118197976Y-119899404D01*
X118245595Y-119994642D01*
X118293214Y-120042261D01*
X118388452Y-120089880D01*
X118578928Y-120089880D01*
X118674166Y-120042261D01*
X118721785Y-119994642D01*
X118769404Y-119899404D01*
X118769404Y-119661309D01*
X118721785Y-119566071D01*
X118674166Y-119518452D01*
X118578928Y-119470833D01*
X118388452Y-119470833D01*
X118293214Y-119518452D01*
X118245595Y-119566071D01*
X118197976Y-119661309D01*
G04 #@! TO.C,C127*
X128084642Y-73676547D02*
X128132261Y-73724166D01*
X128179880Y-73867023D01*
X128179880Y-73962261D01*
X128132261Y-74105119D01*
X128037023Y-74200357D01*
X127941785Y-74247976D01*
X127751309Y-74295595D01*
X127608452Y-74295595D01*
X127417976Y-74247976D01*
X127322738Y-74200357D01*
X127227500Y-74105119D01*
X127179880Y-73962261D01*
X127179880Y-73867023D01*
X127227500Y-73724166D01*
X127275119Y-73676547D01*
X128179880Y-72724166D02*
X128179880Y-73295595D01*
X128179880Y-73009880D02*
X127179880Y-73009880D01*
X127322738Y-73105119D01*
X127417976Y-73200357D01*
X127465595Y-73295595D01*
X127275119Y-72343214D02*
X127227500Y-72295595D01*
X127179880Y-72200357D01*
X127179880Y-71962261D01*
X127227500Y-71867023D01*
X127275119Y-71819404D01*
X127370357Y-71771785D01*
X127465595Y-71771785D01*
X127608452Y-71819404D01*
X128179880Y-72390833D01*
X128179880Y-71771785D01*
X127179880Y-71438452D02*
X127179880Y-70771785D01*
X128179880Y-71200357D01*
G04 #@! TO.C,D8*
X111579404Y-64724880D02*
X111579404Y-63724880D01*
X111817500Y-63724880D01*
X111960357Y-63772500D01*
X112055595Y-63867738D01*
X112103214Y-63962976D01*
X112150833Y-64153452D01*
X112150833Y-64296309D01*
X112103214Y-64486785D01*
X112055595Y-64582023D01*
X111960357Y-64677261D01*
X111817500Y-64724880D01*
X111579404Y-64724880D01*
X112722261Y-64153452D02*
X112627023Y-64105833D01*
X112579404Y-64058214D01*
X112531785Y-63962976D01*
X112531785Y-63915357D01*
X112579404Y-63820119D01*
X112627023Y-63772500D01*
X112722261Y-63724880D01*
X112912738Y-63724880D01*
X113007976Y-63772500D01*
X113055595Y-63820119D01*
X113103214Y-63915357D01*
X113103214Y-63962976D01*
X113055595Y-64058214D01*
X113007976Y-64105833D01*
X112912738Y-64153452D01*
X112722261Y-64153452D01*
X112627023Y-64201071D01*
X112579404Y-64248690D01*
X112531785Y-64343928D01*
X112531785Y-64534404D01*
X112579404Y-64629642D01*
X112627023Y-64677261D01*
X112722261Y-64724880D01*
X112912738Y-64724880D01*
X113007976Y-64677261D01*
X113055595Y-64629642D01*
X113103214Y-64534404D01*
X113103214Y-64343928D01*
X113055595Y-64248690D01*
X113007976Y-64201071D01*
X112912738Y-64153452D01*
G04 #@! TO.C,C29*
X107574642Y-65470357D02*
X107622261Y-65517976D01*
X107669880Y-65660833D01*
X107669880Y-65756071D01*
X107622261Y-65898928D01*
X107527023Y-65994166D01*
X107431785Y-66041785D01*
X107241309Y-66089404D01*
X107098452Y-66089404D01*
X106907976Y-66041785D01*
X106812738Y-65994166D01*
X106717500Y-65898928D01*
X106669880Y-65756071D01*
X106669880Y-65660833D01*
X106717500Y-65517976D01*
X106765119Y-65470357D01*
X106765119Y-65089404D02*
X106717500Y-65041785D01*
X106669880Y-64946547D01*
X106669880Y-64708452D01*
X106717500Y-64613214D01*
X106765119Y-64565595D01*
X106860357Y-64517976D01*
X106955595Y-64517976D01*
X107098452Y-64565595D01*
X107669880Y-65137023D01*
X107669880Y-64517976D01*
X107669880Y-64041785D02*
X107669880Y-63851309D01*
X107622261Y-63756071D01*
X107574642Y-63708452D01*
X107431785Y-63613214D01*
X107241309Y-63565595D01*
X106860357Y-63565595D01*
X106765119Y-63613214D01*
X106717500Y-63660833D01*
X106669880Y-63756071D01*
X106669880Y-63946547D01*
X106717500Y-64041785D01*
X106765119Y-64089404D01*
X106860357Y-64137023D01*
X107098452Y-64137023D01*
X107193690Y-64089404D01*
X107241309Y-64041785D01*
X107288928Y-63946547D01*
X107288928Y-63756071D01*
X107241309Y-63660833D01*
X107193690Y-63613214D01*
X107098452Y-63565595D01*
G04 #@! TO.C,R23*
X155024880Y-69150357D02*
X154548690Y-69483690D01*
X155024880Y-69721785D02*
X154024880Y-69721785D01*
X154024880Y-69340833D01*
X154072500Y-69245595D01*
X154120119Y-69197976D01*
X154215357Y-69150357D01*
X154358214Y-69150357D01*
X154453452Y-69197976D01*
X154501071Y-69245595D01*
X154548690Y-69340833D01*
X154548690Y-69721785D01*
X154120119Y-68769404D02*
X154072500Y-68721785D01*
X154024880Y-68626547D01*
X154024880Y-68388452D01*
X154072500Y-68293214D01*
X154120119Y-68245595D01*
X154215357Y-68197976D01*
X154310595Y-68197976D01*
X154453452Y-68245595D01*
X155024880Y-68817023D01*
X155024880Y-68197976D01*
X154024880Y-67864642D02*
X154024880Y-67245595D01*
X154405833Y-67578928D01*
X154405833Y-67436071D01*
X154453452Y-67340833D01*
X154501071Y-67293214D01*
X154596309Y-67245595D01*
X154834404Y-67245595D01*
X154929642Y-67293214D01*
X154977261Y-67340833D01*
X155024880Y-67436071D01*
X155024880Y-67721785D01*
X154977261Y-67817023D01*
X154929642Y-67864642D01*
G04 #@! TO.C,R32*
X167919642Y-81454880D02*
X167586309Y-80978690D01*
X167348214Y-81454880D02*
X167348214Y-80454880D01*
X167729166Y-80454880D01*
X167824404Y-80502500D01*
X167872023Y-80550119D01*
X167919642Y-80645357D01*
X167919642Y-80788214D01*
X167872023Y-80883452D01*
X167824404Y-80931071D01*
X167729166Y-80978690D01*
X167348214Y-80978690D01*
X168252976Y-80454880D02*
X168872023Y-80454880D01*
X168538690Y-80835833D01*
X168681547Y-80835833D01*
X168776785Y-80883452D01*
X168824404Y-80931071D01*
X168872023Y-81026309D01*
X168872023Y-81264404D01*
X168824404Y-81359642D01*
X168776785Y-81407261D01*
X168681547Y-81454880D01*
X168395833Y-81454880D01*
X168300595Y-81407261D01*
X168252976Y-81359642D01*
X169252976Y-80550119D02*
X169300595Y-80502500D01*
X169395833Y-80454880D01*
X169633928Y-80454880D01*
X169729166Y-80502500D01*
X169776785Y-80550119D01*
X169824404Y-80645357D01*
X169824404Y-80740595D01*
X169776785Y-80883452D01*
X169205357Y-81454880D01*
X169824404Y-81454880D01*
G04 #@! TO.C,C23*
X106014642Y-107134642D02*
X105967023Y-107182261D01*
X105824166Y-107229880D01*
X105728928Y-107229880D01*
X105586071Y-107182261D01*
X105490833Y-107087023D01*
X105443214Y-106991785D01*
X105395595Y-106801309D01*
X105395595Y-106658452D01*
X105443214Y-106467976D01*
X105490833Y-106372738D01*
X105586071Y-106277500D01*
X105728928Y-106229880D01*
X105824166Y-106229880D01*
X105967023Y-106277500D01*
X106014642Y-106325119D01*
X106395595Y-106325119D02*
X106443214Y-106277500D01*
X106538452Y-106229880D01*
X106776547Y-106229880D01*
X106871785Y-106277500D01*
X106919404Y-106325119D01*
X106967023Y-106420357D01*
X106967023Y-106515595D01*
X106919404Y-106658452D01*
X106347976Y-107229880D01*
X106967023Y-107229880D01*
X107300357Y-106229880D02*
X107919404Y-106229880D01*
X107586071Y-106610833D01*
X107728928Y-106610833D01*
X107824166Y-106658452D01*
X107871785Y-106706071D01*
X107919404Y-106801309D01*
X107919404Y-107039404D01*
X107871785Y-107134642D01*
X107824166Y-107182261D01*
X107728928Y-107229880D01*
X107443214Y-107229880D01*
X107347976Y-107182261D01*
X107300357Y-107134642D01*
G04 #@! TO.C,R27*
X164464880Y-79550357D02*
X163988690Y-79883690D01*
X164464880Y-80121785D02*
X163464880Y-80121785D01*
X163464880Y-79740833D01*
X163512500Y-79645595D01*
X163560119Y-79597976D01*
X163655357Y-79550357D01*
X163798214Y-79550357D01*
X163893452Y-79597976D01*
X163941071Y-79645595D01*
X163988690Y-79740833D01*
X163988690Y-80121785D01*
X163560119Y-79169404D02*
X163512500Y-79121785D01*
X163464880Y-79026547D01*
X163464880Y-78788452D01*
X163512500Y-78693214D01*
X163560119Y-78645595D01*
X163655357Y-78597976D01*
X163750595Y-78597976D01*
X163893452Y-78645595D01*
X164464880Y-79217023D01*
X164464880Y-78597976D01*
X163464880Y-78264642D02*
X163464880Y-77597976D01*
X164464880Y-78026547D01*
G04 #@! TO.C,R30*
X163204880Y-79550357D02*
X162728690Y-79883690D01*
X163204880Y-80121785D02*
X162204880Y-80121785D01*
X162204880Y-79740833D01*
X162252500Y-79645595D01*
X162300119Y-79597976D01*
X162395357Y-79550357D01*
X162538214Y-79550357D01*
X162633452Y-79597976D01*
X162681071Y-79645595D01*
X162728690Y-79740833D01*
X162728690Y-80121785D01*
X162204880Y-79217023D02*
X162204880Y-78597976D01*
X162585833Y-78931309D01*
X162585833Y-78788452D01*
X162633452Y-78693214D01*
X162681071Y-78645595D01*
X162776309Y-78597976D01*
X163014404Y-78597976D01*
X163109642Y-78645595D01*
X163157261Y-78693214D01*
X163204880Y-78788452D01*
X163204880Y-79074166D01*
X163157261Y-79169404D01*
X163109642Y-79217023D01*
X162204880Y-77978928D02*
X162204880Y-77883690D01*
X162252500Y-77788452D01*
X162300119Y-77740833D01*
X162395357Y-77693214D01*
X162585833Y-77645595D01*
X162823928Y-77645595D01*
X163014404Y-77693214D01*
X163109642Y-77740833D01*
X163157261Y-77788452D01*
X163204880Y-77883690D01*
X163204880Y-77978928D01*
X163157261Y-78074166D01*
X163109642Y-78121785D01*
X163014404Y-78169404D01*
X162823928Y-78217023D01*
X162585833Y-78217023D01*
X162395357Y-78169404D01*
X162300119Y-78121785D01*
X162252500Y-78074166D01*
X162204880Y-77978928D01*
G04 #@! TO.C,J1*
X189464880Y-64495833D02*
X190179166Y-64495833D01*
X190322023Y-64543452D01*
X190417261Y-64638690D01*
X190464880Y-64781547D01*
X190464880Y-64876785D01*
X190464880Y-63495833D02*
X190464880Y-64067261D01*
X190464880Y-63781547D02*
X189464880Y-63781547D01*
X189607738Y-63876785D01*
X189702976Y-63972023D01*
X189750595Y-64067261D01*
G04 #@! TO.C,C26*
X107574642Y-72465357D02*
X107622261Y-72512976D01*
X107669880Y-72655833D01*
X107669880Y-72751071D01*
X107622261Y-72893928D01*
X107527023Y-72989166D01*
X107431785Y-73036785D01*
X107241309Y-73084404D01*
X107098452Y-73084404D01*
X106907976Y-73036785D01*
X106812738Y-72989166D01*
X106717500Y-72893928D01*
X106669880Y-72751071D01*
X106669880Y-72655833D01*
X106717500Y-72512976D01*
X106765119Y-72465357D01*
X106765119Y-72084404D02*
X106717500Y-72036785D01*
X106669880Y-71941547D01*
X106669880Y-71703452D01*
X106717500Y-71608214D01*
X106765119Y-71560595D01*
X106860357Y-71512976D01*
X106955595Y-71512976D01*
X107098452Y-71560595D01*
X107669880Y-72132023D01*
X107669880Y-71512976D01*
X106669880Y-70655833D02*
X106669880Y-70846309D01*
X106717500Y-70941547D01*
X106765119Y-70989166D01*
X106907976Y-71084404D01*
X107098452Y-71132023D01*
X107479404Y-71132023D01*
X107574642Y-71084404D01*
X107622261Y-71036785D01*
X107669880Y-70941547D01*
X107669880Y-70751071D01*
X107622261Y-70655833D01*
X107574642Y-70608214D01*
X107479404Y-70560595D01*
X107241309Y-70560595D01*
X107146071Y-70608214D01*
X107098452Y-70655833D01*
X107050833Y-70751071D01*
X107050833Y-70941547D01*
X107098452Y-71036785D01*
X107146071Y-71084404D01*
X107241309Y-71132023D01*
G04 #@! TO.C,C22*
X117414642Y-118384642D02*
X117367023Y-118432261D01*
X117224166Y-118479880D01*
X117128928Y-118479880D01*
X116986071Y-118432261D01*
X116890833Y-118337023D01*
X116843214Y-118241785D01*
X116795595Y-118051309D01*
X116795595Y-117908452D01*
X116843214Y-117717976D01*
X116890833Y-117622738D01*
X116986071Y-117527500D01*
X117128928Y-117479880D01*
X117224166Y-117479880D01*
X117367023Y-117527500D01*
X117414642Y-117575119D01*
X117795595Y-117575119D02*
X117843214Y-117527500D01*
X117938452Y-117479880D01*
X118176547Y-117479880D01*
X118271785Y-117527500D01*
X118319404Y-117575119D01*
X118367023Y-117670357D01*
X118367023Y-117765595D01*
X118319404Y-117908452D01*
X117747976Y-118479880D01*
X118367023Y-118479880D01*
X118747976Y-117575119D02*
X118795595Y-117527500D01*
X118890833Y-117479880D01*
X119128928Y-117479880D01*
X119224166Y-117527500D01*
X119271785Y-117575119D01*
X119319404Y-117670357D01*
X119319404Y-117765595D01*
X119271785Y-117908452D01*
X118700357Y-118479880D01*
X119319404Y-118479880D01*
G04 #@! TO.C,J12*
X176842976Y-75799880D02*
X176842976Y-76514166D01*
X176795357Y-76657023D01*
X176700119Y-76752261D01*
X176557261Y-76799880D01*
X176462023Y-76799880D01*
X177842976Y-76799880D02*
X177271547Y-76799880D01*
X177557261Y-76799880D02*
X177557261Y-75799880D01*
X177462023Y-75942738D01*
X177366785Y-76037976D01*
X177271547Y-76085595D01*
X178223928Y-75895119D02*
X178271547Y-75847500D01*
X178366785Y-75799880D01*
X178604880Y-75799880D01*
X178700119Y-75847500D01*
X178747738Y-75895119D01*
X178795357Y-75990357D01*
X178795357Y-76085595D01*
X178747738Y-76228452D01*
X178176309Y-76799880D01*
X178795357Y-76799880D01*
G04 #@! TO.C,R25*
X148319642Y-59644880D02*
X147986309Y-59168690D01*
X147748214Y-59644880D02*
X147748214Y-58644880D01*
X148129166Y-58644880D01*
X148224404Y-58692500D01*
X148272023Y-58740119D01*
X148319642Y-58835357D01*
X148319642Y-58978214D01*
X148272023Y-59073452D01*
X148224404Y-59121071D01*
X148129166Y-59168690D01*
X147748214Y-59168690D01*
X148700595Y-58740119D02*
X148748214Y-58692500D01*
X148843452Y-58644880D01*
X149081547Y-58644880D01*
X149176785Y-58692500D01*
X149224404Y-58740119D01*
X149272023Y-58835357D01*
X149272023Y-58930595D01*
X149224404Y-59073452D01*
X148652976Y-59644880D01*
X149272023Y-59644880D01*
X150176785Y-58644880D02*
X149700595Y-58644880D01*
X149652976Y-59121071D01*
X149700595Y-59073452D01*
X149795833Y-59025833D01*
X150033928Y-59025833D01*
X150129166Y-59073452D01*
X150176785Y-59121071D01*
X150224404Y-59216309D01*
X150224404Y-59454404D01*
X150176785Y-59549642D01*
X150129166Y-59597261D01*
X150033928Y-59644880D01*
X149795833Y-59644880D01*
X149700595Y-59597261D01*
X149652976Y-59549642D01*
G04 #@! TO.C,R22*
X146454880Y-74490357D02*
X145978690Y-74823690D01*
X146454880Y-75061785D02*
X145454880Y-75061785D01*
X145454880Y-74680833D01*
X145502500Y-74585595D01*
X145550119Y-74537976D01*
X145645357Y-74490357D01*
X145788214Y-74490357D01*
X145883452Y-74537976D01*
X145931071Y-74585595D01*
X145978690Y-74680833D01*
X145978690Y-75061785D01*
X145550119Y-74109404D02*
X145502500Y-74061785D01*
X145454880Y-73966547D01*
X145454880Y-73728452D01*
X145502500Y-73633214D01*
X145550119Y-73585595D01*
X145645357Y-73537976D01*
X145740595Y-73537976D01*
X145883452Y-73585595D01*
X146454880Y-74157023D01*
X146454880Y-73537976D01*
X145550119Y-73157023D02*
X145502500Y-73109404D01*
X145454880Y-73014166D01*
X145454880Y-72776071D01*
X145502500Y-72680833D01*
X145550119Y-72633214D01*
X145645357Y-72585595D01*
X145740595Y-72585595D01*
X145883452Y-72633214D01*
X146454880Y-73204642D01*
X146454880Y-72585595D01*
G04 #@! TO.C,R28*
X152094880Y-60340357D02*
X151618690Y-60673690D01*
X152094880Y-60911785D02*
X151094880Y-60911785D01*
X151094880Y-60530833D01*
X151142500Y-60435595D01*
X151190119Y-60387976D01*
X151285357Y-60340357D01*
X151428214Y-60340357D01*
X151523452Y-60387976D01*
X151571071Y-60435595D01*
X151618690Y-60530833D01*
X151618690Y-60911785D01*
X151190119Y-59959404D02*
X151142500Y-59911785D01*
X151094880Y-59816547D01*
X151094880Y-59578452D01*
X151142500Y-59483214D01*
X151190119Y-59435595D01*
X151285357Y-59387976D01*
X151380595Y-59387976D01*
X151523452Y-59435595D01*
X152094880Y-60007023D01*
X152094880Y-59387976D01*
X151523452Y-58816547D02*
X151475833Y-58911785D01*
X151428214Y-58959404D01*
X151332976Y-59007023D01*
X151285357Y-59007023D01*
X151190119Y-58959404D01*
X151142500Y-58911785D01*
X151094880Y-58816547D01*
X151094880Y-58626071D01*
X151142500Y-58530833D01*
X151190119Y-58483214D01*
X151285357Y-58435595D01*
X151332976Y-58435595D01*
X151428214Y-58483214D01*
X151475833Y-58530833D01*
X151523452Y-58626071D01*
X151523452Y-58816547D01*
X151571071Y-58911785D01*
X151618690Y-58959404D01*
X151713928Y-59007023D01*
X151904404Y-59007023D01*
X151999642Y-58959404D01*
X152047261Y-58911785D01*
X152094880Y-58816547D01*
X152094880Y-58626071D01*
X152047261Y-58530833D01*
X151999642Y-58483214D01*
X151904404Y-58435595D01*
X151713928Y-58435595D01*
X151618690Y-58483214D01*
X151571071Y-58530833D01*
X151523452Y-58626071D01*
G04 #@! TO.C,R20*
X116489642Y-59884880D02*
X116156309Y-59408690D01*
X115918214Y-59884880D02*
X115918214Y-58884880D01*
X116299166Y-58884880D01*
X116394404Y-58932500D01*
X116442023Y-58980119D01*
X116489642Y-59075357D01*
X116489642Y-59218214D01*
X116442023Y-59313452D01*
X116394404Y-59361071D01*
X116299166Y-59408690D01*
X115918214Y-59408690D01*
X116870595Y-58980119D02*
X116918214Y-58932500D01*
X117013452Y-58884880D01*
X117251547Y-58884880D01*
X117346785Y-58932500D01*
X117394404Y-58980119D01*
X117442023Y-59075357D01*
X117442023Y-59170595D01*
X117394404Y-59313452D01*
X116822976Y-59884880D01*
X117442023Y-59884880D01*
X118061071Y-58884880D02*
X118156309Y-58884880D01*
X118251547Y-58932500D01*
X118299166Y-58980119D01*
X118346785Y-59075357D01*
X118394404Y-59265833D01*
X118394404Y-59503928D01*
X118346785Y-59694404D01*
X118299166Y-59789642D01*
X118251547Y-59837261D01*
X118156309Y-59884880D01*
X118061071Y-59884880D01*
X117965833Y-59837261D01*
X117918214Y-59789642D01*
X117870595Y-59694404D01*
X117822976Y-59503928D01*
X117822976Y-59265833D01*
X117870595Y-59075357D01*
X117918214Y-58980119D01*
X117965833Y-58932500D01*
X118061071Y-58884880D01*
D14*
G04 #@! TO.C,R19*
X134387500Y-141161141D02*
X134387500Y-140853859D01*
X133627500Y-141161141D02*
X133627500Y-140853859D01*
G04 #@! TO.C,J2*
X98987500Y-113310000D02*
X96337500Y-113310000D01*
X96337500Y-113310000D02*
X96337500Y-124360000D01*
X96337500Y-124360000D02*
X98987500Y-124360000D01*
X98987500Y-124360000D02*
X98987500Y-113310000D01*
X113487500Y-112760000D02*
X98987500Y-112760000D01*
X98987500Y-112760000D02*
X98987500Y-127560000D01*
X98987500Y-127560000D02*
X113487500Y-127560000D01*
X113487500Y-127560000D02*
X113487500Y-112760000D01*
G04 #@! TO.C,Q6*
X137767500Y-138827500D02*
X137767500Y-139757500D01*
X137767500Y-141987500D02*
X136307500Y-141987500D01*
X137767500Y-141987500D02*
X137767500Y-141057500D01*
X137767500Y-138827500D02*
X135607500Y-138827500D01*
G04 #@! TO.C,D114*
X148457500Y-133107500D02*
X148457500Y-131107500D01*
X148457500Y-131107500D02*
X144557500Y-131107500D01*
X148457500Y-133107500D02*
X144557500Y-133107500D01*
G04 #@! TO.C,R16*
X130647500Y-59856141D02*
X130647500Y-59548859D01*
X129887500Y-59856141D02*
X129887500Y-59548859D01*
G04 #@! TO.C,R17*
X126882500Y-59846141D02*
X126882500Y-59538859D01*
X127642500Y-59846141D02*
X127642500Y-59538859D01*
G04 #@! TO.C,J3*
X170332500Y-140437500D02*
X170332500Y-140027500D01*
X158317735Y-149067500D02*
X158317735Y-140437500D01*
X156662500Y-137867500D02*
X157992500Y-137867500D01*
X159026305Y-149067500D02*
X159026305Y-140437500D01*
X158081545Y-149067500D02*
X158081545Y-140437500D01*
X157254880Y-149067500D02*
X157254880Y-140437500D01*
X165252500Y-140437500D02*
X165252500Y-140027500D01*
X168512500Y-140437500D02*
X168512500Y-140027500D01*
X157609165Y-149067500D02*
X157609165Y-140437500D01*
X157845355Y-149067500D02*
X157845355Y-140437500D01*
X160892500Y-140437500D02*
X160892500Y-140027500D01*
X169422500Y-149067500D02*
X169422500Y-140437500D01*
X172022500Y-149067500D02*
X172022500Y-140437500D01*
X156662500Y-138977500D02*
X156662500Y-137867500D01*
X156662500Y-140437500D02*
X172022500Y-140437500D01*
X163432500Y-140437500D02*
X163432500Y-140027500D01*
X167792500Y-140437500D02*
X167792500Y-140027500D01*
X160172500Y-140437500D02*
X160172500Y-140027500D01*
X158672020Y-149067500D02*
X158672020Y-140437500D01*
X158352500Y-140437500D02*
X158352500Y-140087500D01*
X162712500Y-140437500D02*
X162712500Y-140027500D01*
X157727260Y-149067500D02*
X157727260Y-140437500D01*
X158199640Y-149067500D02*
X158199640Y-140437500D01*
X158553925Y-149067500D02*
X158553925Y-140437500D01*
X158435830Y-149067500D02*
X158435830Y-140437500D01*
X171052500Y-140437500D02*
X171052500Y-140027500D01*
X157018690Y-149067500D02*
X157018690Y-140437500D01*
X165972500Y-140437500D02*
X165972500Y-140027500D01*
X161802500Y-149067500D02*
X161802500Y-140437500D01*
X157372975Y-149067500D02*
X157372975Y-140437500D01*
X156900595Y-149067500D02*
X156900595Y-140437500D01*
X157632500Y-140437500D02*
X157632500Y-140087500D01*
X157136785Y-149067500D02*
X157136785Y-140437500D01*
X159262500Y-149067500D02*
X159262500Y-140437500D01*
X156782500Y-149067500D02*
X156782500Y-140437500D01*
X158790115Y-149067500D02*
X158790115Y-140437500D01*
X157491070Y-149067500D02*
X157491070Y-140437500D01*
X157963450Y-149067500D02*
X157963450Y-140437500D01*
X156662500Y-149067500D02*
X172022500Y-149067500D01*
X156662500Y-149067500D02*
X156662500Y-140437500D01*
X158908210Y-149067500D02*
X158908210Y-140437500D01*
X164342500Y-149067500D02*
X164342500Y-140437500D01*
X166882500Y-149067500D02*
X166882500Y-140437500D01*
X159144400Y-149067500D02*
X159144400Y-140437500D01*
G04 #@! TO.C,C24*
X143847500Y-72098080D02*
X143847500Y-71816920D01*
X144867500Y-72098080D02*
X144867500Y-71816920D01*
G04 #@! TO.C,U3*
X159562500Y-56802500D02*
X177562500Y-56802500D01*
X177562500Y-56802500D02*
X177562500Y-50802500D01*
X177562500Y-50802500D02*
X159562500Y-50802500D01*
X159562500Y-50802500D02*
X159562500Y-56802500D01*
X159562500Y-56802500D02*
X177562500Y-56802500D01*
X177562500Y-56802500D02*
X177562500Y-76302500D01*
X177562500Y-76302500D02*
X159562500Y-76302500D01*
X159562500Y-76302500D02*
X159562500Y-56802500D01*
G04 #@! TO.C,C25*
X134689664Y-67452500D02*
X134905336Y-67452500D01*
X134689664Y-68172500D02*
X134905336Y-68172500D01*
G04 #@! TO.C,D2*
X134570000Y-66977500D02*
X136855000Y-66977500D01*
X134570000Y-65507500D02*
X134570000Y-66977500D01*
X136855000Y-65507500D02*
X134570000Y-65507500D01*
G04 #@! TO.C,C1*
X178727500Y-60141920D02*
X178727500Y-60423080D01*
X179747500Y-60141920D02*
X179747500Y-60423080D01*
G04 #@! TO.C,C4*
X172837500Y-136933080D02*
X172837500Y-136651920D01*
X173857500Y-136933080D02*
X173857500Y-136651920D01*
G04 #@! TO.C,D10*
X153267500Y-64500000D02*
X154737500Y-64500000D01*
X154737500Y-64500000D02*
X154737500Y-62215000D01*
X153267500Y-62215000D02*
X153267500Y-64500000D01*
G04 #@! TO.C,C5*
X180237500Y-60141920D02*
X180237500Y-60423080D01*
X181257500Y-60141920D02*
X181257500Y-60423080D01*
G04 #@! TO.C,D1*
X106172500Y-58392500D02*
X107642500Y-58392500D01*
X106172500Y-56107500D02*
X106172500Y-58392500D01*
X107642500Y-58392500D02*
X107642500Y-56107500D01*
G04 #@! TO.C,Q2*
X152282500Y-64742500D02*
X152282500Y-62582500D01*
X149122500Y-64742500D02*
X150052500Y-64742500D01*
X149122500Y-64742500D02*
X149122500Y-63282500D01*
X152282500Y-64742500D02*
X151352500Y-64742500D01*
G04 #@! TO.C,R15*
X119422500Y-76353859D02*
X119422500Y-76661141D01*
X120182500Y-76353859D02*
X120182500Y-76661141D01*
G04 #@! TO.C,Q5*
X115547500Y-78092500D02*
X115547500Y-77162500D01*
X115547500Y-74932500D02*
X117007500Y-74932500D01*
X115547500Y-74932500D02*
X115547500Y-75862500D01*
X115547500Y-78092500D02*
X117707500Y-78092500D01*
G04 #@! TO.C,R3*
X133213859Y-66627500D02*
X133521141Y-66627500D01*
X133213859Y-65867500D02*
X133521141Y-65867500D01*
G04 #@! TO.C,R7*
X157543859Y-65027500D02*
X157851141Y-65027500D01*
X157543859Y-64267500D02*
X157851141Y-64267500D01*
G04 #@! TO.C,R10*
X164487500Y-79061141D02*
X164487500Y-78753859D01*
X163727500Y-79061141D02*
X163727500Y-78753859D01*
G04 #@! TO.C,R14*
X168942500Y-79066141D02*
X168942500Y-78758859D01*
X168182500Y-79066141D02*
X168182500Y-78758859D01*
G04 #@! TO.C,Q4*
X121382500Y-79302500D02*
X121382500Y-80762500D01*
X121382500Y-79302500D02*
X120452500Y-79302500D01*
X118222500Y-79302500D02*
X118222500Y-81462500D01*
X118222500Y-79302500D02*
X119152500Y-79302500D01*
G04 #@! TO.C,R9*
X157543859Y-72657500D02*
X157851141Y-72657500D01*
X157543859Y-71897500D02*
X157851141Y-71897500D01*
D15*
G04 #@! TO.C,BZ1*
X151987500Y-140407500D02*
G75*
G03*
X151987500Y-140407500I-5680000J0D01*
G01*
D14*
G04 #@! TO.C,U2*
X145577500Y-71827500D02*
X145577500Y-71102500D01*
X146302500Y-66607500D02*
X145577500Y-66607500D01*
X150797500Y-66607500D02*
X150797500Y-67332500D01*
X146302500Y-71827500D02*
X145577500Y-71827500D01*
X150072500Y-66607500D02*
X150797500Y-66607500D01*
X150072500Y-71827500D02*
X150797500Y-71827500D01*
X150797500Y-71827500D02*
X150797500Y-71102500D01*
G04 #@! TO.C,Q1*
X145097500Y-64747500D02*
X146027500Y-64747500D01*
X145097500Y-64747500D02*
X145097500Y-63287500D01*
X148257500Y-64747500D02*
X148257500Y-62587500D01*
X148257500Y-64747500D02*
X147327500Y-64747500D01*
G04 #@! TO.C,R2*
X107287500Y-60061141D02*
X107287500Y-59753859D01*
X106527500Y-60061141D02*
X106527500Y-59753859D01*
G04 #@! TO.C,R8*
X157543859Y-65542500D02*
X157851141Y-65542500D01*
X157543859Y-66302500D02*
X157851141Y-66302500D01*
G04 #@! TO.C,Q8*
X133102500Y-83212500D02*
X133102500Y-82282500D01*
X133102500Y-80052500D02*
X134562500Y-80052500D01*
X133102500Y-80052500D02*
X133102500Y-80982500D01*
X133102500Y-83212500D02*
X135262500Y-83212500D01*
G04 #@! TO.C,R12*
X164997500Y-79061141D02*
X164997500Y-78753859D01*
X165757500Y-79061141D02*
X165757500Y-78753859D01*
G04 #@! TO.C,R18*
X104426141Y-98427500D02*
X104118859Y-98427500D01*
X104426141Y-97667500D02*
X104118859Y-97667500D01*
G04 #@! TO.C,Q7*
X133107500Y-87642500D02*
X135267500Y-87642500D01*
X133107500Y-84482500D02*
X133107500Y-85412500D01*
X133107500Y-84482500D02*
X134567500Y-84482500D01*
X133107500Y-87642500D02*
X133107500Y-86712500D01*
G04 #@! TO.C,R4*
X157543859Y-62492500D02*
X157851141Y-62492500D01*
X157543859Y-61732500D02*
X157851141Y-61732500D01*
G04 #@! TO.C,R11*
X104421141Y-100212500D02*
X104113859Y-100212500D01*
X104421141Y-100972500D02*
X104113859Y-100972500D01*
G04 #@! TO.C,U1*
X132947500Y-75922500D02*
X136707500Y-75922500D01*
X130697500Y-69102500D02*
X136707500Y-69102500D01*
X136707500Y-75922500D02*
X136707500Y-74662500D01*
X136707500Y-69102500D02*
X136707500Y-70362500D01*
G04 #@! TO.C,J7*
X99877500Y-106937500D02*
X99877500Y-89097500D01*
X102537500Y-106937500D02*
X99877500Y-106937500D01*
X102537500Y-108207500D02*
X102537500Y-109537500D01*
X102537500Y-89097500D02*
X99877500Y-89097500D01*
X102537500Y-106937500D02*
X102537500Y-89097500D01*
X102537500Y-109537500D02*
X101207500Y-109537500D01*
G04 #@! TO.C,J8*
X133717500Y-49307500D02*
X124317500Y-49307500D01*
X124317500Y-55107500D02*
X124317500Y-53107500D01*
X133717500Y-55107500D02*
X133717500Y-53107500D01*
X133717500Y-51207500D02*
X133717500Y-49307500D01*
X124317500Y-51207500D02*
X124317500Y-49307500D01*
G04 #@! TO.C,J9*
X192637500Y-99257500D02*
X189977500Y-99257500D01*
X192637500Y-106937500D02*
X192637500Y-99257500D01*
X192637500Y-109537500D02*
X191307500Y-109537500D01*
X192637500Y-108207500D02*
X192637500Y-109537500D01*
X192637500Y-106937500D02*
X189977500Y-106937500D01*
X189977500Y-106937500D02*
X189977500Y-99257500D01*
G04 #@! TO.C,J10*
X192637500Y-87557500D02*
X189977500Y-87557500D01*
X192637500Y-95237500D02*
X192637500Y-87557500D01*
X192637500Y-95237500D02*
X189977500Y-95237500D01*
X189977500Y-95237500D02*
X189977500Y-87557500D01*
X192637500Y-96507500D02*
X192637500Y-97837500D01*
X192637500Y-97837500D02*
X191307500Y-97837500D01*
G04 #@! TO.C,D7*
X128207500Y-68337500D02*
X128207500Y-62937500D01*
X124907500Y-68337500D02*
X124907500Y-62937500D01*
X124907500Y-68337500D02*
X128207500Y-68337500D01*
G04 #@! TO.C,R6*
X157538859Y-63002500D02*
X157846141Y-63002500D01*
X157538859Y-63762500D02*
X157846141Y-63762500D01*
G04 #@! TO.C,D9*
X156637500Y-64500000D02*
X156637500Y-62215000D01*
X155167500Y-62215000D02*
X155167500Y-64500000D01*
X155167500Y-64500000D02*
X156637500Y-64500000D01*
G04 #@! TO.C,R21*
X112502500Y-59861141D02*
X112502500Y-59553859D01*
X111742500Y-59861141D02*
X111742500Y-59553859D01*
G04 #@! TO.C,C128*
X142197500Y-71816920D02*
X142197500Y-72098080D01*
X143217500Y-71816920D02*
X143217500Y-72098080D01*
G04 #@! TO.C,C27*
X157017500Y-58661920D02*
X157017500Y-58943080D01*
X155997500Y-58661920D02*
X155997500Y-58943080D01*
G04 #@! TO.C,R26*
X149116141Y-58812500D02*
X148808859Y-58812500D01*
X149116141Y-59572500D02*
X148808859Y-59572500D01*
G04 #@! TO.C,R34*
X117303859Y-114827500D02*
X117611141Y-114827500D01*
X117303859Y-115587500D02*
X117611141Y-115587500D01*
G04 #@! TO.C,C28*
X157912500Y-58984664D02*
X157912500Y-59200336D01*
X158632500Y-58984664D02*
X158632500Y-59200336D01*
G04 #@! TO.C,R33*
X146153859Y-129637500D02*
X146461141Y-129637500D01*
X146153859Y-128877500D02*
X146461141Y-128877500D01*
G04 #@! TO.C,R29*
X177796141Y-83892500D02*
X177488859Y-83892500D01*
X177796141Y-84652500D02*
X177488859Y-84652500D01*
G04 #@! TO.C,R35*
X117313859Y-118537500D02*
X117621141Y-118537500D01*
X117313859Y-117777500D02*
X117621141Y-117777500D01*
G04 #@! TO.C,R31*
X153482500Y-65853859D02*
X153482500Y-66161141D01*
X152722500Y-65853859D02*
X152722500Y-66161141D01*
G04 #@! TO.C,R1*
X160771141Y-82187500D02*
X160463859Y-82187500D01*
X160771141Y-81427500D02*
X160463859Y-81427500D01*
G04 #@! TO.C,R24*
X156282500Y-65848859D02*
X156282500Y-66156141D01*
X155522500Y-65848859D02*
X155522500Y-66156141D01*
G04 #@! TO.C,J11*
X109172500Y-51207500D02*
X109172500Y-49307500D01*
X109172500Y-55107500D02*
X109172500Y-53107500D01*
X118572500Y-49307500D02*
X109172500Y-49307500D01*
X118572500Y-51207500D02*
X118572500Y-49307500D01*
X118572500Y-55107500D02*
X118572500Y-53107500D01*
G04 #@! TO.C,R36*
X117353859Y-120427500D02*
X117661141Y-120427500D01*
X117353859Y-121187500D02*
X117661141Y-121187500D01*
G04 #@! TO.C,C127*
X129667500Y-72698080D02*
X129667500Y-72416920D01*
X128647500Y-72698080D02*
X128647500Y-72416920D01*
G04 #@! TO.C,D8*
X117977500Y-68342500D02*
X117977500Y-62942500D01*
X114677500Y-68342500D02*
X114677500Y-62942500D01*
X114677500Y-68342500D02*
X117977500Y-68342500D01*
G04 #@! TO.C,C29*
X106417500Y-64719664D02*
X106417500Y-64935336D01*
X105697500Y-64719664D02*
X105697500Y-64935336D01*
G04 #@! TO.C,R23*
X154942500Y-65853859D02*
X154942500Y-66161141D01*
X154182500Y-65853859D02*
X154182500Y-66161141D01*
G04 #@! TO.C,R32*
X168408859Y-81792500D02*
X168716141Y-81792500D01*
X168408859Y-82552500D02*
X168716141Y-82552500D01*
G04 #@! TO.C,C23*
X106516920Y-107697500D02*
X106798080Y-107697500D01*
X106516920Y-108717500D02*
X106798080Y-108717500D01*
G04 #@! TO.C,R27*
X162462500Y-78753859D02*
X162462500Y-79061141D01*
X163222500Y-78753859D02*
X163222500Y-79061141D01*
G04 #@! TO.C,R30*
X161962500Y-78753859D02*
X161962500Y-79061141D01*
X161202500Y-78753859D02*
X161202500Y-79061141D01*
G04 #@! TO.C,J1*
X196122500Y-72007740D02*
X187492500Y-72007740D01*
X187492500Y-68842500D02*
X187082500Y-68842500D01*
X196122500Y-60312500D02*
X187492500Y-60312500D01*
X184982500Y-59402500D02*
X184542500Y-59402500D01*
X196122500Y-71889645D02*
X187492500Y-71889645D01*
X196122500Y-71417265D02*
X187492500Y-71417265D01*
X184982500Y-71382500D02*
X184602500Y-71382500D01*
X196122500Y-72598215D02*
X187492500Y-72598215D01*
X184982500Y-61222500D02*
X184542500Y-61222500D01*
X184982500Y-66302500D02*
X184542500Y-66302500D01*
X183492500Y-73072500D02*
X182382500Y-73072500D01*
X187492500Y-73072500D02*
X187492500Y-57712500D01*
X184982500Y-67022500D02*
X184542500Y-67022500D01*
X196122500Y-62852500D02*
X187492500Y-62852500D01*
X196122500Y-73072500D02*
X196122500Y-57712500D01*
X187492500Y-69562500D02*
X187082500Y-69562500D01*
X187492500Y-72102500D02*
X187082500Y-72102500D01*
X187492500Y-64482500D02*
X187082500Y-64482500D01*
X184982500Y-68842500D02*
X184542500Y-68842500D01*
X196122500Y-57712500D02*
X187492500Y-57712500D01*
X196122500Y-72243930D02*
X187492500Y-72243930D01*
X196122500Y-70590600D02*
X187492500Y-70590600D01*
X184982500Y-69562500D02*
X184542500Y-69562500D01*
X196122500Y-72362025D02*
X187492500Y-72362025D01*
X196122500Y-72125835D02*
X187492500Y-72125835D01*
X196122500Y-71181075D02*
X187492500Y-71181075D01*
X196122500Y-70944885D02*
X187492500Y-70944885D01*
X184982500Y-64482500D02*
X184542500Y-64482500D01*
X187492500Y-61222500D02*
X187082500Y-61222500D01*
X187492500Y-61942500D02*
X187082500Y-61942500D01*
X196122500Y-72952500D02*
X187492500Y-72952500D01*
X196122500Y-71771550D02*
X187492500Y-71771550D01*
X196122500Y-72716310D02*
X187492500Y-72716310D01*
X196122500Y-70472500D02*
X187492500Y-70472500D01*
X196122500Y-71062980D02*
X187492500Y-71062980D01*
X187492500Y-71382500D02*
X187082500Y-71382500D01*
X196122500Y-72834405D02*
X187492500Y-72834405D01*
X196122500Y-71535360D02*
X187492500Y-71535360D01*
X196122500Y-71653455D02*
X187492500Y-71653455D01*
X196122500Y-72480120D02*
X187492500Y-72480120D01*
X184982500Y-72102500D02*
X184602500Y-72102500D01*
X196122500Y-70826790D02*
X187492500Y-70826790D01*
X196122500Y-70708695D02*
X187492500Y-70708695D01*
X196122500Y-71299170D02*
X187492500Y-71299170D01*
X187492500Y-58682500D02*
X187082500Y-58682500D01*
X187492500Y-63762500D02*
X187082500Y-63762500D01*
X187492500Y-66302500D02*
X187082500Y-66302500D01*
X184982500Y-58682500D02*
X184542500Y-58682500D01*
X187492500Y-67022500D02*
X187082500Y-67022500D01*
X182382500Y-73072500D02*
X182382500Y-71742500D01*
X196122500Y-73072500D02*
X187492500Y-73072500D01*
X187492500Y-59402500D02*
X187082500Y-59402500D01*
X184982500Y-61942500D02*
X184542500Y-61942500D01*
X184982500Y-63762500D02*
X184542500Y-63762500D01*
X196122500Y-67932500D02*
X187492500Y-67932500D01*
X196122500Y-65392500D02*
X187492500Y-65392500D01*
G04 #@! TO.C,C26*
X106417500Y-71714664D02*
X106417500Y-71930336D01*
X105697500Y-71714664D02*
X105697500Y-71930336D01*
G04 #@! TO.C,C22*
X117916920Y-119967500D02*
X118198080Y-119967500D01*
X117916920Y-118947500D02*
X118198080Y-118947500D01*
G04 #@! TO.C,J12*
X178982500Y-80387500D02*
X178982500Y-82987500D01*
X178982500Y-77787500D02*
X178982500Y-79117500D01*
X177652500Y-77787500D02*
X178982500Y-77787500D01*
X176322500Y-80387500D02*
X176322500Y-82987500D01*
X176322500Y-82987500D02*
X178982500Y-82987500D01*
X176322500Y-80387500D02*
X178982500Y-80387500D01*
G04 #@! TO.C,R25*
X148808859Y-60742500D02*
X149116141Y-60742500D01*
X148808859Y-59982500D02*
X149116141Y-59982500D01*
G04 #@! TO.C,R22*
X147552500Y-74001141D02*
X147552500Y-73693859D01*
X146792500Y-74001141D02*
X146792500Y-73693859D01*
G04 #@! TO.C,R28*
X153192500Y-59851141D02*
X153192500Y-59543859D01*
X152432500Y-59851141D02*
X152432500Y-59543859D01*
G04 #@! TO.C,R20*
X115507500Y-59861141D02*
X115507500Y-59553859D01*
X114747500Y-59861141D02*
X114747500Y-59553859D01*
G04 #@! TD*
M02*
