<?xml version="1.0" encoding="UTF-8" standalone="no"?>
<!-- Created with Inkscape (http://www.inkscape.org/) -->

<svg
   width="99.999626mm"
   height="99.999619mm"
   viewBox="0 0 99.999627 99.999618"
   version="1.1"
   id="svg5"
   xml:space="preserve"
   inkscape:export-filename="..\..\..\..\..\Users\tomto\bitmapa.png"
   inkscape:export-xdpi="1000"
   inkscape:export-ydpi="1000"
   inkscape:version="1.2 (dc2aedaf03, 2022-05-15)"
   sodipodi:docname="RH-logo.svg"
   xmlns:inkscape="http://www.inkscape.org/namespaces/inkscape"
   xmlns:sodipodi="http://sodipodi.sourceforge.net/DTD/sodipodi-0.dtd"
   xmlns="http://www.w3.org/2000/svg"
   xmlns:svg="http://www.w3.org/2000/svg"><sodipodi:namedview
     id="namedview7"
     pagecolor="#ffffff"
     bordercolor="#000000"
     borderopacity="0.25"
     inkscape:showpageshadow="2"
     inkscape:pageopacity="0.0"
     inkscape:pagecheckerboard="0"
     inkscape:deskcolor="#d1d1d1"
     inkscape:document-units="mm"
     showgrid="false"
     inkscape:zoom="2.5247521"
     inkscape:cx="301.8118"
     inkscape:cy="202.00003"
     inkscape:window-width="2560"
     inkscape:window-height="1369"
     inkscape:window-x="1912"
     inkscape:window-y="-8"
     inkscape:window-maximized="1"
     inkscape:current-layer="g1056" /><defs
     id="defs2" /><g
     inkscape:label="Vrstva 1"
     inkscape:groupmode="layer"
     id="layer1"
     transform="translate(-41.629159,-54.002725)"><g
       id="g1056"
       inkscape:label="2023-06-01 logic backside"
       transform="matrix(0.40386441,0,0,-0.40386441,34.529204,161.75862)"><text
         xml:space="preserve"
         transform="matrix(1,0,0,-1,114.802,244.3958)"
         style="font-variant:normal;font-weight:900;font-size:20px;font-family:RedHatDisplay;-inkscape-font-specification:RedHatDisplay-Black;writing-mode:lr-tb;fill:#000000;fill-opacity:1;fill-rule:nonzero;stroke:none"
         id="text1060"><tspan
           x="0 12.4401 24.9601 37.840099 43.080101"
           y="0"
           sodipodi:role="line"
           id="tspan1058">Logic</tspan></text><text
         xml:space="preserve"
         transform="scale(1,-1)"
         style="font-variant:normal;font-weight:normal;font-size:8px;font-family:RedHatText;-inkscape-font-specification:RedHatText-Regular;writing-mode:lr-tb;fill:#000000;fill-opacity:1;fill-rule:nonzero;stroke:none"
         id="text1064"
         x="28.3465"
         y="-121.73653"><tspan
           x="28.3465 34.170502 38.506199 42.393902 46.849899 48.6339 53.273899 57.937901 62.393902 65.2099 66.328201 70.9842 75.624199 79.696198 84.112198 90.8722 95.328194 99.624199 102.64819 106.736 109.75999 111.536 116.17599 120.592 121.7103 123.4863 127.10229 128.22031 132.2679 136.1156 140.32359 142.09959 143.88361 148.0916 152.7556 154.5396 158.99559 160.1143 164.20189 167.22589"
           y="-121.73653"
           sodipodi:role="line"
           id="tspan1062">Developer documentation is available at </tspan></text><text
         xml:space="preserve"
         transform="scale(1,-1)"
         style="font-style:italic;font-variant:normal;font-size:8px;font-family:RedHatText;-inkscape-font-specification:RedHatText-Italic;writing-mode:lr-tb;fill:#000000;fill-opacity:1;fill-rule:nonzero;stroke:none"
         id="text1068"
         x="168.3445"
         y="-121.73653"><tspan
           x="168.3445 170.10451 174.66451 179.18449 180.9445 185.00031 187.00031 189.63181 194.1918 198.7598 203.0397 206.00771 207.7677 211.7437 215.6474 219.67909 222.64709 226.7751 231.34309 235.90311 238.1749 239.77451 243.8306"
           y="-121.73653"
           sodipodi:role="line"
           id="tspan1066">logic.robotikabrno.cz</tspan></text><text
         xml:space="preserve"
         transform="matrix(1,0,0,-1,28.3428,207.1049)"
         style="font-variant:normal;font-weight:normal;font-size:8px;line-height:0;font-family:RedHatText;-inkscape-font-specification:RedHatText-Regular;writing-mode:lr-tb;white-space:pre;inline-size:0;fill:#000000;fill-opacity:1;fill-rule:nonzero;stroke:none"
         id="text1084"><tspan
           sodipodi:role="line"
           id="tspan4335"
           x="0"
           y="0"><tspan
             id="tspan1082"
             x="0"
             y="0"
             dx="47">In your hands, you hold Logic – a universal </tspan></tspan><tspan
           sodipodi:role="line"
           id="tspan4337"
           x="0"
           y="0"><tspan
             x="0"
             y="0"
             id="tspan4339"
             dy="8"
             dx="47">programmable board designed to teach the </tspan></tspan><tspan
           sodipodi:role="line"
           x="0"
           y="0"
           id="tspan4350"><tspan
             x="0"
             y="0"
             id="tspan4352"
             dy="16"
             dx="47 0 0 0 0 0 0 0 0 0 0 0 1 0 0 0 1 0 0 0 0 0 0 0 0 0 0 0 0 1">fundamentals of programming. It includes </tspan></tspan><tspan
           sodipodi:role="line"
           x="0"
           y="0"
           id="tspan4489"><tspan
             x="0"
             y="0"
             id="tspan4365"
             dy="24"
             dx="47 0 0 -1 0 -0.2 -0.2 -1 0 -0.2 -0.2 -0.2 0 -1 0 0 -1 -0.1 -0.1 -0.1 -0.1 -0.1 0 0 -1 -0.1 -0.1 0 -1 -0.1 -0.1 -0.1 -0.1 -0.1 -0.1 0 -1 -0.1 -0.1 -0.1 -0.1 -0.1 -0.1">100 RGB LEDs, a buzzer, and various buttons,</tspan></tspan><tspan
           sodipodi:role="line"
           x="0"
           y="0"
           id="tspan4376"><tspan
             x="0"
             y="0"
             id="tspan4378"
             dy="32"
             dx="47 0 0 0 1 0 0 0 0 0 0 0 1 0 0 1 0 0 0 1 0 0 0 0 0 1">all powered by the ESP32 microcontroller. </tspan></tspan><tspan
           sodipodi:role="line"
           x="0"
           y="0"
           id="tspan4389"><tspan
             x="0"
             y="0"
             id="tspan4391"
             dy="40">With WiFi or Bluetooth connectivity, multiplayer games </tspan></tspan><tspan
           sodipodi:role="line"
           x="0"
           y="0"
           id="tspan4402"><tspan
             x="0"
             y="0"
             id="tspan4404"
             dy="48">are easily achievable. </tspan></tspan><tspan
           sodipodi:role="line"
           x="0"
           y="0"
           id="tspan4415"><tspan
             x="0"
             y="0"
             id="tspan4463"
             dy="63 0 0 0 0 0 0 0 0 0 0 0 0 0 0 0 0 0 0 0 0">Logic was created by Renata Zemanová at Robotárna </tspan></tspan><tspan
           sodipodi:role="line"
           x="0"
           y="0"
           id="tspan4428"><tspan
             x="0"
             y="0"
             id="tspan4471"
             dy="71 0 0 0 0 0 0 0 0 0 0 0 0 0 0 0 0">in Brno, Czechia, with the support of Red Hat Research.</tspan></tspan></text><text
         xml:space="preserve"
         transform="matrix(1,0,0,-1,77.1168,229.1732)"
         style="font-variant:normal;font-weight:normal;font-size:10px;font-family:RedHatText;-inkscape-font-specification:RedHatText-Regular;writing-mode:lr-tb;fill:#000000;fill-opacity:1;fill-rule:nonzero;stroke:none"
         id="text1088"><tspan
           x="0 5.8299999 9.0502005 14.8502 20.6702 23.989901 29.249901 37.699902 46.149899 51.409901 57.239899 59.469898 65.039902 67.369904 73.189903 78.449898 86.899902 92.469902 94.799896 99.740097 105.5401 111.0601 115.63 121.43 123.66"
           y="0"
           sodipodi:role="line"
           id="tspan1086">programmable game console</tspan></text><text
         xml:space="preserve"
         transform="matrix(1,0,0,-1,28.3465,66.3486)"
         style="font-variant:normal;font-weight:normal;font-size:8px;font-family:RedHatText;-inkscape-font-specification:RedHatText-Regular;writing-mode:lr-tb;fill:#000000;fill-opacity:1;fill-rule:nonzero;stroke:none"
         id="text1096"><tspan
           x="0 6.8555999 11.3116 14.4468 18.6548 21.2307 25.686701 28.8216 32.8936 35.469101 39.8447 43.932499 46.956501 48.732498 53.148499 57.804501 60.939201 63.9632 68.379204 72.835197 75.9702 77.746201 82.041702 84.985497 89.441498 92.2575 95.097504 99.305496 103.2573 107.7133"
           y="0"
           sodipodi:role="line"
           id="tspan1090">We are creating the interface </tspan><tspan
           x="-0.0026 4.7618999 9.2179003 12.4035 17.987499 22.5651 27.121799 31.6388 35.5532 39.862099 44.035 48.343899 53.100399 57.657101 64.517799 66.3946 70.7033 72.804298 76.718903 78.595398 83.112396 87.869202 92.3862 96.002197 99.148003 102.1448 105.7094 107.7094"
           y="10.584"
           sodipodi:role="line"
           id="tspan1092">between academia, industry, </tspan><tspan
           x="-0.0052999998 4.2027001 8.6187 13.2747 14.393 19.033001 23.697001 28.153 32.569 33.687599 37.3036 41.9436 46.3596 48.975399 52.927502 57.383499 58.501801 62.453899 67.093903 73.853897 80.613899 85.0299 89.4459 91.221901 94.245903 96.021896 100.4779 104.0135"
           y="21.167999"
           sodipodi:role="line"
           id="tspan1094">and open source communities.</tspan></text><text
         xml:space="preserve"
         transform="matrix(1,0,0,-1,41.9066,28.823)"
         style="font-style:italic;font-variant:normal;font-size:9px;font-family:RedHatText;-inkscape-font-specification:RedHatText-Italic;writing-mode:lr-tb;fill:#000000;fill-opacity:1;fill-rule:nonzero;stroke:none"
         id="text1100"><tspan
           x="0 3.0058999 7.9109001 11.8979 16.8029 21.446899 24.4979 28.9709 33.8489 36.0989 39.104801 44.0098 49.1488 54.026798 58.535702 61.874699 63.674599 68.012703 73.1427"
           y="0"
           sodipodi:role="line"
           id="tspan1098">research.redhat.com</tspan></text><text
         xml:space="preserve"
         transform="matrix(1,0,0,-1,154.914,28.823)"
         style="font-style:italic;font-variant:normal;font-size:9px;font-family:RedHatText;-inkscape-font-specification:RedHatText-Italic;writing-mode:lr-tb;fill:#000000;fill-opacity:1;fill-rule:nonzero;stroke:none"
         id="text1104"><tspan
           x="0 4.8779998 9.783 11.763 16.101101 21.0061 22.986099 27.7563 31.095301 35.262199 39.9062 41.750999 46.3139 50.3549 53.999802 57.005901 62.135899 67.274902 72.0896 75.428596 80.072601 83.168602 88.0466"
           y="0"
           sodipodi:role="line"
           id="tspan1102">helceletka.cz/robotarna</tspan></text><text
         xml:space="preserve"
         transform="matrix(1,0,0,-1,147.4016,66.3486)"
         style="font-variant:normal;font-weight:normal;font-size:8px;font-family:RedHatText;-inkscape-font-specification:RedHatText-Regular;writing-mode:lr-tb;fill:#000000;fill-opacity:1;fill-rule:nonzero;stroke:none"
         id="text1112"><tspan
           x="0 6.9545002 11.5092 15.4236 19.138399 23.901199 28.4559 32.626499 34.501099 38.808102 40.690899 42.565701 46.237701 50.7714 54.685799 56.5606 61.075298 64.9897 68.013702 72.5877 76.758598 81.273598 85.788597 87.6632 91.833801 96.140503 98.0233 99.906403 103.9891"
           y="0"
           sodipodi:role="line"
           id="tspan1106">We specialize in technically-</tspan><tspan
           x="-0.0044 4.6356001 7.4516001 9.2276001 13.6836 17.9792 20.9233 25.379299 30.035299 32.177399 36.6334 41.289398 45.705399 49.777401 53.865002 56.889 58.665001 63.305 67.721001 71.929001 73.712997 75.855598 80.063599 84.215302 87.239304 89.015297 93.0233 94.799301 97.823303 99.599297 104.0553 107.6713"
           y="10.584"
           sodipodi:role="line"
           id="tspan1108">oriented educational activities </tspan><tspan
           x="-0.0054000001 2.7944 7.4344001 10.2504 11.3689 15.5769 17.360901 19.144899 20.2635 24.4715 29.127501 33.5835 34.701801 39.3578 41.933498 46.573502 50.989498 55.6535 59.189098"
           y="21.167999"
           sodipodi:role="line"
           id="tspan1110">for all age groups.</tspan></text><g
         id="g1114"><path
           d="m 168.9489,104.222 c -5.3076,0 -9.612,-4.3039 -9.612,-9.6078 0,-5.3076 4.3044,-9.612 9.612,-9.612 5.3075,0 9.608,4.3044 9.608,9.612 0,5.3039 -4.3002,9.6078 -9.608,9.6078 z m -0.4726,-2.6592 c 0.5375,0.002 1.2776,-0.0244 1.4936,-0.0244 0.2673,0 0.0978,-1.6211 0.2531,-1.6574 0.7041,-0.1732 1.3541,-0.4901 1.9174,-0.9125 0.1301,-0.1012 1.3436,1.0177 1.4663,0.906 0.4079,-0.3719 1.0786,-1.2209 1.3567,-1.7048 0.0794,-0.1443 -1.256,-1.1007 -1.1874,-1.2523 0.2996,-0.6645 0.4657,-1.311 0.4657,-2.0838 0,-0.0867 1.5639,-0.3818 1.5531,-0.566 -0.0289,-0.5273 -0.2897,-1.4984 -0.4632,-1.9715 -0.0723,-0.1951 -1.567,0.2409 -1.6574,0.0569 -0.3141,-0.6173 -0.5335,-1.1188 -1.0533,-1.5667 -0.1588,-0.1372 0.7253,-1.4221 0.6457,-1.4799 -0.4442,-0.3215 -1.571,-0.9899 -2.1056,-1.1631 -0.1913,-0.0615 -0.7872,1.4587 -0.9856,1.419 -0.3359,-0.0649 -0.862,-0.1083 -1.2158,-0.1083 -0.3359,0 -0.6653,0.0292 -0.983,0.0908 -0.1554,0.0289 -0.7935,-1.5021 -0.9451,-1.4624 -0.5885,0.1698 -1.7629,0.7718 -2.2504,1.1182 -0.0975,0.0723 0.8345,1.4448 0.7407,1.5205 -0.5633,0.4658 -0.942,0.9718 -1.2742,1.6288 -0.0578,0.1157 -1.7079,-0.2574 -1.7547,-0.138 -0.2202,0.5198 -0.3109,1.4669 -0.3506,2.0554 -0.007,0.1227 1.5381,0.3503 1.5381,0.4765 0,0.7764 0.1661,1.5128 0.4657,2.1773 0.0505,0.1156 -1.2209,1.1182 -1.163,1.2268 0.3069,0.5669 0.8957,1.2682 1.3796,1.6872 0.1083,0.0975 1.3717,-0.8992 1.4907,-0.8124 0.5451,0.3971 1.167,0.6896 1.8389,0.8558 0.1156,0.0289 0.1258,1.6418 0.2451,1.6599 0.0925,0.017 0.2946,0.0236 0.5389,0.0244 z m 0.5485,-5.9669 c -0.2455,0.0037 -0.4918,-0.1046 -0.6579,-0.2818 -0.1732,-0.1732 -0.2636,-0.4184 -0.2492,-0.6568 0.0108,-0.2384 0.1123,-0.4663 0.275,-0.6324 0.1624,-0.1698 0.3903,-0.2852 0.6324,-0.2925 0.2418,-0.0108 0.4907,0.0969 0.6457,0.2775 0.1588,0.1806 0.2342,0.4198 0.2342,0.6471 0,0.2274 -0.0754,0.4655 -0.2342,0.6458 -0.1553,0.1842 -0.4002,0.2925 -0.6457,0.2925 z"
           style="fill:#000000;fill-opacity:1;fill-rule:nonzero;stroke:none"
           id="path1116" /><path
           d="m 183.994,91.2197 h 0.993 v 3.3398 h 0.9385 c 0.9026,-0.036 1.3252,-0.4368 1.5563,-1.4984 0.2058,-0.9603 0.3756,-1.614 0.502,-1.8414 h 1.029 c -0.1588,0.296 -0.343,1.0398 -0.5959,2.1158 -0.1806,0.8017 -0.5343,1.3505 -1.1194,1.5562 v 0.0326 c 0.8016,0.2744 1.4406,0.9497 1.4406,1.9571 0,0.6066 -0.2274,1.1302 -0.6066,1.4732 -0.4695,0.4223 -1.1662,0.6281 -2.2278,0.6281 -0.6752,0 -1.4082,-0.0686 -1.91,-0.1587 z m 0.993,6.9072 c 0.1732,0.0471 0.5054,0.0794 0.9856,0.0794 1.0508,0 1.7728,-0.4331 1.7728,-1.4298 0,-0.881 -0.6752,-1.4624 -1.7402,-1.4624 h -1.0182 z m 8.2681,0.9389 c -2.058,0 -3.5674,-1.603 -3.5674,-4.051 0,-2.3324 1.419,-3.9212 3.4662,-3.9212 1.9641,0 3.5782,1.419 3.5782,4.0584 0,2.3 -1.3612,3.9138 -3.477,3.9138 z m -0.0323,-0.8124 c 1.6574,0 2.4587,-1.603 2.4587,-3.1448 0,-1.7512 -0.8917,-3.2026 -2.4732,-3.2026 -1.5777,0 -2.4695,1.4769 -2.4695,3.134 0,1.679 0.8232,3.2134 2.484,3.2134 z m 4.8021,-7.0121 c 0.3323,-0.0434 0.8558,-0.0904 1.5418,-0.0904 1.26,0 2.1302,0.2273 2.6538,0.7185 0.4008,0.3683 0.6644,0.8811 0.6644,1.5455 0,1.1446 -0.8594,1.7512 -1.5885,1.9208 v 0.036 c 0.798,0.2851 1.3034,0.9351 1.3034,1.6897 0,0.6066 -0.2529,1.0652 -0.6537,1.3612 -0.4694,0.39 -1.1083,0.5595 -2.105,0.5595 -0.686,0 -1.3827,-0.0686 -1.8162,-0.1698 z m 0.9927,6.9072 c 0.1625,0.036 0.4261,0.0686 0.881,0.0686 1.0075,0 1.6827,-0.3646 1.6827,-1.2566 0,-0.7438 -0.6174,-1.3034 -1.6574,-1.3034 h -0.9063 z m 0,-3.2352 h 0.8235 c 1.0868,0 1.993,-0.4476 1.993,-1.4876 0,-1.1194 -0.9496,-1.4984 -1.9785,-1.4984 -0.3575,0 -0.6319,0.0107 -0.8377,0.047 z m 8.3155,4.1525 c -2.058,0 -3.5674,-1.603 -3.5674,-4.051 0,-2.3324 1.419,-3.9212 3.4625,-3.9212 1.9678,0 3.5818,1.419 3.5818,4.0584 0,2.3 -1.3611,3.9138 -3.4769,3.9138 z m -0.0363,-0.8124 c 1.6608,0 2.4588,-1.603 2.4588,-3.1448 0,-1.7512 -0.8918,-3.2026 -2.4696,-3.2026 -1.5777,0 -2.4695,1.4769 -2.4695,3.134 0,1.679 0.8232,3.2134 2.4806,3.2134 z m 5.9828,-7.0337 h 1.0074 v 6.8602 h 2.3542 v 0.8484 h -5.7047 v -0.8484 h 2.3431 z m 7.3406,2.4228 0.8232,-2.4228 h 1.0652 l -2.6322,7.7089 -1.188,-3e-4 -2.6323,-7.7088 1.0293,2e-4 0.8016,2.4228 z m -2.5274,0.7798 0.7546,2.2278 c 0.1624,0.4694 0.2744,0.9496 0.39,1.3972 l 0.0216,3e-4 c 0.1156,-0.4476 0.231,-0.9063 0.4008,-1.4083 l 0.7654,-2.217 z m 1.6572,6.2535 -1.0616,-1.3359 0.8124,3e-4 1.4624,1.3359 z m 3.8888,-9.4561 h 0.9964 v 3.3398 h 0.9351 c 0.9063,-0.036 1.3286,-0.4368 1.5563,-1.4984 0.2057,-0.9603 0.3789,-1.614 0.5054,-1.8414 h 1.0289 c -0.1624,0.296 -0.3429,1.0398 -0.5958,2.1158 -0.1842,0.8017 -0.538,1.3505 -1.1194,1.5562 v 0.0326 c 0.798,0.2744 1.4406,0.9497 1.4406,1.9571 0,0.6066 -0.2311,1.1302 -0.6066,1.4732 -0.4695,0.4223 -1.1662,0.6281 -2.2315,0.6281 -0.6752,0 -1.4045,-0.0686 -1.91,-0.1587 z m 0.9964,6.9072 c 0.1698,0.0471 0.502,0.0794 0.9822,0.0794 1.0508,0 1.7728,-0.4331 1.7728,-1.4298 0,-0.881 -0.6752,-1.4624 -1.7368,-1.4624 h -1.0182 z m 6.0948,-6.9072 v 3.2931 c 0,1.2818 -0.0108,2.2062 -0.0686,3.181 l 0.0326,0.0108 c 0.3789,-0.8377 0.8917,-1.715 1.4297,-2.5745 l 2.448,-3.9104 h 1.0075 v 7.7089 l -0.9389,-3e-4 v -3.2278 c 0,-1.1988 0.0216,-2.1376 0.1157,-3.1666 l -0.036,-0.0108 c -0.3538,0.7909 -0.8124,1.5996 -1.372,2.5058 l -2.4587,3.8994 h -1.0982 v -7.7088 z m 10.5647,2.4228 0.8232,-2.4228 h 1.0652 l -2.6322,7.7089 -1.188,-3e-4 -2.6286,-7.7088 1.0293,2e-4 0.7979,2.4228 z m -2.5274,0.7798 0.7546,2.2278 c 0.1624,0.4694 0.2744,0.9496 0.39,1.3972 l 0.0216,3e-4 c 0.1156,-0.4476 0.231,-0.9063 0.4008,-1.4083 l 0.7654,-2.217 z"
           style="fill:#000000;fill-opacity:1;fill-rule:nonzero;stroke:none"
           id="path1118" /></g><g
         id="g1120"><path
           d="m 80.6596,103.811 h 3.2422 c 1.4191,0 2.3794,-0.8558 2.3794,-2.1121 0,-0.9389 -0.574,-1.6575 -1.4695,-1.9605 l 1.5923,-3.069 -1.1843,-3e-4 -1.4803,2.9318 h -2.0112 v -2.9318 h -1.0723 z m 1.0686,-0.9389 v -2.3865 l 2.0835,-2e-4 c 0.8376,0 1.3864,0.4801 1.3864,1.1914 0,0.7149 -0.5488,1.195 -1.3864,1.195 z"
           style="fill:#000000;fill-opacity:1;fill-rule:nonzero;stroke:none"
           id="path1122" /><path
           d="m 89.4441,96.5752 c -0.722,-0.0144 -1.419,0.2637 -1.9318,0.7728 -0.5128,0.5054 -0.7979,1.1987 -0.7943,1.9173 0,1.5021 1.1484,2.679 2.6034,2.679 1.4261,0 2.5095,-1.1843 2.5095,-2.7116 v -0.2959 l -4.1017,-3e-4 c 0.1301,-0.8665 0.881,-1.5021 1.7546,-1.4913 0.4802,-0.0074 0.9459,0.1553 1.3142,0.4586 l 0.6533,-0.6355 c -0.5669,-0.462 -1.2781,-0.7078 -2.0075,-0.6933 z m -1.7042,3.1233 h 3.0799 c -0.1517,0.7979 -0.7654,1.3901 -1.52,1.3901 -0.7871,0 -1.4082,-0.5633 -1.5599,-1.3901"
           style="fill:#000000;fill-opacity:1;fill-rule:nonzero;stroke:none"
           id="path1124" /><path
           d="m 96.7992,97.16 c -0.4476,-0.3756 -1.0109,-0.5777 -1.5922,-0.574 -1.4695,0 -2.6212,1.1736 -2.6212,2.679 -0.0145,1.0038 0.538,1.9319 1.4298,2.3902 0.8917,0.4587 1.9678,0.3719 2.7765,-0.2202 v 2.3757 l 1.0219,0.2239 v -7.3655 h -1.0114 z m -1.4516,0.3141 c 0.5487,-0.0108 1.076,0.2166 1.4405,0.6248 v 2.3541 c -0.3682,0.4009 -0.8954,0.6248 -1.4405,0.6137 -0.4731,0.007 -0.9281,-0.1805 -1.26,-0.5161 -0.3359,-0.336 -0.5162,-0.7943 -0.5021,-1.2711 -0.0144,-0.4731 0.1662,-0.9352 0.4984,-1.2745 0.3322,-0.343 0.7908,-0.5306 1.2637,-0.5306 m 0,-3e-4 z"
           style="fill:#000000;fill-opacity:1;fill-rule:nonzero;stroke:none"
           id="path1126" /><path
           d="m 101.2654,103.811 h 1.0724 v -3.0617 l 3.7947,-3e-4 v 3.0617 l 1.0724,3e-4 v -7.1419 h -1.0724 v 3.1124 h -3.7947 v -3.1124 h -1.0724 z"
           style="fill:#000000;fill-opacity:1;fill-rule:nonzero;stroke:none"
           id="path1128" /><path
           d="m 108.1726,98.1601 c 0,0.9785 0.798,1.5778 2.1014,1.5778 0.4875,0.0036 0.9711,-0.0939 1.4227,-0.2852 v 0.5525 c 0,0.733 -0.4405,1.1012 -1.2674,1.1012 -0.4802,0 -0.9678,-0.1264 -1.6104,-0.4368 l -0.3826,0.7654 c 0.7764,0.3645 1.4479,0.5272 2.1339,0.5272 1.343,0 2.1194,-0.6608 2.1194,-1.8558 v -3.441 h -0.9929 v 0.4513 c -0.4587,-0.3646 -1.029,-0.5596 -1.6141,-0.5417 -1.1338,0 -1.91,0.6463 -1.91,1.5851 z m 2.1447,-0.8266 c 0.502,-0.0181 0.9967,0.1554 1.3794,0.4876 v 0.8954 c -0.4116,0.2166 -0.8737,0.3249 -1.336,0.3141 -0.7475,0 -1.2059,-0.3359 -1.2059,-0.8558 0,-0.4946 0.4658,-0.8413 1.1625,-0.8413"
           style="fill:#000000;fill-opacity:1;fill-rule:nonzero;stroke:none"
           id="path1130" /><path
           d="m 114.336,101.0055 h -1.1013 v 0.8558 l 1.1013,-3e-4 v 1.3286 l 1.0108,0.2418 v -1.5707 l 1.5273,3e-4 v -0.8558 l -1.5273,3e-4 v -2.8162 c 0,-0.5307 0.2129,-0.7257 0.762,-0.7257 0.2562,-0.0037 0.5091,0.0397 0.7475,0.1301 v -0.8594 c -0.3141,-0.0975 -0.6426,-0.148 -0.9712,-0.1517 -1.0108,0 -1.5488,0.4802 -1.5488,1.3757 z"
           style="fill:#000000;fill-opacity:1;fill-rule:nonzero;stroke:none"
           id="path1132" /><path
           d="m 80.5802,93.098 h 3.4877 c 1.448,0 2.4696,-0.9063 2.4696,-2.2133 0,-0.9062 -0.5525,-1.6571 -1.4046,-1.9894 l 1.5815,-2.9318 h -1.6572 l -1.4009,2.7331 h -1.5995 v -2.7331 h -1.4766 z m 1.4802,-1.2745 v -1.9136 h 1.874 c 0.6645,0 1.1013,0.3826 1.1013,0.9603 0,0.5741 -0.4368,0.9567 -1.1013,0.9567 z"
           style="fill:#000000;fill-opacity:1;fill-rule:nonzero;stroke:none"
           id="path1134" /><path
           d="m 89.7185,85.8552 c -1.614,0 -2.8559,1.2024 -2.8559,2.755 -0.0108,0.7293 0.2707,1.4335 0.7872,1.9533 0.5128,0.5162 1.2169,0.8051 1.9463,0.8017 1.5091,0 2.6322,-1.224 2.6322,-2.8559 V 88.141 l -3.954,-2e-4 c 0.1913,-0.6716 0.8124,-1.1302 1.5091,-1.1121 0.4332,-0.0144 0.8521,0.1409 1.1736,0.4298 l 0.917,-0.8377 C 91.2747,86.108 90.5054,85.8336 89.7185,85.8555 Z m -1.4587,3.2856 h 2.5997 c -0.1732,0.6355 -0.6823,1.0687 -1.2963,1.0687 -0.6392,0 -1.1302,-0.4153 -1.3034,-1.0687"
           style="fill:#000000;fill-opacity:1;fill-rule:nonzero;stroke:none"
           id="path1136" /><path
           d="m 93.3797,87.5197 c 0.6248,-0.4079 1.1625,-0.6029 1.7261,-0.6029 0.621,0 1.0289,0.2239 1.0289,0.5632 0,0.2744 -0.2021,0.426 -0.6644,0.4983 l -1.0182,0.1554 c -1.0508,0.1624 -1.6141,0.6823 -1.6141,1.538 0,1.029 0.8595,1.6827 2.217,1.6827 0.7764,0 1.5344,-0.231 2.1807,-0.6608 l -0.6715,-0.8954 c -0.5811,0.3464 -1.1047,0.5125 -1.6427,0.5125 -0.5091,0 -0.8376,-0.2058 -0.8376,-0.5199 0,-0.2852 0.2058,-0.4297 0.7256,-0.502 l 1.0182,-0.1517 c 1.0435,-0.1553 1.6249,-0.6933 1.6249,-1.5199 0,-1.0001 -0.9893,-1.7546 -2.329,-1.7546 -0.9677,0 -1.8343,0.2528 -2.4372,0.733 z"
           style="fill:#000000;fill-opacity:1;fill-rule:nonzero;stroke:none"
           id="path1138" /><path
           d="m 100.8068,85.8552 c -1.6104,0 -2.8559,1.2024 -2.8559,2.755 -0.0108,0.7293 0.2744,1.4335 0.7872,1.9533 0.5162,0.5162 1.2169,0.8051 1.9462,0.8017 1.5092,0 2.6323,-1.224 2.6323,-2.8559 V 88.141 l -3.954,-2e-4 c 0.1913,-0.6716 0.8124,-1.1302 1.5128,-1.1121 0.4297,-0.0144 0.8521,0.1409 1.1699,0.4298 l 0.9207,-0.8377 c -0.5993,-0.5128 -1.3686,-0.7872 -2.1592,-0.7653 z m -1.4587,3.2856 h 2.6033 c -0.1732,0.6355 -0.686,1.0687 -1.2963,1.0687 -0.6426,0 -1.1338,-0.4153 -1.307,-1.0687"
           style="fill:#000000;fill-opacity:1;fill-rule:nonzero;stroke:none"
           id="path1140" /><path
           d="m 103.8977,87.4981 c 0,1.0109 0.8161,1.6104 2.1844,1.6104 0.4405,0 0.8773,-0.0686 1.2963,-0.2021 v 0.3827 c 0,0.6103 -0.3827,0.928 -1.1228,0.928 -0.4476,0 -0.9496,-0.1442 -1.6212,-0.4405 l -0.5128,1.0327 c 0.7365,0.3611 1.5489,0.5596 2.3687,0.5706 1.4371,0 2.2637,-0.7149 2.2637,-1.9678 v -3.4447 l -1.3756,-3e-4 v 0.3683 c -0.4513,-0.3178 -0.993,-0.4765 -1.5418,-0.4587 -1.1409,-0.0144 -1.9389,0.65 -1.9389,1.6212 z m 2.3071,-0.6392 c 0.4153,-0.0107 0.8269,0.1046 1.1736,0.3393 v 0.7943 c -0.3612,0.1335 -0.7402,0.1987 -1.1228,0.195 -0.6393,0 -1.0219,-0.2562 -1.0219,-0.6644 0,-0.4079 0.379,-0.6571 0.9711,-0.6571 z"
           style="fill:#000000;fill-opacity:1;fill-rule:nonzero;stroke:none"
           id="path1142" /><path
           d="m 109.8153,91.2711 h 1.4046 v -0.5814 c 0.3248,0.4549 0.8558,0.7186 1.4153,0.7041 0.2021,0.0074 0.4045,-0.036 0.5814,-0.1264 v -1.224 c -0.2239,0.0938 -0.4657,0.1443 -0.7112,0.1409 -0.5488,0.0107 -1.0508,-0.2997 -1.2855,-0.7943 v -3.4447 h -1.4046 z"
           style="fill:#000000;fill-opacity:1;fill-rule:nonzero;stroke:none"
           id="path1144" /><path
           d="m 117.5783,87.6713 0.8376,-0.8665 c -0.5596,-0.6066 -1.343,-0.9496 -2.1662,-0.9496 -0.7331,0 -1.4335,0.2888 -1.9534,0.8087 -0.5162,0.5162 -0.8087,1.2203 -0.8087,1.9497 0,0.733 0.2925,1.4335 0.8087,1.9533 0.5199,0.5162 1.2203,0.8088 1.9534,0.8088 0.8339,0.0036 1.6356,-0.3394 2.2062,-0.9497 l -0.8595,-0.9099 c -0.3827,0.4298 -0.8161,0.6392 -1.3141,0.6392 -0.8051,0 -1.4298,-0.6752 -1.4298,-1.5525 0,-0.8736 0.6392,-1.5273 1.4587,-1.5273 0.4909,0 0.9567,0.2166 1.2674,0.5958 m -3e-4,0 z"
           style="fill:#000000;fill-opacity:1;fill-rule:nonzero;stroke:none"
           id="path1146" /><path
           d="m 119.1416,93.098 1.4009,0.307 v -2.5492 c 0.4152,0.343 0.9422,0.5272 1.4839,0.5199 1.2348,0 2.1013,-0.8666 2.1013,-2.1121 v -3.3075 l -1.4043,3e-4 v 3.1016 c 0,0.6753 -0.4297,1.1121 -1.1012,1.1121 -0.4298,0.0181 -0.8413,-0.1806 -1.0905,-0.5307 v -3.6827 l -1.4046,-3e-4 z"
           style="fill:#000000;fill-opacity:1;fill-rule:nonzero;stroke:none"
           id="path1148" /><path
           d="m 56.4792,93.2281 c 1.5922,0 3.903,0.3285 3.903,2.2241 0.0037,0.1479 -0.0108,0.2959 -0.0397,0.4368 l -0.9567,4.1269 c -0.2202,0.91 -0.4116,1.3215 -2.0038,2.1158 -1.2384,0.6392 -3.9319,1.679 -4.7299,1.679 -0.7401,0 -0.9604,-0.9604 -1.8414,-0.9604 -0.8521,0 -1.4839,0.7112 -2.2818,0.7112 -0.7654,0 -1.2637,-0.5199 -1.6501,-1.5922 0,0 -1.0723,-3.0257 -1.2095,-3.4625 -0.0216,-0.0831 -0.0326,-0.1661 -0.029,-0.2492 0,-1.1735 4.6287,-5.0295 10.8392,-5.0295 z m 4.1485,1.455 c 0.2202,-1.0434 0.2202,-1.1554 0.2202,-1.2926 0,-1.7835 -2.0075,-2.7765 -4.6468,-2.7765 -5.9647,0 -11.1858,3.4914 -11.1858,5.8022 0,0.3215 0.0649,0.6392 0.1913,0.9352 -2.1483,-0.112 -4.9249,-0.4947 -4.9249,-2.9464 0,-4.015 9.5106,-8.9614 17.0459,-8.9614 5.7699,0 7.2283,2.6104 7.2283,4.6721 0,1.6285 -1.4008,3.4698 -3.9319,4.5674 z"
           style="fill:#000000;fill-opacity:1;fill-rule:nonzero;stroke:none"
           id="path1150" /><path
           d="m 72.6043,84.4903 c -0.1553,0 -0.2851,0.1301 -0.2851,0.2888 v 19.6708 c 0,0.379 0.574,0.379 0.574,0 V 84.7791 c 0,-0.1587 -0.1301,-0.2888 -0.2889,-0.2888"
           style="fill:#000000;fill-opacity:1;fill-rule:nonzero;stroke:none"
           id="path1152" /></g></g></g></svg>
