<?xml version="1.0" encoding="UTF-8" standalone="no"?>
<!-- Created with Inkscape (http://www.inkscape.org/) -->

<svg
   width="99.999626mm"
   height="99.999619mm"
   viewBox="0 0 99.999627 99.999618"
   version="1.1"
   id="svg5"
   xml:space="preserve"
   inkscape:export-filename="..\..\..\..\..\Users\tomto\bitmapa.png"
   inkscape:export-xdpi="1000"
   inkscape:export-ydpi="1000"
   inkscape:version="1.3.2 (091e20e, 2023-11-25, custom)"
   sodipodi:docname="RH-logo.svg"
   xmlns:inkscape="http://www.inkscape.org/namespaces/inkscape"
   xmlns:sodipodi="http://sodipodi.sourceforge.net/DTD/sodipodi-0.dtd"
   xmlns="http://www.w3.org/2000/svg"
   xmlns:svg="http://www.w3.org/2000/svg"><sodipodi:namedview
     id="namedview7"
     pagecolor="#ffffff"
     bordercolor="#000000"
     borderopacity="0.25"
     inkscape:showpageshadow="2"
     inkscape:pageopacity="0.0"
     inkscape:pagecheckerboard="0"
     inkscape:deskcolor="#d1d1d1"
     inkscape:document-units="mm"
     showgrid="false"
     inkscape:zoom="3.5705387"
     inkscape:cx="168.88208"
     inkscape:cy="162.02037"
     inkscape:window-width="2560"
     inkscape:window-height="1369"
     inkscape:window-x="2552"
     inkscape:window-y="-8"
     inkscape:window-maximized="1"
     inkscape:current-layer="g1056" /><defs
     id="defs2"><rect
       x="336.64388"
       y="272.78797"
       width="336.64388"
       height="235.81876"
       id="rect51" /></defs><g
     inkscape:label="Vrstva 1"
     inkscape:groupmode="layer"
     id="layer1"
     transform="translate(-41.629159,-54.002725)"><g
       id="g1056"
       inkscape:label="2023-06-01 logic backside"
       transform="matrix(0.40386441,0,0,-0.40386441,34.529204,161.75862)"
       style="fill:#333333"><g
         id="g1114"
         transform="translate(-59.876489,41.776691)"
         style="fill:#000000;fill-opacity:1"><path
           d="m 168.9489,104.222 c -5.3076,0 -9.612,-4.3039 -9.612,-9.6078 0,-5.3076 4.3044,-9.612 9.612,-9.612 5.3075,0 9.608,4.3044 9.608,9.612 0,5.3039 -4.3002,9.6078 -9.608,9.6078 z m -0.4726,-2.6592 c 0.5375,0.002 1.2776,-0.0244 1.4936,-0.0244 0.2673,0 0.0978,-1.6211 0.2531,-1.6574 0.7041,-0.1732 1.3541,-0.4901 1.9174,-0.9125 0.1301,-0.1012 1.3436,1.0177 1.4663,0.906 0.4079,-0.3719 1.0786,-1.2209 1.3567,-1.7048 0.0794,-0.1443 -1.256,-1.1007 -1.1874,-1.2523 0.2996,-0.6645 0.4657,-1.311 0.4657,-2.0838 0,-0.0867 1.5639,-0.3818 1.5531,-0.566 -0.0289,-0.5273 -0.2897,-1.4984 -0.4632,-1.9715 -0.0723,-0.1951 -1.567,0.2409 -1.6574,0.0569 -0.3141,-0.6173 -0.5335,-1.1188 -1.0533,-1.5667 -0.1588,-0.1372 0.7253,-1.4221 0.6457,-1.4799 -0.4442,-0.3215 -1.571,-0.9899 -2.1056,-1.1631 -0.1913,-0.0615 -0.7872,1.4587 -0.9856,1.419 -0.3359,-0.0649 -0.862,-0.1083 -1.2158,-0.1083 -0.3359,0 -0.6653,0.0292 -0.983,0.0908 -0.1554,0.0289 -0.7935,-1.5021 -0.9451,-1.4624 -0.5885,0.1698 -1.7629,0.7718 -2.2504,1.1182 -0.0975,0.0723 0.8345,1.4448 0.7407,1.5205 -0.5633,0.4658 -0.942,0.9718 -1.2742,1.6288 -0.0578,0.1157 -1.7079,-0.2574 -1.7547,-0.138 -0.2202,0.5198 -0.3109,1.4669 -0.3506,2.0554 -0.007,0.1227 1.5381,0.3503 1.5381,0.4765 0,0.7764 0.1661,1.5128 0.4657,2.1773 0.0505,0.1156 -1.2209,1.1182 -1.163,1.2268 0.3069,0.5669 0.8957,1.2682 1.3796,1.6872 0.1083,0.0975 1.3717,-0.8992 1.4907,-0.8124 0.5451,0.3971 1.167,0.6896 1.8389,0.8558 0.1156,0.0289 0.1258,1.6418 0.2451,1.6599 0.0925,0.017 0.2946,0.0236 0.5389,0.0244 z m 0.5485,-5.9669 c -0.2455,0.0037 -0.4918,-0.1046 -0.6579,-0.2818 -0.1732,-0.1732 -0.2636,-0.4184 -0.2492,-0.6568 0.0108,-0.2384 0.1123,-0.4663 0.275,-0.6324 0.1624,-0.1698 0.3903,-0.2852 0.6324,-0.2925 0.2418,-0.0108 0.4907,0.0969 0.6457,0.2775 0.1588,0.1806 0.2342,0.4198 0.2342,0.6471 0,0.2274 -0.0754,0.4655 -0.2342,0.6458 -0.1553,0.1842 -0.4002,0.2925 -0.6457,0.2925 z"
           style="fill:#000000;fill-opacity:1;fill-rule:nonzero;stroke:none"
           id="path1116" /><path
           d="m 183.994,91.2197 h 0.993 v 3.3398 h 0.9385 c 0.9026,-0.036 1.3252,-0.4368 1.5563,-1.4984 0.2058,-0.9603 0.3756,-1.614 0.502,-1.8414 h 1.029 c -0.1588,0.296 -0.343,1.0398 -0.5959,2.1158 -0.1806,0.8017 -0.5343,1.3505 -1.1194,1.5562 v 0.0326 c 0.8016,0.2744 1.4406,0.9497 1.4406,1.9571 0,0.6066 -0.2274,1.1302 -0.6066,1.4732 -0.4695,0.4223 -1.1662,0.6281 -2.2278,0.6281 -0.6752,0 -1.4082,-0.0686 -1.91,-0.1587 z m 0.993,6.9072 c 0.1732,0.0471 0.5054,0.0794 0.9856,0.0794 1.0508,0 1.7728,-0.4331 1.7728,-1.4298 0,-0.881 -0.6752,-1.4624 -1.7402,-1.4624 h -1.0182 z m 8.2681,0.9389 c -2.058,0 -3.5674,-1.603 -3.5674,-4.051 0,-2.3324 1.419,-3.9212 3.4662,-3.9212 1.9641,0 3.5782,1.419 3.5782,4.0584 0,2.3 -1.3612,3.9138 -3.477,3.9138 z m -0.0323,-0.8124 c 1.6574,0 2.4587,-1.603 2.4587,-3.1448 0,-1.7512 -0.8917,-3.2026 -2.4732,-3.2026 -1.5777,0 -2.4695,1.4769 -2.4695,3.134 0,1.679 0.8232,3.2134 2.484,3.2134 z m 4.8021,-7.0121 c 0.3323,-0.0434 0.8558,-0.0904 1.5418,-0.0904 1.26,0 2.1302,0.2273 2.6538,0.7185 0.4008,0.3683 0.6644,0.8811 0.6644,1.5455 0,1.1446 -0.8594,1.7512 -1.5885,1.9208 v 0.036 c 0.798,0.2851 1.3034,0.9351 1.3034,1.6897 0,0.6066 -0.2529,1.0652 -0.6537,1.3612 -0.4694,0.39 -1.1083,0.5595 -2.105,0.5595 -0.686,0 -1.3827,-0.0686 -1.8162,-0.1698 z m 0.9927,6.9072 c 0.1625,0.036 0.4261,0.0686 0.881,0.0686 1.0075,0 1.6827,-0.3646 1.6827,-1.2566 0,-0.7438 -0.6174,-1.3034 -1.6574,-1.3034 h -0.9063 z m 0,-3.2352 h 0.8235 c 1.0868,0 1.993,-0.4476 1.993,-1.4876 0,-1.1194 -0.9496,-1.4984 -1.9785,-1.4984 -0.3575,0 -0.6319,0.0107 -0.8377,0.047 z m 8.3155,4.1525 c -2.058,0 -3.5674,-1.603 -3.5674,-4.051 0,-2.3324 1.419,-3.9212 3.4625,-3.9212 1.9678,0 3.5818,1.419 3.5818,4.0584 0,2.3 -1.3611,3.9138 -3.4769,3.9138 z m -0.0363,-0.8124 c 1.6608,0 2.4588,-1.603 2.4588,-3.1448 0,-1.7512 -0.8918,-3.2026 -2.4696,-3.2026 -1.5777,0 -2.4695,1.4769 -2.4695,3.134 0,1.679 0.8232,3.2134 2.4806,3.2134 z m 5.9828,-7.0337 h 1.0074 v 6.8602 h 2.3542 v 0.8484 h -5.7047 v -0.8484 h 2.3431 z m 7.3406,2.4228 0.8232,-2.4228 h 1.0652 l -2.6322,7.7089 -1.188,-3e-4 -2.6323,-7.7088 1.0293,2e-4 0.8016,2.4228 z m -2.5274,0.7798 0.7546,2.2278 c 0.1624,0.4694 0.2744,0.9496 0.39,1.3972 l 0.0216,3e-4 c 0.1156,-0.4476 0.231,-0.9063 0.4008,-1.4083 l 0.7654,-2.217 z m 1.6572,6.2535 -1.0616,-1.3359 0.8124,3e-4 1.4624,1.3359 z m 3.8888,-9.4561 h 0.9964 v 3.3398 h 0.9351 c 0.9063,-0.036 1.3286,-0.4368 1.5563,-1.4984 0.2057,-0.9603 0.3789,-1.614 0.5054,-1.8414 h 1.0289 c -0.1624,0.296 -0.3429,1.0398 -0.5958,2.1158 -0.1842,0.8017 -0.538,1.3505 -1.1194,1.5562 v 0.0326 c 0.798,0.2744 1.4406,0.9497 1.4406,1.9571 0,0.6066 -0.2311,1.1302 -0.6066,1.4732 -0.4695,0.4223 -1.1662,0.6281 -2.2315,0.6281 -0.6752,0 -1.4045,-0.0686 -1.91,-0.1587 z m 0.9964,6.9072 c 0.1698,0.0471 0.502,0.0794 0.9822,0.0794 1.0508,0 1.7728,-0.4331 1.7728,-1.4298 0,-0.881 -0.6752,-1.4624 -1.7368,-1.4624 h -1.0182 z m 6.0948,-6.9072 v 3.2931 c 0,1.2818 -0.0108,2.2062 -0.0686,3.181 l 0.0326,0.0108 c 0.3789,-0.8377 0.8917,-1.715 1.4297,-2.5745 l 2.448,-3.9104 h 1.0075 v 7.7089 l -0.9389,-3e-4 v -3.2278 c 0,-1.1988 0.0216,-2.1376 0.1157,-3.1666 l -0.036,-0.0108 c -0.3538,0.7909 -0.8124,1.5996 -1.372,2.5058 l -2.4587,3.8994 h -1.0982 v -7.7088 z m 10.5647,2.4228 0.8232,-2.4228 h 1.0652 l -2.6322,7.7089 -1.188,-3e-4 -2.6286,-7.7088 1.0293,2e-4 0.7979,2.4228 z m -2.5274,0.7798 0.7546,2.2278 c 0.1624,0.4694 0.2744,0.9496 0.39,1.3972 l 0.0216,3e-4 c 0.1156,-0.4476 0.231,-0.9063 0.4008,-1.4083 l 0.7654,-2.217 z"
           style="fill:#000000;fill-opacity:1;fill-rule:nonzero;stroke:none"
           id="path1118" /></g><path
         d="m 100.26949,-162.90288 h -0.801846 v -6.63659 h 0.801846 z m 5.31951,-2.37996 q 0,1.16439 -0.59712,1.83829 -0.59712,0.67389 -1.59943,0.67389 -1.01085,0 -1.60797,-0.67389 -0.59286,-0.6739 -0.59286,-1.83829 0,-1.16439 0.59286,-1.83828 0.59712,-0.67816 1.60797,-0.67816 1.00231,0 1.59943,0.67816 0.59712,0.67389 0.59712,1.83828 z m -0.82744,0 q 0,-0.92554 -0.36254,-1.37338 -0.36254,-0.45211 -1.00657,-0.45211 -0.65257,0 -1.01511,0.45211 -0.35828,0.44784 -0.35828,1.37338 0,0.89569 0.36254,1.36059 0.36254,0.46064 1.01085,0.46064 0.63977,0 1.00231,-0.45638 0.3668,-0.46063 0.3668,-1.36485 z m 5.60528,1.83829 q 0,1.2113 -0.55021,1.77857 -0.55021,0.56727 -1.69327,0.56727 -0.3796,0 -0.74214,-0.0554 -0.35827,-0.0512 -0.70801,-0.14928 v -0.81891 h 0.0427 q 0.1962,0.0768 0.62271,0.18766 0.42652,0.11516 0.85303,0.11516 0.40946,0 0.67816,-0.0981 0.26871,-0.0981 0.41799,-0.27297 0.14928,-0.16634 0.21326,-0.40092 0.064,-0.23458 0.064,-0.52462 v -0.43504 q -0.36254,0.29003 -0.69523,0.43504 -0.32841,0.14075 -0.84023,0.14075 -0.85303,0 -1.35632,-0.61418 -0.49903,-0.61845 -0.49903,-1.74018 0,-0.61419 0.17061,-1.05776 0.17487,-0.44785 0.47343,-0.772 0.27724,-0.30283 0.6739,-0.46917 0.39666,-0.1706 0.78905,-0.1706 0.41372,0 0.69096,0.0853 0.2815,0.081 0.59286,0.25164 l 0.0512,-0.20472 h 0.75067 z m -0.80185,-0.76773 v -2.59749 q -0.31989,-0.14501 -0.59713,-0.20472 -0.27297,-0.064 -0.54594,-0.064 -0.6611,0 -1.0407,0.44358 -0.3796,0.44357 -0.3796,1.28807 0,0.80186 0.2815,1.21558 0.2815,0.41372 0.93407,0.41372 0.34975,0 0.69949,-0.13222 0.35401,-0.13649 0.64831,-0.36254 z m 2.91395,-4.25237 h -0.90421 v -0.8317 h 0.90421 z m -0.0512,5.56177 h -0.80185 v -4.76418 h 0.80185 z m 4.7821,-0.29856 q -0.40093,0.19193 -0.76346,0.29856 -0.35828,0.10663 -0.76347,0.10663 -0.51608,0 -0.94686,-0.14928 -0.43079,-0.15355 -0.73788,-0.46064 -0.31135,-0.30709 -0.48196,-0.77626 -0.17061,-0.46916 -0.17061,-1.09614 0,-1.16866 0.63978,-1.83402 0.64404,-0.66537 1.69753,-0.66537 0.40946,0 0.80185,0.11516 0.39666,0.11516 0.72508,0.2815 v 0.89142 h -0.0427 q -0.36681,-0.28576 -0.7592,-0.43931 -0.38813,-0.15355 -0.7592,-0.15355 -0.68243,0 -1.07909,0.46064 -0.39239,0.45637 -0.39239,1.34353 0,0.86156 0.38386,1.32646 0.38813,0.46064 1.08762,0.46064 0.24311,0 0.49476,-0.064 0.25164,-0.064 0.45211,-0.16634 0.17487,-0.0896 0.32841,-0.18767 0.15355,-0.10236 0.24312,-0.17487 h 0.0427 z m 2.00974,0.29856 h -1.01937 v -1.21557 h 1.01937 z m 4.51339,-3.88982 h -0.0426 q -0.17913,-0.0427 -0.34974,-0.0597 -0.16634,-0.0213 -0.39666,-0.0213 -0.37107,0 -0.71655,0.16634 -0.34548,0.16207 -0.66536,0.42225 v 3.38227 h -0.80185 v -4.76418 h 0.80185 v 0.70375 q 0.4777,-0.38387 0.84023,-0.54168 0.36681,-0.16207 0.74641,-0.16207 0.20899,0 0.30282,0.0128 0.0938,0.009 0.2815,0.0384 z m 4.48781,1.50986 q 0,1.16439 -0.59712,1.83829 -0.59713,0.67389 -1.59944,0.67389 -1.01084,0 -1.60797,-0.67389 -0.59285,-0.6739 -0.59285,-1.83829 0,-1.16439 0.59285,-1.83828 0.59713,-0.67816 1.60797,-0.67816 1.00231,0 1.59944,0.67816 0.59712,0.67389 0.59712,1.83828 z m -0.82744,0 q 0,-0.92554 -0.36254,-1.37338 -0.36254,-0.45211 -1.00658,-0.45211 -0.65257,0 -1.01511,0.45211 -0.35827,0.44784 -0.35827,1.37338 0,0.89569 0.36254,1.36059 0.36254,0.46064 1.01084,0.46064 0.63977,0 1.00231,-0.45638 0.36681,-0.46063 0.36681,-1.36485 z m 5.93369,-0.0384 q 0,0.59712 -0.17061,1.07482 -0.16634,0.47769 -0.45211,0.80185 -0.30282,0.33694 -0.66536,0.50755 -0.36254,0.16634 -0.79759,0.16634 -0.40519,0 -0.70801,-0.0981 -0.30283,-0.0938 -0.59713,-0.25591 l -0.0512,0.22179 h -0.75067 v -6.63659 h 0.80185 v 2.37143 q 0.33695,-0.27723 0.71655,-0.45211 0.3796,-0.17913 0.85303,-0.17913 0.84451,0 1.33073,0.6483 0.4905,0.64831 0.4905,1.82976 z m -0.82744,0.0213 q 0,-0.85303 -0.2815,-1.29234 -0.28151,-0.44358 -0.90848,-0.44358 -0.34975,0 -0.70802,0.15355 -0.35827,0.14928 -0.66537,0.38813 v 2.7297 q 0.34122,0.15355 0.58433,0.21326 0.24738,0.0597 0.55874,0.0597 0.66536,0 1.0407,-0.43505 0.3796,-0.43931 0.3796,-1.37338 z m 5.81,0.0171 q 0,1.16439 -0.59712,1.83829 -0.59713,0.67389 -1.59944,0.67389 -1.01084,0 -1.60796,-0.67389 -0.59286,-0.6739 -0.59286,-1.83829 0,-1.16439 0.59286,-1.83828 0.59712,-0.67816 1.60796,-0.67816 1.00231,0 1.59944,0.67816 0.59712,0.67389 0.59712,1.83828 z m -0.82744,0 q 0,-0.92554 -0.36254,-1.37338 -0.36254,-0.45211 -1.00658,-0.45211 -0.65257,0 -1.01511,0.45211 -0.35827,0.44784 -0.35827,1.37338 0,0.89569 0.36254,1.36059 0.36254,0.46064 1.01084,0.46064 0.63978,0 1.00231,-0.45638 0.36681,-0.46063 0.36681,-1.36485 z m 4.21483,2.33731 q -0.22605,0.0597 -0.49476,0.0981 -0.26444,0.0384 -0.47343,0.0384 -0.72935,0 -1.10894,-0.3924 -0.3796,-0.39239 -0.3796,-1.25822 v -2.53351 h -0.54168 v -0.67389 h 0.54168 v -1.36912 h 0.80185 v 1.36912 h 1.65488 v 0.67389 h -1.65488 v 2.17097 q 0,0.37533 0.0171,0.58859 0.0171,0.20899 0.11942,0.3924 0.0938,0.1706 0.25591,0.25164 0.16634,0.0768 0.50329,0.0768 0.1962,0 0.40946,-0.0554 0.21325,-0.0597 0.30709,-0.0981 h 0.0427 z m 1.50219,-5.51912 h -0.90422 v -0.8317 h 0.90422 z m -0.0512,5.56177 h -0.80185 v -4.76418 h 0.80185 z m 5.58396,0 h -1.05776 l -1.9108,-2.08566 -0.52035,0.49476 v 1.5909 h -0.80185 v -6.63659 h 0.80185 v 4.25663 l 2.31599,-2.38422 h 1.01084 l -2.21362,2.20082 z m 4.21909,0 h -0.79759 v -0.50755 q -0.10662,0.0725 -0.29003,0.20473 -0.17913,0.12795 -0.34974,0.20472 -0.20046,0.0981 -0.46064,0.16208 -0.26017,0.0682 -0.60991,0.0682 -0.64404,0 -1.09189,-0.42651 -0.44784,-0.42652 -0.44784,-1.08762 0,-0.54168 0.23032,-0.87436 0.23458,-0.33695 0.66537,-0.52888 0.43504,-0.19193 1.04496,-0.26017 0.60992,-0.0682 1.3094,-0.10237 v -0.12369 q 0,-0.27297 -0.0981,-0.4521 -0.0938,-0.17914 -0.27297,-0.2815 -0.17061,-0.0981 -0.40946,-0.13222 -0.23885,-0.0341 -0.49902,-0.0341 -0.31563,0 -0.70376,0.0853 -0.38812,0.081 -0.80185,0.23885 h -0.0427 v -0.81465 q 0.23459,-0.064 0.67816,-0.14075 0.44358,-0.0768 0.87436,-0.0768 0.50329,0 0.87436,0.0853 0.37533,0.081 0.6483,0.2815 0.26871,0.1962 0.40946,0.50756 0.14075,0.31135 0.14075,0.77199 z m -0.79759,-1.17292 v -1.32646 q -0.3668,0.0213 -0.86582,0.064 -0.49476,0.0427 -0.78479,0.12368 -0.34548,0.0981 -0.55874,0.3071 -0.21326,0.20472 -0.21326,0.56726 0,0.40946 0.24738,0.61845 0.24738,0.20473 0.75494,0.20473 0.42225,0 0.77199,-0.16208 0.34974,-0.16634 0.6483,-0.39666 z m 6.20667,-1.24542 q 0,0.59712 -0.17061,1.07482 -0.16634,0.47769 -0.45211,0.80185 -0.30282,0.33694 -0.66536,0.50755 -0.36254,0.16634 -0.79759,0.16634 -0.40519,0 -0.70801,-0.0981 -0.30283,-0.0938 -0.59713,-0.25591 l -0.0512,0.22179 h -0.75067 v -6.63659 h 0.80185 v 2.37143 q 0.33695,-0.27723 0.71655,-0.45211 0.3796,-0.17913 0.85303,-0.17913 0.8445,0 1.33073,0.6483 0.4905,0.64831 0.4905,1.82976 z m -0.82744,0.0213 q 0,-0.85303 -0.28151,-1.29234 -0.2815,-0.44358 -0.90847,-0.44358 -0.34975,0 -0.70802,0.15355 -0.35828,0.14928 -0.66537,0.38813 v 2.7297 q 0.34122,0.15355 0.58433,0.21326 0.24738,0.0597 0.55874,0.0597 0.66536,0 1.0407,-0.43505 0.3796,-0.43931 0.3796,-1.37338 z m 4.72238,-1.4928 h -0.0426 q -0.17914,-0.0427 -0.34974,-0.0597 -0.16635,-0.0213 -0.39666,-0.0213 -0.37107,0 -0.71655,0.16634 -0.34548,0.16207 -0.66537,0.42225 v 3.38227 h -0.80185 v -4.76418 h 0.80185 v 0.70375 q 0.4777,-0.38387 0.84024,-0.54168 0.3668,-0.16207 0.7464,-0.16207 0.209,0 0.30283,0.0128 0.0938,0.009 0.2815,0.0384 z m 4.41103,3.88982 h -0.80185 v -2.71264 q 0,-0.32842 -0.0384,-0.61418 -0.0384,-0.29003 -0.14075,-0.45211 -0.10663,-0.17914 -0.3071,-0.26444 -0.20046,-0.0896 -0.52035,-0.0896 -0.32841,0 -0.68669,0.16208 -0.35827,0.16207 -0.68669,0.41372 v 3.55714 h -0.80185 v -4.76418 h 0.80185 v 0.52888 q 0.37534,-0.31136 0.77626,-0.48623 0.40093,-0.17487 0.82318,-0.17487 0.77199,0 1.17718,0.4649 0.40519,0.4649 0.40519,1.33926 z m 5.27686,-2.37996 q 0,1.16439 -0.59713,1.83829 -0.59712,0.67389 -1.59943,0.67389 -1.01085,0 -1.60797,-0.67389 -0.59286,-0.6739 -0.59286,-1.83829 0,-1.16439 0.59286,-1.83828 0.59712,-0.67816 1.60797,-0.67816 1.00231,0 1.59943,0.67816 0.59713,0.67389 0.59713,1.83828 z m -0.82745,0 q 0,-0.92554 -0.36253,-1.37338 -0.36254,-0.45211 -1.00658,-0.45211 -0.65257,0 -1.01511,0.45211 -0.35827,0.44784 -0.35827,1.37338 0,0.89569 0.36253,1.36059 0.36254,0.46064 1.01085,0.46064 0.63977,0 1.00231,-0.45638 0.3668,-0.46063 0.3668,-1.36485 z m 2.96515,2.37996 h -1.01937 v -1.21557 h 1.01937 z m 5.06359,-0.29856 q -0.40092,0.19193 -0.76346,0.29856 -0.35827,0.10663 -0.76346,0.10663 -0.51609,0 -0.94687,-0.14928 -0.43078,-0.15355 -0.73787,-0.46064 -0.31136,-0.30709 -0.48197,-0.77626 -0.1706,-0.46916 -0.1706,-1.09614 0,-1.16866 0.63977,-1.83402 0.64404,-0.66537 1.69754,-0.66537 0.40945,0 0.80185,0.11516 0.39666,0.11516 0.72507,0.2815 v 0.89142 h -0.0427 q -0.3668,-0.28576 -0.7592,-0.43931 -0.38813,-0.15355 -0.75919,-0.15355 -0.68243,0 -1.07909,0.46064 -0.3924,0.45637 -0.3924,1.34353 0,0.86156 0.38387,1.32646 0.38813,0.46064 1.08762,0.46064 0.24311,0 0.49475,-0.064 0.25165,-0.064 0.45211,-0.16634 0.17487,-0.0896 0.32842,-0.18767 0.15354,-0.10236 0.24311,-0.17487 h 0.0427 z m 4.15513,0.29856 h -3.84718 v -0.59286 l 2.77662,-3.50169 h -2.71691 v -0.66963 h 3.71496 v 0.57153 l -2.78942,3.51449 h 2.86193 z"
         id="text1"
         style="font-size:8.73505px;letter-spacing:-0.327565px;fill:#000000;stroke-width:0.0247608"
         transform="scale(1,-1)"
         aria-label="logic.robotikabrno.cz" /><path
         d="m 86.425346,-192.42921 q 0,0.58006 -0.166341,1.06202 -0.166341,0.4777 -0.469166,0.81038 -0.2815,0.31562 -0.665364,0.49049 -0.379598,0.17061 -0.806114,0.17061 -0.371068,0 -0.673894,-0.081 -0.29856,-0.081 -0.609916,-0.25165 v 1.99609 h -0.801849 v -6.52141 h 0.801849 v 0.49902 q 0.319886,-0.2687 0.716545,-0.44784 0.400924,-0.1834 0.853031,-0.1834 0.86156,0 1.339257,0.65257 0.481962,0.6483 0.481962,1.80416 z m -0.827439,0.0213 q 0,-0.86156 -0.294296,-1.28807 -0.294295,-0.42652 -0.904212,-0.42652 -0.345477,0 -0.695219,0.14928 -0.349743,0.14928 -0.669629,0.39239 v 2.69985 q 0.341212,0.15354 0.584326,0.20899 0.247378,0.0554 0.558734,0.0554 0.669629,0 1.044962,-0.45211 0.375334,-0.45211 0.375334,-1.33926 z m 4.722374,-1.47148 h -0.04265 q -0.179136,-0.0427 -0.349742,-0.0597 -0.166341,-0.0213 -0.396659,-0.0213 -0.371068,0 -0.716546,0.16634 -0.345477,0.16207 -0.665363,0.42225 v 3.38226 H 87.34747 v -4.76417 h 0.801849 v 0.70375 q 0.477697,-0.38387 0.840235,-0.54168 0.366803,-0.16207 0.746401,-0.16207 0.208993,0 0.302826,0.0128 0.09383,0.009 0.2815,0.0384 z m 4.487791,1.50987 q 0,1.16438 -0.597121,1.83828 -0.597121,0.67389 -1.599432,0.67389 -1.01084,0 -1.607962,-0.67389 -0.592856,-0.6739 -0.592856,-1.83828 0,-1.16439 0.592856,-1.83828 0.597122,-0.67816 1.607962,-0.67816 1.002311,0 1.599432,0.67816 0.597121,0.67389 0.597121,1.83828 z m -0.827439,0 q 0,-0.92554 -0.362538,-1.37338 -0.362538,-0.45211 -1.006576,-0.45211 -0.652568,0 -1.015106,0.45211 -0.358272,0.44784 -0.358272,1.37338 0,0.89568 0.362538,1.36058 0.362537,0.46064 1.01084,0.46064 0.639773,0 1.002311,-0.45637 0.366803,-0.46064 0.366803,-1.36485 z m 5.605261,1.83828 q 0,1.2113 -0.550205,1.77857 -0.550204,0.56726 -1.693265,0.56726 -0.379599,0 -0.742136,-0.0554 -0.358273,-0.0512 -0.708016,-0.14928 v -0.81891 h 0.04265 q 0.196197,0.0768 0.622712,0.18767 0.426515,0.11516 0.85303,0.11516 0.409455,0 0.678159,-0.0981 0.268705,-0.0981 0.417985,-0.27297 0.149281,-0.16634 0.213258,-0.40092 0.06398,-0.23459 0.06398,-0.52462 v -0.43504 q -0.362538,0.29003 -0.69522,0.43504 -0.328416,0.14075 -0.840234,0.14075 -0.853031,0 -1.356319,-0.61418 -0.499022,-0.61844 -0.499022,-1.74018 0,-0.61418 0.170606,-1.05776 0.174871,-0.44784 0.473432,-0.77199 0.277234,-0.30282 0.673894,-0.46917 0.396659,-0.1706 0.789053,-0.1706 0.413719,0 0.690954,0.0853 0.2815,0.081 0.592856,0.25165 l 0.05118,-0.20473 h 0.750667 z m -0.801849,-0.76773 v -2.59748 q -0.319886,-0.14501 -0.597121,-0.20472 -0.27297,-0.064 -0.545939,-0.064 -0.661099,0 -1.040697,0.44357 -0.379599,0.44358 -0.379599,1.28808 0,0.80185 0.2815,1.21557 0.2815,0.41372 0.934068,0.41372 0.349743,0 0.699485,-0.13222 0.354008,-0.13649 0.648303,-0.36254 z m 5.025205,-2.58042 h -0.0427 q -0.17913,-0.0427 -0.34974,-0.0597 -0.16634,-0.0213 -0.39666,-0.0213 -0.37107,0 -0.71654,0.16634 -0.34548,0.16207 -0.66537,0.42225 v 3.38226 h -0.80184 v -4.76417 h 0.80184 v 0.70375 q 0.4777,-0.38387 0.84024,-0.54168 0.3668,-0.16207 0.7464,-0.16207 0.20899,0 0.30283,0.0128 0.0938,0.009 0.2815,0.0384 z m 3.97597,3.88982 h -0.79758 v -0.50755 q -0.10663,0.0725 -0.29004,0.20473 -0.17913,0.12795 -0.34974,0.20472 -0.20046,0.0981 -0.46063,0.16208 -0.26018,0.0682 -0.60992,0.0682 -0.64404,0 -1.09188,-0.42651 -0.44784,-0.42652 -0.44784,-1.08762 0,-0.54167 0.23032,-0.87435 0.23458,-0.33695 0.66536,-0.52888 0.43505,-0.19193 1.04496,-0.26018 0.60992,-0.0682 1.30941,-0.10236 v -0.12369 q 0,-0.27297 -0.0981,-0.4521 -0.0938,-0.17914 -0.27297,-0.2815 -0.17061,-0.0981 -0.40946,-0.13222 -0.23885,-0.0341 -0.49902,-0.0341 -0.31562,0 -0.70375,0.0853 -0.38813,0.081 -0.80185,0.23885 h -0.0426 v -0.81465 q 0.23458,-0.064 0.67816,-0.14075 0.44357,-0.0768 0.87435,-0.0768 0.50329,0 0.87436,0.0853 0.37533,0.081 0.6483,0.2815 0.26871,0.1962 0.40946,0.50756 0.14075,0.31135 0.14075,0.77199 z m -0.79758,-1.17291 v -1.32647 q -0.36681,0.0213 -0.86583,0.064 -0.49476,0.0427 -0.78479,0.12369 -0.34548,0.0981 -0.55873,0.30709 -0.21326,0.20473 -0.21326,0.56727 0,0.40945 0.24738,0.61844 0.24738,0.20473 0.75493,0.20473 0.42225,0 0.77199,-0.16208 0.34974,-0.16634 0.64831,-0.39665 z m 8.96619,1.17291 h -0.80185 v -2.71263 q 0,-0.30709 -0.0298,-0.59286 -0.0256,-0.28577 -0.11516,-0.45637 -0.0981,-0.1834 -0.2815,-0.27724 -0.1834,-0.0938 -0.52888,-0.0938 -0.33695,0 -0.67389,0.17061 -0.33695,0.16634 -0.6739,0.42651 0.0128,0.0981 0.0213,0.23032 0.009,0.12795 0.009,0.25591 v 3.04958 h -0.80185 v -2.71263 q 0,-0.31563 -0.0299,-0.59713 -0.0256,-0.28576 -0.11515,-0.45637 -0.0981,-0.1834 -0.2815,-0.27297 -0.18341,-0.0938 -0.52888,-0.0938 -0.32842,0 -0.6611,0.16208 -0.32842,0.16207 -0.65683,0.41372 v 3.55713 h -0.80185 v -4.76417 h 0.80185 v 0.52888 q 0.37533,-0.31136 0.7464,-0.48623 0.37533,-0.17487 0.79758,-0.17487 0.48623,0 0.82317,0.20473 0.34122,0.20472 0.50756,0.56726 0.48622,-0.40945 0.88715,-0.58859 0.40092,-0.1834 0.85729,-0.1834 0.78479,0 1.15586,0.4777 0.37533,0.47343 0.37533,1.32646 z m 8.16862,0 h -0.80185 v -2.71263 q 0,-0.30709 -0.0298,-0.59286 -0.0256,-0.28577 -0.11516,-0.45637 -0.0981,-0.1834 -0.2815,-0.27724 -0.1834,-0.0938 -0.52888,-0.0938 -0.33695,0 -0.67389,0.17061 -0.33695,0.16634 -0.6739,0.42651 0.0128,0.0981 0.0213,0.23032 0.009,0.12795 0.009,0.25591 v 3.04958 h -0.80185 v -2.71263 q 0,-0.31563 -0.0299,-0.59713 -0.0256,-0.28576 -0.11516,-0.45637 -0.0981,-0.1834 -0.2815,-0.27297 -0.1834,-0.0938 -0.52887,-0.0938 -0.32842,0 -0.6611,0.16208 -0.32842,0.16207 -0.65684,0.41372 v 3.55713 h -0.80184 v -4.76417 h 0.80184 v 0.52888 q 0.37534,-0.31136 0.74641,-0.48623 0.37533,-0.17487 0.79758,-0.17487 0.48623,0 0.82317,0.20473 0.34122,0.20472 0.50756,0.56726 0.48622,-0.40945 0.88715,-0.58859 0.40092,-0.1834 0.85729,-0.1834 0.78479,0 1.15586,0.4777 0.37533,0.47343 0.37533,1.32646 z m 4.91857,0 h -0.79758 v -0.50755 q -0.10663,0.0725 -0.29003,0.20473 -0.17914,0.12795 -0.34975,0.20472 -0.20046,0.0981 -0.46063,0.16208 -0.26018,0.0682 -0.60992,0.0682 -0.64404,0 -1.09188,-0.42651 -0.44784,-0.42652 -0.44784,-1.08762 0,-0.54167 0.23032,-0.87435 0.23458,-0.33695 0.66536,-0.52888 0.43505,-0.19193 1.04497,-0.26018 0.60991,-0.0682 1.3094,-0.10236 v -0.12369 q 0,-0.27297 -0.0981,-0.4521 -0.0938,-0.17914 -0.27297,-0.2815 -0.17061,-0.0981 -0.40946,-0.13222 -0.23884,-0.0341 -0.49902,-0.0341 -0.31562,0 -0.70375,0.0853 -0.38813,0.081 -0.80185,0.23885 h -0.0427 v -0.81465 q 0.23459,-0.064 0.67816,-0.14075 0.44358,-0.0768 0.87436,-0.0768 0.50328,0 0.87435,0.0853 0.37534,0.081 0.64831,0.2815 0.2687,0.1962 0.40945,0.50756 0.14075,0.31135 0.14075,0.77199 z m -0.79758,-1.17291 v -1.32647 q -0.36681,0.0213 -0.86583,0.064 -0.49476,0.0427 -0.78479,0.12369 -0.34547,0.0981 -0.55873,0.30709 -0.21326,0.20473 -0.21326,0.56727 0,0.40945 0.24738,0.61844 0.24738,0.20473 0.75493,0.20473 0.42225,0 0.77199,-0.16208 0.34975,-0.16634 0.64831,-0.39665 z m 6.20664,-1.24543 q 0,0.59712 -0.1706,1.07482 -0.16634,0.4777 -0.45211,0.80185 -0.30282,0.33695 -0.66536,0.50755 -0.36254,0.16634 -0.79758,0.16634 -0.40519,0 -0.70802,-0.0981 -0.30283,-0.0938 -0.59712,-0.25591 l -0.0512,0.22179 h -0.75067 v -6.63657 h 0.80185 v 2.37142 q 0.33695,-0.27723 0.71654,-0.45211 0.3796,-0.17913 0.85303,-0.17913 0.8445,0 1.33073,0.6483 0.49049,0.6483 0.49049,1.82975 z m -0.82743,0.0213 q 0,-0.85303 -0.2815,-1.29234 -0.2815,-0.44358 -0.90848,-0.44358 -0.34974,0 -0.70802,0.15355 -0.35827,0.14928 -0.66536,0.38812 v 2.7297 q 0.34121,0.15355 0.58432,0.21326 0.24738,0.0597 0.55874,0.0597 0.66536,0 1.0407,-0.43504 0.3796,-0.43931 0.3796,-1.37338 z m 2.55994,2.39701 h -0.80185 v -6.63657 h 0.80185 z m 5.24699,-2.29891 h -3.51022 q 0,0.43931 0.13222,0.76772 0.13222,0.32415 0.36253,0.53315 0.22179,0.20472 0.52462,0.30709 0.30709,0.10236 0.67389,0.10236 0.48623,0 0.97672,-0.19193 0.49476,-0.1962 0.70375,-0.38386 h 0.0426 v 0.87435 q -0.40519,0.17061 -0.82744,0.28577 -0.42225,0.11516 -0.88715,0.11516 -1.18571,0 -1.85107,-0.63978 -0.66537,-0.64403 -0.66537,-1.82548 0,-1.16865 0.63551,-1.85534 0.63977,-0.68669 1.68047,-0.68669 0.96392,0 1.48427,0.563 0.52462,0.563 0.52462,1.59943 z m -0.78053,-0.61419 q -0.004,-0.63124 -0.31988,-0.97672 -0.31136,-0.34547 -0.95113,-0.34547 -0.64404,0 -1.0279,0.3796 -0.3796,0.37959 -0.43078,0.94259 z m 8.2761,2.37143 q 0,1.2113 -0.5502,1.77857 -0.55021,0.56726 -1.69327,0.56726 -0.3796,0 -0.74214,-0.0554 -0.35827,-0.0512 -0.70801,-0.14928 v -0.81891 h 0.0427 q 0.1962,0.0768 0.62271,0.18767 0.42652,0.11516 0.85303,0.11516 0.40946,0 0.67816,-0.0981 0.26871,-0.0981 0.41799,-0.27297 0.14928,-0.16634 0.21325,-0.40092 0.064,-0.23459 0.064,-0.52462 v -0.43504 q -0.36254,0.29003 -0.69522,0.43504 -0.32841,0.14075 -0.84023,0.14075 -0.85303,0 -1.35632,-0.61418 -0.49902,-0.61844 -0.49902,-1.74018 0,-0.61418 0.1706,-1.05776 0.17487,-0.44784 0.47343,-0.77199 0.27724,-0.30282 0.6739,-0.46917 0.39666,-0.1706 0.78905,-0.1706 0.41372,0 0.69096,0.0853 0.2815,0.081 0.59285,0.25165 l 0.0512,-0.20473 h 0.75067 z m -0.80185,-0.76773 v -2.59748 q -0.31988,-0.14501 -0.59712,-0.20472 -0.27297,-0.064 -0.54594,-0.064 -0.6611,0 -1.0407,0.44357 -0.37959,0.44358 -0.37959,1.28808 0,0.80185 0.2815,1.21557 0.2815,0.41372 0.93406,0.41372 0.34975,0 0.69949,-0.13222 0.35401,-0.13649 0.6483,-0.36254 z m 5.75454,1.3094 h -0.79758 v -0.50755 q -0.10663,0.0725 -0.29003,0.20473 -0.17914,0.12795 -0.34975,0.20472 -0.20046,0.0981 -0.46063,0.16208 -0.26018,0.0682 -0.60992,0.0682 -0.64404,0 -1.09188,-0.42651 -0.44784,-0.42652 -0.44784,-1.08762 0,-0.54167 0.23032,-0.87435 0.23458,-0.33695 0.66536,-0.52888 0.43505,-0.19193 1.04496,-0.26018 0.60992,-0.0682 1.30941,-0.10236 v -0.12369 q 0,-0.27297 -0.0981,-0.4521 -0.0938,-0.17914 -0.27297,-0.2815 -0.17061,-0.0981 -0.40946,-0.13222 -0.23885,-0.0341 -0.49902,-0.0341 -0.31562,0 -0.70375,0.0853 -0.38813,0.081 -0.80185,0.23885 h -0.0426 v -0.81465 q 0.23458,-0.064 0.67816,-0.14075 0.44358,-0.0768 0.87436,-0.0768 0.50328,0 0.87435,0.0853 0.37534,0.081 0.6483,0.2815 0.26871,0.1962 0.40946,0.50756 0.14075,0.31135 0.14075,0.77199 z m -0.79758,-1.17291 v -1.32647 q -0.36681,0.0213 -0.86583,0.064 -0.49476,0.0427 -0.78479,0.12369 -0.34547,0.0981 -0.55873,0.30709 -0.21326,0.20473 -0.21326,0.56727 0,0.40945 0.24738,0.61844 0.24738,0.20473 0.75493,0.20473 0.42225,0 0.77199,-0.16208 0.34975,-0.16634 0.64831,-0.39665 z m 8.9662,1.17291 h -0.80185 v -2.71263 q 0,-0.30709 -0.0299,-0.59286 -0.0256,-0.28577 -0.11516,-0.45637 -0.0981,-0.1834 -0.2815,-0.27724 -0.1834,-0.0938 -0.52888,-0.0938 -0.33694,0 -0.67389,0.17061 -0.33695,0.16634 -0.67389,0.42651 0.0128,0.0981 0.0213,0.23032 0.009,0.12795 0.009,0.25591 v 3.04958 h -0.80185 v -2.71263 q 0,-0.31563 -0.0299,-0.59713 -0.0256,-0.28576 -0.11516,-0.45637 -0.0981,-0.1834 -0.2815,-0.27297 -0.1834,-0.0938 -0.52888,-0.0938 -0.32842,0 -0.6611,0.16208 -0.32842,0.16207 -0.65683,0.41372 v 3.55713 h -0.80185 v -4.76417 h 0.80185 v 0.52888 q 0.37533,-0.31136 0.7464,-0.48623 0.37533,-0.17487 0.79758,-0.17487 0.48623,0 0.82318,0.20473 0.34121,0.20472 0.50755,0.56726 0.48623,-0.40945 0.88715,-0.58859 0.40093,-0.1834 0.8573,-0.1834 0.78478,0 1.15585,0.4777 0.37534,0.47343 0.37534,1.32646 z m 5.20433,-2.29891 h -3.51022 q 0,0.43931 0.13222,0.76772 0.13222,0.32415 0.36254,0.53315 0.22179,0.20472 0.52461,0.30709 0.3071,0.10236 0.6739,0.10236 0.48623,0 0.97672,-0.19193 0.49476,-0.1962 0.70375,-0.38386 h 0.0427 v 0.87435 q -0.40519,0.17061 -0.82744,0.28577 -0.42225,0.11516 -0.88715,0.11516 -1.18571,0 -1.85108,-0.63978 -0.66536,-0.64403 -0.66536,-1.82548 0,-1.16865 0.63551,-1.85534 0.63977,-0.68669 1.68047,-0.68669 0.96392,0 1.48427,0.563 0.52461,0.563 0.52461,1.59943 z m -0.78052,-0.61419 q -0.004,-0.63124 -0.31989,-0.97672 -0.31135,-0.34547 -0.95112,-0.34547 -0.64404,0 -1.02791,0.3796 -0.37959,0.37959 -0.43078,0.94259 z m 7.93488,2.61454 q -0.40092,0.19193 -0.76346,0.29856 -0.35827,0.10663 -0.76346,0.10663 -0.51608,0 -0.94686,-0.14928 -0.43078,-0.15354 -0.73787,-0.46064 -0.31136,-0.30709 -0.48197,-0.77625 -0.1706,-0.46917 -0.1706,-1.09615 0,-1.16865 0.63977,-1.83401 0.64404,-0.66537 1.69753,-0.66537 0.40945,0 0.80185,0.11516 0.39666,0.11516 0.72507,0.2815 v 0.89142 h -0.0426 q -0.3668,-0.28577 -0.75919,-0.43931 -0.38813,-0.15355 -0.7592,-0.15355 -0.68243,0 -1.07908,0.46064 -0.3924,0.45637 -0.3924,1.34352 0,0.86156 0.38387,1.32647 0.38812,0.46063 1.08761,0.46063 0.24311,0 0.49476,-0.064 0.25164,-0.064 0.4521,-0.16634 0.17487,-0.0896 0.32842,-0.18766 0.15354,-0.10237 0.24311,-0.17487 h 0.0426 z m 4.76077,-2.08139 q 0,1.16438 -0.59712,1.83828 -0.59712,0.67389 -1.59943,0.67389 -1.01084,0 -1.60796,-0.67389 -0.59286,-0.6739 -0.59286,-1.83828 0,-1.16439 0.59286,-1.83828 0.59712,-0.67816 1.60796,-0.67816 1.00231,0 1.59943,0.67816 0.59712,0.67389 0.59712,1.83828 z m -0.82744,0 q 0,-0.92554 -0.36254,-1.37338 -0.36253,-0.45211 -1.00657,-0.45211 -0.65257,0 -1.01511,0.45211 -0.35827,0.44784 -0.35827,1.37338 0,0.89568 0.36254,1.36058 0.36254,0.46064 1.01084,0.46064 0.63977,0 1.00231,-0.45637 0.3668,-0.46064 0.3668,-1.36485 z m 5.72468,2.37995 h -0.80185 v -2.71263 q 0,-0.32842 -0.0384,-0.61419 -0.0384,-0.29003 -0.14075,-0.4521 -0.10663,-0.17914 -0.30709,-0.26444 -0.20046,-0.0896 -0.52035,-0.0896 -0.32842,0 -0.68669,0.16208 -0.35827,0.16207 -0.68669,0.41372 v 3.55713 h -0.80185 v -4.76417 h 0.80185 v 0.52888 q 0.37533,-0.31136 0.77626,-0.48623 0.40092,-0.17487 0.82317,-0.17487 0.77199,0 1.17718,0.4649 0.40519,0.4649 0.40519,1.33926 z m 4.62002,-1.37338 q 0,0.65257 -0.54168,1.07056 -0.53741,0.41798 -1.47148,0.41798 -0.52887,0 -0.97245,-0.12369 -0.43931,-0.12795 -0.73787,-0.27723 v -0.89995 h 0.0427 q 0.3796,0.28577 0.8445,0.45637 0.4649,0.16634 0.89142,0.16634 0.52888,0 0.82744,-0.1706 0.29856,-0.17061 0.29856,-0.53741 0,-0.2815 -0.16208,-0.42652 -0.16207,-0.14501 -0.62271,-0.24738 -0.17061,-0.0384 -0.44784,-0.0896 -0.27297,-0.0512 -0.49902,-0.1109 -0.62698,-0.16634 -0.89142,-0.48623 -0.26018,-0.32415 -0.26018,-0.79331 0,-0.2943 0.11943,-0.55447 0.12369,-0.26018 0.37107,-0.46491 0.23885,-0.20046 0.60565,-0.31562 0.37107,-0.11942 0.82744,-0.11942 0.42651,0 0.86156,0.10663 0.43931,0.10236 0.72934,0.25164 v 0.8573 h -0.0427 q -0.30709,-0.22606 -0.7464,-0.3796 -0.43931,-0.15781 -0.86156,-0.15781 -0.43932,0 -0.74214,0.1706 -0.30283,0.16635 -0.30283,0.49903 0,0.29429 0.1834,0.44357 0.17914,0.14928 0.58007,0.24312 0.22178,0.0512 0.49475,0.10236 0.27724,0.0512 0.46064,0.0938 0.55873,0.12796 0.86156,0.43931 0.30283,0.31563 0.30283,0.83597 z m 4.88018,-1.00657 q 0,1.16438 -0.59712,1.83828 -0.59712,0.67389 -1.59943,0.67389 -1.01084,0 -1.60797,-0.67389 -0.59285,-0.6739 -0.59285,-1.83828 0,-1.16439 0.59285,-1.83828 0.59713,-0.67816 1.60797,-0.67816 1.00231,0 1.59943,0.67816 0.59712,0.67389 0.59712,1.83828 z m -0.82744,0 q 0,-0.92554 -0.36254,-1.37338 -0.36254,-0.45211 -1.00657,-0.45211 -0.65257,0 -1.01511,0.45211 -0.35827,0.44784 -0.35827,1.37338 0,0.89568 0.36254,1.36058 0.36253,0.46064 1.01084,0.46064 0.63977,0 1.00231,-0.45637 0.3668,-0.46064 0.3668,-1.36485 z m 2.55142,2.37995 h -0.80185 v -6.63657 h 0.80185 z m 5.24698,-2.29891 h -3.51022 q 0,0.43931 0.13222,0.76772 0.13222,0.32415 0.36253,0.53315 0.22179,0.20472 0.52462,0.30709 0.30709,0.10236 0.67389,0.10236 0.48623,0 0.97672,-0.19193 0.49476,-0.1962 0.70375,-0.38386 h 0.0427 v 0.87435 q -0.40519,0.17061 -0.82744,0.28577 -0.42225,0.11516 -0.88715,0.11516 -1.18571,0 -1.85107,-0.63978 -0.66537,-0.64403 -0.66537,-1.82548 0,-1.16865 0.63551,-1.85534 0.63977,-0.68669 1.68047,-0.68669 0.96392,0 1.48427,0.563 0.52462,0.563 0.52462,1.59943 z m -0.78053,-0.61419 q -0.004,-0.63124 -0.31988,-0.97672 -0.31136,-0.34547 -0.95113,-0.34547 -0.64404,0 -1.0279,0.3796 -0.3796,0.37959 -0.43078,0.94259 z"
         id="text50"
         style="font-size:8.73503px;letter-spacing:-0.327565px;fill:#000000;stroke-width:0.0247608"
         transform="scale(1,-1)"
         aria-label="programmable game console" /><text
         xml:space="preserve"
         transform="matrix(0.65512911,0,0,-0.65512911,17.580046,266.81206)"
         id="text51"
         style="font-size:13.3333px;white-space:pre;display:inline;fill:#000000;fill-opacity:1;stroke-width:0.0377953"><tspan
           id="tspan51"
           style="fill:#000000;fill-opacity:1"></tspan></text><path
         style="font-weight:bold;font-size:19.2171px;letter-spacing:-0.851668px;fill:#000000;stroke-width:0.0247608"
         d="m 125.99977,-206.07956 h -10.07772 v -13.97181 h 3.60321 v 11.26941 h 6.47451 z m 11.9003,-5.26406 q 0,2.59919 -1.5201,4.10053 -1.51072,1.49195 -4.25066,1.49195 -2.73994,0 -4.26004,-1.49195 -1.51072,-1.50134 -1.51072,-4.10053 0,-2.61795 1.5201,-4.10991 1.52949,-1.49195 4.25066,-1.49195 2.75871,0 4.26004,1.50134 1.51072,1.50133 1.51072,4.10052 z m -4.15682,2.56166 q 0.32842,-0.40349 0.48793,-0.96649 0.1689,-0.57238 0.1689,-1.5764 0,-0.92895 -0.1689,-1.55764 -0.1689,-0.62868 -0.46917,-1.00402 -0.30026,-0.38471 -0.72251,-0.54423 -0.42225,-0.15952 -0.91019,-0.15952 -0.48793,0 -0.87265,0.13137 -0.37533,0.13137 -0.72252,0.52547 -0.30965,0.36595 -0.49732,1.00402 -0.17828,0.63806 -0.17828,1.60455 0,0.86327 0.15952,1.50133 0.15951,0.62869 0.46917,1.01341 0.30026,0.36595 0.71313,0.53485 0.42225,0.1689 0.9571,0.1689 0.45979,0 0.87265,-0.15014 0.42225,-0.15951 0.71314,-0.52546 z m 15.97268,1.49195 q 0,1.48257 -0.42226,2.49597 -0.42225,1.0134 -1.1823,1.58579 -0.76005,0.58176 -1.83913,0.83511 -1.06971,0.26274 -2.42091,0.26274 -1.09785,0 -2.16755,-0.13137 -1.06032,-0.13137 -1.83914,-0.31903 v -2.63672 h 0.41287 q 0.6193,0.24396 1.51072,0.44101 0.89142,0.20644 1.59517,0.20644 0.93833,0 1.5201,-0.17829 0.59115,-0.1689 0.9008,-0.48793 0.29089,-0.30027 0.42225,-0.76944 0.13137,-0.46916 0.13137,-1.126 v -0.19705 q -0.60992,0.49732 -1.3512,0.7882 -0.74129,0.29089 -1.65147,0.29089 -2.21447,0 -3.41554,-1.33244 -1.20107,-1.33243 -1.20107,-4.05361 0,-1.30428 0.36595,-2.252 0.36595,-0.94772 1.03217,-1.65147 0.6193,-0.65683 1.5201,-1.02278 0.91019,-0.36595 1.8579,-0.36595 0.85389,0 1.54826,0.20643 0.70375,0.19705 1.27613,0.55362 l 0.12199,-0.46917 h 3.27479 z m -3.37801,-2.11126 v -4.77612 q -0.29088,-0.12198 -0.71314,-0.18767 -0.42225,-0.0751 -0.76005,-0.0751 -1.33243,0 -1.99865,0.76943 -0.66622,0.76005 -0.66622,2.13002 0,1.5201 0.563,2.12064 0.57239,0.60053 1.68901,0.60053 0.5067,0 0.99463,-0.15951 0.48794,-0.15952 0.89142,-0.42226 z m 9.09468,3.32171 h -3.378 v -10.5375 h 3.378 z m 0.0938,-12.03884 h -3.56568 v -2.56165 h 3.56568 z m 7.73409,12.32034 q -1.37935,0 -2.52412,-0.32842 -1.13539,-0.32841 -1.97989,-1.0134 -0.83512,-0.68498 -1.2949,-1.72653 -0.45978,-1.04156 -0.45978,-2.43968 0,-1.47318 0.48793,-2.54288 0.49732,-1.0697 1.37935,-1.77346 0.85389,-0.66621 1.97051,-0.97586 1.11662,-0.30965 2.31768,-0.30965 1.07909,0 1.98927,0.23458 0.91019,0.23458 1.69839,0.60992 v 2.88068 h -0.47855 q -0.19705,-0.1689 -0.47855,-0.3941 -0.27212,-0.2252 -0.6756,-0.44101 -0.38472,-0.20644 -0.8445,-0.3378 -0.45979,-0.14075 -1.06971,-0.14075 -1.3512,0 -2.0831,0.86326 -0.72252,0.85389 -0.72252,2.32707 0,1.52011 0.74129,2.30831 0.75067,0.7882 2.12063,0.7882 0.63807,0 1.14477,-0.14075 0.51609,-0.15013 0.85389,-0.34718 0.31903,-0.18767 0.563,-0.3941 0.24397,-0.20644 0.4504,-0.40349 h 0.47855 v 2.88069 q -0.79758,0.37533 -1.67024,0.59115 -0.86326,0.2252 -1.9142,0.2252 z"
         id="text52"
         transform="scale(1,-1)"
         aria-label="Logic" /></g></g></svg>
