G04 #@! TF.GenerationSoftware,KiCad,Pcbnew,6.0.2+dfsg-1*
G04 #@! TF.CreationDate,2023-02-17T05:59:19+01:00*
G04 #@! TF.ProjectId,LED,4c45442e-6b69-4636-9164-5f7063625858,rev?*
G04 #@! TF.SameCoordinates,Original*
G04 #@! TF.FileFunction,Copper,L2,Bot*
G04 #@! TF.FilePolarity,Positive*
%FSLAX46Y46*%
G04 Gerber Fmt 4.6, Leading zero omitted, Abs format (unit mm)*
G04 Created by KiCad (PCBNEW 6.0.2+dfsg-1) date 2023-02-17 05:59:19*
%MOMM*%
%LPD*%
G01*
G04 APERTURE LIST*
G04 #@! TA.AperFunction,ComponentPad*
%ADD10C,5.600000*%
G04 #@! TD*
G04 #@! TA.AperFunction,ComponentPad*
%ADD11R,1.700000X1.700000*%
G04 #@! TD*
G04 #@! TA.AperFunction,ComponentPad*
%ADD12O,1.700000X1.700000*%
G04 #@! TD*
G04 #@! TA.AperFunction,ViaPad*
%ADD13C,0.800000*%
G04 #@! TD*
G04 #@! TA.AperFunction,ViaPad*
%ADD14C,0.600000*%
G04 #@! TD*
G04 #@! TA.AperFunction,Conductor*
%ADD15C,0.250000*%
G04 #@! TD*
G04 #@! TA.AperFunction,Conductor*
%ADD16C,0.500000*%
G04 #@! TD*
G04 #@! TA.AperFunction,Conductor*
%ADD17C,0.300000*%
G04 #@! TD*
G04 #@! TA.AperFunction,Conductor*
%ADD18C,0.400000*%
G04 #@! TD*
G04 APERTURE END LIST*
D10*
G04 #@! TO.P,H5,1*
G04 #@! TO.N,N/C*
X102570000Y-52450000D03*
G04 #@! TD*
G04 #@! TO.P,H6,1*
G04 #@! TO.N,N/C*
X194570000Y-52450000D03*
G04 #@! TD*
G04 #@! TO.P,H7,1*
G04 #@! TO.N,N/C*
X102570000Y-144450000D03*
G04 #@! TD*
G04 #@! TO.P,H8,1*
G04 #@! TO.N,N/C*
X194570000Y-144450000D03*
G04 #@! TD*
D11*
G04 #@! TO.P,J5,1,Pin_1*
G04 #@! TO.N,/ovladaci_prvky.sch/SW_5*
X193570000Y-107370000D03*
D12*
G04 #@! TO.P,J5,2,Pin_2*
G04 #@! TO.N,/ovladaci_prvky.sch/SW_9*
X193570000Y-104830000D03*
G04 #@! TO.P,J5,3,Pin_3*
G04 #@! TO.N,/ovladaci_prvky.sch/SW_10*
X193570000Y-102290000D03*
G04 #@! TO.P,J5,4,Pin_4*
G04 #@! TO.N,/ovladaci_prvky.sch/SW_4*
X193570000Y-99750000D03*
G04 #@! TD*
D11*
G04 #@! TO.P,J6,1,Pin_1*
G04 #@! TO.N,/ovladaci_prvky.sch/SW_11*
X193570000Y-95650000D03*
D12*
G04 #@! TO.P,J6,2,Pin_2*
G04 #@! TO.N,/ovladaci_prvky.sch/SW_8*
X193570000Y-93110000D03*
G04 #@! TO.P,J6,3,Pin_3*
G04 #@! TO.N,/ovladaci_prvky.sch/SW_3*
X193570000Y-90570000D03*
G04 #@! TO.P,J6,4,Pin_4*
G04 #@! TO.N,/ovladaci_prvky.sch/SW_2*
X193570000Y-88030000D03*
G04 #@! TD*
D11*
G04 #@! TO.P,J4,1,Pin_1*
G04 #@! TO.N,/ovladaci_prvky.sch/3V3*
X103670000Y-107350000D03*
D12*
G04 #@! TO.P,J4,2,Pin_2*
G04 #@! TO.N,/ovladaci_prvky.sch/SW_7*
X103670000Y-104810000D03*
G04 #@! TO.P,J4,3,Pin_3*
G04 #@! TO.N,/ovladaci_prvky.sch/GND*
X103670000Y-102270000D03*
G04 #@! TO.P,J4,4,Pin_4*
G04 #@! TO.N,/ovladaci_prvky.sch/DATA_ZADANI_LED*
X103670000Y-99730000D03*
G04 #@! TO.P,J4,5,Pin_5*
G04 #@! TO.N,/ovladaci_prvky.sch/DATA_HERNI_LED*
X103670000Y-97190000D03*
G04 #@! TO.P,J4,6,Pin_6*
G04 #@! TO.N,/ovladaci_prvky.sch/V_LED_1*
X103670000Y-94650000D03*
G04 #@! TO.P,J4,7,Pin_7*
G04 #@! TO.N,/ovladaci_prvky.sch/SENZOR_SVETLA*
X103670000Y-92110000D03*
G04 #@! TO.P,J4,8,Pin_8*
G04 #@! TO.N,/ovladaci_prvky.sch/SW_12*
X103670000Y-89570000D03*
G04 #@! TD*
D13*
G04 #@! TO.N,/ovladaci_prvky.sch/herni_pole_LED.sch/2.sch/DATA_OUT*
X110150000Y-69550000D03*
D14*
X186850000Y-62450000D03*
D13*
G04 #@! TO.N,/ovladaci_prvky.sch/herni_pole_LED.sch/4.sch/DATA_OUT*
X110250000Y-76950000D03*
D14*
X187050000Y-69500000D03*
D13*
G04 #@! TO.N,/ovladaci_prvky.sch/herni_pole_LED.sch/6.sch/DATA_OUT*
X110350000Y-84050000D03*
D14*
X187050000Y-76650000D03*
D13*
G04 #@! TO.N,/ovladaci_prvky.sch/herni_pole_LED.sch/8.sch/DATA_OUT*
X110250000Y-90450000D03*
D14*
X186950000Y-83450000D03*
G04 #@! TO.N,/ovladaci_prvky.sch/herni_pole_LED.sch/10.sch/DATA_OUT*
X186950000Y-90250000D03*
D13*
X110250000Y-97950000D03*
G04 #@! TO.N,/ovladaci_prvky.sch/herni_pole_LED.sch/12.sch/DATA_OUT*
X110250000Y-105250000D03*
D14*
X186950000Y-97450000D03*
G04 #@! TO.N,/ovladaci_prvky.sch/herni_pole_LED.sch/14.sch/DATA_OUT*
X187050000Y-104550000D03*
D13*
X110250000Y-111850000D03*
D14*
G04 #@! TO.N,/ovladaci_prvky.sch/herni_pole_LED.sch/16.sch/DATA_OUT*
X187150000Y-111450000D03*
D13*
X110150000Y-118750000D03*
D14*
G04 #@! TO.N,/ovladaci_prvky.sch/herni_pole_LED.sch/18.sch/DATA_OUT*
X187050000Y-118250000D03*
X111970000Y-126050000D03*
D13*
G04 #@! TO.N,/ovladaci_prvky.sch/GND*
X152170000Y-63250000D03*
X181850000Y-126450000D03*
X144670000Y-98350000D03*
X181150000Y-84250000D03*
X121870000Y-84250000D03*
X129470000Y-84250000D03*
X159770000Y-98350000D03*
X129570000Y-70250000D03*
X175070000Y-70250000D03*
X115450000Y-77450000D03*
X181350000Y-112350000D03*
X152170000Y-77450000D03*
X129470000Y-112350000D03*
X129470000Y-105450000D03*
X144570000Y-112350000D03*
X129470000Y-63250000D03*
X174970000Y-98250000D03*
X152270000Y-70250000D03*
X118550000Y-145350000D03*
X115350000Y-91350000D03*
X175770000Y-119150000D03*
X121870000Y-70250000D03*
X115550000Y-84250000D03*
X167370000Y-98350000D03*
X136970000Y-119250000D03*
X109450000Y-103550000D03*
X136970000Y-105450000D03*
X168270000Y-119150000D03*
X122870000Y-126350000D03*
X167370000Y-105450000D03*
X111050000Y-139850000D03*
X167370000Y-77450000D03*
X174970000Y-63250000D03*
X159770000Y-91350000D03*
X136970000Y-84250000D03*
X152170000Y-112350000D03*
X174970000Y-84250000D03*
X167370000Y-63250000D03*
X184520000Y-136610000D03*
X118550000Y-134350000D03*
X114085000Y-129450000D03*
X168370000Y-126450000D03*
X121870000Y-77450000D03*
X114075000Y-132550000D03*
X181450000Y-105450000D03*
X167370000Y-70250000D03*
X152170000Y-84250000D03*
X182330000Y-139940000D03*
X175070000Y-112350000D03*
X174970000Y-105450000D03*
X152930002Y-126489998D03*
X144570000Y-91350000D03*
X159870000Y-105450000D03*
X185760000Y-131875000D03*
X188050000Y-119150000D03*
X159670000Y-77450000D03*
X159870000Y-84250000D03*
X113050000Y-63250000D03*
X121770000Y-91350000D03*
X160770000Y-126450000D03*
X129370000Y-77450000D03*
X159870000Y-63250000D03*
X136970000Y-112350000D03*
X137070000Y-63250000D03*
X181550000Y-77450000D03*
X121870000Y-105450000D03*
X115450000Y-112350000D03*
X137870000Y-126450000D03*
X115650000Y-70250000D03*
X137170000Y-98350000D03*
X159770000Y-112350000D03*
X126050000Y-139850000D03*
X181350000Y-70250000D03*
X181350000Y-98250000D03*
X129270000Y-119250000D03*
X144470000Y-77450000D03*
X121870000Y-63250000D03*
X174970000Y-77450000D03*
X144570000Y-70250000D03*
X159870000Y-70250000D03*
X130270000Y-126450000D03*
X145470000Y-126450000D03*
X159770000Y-119150000D03*
X144670000Y-119150000D03*
X167470000Y-112350000D03*
X118550000Y-139850000D03*
X175770000Y-126450000D03*
X115450000Y-119250000D03*
X121770000Y-98350000D03*
X136970000Y-77450000D03*
X116150000Y-126350000D03*
X152270000Y-91350000D03*
X129470000Y-91350000D03*
X182250000Y-119150000D03*
X167370000Y-91350000D03*
X174970000Y-91350000D03*
X152170000Y-119150000D03*
X129370000Y-98350000D03*
X144570000Y-105450000D03*
X152170000Y-105450000D03*
X167370000Y-84250000D03*
X115550000Y-98350000D03*
X144470000Y-84250000D03*
X136970000Y-91350000D03*
X136970000Y-70250000D03*
X181150000Y-91350000D03*
X115250000Y-105450000D03*
X181350000Y-63250000D03*
X121770000Y-112350000D03*
X121770000Y-119250000D03*
X144770000Y-63250000D03*
X152270000Y-98350000D03*
G04 #@! TO.N,/ovladaci_prvky.sch/DATA_ZADANI_LED*
X109270000Y-55250000D03*
G04 #@! TO.N,/ovladaci_prvky.sch/DATA_HERNI_LED*
X106065000Y-73955000D03*
G04 #@! TO.N,/ovladaci_prvky.sch/SW_8*
X186625000Y-131035000D03*
X173020000Y-132550000D03*
G04 #@! TO.N,/ovladaci_prvky.sch/SW_9*
X178545000Y-145350000D03*
X186865000Y-134930000D03*
G04 #@! TD*
D15*
G04 #@! TO.N,/ovladaci_prvky.sch/herni_pole_LED.sch/2.sch/DATA_OUT*
X110850000Y-67150000D02*
X110150000Y-67850000D01*
X110150000Y-67850000D02*
X110150000Y-69550000D01*
X186850000Y-66350000D02*
X186050000Y-67150000D01*
X186050000Y-67150000D02*
X110850000Y-67150000D01*
X186850000Y-62450000D02*
X186850000Y-66350000D01*
G04 #@! TO.N,/ovladaci_prvky.sch/herni_pole_LED.sch/4.sch/DATA_OUT*
X110250000Y-74850000D02*
X110250000Y-76950000D01*
X187050000Y-69500000D02*
X187050000Y-73250000D01*
X111050000Y-74050000D02*
X110250000Y-74850000D01*
X187050000Y-73250000D02*
X186250000Y-74050000D01*
X186250000Y-74050000D02*
X111050000Y-74050000D01*
G04 #@! TO.N,/ovladaci_prvky.sch/herni_pole_LED.sch/6.sch/DATA_OUT*
X187050000Y-76650000D02*
X187050000Y-80550000D01*
X187050000Y-80550000D02*
X186050000Y-81550000D01*
X186050000Y-81550000D02*
X111150000Y-81550000D01*
X111150000Y-81550000D02*
X110350000Y-82350000D01*
X110350000Y-82350000D02*
X110350000Y-84050000D01*
G04 #@! TO.N,/ovladaci_prvky.sch/herni_pole_LED.sch/8.sch/DATA_OUT*
X186050000Y-88150000D02*
X111050000Y-88150000D01*
X186950000Y-83450000D02*
X186950000Y-87250000D01*
X110250000Y-88950000D02*
X110250000Y-90450000D01*
X186950000Y-87250000D02*
X186050000Y-88150000D01*
X111050000Y-88150000D02*
X110250000Y-88950000D01*
G04 #@! TO.N,/ovladaci_prvky.sch/herni_pole_LED.sch/10.sch/DATA_OUT*
X185750000Y-95350000D02*
X111050000Y-95350000D01*
X110250000Y-96150000D02*
X110250000Y-97950000D01*
X186950000Y-90250000D02*
X186950000Y-94150000D01*
X186950000Y-94150000D02*
X185750000Y-95350000D01*
X111050000Y-95350000D02*
X110250000Y-96150000D01*
G04 #@! TO.N,/ovladaci_prvky.sch/herni_pole_LED.sch/12.sch/DATA_OUT*
X110250000Y-103150000D02*
X110250000Y-105250000D01*
X185950000Y-102450000D02*
X110950000Y-102450000D01*
X110950000Y-102450000D02*
X110250000Y-103150000D01*
X186950000Y-97450000D02*
X186950000Y-101450000D01*
X186950000Y-101450000D02*
X185950000Y-102450000D01*
G04 #@! TO.N,/ovladaci_prvky.sch/herni_pole_LED.sch/14.sch/DATA_OUT*
X187050000Y-108050000D02*
X185650000Y-109450000D01*
X185650000Y-109450000D02*
X110750000Y-109450000D01*
X187050000Y-104550000D02*
X187050000Y-108050000D01*
X110750000Y-109450000D02*
X110250000Y-109950000D01*
X110250000Y-109950000D02*
X110250000Y-111850000D01*
G04 #@! TO.N,/ovladaci_prvky.sch/herni_pole_LED.sch/16.sch/DATA_OUT*
X187150000Y-111450000D02*
X187150000Y-115250000D01*
X186050000Y-116350000D02*
X110950000Y-116350000D01*
X110950000Y-116350000D02*
X110150000Y-117150000D01*
X187150000Y-115250000D02*
X186050000Y-116350000D01*
X110150000Y-117150000D02*
X110150000Y-118750000D01*
G04 #@! TO.N,/ovladaci_prvky.sch/herni_pole_LED.sch/18.sch/DATA_OUT*
X111970000Y-124150000D02*
X112770000Y-123350000D01*
X187050000Y-122250000D02*
X185950000Y-123350000D01*
X111970000Y-126050000D02*
X111970000Y-124150000D01*
X187050000Y-118250000D02*
X187050000Y-122250000D01*
X112770000Y-123350000D02*
X112870000Y-123350000D01*
X185950000Y-123350000D02*
X112870000Y-123350000D01*
D16*
G04 #@! TO.N,/ovladaci_prvky.sch/GND*
X159770000Y-91350000D02*
X167370000Y-91350000D01*
X159770000Y-112350000D02*
X153350000Y-112350000D01*
X115550000Y-84250000D02*
X121870000Y-84250000D01*
X115450000Y-112350000D02*
X121770000Y-112350000D01*
X159870000Y-105450000D02*
X167370000Y-105450000D01*
X168650000Y-98350000D02*
X168750000Y-98250000D01*
X144470000Y-77450000D02*
X152170000Y-77450000D01*
X136970000Y-119250000D02*
X138350000Y-119250000D01*
X159770000Y-119150000D02*
X168270000Y-119150000D01*
X146510002Y-126450000D02*
X146550000Y-126489998D01*
X138350000Y-119250000D02*
X138450000Y-119150000D01*
X144570000Y-91350000D02*
X152270000Y-91350000D01*
X168370000Y-126450000D02*
X175770000Y-126450000D01*
X131190718Y-126450000D02*
X130270000Y-126450000D01*
X176850000Y-126450000D02*
X181850000Y-126450000D01*
X129270000Y-119250000D02*
X136970000Y-119250000D01*
X115350000Y-91350000D02*
X121770000Y-91350000D01*
X121770000Y-98350000D02*
X129370000Y-98350000D01*
X176150000Y-98250000D02*
X181350000Y-98250000D01*
X138450000Y-119150000D02*
X144670000Y-119150000D01*
X121870000Y-70250000D02*
X123150000Y-70250000D01*
X136970000Y-70250000D02*
X144570000Y-70250000D01*
X175070000Y-70250000D02*
X176250000Y-70250000D01*
X176250000Y-91350000D02*
X181150000Y-91350000D01*
X122870000Y-126350000D02*
X123950000Y-126350000D01*
X121870000Y-84250000D02*
X129470000Y-84250000D01*
X144670000Y-98350000D02*
X152270000Y-98350000D01*
X174970000Y-98250000D02*
X176150000Y-98250000D01*
X137870000Y-126450000D02*
X145470000Y-126450000D01*
X136970000Y-84250000D02*
X144470000Y-84250000D01*
X137870000Y-126450000D02*
X131190718Y-126450000D01*
X114085000Y-129450000D02*
X114085000Y-132540000D01*
X176250000Y-112350000D02*
X181350000Y-112350000D01*
X137070000Y-63250000D02*
X144770000Y-63250000D01*
X144570000Y-70250000D02*
X152270000Y-70250000D01*
X175770000Y-119150000D02*
X176750000Y-119150000D01*
X174970000Y-77450000D02*
X176150000Y-77450000D01*
X181150000Y-105450000D02*
X181450000Y-105450000D01*
X121770000Y-112350000D02*
X129470000Y-112350000D01*
X144470000Y-84250000D02*
X152170000Y-84250000D01*
X167370000Y-63250000D02*
X174970000Y-63250000D01*
X159870000Y-84250000D02*
X167370000Y-84250000D01*
X159770000Y-112350000D02*
X167470000Y-112350000D01*
X152170000Y-77450000D02*
X159670000Y-77450000D01*
X130550000Y-63250000D02*
X135170000Y-63250000D01*
X146550000Y-126489998D02*
X151638569Y-126489998D01*
X115450000Y-119250000D02*
X121770000Y-119250000D01*
X123250000Y-63250000D02*
X127870000Y-63250000D01*
X167470000Y-112350000D02*
X175070000Y-112350000D01*
X129570000Y-70250000D02*
X136970000Y-70250000D01*
X151638569Y-126489998D02*
X152930002Y-126489998D01*
X124050000Y-126450000D02*
X130270000Y-126450000D01*
X153350000Y-112350000D02*
X152170000Y-112350000D01*
X115250000Y-105450000D02*
X121870000Y-105450000D01*
X175070000Y-112350000D02*
X176250000Y-112350000D01*
X176250000Y-70250000D02*
X181350000Y-70250000D01*
X136970000Y-105450000D02*
X144570000Y-105450000D01*
X121770000Y-91350000D02*
X129470000Y-91350000D01*
X152930002Y-126489998D02*
X159465565Y-126489998D01*
X116150000Y-126350000D02*
X122870000Y-126350000D01*
X176350000Y-63250000D02*
X181350000Y-63250000D01*
X167370000Y-91350000D02*
X174970000Y-91350000D01*
X152270000Y-70250000D02*
X159870000Y-70250000D01*
X129470000Y-112350000D02*
X136970000Y-112350000D01*
X159670000Y-77450000D02*
X167370000Y-77450000D01*
X129470000Y-105450000D02*
X136970000Y-105450000D01*
X127970000Y-70250000D02*
X129570000Y-70250000D01*
X129370000Y-98350000D02*
X137170000Y-98350000D01*
X109450000Y-103550000D02*
X107250000Y-103550000D01*
X114085000Y-132540000D02*
X114075000Y-132550000D01*
X106370000Y-103550000D02*
X105070000Y-102250000D01*
X168750000Y-98250000D02*
X174970000Y-98250000D01*
X115550000Y-98350000D02*
X121770000Y-98350000D01*
X144770000Y-63250000D02*
X152170000Y-63250000D01*
X137170000Y-98350000D02*
X144670000Y-98350000D01*
X152270000Y-98350000D02*
X159770000Y-98350000D01*
X121870000Y-105450000D02*
X129470000Y-105450000D01*
X174970000Y-63250000D02*
X176350000Y-63250000D01*
X176150000Y-77450000D02*
X181550000Y-77450000D01*
X167370000Y-77450000D02*
X174970000Y-77450000D01*
X168270000Y-119150000D02*
X175770000Y-119150000D01*
X152170000Y-105450000D02*
X159870000Y-105450000D01*
X167370000Y-98350000D02*
X168650000Y-98350000D01*
X136970000Y-112350000D02*
X144570000Y-112350000D01*
X136970000Y-77450000D02*
X144470000Y-77450000D01*
X145470000Y-126450000D02*
X146510002Y-126450000D01*
X167370000Y-105450000D02*
X174970000Y-105450000D01*
X129470000Y-63250000D02*
X130550000Y-63250000D01*
X174970000Y-105450000D02*
X181150000Y-105450000D01*
X175770000Y-126450000D02*
X176850000Y-126450000D01*
X135170000Y-63250000D02*
X137070000Y-63250000D01*
X115450000Y-77450000D02*
X121870000Y-77450000D01*
X174970000Y-84250000D02*
X176050000Y-84250000D01*
X160770000Y-126450000D02*
X168370000Y-126450000D01*
X160770000Y-126450000D02*
X159505563Y-126450000D01*
X144670000Y-119150000D02*
X152170000Y-119150000D01*
X129470000Y-91350000D02*
X136970000Y-91350000D01*
X123150000Y-70250000D02*
X127970000Y-70250000D01*
X152170000Y-84250000D02*
X159870000Y-84250000D01*
X152170000Y-63250000D02*
X159870000Y-63250000D01*
X159770000Y-98350000D02*
X167370000Y-98350000D01*
X123950000Y-126350000D02*
X124050000Y-126450000D01*
X120370000Y-63250000D02*
X121870000Y-63250000D01*
X167370000Y-84250000D02*
X174970000Y-84250000D01*
X129370000Y-77450000D02*
X136970000Y-77450000D01*
X115650000Y-70250000D02*
X121870000Y-70250000D01*
X174970000Y-91350000D02*
X176250000Y-91350000D01*
X152170000Y-119150000D02*
X159770000Y-119150000D01*
X176750000Y-119150000D02*
X182250000Y-119150000D01*
X144570000Y-112350000D02*
X152170000Y-112350000D01*
X159870000Y-70250000D02*
X167370000Y-70250000D01*
X113050000Y-63250000D02*
X120370000Y-63250000D01*
X176050000Y-84250000D02*
X181150000Y-84250000D01*
X129470000Y-84250000D02*
X136970000Y-84250000D01*
X105070000Y-102250000D02*
X103570000Y-102250000D01*
X136970000Y-91350000D02*
X144570000Y-91350000D01*
X167370000Y-70250000D02*
X175070000Y-70250000D01*
X121770000Y-119250000D02*
X129270000Y-119250000D01*
X144570000Y-105450000D02*
X152170000Y-105450000D01*
X159465565Y-126489998D02*
X159505563Y-126450000D01*
X159870000Y-63250000D02*
X167370000Y-63250000D01*
X121870000Y-63250000D02*
X123250000Y-63250000D01*
X127870000Y-63250000D02*
X129470000Y-63250000D01*
X121870000Y-77450000D02*
X129370000Y-77450000D01*
X107250000Y-103550000D02*
X106370000Y-103550000D01*
X152270000Y-91350000D02*
X159770000Y-91350000D01*
D17*
G04 #@! TO.N,/ovladaci_prvky.sch/DATA_ZADANI_LED*
X107470000Y-57050000D02*
X109270000Y-55250000D01*
X107470000Y-95930000D02*
X107470000Y-77450000D01*
X107470000Y-77450000D02*
X107470000Y-57050000D01*
X103670000Y-99730000D02*
X107470000Y-95930000D01*
D18*
G04 #@! TO.N,/ovladaci_prvky.sch/DATA_HERNI_LED*
X106065000Y-94795000D02*
X103670000Y-97190000D01*
X106065000Y-73955000D02*
X106065000Y-94795000D01*
D17*
G04 #@! TO.N,/ovladaci_prvky.sch/SW_8*
X174535000Y-131035000D02*
X186625000Y-131035000D01*
X173020000Y-132550000D02*
X174535000Y-131035000D01*
G04 #@! TO.N,/ovladaci_prvky.sch/SW_9*
X178545000Y-145350000D02*
X186865000Y-137030000D01*
X186865000Y-137030000D02*
X186865000Y-134930000D01*
G04 #@! TD*
G04 #@! TA.AperFunction,Conductor*
G04 #@! TO.N,/ovladaci_prvky.sch/GND*
G36*
X150512121Y-48720502D02*
G01*
X150558614Y-48774158D01*
X150570000Y-48826500D01*
X150570000Y-60950000D01*
X187570000Y-60950000D01*
X187570000Y-57576000D01*
X187590002Y-57507879D01*
X187643658Y-57461386D01*
X187696000Y-57450000D01*
X198193500Y-57450000D01*
X198261621Y-57470002D01*
X198308114Y-57523658D01*
X198319500Y-57576000D01*
X198319500Y-143412915D01*
X198317079Y-143437496D01*
X198314592Y-143450000D01*
X198317014Y-143462173D01*
X198317014Y-143473119D01*
X198317954Y-143485410D01*
X198301667Y-143858448D01*
X198300709Y-143869399D01*
X198248061Y-144269293D01*
X198246152Y-144280117D01*
X198158856Y-144673889D01*
X198156011Y-144684506D01*
X198043815Y-145040348D01*
X198034726Y-145069174D01*
X198030970Y-145079496D01*
X197911548Y-145367807D01*
X197876612Y-145452149D01*
X197871970Y-145462102D01*
X197693261Y-145805400D01*
X197685730Y-145819867D01*
X197680234Y-145829387D01*
X197463522Y-146169556D01*
X197457218Y-146178560D01*
X197243898Y-146456565D01*
X197211673Y-146498561D01*
X197204609Y-146506978D01*
X196932298Y-146804155D01*
X196932121Y-146804348D01*
X196924352Y-146812117D01*
X196641311Y-147071476D01*
X196626981Y-147084607D01*
X196618564Y-147091670D01*
X196507199Y-147177124D01*
X196298560Y-147337218D01*
X196289556Y-147343522D01*
X195949387Y-147560234D01*
X195939868Y-147565729D01*
X195582102Y-147751970D01*
X195572158Y-147756608D01*
X195199496Y-147910970D01*
X195189181Y-147914723D01*
X194804507Y-148036011D01*
X194793889Y-148038856D01*
X194400117Y-148126152D01*
X194389293Y-148128061D01*
X193989399Y-148180709D01*
X193978448Y-148181667D01*
X193605410Y-148197954D01*
X193593119Y-148197014D01*
X193582173Y-148197014D01*
X193570000Y-148194592D01*
X193557829Y-148197013D01*
X193557827Y-148197013D01*
X193557496Y-148197079D01*
X193532915Y-148199500D01*
X103607085Y-148199500D01*
X103582504Y-148197079D01*
X103582173Y-148197013D01*
X103582171Y-148197013D01*
X103570000Y-148194592D01*
X103557827Y-148197014D01*
X103546881Y-148197014D01*
X103534590Y-148197954D01*
X103161552Y-148181667D01*
X103150601Y-148180709D01*
X102750707Y-148128061D01*
X102739883Y-148126152D01*
X102346111Y-148038856D01*
X102335493Y-148036011D01*
X101950819Y-147914723D01*
X101940504Y-147910970D01*
X101567842Y-147756608D01*
X101557898Y-147751970D01*
X101200132Y-147565729D01*
X101190613Y-147560234D01*
X100850444Y-147343522D01*
X100841440Y-147337218D01*
X100632801Y-147177124D01*
X100521436Y-147091670D01*
X100513019Y-147084607D01*
X100498689Y-147071476D01*
X100215648Y-146812117D01*
X100207879Y-146804348D01*
X100207703Y-146804155D01*
X99935391Y-146506978D01*
X99928327Y-146498561D01*
X99896103Y-146456565D01*
X99682782Y-146178560D01*
X99676478Y-146169556D01*
X99459766Y-145829387D01*
X99454270Y-145819867D01*
X99446739Y-145805400D01*
X99268030Y-145462102D01*
X99263388Y-145452149D01*
X99228453Y-145367807D01*
X99109030Y-145079496D01*
X99105274Y-145069174D01*
X99096186Y-145040348D01*
X98983989Y-144684506D01*
X98981144Y-144673889D01*
X98922053Y-144407341D01*
X99514991Y-144407341D01*
X99529275Y-144748146D01*
X99529813Y-144751619D01*
X99580572Y-145079503D01*
X99581459Y-145085234D01*
X99582381Y-145088626D01*
X99582381Y-145088628D01*
X99611164Y-145194568D01*
X99670892Y-145414405D01*
X99672182Y-145417664D01*
X99672184Y-145417669D01*
X99702809Y-145495018D01*
X99796461Y-145731555D01*
X99798107Y-145734651D01*
X99798109Y-145734655D01*
X99954951Y-146029631D01*
X99956600Y-146032732D01*
X99958585Y-146035631D01*
X100147321Y-146311274D01*
X100147326Y-146311280D01*
X100149312Y-146314181D01*
X100372196Y-146572395D01*
X100622474Y-146804155D01*
X100897026Y-147006572D01*
X100900063Y-147008326D01*
X100900067Y-147008328D01*
X101014483Y-147074386D01*
X101192431Y-147177124D01*
X101195652Y-147178531D01*
X101501783Y-147312277D01*
X101501793Y-147312281D01*
X101505005Y-147313684D01*
X101508362Y-147314723D01*
X101508367Y-147314725D01*
X101827494Y-147413511D01*
X101830854Y-147414551D01*
X101834310Y-147415210D01*
X101834309Y-147415210D01*
X102162465Y-147477810D01*
X102162471Y-147477811D01*
X102165916Y-147478468D01*
X102344627Y-147492219D01*
X102502517Y-147504368D01*
X102502518Y-147504368D01*
X102506014Y-147504637D01*
X102718773Y-147497207D01*
X102843395Y-147492856D01*
X102843400Y-147492856D01*
X102846910Y-147492733D01*
X103015633Y-147467818D01*
X103180876Y-147443417D01*
X103180881Y-147443416D01*
X103184355Y-147442903D01*
X103187747Y-147442007D01*
X103187751Y-147442006D01*
X103510751Y-147356666D01*
X103510752Y-147356666D01*
X103514142Y-147355770D01*
X103832161Y-147232418D01*
X104134448Y-147074386D01*
X104417236Y-146883643D01*
X104505642Y-146808404D01*
X104674326Y-146664842D01*
X104674327Y-146664841D01*
X104676999Y-146662567D01*
X104876613Y-146450000D01*
X106238947Y-146450000D01*
X106239637Y-146456565D01*
X106251812Y-146572395D01*
X106257108Y-146622786D01*
X106259148Y-146629064D01*
X106259148Y-146629065D01*
X106270773Y-146664842D01*
X106310795Y-146788020D01*
X106314098Y-146793742D01*
X106314099Y-146793743D01*
X106320222Y-146804348D01*
X106397664Y-146938481D01*
X106402082Y-146943388D01*
X106402083Y-146943389D01*
X106461256Y-147009107D01*
X106513917Y-147067593D01*
X106519259Y-147071474D01*
X106519261Y-147071476D01*
X106542456Y-147088328D01*
X106654473Y-147169713D01*
X106660501Y-147172397D01*
X106660503Y-147172398D01*
X106791648Y-147230787D01*
X106813190Y-147240378D01*
X106898160Y-147258439D01*
X106976674Y-147275128D01*
X106976678Y-147275128D01*
X106983131Y-147276500D01*
X107156869Y-147276500D01*
X107163322Y-147275128D01*
X107163326Y-147275128D01*
X107241840Y-147258439D01*
X107326810Y-147240378D01*
X107348352Y-147230787D01*
X107479497Y-147172398D01*
X107479499Y-147172397D01*
X107485527Y-147169713D01*
X107597544Y-147088328D01*
X107620739Y-147071476D01*
X107620741Y-147071474D01*
X107626083Y-147067593D01*
X107678744Y-147009107D01*
X107737917Y-146943389D01*
X107737918Y-146943388D01*
X107742336Y-146938481D01*
X107819778Y-146804348D01*
X107825901Y-146793743D01*
X107825902Y-146793742D01*
X107829205Y-146788020D01*
X107869228Y-146664842D01*
X107880852Y-146629065D01*
X107880852Y-146629064D01*
X107882892Y-146622786D01*
X107888189Y-146572395D01*
X107900363Y-146456565D01*
X107901053Y-146450000D01*
X107887058Y-146316849D01*
X107883582Y-146283778D01*
X107883582Y-146283777D01*
X107882892Y-146277214D01*
X107849422Y-146174201D01*
X107831247Y-146118264D01*
X107831246Y-146118262D01*
X107829205Y-146111980D01*
X107742336Y-145961519D01*
X107641575Y-145849612D01*
X107630505Y-145837318D01*
X107630504Y-145837317D01*
X107626083Y-145832407D01*
X107615545Y-145824750D01*
X107490869Y-145734168D01*
X107490868Y-145734167D01*
X107485527Y-145730287D01*
X107479499Y-145727603D01*
X107479497Y-145727602D01*
X107332841Y-145662307D01*
X107332840Y-145662307D01*
X107326810Y-145659622D01*
X107236161Y-145640354D01*
X107163326Y-145624872D01*
X107163322Y-145624872D01*
X107156869Y-145623500D01*
X106983131Y-145623500D01*
X106976678Y-145624872D01*
X106976674Y-145624872D01*
X106903839Y-145640354D01*
X106813190Y-145659622D01*
X106807160Y-145662307D01*
X106807159Y-145662307D01*
X106660504Y-145727602D01*
X106660502Y-145727603D01*
X106654474Y-145730287D01*
X106649133Y-145734167D01*
X106649132Y-145734168D01*
X106519261Y-145828524D01*
X106519259Y-145828526D01*
X106513917Y-145832407D01*
X106509496Y-145837317D01*
X106509495Y-145837318D01*
X106498426Y-145849612D01*
X106397664Y-145961519D01*
X106310795Y-146111980D01*
X106308754Y-146118262D01*
X106308753Y-146118264D01*
X106290578Y-146174201D01*
X106257108Y-146277214D01*
X106256418Y-146283777D01*
X106256418Y-146283778D01*
X106252942Y-146316849D01*
X106238947Y-146450000D01*
X104876613Y-146450000D01*
X104882778Y-146443435D01*
X104908090Y-146416481D01*
X104908094Y-146416476D01*
X104910501Y-146413913D01*
X104912606Y-146411099D01*
X104912612Y-146411092D01*
X105089829Y-146174201D01*
X105114830Y-146140781D01*
X105131728Y-146111980D01*
X105216063Y-145968233D01*
X105287440Y-145846574D01*
X105295092Y-145829387D01*
X105424747Y-145538178D01*
X105424749Y-145538173D01*
X105426179Y-145534961D01*
X105529319Y-145209824D01*
X105595573Y-144875217D01*
X105610560Y-144696745D01*
X105623933Y-144537493D01*
X105623934Y-144537482D01*
X105624116Y-144535309D01*
X105624966Y-144474486D01*
X105625277Y-144452178D01*
X105625277Y-144452166D01*
X105625307Y-144450000D01*
X105623120Y-144410868D01*
X105606462Y-144112937D01*
X105606266Y-144109428D01*
X105568130Y-143883954D01*
X105549968Y-143776570D01*
X105549967Y-143776565D01*
X105549381Y-143773101D01*
X105455360Y-143445211D01*
X105347509Y-143183545D01*
X105326713Y-143133090D01*
X105326709Y-143133083D01*
X105325375Y-143129845D01*
X105161047Y-142830934D01*
X104964424Y-142552203D01*
X104773763Y-142337456D01*
X104740289Y-142299753D01*
X104740283Y-142299747D01*
X104737956Y-142297126D01*
X104484467Y-142068883D01*
X104391404Y-142002257D01*
X104209982Y-141872371D01*
X104209975Y-141872367D01*
X104207115Y-141870319D01*
X103909358Y-141703908D01*
X103594908Y-141571725D01*
X103591545Y-141570735D01*
X103591536Y-141570732D01*
X103390346Y-141511520D01*
X103267682Y-141475418D01*
X102997684Y-141427810D01*
X102935220Y-141416796D01*
X102935218Y-141416796D01*
X102931760Y-141416186D01*
X102928249Y-141415965D01*
X102928248Y-141415965D01*
X102594848Y-141394988D01*
X102594842Y-141394988D01*
X102591330Y-141394767D01*
X102494946Y-141399481D01*
X102254140Y-141411258D01*
X102254132Y-141411259D01*
X102250633Y-141411430D01*
X102247165Y-141411992D01*
X102247162Y-141411992D01*
X101917393Y-141465403D01*
X101917390Y-141465404D01*
X101913918Y-141465966D01*
X101910531Y-141466912D01*
X101910525Y-141466913D01*
X101588774Y-141556748D01*
X101585379Y-141557696D01*
X101582116Y-141559014D01*
X101582114Y-141559015D01*
X101472394Y-141603345D01*
X101269114Y-141685476D01*
X100969062Y-141847713D01*
X100688965Y-142042385D01*
X100686323Y-142044698D01*
X100686319Y-142044701D01*
X100656002Y-142071242D01*
X100432314Y-142267067D01*
X100202307Y-142518956D01*
X100001811Y-142794915D01*
X99833326Y-143091503D01*
X99698951Y-143405023D01*
X99697934Y-143408392D01*
X99646877Y-143577502D01*
X99600361Y-143731569D01*
X99538785Y-144067068D01*
X99538539Y-144070584D01*
X99538539Y-144070585D01*
X99528639Y-144212169D01*
X99514991Y-144407341D01*
X98922053Y-144407341D01*
X98893848Y-144280117D01*
X98891939Y-144269293D01*
X98839291Y-143869399D01*
X98838333Y-143858448D01*
X98822046Y-143485410D01*
X98822986Y-143473119D01*
X98822986Y-143462173D01*
X98825408Y-143450000D01*
X98822921Y-143437496D01*
X98820500Y-143412915D01*
X98820500Y-139450000D01*
X142214600Y-139450000D01*
X142234192Y-139948639D01*
X142292846Y-140444204D01*
X142390200Y-140933639D01*
X142525655Y-141413927D01*
X142625350Y-141684160D01*
X142694028Y-141870319D01*
X142698376Y-141882106D01*
X142699406Y-141884341D01*
X142699408Y-141884345D01*
X142906260Y-142333043D01*
X142906267Y-142333056D01*
X142907297Y-142335291D01*
X143151131Y-142770687D01*
X143428373Y-143185610D01*
X143429909Y-143187558D01*
X143630466Y-143441963D01*
X143737316Y-143577502D01*
X144076054Y-143943946D01*
X144077853Y-143945609D01*
X144428012Y-144269293D01*
X144442498Y-144282684D01*
X144444441Y-144284216D01*
X144444446Y-144284220D01*
X144605098Y-144410868D01*
X144834390Y-144591627D01*
X145249313Y-144868869D01*
X145251475Y-144870080D01*
X145251477Y-144870081D01*
X145316576Y-144906538D01*
X145684709Y-145112703D01*
X145686944Y-145113733D01*
X145686957Y-145113740D01*
X146135655Y-145320592D01*
X146137894Y-145321624D01*
X146606073Y-145494345D01*
X146931684Y-145586177D01*
X147083981Y-145629129D01*
X147083986Y-145629130D01*
X147086361Y-145629800D01*
X147575796Y-145727154D01*
X147770317Y-145750177D01*
X148068908Y-145785518D01*
X148068916Y-145785519D01*
X148071361Y-145785808D01*
X148570000Y-145805400D01*
X149068639Y-145785808D01*
X149071084Y-145785519D01*
X149071092Y-145785518D01*
X149369683Y-145750177D01*
X149564204Y-145727154D01*
X150053639Y-145629800D01*
X150056014Y-145629130D01*
X150056019Y-145629129D01*
X150208316Y-145586177D01*
X150533927Y-145494345D01*
X150943790Y-145343138D01*
X177889758Y-145343138D01*
X177907035Y-145499633D01*
X177961143Y-145647490D01*
X177965380Y-145653796D01*
X177965382Y-145653799D01*
X178005709Y-145713811D01*
X178048958Y-145778172D01*
X178165410Y-145884135D01*
X178172085Y-145887759D01*
X178297099Y-145955637D01*
X178297101Y-145955638D01*
X178303776Y-145959262D01*
X178311125Y-145961190D01*
X178448719Y-145997287D01*
X178448721Y-145997287D01*
X178456069Y-145999215D01*
X178539380Y-146000524D01*
X178605898Y-146001569D01*
X178605901Y-146001569D01*
X178613495Y-146001688D01*
X178766968Y-145966538D01*
X178907625Y-145895795D01*
X178933869Y-145873381D01*
X179021574Y-145798474D01*
X179021576Y-145798471D01*
X179027348Y-145793542D01*
X179119224Y-145665683D01*
X179177950Y-145519598D01*
X179187549Y-145452149D01*
X179199553Y-145367807D01*
X179199553Y-145367804D01*
X179200134Y-145363723D01*
X179200278Y-145350000D01*
X179198049Y-145331584D01*
X179209721Y-145261556D01*
X179234041Y-145227352D01*
X180054052Y-144407341D01*
X191514991Y-144407341D01*
X191529275Y-144748146D01*
X191529813Y-144751619D01*
X191580572Y-145079503D01*
X191581459Y-145085234D01*
X191582381Y-145088626D01*
X191582381Y-145088628D01*
X191611164Y-145194568D01*
X191670892Y-145414405D01*
X191672182Y-145417664D01*
X191672184Y-145417669D01*
X191702809Y-145495018D01*
X191796461Y-145731555D01*
X191798107Y-145734651D01*
X191798109Y-145734655D01*
X191954951Y-146029631D01*
X191956600Y-146032732D01*
X191958585Y-146035631D01*
X192147321Y-146311274D01*
X192147326Y-146311280D01*
X192149312Y-146314181D01*
X192372196Y-146572395D01*
X192622474Y-146804155D01*
X192897026Y-147006572D01*
X192900063Y-147008326D01*
X192900067Y-147008328D01*
X193014483Y-147074386D01*
X193192431Y-147177124D01*
X193195652Y-147178531D01*
X193501783Y-147312277D01*
X193501793Y-147312281D01*
X193505005Y-147313684D01*
X193508362Y-147314723D01*
X193508367Y-147314725D01*
X193827494Y-147413511D01*
X193830854Y-147414551D01*
X193834310Y-147415210D01*
X193834309Y-147415210D01*
X194162465Y-147477810D01*
X194162471Y-147477811D01*
X194165916Y-147478468D01*
X194344627Y-147492219D01*
X194502517Y-147504368D01*
X194502518Y-147504368D01*
X194506014Y-147504637D01*
X194718773Y-147497207D01*
X194843395Y-147492856D01*
X194843400Y-147492856D01*
X194846910Y-147492733D01*
X195015632Y-147467818D01*
X195180876Y-147443417D01*
X195180881Y-147443416D01*
X195184355Y-147442903D01*
X195187747Y-147442007D01*
X195187751Y-147442006D01*
X195510751Y-147356666D01*
X195510752Y-147356666D01*
X195514142Y-147355770D01*
X195832161Y-147232418D01*
X196134448Y-147074386D01*
X196417236Y-146883643D01*
X196505642Y-146808404D01*
X196674326Y-146664842D01*
X196674327Y-146664841D01*
X196676999Y-146662567D01*
X196882778Y-146443435D01*
X196908090Y-146416481D01*
X196908094Y-146416476D01*
X196910501Y-146413913D01*
X196912606Y-146411099D01*
X196912612Y-146411092D01*
X197089829Y-146174201D01*
X197114830Y-146140781D01*
X197131728Y-146111980D01*
X197216063Y-145968233D01*
X197287440Y-145846574D01*
X197295092Y-145829387D01*
X197424747Y-145538178D01*
X197424749Y-145538173D01*
X197426179Y-145534961D01*
X197529319Y-145209824D01*
X197595573Y-144875217D01*
X197610560Y-144696745D01*
X197623933Y-144537493D01*
X197623934Y-144537482D01*
X197624116Y-144535309D01*
X197624966Y-144474486D01*
X197625277Y-144452178D01*
X197625277Y-144452166D01*
X197625307Y-144450000D01*
X197623120Y-144410868D01*
X197606462Y-144112937D01*
X197606266Y-144109428D01*
X197568130Y-143883954D01*
X197549968Y-143776570D01*
X197549967Y-143776565D01*
X197549381Y-143773101D01*
X197455360Y-143445211D01*
X197347509Y-143183545D01*
X197326713Y-143133090D01*
X197326709Y-143133083D01*
X197325375Y-143129845D01*
X197161047Y-142830934D01*
X196964424Y-142552203D01*
X196773763Y-142337456D01*
X196740289Y-142299753D01*
X196740283Y-142299747D01*
X196737956Y-142297126D01*
X196484467Y-142068883D01*
X196391404Y-142002257D01*
X196209982Y-141872371D01*
X196209975Y-141872367D01*
X196207115Y-141870319D01*
X195909358Y-141703908D01*
X195594908Y-141571725D01*
X195591545Y-141570735D01*
X195591536Y-141570732D01*
X195390346Y-141511520D01*
X195267682Y-141475418D01*
X194997684Y-141427810D01*
X194935220Y-141416796D01*
X194935218Y-141416796D01*
X194931760Y-141416186D01*
X194928249Y-141415965D01*
X194928248Y-141415965D01*
X194594848Y-141394988D01*
X194594842Y-141394988D01*
X194591330Y-141394767D01*
X194494946Y-141399481D01*
X194254140Y-141411258D01*
X194254132Y-141411259D01*
X194250633Y-141411430D01*
X194247165Y-141411992D01*
X194247162Y-141411992D01*
X193917393Y-141465403D01*
X193917390Y-141465404D01*
X193913918Y-141465966D01*
X193910531Y-141466912D01*
X193910525Y-141466913D01*
X193588774Y-141556748D01*
X193585379Y-141557696D01*
X193582116Y-141559014D01*
X193582114Y-141559015D01*
X193472394Y-141603345D01*
X193269114Y-141685476D01*
X192969062Y-141847713D01*
X192688965Y-142042385D01*
X192686323Y-142044698D01*
X192686319Y-142044701D01*
X192656002Y-142071242D01*
X192432314Y-142267067D01*
X192202307Y-142518956D01*
X192001811Y-142794915D01*
X191833326Y-143091503D01*
X191698951Y-143405023D01*
X191697934Y-143408392D01*
X191646877Y-143577502D01*
X191600361Y-143731569D01*
X191538785Y-144067068D01*
X191538539Y-144070584D01*
X191538539Y-144070585D01*
X191528639Y-144212169D01*
X191514991Y-144407341D01*
X180054052Y-144407341D01*
X187170484Y-137290909D01*
X187170487Y-137290905D01*
X187193050Y-137268342D01*
X187197555Y-137259501D01*
X187203037Y-137248742D01*
X187213365Y-137231887D01*
X187220467Y-137222112D01*
X187226296Y-137214089D01*
X187233094Y-137193168D01*
X187240658Y-137174908D01*
X187246144Y-137164141D01*
X187246145Y-137164137D01*
X187250646Y-137155304D01*
X187254087Y-137133578D01*
X187258703Y-137114353D01*
X187262435Y-137102868D01*
X187262436Y-137102864D01*
X187265500Y-137093433D01*
X187265500Y-135501534D01*
X187285502Y-135433413D01*
X187309669Y-135405723D01*
X187341576Y-135378472D01*
X187341577Y-135378471D01*
X187347348Y-135373542D01*
X187439224Y-135245683D01*
X187497950Y-135099598D01*
X187520134Y-134943723D01*
X187520278Y-134930000D01*
X187501363Y-134773694D01*
X187445710Y-134626412D01*
X187356531Y-134496657D01*
X187309971Y-134455174D01*
X187244648Y-134396972D01*
X187244645Y-134396970D01*
X187238976Y-134391919D01*
X187099831Y-134318245D01*
X187055035Y-134306993D01*
X186954498Y-134281740D01*
X186954496Y-134281740D01*
X186947128Y-134279889D01*
X186939530Y-134279849D01*
X186939528Y-134279849D01*
X186872319Y-134279497D01*
X186789684Y-134279065D01*
X186782305Y-134280837D01*
X186782301Y-134280837D01*
X186643967Y-134314048D01*
X186643963Y-134314049D01*
X186636588Y-134315820D01*
X186496679Y-134388032D01*
X186490957Y-134393024D01*
X186490955Y-134393025D01*
X186383759Y-134486538D01*
X186383756Y-134486541D01*
X186378034Y-134491533D01*
X186287501Y-134620348D01*
X186230309Y-134767039D01*
X186229318Y-134774568D01*
X186218143Y-134859451D01*
X186209758Y-134923138D01*
X186227035Y-135079633D01*
X186281143Y-135227490D01*
X186285380Y-135233796D01*
X186285382Y-135233799D01*
X186325709Y-135293811D01*
X186368958Y-135358172D01*
X186374576Y-135363284D01*
X186423299Y-135407618D01*
X186460222Y-135468258D01*
X186464500Y-135500812D01*
X186464500Y-136811917D01*
X186444498Y-136880038D01*
X186427595Y-136901012D01*
X178665888Y-144662719D01*
X178603576Y-144696745D01*
X178576134Y-144699622D01*
X178544601Y-144699457D01*
X178469684Y-144699065D01*
X178462305Y-144700837D01*
X178462301Y-144700837D01*
X178323967Y-144734048D01*
X178323963Y-144734049D01*
X178316588Y-144735820D01*
X178176679Y-144808032D01*
X178170957Y-144813024D01*
X178170955Y-144813025D01*
X178063759Y-144906538D01*
X178063756Y-144906541D01*
X178058034Y-144911533D01*
X177967501Y-145040348D01*
X177910309Y-145187039D01*
X177909318Y-145194568D01*
X177891279Y-145331587D01*
X177889758Y-145343138D01*
X150943790Y-145343138D01*
X151002106Y-145321624D01*
X151004345Y-145320592D01*
X151453043Y-145113740D01*
X151453056Y-145113733D01*
X151455291Y-145112703D01*
X151823424Y-144906538D01*
X151888523Y-144870081D01*
X151888525Y-144870080D01*
X151890687Y-144868869D01*
X152305610Y-144591627D01*
X152534902Y-144410868D01*
X152695554Y-144284220D01*
X152695559Y-144284216D01*
X152697502Y-144282684D01*
X152711989Y-144269293D01*
X153062147Y-143945609D01*
X153063946Y-143943946D01*
X153402684Y-143577502D01*
X153509535Y-143441963D01*
X153710091Y-143187558D01*
X153711627Y-143185610D01*
X153988869Y-142770687D01*
X154232703Y-142335291D01*
X154233733Y-142333056D01*
X154233740Y-142333043D01*
X154440592Y-141884345D01*
X154440594Y-141884341D01*
X154441624Y-141882106D01*
X154445973Y-141870319D01*
X154514650Y-141684160D01*
X154614345Y-141413927D01*
X154749800Y-140933639D01*
X154847154Y-140444204D01*
X154905808Y-139948639D01*
X154925400Y-139450000D01*
X154905808Y-138951361D01*
X154847154Y-138455796D01*
X154749800Y-137966361D01*
X154727359Y-137886789D01*
X154615018Y-137488461D01*
X154614345Y-137486073D01*
X154441624Y-137017894D01*
X154440592Y-137015655D01*
X154233740Y-136566957D01*
X154233733Y-136566944D01*
X154232703Y-136564709D01*
X153988869Y-136129313D01*
X153711627Y-135714390D01*
X153498033Y-135443447D01*
X153404220Y-135324446D01*
X153404216Y-135324441D01*
X153402684Y-135322498D01*
X153320692Y-135233799D01*
X153065609Y-134957853D01*
X153063946Y-134956054D01*
X152867616Y-134774568D01*
X152699322Y-134618998D01*
X152699316Y-134618993D01*
X152697502Y-134617316D01*
X152647411Y-134577827D01*
X152412990Y-134393025D01*
X152305610Y-134308373D01*
X152264400Y-134280837D01*
X151930242Y-134057561D01*
X151890687Y-134031131D01*
X151455291Y-133787297D01*
X151453056Y-133786267D01*
X151453043Y-133786260D01*
X151004345Y-133579408D01*
X151004341Y-133579406D01*
X151002106Y-133578376D01*
X150533927Y-133405655D01*
X150208316Y-133313823D01*
X150056019Y-133270871D01*
X150056014Y-133270870D01*
X150053639Y-133270200D01*
X149564204Y-133172846D01*
X149369683Y-133149823D01*
X149071092Y-133114482D01*
X149071084Y-133114481D01*
X149068639Y-133114192D01*
X148570000Y-133094600D01*
X148071361Y-133114192D01*
X148068916Y-133114481D01*
X148068908Y-133114482D01*
X147770317Y-133149823D01*
X147575796Y-133172846D01*
X147086361Y-133270200D01*
X147083986Y-133270870D01*
X147083981Y-133270871D01*
X146931684Y-133313823D01*
X146606073Y-133405655D01*
X146137894Y-133578376D01*
X146135659Y-133579406D01*
X146135655Y-133579408D01*
X145686957Y-133786260D01*
X145686944Y-133786267D01*
X145684709Y-133787297D01*
X145249313Y-134031131D01*
X145209758Y-134057561D01*
X144875601Y-134280837D01*
X144834390Y-134308373D01*
X144727010Y-134393025D01*
X144492590Y-134577827D01*
X144442498Y-134617316D01*
X144440684Y-134618993D01*
X144440678Y-134618998D01*
X144272384Y-134774568D01*
X144076054Y-134956054D01*
X144074391Y-134957853D01*
X143819309Y-135233799D01*
X143737316Y-135322498D01*
X143735784Y-135324441D01*
X143735780Y-135324446D01*
X143641967Y-135443447D01*
X143428373Y-135714390D01*
X143151131Y-136129313D01*
X142907297Y-136564709D01*
X142906267Y-136566944D01*
X142906260Y-136566957D01*
X142699408Y-137015655D01*
X142698376Y-137017894D01*
X142525655Y-137486073D01*
X142524982Y-137488461D01*
X142412642Y-137886789D01*
X142390200Y-137966361D01*
X142292846Y-138455796D01*
X142234192Y-138951361D01*
X142220215Y-139307084D01*
X142214600Y-139450000D01*
X98820500Y-139450000D01*
X98820500Y-132543138D01*
X172364758Y-132543138D01*
X172382035Y-132699633D01*
X172436143Y-132847490D01*
X172440380Y-132853796D01*
X172440382Y-132853799D01*
X172480709Y-132913811D01*
X172523958Y-132978172D01*
X172640410Y-133084135D01*
X172647085Y-133087759D01*
X172772099Y-133155637D01*
X172772101Y-133155638D01*
X172778776Y-133159262D01*
X172786125Y-133161190D01*
X172923719Y-133197287D01*
X172923721Y-133197287D01*
X172931069Y-133199215D01*
X173014380Y-133200524D01*
X173080898Y-133201569D01*
X173080901Y-133201569D01*
X173088495Y-133201688D01*
X173241968Y-133166538D01*
X173382625Y-133095795D01*
X173408869Y-133073381D01*
X173496574Y-132998474D01*
X173496576Y-132998471D01*
X173502348Y-132993542D01*
X173594224Y-132865683D01*
X173652950Y-132719598D01*
X173675134Y-132563723D01*
X173675278Y-132550000D01*
X173673049Y-132531584D01*
X173684721Y-132461556D01*
X173709041Y-132427352D01*
X174663988Y-131472405D01*
X174726300Y-131438379D01*
X174753083Y-131435500D01*
X186049800Y-131435500D01*
X186117921Y-131455502D01*
X186134599Y-131468306D01*
X186239789Y-131564021D01*
X186239793Y-131564024D01*
X186245410Y-131569135D01*
X186252085Y-131572759D01*
X186377099Y-131640637D01*
X186377101Y-131640638D01*
X186383776Y-131644262D01*
X186391125Y-131646190D01*
X186528719Y-131682287D01*
X186528721Y-131682287D01*
X186536069Y-131684215D01*
X186619380Y-131685524D01*
X186685898Y-131686569D01*
X186685901Y-131686569D01*
X186693495Y-131686688D01*
X186846968Y-131651538D01*
X186987625Y-131580795D01*
X187013869Y-131558381D01*
X187101574Y-131483474D01*
X187101576Y-131483471D01*
X187107348Y-131478542D01*
X187199224Y-131350683D01*
X187257950Y-131204598D01*
X187280134Y-131048723D01*
X187280278Y-131035000D01*
X187261363Y-130878694D01*
X187205710Y-130731412D01*
X187116531Y-130601657D01*
X187069971Y-130560174D01*
X187004648Y-130501972D01*
X187004645Y-130501970D01*
X186998976Y-130496919D01*
X186859831Y-130423245D01*
X186843122Y-130419048D01*
X186714498Y-130386740D01*
X186714496Y-130386740D01*
X186707128Y-130384889D01*
X186699530Y-130384849D01*
X186699528Y-130384849D01*
X186632319Y-130384497D01*
X186549684Y-130384065D01*
X186542305Y-130385837D01*
X186542301Y-130385837D01*
X186403967Y-130419048D01*
X186403963Y-130419049D01*
X186396588Y-130420820D01*
X186256679Y-130493032D01*
X186250957Y-130498024D01*
X186250955Y-130498025D01*
X186143762Y-130591536D01*
X186138034Y-130596533D01*
X186137523Y-130595947D01*
X186082170Y-130630050D01*
X186048978Y-130634500D01*
X174471567Y-130634500D01*
X174462135Y-130637565D01*
X174462133Y-130637565D01*
X174450648Y-130641297D01*
X174431422Y-130645913D01*
X174409696Y-130649354D01*
X174400861Y-130653856D01*
X174400860Y-130653856D01*
X174390097Y-130659340D01*
X174371836Y-130666904D01*
X174350911Y-130673703D01*
X174342887Y-130679533D01*
X174333113Y-130686634D01*
X174316257Y-130696963D01*
X174305493Y-130702448D01*
X174305492Y-130702449D01*
X174296658Y-130706950D01*
X174274095Y-130729513D01*
X174274091Y-130729516D01*
X173140888Y-131862719D01*
X173078576Y-131896745D01*
X173051134Y-131899622D01*
X173019601Y-131899457D01*
X172944684Y-131899065D01*
X172937305Y-131900837D01*
X172937301Y-131900837D01*
X172798967Y-131934048D01*
X172798963Y-131934049D01*
X172791588Y-131935820D01*
X172651679Y-132008032D01*
X172645957Y-132013024D01*
X172645955Y-132013025D01*
X172538759Y-132106538D01*
X172538756Y-132106541D01*
X172533034Y-132111533D01*
X172442501Y-132240348D01*
X172385309Y-132387039D01*
X172384318Y-132394568D01*
X172366279Y-132531587D01*
X172364758Y-132543138D01*
X98820500Y-132543138D01*
X98820500Y-126050000D01*
X111414750Y-126050000D01*
X111433670Y-126193709D01*
X111489139Y-126327625D01*
X111577379Y-126442621D01*
X111692375Y-126530861D01*
X111826291Y-126586330D01*
X111970000Y-126605250D01*
X112113709Y-126586330D01*
X112247625Y-126530861D01*
X112362621Y-126442621D01*
X112450861Y-126327625D01*
X112506330Y-126193709D01*
X112525250Y-126050000D01*
X112506330Y-125906291D01*
X112450861Y-125772375D01*
X112371538Y-125669000D01*
X112345937Y-125602780D01*
X112345500Y-125592296D01*
X112345500Y-124357727D01*
X112365502Y-124289606D01*
X112382405Y-124268632D01*
X112888632Y-123762405D01*
X112950944Y-123728379D01*
X112977727Y-123725500D01*
X185896504Y-123725500D01*
X185919801Y-123727979D01*
X185921886Y-123728077D01*
X185932066Y-123730269D01*
X185964984Y-123726373D01*
X185970821Y-123726029D01*
X185970813Y-123725928D01*
X185975992Y-123725500D01*
X185981193Y-123725500D01*
X185986321Y-123724646D01*
X185986327Y-123724646D01*
X185999987Y-123722372D01*
X186005863Y-123721535D01*
X186010952Y-123720933D01*
X186056210Y-123715576D01*
X186064377Y-123711654D01*
X186073313Y-123710167D01*
X186082475Y-123705223D01*
X186082479Y-123705222D01*
X186117929Y-123686094D01*
X186123220Y-123683398D01*
X186161749Y-123664897D01*
X186161750Y-123664896D01*
X186168900Y-123661463D01*
X186173131Y-123657906D01*
X186175063Y-123655974D01*
X186176937Y-123654255D01*
X186177074Y-123654181D01*
X186177174Y-123654291D01*
X186177654Y-123653868D01*
X186183329Y-123650806D01*
X186219541Y-123611632D01*
X186222970Y-123608067D01*
X187277689Y-122553348D01*
X187295920Y-122538623D01*
X187297460Y-122537222D01*
X187306210Y-122531572D01*
X187326736Y-122505535D01*
X187330617Y-122501168D01*
X187330539Y-122501102D01*
X187333893Y-122497144D01*
X187337575Y-122493462D01*
X187348661Y-122477948D01*
X187352217Y-122473212D01*
X187383603Y-122433400D01*
X187386605Y-122424851D01*
X187391872Y-122417481D01*
X187406396Y-122368917D01*
X187408231Y-122363270D01*
X187422395Y-122322936D01*
X187422395Y-122322935D01*
X187425023Y-122315452D01*
X187425500Y-122309945D01*
X187425500Y-122307238D01*
X187425611Y-122304668D01*
X187425659Y-122304506D01*
X187425804Y-122304512D01*
X187425843Y-122303892D01*
X187427691Y-122297713D01*
X187425597Y-122244419D01*
X187425500Y-122239473D01*
X187425500Y-118707704D01*
X187445502Y-118639583D01*
X187451538Y-118631000D01*
X187530861Y-118527625D01*
X187586330Y-118393709D01*
X187605250Y-118250000D01*
X187586330Y-118106291D01*
X187530861Y-117972375D01*
X187442621Y-117857379D01*
X187327625Y-117769139D01*
X187193709Y-117713670D01*
X187050000Y-117694750D01*
X186906291Y-117713670D01*
X186772375Y-117769139D01*
X186657379Y-117857379D01*
X186569139Y-117972375D01*
X186513670Y-118106291D01*
X186494750Y-118250000D01*
X186513670Y-118393709D01*
X186569139Y-118527625D01*
X186648462Y-118631000D01*
X186674063Y-118697220D01*
X186674500Y-118707704D01*
X186674500Y-122042273D01*
X186654498Y-122110394D01*
X186637595Y-122131368D01*
X185831368Y-122937595D01*
X185769056Y-122971621D01*
X185742273Y-122974500D01*
X112823496Y-122974500D01*
X112800199Y-122972021D01*
X112798114Y-122971923D01*
X112787934Y-122969731D01*
X112755871Y-122973526D01*
X112755016Y-122973627D01*
X112749179Y-122973971D01*
X112749187Y-122974072D01*
X112744011Y-122974500D01*
X112738807Y-122974500D01*
X112726496Y-122976549D01*
X112720011Y-122977628D01*
X112714134Y-122978465D01*
X112663791Y-122984424D01*
X112655625Y-122988345D01*
X112646687Y-122989833D01*
X112637524Y-122994777D01*
X112602067Y-123013908D01*
X112596778Y-123016602D01*
X112558247Y-123035104D01*
X112558241Y-123035108D01*
X112551100Y-123038537D01*
X112546869Y-123042094D01*
X112544940Y-123044023D01*
X112543063Y-123045745D01*
X112542926Y-123045819D01*
X112542826Y-123045709D01*
X112542346Y-123046132D01*
X112536671Y-123049194D01*
X112529602Y-123056841D01*
X112529601Y-123056842D01*
X112500460Y-123088367D01*
X112497030Y-123091933D01*
X111742311Y-123846652D01*
X111724080Y-123861377D01*
X111722540Y-123862778D01*
X111713790Y-123868428D01*
X111707343Y-123876606D01*
X111693264Y-123894465D01*
X111689383Y-123898832D01*
X111689461Y-123898898D01*
X111686107Y-123902856D01*
X111682425Y-123906538D01*
X111671339Y-123922052D01*
X111667788Y-123926781D01*
X111636397Y-123966600D01*
X111633395Y-123975149D01*
X111628128Y-123982519D01*
X111625144Y-123992498D01*
X111613608Y-124031070D01*
X111611774Y-124036714D01*
X111597604Y-124077065D01*
X111597603Y-124077071D01*
X111594977Y-124084548D01*
X111594500Y-124090055D01*
X111594500Y-124092762D01*
X111594389Y-124095335D01*
X111594341Y-124095494D01*
X111594197Y-124095488D01*
X111594158Y-124096108D01*
X111592310Y-124102287D01*
X111592719Y-124112692D01*
X111594403Y-124155555D01*
X111594500Y-124160502D01*
X111594500Y-125592296D01*
X111574498Y-125660417D01*
X111568464Y-125668998D01*
X111489139Y-125772375D01*
X111433670Y-125906291D01*
X111414750Y-126050000D01*
X98820500Y-126050000D01*
X98820500Y-118743138D01*
X109494758Y-118743138D01*
X109512035Y-118899633D01*
X109566143Y-119047490D01*
X109570380Y-119053796D01*
X109570382Y-119053799D01*
X109610709Y-119113811D01*
X109653958Y-119178172D01*
X109770410Y-119284135D01*
X109777085Y-119287759D01*
X109902099Y-119355637D01*
X109902101Y-119355638D01*
X109908776Y-119359262D01*
X109916125Y-119361190D01*
X110053719Y-119397287D01*
X110053721Y-119397287D01*
X110061069Y-119399215D01*
X110144380Y-119400524D01*
X110210898Y-119401569D01*
X110210901Y-119401569D01*
X110218495Y-119401688D01*
X110371968Y-119366538D01*
X110512625Y-119295795D01*
X110538869Y-119273381D01*
X110626574Y-119198474D01*
X110626576Y-119198471D01*
X110632348Y-119193542D01*
X110724224Y-119065683D01*
X110782950Y-118919598D01*
X110805134Y-118763723D01*
X110805278Y-118750000D01*
X110786363Y-118593694D01*
X110730710Y-118446412D01*
X110641531Y-118316657D01*
X110567681Y-118250859D01*
X110530125Y-118190609D01*
X110525500Y-118156783D01*
X110525500Y-117357727D01*
X110545502Y-117289606D01*
X110562405Y-117268632D01*
X111068632Y-116762405D01*
X111130944Y-116728379D01*
X111157727Y-116725500D01*
X185996504Y-116725500D01*
X186019801Y-116727979D01*
X186021886Y-116728077D01*
X186032066Y-116730269D01*
X186064984Y-116726373D01*
X186070821Y-116726029D01*
X186070813Y-116725928D01*
X186075992Y-116725500D01*
X186081193Y-116725500D01*
X186086321Y-116724646D01*
X186086327Y-116724646D01*
X186099987Y-116722372D01*
X186105863Y-116721535D01*
X186110952Y-116720933D01*
X186156210Y-116715576D01*
X186164377Y-116711654D01*
X186173313Y-116710167D01*
X186182475Y-116705223D01*
X186182479Y-116705222D01*
X186217929Y-116686094D01*
X186223220Y-116683398D01*
X186261749Y-116664897D01*
X186261750Y-116664896D01*
X186268900Y-116661463D01*
X186273131Y-116657906D01*
X186275063Y-116655974D01*
X186276937Y-116654255D01*
X186277074Y-116654181D01*
X186277174Y-116654291D01*
X186277654Y-116653868D01*
X186283329Y-116650806D01*
X186319541Y-116611632D01*
X186322970Y-116608067D01*
X187377689Y-115553348D01*
X187395920Y-115538623D01*
X187397460Y-115537222D01*
X187406210Y-115531572D01*
X187426736Y-115505535D01*
X187430617Y-115501168D01*
X187430539Y-115501102D01*
X187433893Y-115497144D01*
X187437575Y-115493462D01*
X187448661Y-115477948D01*
X187452217Y-115473212D01*
X187483603Y-115433400D01*
X187486605Y-115424851D01*
X187491872Y-115417481D01*
X187506396Y-115368917D01*
X187508231Y-115363270D01*
X187522395Y-115322936D01*
X187522395Y-115322935D01*
X187525023Y-115315452D01*
X187525500Y-115309945D01*
X187525500Y-115307238D01*
X187525611Y-115304668D01*
X187525659Y-115304506D01*
X187525804Y-115304512D01*
X187525843Y-115303892D01*
X187527691Y-115297713D01*
X187525597Y-115244419D01*
X187525500Y-115239473D01*
X187525500Y-111907704D01*
X187545502Y-111839583D01*
X187551538Y-111831000D01*
X187630861Y-111727625D01*
X187686330Y-111593709D01*
X187705250Y-111450000D01*
X187686330Y-111306291D01*
X187630861Y-111172375D01*
X187542621Y-111057379D01*
X187427625Y-110969139D01*
X187293709Y-110913670D01*
X187150000Y-110894750D01*
X187006291Y-110913670D01*
X186872375Y-110969139D01*
X186757379Y-111057379D01*
X186669139Y-111172375D01*
X186613670Y-111306291D01*
X186594750Y-111450000D01*
X186613670Y-111593709D01*
X186669139Y-111727625D01*
X186748462Y-111831000D01*
X186774063Y-111897220D01*
X186774500Y-111907704D01*
X186774500Y-115042273D01*
X186754498Y-115110394D01*
X186737595Y-115131368D01*
X185931368Y-115937595D01*
X185869056Y-115971621D01*
X185842273Y-115974500D01*
X111003496Y-115974500D01*
X110980199Y-115972021D01*
X110978114Y-115971923D01*
X110967934Y-115969731D01*
X110935871Y-115973526D01*
X110935016Y-115973627D01*
X110929179Y-115973971D01*
X110929187Y-115974072D01*
X110924011Y-115974500D01*
X110918807Y-115974500D01*
X110906496Y-115976549D01*
X110900011Y-115977628D01*
X110894134Y-115978465D01*
X110843791Y-115984424D01*
X110835625Y-115988345D01*
X110826687Y-115989833D01*
X110817524Y-115994777D01*
X110782067Y-116013908D01*
X110776778Y-116016602D01*
X110738247Y-116035104D01*
X110738241Y-116035108D01*
X110731100Y-116038537D01*
X110726869Y-116042094D01*
X110724940Y-116044023D01*
X110723063Y-116045745D01*
X110722926Y-116045819D01*
X110722826Y-116045709D01*
X110722346Y-116046132D01*
X110716671Y-116049194D01*
X110709602Y-116056841D01*
X110709601Y-116056842D01*
X110680460Y-116088367D01*
X110677030Y-116091933D01*
X109922311Y-116846652D01*
X109904080Y-116861377D01*
X109902540Y-116862778D01*
X109893790Y-116868428D01*
X109887343Y-116876606D01*
X109873264Y-116894465D01*
X109869383Y-116898832D01*
X109869461Y-116898898D01*
X109866107Y-116902856D01*
X109862425Y-116906538D01*
X109851339Y-116922052D01*
X109847788Y-116926781D01*
X109816397Y-116966600D01*
X109813395Y-116975149D01*
X109808128Y-116982519D01*
X109805144Y-116992498D01*
X109793608Y-117031070D01*
X109791774Y-117036714D01*
X109777604Y-117077065D01*
X109777603Y-117077071D01*
X109774977Y-117084548D01*
X109774500Y-117090055D01*
X109774500Y-117092762D01*
X109774389Y-117095335D01*
X109774341Y-117095494D01*
X109774197Y-117095488D01*
X109774158Y-117096108D01*
X109772310Y-117102287D01*
X109772719Y-117112692D01*
X109774403Y-117155555D01*
X109774500Y-117160502D01*
X109774500Y-118157006D01*
X109754498Y-118225127D01*
X109731331Y-118251953D01*
X109663034Y-118311533D01*
X109658667Y-118317747D01*
X109605280Y-118393709D01*
X109572501Y-118440348D01*
X109515309Y-118587039D01*
X109494758Y-118743138D01*
X98820500Y-118743138D01*
X98820500Y-111843138D01*
X109594758Y-111843138D01*
X109612035Y-111999633D01*
X109666143Y-112147490D01*
X109670380Y-112153796D01*
X109670382Y-112153799D01*
X109710709Y-112213811D01*
X109753958Y-112278172D01*
X109870410Y-112384135D01*
X109877085Y-112387759D01*
X110002099Y-112455637D01*
X110002101Y-112455638D01*
X110008776Y-112459262D01*
X110016125Y-112461190D01*
X110153719Y-112497287D01*
X110153721Y-112497287D01*
X110161069Y-112499215D01*
X110244380Y-112500524D01*
X110310898Y-112501569D01*
X110310901Y-112501569D01*
X110318495Y-112501688D01*
X110471968Y-112466538D01*
X110612625Y-112395795D01*
X110638869Y-112373381D01*
X110726574Y-112298474D01*
X110726576Y-112298471D01*
X110732348Y-112293542D01*
X110824224Y-112165683D01*
X110882950Y-112019598D01*
X110905134Y-111863723D01*
X110905278Y-111850000D01*
X110904018Y-111839583D01*
X110887275Y-111701234D01*
X110886363Y-111693694D01*
X110881175Y-111679963D01*
X110833394Y-111553514D01*
X110833393Y-111553511D01*
X110830710Y-111546412D01*
X110741531Y-111416657D01*
X110667681Y-111350859D01*
X110630125Y-111290609D01*
X110625500Y-111256783D01*
X110625500Y-110157728D01*
X110645502Y-110089607D01*
X110662405Y-110068632D01*
X110868634Y-109862404D01*
X110930946Y-109828379D01*
X110957729Y-109825500D01*
X185596504Y-109825500D01*
X185619801Y-109827979D01*
X185621886Y-109828077D01*
X185632066Y-109830269D01*
X185664984Y-109826373D01*
X185670821Y-109826029D01*
X185670813Y-109825928D01*
X185675992Y-109825500D01*
X185681193Y-109825500D01*
X185686321Y-109824646D01*
X185686327Y-109824646D01*
X185699987Y-109822372D01*
X185705863Y-109821535D01*
X185710952Y-109820933D01*
X185756210Y-109815576D01*
X185764377Y-109811654D01*
X185773313Y-109810167D01*
X185782475Y-109805223D01*
X185782479Y-109805222D01*
X185817929Y-109786094D01*
X185823220Y-109783398D01*
X185861749Y-109764897D01*
X185861750Y-109764896D01*
X185868900Y-109761463D01*
X185873131Y-109757906D01*
X185875063Y-109755974D01*
X185876937Y-109754255D01*
X185877074Y-109754181D01*
X185877174Y-109754291D01*
X185877654Y-109753868D01*
X185883329Y-109750806D01*
X185919541Y-109711632D01*
X185922970Y-109708067D01*
X187277689Y-108353348D01*
X187295920Y-108338623D01*
X187297460Y-108337222D01*
X187306210Y-108331572D01*
X187326736Y-108305535D01*
X187330617Y-108301168D01*
X187330539Y-108301102D01*
X187333893Y-108297144D01*
X187337575Y-108293462D01*
X187348661Y-108277948D01*
X187352217Y-108273212D01*
X187374715Y-108244674D01*
X192469500Y-108244674D01*
X192484034Y-108317740D01*
X192539399Y-108400601D01*
X192622260Y-108455966D01*
X192695326Y-108470500D01*
X194444674Y-108470500D01*
X194517740Y-108455966D01*
X194600601Y-108400601D01*
X194655966Y-108317740D01*
X194670500Y-108244674D01*
X194670500Y-106495326D01*
X194655966Y-106422260D01*
X194600601Y-106339399D01*
X194517740Y-106284034D01*
X194444674Y-106269500D01*
X192695326Y-106269500D01*
X192622260Y-106284034D01*
X192539399Y-106339399D01*
X192484034Y-106422260D01*
X192469500Y-106495326D01*
X192469500Y-108244674D01*
X187374715Y-108244674D01*
X187383603Y-108233400D01*
X187386605Y-108224851D01*
X187391872Y-108217481D01*
X187406392Y-108168930D01*
X187408226Y-108163286D01*
X187422396Y-108122935D01*
X187422397Y-108122929D01*
X187425023Y-108115452D01*
X187425500Y-108109945D01*
X187425500Y-108107238D01*
X187425611Y-108104665D01*
X187425659Y-108104506D01*
X187425803Y-108104512D01*
X187425842Y-108103892D01*
X187427690Y-108097713D01*
X187425597Y-108044444D01*
X187425500Y-108039498D01*
X187425500Y-105007704D01*
X187445502Y-104939583D01*
X187451538Y-104931000D01*
X187481835Y-104891516D01*
X187530861Y-104827625D01*
X187541861Y-104801069D01*
X192465164Y-104801069D01*
X192478392Y-105002894D01*
X192496319Y-105073481D01*
X192523099Y-105178928D01*
X192528178Y-105198928D01*
X192612856Y-105382607D01*
X192729588Y-105547780D01*
X192874466Y-105688913D01*
X193042637Y-105801282D01*
X193047940Y-105803560D01*
X193047943Y-105803562D01*
X193198470Y-105868233D01*
X193228470Y-105881122D01*
X193425740Y-105925760D01*
X193431509Y-105925987D01*
X193431512Y-105925987D01*
X193507683Y-105928979D01*
X193627842Y-105933700D01*
X193714132Y-105921189D01*
X193822286Y-105905508D01*
X193822291Y-105905507D01*
X193828007Y-105904678D01*
X193833479Y-105902820D01*
X193833481Y-105902820D01*
X194014067Y-105841519D01*
X194014069Y-105841518D01*
X194019531Y-105839664D01*
X194196001Y-105740837D01*
X194258433Y-105688913D01*
X194347073Y-105615191D01*
X194351505Y-105611505D01*
X194480837Y-105456001D01*
X194492038Y-105436001D01*
X194524875Y-105377364D01*
X194579664Y-105279531D01*
X194586431Y-105259598D01*
X194642820Y-105093481D01*
X194642820Y-105093479D01*
X194644678Y-105088007D01*
X194645507Y-105082291D01*
X194645508Y-105082286D01*
X194665208Y-104946412D01*
X194673700Y-104887842D01*
X194675215Y-104830000D01*
X194656708Y-104628591D01*
X194651068Y-104608591D01*
X194603376Y-104439490D01*
X194601807Y-104433926D01*
X194512351Y-104252527D01*
X194494079Y-104228057D01*
X194394788Y-104095091D01*
X194394787Y-104095090D01*
X194391335Y-104090467D01*
X194387099Y-104086551D01*
X194247053Y-103957094D01*
X194247051Y-103957092D01*
X194242812Y-103953174D01*
X194211114Y-103933174D01*
X194076637Y-103848325D01*
X194071757Y-103845246D01*
X193883898Y-103770298D01*
X193685526Y-103730839D01*
X193679752Y-103730763D01*
X193679748Y-103730763D01*
X193577257Y-103729422D01*
X193483286Y-103728192D01*
X193477589Y-103729171D01*
X193477588Y-103729171D01*
X193289646Y-103761465D01*
X193289645Y-103761465D01*
X193283949Y-103762444D01*
X193094193Y-103832449D01*
X192920371Y-103935862D01*
X192768305Y-104069220D01*
X192643089Y-104228057D01*
X192548914Y-104407053D01*
X192488937Y-104600213D01*
X192465164Y-104801069D01*
X187541861Y-104801069D01*
X187586330Y-104693709D01*
X187605250Y-104550000D01*
X187586330Y-104406291D01*
X187530861Y-104272375D01*
X187442621Y-104157379D01*
X187327625Y-104069139D01*
X187193709Y-104013670D01*
X187050000Y-103994750D01*
X186906291Y-104013670D01*
X186772375Y-104069139D01*
X186657379Y-104157379D01*
X186569139Y-104272375D01*
X186513670Y-104406291D01*
X186494750Y-104550000D01*
X186513670Y-104693709D01*
X186569139Y-104827625D01*
X186618165Y-104891516D01*
X186648462Y-104931000D01*
X186674063Y-104997220D01*
X186674500Y-105007704D01*
X186674500Y-107842273D01*
X186654498Y-107910394D01*
X186637595Y-107931368D01*
X185531368Y-109037595D01*
X185469056Y-109071621D01*
X185442273Y-109074500D01*
X110803496Y-109074500D01*
X110780199Y-109072021D01*
X110778114Y-109071923D01*
X110767934Y-109069731D01*
X110735871Y-109073526D01*
X110735016Y-109073627D01*
X110729179Y-109073971D01*
X110729187Y-109074072D01*
X110724011Y-109074500D01*
X110718807Y-109074500D01*
X110706496Y-109076549D01*
X110700011Y-109077628D01*
X110694134Y-109078465D01*
X110643791Y-109084424D01*
X110635625Y-109088345D01*
X110626687Y-109089833D01*
X110617524Y-109094777D01*
X110582067Y-109113908D01*
X110576778Y-109116602D01*
X110538247Y-109135104D01*
X110538241Y-109135108D01*
X110531100Y-109138537D01*
X110526869Y-109142094D01*
X110524940Y-109144023D01*
X110523063Y-109145745D01*
X110522926Y-109145819D01*
X110522826Y-109145709D01*
X110522346Y-109146132D01*
X110516671Y-109149194D01*
X110509602Y-109156841D01*
X110509601Y-109156842D01*
X110480460Y-109188367D01*
X110477030Y-109191933D01*
X110022311Y-109646652D01*
X110004080Y-109661377D01*
X110002540Y-109662778D01*
X109993790Y-109668428D01*
X109987343Y-109676606D01*
X109973264Y-109694465D01*
X109969383Y-109698832D01*
X109969461Y-109698898D01*
X109966107Y-109702856D01*
X109962425Y-109706538D01*
X109951339Y-109722052D01*
X109947788Y-109726781D01*
X109916397Y-109766600D01*
X109913395Y-109775149D01*
X109908128Y-109782519D01*
X109900380Y-109808426D01*
X109893608Y-109831070D01*
X109891774Y-109836714D01*
X109877604Y-109877065D01*
X109877603Y-109877071D01*
X109874977Y-109884548D01*
X109874500Y-109890055D01*
X109874500Y-109892762D01*
X109874389Y-109895335D01*
X109874341Y-109895494D01*
X109874197Y-109895488D01*
X109874158Y-109896108D01*
X109872310Y-109902287D01*
X109872719Y-109912692D01*
X109874403Y-109955555D01*
X109874500Y-109960502D01*
X109874500Y-111257006D01*
X109854498Y-111325127D01*
X109831331Y-111351953D01*
X109763034Y-111411533D01*
X109672501Y-111540348D01*
X109615309Y-111687039D01*
X109594758Y-111843138D01*
X98820500Y-111843138D01*
X98820500Y-108224674D01*
X102569500Y-108224674D01*
X102584034Y-108297740D01*
X102639399Y-108380601D01*
X102722260Y-108435966D01*
X102795326Y-108450500D01*
X104544674Y-108450500D01*
X104617740Y-108435966D01*
X104700601Y-108380601D01*
X104755966Y-108297740D01*
X104770500Y-108224674D01*
X104770500Y-106475326D01*
X104755966Y-106402260D01*
X104700601Y-106319399D01*
X104617740Y-106264034D01*
X104544674Y-106249500D01*
X102795326Y-106249500D01*
X102722260Y-106264034D01*
X102639399Y-106319399D01*
X102584034Y-106402260D01*
X102569500Y-106475326D01*
X102569500Y-108224674D01*
X98820500Y-108224674D01*
X98820500Y-102537966D01*
X102338257Y-102537966D01*
X102368565Y-102672446D01*
X102371645Y-102682275D01*
X102451770Y-102879603D01*
X102456413Y-102888794D01*
X102567694Y-103070388D01*
X102573777Y-103078699D01*
X102713213Y-103239667D01*
X102720580Y-103246883D01*
X102884434Y-103382916D01*
X102892881Y-103388831D01*
X103076756Y-103496279D01*
X103086042Y-103500729D01*
X103240802Y-103559825D01*
X103297305Y-103602812D01*
X103321598Y-103669523D01*
X103305968Y-103738778D01*
X103255377Y-103788588D01*
X103239465Y-103795747D01*
X103199606Y-103810452D01*
X103194193Y-103812449D01*
X103020371Y-103915862D01*
X102868305Y-104049220D01*
X102743089Y-104208057D01*
X102648914Y-104387053D01*
X102588937Y-104580213D01*
X102565164Y-104781069D01*
X102578392Y-104982894D01*
X102628178Y-105178928D01*
X102712856Y-105362607D01*
X102829588Y-105527780D01*
X102974466Y-105668913D01*
X103142637Y-105781282D01*
X103147940Y-105783560D01*
X103147943Y-105783562D01*
X103315703Y-105855637D01*
X103328470Y-105861122D01*
X103424361Y-105882820D01*
X103507219Y-105901569D01*
X103525740Y-105905760D01*
X103531509Y-105905987D01*
X103531512Y-105905987D01*
X103607683Y-105908979D01*
X103727842Y-105913700D01*
X103822386Y-105899992D01*
X103922286Y-105885508D01*
X103922291Y-105885507D01*
X103928007Y-105884678D01*
X103933479Y-105882820D01*
X103933481Y-105882820D01*
X104114067Y-105821519D01*
X104114069Y-105821518D01*
X104119531Y-105819664D01*
X104296001Y-105720837D01*
X104328820Y-105693542D01*
X104447073Y-105595191D01*
X104451505Y-105591505D01*
X104580837Y-105436001D01*
X104605432Y-105392084D01*
X104665645Y-105284564D01*
X104679664Y-105259531D01*
X104682900Y-105250000D01*
X104685229Y-105243138D01*
X109594758Y-105243138D01*
X109612035Y-105399633D01*
X109666143Y-105547490D01*
X109670380Y-105553796D01*
X109670382Y-105553799D01*
X109692742Y-105587073D01*
X109753958Y-105678172D01*
X109870410Y-105784135D01*
X109877085Y-105787759D01*
X110002099Y-105855637D01*
X110002101Y-105855638D01*
X110008776Y-105859262D01*
X110016125Y-105861190D01*
X110153719Y-105897287D01*
X110153721Y-105897287D01*
X110161069Y-105899215D01*
X110244380Y-105900524D01*
X110310898Y-105901569D01*
X110310901Y-105901569D01*
X110318495Y-105901688D01*
X110471968Y-105866538D01*
X110612625Y-105795795D01*
X110676973Y-105740837D01*
X110726574Y-105698474D01*
X110726576Y-105698471D01*
X110732348Y-105693542D01*
X110824224Y-105565683D01*
X110882950Y-105419598D01*
X110905134Y-105263723D01*
X110905278Y-105250000D01*
X110886363Y-105093694D01*
X110874495Y-105062286D01*
X110833394Y-104953514D01*
X110833393Y-104953511D01*
X110830710Y-104946412D01*
X110741531Y-104816657D01*
X110667681Y-104750859D01*
X110630125Y-104690609D01*
X110625500Y-104656783D01*
X110625500Y-103357727D01*
X110645502Y-103289606D01*
X110662405Y-103268632D01*
X111068632Y-102862405D01*
X111130944Y-102828379D01*
X111157727Y-102825500D01*
X185896504Y-102825500D01*
X185919801Y-102827979D01*
X185921886Y-102828077D01*
X185932066Y-102830269D01*
X185964984Y-102826373D01*
X185970821Y-102826029D01*
X185970813Y-102825928D01*
X185975992Y-102825500D01*
X185981193Y-102825500D01*
X185986321Y-102824646D01*
X185986327Y-102824646D01*
X185999987Y-102822372D01*
X186005863Y-102821535D01*
X186010952Y-102820933D01*
X186056210Y-102815576D01*
X186064377Y-102811654D01*
X186073313Y-102810167D01*
X186082475Y-102805223D01*
X186082479Y-102805222D01*
X186117929Y-102786094D01*
X186123220Y-102783398D01*
X186161749Y-102764897D01*
X186161750Y-102764896D01*
X186168900Y-102761463D01*
X186173131Y-102757906D01*
X186175063Y-102755974D01*
X186176937Y-102754255D01*
X186177074Y-102754181D01*
X186177174Y-102754291D01*
X186177654Y-102753868D01*
X186183329Y-102750806D01*
X186219540Y-102711634D01*
X186222969Y-102708069D01*
X186669969Y-102261069D01*
X192465164Y-102261069D01*
X192478392Y-102462894D01*
X192528178Y-102658928D01*
X192612856Y-102842607D01*
X192616189Y-102847323D01*
X192712504Y-102983606D01*
X192729588Y-103007780D01*
X192874466Y-103148913D01*
X193042637Y-103261282D01*
X193047940Y-103263560D01*
X193047943Y-103263562D01*
X193223163Y-103338842D01*
X193228470Y-103341122D01*
X193425740Y-103385760D01*
X193431509Y-103385987D01*
X193431512Y-103385987D01*
X193503908Y-103388831D01*
X193627842Y-103393700D01*
X193714132Y-103381189D01*
X193822286Y-103365508D01*
X193822291Y-103365507D01*
X193828007Y-103364678D01*
X193833479Y-103362820D01*
X193833481Y-103362820D01*
X194014067Y-103301519D01*
X194014069Y-103301518D01*
X194019531Y-103299664D01*
X194196001Y-103200837D01*
X194258433Y-103148913D01*
X194347073Y-103075191D01*
X194351505Y-103071505D01*
X194445558Y-102958419D01*
X194477146Y-102920439D01*
X194480837Y-102916001D01*
X194483766Y-102910772D01*
X194530131Y-102827979D01*
X194579664Y-102739531D01*
X194589745Y-102709835D01*
X194642820Y-102553481D01*
X194642820Y-102553479D01*
X194644678Y-102548007D01*
X194645507Y-102542291D01*
X194645508Y-102542286D01*
X194673167Y-102351516D01*
X194673700Y-102347842D01*
X194675215Y-102290000D01*
X194656708Y-102088591D01*
X194653853Y-102078466D01*
X194603376Y-101899490D01*
X194601807Y-101893926D01*
X194512351Y-101712527D01*
X194498115Y-101693462D01*
X194394788Y-101555091D01*
X194394787Y-101555090D01*
X194391335Y-101550467D01*
X194368350Y-101529220D01*
X194247053Y-101417094D01*
X194247051Y-101417092D01*
X194242812Y-101413174D01*
X194215374Y-101395862D01*
X194076637Y-101308325D01*
X194071757Y-101305246D01*
X193883898Y-101230298D01*
X193685526Y-101190839D01*
X193679752Y-101190763D01*
X193679748Y-101190763D01*
X193577257Y-101189422D01*
X193483286Y-101188192D01*
X193477589Y-101189171D01*
X193477588Y-101189171D01*
X193289646Y-101221465D01*
X193289645Y-101221465D01*
X193283949Y-101222444D01*
X193094193Y-101292449D01*
X192920371Y-101395862D01*
X192768305Y-101529220D01*
X192643089Y-101688057D01*
X192548914Y-101867053D01*
X192488937Y-102060213D01*
X192465164Y-102261069D01*
X186669969Y-102261069D01*
X187177692Y-101753346D01*
X187195909Y-101738633D01*
X187197460Y-101737222D01*
X187206210Y-101731572D01*
X187212658Y-101723392D01*
X187212661Y-101723390D01*
X187226734Y-101705539D01*
X187230621Y-101701165D01*
X187230543Y-101701099D01*
X187233898Y-101697140D01*
X187237576Y-101693462D01*
X187240595Y-101689238D01*
X187240602Y-101689229D01*
X187248679Y-101677926D01*
X187252243Y-101673180D01*
X187277154Y-101641580D01*
X187283603Y-101633400D01*
X187286605Y-101624852D01*
X187291872Y-101617481D01*
X187299299Y-101592649D01*
X187306396Y-101568917D01*
X187308231Y-101563270D01*
X187322395Y-101522936D01*
X187322395Y-101522935D01*
X187325023Y-101515452D01*
X187325500Y-101509945D01*
X187325500Y-101507238D01*
X187325611Y-101504668D01*
X187325659Y-101504506D01*
X187325804Y-101504512D01*
X187325843Y-101503892D01*
X187327691Y-101497713D01*
X187325597Y-101444419D01*
X187325500Y-101439473D01*
X187325500Y-99721069D01*
X192465164Y-99721069D01*
X192478392Y-99922894D01*
X192496319Y-99993481D01*
X192523099Y-100098928D01*
X192528178Y-100118928D01*
X192612856Y-100302607D01*
X192729588Y-100467780D01*
X192874466Y-100608913D01*
X193042637Y-100721282D01*
X193047940Y-100723560D01*
X193047943Y-100723562D01*
X193207522Y-100792122D01*
X193228470Y-100801122D01*
X193425740Y-100845760D01*
X193431509Y-100845987D01*
X193431512Y-100845987D01*
X193507683Y-100848979D01*
X193627842Y-100853700D01*
X193714132Y-100841189D01*
X193822286Y-100825508D01*
X193822291Y-100825507D01*
X193828007Y-100824678D01*
X193833479Y-100822820D01*
X193833481Y-100822820D01*
X194014067Y-100761519D01*
X194014069Y-100761518D01*
X194019531Y-100759664D01*
X194196001Y-100660837D01*
X194258433Y-100608913D01*
X194347073Y-100535191D01*
X194351505Y-100531505D01*
X194480837Y-100376001D01*
X194492038Y-100356001D01*
X194524875Y-100297364D01*
X194579664Y-100199531D01*
X194613815Y-100098928D01*
X194642820Y-100013481D01*
X194642820Y-100013479D01*
X194644678Y-100008007D01*
X194645507Y-100002291D01*
X194645508Y-100002286D01*
X194673167Y-99811516D01*
X194673700Y-99807842D01*
X194675215Y-99750000D01*
X194656708Y-99548591D01*
X194651068Y-99528591D01*
X194603376Y-99359490D01*
X194601807Y-99353926D01*
X194512351Y-99172527D01*
X194494079Y-99148057D01*
X194394788Y-99015091D01*
X194394787Y-99015090D01*
X194391335Y-99010467D01*
X194368350Y-98989220D01*
X194247053Y-98877094D01*
X194247051Y-98877092D01*
X194242812Y-98873174D01*
X194215374Y-98855862D01*
X194076637Y-98768325D01*
X194071757Y-98765246D01*
X193883898Y-98690298D01*
X193685526Y-98650839D01*
X193679752Y-98650763D01*
X193679748Y-98650763D01*
X193577257Y-98649422D01*
X193483286Y-98648192D01*
X193477589Y-98649171D01*
X193477588Y-98649171D01*
X193289646Y-98681465D01*
X193289645Y-98681465D01*
X193283949Y-98682444D01*
X193094193Y-98752449D01*
X192920371Y-98855862D01*
X192768305Y-98989220D01*
X192643089Y-99148057D01*
X192548914Y-99327053D01*
X192488937Y-99520213D01*
X192465164Y-99721069D01*
X187325500Y-99721069D01*
X187325500Y-97907704D01*
X187345502Y-97839583D01*
X187351538Y-97831000D01*
X187366912Y-97810964D01*
X187430861Y-97727625D01*
X187486330Y-97593709D01*
X187505250Y-97450000D01*
X187486330Y-97306291D01*
X187430861Y-97172375D01*
X187342621Y-97057379D01*
X187227625Y-96969139D01*
X187093709Y-96913670D01*
X186950000Y-96894750D01*
X186806291Y-96913670D01*
X186672375Y-96969139D01*
X186557379Y-97057379D01*
X186469139Y-97172375D01*
X186413670Y-97306291D01*
X186394750Y-97450000D01*
X186413670Y-97593709D01*
X186469139Y-97727625D01*
X186533088Y-97810964D01*
X186548462Y-97831000D01*
X186574063Y-97897220D01*
X186574500Y-97907704D01*
X186574500Y-101242273D01*
X186554498Y-101310394D01*
X186537595Y-101331368D01*
X185831368Y-102037595D01*
X185769056Y-102071621D01*
X185742273Y-102074500D01*
X111003496Y-102074500D01*
X110980208Y-102072021D01*
X110978110Y-102071922D01*
X110967933Y-102069731D01*
X110935870Y-102073526D01*
X110935015Y-102073627D01*
X110929179Y-102073971D01*
X110929187Y-102074072D01*
X110924008Y-102074500D01*
X110918807Y-102074500D01*
X110913677Y-102075354D01*
X110913675Y-102075354D01*
X110900008Y-102077629D01*
X110894131Y-102078466D01*
X110843790Y-102084424D01*
X110835623Y-102088346D01*
X110826687Y-102089833D01*
X110817525Y-102094777D01*
X110817521Y-102094778D01*
X110782071Y-102113906D01*
X110776780Y-102116602D01*
X110738251Y-102135103D01*
X110731100Y-102138537D01*
X110726869Y-102142094D01*
X110724937Y-102144026D01*
X110723063Y-102145745D01*
X110722926Y-102145819D01*
X110722826Y-102145709D01*
X110722346Y-102146132D01*
X110716671Y-102149194D01*
X110709602Y-102156841D01*
X110709601Y-102156842D01*
X110680460Y-102188367D01*
X110677030Y-102191933D01*
X110022311Y-102846652D01*
X110004080Y-102861377D01*
X110002540Y-102862778D01*
X109993790Y-102868428D01*
X109987343Y-102876606D01*
X109973264Y-102894465D01*
X109969383Y-102898832D01*
X109969461Y-102898898D01*
X109966107Y-102902856D01*
X109962425Y-102906538D01*
X109951339Y-102922052D01*
X109947788Y-102926781D01*
X109916397Y-102966600D01*
X109913395Y-102975149D01*
X109908128Y-102982519D01*
X109899367Y-103011815D01*
X109893608Y-103031070D01*
X109891774Y-103036714D01*
X109877604Y-103077065D01*
X109877603Y-103077071D01*
X109874977Y-103084548D01*
X109874500Y-103090055D01*
X109874500Y-103092762D01*
X109874389Y-103095335D01*
X109874341Y-103095494D01*
X109874197Y-103095488D01*
X109874158Y-103096108D01*
X109872310Y-103102287D01*
X109872719Y-103112692D01*
X109874403Y-103155555D01*
X109874500Y-103160502D01*
X109874500Y-104657006D01*
X109854498Y-104725127D01*
X109831331Y-104751953D01*
X109763034Y-104811533D01*
X109672501Y-104940348D01*
X109615309Y-105087039D01*
X109614318Y-105094568D01*
X109599888Y-105204175D01*
X109594758Y-105243138D01*
X104685229Y-105243138D01*
X104742820Y-105073481D01*
X104742820Y-105073479D01*
X104744678Y-105068007D01*
X104745507Y-105062291D01*
X104745508Y-105062286D01*
X104773167Y-104871516D01*
X104773700Y-104867842D01*
X104775215Y-104810000D01*
X104756708Y-104608591D01*
X104737875Y-104541812D01*
X104709017Y-104439490D01*
X104701807Y-104413926D01*
X104612351Y-104232527D01*
X104594079Y-104208057D01*
X104494788Y-104075091D01*
X104494787Y-104075090D01*
X104491335Y-104070467D01*
X104486480Y-104065979D01*
X104347053Y-103937094D01*
X104347051Y-103937092D01*
X104342812Y-103933174D01*
X104315374Y-103915862D01*
X104176637Y-103828325D01*
X104171757Y-103825246D01*
X104095453Y-103794804D01*
X104039594Y-103750983D01*
X104016293Y-103683919D01*
X104032949Y-103614904D01*
X104084273Y-103565850D01*
X104105935Y-103557089D01*
X104162244Y-103540195D01*
X104171842Y-103536433D01*
X104363095Y-103442739D01*
X104371945Y-103437464D01*
X104545328Y-103313792D01*
X104553200Y-103307139D01*
X104704052Y-103156812D01*
X104710730Y-103148965D01*
X104835003Y-102976020D01*
X104840313Y-102967183D01*
X104934670Y-102776267D01*
X104938469Y-102766672D01*
X105000377Y-102562910D01*
X105002555Y-102552837D01*
X105003986Y-102541962D01*
X105001775Y-102527778D01*
X104988617Y-102524000D01*
X102353225Y-102524000D01*
X102339694Y-102527973D01*
X102338257Y-102537966D01*
X98820500Y-102537966D01*
X98820500Y-102004183D01*
X102334389Y-102004183D01*
X102335912Y-102012607D01*
X102348292Y-102016000D01*
X104988344Y-102016000D01*
X105001875Y-102012027D01*
X105003180Y-102002947D01*
X104961214Y-101835875D01*
X104957894Y-101826124D01*
X104872972Y-101630814D01*
X104868105Y-101621739D01*
X104752426Y-101442926D01*
X104746136Y-101434757D01*
X104602806Y-101277240D01*
X104595273Y-101270215D01*
X104428139Y-101138222D01*
X104419552Y-101132517D01*
X104233117Y-101029599D01*
X104223705Y-101025369D01*
X104103300Y-100982731D01*
X104045764Y-100941137D01*
X104019848Y-100875039D01*
X104033782Y-100805423D01*
X104083141Y-100754392D01*
X104104855Y-100744646D01*
X104108897Y-100743274D01*
X104114070Y-100741518D01*
X104114072Y-100741517D01*
X104119531Y-100739664D01*
X104296001Y-100640837D01*
X104358433Y-100588913D01*
X104447073Y-100515191D01*
X104451505Y-100511505D01*
X104580837Y-100356001D01*
X104679664Y-100179531D01*
X104744678Y-99988007D01*
X104745507Y-99982291D01*
X104745508Y-99982286D01*
X104773167Y-99791516D01*
X104773700Y-99787842D01*
X104775215Y-99730000D01*
X104756708Y-99528591D01*
X104706599Y-99350916D01*
X104707359Y-99279924D01*
X104738773Y-99227620D01*
X106023255Y-97943138D01*
X109594758Y-97943138D01*
X109612035Y-98099633D01*
X109666143Y-98247490D01*
X109670380Y-98253796D01*
X109670382Y-98253799D01*
X109691859Y-98285760D01*
X109753958Y-98378172D01*
X109870410Y-98484135D01*
X109877085Y-98487759D01*
X110002099Y-98555637D01*
X110002101Y-98555638D01*
X110008776Y-98559262D01*
X110016125Y-98561190D01*
X110153719Y-98597287D01*
X110153721Y-98597287D01*
X110161069Y-98599215D01*
X110244380Y-98600524D01*
X110310898Y-98601569D01*
X110310901Y-98601569D01*
X110318495Y-98601688D01*
X110471968Y-98566538D01*
X110612625Y-98495795D01*
X110638869Y-98473381D01*
X110726574Y-98398474D01*
X110726576Y-98398471D01*
X110732348Y-98393542D01*
X110824224Y-98265683D01*
X110834098Y-98241122D01*
X110850018Y-98201519D01*
X110882950Y-98119598D01*
X110903502Y-97975191D01*
X110904553Y-97967807D01*
X110904553Y-97967804D01*
X110905134Y-97963723D01*
X110905278Y-97950000D01*
X110886363Y-97793694D01*
X110830710Y-97646412D01*
X110741531Y-97516657D01*
X110667681Y-97450859D01*
X110630125Y-97390609D01*
X110625500Y-97356783D01*
X110625500Y-96524674D01*
X192469500Y-96524674D01*
X192484034Y-96597740D01*
X192539399Y-96680601D01*
X192622260Y-96735966D01*
X192695326Y-96750500D01*
X194444674Y-96750500D01*
X194517740Y-96735966D01*
X194600601Y-96680601D01*
X194655966Y-96597740D01*
X194670500Y-96524674D01*
X194670500Y-94775326D01*
X194655966Y-94702260D01*
X194600601Y-94619399D01*
X194517740Y-94564034D01*
X194444674Y-94549500D01*
X192695326Y-94549500D01*
X192622260Y-94564034D01*
X192539399Y-94619399D01*
X192484034Y-94702260D01*
X192469500Y-94775326D01*
X192469500Y-96524674D01*
X110625500Y-96524674D01*
X110625500Y-96357727D01*
X110645502Y-96289606D01*
X110662405Y-96268632D01*
X111168632Y-95762405D01*
X111230944Y-95728379D01*
X111257727Y-95725500D01*
X185696504Y-95725500D01*
X185719801Y-95727979D01*
X185721886Y-95728077D01*
X185732066Y-95730269D01*
X185764984Y-95726373D01*
X185770821Y-95726029D01*
X185770813Y-95725928D01*
X185775992Y-95725500D01*
X185781193Y-95725500D01*
X185786321Y-95724646D01*
X185786327Y-95724646D01*
X185799987Y-95722372D01*
X185805863Y-95721535D01*
X185810952Y-95720933D01*
X185856210Y-95715576D01*
X185864377Y-95711654D01*
X185873313Y-95710167D01*
X185882475Y-95705223D01*
X185882479Y-95705222D01*
X185917929Y-95686094D01*
X185923220Y-95683398D01*
X185961749Y-95664897D01*
X185961750Y-95664896D01*
X185968900Y-95661463D01*
X185973131Y-95657906D01*
X185975063Y-95655974D01*
X185976937Y-95654255D01*
X185977074Y-95654181D01*
X185977174Y-95654291D01*
X185977654Y-95653868D01*
X185983329Y-95650806D01*
X186019541Y-95611632D01*
X186022970Y-95608067D01*
X187177689Y-94453348D01*
X187195920Y-94438623D01*
X187197460Y-94437222D01*
X187206210Y-94431572D01*
X187226736Y-94405535D01*
X187230617Y-94401168D01*
X187230539Y-94401102D01*
X187233893Y-94397144D01*
X187237575Y-94393462D01*
X187248661Y-94377948D01*
X187252217Y-94373212D01*
X187283603Y-94333400D01*
X187286605Y-94324851D01*
X187291872Y-94317481D01*
X187306394Y-94268922D01*
X187308227Y-94263281D01*
X187322395Y-94222936D01*
X187322395Y-94222935D01*
X187325023Y-94215452D01*
X187325500Y-94209945D01*
X187325500Y-94207238D01*
X187325611Y-94204666D01*
X187325659Y-94204506D01*
X187325803Y-94204512D01*
X187325842Y-94203894D01*
X187327690Y-94197714D01*
X187325597Y-94144445D01*
X187325500Y-94139499D01*
X187325500Y-93081069D01*
X192465164Y-93081069D01*
X192478392Y-93282894D01*
X192528178Y-93478928D01*
X192612856Y-93662607D01*
X192616189Y-93667323D01*
X192690997Y-93773174D01*
X192729588Y-93827780D01*
X192874466Y-93968913D01*
X193042637Y-94081282D01*
X193047940Y-94083560D01*
X193047943Y-94083562D01*
X193189655Y-94144446D01*
X193228470Y-94161122D01*
X193425740Y-94205760D01*
X193431509Y-94205987D01*
X193431512Y-94205987D01*
X193504061Y-94208837D01*
X193627842Y-94213700D01*
X193738098Y-94197714D01*
X193822286Y-94185508D01*
X193822291Y-94185507D01*
X193828007Y-94184678D01*
X193833479Y-94182820D01*
X193833481Y-94182820D01*
X194014067Y-94121519D01*
X194014069Y-94121518D01*
X194019531Y-94119664D01*
X194155495Y-94043521D01*
X194190964Y-94023658D01*
X194190965Y-94023657D01*
X194196001Y-94020837D01*
X194258433Y-93968913D01*
X194347073Y-93895191D01*
X194351505Y-93891505D01*
X194480837Y-93736001D01*
X194579664Y-93559531D01*
X194582641Y-93550763D01*
X194642820Y-93373481D01*
X194642820Y-93373479D01*
X194644678Y-93368007D01*
X194645507Y-93362291D01*
X194645508Y-93362286D01*
X194668387Y-93204485D01*
X194673700Y-93167842D01*
X194675215Y-93110000D01*
X194656708Y-92908591D01*
X194601807Y-92713926D01*
X194512351Y-92532527D01*
X194494079Y-92508057D01*
X194394788Y-92375091D01*
X194394787Y-92375090D01*
X194391335Y-92370467D01*
X194368350Y-92349220D01*
X194247053Y-92237094D01*
X194247051Y-92237092D01*
X194242812Y-92233174D01*
X194215374Y-92215862D01*
X194076637Y-92128325D01*
X194071757Y-92125246D01*
X193883898Y-92050298D01*
X193685526Y-92010839D01*
X193679752Y-92010763D01*
X193679748Y-92010763D01*
X193577257Y-92009422D01*
X193483286Y-92008192D01*
X193477589Y-92009171D01*
X193477588Y-92009171D01*
X193289646Y-92041465D01*
X193289645Y-92041465D01*
X193283949Y-92042444D01*
X193094193Y-92112449D01*
X193089232Y-92115401D01*
X193089231Y-92115401D01*
X193001086Y-92167842D01*
X192920371Y-92215862D01*
X192768305Y-92349220D01*
X192643089Y-92508057D01*
X192548914Y-92687053D01*
X192488937Y-92880213D01*
X192465164Y-93081069D01*
X187325500Y-93081069D01*
X187325500Y-90707704D01*
X187345502Y-90639583D01*
X187351538Y-90631000D01*
X187353961Y-90627842D01*
X187420545Y-90541069D01*
X192465164Y-90541069D01*
X192478392Y-90742894D01*
X192479815Y-90748496D01*
X192511147Y-90871866D01*
X192528178Y-90938928D01*
X192612856Y-91122607D01*
X192616189Y-91127323D01*
X192690997Y-91233174D01*
X192729588Y-91287780D01*
X192874466Y-91428913D01*
X193042637Y-91541282D01*
X193047940Y-91543560D01*
X193047943Y-91543562D01*
X193136291Y-91581519D01*
X193228470Y-91621122D01*
X193425740Y-91665760D01*
X193431509Y-91665987D01*
X193431512Y-91665987D01*
X193507683Y-91668979D01*
X193627842Y-91673700D01*
X193714132Y-91661189D01*
X193822286Y-91645508D01*
X193822291Y-91645507D01*
X193828007Y-91644678D01*
X193833479Y-91642820D01*
X193833481Y-91642820D01*
X194014067Y-91581519D01*
X194014069Y-91581518D01*
X194019531Y-91579664D01*
X194196001Y-91480837D01*
X194258433Y-91428913D01*
X194347073Y-91355191D01*
X194351505Y-91351505D01*
X194480837Y-91196001D01*
X194579664Y-91019531D01*
X194582641Y-91010763D01*
X194642820Y-90833481D01*
X194642820Y-90833479D01*
X194644678Y-90828007D01*
X194645507Y-90822291D01*
X194645508Y-90822286D01*
X194669652Y-90655758D01*
X194673700Y-90627842D01*
X194675215Y-90570000D01*
X194656708Y-90368591D01*
X194637712Y-90301234D01*
X194603376Y-90179490D01*
X194601807Y-90173926D01*
X194512351Y-89992527D01*
X194494079Y-89968057D01*
X194394788Y-89835091D01*
X194394787Y-89835090D01*
X194391335Y-89830467D01*
X194368350Y-89809220D01*
X194247053Y-89697094D01*
X194247051Y-89697092D01*
X194242812Y-89693174D01*
X194215374Y-89675862D01*
X194076637Y-89588325D01*
X194071757Y-89585246D01*
X193883898Y-89510298D01*
X193685526Y-89470839D01*
X193679752Y-89470763D01*
X193679748Y-89470763D01*
X193577257Y-89469422D01*
X193483286Y-89468192D01*
X193477589Y-89469171D01*
X193477588Y-89469171D01*
X193289646Y-89501465D01*
X193289645Y-89501465D01*
X193283949Y-89502444D01*
X193094193Y-89572449D01*
X193089232Y-89575401D01*
X193089231Y-89575401D01*
X193001086Y-89627842D01*
X192920371Y-89675862D01*
X192768305Y-89809220D01*
X192643089Y-89968057D01*
X192548914Y-90147053D01*
X192488937Y-90340213D01*
X192465164Y-90541069D01*
X187420545Y-90541069D01*
X187430861Y-90527625D01*
X187486330Y-90393709D01*
X187505250Y-90250000D01*
X187486330Y-90106291D01*
X187430861Y-89972375D01*
X187342621Y-89857379D01*
X187227625Y-89769139D01*
X187093709Y-89713670D01*
X186950000Y-89694750D01*
X186806291Y-89713670D01*
X186672375Y-89769139D01*
X186557379Y-89857379D01*
X186469139Y-89972375D01*
X186413670Y-90106291D01*
X186394750Y-90250000D01*
X186413670Y-90393709D01*
X186469139Y-90527625D01*
X186546039Y-90627842D01*
X186548462Y-90631000D01*
X186574063Y-90697220D01*
X186574500Y-90707704D01*
X186574500Y-93942273D01*
X186554498Y-94010394D01*
X186537595Y-94031368D01*
X185631368Y-94937595D01*
X185569056Y-94971621D01*
X185542273Y-94974500D01*
X111103496Y-94974500D01*
X111080199Y-94972021D01*
X111078114Y-94971923D01*
X111067934Y-94969731D01*
X111035871Y-94973526D01*
X111035016Y-94973627D01*
X111029179Y-94973971D01*
X111029187Y-94974072D01*
X111024011Y-94974500D01*
X111018807Y-94974500D01*
X111006496Y-94976549D01*
X111000011Y-94977628D01*
X110994134Y-94978465D01*
X110943791Y-94984424D01*
X110935625Y-94988345D01*
X110926687Y-94989833D01*
X110894474Y-95007214D01*
X110882067Y-95013908D01*
X110876778Y-95016602D01*
X110838247Y-95035104D01*
X110838241Y-95035108D01*
X110831100Y-95038537D01*
X110826869Y-95042094D01*
X110824940Y-95044023D01*
X110823063Y-95045745D01*
X110822926Y-95045819D01*
X110822826Y-95045709D01*
X110822346Y-95046132D01*
X110816671Y-95049194D01*
X110809602Y-95056841D01*
X110809601Y-95056842D01*
X110780460Y-95088367D01*
X110777030Y-95091933D01*
X110022311Y-95846652D01*
X110004080Y-95861377D01*
X110002540Y-95862778D01*
X109993790Y-95868428D01*
X109987343Y-95876606D01*
X109973264Y-95894465D01*
X109969383Y-95898832D01*
X109969461Y-95898898D01*
X109966107Y-95902856D01*
X109962425Y-95906538D01*
X109951339Y-95922052D01*
X109947788Y-95926781D01*
X109916397Y-95966600D01*
X109913395Y-95975149D01*
X109908128Y-95982519D01*
X109905144Y-95992498D01*
X109893608Y-96031070D01*
X109891774Y-96036714D01*
X109877604Y-96077065D01*
X109877603Y-96077071D01*
X109874977Y-96084548D01*
X109874500Y-96090055D01*
X109874500Y-96092762D01*
X109874389Y-96095335D01*
X109874341Y-96095494D01*
X109874197Y-96095488D01*
X109874158Y-96096108D01*
X109872310Y-96102287D01*
X109873788Y-96139910D01*
X109874403Y-96155555D01*
X109874500Y-96160502D01*
X109874500Y-97357006D01*
X109854498Y-97425127D01*
X109831331Y-97451953D01*
X109763034Y-97511533D01*
X109758667Y-97517747D01*
X109705280Y-97593709D01*
X109672501Y-97640348D01*
X109615309Y-97787039D01*
X109614318Y-97794568D01*
X109598882Y-97911815D01*
X109594758Y-97943138D01*
X106023255Y-97943138D01*
X107775484Y-96190909D01*
X107775487Y-96190905D01*
X107798050Y-96168342D01*
X107802552Y-96159507D01*
X107808037Y-96148743D01*
X107818366Y-96131887D01*
X107818660Y-96131483D01*
X107831297Y-96114089D01*
X107838096Y-96093164D01*
X107845660Y-96074903D01*
X107851144Y-96064140D01*
X107851144Y-96064139D01*
X107855646Y-96055304D01*
X107859087Y-96033578D01*
X107863703Y-96014352D01*
X107867435Y-96002867D01*
X107867435Y-96002865D01*
X107870500Y-95993433D01*
X107870500Y-90443138D01*
X109594758Y-90443138D01*
X109612035Y-90599633D01*
X109666143Y-90747490D01*
X109670380Y-90753796D01*
X109670382Y-90753799D01*
X109710709Y-90813811D01*
X109753958Y-90878172D01*
X109870410Y-90984135D01*
X109919592Y-91010839D01*
X110002099Y-91055637D01*
X110002101Y-91055638D01*
X110008776Y-91059262D01*
X110016125Y-91061190D01*
X110153719Y-91097287D01*
X110153721Y-91097287D01*
X110161069Y-91099215D01*
X110244380Y-91100524D01*
X110310898Y-91101569D01*
X110310901Y-91101569D01*
X110318495Y-91101688D01*
X110471968Y-91066538D01*
X110612625Y-90995795D01*
X110638869Y-90973381D01*
X110726574Y-90898474D01*
X110726576Y-90898471D01*
X110732348Y-90893542D01*
X110824224Y-90765683D01*
X110882950Y-90619598D01*
X110902297Y-90483658D01*
X110904553Y-90467807D01*
X110904553Y-90467804D01*
X110905134Y-90463723D01*
X110905278Y-90450000D01*
X110886363Y-90293694D01*
X110881175Y-90279963D01*
X110833394Y-90153514D01*
X110833393Y-90153511D01*
X110830710Y-90146412D01*
X110741531Y-90016657D01*
X110667681Y-89950859D01*
X110630125Y-89890609D01*
X110625500Y-89856783D01*
X110625500Y-89157727D01*
X110645502Y-89089606D01*
X110662405Y-89068632D01*
X111168632Y-88562405D01*
X111230944Y-88528379D01*
X111257727Y-88525500D01*
X185996504Y-88525500D01*
X186019801Y-88527979D01*
X186021886Y-88528077D01*
X186032066Y-88530269D01*
X186064984Y-88526373D01*
X186070821Y-88526029D01*
X186070813Y-88525928D01*
X186075992Y-88525500D01*
X186081193Y-88525500D01*
X186086321Y-88524646D01*
X186086327Y-88524646D01*
X186099987Y-88522372D01*
X186105863Y-88521535D01*
X186110952Y-88520933D01*
X186156210Y-88515576D01*
X186164377Y-88511654D01*
X186173313Y-88510167D01*
X186182475Y-88505223D01*
X186182479Y-88505222D01*
X186217929Y-88486094D01*
X186223220Y-88483398D01*
X186261749Y-88464897D01*
X186261750Y-88464896D01*
X186268900Y-88461463D01*
X186273131Y-88457906D01*
X186275063Y-88455974D01*
X186276937Y-88454255D01*
X186277074Y-88454181D01*
X186277174Y-88454291D01*
X186277654Y-88453868D01*
X186283329Y-88450806D01*
X186319541Y-88411632D01*
X186322970Y-88408067D01*
X186729968Y-88001069D01*
X192465164Y-88001069D01*
X192478392Y-88202894D01*
X192528178Y-88398928D01*
X192612856Y-88582607D01*
X192616189Y-88587323D01*
X192690997Y-88693174D01*
X192729588Y-88747780D01*
X192874466Y-88888913D01*
X193042637Y-89001282D01*
X193047940Y-89003560D01*
X193047943Y-89003562D01*
X193223163Y-89078842D01*
X193228470Y-89081122D01*
X193425740Y-89125760D01*
X193431509Y-89125987D01*
X193431512Y-89125987D01*
X193507683Y-89128979D01*
X193627842Y-89133700D01*
X193714132Y-89121189D01*
X193822286Y-89105508D01*
X193822291Y-89105507D01*
X193828007Y-89104678D01*
X193833479Y-89102820D01*
X193833481Y-89102820D01*
X194014067Y-89041519D01*
X194014069Y-89041518D01*
X194019531Y-89039664D01*
X194196001Y-88940837D01*
X194258433Y-88888913D01*
X194347073Y-88815191D01*
X194351505Y-88811505D01*
X194480837Y-88656001D01*
X194579664Y-88479531D01*
X194582641Y-88470763D01*
X194642820Y-88293481D01*
X194642820Y-88293479D01*
X194644678Y-88288007D01*
X194645507Y-88282291D01*
X194645508Y-88282286D01*
X194673167Y-88091516D01*
X194673700Y-88087842D01*
X194675215Y-88030000D01*
X194656708Y-87828591D01*
X194645358Y-87788345D01*
X194603376Y-87639490D01*
X194601807Y-87633926D01*
X194512351Y-87452527D01*
X194495081Y-87429399D01*
X194394788Y-87295091D01*
X194394787Y-87295090D01*
X194391335Y-87290467D01*
X194368350Y-87269220D01*
X194247053Y-87157094D01*
X194247051Y-87157092D01*
X194242812Y-87153174D01*
X194215374Y-87135862D01*
X194076637Y-87048325D01*
X194071757Y-87045246D01*
X193883898Y-86970298D01*
X193685526Y-86930839D01*
X193679752Y-86930763D01*
X193679748Y-86930763D01*
X193577257Y-86929422D01*
X193483286Y-86928192D01*
X193477589Y-86929171D01*
X193477588Y-86929171D01*
X193289646Y-86961465D01*
X193289645Y-86961465D01*
X193283949Y-86962444D01*
X193094193Y-87032449D01*
X193089232Y-87035401D01*
X193089231Y-87035401D01*
X192989957Y-87094463D01*
X192920371Y-87135862D01*
X192768305Y-87269220D01*
X192643089Y-87428057D01*
X192548914Y-87607053D01*
X192547201Y-87612571D01*
X192492299Y-87789387D01*
X192488937Y-87800213D01*
X192465164Y-88001069D01*
X186729968Y-88001069D01*
X187177689Y-87553348D01*
X187195920Y-87538623D01*
X187197460Y-87537222D01*
X187206210Y-87531572D01*
X187226736Y-87505535D01*
X187230617Y-87501168D01*
X187230539Y-87501102D01*
X187233893Y-87497144D01*
X187237575Y-87493462D01*
X187248661Y-87477948D01*
X187252217Y-87473212D01*
X187283603Y-87433400D01*
X187286605Y-87424851D01*
X187291872Y-87417481D01*
X187306394Y-87368922D01*
X187308227Y-87363281D01*
X187322395Y-87322936D01*
X187322395Y-87322935D01*
X187325023Y-87315452D01*
X187325500Y-87309945D01*
X187325500Y-87307238D01*
X187325611Y-87304666D01*
X187325659Y-87304506D01*
X187325803Y-87304512D01*
X187325842Y-87303894D01*
X187327690Y-87297714D01*
X187325597Y-87244445D01*
X187325500Y-87239499D01*
X187325500Y-83907704D01*
X187345502Y-83839583D01*
X187351538Y-83831000D01*
X187430861Y-83727625D01*
X187486330Y-83593709D01*
X187505250Y-83450000D01*
X187486330Y-83306291D01*
X187430861Y-83172375D01*
X187342621Y-83057379D01*
X187227625Y-82969139D01*
X187093709Y-82913670D01*
X186950000Y-82894750D01*
X186806291Y-82913670D01*
X186672375Y-82969139D01*
X186557379Y-83057379D01*
X186469139Y-83172375D01*
X186413670Y-83306291D01*
X186394750Y-83450000D01*
X186413670Y-83593709D01*
X186469139Y-83727625D01*
X186548462Y-83831000D01*
X186574063Y-83897220D01*
X186574500Y-83907704D01*
X186574500Y-87042273D01*
X186554498Y-87110394D01*
X186537595Y-87131368D01*
X185931368Y-87737595D01*
X185869056Y-87771621D01*
X185842273Y-87774500D01*
X111103496Y-87774500D01*
X111080199Y-87772021D01*
X111078114Y-87771923D01*
X111067934Y-87769731D01*
X111035871Y-87773526D01*
X111035016Y-87773627D01*
X111029179Y-87773971D01*
X111029187Y-87774072D01*
X111024011Y-87774500D01*
X111018807Y-87774500D01*
X111006496Y-87776549D01*
X111000011Y-87777628D01*
X110994134Y-87778465D01*
X110943791Y-87784424D01*
X110935625Y-87788345D01*
X110926687Y-87789833D01*
X110917524Y-87794777D01*
X110882067Y-87813908D01*
X110876778Y-87816602D01*
X110838247Y-87835104D01*
X110838241Y-87835108D01*
X110831100Y-87838537D01*
X110826869Y-87842094D01*
X110824940Y-87844023D01*
X110823063Y-87845745D01*
X110822926Y-87845819D01*
X110822826Y-87845709D01*
X110822346Y-87846132D01*
X110816671Y-87849194D01*
X110809602Y-87856841D01*
X110809601Y-87856842D01*
X110780460Y-87888367D01*
X110777030Y-87891933D01*
X110022311Y-88646652D01*
X110004080Y-88661377D01*
X110002540Y-88662778D01*
X109993790Y-88668428D01*
X109987343Y-88676606D01*
X109973264Y-88694465D01*
X109969383Y-88698832D01*
X109969461Y-88698898D01*
X109966107Y-88702856D01*
X109962425Y-88706538D01*
X109951339Y-88722052D01*
X109947788Y-88726781D01*
X109916397Y-88766600D01*
X109913395Y-88775149D01*
X109908128Y-88782519D01*
X109905144Y-88792498D01*
X109893608Y-88831070D01*
X109891774Y-88836714D01*
X109877604Y-88877065D01*
X109877603Y-88877071D01*
X109874977Y-88884548D01*
X109874500Y-88890055D01*
X109874500Y-88892762D01*
X109874389Y-88895335D01*
X109874341Y-88895494D01*
X109874197Y-88895488D01*
X109874158Y-88896108D01*
X109872310Y-88902287D01*
X109872719Y-88912692D01*
X109874403Y-88955555D01*
X109874500Y-88960502D01*
X109874500Y-89857006D01*
X109854498Y-89925127D01*
X109831331Y-89951953D01*
X109763034Y-90011533D01*
X109758667Y-90017747D01*
X109684970Y-90122607D01*
X109672501Y-90140348D01*
X109615309Y-90287039D01*
X109614318Y-90294568D01*
X109596631Y-90428913D01*
X109594758Y-90443138D01*
X107870500Y-90443138D01*
X107870500Y-84043138D01*
X109694758Y-84043138D01*
X109712035Y-84199633D01*
X109766143Y-84347490D01*
X109770380Y-84353796D01*
X109770382Y-84353799D01*
X109810709Y-84413811D01*
X109853958Y-84478172D01*
X109970410Y-84584135D01*
X109977085Y-84587759D01*
X110102099Y-84655637D01*
X110102101Y-84655638D01*
X110108776Y-84659262D01*
X110116125Y-84661190D01*
X110253719Y-84697287D01*
X110253721Y-84697287D01*
X110261069Y-84699215D01*
X110344380Y-84700524D01*
X110410898Y-84701569D01*
X110410901Y-84701569D01*
X110418495Y-84701688D01*
X110571968Y-84666538D01*
X110712625Y-84595795D01*
X110738869Y-84573381D01*
X110826574Y-84498474D01*
X110826576Y-84498471D01*
X110832348Y-84493542D01*
X110924224Y-84365683D01*
X110982950Y-84219598D01*
X111005134Y-84063723D01*
X111005278Y-84050000D01*
X110986363Y-83893694D01*
X110930710Y-83746412D01*
X110841531Y-83616657D01*
X110767681Y-83550859D01*
X110730125Y-83490609D01*
X110725500Y-83456783D01*
X110725500Y-82557727D01*
X110745502Y-82489606D01*
X110762405Y-82468632D01*
X111268632Y-81962405D01*
X111330944Y-81928379D01*
X111357727Y-81925500D01*
X185996504Y-81925500D01*
X186019801Y-81927979D01*
X186021886Y-81928077D01*
X186032066Y-81930269D01*
X186064984Y-81926373D01*
X186070821Y-81926029D01*
X186070813Y-81925928D01*
X186075992Y-81925500D01*
X186081193Y-81925500D01*
X186086321Y-81924646D01*
X186086327Y-81924646D01*
X186099987Y-81922372D01*
X186105863Y-81921535D01*
X186110952Y-81920933D01*
X186156210Y-81915576D01*
X186164377Y-81911654D01*
X186173313Y-81910167D01*
X186182475Y-81905223D01*
X186182479Y-81905222D01*
X186217929Y-81886094D01*
X186223220Y-81883398D01*
X186261749Y-81864897D01*
X186261750Y-81864896D01*
X186268900Y-81861463D01*
X186273131Y-81857906D01*
X186275063Y-81855974D01*
X186276937Y-81854255D01*
X186277074Y-81854181D01*
X186277174Y-81854291D01*
X186277654Y-81853868D01*
X186283329Y-81850806D01*
X186319540Y-81811634D01*
X186322969Y-81808069D01*
X187277692Y-80853346D01*
X187295909Y-80838633D01*
X187297460Y-80837222D01*
X187306210Y-80831572D01*
X187312658Y-80823392D01*
X187312661Y-80823390D01*
X187326734Y-80805539D01*
X187330621Y-80801165D01*
X187330543Y-80801099D01*
X187333898Y-80797140D01*
X187337576Y-80793462D01*
X187340595Y-80789238D01*
X187340602Y-80789229D01*
X187348679Y-80777926D01*
X187352243Y-80773180D01*
X187377154Y-80741580D01*
X187383603Y-80733400D01*
X187386605Y-80724852D01*
X187391872Y-80717481D01*
X187406396Y-80668917D01*
X187408231Y-80663270D01*
X187422395Y-80622936D01*
X187422395Y-80622935D01*
X187425023Y-80615452D01*
X187425500Y-80609945D01*
X187425500Y-80607238D01*
X187425611Y-80604668D01*
X187425659Y-80604506D01*
X187425804Y-80604512D01*
X187425843Y-80603892D01*
X187427691Y-80597713D01*
X187425597Y-80544419D01*
X187425500Y-80539473D01*
X187425500Y-77107704D01*
X187445502Y-77039583D01*
X187451538Y-77031000D01*
X187500028Y-76967807D01*
X187530861Y-76927625D01*
X187586330Y-76793709D01*
X187605250Y-76650000D01*
X187586330Y-76506291D01*
X187530861Y-76372375D01*
X187442621Y-76257379D01*
X187327625Y-76169139D01*
X187193709Y-76113670D01*
X187050000Y-76094750D01*
X186906291Y-76113670D01*
X186772375Y-76169139D01*
X186657379Y-76257379D01*
X186569139Y-76372375D01*
X186513670Y-76506291D01*
X186494750Y-76650000D01*
X186513670Y-76793709D01*
X186569139Y-76927625D01*
X186599972Y-76967807D01*
X186648462Y-77031000D01*
X186674063Y-77097220D01*
X186674500Y-77107704D01*
X186674500Y-80342273D01*
X186654498Y-80410394D01*
X186637595Y-80431368D01*
X185931368Y-81137595D01*
X185869056Y-81171621D01*
X185842273Y-81174500D01*
X111203496Y-81174500D01*
X111180199Y-81172021D01*
X111178114Y-81171923D01*
X111167934Y-81169731D01*
X111135871Y-81173526D01*
X111135016Y-81173627D01*
X111129179Y-81173971D01*
X111129187Y-81174072D01*
X111124011Y-81174500D01*
X111118807Y-81174500D01*
X111106496Y-81176549D01*
X111100011Y-81177628D01*
X111094134Y-81178465D01*
X111043791Y-81184424D01*
X111035625Y-81188345D01*
X111026687Y-81189833D01*
X111017524Y-81194777D01*
X110982067Y-81213908D01*
X110976778Y-81216602D01*
X110938247Y-81235104D01*
X110938241Y-81235108D01*
X110931100Y-81238537D01*
X110926869Y-81242094D01*
X110924940Y-81244023D01*
X110923063Y-81245745D01*
X110922926Y-81245819D01*
X110922826Y-81245709D01*
X110922346Y-81246132D01*
X110916671Y-81249194D01*
X110909602Y-81256841D01*
X110909601Y-81256842D01*
X110880460Y-81288367D01*
X110877030Y-81291933D01*
X110122311Y-82046652D01*
X110104080Y-82061377D01*
X110102540Y-82062778D01*
X110093790Y-82068428D01*
X110087343Y-82076606D01*
X110073264Y-82094465D01*
X110069383Y-82098832D01*
X110069461Y-82098898D01*
X110066107Y-82102856D01*
X110062425Y-82106538D01*
X110051339Y-82122052D01*
X110047788Y-82126781D01*
X110016397Y-82166600D01*
X110013395Y-82175149D01*
X110008128Y-82182519D01*
X110005144Y-82192498D01*
X109993608Y-82231070D01*
X109991774Y-82236714D01*
X109977604Y-82277065D01*
X109977603Y-82277071D01*
X109974977Y-82284548D01*
X109974500Y-82290055D01*
X109974500Y-82292762D01*
X109974389Y-82295335D01*
X109974341Y-82295494D01*
X109974197Y-82295488D01*
X109974158Y-82296108D01*
X109972310Y-82302287D01*
X109972719Y-82312692D01*
X109974403Y-82355555D01*
X109974500Y-82360502D01*
X109974500Y-83457006D01*
X109954498Y-83525127D01*
X109931331Y-83551953D01*
X109863034Y-83611533D01*
X109858667Y-83617747D01*
X109786805Y-83719996D01*
X109772501Y-83740348D01*
X109715309Y-83887039D01*
X109694758Y-84043138D01*
X107870500Y-84043138D01*
X107870500Y-76943138D01*
X109594758Y-76943138D01*
X109612035Y-77099633D01*
X109666143Y-77247490D01*
X109670380Y-77253796D01*
X109670382Y-77253799D01*
X109710709Y-77313811D01*
X109753958Y-77378172D01*
X109870410Y-77484135D01*
X109877085Y-77487759D01*
X110002099Y-77555637D01*
X110002101Y-77555638D01*
X110008776Y-77559262D01*
X110016125Y-77561190D01*
X110153719Y-77597287D01*
X110153721Y-77597287D01*
X110161069Y-77599215D01*
X110244380Y-77600524D01*
X110310898Y-77601569D01*
X110310901Y-77601569D01*
X110318495Y-77601688D01*
X110471968Y-77566538D01*
X110612625Y-77495795D01*
X110638869Y-77473381D01*
X110726574Y-77398474D01*
X110726576Y-77398471D01*
X110732348Y-77393542D01*
X110824224Y-77265683D01*
X110882950Y-77119598D01*
X110905134Y-76963723D01*
X110905278Y-76950000D01*
X110886363Y-76793694D01*
X110830710Y-76646412D01*
X110741531Y-76516657D01*
X110667681Y-76450859D01*
X110630125Y-76390609D01*
X110625500Y-76356783D01*
X110625500Y-75057727D01*
X110645502Y-74989606D01*
X110662405Y-74968632D01*
X111168632Y-74462405D01*
X111230944Y-74428379D01*
X111257727Y-74425500D01*
X186196504Y-74425500D01*
X186219801Y-74427979D01*
X186221886Y-74428077D01*
X186232066Y-74430269D01*
X186264984Y-74426373D01*
X186270821Y-74426029D01*
X186270813Y-74425928D01*
X186275992Y-74425500D01*
X186281193Y-74425500D01*
X186286321Y-74424646D01*
X186286327Y-74424646D01*
X186299987Y-74422372D01*
X186305863Y-74421535D01*
X186310952Y-74420933D01*
X186356210Y-74415576D01*
X186364377Y-74411654D01*
X186373313Y-74410167D01*
X186382475Y-74405223D01*
X186382479Y-74405222D01*
X186417929Y-74386094D01*
X186423220Y-74383398D01*
X186461749Y-74364897D01*
X186461750Y-74364896D01*
X186468900Y-74361463D01*
X186473131Y-74357906D01*
X186475063Y-74355974D01*
X186476937Y-74354255D01*
X186477074Y-74354181D01*
X186477174Y-74354291D01*
X186477654Y-74353868D01*
X186483329Y-74350806D01*
X186519541Y-74311632D01*
X186522970Y-74308067D01*
X187277689Y-73553348D01*
X187295920Y-73538623D01*
X187297460Y-73537222D01*
X187306210Y-73531572D01*
X187326736Y-73505535D01*
X187330617Y-73501168D01*
X187330539Y-73501102D01*
X187333893Y-73497144D01*
X187337575Y-73493462D01*
X187348661Y-73477948D01*
X187352217Y-73473212D01*
X187383603Y-73433400D01*
X187386605Y-73424851D01*
X187391872Y-73417481D01*
X187406396Y-73368917D01*
X187408231Y-73363270D01*
X187422395Y-73322936D01*
X187422395Y-73322935D01*
X187425023Y-73315452D01*
X187425500Y-73309945D01*
X187425500Y-73307238D01*
X187425611Y-73304668D01*
X187425659Y-73304506D01*
X187425804Y-73304512D01*
X187425843Y-73303892D01*
X187427691Y-73297713D01*
X187425597Y-73244419D01*
X187425500Y-73239473D01*
X187425500Y-69957704D01*
X187445502Y-69889583D01*
X187451538Y-69881000D01*
X187463291Y-69865683D01*
X187530861Y-69777625D01*
X187586330Y-69643709D01*
X187605250Y-69500000D01*
X187586330Y-69356291D01*
X187530861Y-69222375D01*
X187442621Y-69107379D01*
X187327625Y-69019139D01*
X187193709Y-68963670D01*
X187050000Y-68944750D01*
X186906291Y-68963670D01*
X186772375Y-69019139D01*
X186657379Y-69107379D01*
X186569139Y-69222375D01*
X186513670Y-69356291D01*
X186494750Y-69500000D01*
X186513670Y-69643709D01*
X186569139Y-69777625D01*
X186636709Y-69865683D01*
X186648462Y-69881000D01*
X186674063Y-69947220D01*
X186674500Y-69957704D01*
X186674500Y-73042273D01*
X186654498Y-73110394D01*
X186637595Y-73131368D01*
X186131368Y-73637595D01*
X186069056Y-73671621D01*
X186042273Y-73674500D01*
X111103496Y-73674500D01*
X111080199Y-73672021D01*
X111078114Y-73671923D01*
X111067934Y-73669731D01*
X111035871Y-73673526D01*
X111035016Y-73673627D01*
X111029179Y-73673971D01*
X111029187Y-73674072D01*
X111024011Y-73674500D01*
X111018807Y-73674500D01*
X111006496Y-73676549D01*
X111000011Y-73677628D01*
X110994134Y-73678465D01*
X110943791Y-73684424D01*
X110935625Y-73688345D01*
X110926687Y-73689833D01*
X110917524Y-73694777D01*
X110882067Y-73713908D01*
X110876778Y-73716602D01*
X110838247Y-73735104D01*
X110838241Y-73735108D01*
X110831100Y-73738537D01*
X110826869Y-73742094D01*
X110824940Y-73744023D01*
X110823063Y-73745745D01*
X110822926Y-73745819D01*
X110822826Y-73745709D01*
X110822346Y-73746132D01*
X110816671Y-73749194D01*
X110809602Y-73756841D01*
X110809601Y-73756842D01*
X110780460Y-73788367D01*
X110777030Y-73791933D01*
X110022311Y-74546652D01*
X110004080Y-74561377D01*
X110002540Y-74562778D01*
X109993790Y-74568428D01*
X109987343Y-74576606D01*
X109973264Y-74594465D01*
X109969383Y-74598832D01*
X109969461Y-74598898D01*
X109966107Y-74602856D01*
X109962425Y-74606538D01*
X109951339Y-74622052D01*
X109947788Y-74626781D01*
X109916397Y-74666600D01*
X109913395Y-74675149D01*
X109908128Y-74682519D01*
X109905144Y-74692498D01*
X109893608Y-74731070D01*
X109891774Y-74736714D01*
X109877604Y-74777065D01*
X109877603Y-74777071D01*
X109874977Y-74784548D01*
X109874500Y-74790055D01*
X109874500Y-74792762D01*
X109874389Y-74795335D01*
X109874341Y-74795494D01*
X109874197Y-74795488D01*
X109874158Y-74796108D01*
X109872310Y-74802287D01*
X109872719Y-74812692D01*
X109874403Y-74855555D01*
X109874500Y-74860502D01*
X109874500Y-76357006D01*
X109854498Y-76425127D01*
X109831331Y-76451953D01*
X109763034Y-76511533D01*
X109672501Y-76640348D01*
X109615309Y-76787039D01*
X109614318Y-76794568D01*
X109595938Y-76934178D01*
X109594758Y-76943138D01*
X107870500Y-76943138D01*
X107870500Y-69543138D01*
X109494758Y-69543138D01*
X109512035Y-69699633D01*
X109566143Y-69847490D01*
X109570380Y-69853796D01*
X109570382Y-69853799D01*
X109585392Y-69876136D01*
X109653958Y-69978172D01*
X109770410Y-70084135D01*
X109777085Y-70087759D01*
X109902099Y-70155637D01*
X109902101Y-70155638D01*
X109908776Y-70159262D01*
X109916125Y-70161190D01*
X110053719Y-70197287D01*
X110053721Y-70197287D01*
X110061069Y-70199215D01*
X110144380Y-70200524D01*
X110210898Y-70201569D01*
X110210901Y-70201569D01*
X110218495Y-70201688D01*
X110371968Y-70166538D01*
X110512625Y-70095795D01*
X110538869Y-70073381D01*
X110626574Y-69998474D01*
X110626576Y-69998471D01*
X110632348Y-69993542D01*
X110724224Y-69865683D01*
X110782950Y-69719598D01*
X110792664Y-69651340D01*
X110804553Y-69567807D01*
X110804553Y-69567804D01*
X110805134Y-69563723D01*
X110805278Y-69550000D01*
X110786363Y-69393694D01*
X110730710Y-69246412D01*
X110641531Y-69116657D01*
X110567681Y-69050859D01*
X110530125Y-68990609D01*
X110525500Y-68956783D01*
X110525500Y-68057727D01*
X110545502Y-67989606D01*
X110562405Y-67968632D01*
X110968632Y-67562405D01*
X111030944Y-67528379D01*
X111057727Y-67525500D01*
X185996504Y-67525500D01*
X186019801Y-67527979D01*
X186021886Y-67528077D01*
X186032066Y-67530269D01*
X186064984Y-67526373D01*
X186070821Y-67526029D01*
X186070813Y-67525928D01*
X186075992Y-67525500D01*
X186081193Y-67525500D01*
X186086321Y-67524646D01*
X186086327Y-67524646D01*
X186099987Y-67522372D01*
X186105863Y-67521535D01*
X186110952Y-67520933D01*
X186156210Y-67515576D01*
X186164377Y-67511654D01*
X186173313Y-67510167D01*
X186182475Y-67505223D01*
X186182479Y-67505222D01*
X186217929Y-67486094D01*
X186223220Y-67483398D01*
X186261749Y-67464897D01*
X186261750Y-67464896D01*
X186268900Y-67461463D01*
X186273131Y-67457906D01*
X186275063Y-67455974D01*
X186276937Y-67454255D01*
X186277074Y-67454181D01*
X186277174Y-67454291D01*
X186277654Y-67453868D01*
X186283329Y-67450806D01*
X186319541Y-67411632D01*
X186322970Y-67408067D01*
X187077689Y-66653348D01*
X187095920Y-66638623D01*
X187097460Y-66637222D01*
X187106210Y-66631572D01*
X187126736Y-66605535D01*
X187130617Y-66601168D01*
X187130539Y-66601102D01*
X187133893Y-66597144D01*
X187137575Y-66593462D01*
X187148661Y-66577948D01*
X187152217Y-66573212D01*
X187183603Y-66533400D01*
X187186605Y-66524851D01*
X187191872Y-66517481D01*
X187206396Y-66468917D01*
X187208231Y-66463270D01*
X187222395Y-66422936D01*
X187222395Y-66422935D01*
X187225023Y-66415452D01*
X187225500Y-66409945D01*
X187225500Y-66407238D01*
X187225611Y-66404668D01*
X187225659Y-66404506D01*
X187225804Y-66404512D01*
X187225843Y-66403892D01*
X187227691Y-66397713D01*
X187225597Y-66344419D01*
X187225500Y-66339473D01*
X187225500Y-62907704D01*
X187245502Y-62839583D01*
X187251538Y-62831000D01*
X187252414Y-62829858D01*
X187330861Y-62727625D01*
X187386330Y-62593709D01*
X187405250Y-62450000D01*
X187386330Y-62306291D01*
X187330861Y-62172375D01*
X187242621Y-62057379D01*
X187127625Y-61969139D01*
X186993709Y-61913670D01*
X186850000Y-61894750D01*
X186706291Y-61913670D01*
X186572375Y-61969139D01*
X186457379Y-62057379D01*
X186369139Y-62172375D01*
X186313670Y-62306291D01*
X186294750Y-62450000D01*
X186313670Y-62593709D01*
X186369139Y-62727625D01*
X186447586Y-62829858D01*
X186448462Y-62831000D01*
X186474063Y-62897220D01*
X186474500Y-62907704D01*
X186474500Y-66142273D01*
X186454498Y-66210394D01*
X186437595Y-66231368D01*
X185931368Y-66737595D01*
X185869056Y-66771621D01*
X185842273Y-66774500D01*
X110903496Y-66774500D01*
X110880208Y-66772021D01*
X110878110Y-66771922D01*
X110867933Y-66769731D01*
X110835870Y-66773526D01*
X110835015Y-66773627D01*
X110829179Y-66773971D01*
X110829187Y-66774072D01*
X110824008Y-66774500D01*
X110818807Y-66774500D01*
X110813677Y-66775354D01*
X110813675Y-66775354D01*
X110800008Y-66777629D01*
X110794131Y-66778466D01*
X110743790Y-66784424D01*
X110735623Y-66788346D01*
X110726687Y-66789833D01*
X110717525Y-66794777D01*
X110717521Y-66794778D01*
X110682071Y-66813906D01*
X110676780Y-66816602D01*
X110638251Y-66835103D01*
X110631100Y-66838537D01*
X110626869Y-66842094D01*
X110624937Y-66844026D01*
X110623063Y-66845745D01*
X110622926Y-66845819D01*
X110622826Y-66845709D01*
X110622346Y-66846132D01*
X110616671Y-66849194D01*
X110609602Y-66856841D01*
X110609601Y-66856842D01*
X110580460Y-66888367D01*
X110577030Y-66891933D01*
X109922311Y-67546652D01*
X109904080Y-67561377D01*
X109902540Y-67562778D01*
X109893790Y-67568428D01*
X109887343Y-67576606D01*
X109873264Y-67594465D01*
X109869383Y-67598832D01*
X109869461Y-67598898D01*
X109866107Y-67602856D01*
X109862425Y-67606538D01*
X109851339Y-67622052D01*
X109847788Y-67626781D01*
X109816397Y-67666600D01*
X109813395Y-67675149D01*
X109808128Y-67682519D01*
X109805144Y-67692498D01*
X109793608Y-67731070D01*
X109791774Y-67736714D01*
X109777604Y-67777065D01*
X109777603Y-67777071D01*
X109774977Y-67784548D01*
X109774500Y-67790055D01*
X109774500Y-67792762D01*
X109774389Y-67795335D01*
X109774341Y-67795494D01*
X109774197Y-67795488D01*
X109774158Y-67796108D01*
X109772310Y-67802287D01*
X109772719Y-67812692D01*
X109774403Y-67855555D01*
X109774500Y-67860502D01*
X109774500Y-68957006D01*
X109754498Y-69025127D01*
X109731331Y-69051953D01*
X109663034Y-69111533D01*
X109658667Y-69117747D01*
X109585133Y-69222375D01*
X109572501Y-69240348D01*
X109515309Y-69387039D01*
X109514318Y-69394568D01*
X109508001Y-69442552D01*
X109494758Y-69543138D01*
X107870500Y-69543138D01*
X107870500Y-57268083D01*
X107890502Y-57199962D01*
X107907405Y-57178988D01*
X109149356Y-55937036D01*
X109211668Y-55903011D01*
X109240429Y-55900147D01*
X109273377Y-55900665D01*
X109330898Y-55901569D01*
X109330901Y-55901569D01*
X109338495Y-55901688D01*
X109491968Y-55866538D01*
X109632625Y-55795795D01*
X109658869Y-55773381D01*
X109746574Y-55698474D01*
X109746576Y-55698471D01*
X109752348Y-55693542D01*
X109844224Y-55565683D01*
X109902950Y-55419598D01*
X109915796Y-55329334D01*
X109924553Y-55267807D01*
X109924553Y-55267804D01*
X109925134Y-55263723D01*
X109925278Y-55250000D01*
X109906363Y-55093694D01*
X109874106Y-55008328D01*
X109853394Y-54953514D01*
X109853393Y-54953511D01*
X109850710Y-54946412D01*
X109761531Y-54816657D01*
X109714971Y-54775174D01*
X109649648Y-54716972D01*
X109649645Y-54716970D01*
X109643976Y-54711919D01*
X109504831Y-54638245D01*
X109488122Y-54634048D01*
X109359498Y-54601740D01*
X109359496Y-54601740D01*
X109352128Y-54599889D01*
X109344530Y-54599849D01*
X109344528Y-54599849D01*
X109277319Y-54599497D01*
X109194684Y-54599065D01*
X109187305Y-54600837D01*
X109187301Y-54600837D01*
X109048967Y-54634048D01*
X109048963Y-54634049D01*
X109041588Y-54635820D01*
X108901679Y-54708032D01*
X108895957Y-54713024D01*
X108895955Y-54713025D01*
X108788759Y-54806538D01*
X108788756Y-54806541D01*
X108783034Y-54811533D01*
X108692501Y-54940348D01*
X108635309Y-55087039D01*
X108634318Y-55094568D01*
X108616002Y-55233690D01*
X108614758Y-55243138D01*
X108617635Y-55269195D01*
X108605229Y-55339099D01*
X108581491Y-55372117D01*
X107164516Y-56789091D01*
X107164513Y-56789095D01*
X107141950Y-56811658D01*
X107137446Y-56820498D01*
X107131965Y-56831255D01*
X107121639Y-56848107D01*
X107108704Y-56865910D01*
X107101907Y-56886830D01*
X107094341Y-56905094D01*
X107088856Y-56915859D01*
X107088855Y-56915863D01*
X107084354Y-56924696D01*
X107082803Y-56934487D01*
X107082803Y-56934488D01*
X107080913Y-56946422D01*
X107076297Y-56965647D01*
X107072565Y-56977132D01*
X107072564Y-56977136D01*
X107069500Y-56986567D01*
X107069500Y-95711917D01*
X107049498Y-95780038D01*
X107032595Y-95801012D01*
X104170836Y-98662771D01*
X104108524Y-98696797D01*
X104035051Y-98690706D01*
X104031204Y-98689171D01*
X103983898Y-98670298D01*
X103785526Y-98630839D01*
X103779752Y-98630763D01*
X103779748Y-98630763D01*
X103677257Y-98629422D01*
X103583286Y-98628192D01*
X103577589Y-98629171D01*
X103577588Y-98629171D01*
X103389646Y-98661465D01*
X103389645Y-98661465D01*
X103383949Y-98662444D01*
X103194193Y-98732449D01*
X103020371Y-98835862D01*
X102868305Y-98969220D01*
X102743089Y-99128057D01*
X102648914Y-99307053D01*
X102588937Y-99500213D01*
X102565164Y-99701069D01*
X102578392Y-99902894D01*
X102628178Y-100098928D01*
X102712856Y-100282607D01*
X102829588Y-100447780D01*
X102974466Y-100588913D01*
X103142637Y-100701282D01*
X103147940Y-100703560D01*
X103147943Y-100703562D01*
X103248709Y-100746854D01*
X103303402Y-100792122D01*
X103324939Y-100859773D01*
X103306482Y-100928329D01*
X103253891Y-100976023D01*
X103238116Y-100982387D01*
X103146868Y-101012212D01*
X103137359Y-101016209D01*
X102948463Y-101114542D01*
X102939738Y-101120036D01*
X102769433Y-101247905D01*
X102761726Y-101254748D01*
X102614590Y-101408717D01*
X102608104Y-101416727D01*
X102488098Y-101592649D01*
X102483000Y-101601623D01*
X102393338Y-101794783D01*
X102389775Y-101804470D01*
X102334389Y-102004183D01*
X98820500Y-102004183D01*
X98820500Y-97161069D01*
X102565164Y-97161069D01*
X102578392Y-97362894D01*
X102601398Y-97453481D01*
X102617443Y-97516657D01*
X102628178Y-97558928D01*
X102712856Y-97742607D01*
X102829588Y-97907780D01*
X102974466Y-98048913D01*
X103142637Y-98161282D01*
X103147940Y-98163560D01*
X103147943Y-98163562D01*
X103236291Y-98201519D01*
X103328470Y-98241122D01*
X103525740Y-98285760D01*
X103531509Y-98285987D01*
X103531512Y-98285987D01*
X103607683Y-98288979D01*
X103727842Y-98293700D01*
X103814132Y-98281189D01*
X103922286Y-98265508D01*
X103922291Y-98265507D01*
X103928007Y-98264678D01*
X103933479Y-98262820D01*
X103933481Y-98262820D01*
X104114067Y-98201519D01*
X104114069Y-98201518D01*
X104119531Y-98199664D01*
X104296001Y-98100837D01*
X104358433Y-98048913D01*
X104447073Y-97975191D01*
X104451505Y-97971505D01*
X104580837Y-97816001D01*
X104593330Y-97793694D01*
X104676845Y-97644564D01*
X104679664Y-97639531D01*
X104697999Y-97585520D01*
X104742820Y-97453481D01*
X104742820Y-97453479D01*
X104744678Y-97448007D01*
X104745507Y-97442291D01*
X104745508Y-97442286D01*
X104773167Y-97251516D01*
X104773700Y-97247842D01*
X104775215Y-97190000D01*
X104756708Y-96988591D01*
X104752641Y-96974168D01*
X104722154Y-96866072D01*
X104722914Y-96795079D01*
X104754328Y-96742775D01*
X106359350Y-95137753D01*
X106370439Y-95127899D01*
X106389709Y-95112707D01*
X106389711Y-95112705D01*
X106397110Y-95106872D01*
X106409900Y-95088367D01*
X106430455Y-95058625D01*
X106432757Y-95055403D01*
X106462040Y-95015758D01*
X106462041Y-95015757D01*
X106467634Y-95008184D01*
X106470027Y-95001368D01*
X106474131Y-94995431D01*
X106477126Y-94985963D01*
X106491818Y-94939505D01*
X106493071Y-94935750D01*
X106509396Y-94889263D01*
X106509396Y-94889261D01*
X106512519Y-94880369D01*
X106512801Y-94873181D01*
X106512812Y-94873122D01*
X106514980Y-94866270D01*
X106515500Y-94859663D01*
X106515500Y-94806984D01*
X106515597Y-94802037D01*
X106517468Y-94754418D01*
X106517838Y-94745006D01*
X106515954Y-94737900D01*
X106515500Y-94729656D01*
X106515500Y-74480954D01*
X106535502Y-74412833D01*
X106544955Y-74400586D01*
X106547348Y-74398542D01*
X106558393Y-74383172D01*
X106634793Y-74276849D01*
X106639224Y-74270683D01*
X106697950Y-74124598D01*
X106720134Y-73968723D01*
X106720278Y-73955000D01*
X106701363Y-73798694D01*
X106678632Y-73738537D01*
X106648394Y-73658514D01*
X106648393Y-73658511D01*
X106645710Y-73651412D01*
X106556531Y-73521657D01*
X106457474Y-73433400D01*
X106444648Y-73421972D01*
X106444645Y-73421970D01*
X106438976Y-73416919D01*
X106299831Y-73343245D01*
X106218977Y-73322936D01*
X106154498Y-73306740D01*
X106154496Y-73306740D01*
X106147128Y-73304889D01*
X106139530Y-73304849D01*
X106139528Y-73304849D01*
X106072319Y-73304497D01*
X105989684Y-73304065D01*
X105982305Y-73305837D01*
X105982301Y-73305837D01*
X105843967Y-73339048D01*
X105843963Y-73339049D01*
X105836588Y-73340820D01*
X105696679Y-73413032D01*
X105690957Y-73418024D01*
X105690955Y-73418025D01*
X105583759Y-73511538D01*
X105583756Y-73511541D01*
X105578034Y-73516533D01*
X105487501Y-73645348D01*
X105430309Y-73792039D01*
X105409758Y-73948138D01*
X105427035Y-74104633D01*
X105481143Y-74252490D01*
X105485380Y-74258796D01*
X105485382Y-74258799D01*
X105518489Y-74308067D01*
X105568958Y-74383172D01*
X105574575Y-74388283D01*
X105579542Y-74394038D01*
X105578210Y-74395187D01*
X105610223Y-74447765D01*
X105614500Y-74480317D01*
X105614500Y-94556207D01*
X105594498Y-94624328D01*
X105577595Y-94645302D01*
X104715290Y-95507607D01*
X104652978Y-95541633D01*
X104582163Y-95536568D01*
X104525327Y-95494021D01*
X104500516Y-95427501D01*
X104515607Y-95358127D01*
X104529321Y-95337942D01*
X104577146Y-95280439D01*
X104580837Y-95276001D01*
X104679664Y-95099531D01*
X104695465Y-95052985D01*
X104742820Y-94913481D01*
X104742820Y-94913479D01*
X104744678Y-94908007D01*
X104745507Y-94902291D01*
X104745508Y-94902286D01*
X104766947Y-94754418D01*
X104773700Y-94707842D01*
X104775215Y-94650000D01*
X104756708Y-94448591D01*
X104701807Y-94253926D01*
X104616668Y-94081282D01*
X104614906Y-94077708D01*
X104612351Y-94072527D01*
X104594079Y-94048057D01*
X104494788Y-93915091D01*
X104494787Y-93915090D01*
X104491335Y-93910467D01*
X104487099Y-93906551D01*
X104347053Y-93777094D01*
X104347051Y-93777092D01*
X104342812Y-93773174D01*
X104315374Y-93755862D01*
X104176637Y-93668325D01*
X104171757Y-93665246D01*
X103983898Y-93590298D01*
X103785526Y-93550839D01*
X103779752Y-93550763D01*
X103779748Y-93550763D01*
X103677257Y-93549422D01*
X103583286Y-93548192D01*
X103577589Y-93549171D01*
X103577588Y-93549171D01*
X103389646Y-93581465D01*
X103389645Y-93581465D01*
X103383949Y-93582444D01*
X103194193Y-93652449D01*
X103189232Y-93655401D01*
X103189231Y-93655401D01*
X103185932Y-93657364D01*
X103020371Y-93755862D01*
X102868305Y-93889220D01*
X102743089Y-94048057D01*
X102648914Y-94227053D01*
X102588937Y-94420213D01*
X102565164Y-94621069D01*
X102578392Y-94822894D01*
X102598555Y-94902286D01*
X102625968Y-95010225D01*
X102628178Y-95018928D01*
X102712856Y-95202607D01*
X102829588Y-95367780D01*
X102974466Y-95508913D01*
X103142637Y-95621282D01*
X103147940Y-95623560D01*
X103147943Y-95623562D01*
X103323163Y-95698842D01*
X103328470Y-95701122D01*
X103525740Y-95745760D01*
X103531509Y-95745987D01*
X103531512Y-95745987D01*
X103607683Y-95748979D01*
X103727842Y-95753700D01*
X103814132Y-95741189D01*
X103922286Y-95725508D01*
X103922291Y-95725507D01*
X103928007Y-95724678D01*
X103933479Y-95722820D01*
X103933481Y-95722820D01*
X104114067Y-95661519D01*
X104114069Y-95661518D01*
X104119531Y-95659664D01*
X104296001Y-95560837D01*
X104357942Y-95509321D01*
X104423107Y-95481140D01*
X104493162Y-95492664D01*
X104545866Y-95540232D01*
X104564486Y-95608744D01*
X104543110Y-95676446D01*
X104527607Y-95695290D01*
X104120292Y-96102605D01*
X104057980Y-96136631D01*
X103995572Y-96131483D01*
X103994803Y-96134079D01*
X103989259Y-96132437D01*
X103983898Y-96130298D01*
X103844677Y-96102605D01*
X103791192Y-96091966D01*
X103791191Y-96091966D01*
X103785526Y-96090839D01*
X103779752Y-96090763D01*
X103779748Y-96090763D01*
X103677257Y-96089422D01*
X103583286Y-96088192D01*
X103577589Y-96089171D01*
X103577588Y-96089171D01*
X103389646Y-96121465D01*
X103389645Y-96121465D01*
X103383949Y-96122444D01*
X103194193Y-96192449D01*
X103189232Y-96195401D01*
X103189231Y-96195401D01*
X103066141Y-96268632D01*
X103020371Y-96295862D01*
X102868305Y-96429220D01*
X102743089Y-96588057D01*
X102648914Y-96767053D01*
X102588937Y-96960213D01*
X102565164Y-97161069D01*
X98820500Y-97161069D01*
X98820500Y-92081069D01*
X102565164Y-92081069D01*
X102578392Y-92282894D01*
X102628178Y-92478928D01*
X102712856Y-92662607D01*
X102829588Y-92827780D01*
X102974466Y-92968913D01*
X103142637Y-93081282D01*
X103147940Y-93083560D01*
X103147943Y-93083562D01*
X103236291Y-93121519D01*
X103328470Y-93161122D01*
X103525740Y-93205760D01*
X103531509Y-93205987D01*
X103531512Y-93205987D01*
X103607683Y-93208979D01*
X103727842Y-93213700D01*
X103814132Y-93201189D01*
X103922286Y-93185508D01*
X103922291Y-93185507D01*
X103928007Y-93184678D01*
X103933479Y-93182820D01*
X103933481Y-93182820D01*
X104114067Y-93121519D01*
X104114069Y-93121518D01*
X104119531Y-93119664D01*
X104296001Y-93020837D01*
X104358433Y-92968913D01*
X104447073Y-92895191D01*
X104451505Y-92891505D01*
X104580837Y-92736001D01*
X104593200Y-92713926D01*
X104676845Y-92564564D01*
X104679664Y-92559531D01*
X104690402Y-92527900D01*
X104742820Y-92373481D01*
X104742820Y-92373479D01*
X104744678Y-92368007D01*
X104745507Y-92362291D01*
X104745508Y-92362286D01*
X104766185Y-92219672D01*
X104773700Y-92167842D01*
X104775215Y-92110000D01*
X104756708Y-91908591D01*
X104701807Y-91713926D01*
X104616668Y-91541282D01*
X104614906Y-91537708D01*
X104612351Y-91532527D01*
X104594079Y-91508057D01*
X104494788Y-91375091D01*
X104494787Y-91375090D01*
X104491335Y-91370467D01*
X104487099Y-91366551D01*
X104347053Y-91237094D01*
X104347051Y-91237092D01*
X104342812Y-91233174D01*
X104315374Y-91215862D01*
X104176637Y-91128325D01*
X104171757Y-91125246D01*
X103983898Y-91050298D01*
X103785526Y-91010839D01*
X103779752Y-91010763D01*
X103779748Y-91010763D01*
X103677257Y-91009422D01*
X103583286Y-91008192D01*
X103577589Y-91009171D01*
X103577588Y-91009171D01*
X103389646Y-91041465D01*
X103389645Y-91041465D01*
X103383949Y-91042444D01*
X103194193Y-91112449D01*
X103189232Y-91115401D01*
X103189231Y-91115401D01*
X103185932Y-91117364D01*
X103020371Y-91215862D01*
X102868305Y-91349220D01*
X102743089Y-91508057D01*
X102648914Y-91687053D01*
X102588937Y-91880213D01*
X102565164Y-92081069D01*
X98820500Y-92081069D01*
X98820500Y-89541069D01*
X102565164Y-89541069D01*
X102578392Y-89742894D01*
X102595237Y-89809220D01*
X102621664Y-89913277D01*
X102628178Y-89938928D01*
X102712856Y-90122607D01*
X102716189Y-90127323D01*
X102824064Y-90279963D01*
X102829588Y-90287780D01*
X102974466Y-90428913D01*
X102979270Y-90432123D01*
X103032675Y-90467807D01*
X103142637Y-90541282D01*
X103147940Y-90543560D01*
X103147943Y-90543562D01*
X103323163Y-90618842D01*
X103328470Y-90621122D01*
X103525740Y-90665760D01*
X103531509Y-90665987D01*
X103531512Y-90665987D01*
X103607683Y-90668979D01*
X103727842Y-90673700D01*
X103814132Y-90661189D01*
X103922286Y-90645508D01*
X103922291Y-90645507D01*
X103928007Y-90644678D01*
X103933479Y-90642820D01*
X103933481Y-90642820D01*
X104114067Y-90581519D01*
X104114069Y-90581518D01*
X104119531Y-90579664D01*
X104296001Y-90480837D01*
X104358433Y-90428913D01*
X104447073Y-90355191D01*
X104451505Y-90351505D01*
X104580837Y-90196001D01*
X104593200Y-90173926D01*
X104624875Y-90117364D01*
X104679664Y-90019531D01*
X104690402Y-89987900D01*
X104742820Y-89833481D01*
X104742820Y-89833479D01*
X104744678Y-89828007D01*
X104745507Y-89822291D01*
X104745508Y-89822286D01*
X104766185Y-89679672D01*
X104773700Y-89627842D01*
X104775215Y-89570000D01*
X104756708Y-89368591D01*
X104701807Y-89173926D01*
X104616668Y-89001282D01*
X104614906Y-88997708D01*
X104612351Y-88992527D01*
X104594079Y-88968057D01*
X104494788Y-88835091D01*
X104494787Y-88835090D01*
X104491335Y-88830467D01*
X104487099Y-88826551D01*
X104347053Y-88697094D01*
X104347051Y-88697092D01*
X104342812Y-88693174D01*
X104315374Y-88675862D01*
X104176637Y-88588325D01*
X104171757Y-88585246D01*
X103983898Y-88510298D01*
X103785526Y-88470839D01*
X103779752Y-88470763D01*
X103779748Y-88470763D01*
X103677257Y-88469422D01*
X103583286Y-88468192D01*
X103577589Y-88469171D01*
X103577588Y-88469171D01*
X103389646Y-88501465D01*
X103389645Y-88501465D01*
X103383949Y-88502444D01*
X103194193Y-88572449D01*
X103189232Y-88575401D01*
X103189231Y-88575401D01*
X103069469Y-88646652D01*
X103020371Y-88675862D01*
X102868305Y-88809220D01*
X102743089Y-88968057D01*
X102648914Y-89147053D01*
X102588937Y-89340213D01*
X102565164Y-89541069D01*
X98820500Y-89541069D01*
X98820500Y-70965000D01*
X101969203Y-70965000D01*
X101969591Y-70969930D01*
X101969591Y-70969933D01*
X101977653Y-71072376D01*
X101988911Y-71215420D01*
X102047552Y-71459673D01*
X102049446Y-71464245D01*
X102137180Y-71676056D01*
X102143679Y-71691747D01*
X102274928Y-71905925D01*
X102438066Y-72096934D01*
X102629075Y-72260072D01*
X102843253Y-72391321D01*
X102847823Y-72393214D01*
X102847827Y-72393216D01*
X102988715Y-72451573D01*
X103075327Y-72487448D01*
X103319580Y-72546089D01*
X103570000Y-72565797D01*
X103820420Y-72546089D01*
X104064673Y-72487448D01*
X104151285Y-72451573D01*
X104292173Y-72393216D01*
X104292177Y-72393214D01*
X104296747Y-72391321D01*
X104510925Y-72260072D01*
X104701934Y-72096934D01*
X104865072Y-71905925D01*
X104996321Y-71691747D01*
X105002821Y-71676056D01*
X105090554Y-71464245D01*
X105092448Y-71459673D01*
X105151089Y-71215420D01*
X105170797Y-70965000D01*
X105151089Y-70714580D01*
X105092448Y-70470327D01*
X104996321Y-70238253D01*
X104865072Y-70024075D01*
X104701934Y-69833066D01*
X104510925Y-69669928D01*
X104315221Y-69550000D01*
X104300967Y-69541265D01*
X104296747Y-69538679D01*
X104292177Y-69536786D01*
X104292173Y-69536784D01*
X104151285Y-69478427D01*
X104064673Y-69442552D01*
X103820420Y-69383911D01*
X103570000Y-69364203D01*
X103319580Y-69383911D01*
X103075327Y-69442552D01*
X102988715Y-69478427D01*
X102847827Y-69536784D01*
X102847823Y-69536786D01*
X102843253Y-69538679D01*
X102839033Y-69541265D01*
X102824779Y-69550000D01*
X102629075Y-69669928D01*
X102438066Y-69833066D01*
X102274928Y-70024075D01*
X102143679Y-70238253D01*
X102047552Y-70470327D01*
X102046396Y-70475142D01*
X101990068Y-70709762D01*
X101988911Y-70714580D01*
X101988523Y-70719513D01*
X101971459Y-70936340D01*
X101971458Y-70936340D01*
X101971459Y-70936343D01*
X101969203Y-70965000D01*
X98820500Y-70965000D01*
X98820500Y-63965000D01*
X101969203Y-63965000D01*
X101969591Y-63969930D01*
X101969591Y-63969933D01*
X101977653Y-64072376D01*
X101988911Y-64215420D01*
X102047552Y-64459673D01*
X102049446Y-64464245D01*
X102137180Y-64676056D01*
X102143679Y-64691747D01*
X102274928Y-64905925D01*
X102438066Y-65096934D01*
X102629075Y-65260072D01*
X102843253Y-65391321D01*
X102847823Y-65393214D01*
X102847827Y-65393216D01*
X102988715Y-65451573D01*
X103075327Y-65487448D01*
X103319580Y-65546089D01*
X103570000Y-65565797D01*
X103820420Y-65546089D01*
X104064673Y-65487448D01*
X104151285Y-65451573D01*
X104292173Y-65393216D01*
X104292177Y-65393214D01*
X104296747Y-65391321D01*
X104510925Y-65260072D01*
X104701934Y-65096934D01*
X104865072Y-64905925D01*
X104996321Y-64691747D01*
X105002821Y-64676056D01*
X105090554Y-64464245D01*
X105092448Y-64459673D01*
X105151089Y-64215420D01*
X105170797Y-63965000D01*
X105151089Y-63714580D01*
X105092448Y-63470327D01*
X104996321Y-63238253D01*
X104865072Y-63024075D01*
X104701934Y-62833066D01*
X104510925Y-62669928D01*
X104296747Y-62538679D01*
X104292177Y-62536786D01*
X104292173Y-62536784D01*
X104082654Y-62450000D01*
X104064673Y-62442552D01*
X103820420Y-62383911D01*
X103570000Y-62364203D01*
X103319580Y-62383911D01*
X103075327Y-62442552D01*
X103057346Y-62450000D01*
X102847827Y-62536784D01*
X102847823Y-62536786D01*
X102843253Y-62538679D01*
X102629075Y-62669928D01*
X102438066Y-62833066D01*
X102274928Y-63024075D01*
X102143679Y-63238253D01*
X102047552Y-63470327D01*
X102046396Y-63475142D01*
X101990068Y-63709762D01*
X101988911Y-63714580D01*
X101988523Y-63719513D01*
X101971459Y-63936340D01*
X101971458Y-63936340D01*
X101971459Y-63936343D01*
X101969203Y-63965000D01*
X98820500Y-63965000D01*
X98820500Y-53487085D01*
X98822921Y-53462504D01*
X98822987Y-53462173D01*
X98822987Y-53462171D01*
X98825408Y-53450000D01*
X98822986Y-53437827D01*
X98822986Y-53426881D01*
X98822046Y-53414590D01*
X98838333Y-53041552D01*
X98839291Y-53030601D01*
X98891939Y-52630707D01*
X98893848Y-52619883D01*
X98940967Y-52407341D01*
X99514991Y-52407341D01*
X99529275Y-52748146D01*
X99529813Y-52751619D01*
X99574697Y-53041552D01*
X99581459Y-53085234D01*
X99670892Y-53414405D01*
X99672182Y-53417664D01*
X99672184Y-53417669D01*
X99676974Y-53429767D01*
X99796461Y-53731555D01*
X99956600Y-54032732D01*
X99958585Y-54035631D01*
X100147321Y-54311274D01*
X100147326Y-54311280D01*
X100149312Y-54314181D01*
X100372196Y-54572395D01*
X100374766Y-54574775D01*
X100374770Y-54574779D01*
X100444448Y-54639301D01*
X100622474Y-54804155D01*
X100625296Y-54806236D01*
X100625299Y-54806238D01*
X100647922Y-54822917D01*
X100897026Y-55006572D01*
X100900063Y-55008326D01*
X100900067Y-55008328D01*
X101014483Y-55074386D01*
X101192431Y-55177124D01*
X101195652Y-55178531D01*
X101501783Y-55312277D01*
X101501793Y-55312281D01*
X101505005Y-55313684D01*
X101508362Y-55314723D01*
X101508367Y-55314725D01*
X101827494Y-55413511D01*
X101830854Y-55414551D01*
X101834310Y-55415210D01*
X101834309Y-55415210D01*
X102162465Y-55477810D01*
X102162471Y-55477811D01*
X102165916Y-55478468D01*
X102344627Y-55492219D01*
X102502517Y-55504368D01*
X102502518Y-55504368D01*
X102506014Y-55504637D01*
X102718773Y-55497207D01*
X102843395Y-55492856D01*
X102843400Y-55492856D01*
X102846910Y-55492733D01*
X103015632Y-55467818D01*
X103180876Y-55443417D01*
X103180881Y-55443416D01*
X103184355Y-55442903D01*
X103187747Y-55442007D01*
X103187751Y-55442006D01*
X103510751Y-55356666D01*
X103510752Y-55356666D01*
X103514142Y-55355770D01*
X103832161Y-55232418D01*
X104134448Y-55074386D01*
X104324177Y-54946412D01*
X104414320Y-54885610D01*
X104414322Y-54885609D01*
X104417236Y-54883643D01*
X104494664Y-54817747D01*
X104674326Y-54664842D01*
X104674327Y-54664841D01*
X104676999Y-54662567D01*
X104704830Y-54632930D01*
X104908090Y-54416481D01*
X104908094Y-54416476D01*
X104910501Y-54413913D01*
X104912606Y-54411099D01*
X104912612Y-54411092D01*
X105112721Y-54143600D01*
X105114830Y-54140781D01*
X105287440Y-53846574D01*
X105426179Y-53534961D01*
X105529319Y-53209824D01*
X105595573Y-52875217D01*
X105624116Y-52535309D01*
X105625307Y-52450000D01*
X105623120Y-52410868D01*
X105606462Y-52112937D01*
X105606266Y-52109428D01*
X105598515Y-52063602D01*
X105549968Y-51776570D01*
X105549967Y-51776565D01*
X105549381Y-51773101D01*
X105455360Y-51445211D01*
X105369827Y-51237693D01*
X105326713Y-51133090D01*
X105326709Y-51133083D01*
X105325375Y-51129845D01*
X105161047Y-50830934D01*
X104964424Y-50552203D01*
X104873684Y-50450000D01*
X106238947Y-50450000D01*
X106257108Y-50622786D01*
X106259148Y-50629064D01*
X106259148Y-50629065D01*
X106292088Y-50730444D01*
X106310795Y-50788020D01*
X106397664Y-50938481D01*
X106513917Y-51067593D01*
X106519259Y-51071474D01*
X106519261Y-51071476D01*
X106649131Y-51165832D01*
X106654473Y-51169713D01*
X106660501Y-51172397D01*
X106660503Y-51172398D01*
X106807159Y-51237693D01*
X106813190Y-51240378D01*
X106898160Y-51258439D01*
X106976674Y-51275128D01*
X106976678Y-51275128D01*
X106983131Y-51276500D01*
X107156869Y-51276500D01*
X107163322Y-51275128D01*
X107163326Y-51275128D01*
X107241840Y-51258439D01*
X107326810Y-51240378D01*
X107332841Y-51237693D01*
X107479497Y-51172398D01*
X107479499Y-51172397D01*
X107485527Y-51169713D01*
X107490869Y-51165832D01*
X107620739Y-51071476D01*
X107620741Y-51071474D01*
X107626083Y-51067593D01*
X107742336Y-50938481D01*
X107829205Y-50788020D01*
X107847913Y-50730444D01*
X107880852Y-50629065D01*
X107880852Y-50629064D01*
X107882892Y-50622786D01*
X107901053Y-50450000D01*
X107882892Y-50277214D01*
X107829205Y-50111980D01*
X107742336Y-49961519D01*
X107641675Y-49849723D01*
X107630505Y-49837318D01*
X107630504Y-49837317D01*
X107626083Y-49832407D01*
X107602666Y-49815393D01*
X107490869Y-49734168D01*
X107490868Y-49734167D01*
X107485527Y-49730287D01*
X107479499Y-49727603D01*
X107479497Y-49727602D01*
X107332841Y-49662307D01*
X107332840Y-49662307D01*
X107326810Y-49659622D01*
X107241839Y-49641561D01*
X107163326Y-49624872D01*
X107163322Y-49624872D01*
X107156869Y-49623500D01*
X106983131Y-49623500D01*
X106976678Y-49624872D01*
X106976674Y-49624872D01*
X106898161Y-49641561D01*
X106813190Y-49659622D01*
X106807160Y-49662307D01*
X106807159Y-49662307D01*
X106660504Y-49727602D01*
X106660502Y-49727603D01*
X106654474Y-49730287D01*
X106649133Y-49734167D01*
X106649132Y-49734168D01*
X106519261Y-49828524D01*
X106519259Y-49828526D01*
X106513917Y-49832407D01*
X106509496Y-49837317D01*
X106509495Y-49837318D01*
X106498326Y-49849723D01*
X106397664Y-49961519D01*
X106310795Y-50111980D01*
X106257108Y-50277214D01*
X106238947Y-50450000D01*
X104873684Y-50450000D01*
X104867855Y-50443435D01*
X104740289Y-50299753D01*
X104740283Y-50299747D01*
X104737956Y-50297126D01*
X104594669Y-50168109D01*
X104487087Y-50071242D01*
X104487086Y-50071241D01*
X104484467Y-50068883D01*
X104235853Y-49890893D01*
X104209982Y-49872371D01*
X104209975Y-49872367D01*
X104207115Y-49870319D01*
X103909358Y-49703908D01*
X103594908Y-49571725D01*
X103591545Y-49570735D01*
X103591536Y-49570732D01*
X103390346Y-49511520D01*
X103267682Y-49475418D01*
X102997684Y-49427810D01*
X102935220Y-49416796D01*
X102935218Y-49416796D01*
X102931760Y-49416186D01*
X102928249Y-49415965D01*
X102928248Y-49415965D01*
X102594848Y-49394988D01*
X102594842Y-49394988D01*
X102591330Y-49394767D01*
X102494946Y-49399481D01*
X102254140Y-49411258D01*
X102254132Y-49411259D01*
X102250633Y-49411430D01*
X102247165Y-49411992D01*
X102247162Y-49411992D01*
X101917393Y-49465403D01*
X101917390Y-49465404D01*
X101913918Y-49465966D01*
X101910531Y-49466912D01*
X101910525Y-49466913D01*
X101589741Y-49556478D01*
X101585379Y-49557696D01*
X101582116Y-49559014D01*
X101582114Y-49559015D01*
X101326459Y-49662307D01*
X101269114Y-49685476D01*
X100969062Y-49847713D01*
X100688965Y-50042385D01*
X100686323Y-50044698D01*
X100686319Y-50044701D01*
X100545352Y-50168109D01*
X100432314Y-50267067D01*
X100202307Y-50518956D01*
X100001811Y-50794915D01*
X99833326Y-51091503D01*
X99698951Y-51405023D01*
X99600361Y-51731569D01*
X99538785Y-52067068D01*
X99538539Y-52070584D01*
X99538539Y-52070585D01*
X99532288Y-52159976D01*
X99514991Y-52407341D01*
X98940967Y-52407341D01*
X98981144Y-52226111D01*
X98983989Y-52215493D01*
X99105277Y-51830819D01*
X99109033Y-51820497D01*
X99263392Y-51447842D01*
X99268034Y-51437889D01*
X99283390Y-51408392D01*
X99454271Y-51080132D01*
X99459766Y-51070613D01*
X99676478Y-50730444D01*
X99682782Y-50721440D01*
X99840149Y-50516355D01*
X99928330Y-50401436D01*
X99935393Y-50393019D01*
X99985193Y-50338672D01*
X100207883Y-50095648D01*
X100215652Y-50087879D01*
X100233809Y-50071242D01*
X100513022Y-49815391D01*
X100521439Y-49808327D01*
X100655281Y-49705627D01*
X100717023Y-49658250D01*
X100841440Y-49562782D01*
X100850444Y-49556478D01*
X101190613Y-49339766D01*
X101200133Y-49334270D01*
X101260058Y-49303075D01*
X101557898Y-49148030D01*
X101567842Y-49143392D01*
X101940504Y-48989030D01*
X101950819Y-48985277D01*
X102335494Y-48863989D01*
X102346111Y-48861144D01*
X102739883Y-48773848D01*
X102750707Y-48771939D01*
X103150601Y-48719291D01*
X103161552Y-48718333D01*
X103534590Y-48702046D01*
X103546881Y-48702986D01*
X103557827Y-48702986D01*
X103570000Y-48705408D01*
X103582171Y-48702987D01*
X103582173Y-48702987D01*
X103582504Y-48702921D01*
X103607085Y-48700500D01*
X150444000Y-48700500D01*
X150512121Y-48720502D01*
G37*
G04 #@! TD.AperFunction*
G04 #@! TD*
M02*
