M48
; DRILL file {KiCad 6.0.2+dfsg-1} date Fri Feb 17 05:59:19 2023
; FORMAT={-:-/ absolute / metric / decimal}
; #@! TF.CreationDate,2023-02-17T05:59:19+01:00
; #@! TF.GenerationSoftware,Kicad,Pcbnew,6.0.2+dfsg-1
; #@! TF.FileFunction,MixedPlating,1,2
FMAT,2
METRIC
; #@! TA.AperFunction,Plated,PTH,ViaDrill
T1C0.300
; #@! TA.AperFunction,Plated,PTH,ViaDrill
T2C0.400
; #@! TA.AperFunction,Plated,PTH,ViaDrill
T3C0.500
; #@! TA.AperFunction,Plated,PTH,ComponentDrill
T4C1.000
; #@! TA.AperFunction,Plated,PTH,ComponentDrill
T5C3.200
%
G90
G05
T1
X111.97Y-126.05
X186.85Y-62.45
X186.95Y-83.45
X186.95Y-90.25
X186.95Y-97.45
X187.05Y-69.5
X187.05Y-76.65
X187.05Y-104.55
X187.05Y-118.25
X187.15Y-111.45
T2
X106.065Y-73.955
X109.27Y-55.25
X111.05Y-139.85
X118.55Y-134.35
X118.55Y-139.85
X118.55Y-145.35
X126.05Y-139.85
X173.02Y-132.55
X178.545Y-145.35
X182.33Y-139.94
X184.52Y-136.61
X185.76Y-131.875
X186.625Y-131.035
X186.865Y-134.93
T3
X109.45Y-103.55
X110.15Y-69.55
X110.15Y-118.75
X110.25Y-76.95
X110.25Y-90.45
X110.25Y-97.95
X110.25Y-105.25
X110.25Y-111.85
X110.35Y-84.05
X113.05Y-63.25
X114.075Y-132.55
X114.085Y-129.45
X115.25Y-105.45
X115.35Y-91.35
X115.45Y-77.45
X115.45Y-112.35
X115.45Y-119.25
X115.55Y-84.25
X115.55Y-98.35
X115.65Y-70.25
X116.15Y-126.35
X121.77Y-91.35
X121.77Y-98.35
X121.77Y-112.35
X121.77Y-119.25
X121.87Y-63.25
X121.87Y-70.25
X121.87Y-77.45
X121.87Y-84.25
X121.87Y-105.45
X122.87Y-126.35
X129.27Y-119.25
X129.37Y-77.45
X129.37Y-98.35
X129.47Y-63.25
X129.47Y-84.25
X129.47Y-91.35
X129.47Y-105.45
X129.47Y-112.35
X129.57Y-70.25
X130.27Y-126.45
X136.97Y-70.25
X136.97Y-77.45
X136.97Y-84.25
X136.97Y-91.35
X136.97Y-105.45
X136.97Y-112.35
X136.97Y-119.25
X137.07Y-63.25
X137.17Y-98.35
X137.87Y-126.45
X144.47Y-77.45
X144.47Y-84.25
X144.57Y-70.25
X144.57Y-91.35
X144.57Y-105.45
X144.57Y-112.35
X144.67Y-98.35
X144.67Y-119.15
X144.77Y-63.25
X145.47Y-126.45
X152.17Y-63.25
X152.17Y-77.45
X152.17Y-84.25
X152.17Y-105.45
X152.17Y-112.35
X152.17Y-119.15
X152.27Y-70.25
X152.27Y-91.35
X152.27Y-98.35
X152.93Y-126.49
X159.67Y-77.45
X159.77Y-91.35
X159.77Y-98.35
X159.77Y-112.35
X159.77Y-119.15
X159.87Y-63.25
X159.87Y-70.25
X159.87Y-84.25
X159.87Y-105.45
X160.77Y-126.45
X167.37Y-63.25
X167.37Y-70.25
X167.37Y-77.45
X167.37Y-84.25
X167.37Y-91.35
X167.37Y-98.35
X167.37Y-105.45
X167.47Y-112.35
X168.27Y-119.15
X168.37Y-126.45
X174.97Y-63.25
X174.97Y-77.45
X174.97Y-84.25
X174.97Y-91.35
X174.97Y-98.25
X174.97Y-105.45
X175.07Y-70.25
X175.07Y-112.35
X175.77Y-119.15
X175.77Y-126.45
X181.15Y-84.25
X181.15Y-91.35
X181.35Y-63.25
X181.35Y-70.25
X181.35Y-98.25
X181.35Y-112.35
X181.45Y-105.45
X181.55Y-77.45
X181.85Y-126.45
X182.25Y-119.15
X188.05Y-119.15
T4
X103.67Y-89.57
X103.67Y-92.11
X103.67Y-94.65
X103.67Y-97.19
X103.67Y-99.73
X103.67Y-102.27
X103.67Y-104.81
X103.67Y-107.35
X193.57Y-88.03
X193.57Y-90.57
X193.57Y-93.11
X193.57Y-95.65
X193.57Y-99.75
X193.57Y-102.29
X193.57Y-104.83
X193.57Y-107.37
T5
X102.57Y-52.45
X102.57Y-144.45
X194.57Y-52.45
X194.57Y-144.45
T0
M30
