G04 #@! TF.GenerationSoftware,KiCad,Pcbnew,6.0.2+dfsg-1*
G04 #@! TF.CreationDate,2023-06-12T23:51:08+02:00*
G04 #@! TF.ProjectId,Logic_0,4c6f6769-635f-4302-9e6b-696361645f70,rev?*
G04 #@! TF.SameCoordinates,Original*
G04 #@! TF.FileFunction,Soldermask,Top*
G04 #@! TF.FilePolarity,Negative*
%FSLAX46Y46*%
G04 Gerber Fmt 4.6, Leading zero omitted, Abs format (unit mm)*
G04 Created by KiCad (PCBNEW 6.0.2+dfsg-1) date 2023-06-12 23:51:08*
%MOMM*%
%LPD*%
G01*
G04 APERTURE LIST*
G04 Aperture macros list*
%AMRoundRect*
0 Rectangle with rounded corners*
0 $1 Rounding radius*
0 $2 $3 $4 $5 $6 $7 $8 $9 X,Y pos of 4 corners*
0 Add a 4 corners polygon primitive as box body*
4,1,4,$2,$3,$4,$5,$6,$7,$8,$9,$2,$3,0*
0 Add four circle primitives for the rounded corners*
1,1,$1+$1,$2,$3*
1,1,$1+$1,$4,$5*
1,1,$1+$1,$6,$7*
1,1,$1+$1,$8,$9*
0 Add four rect primitives between the rounded corners*
20,1,$1+$1,$2,$3,$4,$5,0*
20,1,$1+$1,$4,$5,$6,$7,0*
20,1,$1+$1,$6,$7,$8,$9,0*
20,1,$1+$1,$8,$9,$2,$3,0*%
G04 Aperture macros list end*
%ADD10RoundRect,0.190000X0.140000X0.170000X-0.140000X0.170000X-0.140000X-0.170000X0.140000X-0.170000X0*%
%ADD11RoundRect,0.190000X-0.170000X0.140000X-0.170000X-0.140000X0.170000X-0.140000X0.170000X0.140000X0*%
%ADD12RoundRect,0.050000X0.750000X0.500000X-0.750000X0.500000X-0.750000X-0.500000X0.750000X-0.500000X0*%
%ADD13RoundRect,0.050000X0.650000X0.350000X-0.650000X0.350000X-0.650000X-0.350000X0.650000X-0.350000X0*%
%ADD14RoundRect,0.185000X-0.135000X-0.185000X0.135000X-0.185000X0.135000X0.185000X-0.135000X0.185000X0*%
%ADD15RoundRect,0.050000X-0.650000X-0.350000X0.650000X-0.350000X0.650000X0.350000X-0.650000X0.350000X0*%
%ADD16C,5.700000*%
%ADD17RoundRect,0.050000X-0.500000X-1.050000X0.500000X-1.050000X0.500000X1.050000X-0.500000X1.050000X0*%
%ADD18RoundRect,0.050000X-0.850000X-0.850000X0.850000X-0.850000X0.850000X0.850000X-0.850000X0.850000X0*%
%ADD19O,1.800000X1.800000*%
G04 APERTURE END LIST*
D10*
G04 #@! TO.C,C8*
X53960000Y-52190000D03*
X53000000Y-52190000D03*
G04 #@! TD*
D11*
G04 #@! TO.C,C11*
X55505000Y-130430000D03*
X55505000Y-131390000D03*
G04 #@! TD*
G04 #@! TO.C,C12*
X61900000Y-135820000D03*
X61900000Y-136780000D03*
G04 #@! TD*
G04 #@! TO.C,C13*
X97990000Y-135915000D03*
X97990000Y-136875000D03*
G04 #@! TD*
G04 #@! TO.C,C14*
X121995000Y-135920000D03*
X121995000Y-136880000D03*
G04 #@! TD*
G04 #@! TO.C,C17*
X45680000Y-141320000D03*
X45680000Y-142280000D03*
G04 #@! TD*
G04 #@! TO.C,C18*
X114560000Y-141415000D03*
X114560000Y-142375000D03*
G04 #@! TD*
D10*
G04 #@! TO.C,C19*
X115940000Y-131680000D03*
X114980000Y-131680000D03*
G04 #@! TD*
G04 #@! TO.C,C20*
X115940000Y-129100000D03*
X114980000Y-129100000D03*
G04 #@! TD*
D12*
G04 #@! TO.C,D5*
X63530000Y-50226000D03*
X63530000Y-47026000D03*
X58630000Y-47026000D03*
X58630000Y-50226000D03*
G04 #@! TD*
G04 #@! TO.C,D6*
X71130000Y-50176000D03*
X71130000Y-46976000D03*
X66230000Y-46976000D03*
X66230000Y-50176000D03*
G04 #@! TD*
D13*
G04 #@! TO.C,SW2*
X52780000Y-138250000D03*
X47180000Y-138250000D03*
X47180000Y-134600000D03*
X52780000Y-134600000D03*
G04 #@! TD*
G04 #@! TO.C,SW8*
X52780000Y-143750000D03*
X47180000Y-143750000D03*
X47180000Y-140100000D03*
X52780000Y-140100000D03*
G04 #@! TD*
D10*
G04 #@! TO.C,C9*
X61140000Y-52190000D03*
X60180000Y-52190000D03*
G04 #@! TD*
D12*
G04 #@! TO.C,D3*
X48304000Y-50276000D03*
X48304000Y-47076000D03*
X43404000Y-47076000D03*
X43404000Y-50276000D03*
G04 #@! TD*
D10*
G04 #@! TO.C,C10*
X68860000Y-52110000D03*
X67900000Y-52110000D03*
G04 #@! TD*
D12*
G04 #@! TO.C,D4*
X55930000Y-50246000D03*
X55930000Y-47046000D03*
X51030000Y-47046000D03*
X51030000Y-50246000D03*
G04 #@! TD*
D10*
G04 #@! TO.C,C7*
X46420000Y-52190000D03*
X45460000Y-52190000D03*
G04 #@! TD*
D13*
G04 #@! TO.C,SW10*
X107180000Y-138250000D03*
X112780000Y-138250000D03*
X112780000Y-134600000D03*
X107180000Y-134600000D03*
G04 #@! TD*
G04 #@! TO.C,SW4*
X105280000Y-138250000D03*
X99680000Y-138250000D03*
X105280000Y-134600000D03*
X99680000Y-134600000D03*
G04 #@! TD*
D14*
G04 #@! TO.C,R5*
X57140000Y-55000000D03*
X58160000Y-55000000D03*
G04 #@! TD*
G04 #@! TO.C,R13*
X64540000Y-55000000D03*
X65560000Y-55000000D03*
G04 #@! TD*
D15*
G04 #@! TO.C,SW11*
X112780000Y-129100000D03*
X107180000Y-129100000D03*
X107180000Y-132750000D03*
X112780000Y-132750000D03*
G04 #@! TD*
D10*
G04 #@! TO.C,C31*
X46560000Y-63100000D03*
X45600000Y-63100000D03*
G04 #@! TD*
G04 #@! TO.C,C32*
X54260000Y-63080000D03*
X53300000Y-63080000D03*
G04 #@! TD*
G04 #@! TO.C,C33*
X61900000Y-63110000D03*
X60940000Y-63110000D03*
G04 #@! TD*
D12*
G04 #@! TO.C,D14*
X63530000Y-61183000D03*
X63530000Y-57983000D03*
X58630000Y-57983000D03*
X58630000Y-61183000D03*
G04 #@! TD*
D10*
G04 #@! TO.C,C34*
X69460000Y-63080000D03*
X68500000Y-63080000D03*
G04 #@! TD*
D12*
G04 #@! TO.C,D13*
X55930000Y-61200000D03*
X55930000Y-58000000D03*
X51030000Y-58000000D03*
X51030000Y-61200000D03*
G04 #@! TD*
G04 #@! TO.C,D15*
X71130000Y-61183000D03*
X71130000Y-57983000D03*
X66230000Y-57983000D03*
X66230000Y-61183000D03*
G04 #@! TD*
G04 #@! TO.C,D12*
X48337000Y-61183000D03*
X48337000Y-57983000D03*
X43437000Y-57983000D03*
X43437000Y-61183000D03*
G04 #@! TD*
G04 #@! TO.C,D110*
X101530000Y-124180000D03*
X101530000Y-120980000D03*
X96630000Y-120980000D03*
X96630000Y-124180000D03*
G04 #@! TD*
G04 #@! TO.C,D111*
X109130000Y-124180000D03*
X109130000Y-120980000D03*
X104230000Y-120980000D03*
X104230000Y-124180000D03*
G04 #@! TD*
G04 #@! TO.C,D108*
X86330000Y-124140000D03*
X86330000Y-120940000D03*
X81430000Y-120940000D03*
X81430000Y-124140000D03*
G04 #@! TD*
G04 #@! TO.C,D105*
X63530000Y-124140000D03*
X63530000Y-120940000D03*
X58630000Y-120940000D03*
X58630000Y-124140000D03*
G04 #@! TD*
G04 #@! TO.C,D106*
X71130000Y-124140000D03*
X71130000Y-120940000D03*
X66230000Y-120940000D03*
X66230000Y-124140000D03*
G04 #@! TD*
G04 #@! TO.C,D107*
X78730000Y-124140000D03*
X78730000Y-120940000D03*
X73830000Y-120940000D03*
X73830000Y-124140000D03*
G04 #@! TD*
G04 #@! TO.C,D109*
X93930000Y-124160000D03*
X93930000Y-120960000D03*
X89030000Y-120960000D03*
X89030000Y-124160000D03*
G04 #@! TD*
G04 #@! TO.C,D112*
X116730000Y-124180000D03*
X116730000Y-120980000D03*
X111830000Y-120980000D03*
X111830000Y-124180000D03*
G04 #@! TD*
D10*
G04 #@! TO.C,C21*
X114960000Y-63060000D03*
X114000000Y-63060000D03*
G04 #@! TD*
G04 #@! TO.C,C15*
X99760000Y-63100000D03*
X98800000Y-63100000D03*
G04 #@! TD*
G04 #@! TO.C,C6*
X92260000Y-63100000D03*
X91300000Y-63100000D03*
G04 #@! TD*
G04 #@! TO.C,C42*
X99760000Y-70100000D03*
X98800000Y-70100000D03*
G04 #@! TD*
G04 #@! TO.C,C35*
X46680000Y-70180000D03*
X45720000Y-70180000D03*
G04 #@! TD*
G04 #@! TO.C,C44*
X114860000Y-70100000D03*
X113900000Y-70100000D03*
G04 #@! TD*
G04 #@! TO.C,C37*
X61960000Y-70100000D03*
X61000000Y-70100000D03*
G04 #@! TD*
G04 #@! TO.C,C39*
X76940000Y-70100000D03*
X75980000Y-70100000D03*
G04 #@! TD*
G04 #@! TO.C,C40*
X84660000Y-70130000D03*
X83700000Y-70130000D03*
G04 #@! TD*
G04 #@! TO.C,C50*
X84540000Y-77100000D03*
X83580000Y-77100000D03*
G04 #@! TD*
G04 #@! TO.C,C41*
X92260000Y-70100000D03*
X91300000Y-70100000D03*
G04 #@! TD*
G04 #@! TO.C,C49*
X76910000Y-77100000D03*
X75950000Y-77100000D03*
G04 #@! TD*
G04 #@! TO.C,C3*
X84560000Y-63100000D03*
X83600000Y-63100000D03*
G04 #@! TD*
G04 #@! TO.C,C36*
X54260000Y-70080000D03*
X53300000Y-70080000D03*
G04 #@! TD*
G04 #@! TO.C,C38*
X69360000Y-70100000D03*
X68400000Y-70100000D03*
G04 #@! TD*
G04 #@! TO.C,C46*
X54260000Y-77100000D03*
X53300000Y-77100000D03*
G04 #@! TD*
G04 #@! TO.C,C47*
X61770000Y-77140000D03*
X60810000Y-77140000D03*
G04 #@! TD*
G04 #@! TO.C,C48*
X69310000Y-77180000D03*
X68350000Y-77180000D03*
G04 #@! TD*
G04 #@! TO.C,C2*
X77160000Y-63020000D03*
X76200000Y-63020000D03*
G04 #@! TD*
G04 #@! TO.C,C16*
X107360000Y-63090000D03*
X106400000Y-63090000D03*
G04 #@! TD*
G04 #@! TO.C,C45*
X46680000Y-77160000D03*
X45720000Y-77160000D03*
G04 #@! TD*
G04 #@! TO.C,C43*
X107460000Y-70100000D03*
X106500000Y-70100000D03*
G04 #@! TD*
G04 #@! TO.C,C76*
X54160000Y-98200000D03*
X53200000Y-98200000D03*
G04 #@! TD*
G04 #@! TO.C,C70*
X84660000Y-91130000D03*
X83700000Y-91130000D03*
G04 #@! TD*
G04 #@! TO.C,C67*
X61840000Y-91140000D03*
X60880000Y-91140000D03*
G04 #@! TD*
G04 #@! TO.C,C69*
X76960000Y-91100000D03*
X76000000Y-91100000D03*
G04 #@! TD*
G04 #@! TO.C,C79*
X77060000Y-98140000D03*
X76100000Y-98140000D03*
G04 #@! TD*
G04 #@! TO.C,C84*
X114960000Y-98100000D03*
X114000000Y-98100000D03*
G04 #@! TD*
G04 #@! TO.C,C81*
X92160000Y-98100000D03*
X91200000Y-98100000D03*
G04 #@! TD*
G04 #@! TO.C,C83*
X107360000Y-98100000D03*
X106400000Y-98100000D03*
G04 #@! TD*
G04 #@! TO.C,C86*
X54280000Y-105150000D03*
X53320000Y-105150000D03*
G04 #@! TD*
G04 #@! TO.C,C72*
X99760000Y-91100000D03*
X98800000Y-91100000D03*
G04 #@! TD*
G04 #@! TO.C,C68*
X69360000Y-91100000D03*
X68400000Y-91100000D03*
G04 #@! TD*
G04 #@! TO.C,C80*
X84660000Y-98130000D03*
X83700000Y-98130000D03*
G04 #@! TD*
G04 #@! TO.C,C62*
X99760000Y-84100000D03*
X98800000Y-84100000D03*
G04 #@! TD*
G04 #@! TO.C,C61*
X92240000Y-84100000D03*
X91280000Y-84100000D03*
G04 #@! TD*
G04 #@! TO.C,C51*
X92100000Y-77130000D03*
X91140000Y-77130000D03*
G04 #@! TD*
G04 #@! TO.C,C52*
X99790000Y-77120000D03*
X98830000Y-77120000D03*
G04 #@! TD*
G04 #@! TO.C,C53*
X107410000Y-77100000D03*
X106450000Y-77100000D03*
G04 #@! TD*
G04 #@! TO.C,C54*
X114960000Y-77100000D03*
X114000000Y-77100000D03*
G04 #@! TD*
G04 #@! TO.C,C66*
X54160000Y-91200000D03*
X53200000Y-91200000D03*
G04 #@! TD*
G04 #@! TO.C,C78*
X69590000Y-98120000D03*
X68630000Y-98120000D03*
G04 #@! TD*
G04 #@! TO.C,C73*
X107360000Y-91100000D03*
X106400000Y-91100000D03*
G04 #@! TD*
G04 #@! TO.C,C74*
X114840000Y-91100000D03*
X113880000Y-91100000D03*
G04 #@! TD*
G04 #@! TO.C,C85*
X46660000Y-105200000D03*
X45700000Y-105200000D03*
G04 #@! TD*
G04 #@! TO.C,C75*
X46580000Y-98200000D03*
X45620000Y-98200000D03*
G04 #@! TD*
G04 #@! TO.C,C77*
X61760000Y-98200000D03*
X60800000Y-98200000D03*
G04 #@! TD*
G04 #@! TO.C,C55*
X46560000Y-84200000D03*
X45600000Y-84200000D03*
G04 #@! TD*
G04 #@! TO.C,C56*
X54260000Y-84190000D03*
X53300000Y-84190000D03*
G04 #@! TD*
G04 #@! TO.C,C58*
X69360000Y-84100000D03*
X68400000Y-84100000D03*
G04 #@! TD*
G04 #@! TO.C,C59*
X76880000Y-84100000D03*
X75920000Y-84100000D03*
G04 #@! TD*
G04 #@! TO.C,C63*
X107340000Y-84100000D03*
X106380000Y-84100000D03*
G04 #@! TD*
G04 #@! TO.C,C57*
X61840000Y-84150000D03*
X60880000Y-84150000D03*
G04 #@! TD*
G04 #@! TO.C,C60*
X84560000Y-84200000D03*
X83600000Y-84200000D03*
G04 #@! TD*
G04 #@! TO.C,C64*
X114780000Y-84090000D03*
X113820000Y-84090000D03*
G04 #@! TD*
G04 #@! TO.C,C65*
X46560000Y-91200000D03*
X45600000Y-91200000D03*
G04 #@! TD*
G04 #@! TO.C,C71*
X92160000Y-91100000D03*
X91200000Y-91100000D03*
G04 #@! TD*
G04 #@! TO.C,C82*
X99760000Y-98100000D03*
X98800000Y-98100000D03*
G04 #@! TD*
G04 #@! TO.C,C88*
X69360000Y-105100000D03*
X68400000Y-105100000D03*
G04 #@! TD*
G04 #@! TO.C,C95*
X46560000Y-112170000D03*
X45600000Y-112170000D03*
G04 #@! TD*
G04 #@! TO.C,C103*
X107460000Y-112050000D03*
X106500000Y-112050000D03*
G04 #@! TD*
G04 #@! TO.C,C97*
X61840000Y-112080000D03*
X60880000Y-112080000D03*
G04 #@! TD*
G04 #@! TO.C,C100*
X84560000Y-112000000D03*
X83600000Y-112000000D03*
G04 #@! TD*
G04 #@! TO.C,C104*
X114860000Y-112000000D03*
X113900000Y-112000000D03*
G04 #@! TD*
G04 #@! TO.C,C92*
X99760000Y-105100000D03*
X98800000Y-105100000D03*
G04 #@! TD*
G04 #@! TO.C,C96*
X54160000Y-112150000D03*
X53200000Y-112150000D03*
G04 #@! TD*
G04 #@! TO.C,C101*
X92160000Y-112080000D03*
X91200000Y-112080000D03*
G04 #@! TD*
G04 #@! TO.C,C91*
X92260000Y-105200000D03*
X91300000Y-105200000D03*
G04 #@! TD*
G04 #@! TO.C,C87*
X61860000Y-105170000D03*
X60900000Y-105170000D03*
G04 #@! TD*
G04 #@! TO.C,C93*
X107360000Y-105100000D03*
X106400000Y-105100000D03*
G04 #@! TD*
G04 #@! TO.C,C94*
X114960000Y-105100000D03*
X114000000Y-105100000D03*
G04 #@! TD*
G04 #@! TO.C,C102*
X99880000Y-112000000D03*
X98920000Y-112000000D03*
G04 #@! TD*
G04 #@! TO.C,C89*
X76960000Y-105100000D03*
X76000000Y-105100000D03*
G04 #@! TD*
G04 #@! TO.C,C90*
X84560000Y-105100000D03*
X83600000Y-105100000D03*
G04 #@! TD*
G04 #@! TO.C,C98*
X69380000Y-112040000D03*
X68420000Y-112040000D03*
G04 #@! TD*
G04 #@! TO.C,C99*
X76980000Y-112000000D03*
X76020000Y-112000000D03*
G04 #@! TD*
G04 #@! TO.C,C113*
X108160000Y-119080000D03*
X107200000Y-119080000D03*
G04 #@! TD*
G04 #@! TO.C,C112*
X100640000Y-119080000D03*
X99680000Y-119080000D03*
G04 #@! TD*
G04 #@! TO.C,C115*
X47560000Y-126000000D03*
X46600000Y-126000000D03*
G04 #@! TD*
G04 #@! TO.C,C108*
X69360000Y-119100000D03*
X68400000Y-119100000D03*
G04 #@! TD*
G04 #@! TO.C,C111*
X92160000Y-119070000D03*
X91200000Y-119070000D03*
G04 #@! TD*
G04 #@! TO.C,C116*
X55240000Y-126000000D03*
X54280000Y-126000000D03*
G04 #@! TD*
G04 #@! TO.C,C117*
X62660000Y-125950000D03*
X61700000Y-125950000D03*
G04 #@! TD*
G04 #@! TO.C,C105*
X46560000Y-119100000D03*
X45600000Y-119100000D03*
G04 #@! TD*
G04 #@! TO.C,C106*
X54180000Y-119130000D03*
X53220000Y-119130000D03*
G04 #@! TD*
G04 #@! TO.C,C110*
X84540000Y-119070000D03*
X83580000Y-119070000D03*
G04 #@! TD*
G04 #@! TO.C,C118*
X70260000Y-125950000D03*
X69300000Y-125950000D03*
G04 #@! TD*
G04 #@! TO.C,C114*
X115960000Y-119000000D03*
X115000000Y-119000000D03*
G04 #@! TD*
G04 #@! TO.C,C119*
X77860000Y-125980000D03*
X76900000Y-125980000D03*
G04 #@! TD*
G04 #@! TO.C,C122*
X100730000Y-125990000D03*
X99770000Y-125990000D03*
G04 #@! TD*
G04 #@! TO.C,C107*
X61680000Y-119040000D03*
X60720000Y-119040000D03*
G04 #@! TD*
G04 #@! TO.C,C120*
X85360000Y-126000000D03*
X84400000Y-126000000D03*
G04 #@! TD*
G04 #@! TO.C,C121*
X93160000Y-126000000D03*
X92200000Y-126000000D03*
G04 #@! TD*
G04 #@! TO.C,C109*
X77060000Y-119100000D03*
X76100000Y-119100000D03*
G04 #@! TD*
D12*
G04 #@! TO.C,D26*
X78730000Y-68200000D03*
X78730000Y-65000000D03*
X73830000Y-65000000D03*
X73830000Y-68200000D03*
G04 #@! TD*
G04 #@! TO.C,D18*
X93930000Y-61200000D03*
X93930000Y-58000000D03*
X89030000Y-58000000D03*
X89030000Y-61200000D03*
G04 #@! TD*
G04 #@! TO.C,D21*
X116730000Y-61190000D03*
X116730000Y-57990000D03*
X111830000Y-57990000D03*
X111830000Y-61190000D03*
G04 #@! TD*
G04 #@! TO.C,D28*
X93930000Y-68250000D03*
X93930000Y-65050000D03*
X89030000Y-65050000D03*
X89030000Y-68250000D03*
G04 #@! TD*
G04 #@! TO.C,D24*
X63530000Y-68220000D03*
X63530000Y-65020000D03*
X58630000Y-65020000D03*
X58630000Y-68220000D03*
G04 #@! TD*
D10*
G04 #@! TO.C,C123*
X108160000Y-126000000D03*
X107200000Y-126000000D03*
G04 #@! TD*
G04 #@! TO.C,C124*
X115940000Y-126020000D03*
X114980000Y-126020000D03*
G04 #@! TD*
D12*
G04 #@! TO.C,D16*
X78730000Y-61200000D03*
X78730000Y-58000000D03*
X73830000Y-58000000D03*
X73830000Y-61200000D03*
G04 #@! TD*
G04 #@! TO.C,D23*
X55930000Y-68220000D03*
X55930000Y-65020000D03*
X51030000Y-65020000D03*
X51030000Y-68220000D03*
G04 #@! TD*
G04 #@! TO.C,D20*
X109130000Y-61190000D03*
X109130000Y-57990000D03*
X104230000Y-57990000D03*
X104230000Y-61190000D03*
G04 #@! TD*
G04 #@! TO.C,D25*
X71130000Y-68220000D03*
X71130000Y-65020000D03*
X66230000Y-65020000D03*
X66230000Y-68220000D03*
G04 #@! TD*
G04 #@! TO.C,D29*
X101530000Y-68260000D03*
X101530000Y-65060000D03*
X96630000Y-65060000D03*
X96630000Y-68260000D03*
G04 #@! TD*
G04 #@! TO.C,D27*
X86330000Y-68240000D03*
X86330000Y-65040000D03*
X81430000Y-65040000D03*
X81430000Y-68240000D03*
G04 #@! TD*
G04 #@! TO.C,D17*
X86330000Y-61200000D03*
X86330000Y-58000000D03*
X81430000Y-58000000D03*
X81430000Y-61200000D03*
G04 #@! TD*
G04 #@! TO.C,D22*
X48330000Y-68220000D03*
X48330000Y-65020000D03*
X43430000Y-65020000D03*
X43430000Y-68220000D03*
G04 #@! TD*
G04 #@! TO.C,D19*
X101530000Y-61200000D03*
X101530000Y-58000000D03*
X96630000Y-58000000D03*
X96630000Y-61200000D03*
G04 #@! TD*
G04 #@! TO.C,D31*
X116730000Y-68200000D03*
X116730000Y-65000000D03*
X111830000Y-65000000D03*
X111830000Y-68200000D03*
G04 #@! TD*
G04 #@! TO.C,D30*
X109130000Y-68200000D03*
X109130000Y-65000000D03*
X104230000Y-65000000D03*
X104230000Y-68200000D03*
G04 #@! TD*
G04 #@! TO.C,D36*
X78730000Y-75270000D03*
X78730000Y-72070000D03*
X73830000Y-72070000D03*
X73830000Y-75270000D03*
G04 #@! TD*
G04 #@! TO.C,D38*
X93930000Y-75300000D03*
X93930000Y-72100000D03*
X89030000Y-72100000D03*
X89030000Y-75300000D03*
G04 #@! TD*
G04 #@! TO.C,D48*
X93930000Y-82300000D03*
X93930000Y-79100000D03*
X89030000Y-79100000D03*
X89030000Y-82300000D03*
G04 #@! TD*
G04 #@! TO.C,D32*
X48330000Y-75260000D03*
X48330000Y-72060000D03*
X43430000Y-72060000D03*
X43430000Y-75260000D03*
G04 #@! TD*
G04 #@! TO.C,D41*
X116730000Y-75300000D03*
X116730000Y-72100000D03*
X111830000Y-72100000D03*
X111830000Y-75300000D03*
G04 #@! TD*
G04 #@! TO.C,D47*
X86330000Y-82300000D03*
X86330000Y-79100000D03*
X81430000Y-79100000D03*
X81430000Y-82300000D03*
G04 #@! TD*
G04 #@! TO.C,D37*
X86390000Y-75250000D03*
X86390000Y-72050000D03*
X81490000Y-72050000D03*
X81490000Y-75250000D03*
G04 #@! TD*
G04 #@! TO.C,D46*
X78730000Y-82300000D03*
X78730000Y-79100000D03*
X73830000Y-79100000D03*
X73830000Y-82300000D03*
G04 #@! TD*
G04 #@! TO.C,D40*
X109130000Y-75300000D03*
X109130000Y-72100000D03*
X104230000Y-72100000D03*
X104230000Y-75300000D03*
G04 #@! TD*
G04 #@! TO.C,D34*
X63530000Y-75280000D03*
X63530000Y-72080000D03*
X58630000Y-72080000D03*
X58630000Y-75280000D03*
G04 #@! TD*
G04 #@! TO.C,D33*
X55930000Y-75270000D03*
X55930000Y-72070000D03*
X51030000Y-72070000D03*
X51030000Y-75270000D03*
G04 #@! TD*
G04 #@! TO.C,D43*
X55930000Y-82290000D03*
X55930000Y-79090000D03*
X51030000Y-79090000D03*
X51030000Y-82290000D03*
G04 #@! TD*
G04 #@! TO.C,D49*
X101530000Y-82300000D03*
X101530000Y-79100000D03*
X96630000Y-79100000D03*
X96630000Y-82300000D03*
G04 #@! TD*
G04 #@! TO.C,D35*
X71130000Y-75270000D03*
X71130000Y-72070000D03*
X66230000Y-72070000D03*
X66230000Y-75270000D03*
G04 #@! TD*
G04 #@! TO.C,D39*
X101530000Y-75300000D03*
X101530000Y-72100000D03*
X96630000Y-72100000D03*
X96630000Y-75300000D03*
G04 #@! TD*
G04 #@! TO.C,D42*
X48330000Y-82290000D03*
X48330000Y-79090000D03*
X43430000Y-79090000D03*
X43430000Y-82290000D03*
G04 #@! TD*
G04 #@! TO.C,D44*
X63530000Y-82300000D03*
X63530000Y-79100000D03*
X58630000Y-79100000D03*
X58630000Y-82300000D03*
G04 #@! TD*
G04 #@! TO.C,D45*
X71130000Y-82300000D03*
X71130000Y-79100000D03*
X66230000Y-79100000D03*
X66230000Y-82300000D03*
G04 #@! TD*
G04 #@! TO.C,D79*
X101530000Y-103300000D03*
X101530000Y-100100000D03*
X96630000Y-100100000D03*
X96630000Y-103300000D03*
G04 #@! TD*
G04 #@! TO.C,D69*
X101530000Y-96300000D03*
X101530000Y-93100000D03*
X96630000Y-93100000D03*
X96630000Y-96300000D03*
G04 #@! TD*
G04 #@! TO.C,D73*
X55930000Y-103280000D03*
X55930000Y-100080000D03*
X51030000Y-100080000D03*
X51030000Y-103280000D03*
G04 #@! TD*
G04 #@! TO.C,D81*
X116730000Y-103300000D03*
X116730000Y-100100000D03*
X111830000Y-100100000D03*
X111830000Y-103300000D03*
G04 #@! TD*
G04 #@! TO.C,D85*
X71130000Y-110190000D03*
X71130000Y-106990000D03*
X66230000Y-106990000D03*
X66230000Y-110190000D03*
G04 #@! TD*
G04 #@! TO.C,D82*
X48330000Y-110270000D03*
X48330000Y-107070000D03*
X43430000Y-107070000D03*
X43430000Y-110270000D03*
G04 #@! TD*
G04 #@! TO.C,D68*
X93930000Y-96300000D03*
X93930000Y-93100000D03*
X89030000Y-93100000D03*
X89030000Y-96300000D03*
G04 #@! TD*
G04 #@! TO.C,D70*
X109130000Y-96300000D03*
X109130000Y-93100000D03*
X104230000Y-93100000D03*
X104230000Y-96300000D03*
G04 #@! TD*
G04 #@! TO.C,D83*
X55930000Y-110230000D03*
X55930000Y-107030000D03*
X51030000Y-107030000D03*
X51030000Y-110230000D03*
G04 #@! TD*
G04 #@! TO.C,D77*
X86330000Y-103300000D03*
X86330000Y-100100000D03*
X81430000Y-100100000D03*
X81430000Y-103300000D03*
G04 #@! TD*
G04 #@! TO.C,D80*
X109130000Y-103300000D03*
X109130000Y-100100000D03*
X104230000Y-100100000D03*
X104230000Y-103300000D03*
G04 #@! TD*
G04 #@! TO.C,D71*
X116730000Y-96300000D03*
X116730000Y-93100000D03*
X111830000Y-93100000D03*
X111830000Y-96300000D03*
G04 #@! TD*
G04 #@! TO.C,D72*
X48330000Y-103300000D03*
X48330000Y-100100000D03*
X43430000Y-100100000D03*
X43430000Y-103300000D03*
G04 #@! TD*
G04 #@! TO.C,D75*
X71130000Y-103300000D03*
X71130000Y-100100000D03*
X66230000Y-100100000D03*
X66230000Y-103300000D03*
G04 #@! TD*
G04 #@! TO.C,D76*
X78730000Y-103300000D03*
X78730000Y-100100000D03*
X73830000Y-100100000D03*
X73830000Y-103300000D03*
G04 #@! TD*
G04 #@! TO.C,D78*
X93930000Y-103300000D03*
X93930000Y-100100000D03*
X89030000Y-100100000D03*
X89030000Y-103300000D03*
G04 #@! TD*
G04 #@! TO.C,D104*
X55930000Y-124160000D03*
X55930000Y-120960000D03*
X51030000Y-120960000D03*
X51030000Y-124160000D03*
G04 #@! TD*
G04 #@! TO.C,D103*
X48330000Y-124170000D03*
X48330000Y-120970000D03*
X43430000Y-120970000D03*
X43430000Y-124170000D03*
G04 #@! TD*
G04 #@! TO.C,D91*
X116730000Y-110220000D03*
X116730000Y-107020000D03*
X111830000Y-107020000D03*
X111830000Y-110220000D03*
G04 #@! TD*
G04 #@! TO.C,D100*
X101530000Y-117210000D03*
X101530000Y-114010000D03*
X96630000Y-114010000D03*
X96630000Y-117210000D03*
G04 #@! TD*
G04 #@! TO.C,D95*
X63530000Y-117230000D03*
X63530000Y-114030000D03*
X58630000Y-114030000D03*
X58630000Y-117230000D03*
G04 #@! TD*
G04 #@! TO.C,D90*
X109130000Y-110200000D03*
X109130000Y-107000000D03*
X104230000Y-107000000D03*
X104230000Y-110200000D03*
G04 #@! TD*
G04 #@! TO.C,D86*
X78730000Y-110190000D03*
X78730000Y-106990000D03*
X73830000Y-106990000D03*
X73830000Y-110190000D03*
G04 #@! TD*
G04 #@! TO.C,D98*
X86330000Y-117220000D03*
X86330000Y-114020000D03*
X81430000Y-114020000D03*
X81430000Y-117220000D03*
G04 #@! TD*
G04 #@! TO.C,D101*
X109130000Y-117210000D03*
X109130000Y-114010000D03*
X104230000Y-114010000D03*
X104230000Y-117210000D03*
G04 #@! TD*
G04 #@! TO.C,D96*
X71130000Y-117240000D03*
X71130000Y-114040000D03*
X66230000Y-114040000D03*
X66230000Y-117240000D03*
G04 #@! TD*
G04 #@! TO.C,D87*
X86330000Y-110180000D03*
X86330000Y-106980000D03*
X81430000Y-106980000D03*
X81430000Y-110180000D03*
G04 #@! TD*
G04 #@! TO.C,D94*
X55930000Y-117300000D03*
X55930000Y-114100000D03*
X51030000Y-114100000D03*
X51030000Y-117300000D03*
G04 #@! TD*
G04 #@! TO.C,D88*
X93930000Y-110190000D03*
X93930000Y-106990000D03*
X89030000Y-106990000D03*
X89030000Y-110190000D03*
G04 #@! TD*
G04 #@! TO.C,D99*
X93930000Y-117230000D03*
X93930000Y-114030000D03*
X89030000Y-114030000D03*
X89030000Y-117230000D03*
G04 #@! TD*
G04 #@! TO.C,D93*
X48330000Y-117300000D03*
X48330000Y-114100000D03*
X43430000Y-114100000D03*
X43430000Y-117300000D03*
G04 #@! TD*
G04 #@! TO.C,D89*
X101530000Y-110200000D03*
X101530000Y-107000000D03*
X96630000Y-107000000D03*
X96630000Y-110200000D03*
G04 #@! TD*
G04 #@! TO.C,D97*
X78730000Y-117230000D03*
X78730000Y-114030000D03*
X73830000Y-114030000D03*
X73830000Y-117230000D03*
G04 #@! TD*
G04 #@! TO.C,D102*
X116730000Y-117160000D03*
X116730000Y-113960000D03*
X111830000Y-113960000D03*
X111830000Y-117160000D03*
G04 #@! TD*
G04 #@! TO.C,D57*
X86330000Y-89300000D03*
X86330000Y-86100000D03*
X81430000Y-86100000D03*
X81430000Y-89300000D03*
G04 #@! TD*
G04 #@! TO.C,D58*
X93930000Y-89300000D03*
X93930000Y-86100000D03*
X89030000Y-86100000D03*
X89030000Y-89300000D03*
G04 #@! TD*
G04 #@! TO.C,D62*
X48330000Y-96300000D03*
X48330000Y-93100000D03*
X43430000Y-93100000D03*
X43430000Y-96300000D03*
G04 #@! TD*
G04 #@! TO.C,D63*
X55930000Y-96300000D03*
X55930000Y-93100000D03*
X51030000Y-93100000D03*
X51030000Y-96300000D03*
G04 #@! TD*
G04 #@! TO.C,D65*
X71130000Y-96300000D03*
X71130000Y-93100000D03*
X66230000Y-93100000D03*
X66230000Y-96300000D03*
G04 #@! TD*
G04 #@! TO.C,D50*
X109130000Y-82300000D03*
X109130000Y-79100000D03*
X104230000Y-79100000D03*
X104230000Y-82300000D03*
G04 #@! TD*
G04 #@! TO.C,D51*
X116730000Y-82300000D03*
X116730000Y-79100000D03*
X111830000Y-79100000D03*
X111830000Y-82300000D03*
G04 #@! TD*
G04 #@! TO.C,D66*
X78730000Y-96270000D03*
X78730000Y-93070000D03*
X73830000Y-93070000D03*
X73830000Y-96270000D03*
G04 #@! TD*
G04 #@! TO.C,D55*
X71130000Y-89240000D03*
X71130000Y-86040000D03*
X66230000Y-86040000D03*
X66230000Y-89240000D03*
G04 #@! TD*
G04 #@! TO.C,D56*
X78730000Y-89300000D03*
X78730000Y-86100000D03*
X73830000Y-86100000D03*
X73830000Y-89300000D03*
G04 #@! TD*
G04 #@! TO.C,D59*
X101530000Y-89300000D03*
X101530000Y-86100000D03*
X96630000Y-86100000D03*
X96630000Y-89300000D03*
G04 #@! TD*
G04 #@! TO.C,D64*
X63530000Y-96300000D03*
X63530000Y-93100000D03*
X58630000Y-93100000D03*
X58630000Y-96300000D03*
G04 #@! TD*
G04 #@! TO.C,D53*
X55930000Y-89270000D03*
X55930000Y-86070000D03*
X51030000Y-86070000D03*
X51030000Y-89270000D03*
G04 #@! TD*
G04 #@! TO.C,D67*
X86330000Y-96300000D03*
X86330000Y-93100000D03*
X81430000Y-93100000D03*
X81430000Y-96300000D03*
G04 #@! TD*
G04 #@! TO.C,D61*
X116730000Y-89300000D03*
X116730000Y-86100000D03*
X111830000Y-86100000D03*
X111830000Y-89300000D03*
G04 #@! TD*
G04 #@! TO.C,D60*
X109130000Y-89300000D03*
X109130000Y-86100000D03*
X104230000Y-86100000D03*
X104230000Y-89300000D03*
G04 #@! TD*
G04 #@! TO.C,D52*
X48330000Y-89270000D03*
X48330000Y-86070000D03*
X43430000Y-86070000D03*
X43430000Y-89270000D03*
G04 #@! TD*
G04 #@! TO.C,D54*
X63530000Y-89270000D03*
X63530000Y-86070000D03*
X58630000Y-86070000D03*
X58630000Y-89270000D03*
G04 #@! TD*
D10*
G04 #@! TO.C,C125*
X77740000Y-52000000D03*
X76780000Y-52000000D03*
G04 #@! TD*
D12*
G04 #@! TO.C,D113*
X78730000Y-50200000D03*
X78730000Y-47000000D03*
X73830000Y-47000000D03*
X73830000Y-50200000D03*
G04 #@! TD*
D13*
G04 #@! TO.C,SW3*
X60280000Y-138250000D03*
X54680000Y-138250000D03*
X54680000Y-134600000D03*
X60280000Y-134600000D03*
G04 #@! TD*
D12*
G04 #@! TO.C,D74*
X63550000Y-103300000D03*
X63550000Y-100100000D03*
X58650000Y-100100000D03*
X58650000Y-103300000D03*
G04 #@! TD*
G04 #@! TO.C,D84*
X63530000Y-110190000D03*
X63530000Y-106990000D03*
X58630000Y-106990000D03*
X58630000Y-110190000D03*
G04 #@! TD*
D16*
G04 #@! TO.C,H5*
X34000000Y-49000000D03*
G04 #@! TD*
G04 #@! TO.C,H6*
X126000000Y-49000000D03*
G04 #@! TD*
G04 #@! TO.C,H7*
X34000000Y-141000000D03*
G04 #@! TD*
G04 #@! TO.C,H8*
X126000000Y-141000000D03*
G04 #@! TD*
D17*
G04 #@! TO.C,Q3*
X60000000Y-55000000D03*
X62500000Y-55000000D03*
G04 #@! TD*
D13*
G04 #@! TO.C,SW9*
X112780000Y-143750000D03*
X107180000Y-143750000D03*
X112780000Y-140100000D03*
X107180000Y-140100000D03*
G04 #@! TD*
G04 #@! TO.C,SW5*
X114680000Y-138250000D03*
X120280000Y-138250000D03*
X120280000Y-134600000D03*
X114680000Y-134600000D03*
G04 #@! TD*
D11*
G04 #@! TO.C,C126*
X38480000Y-135820000D03*
X38480000Y-136780000D03*
G04 #@! TD*
D13*
G04 #@! TO.C,SW7*
X45280000Y-138250000D03*
X39680000Y-138250000D03*
X45280000Y-134600000D03*
X39680000Y-134600000D03*
G04 #@! TD*
G04 #@! TO.C,SW12*
X52780000Y-132750000D03*
X47180000Y-132750000D03*
X47180000Y-129100000D03*
X52780000Y-129100000D03*
G04 #@! TD*
D11*
G04 #@! TO.C,C30*
X45500000Y-130425000D03*
X45500000Y-131385000D03*
G04 #@! TD*
D18*
G04 #@! TO.C,J4*
X35100000Y-103900000D03*
D19*
X35100000Y-101360000D03*
X35100000Y-98820000D03*
X35100000Y-96280000D03*
X35100000Y-93740000D03*
X35100000Y-91200000D03*
X35100000Y-88660000D03*
X35100000Y-86120000D03*
G04 #@! TD*
D18*
G04 #@! TO.C,J5*
X125000000Y-103920000D03*
D19*
X125000000Y-101380000D03*
X125000000Y-98840000D03*
X125000000Y-96300000D03*
G04 #@! TD*
D18*
G04 #@! TO.C,J6*
X125000000Y-92200000D03*
D19*
X125000000Y-89660000D03*
X125000000Y-87120000D03*
X125000000Y-84580000D03*
G04 #@! TD*
M02*
