M48
; DRILL file {KiCad 6.0.2+dfsg-1} date Mon Jun 12 21:26:12 2023
; FORMAT={-:-/ absolute / metric / decimal}
; #@! TF.CreationDate,2023-06-12T21:26:12+02:00
; #@! TF.GenerationSoftware,Kicad,Pcbnew,6.0.2+dfsg-1
; #@! TF.FileFunction,MixedPlating,1,2
FMAT,2
METRIC
; #@! TA.AperFunction,Plated,PTH,ViaDrill
T1C0.300
; #@! TA.AperFunction,Plated,PTH,ViaDrill
T2C0.400
; #@! TA.AperFunction,Plated,PTH,ViaDrill
T3C0.500
; #@! TA.AperFunction,Plated,PTH,ComponentDrill
T4C1.000
; #@! TA.AperFunction,Plated,PTH,ComponentDrill
T5C3.200
%
G90
G05
T1
X43.4Y-122.6
X118.28Y-59.0
X118.38Y-80.0
X118.38Y-86.8
X118.38Y-94.0
X118.48Y-66.05
X118.48Y-73.2
X118.48Y-101.1
X118.48Y-114.8
X118.58Y-108.0
T2
X37.495Y-70.505
X40.7Y-51.8
X42.48Y-136.4
X49.98Y-130.9
X49.98Y-136.4
X49.98Y-141.9
X57.48Y-136.4
X104.45Y-129.1
X109.975Y-141.9
X113.76Y-136.49
X115.95Y-133.16
X117.19Y-128.425
X118.055Y-127.585
X118.295Y-131.48
T3
X40.88Y-100.1
X41.58Y-66.1
X41.58Y-115.3
X41.68Y-73.5
X41.68Y-87.0
X41.68Y-94.5
X41.68Y-101.8
X41.68Y-108.4
X41.78Y-80.6
X44.48Y-59.8
X45.505Y-129.1
X45.515Y-126.0
X46.68Y-102.0
X46.78Y-87.9
X46.88Y-74.0
X46.88Y-108.9
X46.88Y-115.8
X46.98Y-80.8
X46.98Y-94.9
X47.08Y-66.8
X47.58Y-122.9
X53.2Y-87.9
X53.2Y-94.9
X53.2Y-108.9
X53.2Y-115.8
X53.3Y-59.8
X53.3Y-66.8
X53.3Y-74.0
X53.3Y-80.8
X53.3Y-102.0
X54.3Y-122.9
X60.7Y-115.8
X60.8Y-74.0
X60.8Y-94.9
X60.9Y-59.8
X60.9Y-80.8
X60.9Y-87.9
X60.9Y-102.0
X60.9Y-108.9
X61.0Y-66.8
X61.7Y-123.0
X68.4Y-66.8
X68.4Y-74.0
X68.4Y-80.8
X68.4Y-87.9
X68.4Y-102.0
X68.4Y-108.9
X68.4Y-115.8
X68.5Y-59.8
X68.6Y-94.9
X69.3Y-123.0
X75.9Y-74.0
X75.9Y-80.8
X76.0Y-66.8
X76.0Y-87.9
X76.0Y-102.0
X76.0Y-108.9
X76.1Y-94.9
X76.1Y-115.7
X76.2Y-59.8
X76.9Y-123.0
X83.6Y-59.8
X83.6Y-74.0
X83.6Y-80.8
X83.6Y-102.0
X83.6Y-108.9
X83.6Y-115.7
X83.7Y-66.8
X83.7Y-87.9
X83.7Y-94.9
X84.36Y-123.04
X91.1Y-74.0
X91.2Y-87.9
X91.2Y-94.9
X91.2Y-108.9
X91.2Y-115.7
X91.3Y-59.8
X91.3Y-66.8
X91.3Y-80.8
X91.3Y-102.0
X92.2Y-123.0
X98.8Y-59.8
X98.8Y-66.8
X98.8Y-74.0
X98.8Y-80.8
X98.8Y-87.9
X98.8Y-94.9
X98.8Y-102.0
X98.9Y-108.9
X99.7Y-115.7
X99.8Y-123.0
X106.4Y-59.8
X106.4Y-74.0
X106.4Y-80.8
X106.4Y-87.9
X106.4Y-94.8
X106.4Y-102.0
X106.5Y-66.8
X106.5Y-108.9
X107.2Y-115.7
X107.2Y-123.0
X112.58Y-80.8
X112.58Y-87.9
X112.78Y-59.8
X112.78Y-66.8
X112.78Y-94.8
X112.78Y-108.9
X112.88Y-102.0
X112.98Y-74.0
X113.28Y-123.0
X113.68Y-115.7
X119.48Y-115.7
T4
X35.1Y-86.12
X35.1Y-88.66
X35.1Y-91.2
X35.1Y-93.74
X35.1Y-96.28
X35.1Y-98.82
X35.1Y-101.36
X35.1Y-103.9
X125.0Y-84.58
X125.0Y-87.12
X125.0Y-89.66
X125.0Y-92.2
X125.0Y-96.3
X125.0Y-98.84
X125.0Y-101.38
X125.0Y-103.92
T5
X34.0Y-49.0
X34.0Y-141.0
X126.0Y-49.0
X126.0Y-141.0
T0
M30
