G04 #@! TF.GenerationSoftware,KiCad,Pcbnew,6.0.2+dfsg-1*
G04 #@! TF.CreationDate,2023-06-12T23:51:07+02:00*
G04 #@! TF.ProjectId,Logic_0,4c6f6769-635f-4302-9e6b-696361645f70,rev?*
G04 #@! TF.SameCoordinates,Original*
G04 #@! TF.FileFunction,Legend,Top*
G04 #@! TF.FilePolarity,Positive*
%FSLAX46Y46*%
G04 Gerber Fmt 4.6, Leading zero omitted, Abs format (unit mm)*
G04 Created by KiCad (PCBNEW 6.0.2+dfsg-1) date 2023-06-12 23:51:07*
%MOMM*%
%LPD*%
G01*
G04 APERTURE LIST*
%ADD10C,0.120000*%
%ADD11C,0.300000*%
%ADD12C,0.200000*%
%ADD13C,0.150000*%
%ADD14C,0.250000*%
G04 APERTURE END LIST*
D10*
X71800000Y-141350000D02*
X71900000Y-141350000D01*
X63300000Y-138050000D02*
X63200000Y-138050000D01*
X76100000Y-137850000D02*
X76100000Y-138050000D01*
X76100000Y-134750000D02*
X76100000Y-137850000D01*
X63200000Y-134750000D02*
X76100000Y-134750000D01*
X63200000Y-138050000D02*
X63200000Y-134750000D01*
X67500000Y-134750000D02*
X67500000Y-141350000D01*
X67500000Y-141350000D02*
X71800000Y-141350000D01*
X71900000Y-141350000D02*
X71900000Y-131350000D01*
X67500000Y-131350000D02*
X67500000Y-134750000D01*
X76100000Y-138050000D02*
X63300000Y-138050000D01*
X71900000Y-131350000D02*
X67800000Y-131350000D01*
X120300000Y-55500000D02*
X119800000Y-55100000D01*
X126400000Y-55500000D02*
X125900000Y-55100000D01*
X56300000Y-55000000D02*
X55800000Y-55400000D01*
X119300000Y-59700000D02*
X119300000Y-58600000D01*
X121900000Y-59500000D02*
X123300000Y-59500000D01*
X91700000Y-131350000D02*
X87300000Y-131350000D01*
X95900000Y-138050000D02*
X83000000Y-138050000D01*
X87300000Y-131350000D02*
X87300000Y-134750000D01*
X119300000Y-57600000D02*
X120250000Y-57600000D01*
X56300000Y-55000000D02*
X55800000Y-54600000D01*
X128500000Y-55500000D02*
X128000000Y-55500000D01*
X41943050Y-61205080D02*
X41374090Y-61578460D01*
X123300000Y-59500000D02*
X122800000Y-59100000D01*
X42280670Y-50309550D02*
X41719330Y-49890450D01*
X91600000Y-141350000D02*
X91700000Y-141350000D01*
X126600000Y-54900000D02*
X127800000Y-54900000D01*
X127800000Y-54900000D02*
X127800000Y-56100000D01*
X127800000Y-56100000D02*
X126600000Y-56100000D01*
X126600000Y-56100000D02*
X126600000Y-54900000D01*
X39194570Y-50309550D02*
X42280670Y-50309550D01*
X91700000Y-141350000D02*
X91700000Y-131350000D01*
X126600000Y-58900000D02*
X127800000Y-58900000D01*
X127800000Y-58900000D02*
X127800000Y-60100000D01*
X127800000Y-60100000D02*
X126600000Y-60100000D01*
X126600000Y-60100000D02*
X126600000Y-58900000D01*
X120500000Y-58900000D02*
X121700000Y-58900000D01*
X121700000Y-58900000D02*
X121700000Y-60100000D01*
X121700000Y-60100000D02*
X120500000Y-60100000D01*
X120500000Y-60100000D02*
X120500000Y-58900000D01*
X87300000Y-141350000D02*
X91600000Y-141350000D01*
X119300000Y-56500000D02*
X128500000Y-56500000D01*
X125000000Y-59500000D02*
X126400000Y-59500000D01*
X120250000Y-59700000D02*
X119750000Y-60100000D01*
X128800000Y-59200000D02*
X128200000Y-59800000D01*
X126400000Y-57500000D02*
X125900000Y-57100000D01*
X120250000Y-57600000D02*
X119750000Y-58000000D01*
X126400000Y-59500000D02*
X125900000Y-59900000D01*
X123500000Y-58900000D02*
X124700000Y-58900000D01*
X124700000Y-58900000D02*
X124700000Y-60100000D01*
X124700000Y-60100000D02*
X123500000Y-60100000D01*
X123500000Y-60100000D02*
X123500000Y-58900000D01*
X121900000Y-57500000D02*
X123300000Y-57500000D01*
X125000000Y-55500000D02*
X126400000Y-55500000D01*
X123500000Y-56900000D02*
X124700000Y-56900000D01*
X124700000Y-56900000D02*
X124700000Y-58100000D01*
X124700000Y-58100000D02*
X123500000Y-58100000D01*
X123500000Y-58100000D02*
X123500000Y-56900000D01*
X128500000Y-57600000D02*
X128000000Y-57600000D01*
X120250000Y-59700000D02*
X119750000Y-59300000D01*
X121900000Y-55500000D02*
X123300000Y-55500000D01*
X126600000Y-56900000D02*
X127800000Y-56900000D01*
X127800000Y-56900000D02*
X127800000Y-58100000D01*
X127800000Y-58100000D02*
X126600000Y-58100000D01*
X126600000Y-58100000D02*
X126600000Y-56900000D01*
X54900000Y-55000000D02*
X56300000Y-55000000D01*
X83000000Y-134750000D02*
X95900000Y-134750000D01*
X83000000Y-138050000D02*
X83000000Y-134750000D01*
X119300000Y-59700000D02*
X120250000Y-59700000D01*
X67800000Y-131350000D02*
X67500000Y-131350000D01*
X41943050Y-61200000D02*
X41381710Y-60780900D01*
X125000000Y-57500000D02*
X126400000Y-57500000D01*
X128500000Y-58600000D02*
X128500000Y-57600000D01*
X128200000Y-59200000D02*
X128800000Y-59800000D01*
X123300000Y-57500000D02*
X122800000Y-57900000D01*
X126400000Y-57500000D02*
X125900000Y-57900000D01*
X123500000Y-54900000D02*
X124700000Y-54900000D01*
X124700000Y-54900000D02*
X124700000Y-56100000D01*
X124700000Y-56100000D02*
X123500000Y-56100000D01*
X123500000Y-56100000D02*
X123500000Y-54900000D01*
X128500000Y-56500000D02*
X128500000Y-55500000D01*
X118900000Y-55500000D02*
X120300000Y-55500000D01*
X123300000Y-57500000D02*
X122800000Y-57100000D01*
X126400000Y-59500000D02*
X125900000Y-59100000D01*
X95900000Y-134750000D02*
X95900000Y-138050000D01*
X38856950Y-61200000D02*
X41943050Y-61200000D01*
X120500000Y-56900000D02*
X121700000Y-56900000D01*
X121700000Y-56900000D02*
X121700000Y-58100000D01*
X121700000Y-58100000D02*
X120500000Y-58100000D01*
X120500000Y-58100000D02*
X120500000Y-56900000D01*
X119300000Y-58600000D02*
X128500000Y-58600000D01*
X126400000Y-55500000D02*
X125900000Y-55900000D01*
X119300000Y-57600000D02*
X119300000Y-56500000D01*
X123300000Y-59500000D02*
X122800000Y-59900000D01*
X87300000Y-134750000D02*
X87300000Y-141350000D01*
X120250000Y-57600000D02*
X119750000Y-57200000D01*
X123300000Y-55500000D02*
X122800000Y-55100000D01*
X42280670Y-50314630D02*
X41711710Y-50688010D01*
X120500000Y-54900000D02*
X121700000Y-54900000D01*
X121700000Y-54900000D02*
X121700000Y-56100000D01*
X121700000Y-56100000D02*
X120500000Y-56100000D01*
X120500000Y-56100000D02*
X120500000Y-54900000D01*
X120300000Y-55500000D02*
X119800000Y-55900000D01*
X123300000Y-55500000D02*
X122800000Y-55900000D01*
D11*
X118199042Y-126498457D02*
X120484757Y-128784171D01*
X120484757Y-126498457D02*
X118199042Y-128784171D01*
D12*
X51085714Y-52214285D02*
X51257142Y-52271428D01*
X51314285Y-52328571D01*
X51371428Y-52442857D01*
X51371428Y-52614285D01*
X51314285Y-52728571D01*
X51257142Y-52785714D01*
X51142857Y-52842857D01*
X50685714Y-52842857D01*
X50685714Y-51642857D01*
X51085714Y-51642857D01*
X51200000Y-51700000D01*
X51257142Y-51757142D01*
X51314285Y-51871428D01*
X51314285Y-51985714D01*
X51257142Y-52100000D01*
X51200000Y-52157142D01*
X51085714Y-52214285D01*
X50685714Y-52214285D01*
X58771428Y-52728571D02*
X58714285Y-52785714D01*
X58542857Y-52842857D01*
X58428571Y-52842857D01*
X58257142Y-52785714D01*
X58142857Y-52671428D01*
X58085714Y-52557142D01*
X58028571Y-52328571D01*
X58028571Y-52157142D01*
X58085714Y-51928571D01*
X58142857Y-51814285D01*
X58257142Y-51700000D01*
X58428571Y-51642857D01*
X58542857Y-51642857D01*
X58714285Y-51700000D01*
X58771428Y-51757142D01*
X65985714Y-52742857D02*
X65985714Y-51542857D01*
X66271428Y-51542857D01*
X66442857Y-51600000D01*
X66557142Y-51714285D01*
X66614285Y-51828571D01*
X66671428Y-52057142D01*
X66671428Y-52228571D01*
X66614285Y-52457142D01*
X66557142Y-52571428D01*
X66442857Y-52685714D01*
X66271428Y-52742857D01*
X65985714Y-52742857D01*
X74342857Y-52214285D02*
X74742857Y-52214285D01*
X74914285Y-52842857D02*
X74342857Y-52842857D01*
X74342857Y-51642857D01*
X74914285Y-51642857D01*
D13*
X43176190Y-62552380D02*
X43271428Y-62552380D01*
X43366666Y-62600000D01*
X43414285Y-62647619D01*
X43461904Y-62742857D01*
X43509523Y-62933333D01*
X43509523Y-63171428D01*
X43461904Y-63361904D01*
X43414285Y-63457142D01*
X43366666Y-63504761D01*
X43271428Y-63552380D01*
X43176190Y-63552380D01*
X43080952Y-63504761D01*
X43033333Y-63457142D01*
X42985714Y-63361904D01*
X42938095Y-63171428D01*
X42938095Y-62933333D01*
X42985714Y-62742857D01*
X43033333Y-62647619D01*
X43080952Y-62600000D01*
X43176190Y-62552380D01*
X44128571Y-62552380D02*
X44223809Y-62552380D01*
X44319047Y-62600000D01*
X44366666Y-62647619D01*
X44414285Y-62742857D01*
X44461904Y-62933333D01*
X44461904Y-63171428D01*
X44414285Y-63361904D01*
X44366666Y-63457142D01*
X44319047Y-63504761D01*
X44223809Y-63552380D01*
X44128571Y-63552380D01*
X44033333Y-63504761D01*
X43985714Y-63457142D01*
X43938095Y-63361904D01*
X43890476Y-63171428D01*
X43890476Y-62933333D01*
X43938095Y-62742857D01*
X43985714Y-62647619D01*
X44033333Y-62600000D01*
X44128571Y-62552380D01*
D12*
X68600000Y-141092857D02*
X68600000Y-139892857D01*
X69400000Y-139892857D02*
X69628571Y-139892857D01*
X69742857Y-139950000D01*
X69857142Y-140064285D01*
X69914285Y-140292857D01*
X69914285Y-140692857D01*
X69857142Y-140921428D01*
X69742857Y-141035714D01*
X69628571Y-141092857D01*
X69400000Y-141092857D01*
X69285714Y-141035714D01*
X69171428Y-140921428D01*
X69114285Y-140692857D01*
X69114285Y-140292857D01*
X69171428Y-140064285D01*
X69285714Y-139950000D01*
X69400000Y-139892857D01*
X70314285Y-139892857D02*
X71114285Y-139892857D01*
X70600000Y-141092857D01*
X67828571Y-134492857D02*
X67828571Y-133292857D01*
X68628571Y-133292857D02*
X68857142Y-133292857D01*
X68971428Y-133350000D01*
X69085714Y-133464285D01*
X69142857Y-133692857D01*
X69142857Y-134092857D01*
X69085714Y-134321428D01*
X68971428Y-134435714D01*
X68857142Y-134492857D01*
X68628571Y-134492857D01*
X68514285Y-134435714D01*
X68400000Y-134321428D01*
X68342857Y-134092857D01*
X68342857Y-133692857D01*
X68400000Y-133464285D01*
X68514285Y-133350000D01*
X68628571Y-133292857D01*
X70171428Y-133692857D02*
X70171428Y-134492857D01*
X69885714Y-133235714D02*
X69600000Y-134092857D01*
X70342857Y-134092857D01*
X70685714Y-133292857D02*
X71485714Y-133292857D01*
X70971428Y-134492857D01*
X68400000Y-137792857D02*
X68400000Y-136592857D01*
X69200000Y-136592857D02*
X69428571Y-136592857D01*
X69542857Y-136650000D01*
X69657142Y-136764285D01*
X69714285Y-136992857D01*
X69714285Y-137392857D01*
X69657142Y-137621428D01*
X69542857Y-137735714D01*
X69428571Y-137792857D01*
X69200000Y-137792857D01*
X69085714Y-137735714D01*
X68971428Y-137621428D01*
X68914285Y-137392857D01*
X68914285Y-136992857D01*
X68971428Y-136764285D01*
X69085714Y-136650000D01*
X69200000Y-136592857D01*
X70800000Y-136592857D02*
X70228571Y-136592857D01*
X70171428Y-137164285D01*
X70228571Y-137107142D01*
X70342857Y-137050000D01*
X70628571Y-137050000D01*
X70742857Y-137107142D01*
X70800000Y-137164285D01*
X70857142Y-137278571D01*
X70857142Y-137564285D01*
X70800000Y-137678571D01*
X70742857Y-137735714D01*
X70628571Y-137792857D01*
X70342857Y-137792857D01*
X70228571Y-137735714D01*
X70171428Y-137678571D01*
X72800000Y-137692857D02*
X72800000Y-136492857D01*
X73600000Y-136492857D02*
X73828571Y-136492857D01*
X73942857Y-136550000D01*
X74057142Y-136664285D01*
X74114285Y-136892857D01*
X74114285Y-137292857D01*
X74057142Y-137521428D01*
X73942857Y-137635714D01*
X73828571Y-137692857D01*
X73600000Y-137692857D01*
X73485714Y-137635714D01*
X73371428Y-137521428D01*
X73314285Y-137292857D01*
X73314285Y-136892857D01*
X73371428Y-136664285D01*
X73485714Y-136550000D01*
X73600000Y-136492857D01*
X75142857Y-136492857D02*
X74914285Y-136492857D01*
X74800000Y-136550000D01*
X74742857Y-136607142D01*
X74628571Y-136778571D01*
X74571428Y-137007142D01*
X74571428Y-137464285D01*
X74628571Y-137578571D01*
X74685714Y-137635714D01*
X74800000Y-137692857D01*
X75028571Y-137692857D01*
X75142857Y-137635714D01*
X75200000Y-137578571D01*
X75257142Y-137464285D01*
X75257142Y-137178571D01*
X75200000Y-137064285D01*
X75142857Y-137007142D01*
X75028571Y-136950000D01*
X74800000Y-136950000D01*
X74685714Y-137007142D01*
X74628571Y-137064285D01*
X74571428Y-137178571D01*
X64100000Y-137892857D02*
X64100000Y-136692857D01*
X64900000Y-136692857D02*
X65128571Y-136692857D01*
X65242857Y-136750000D01*
X65357142Y-136864285D01*
X65414285Y-137092857D01*
X65414285Y-137492857D01*
X65357142Y-137721428D01*
X65242857Y-137835714D01*
X65128571Y-137892857D01*
X64900000Y-137892857D01*
X64785714Y-137835714D01*
X64671428Y-137721428D01*
X64614285Y-137492857D01*
X64614285Y-137092857D01*
X64671428Y-136864285D01*
X64785714Y-136750000D01*
X64900000Y-136692857D01*
X66557142Y-137892857D02*
X65871428Y-137892857D01*
X66214285Y-137892857D02*
X66214285Y-136692857D01*
X66100000Y-136864285D01*
X65985714Y-136978571D01*
X65871428Y-137035714D01*
X67757142Y-135564285D02*
X68157142Y-135564285D01*
X68328571Y-136192857D02*
X67757142Y-136192857D01*
X67757142Y-134992857D01*
X68328571Y-134992857D01*
X68842857Y-136192857D02*
X68842857Y-134992857D01*
X69528571Y-136192857D01*
X69528571Y-134992857D01*
X69928571Y-134992857D02*
X70614285Y-134992857D01*
X70271428Y-136192857D02*
X70271428Y-134992857D01*
X71700000Y-136192857D02*
X71300000Y-135621428D01*
X71014285Y-136192857D02*
X71014285Y-134992857D01*
X71471428Y-134992857D01*
X71585714Y-135050000D01*
X71642857Y-135107142D01*
X71700000Y-135221428D01*
X71700000Y-135392857D01*
X71642857Y-135507142D01*
X71585714Y-135564285D01*
X71471428Y-135621428D01*
X71014285Y-135621428D01*
D13*
X50538095Y-76747619D02*
X50585714Y-76700000D01*
X50680952Y-76652380D01*
X50919047Y-76652380D01*
X51014285Y-76700000D01*
X51061904Y-76747619D01*
X51109523Y-76842857D01*
X51109523Y-76938095D01*
X51061904Y-77080952D01*
X50490476Y-77652380D01*
X51109523Y-77652380D01*
X52061904Y-77652380D02*
X51490476Y-77652380D01*
X51776190Y-77652380D02*
X51776190Y-76652380D01*
X51680952Y-76795238D01*
X51585714Y-76890476D01*
X51490476Y-76938095D01*
X74061904Y-97752380D02*
X73585714Y-97752380D01*
X73538095Y-98228571D01*
X73585714Y-98180952D01*
X73680952Y-98133333D01*
X73919047Y-98133333D01*
X74014285Y-98180952D01*
X74061904Y-98228571D01*
X74109523Y-98323809D01*
X74109523Y-98561904D01*
X74061904Y-98657142D01*
X74014285Y-98704761D01*
X73919047Y-98752380D01*
X73680952Y-98752380D01*
X73585714Y-98704761D01*
X73538095Y-98657142D01*
X74966666Y-98085714D02*
X74966666Y-98752380D01*
X74728571Y-97704761D02*
X74490476Y-98419047D01*
X75109523Y-98419047D01*
X96414285Y-91085714D02*
X96414285Y-91752380D01*
X96176190Y-90704761D02*
X95938095Y-91419047D01*
X96557142Y-91419047D01*
X96842857Y-90752380D02*
X97509523Y-90752380D01*
X97080952Y-91752380D01*
X58433333Y-126552380D02*
X58623809Y-126552380D01*
X58719047Y-126504761D01*
X58766666Y-126457142D01*
X58861904Y-126314285D01*
X58909523Y-126123809D01*
X58909523Y-125742857D01*
X58861904Y-125647619D01*
X58814285Y-125600000D01*
X58719047Y-125552380D01*
X58528571Y-125552380D01*
X58433333Y-125600000D01*
X58385714Y-125647619D01*
X58338095Y-125742857D01*
X58338095Y-125980952D01*
X58385714Y-126076190D01*
X58433333Y-126123809D01*
X58528571Y-126171428D01*
X58719047Y-126171428D01*
X58814285Y-126123809D01*
X58861904Y-126076190D01*
X58909523Y-125980952D01*
X59290476Y-125647619D02*
X59338095Y-125600000D01*
X59433333Y-125552380D01*
X59671428Y-125552380D01*
X59766666Y-125600000D01*
X59814285Y-125647619D01*
X59861904Y-125742857D01*
X59861904Y-125838095D01*
X59814285Y-125980952D01*
X59242857Y-126552380D01*
X59861904Y-126552380D01*
X104228571Y-118980952D02*
X104133333Y-118933333D01*
X104085714Y-118885714D01*
X104038095Y-118790476D01*
X104038095Y-118742857D01*
X104085714Y-118647619D01*
X104133333Y-118600000D01*
X104228571Y-118552380D01*
X104419047Y-118552380D01*
X104514285Y-118600000D01*
X104561904Y-118647619D01*
X104609523Y-118742857D01*
X104609523Y-118790476D01*
X104561904Y-118885714D01*
X104514285Y-118933333D01*
X104419047Y-118980952D01*
X104228571Y-118980952D01*
X104133333Y-119028571D01*
X104085714Y-119076190D01*
X104038095Y-119171428D01*
X104038095Y-119361904D01*
X104085714Y-119457142D01*
X104133333Y-119504761D01*
X104228571Y-119552380D01*
X104419047Y-119552380D01*
X104514285Y-119504761D01*
X104561904Y-119457142D01*
X104609523Y-119361904D01*
X104609523Y-119171428D01*
X104561904Y-119076190D01*
X104514285Y-119028571D01*
X104419047Y-118980952D01*
X105180952Y-118980952D02*
X105085714Y-118933333D01*
X105038095Y-118885714D01*
X104990476Y-118790476D01*
X104990476Y-118742857D01*
X105038095Y-118647619D01*
X105085714Y-118600000D01*
X105180952Y-118552380D01*
X105371428Y-118552380D01*
X105466666Y-118600000D01*
X105514285Y-118647619D01*
X105561904Y-118742857D01*
X105561904Y-118790476D01*
X105514285Y-118885714D01*
X105466666Y-118933333D01*
X105371428Y-118980952D01*
X105180952Y-118980952D01*
X105085714Y-119028571D01*
X105038095Y-119076190D01*
X104990476Y-119171428D01*
X104990476Y-119361904D01*
X105038095Y-119457142D01*
X105085714Y-119504761D01*
X105180952Y-119552380D01*
X105371428Y-119552380D01*
X105466666Y-119504761D01*
X105514285Y-119457142D01*
X105561904Y-119361904D01*
X105561904Y-119171428D01*
X105514285Y-119076190D01*
X105466666Y-119028571D01*
X105371428Y-118980952D01*
X58614285Y-91085714D02*
X58614285Y-91752380D01*
X58376190Y-90704761D02*
X58138095Y-91419047D01*
X58757142Y-91419047D01*
X59090476Y-90847619D02*
X59138095Y-90800000D01*
X59233333Y-90752380D01*
X59471428Y-90752380D01*
X59566666Y-90800000D01*
X59614285Y-90847619D01*
X59661904Y-90942857D01*
X59661904Y-91038095D01*
X59614285Y-91180952D01*
X59042857Y-91752380D01*
X59661904Y-91752380D01*
D12*
X83328571Y-137892857D02*
X83328571Y-136692857D01*
X84128571Y-136692857D02*
X84357142Y-136692857D01*
X84471428Y-136750000D01*
X84585714Y-136864285D01*
X84642857Y-137092857D01*
X84642857Y-137492857D01*
X84585714Y-137721428D01*
X84471428Y-137835714D01*
X84357142Y-137892857D01*
X84128571Y-137892857D01*
X84014285Y-137835714D01*
X83900000Y-137721428D01*
X83842857Y-137492857D01*
X83842857Y-137092857D01*
X83900000Y-136864285D01*
X84014285Y-136750000D01*
X84128571Y-136692857D01*
X85785714Y-137892857D02*
X85100000Y-137892857D01*
X85442857Y-137892857D02*
X85442857Y-136692857D01*
X85328571Y-136864285D01*
X85214285Y-136978571D01*
X85100000Y-137035714D01*
X86528571Y-136692857D02*
X86642857Y-136692857D01*
X86757142Y-136750000D01*
X86814285Y-136807142D01*
X86871428Y-136921428D01*
X86928571Y-137150000D01*
X86928571Y-137435714D01*
X86871428Y-137664285D01*
X86814285Y-137778571D01*
X86757142Y-137835714D01*
X86642857Y-137892857D01*
X86528571Y-137892857D01*
X86414285Y-137835714D01*
X86357142Y-137778571D01*
X86300000Y-137664285D01*
X86242857Y-137435714D01*
X86242857Y-137150000D01*
X86300000Y-136921428D01*
X86357142Y-136807142D01*
X86414285Y-136750000D01*
X86528571Y-136692857D01*
X87828571Y-141092857D02*
X87828571Y-139892857D01*
X88628571Y-139892857D02*
X88857142Y-139892857D01*
X88971428Y-139950000D01*
X89085714Y-140064285D01*
X89142857Y-140292857D01*
X89142857Y-140692857D01*
X89085714Y-140921428D01*
X88971428Y-141035714D01*
X88857142Y-141092857D01*
X88628571Y-141092857D01*
X88514285Y-141035714D01*
X88400000Y-140921428D01*
X88342857Y-140692857D01*
X88342857Y-140292857D01*
X88400000Y-140064285D01*
X88514285Y-139950000D01*
X88628571Y-139892857D01*
X90285714Y-141092857D02*
X89600000Y-141092857D01*
X89942857Y-141092857D02*
X89942857Y-139892857D01*
X89828571Y-140064285D01*
X89714285Y-140178571D01*
X89600000Y-140235714D01*
X91314285Y-140292857D02*
X91314285Y-141092857D01*
X91028571Y-139835714D02*
X90742857Y-140692857D01*
X91485714Y-140692857D01*
D13*
X43609523Y-70552380D02*
X43038095Y-70552380D01*
X43323809Y-70552380D02*
X43323809Y-69552380D01*
X43228571Y-69695238D01*
X43133333Y-69790476D01*
X43038095Y-69838095D01*
X44228571Y-69552380D02*
X44323809Y-69552380D01*
X44419047Y-69600000D01*
X44466666Y-69647619D01*
X44514285Y-69742857D01*
X44561904Y-69933333D01*
X44561904Y-70171428D01*
X44514285Y-70361904D01*
X44466666Y-70457142D01*
X44419047Y-70504761D01*
X44323809Y-70552380D01*
X44228571Y-70552380D01*
X44133333Y-70504761D01*
X44085714Y-70457142D01*
X44038095Y-70361904D01*
X43990476Y-70171428D01*
X43990476Y-69933333D01*
X44038095Y-69742857D01*
X44085714Y-69647619D01*
X44133333Y-69600000D01*
X44228571Y-69552380D01*
X73290476Y-111652380D02*
X73957142Y-111652380D01*
X73528571Y-112652380D01*
X74766666Y-111985714D02*
X74766666Y-112652380D01*
X74528571Y-111604761D02*
X74290476Y-112319047D01*
X74909523Y-112319047D01*
X73776190Y-62652380D02*
X73871428Y-62652380D01*
X73966666Y-62700000D01*
X74014285Y-62747619D01*
X74061904Y-62842857D01*
X74109523Y-63033333D01*
X74109523Y-63271428D01*
X74061904Y-63461904D01*
X74014285Y-63557142D01*
X73966666Y-63604761D01*
X73871428Y-63652380D01*
X73776190Y-63652380D01*
X73680952Y-63604761D01*
X73633333Y-63557142D01*
X73585714Y-63461904D01*
X73538095Y-63271428D01*
X73538095Y-63033333D01*
X73585714Y-62842857D01*
X73633333Y-62747619D01*
X73680952Y-62700000D01*
X73776190Y-62652380D01*
X74966666Y-62985714D02*
X74966666Y-63652380D01*
X74728571Y-62604761D02*
X74490476Y-63319047D01*
X75109523Y-63319047D01*
X96714285Y-104652380D02*
X96523809Y-104652380D01*
X96428571Y-104700000D01*
X96380952Y-104747619D01*
X96285714Y-104890476D01*
X96238095Y-105080952D01*
X96238095Y-105461904D01*
X96285714Y-105557142D01*
X96333333Y-105604761D01*
X96428571Y-105652380D01*
X96619047Y-105652380D01*
X96714285Y-105604761D01*
X96761904Y-105557142D01*
X96809523Y-105461904D01*
X96809523Y-105223809D01*
X96761904Y-105128571D01*
X96714285Y-105080952D01*
X96619047Y-105033333D01*
X96428571Y-105033333D01*
X96333333Y-105080952D01*
X96285714Y-105128571D01*
X96238095Y-105223809D01*
X97142857Y-104652380D02*
X97809523Y-104652380D01*
X97380952Y-105652380D01*
X111190476Y-83752380D02*
X111809523Y-83752380D01*
X111476190Y-84133333D01*
X111619047Y-84133333D01*
X111714285Y-84180952D01*
X111761904Y-84228571D01*
X111809523Y-84323809D01*
X111809523Y-84561904D01*
X111761904Y-84657142D01*
X111714285Y-84704761D01*
X111619047Y-84752380D01*
X111333333Y-84752380D01*
X111238095Y-84704761D01*
X111190476Y-84657142D01*
X112285714Y-84752380D02*
X112476190Y-84752380D01*
X112571428Y-84704761D01*
X112619047Y-84657142D01*
X112714285Y-84514285D01*
X112761904Y-84323809D01*
X112761904Y-83942857D01*
X112714285Y-83847619D01*
X112666666Y-83800000D01*
X112571428Y-83752380D01*
X112380952Y-83752380D01*
X112285714Y-83800000D01*
X112238095Y-83847619D01*
X112190476Y-83942857D01*
X112190476Y-84180952D01*
X112238095Y-84276190D01*
X112285714Y-84323809D01*
X112380952Y-84371428D01*
X112571428Y-84371428D01*
X112666666Y-84323809D01*
X112714285Y-84276190D01*
X112761904Y-84180952D01*
X112009523Y-70552380D02*
X111438095Y-70552380D01*
X111723809Y-70552380D02*
X111723809Y-69552380D01*
X111628571Y-69695238D01*
X111533333Y-69790476D01*
X111438095Y-69838095D01*
X112485714Y-70552380D02*
X112676190Y-70552380D01*
X112771428Y-70504761D01*
X112819047Y-70457142D01*
X112914285Y-70314285D01*
X112961904Y-70123809D01*
X112961904Y-69742857D01*
X112914285Y-69647619D01*
X112866666Y-69600000D01*
X112771428Y-69552380D01*
X112580952Y-69552380D01*
X112485714Y-69600000D01*
X112438095Y-69647619D01*
X112390476Y-69742857D01*
X112390476Y-69980952D01*
X112438095Y-70076190D01*
X112485714Y-70123809D01*
X112580952Y-70171428D01*
X112771428Y-70171428D01*
X112866666Y-70123809D01*
X112914285Y-70076190D01*
X112961904Y-69980952D01*
X51014285Y-104652380D02*
X50823809Y-104652380D01*
X50728571Y-104700000D01*
X50680952Y-104747619D01*
X50585714Y-104890476D01*
X50538095Y-105080952D01*
X50538095Y-105461904D01*
X50585714Y-105557142D01*
X50633333Y-105604761D01*
X50728571Y-105652380D01*
X50919047Y-105652380D01*
X51014285Y-105604761D01*
X51061904Y-105557142D01*
X51109523Y-105461904D01*
X51109523Y-105223809D01*
X51061904Y-105128571D01*
X51014285Y-105080952D01*
X50919047Y-105033333D01*
X50728571Y-105033333D01*
X50633333Y-105080952D01*
X50585714Y-105128571D01*
X50538095Y-105223809D01*
X52061904Y-105652380D02*
X51490476Y-105652380D01*
X51776190Y-105652380D02*
X51776190Y-104652380D01*
X51680952Y-104795238D01*
X51585714Y-104890476D01*
X51490476Y-104938095D01*
X51161904Y-97652380D02*
X50685714Y-97652380D01*
X50638095Y-98128571D01*
X50685714Y-98080952D01*
X50780952Y-98033333D01*
X51019047Y-98033333D01*
X51114285Y-98080952D01*
X51161904Y-98128571D01*
X51209523Y-98223809D01*
X51209523Y-98461904D01*
X51161904Y-98557142D01*
X51114285Y-98604761D01*
X51019047Y-98652380D01*
X50780952Y-98652380D01*
X50685714Y-98604761D01*
X50638095Y-98557142D01*
X52161904Y-98652380D02*
X51590476Y-98652380D01*
X51876190Y-98652380D02*
X51876190Y-97652380D01*
X51780952Y-97795238D01*
X51685714Y-97890476D01*
X51590476Y-97938095D01*
X96238095Y-76747619D02*
X96285714Y-76700000D01*
X96380952Y-76652380D01*
X96619047Y-76652380D01*
X96714285Y-76700000D01*
X96761904Y-76747619D01*
X96809523Y-76842857D01*
X96809523Y-76938095D01*
X96761904Y-77080952D01*
X96190476Y-77652380D01*
X96809523Y-77652380D01*
X97142857Y-76652380D02*
X97809523Y-76652380D01*
X97380952Y-77652380D01*
D12*
X64157142Y-136192857D02*
X63585714Y-136192857D01*
X63585714Y-134992857D01*
X64557142Y-135564285D02*
X64957142Y-135564285D01*
X65128571Y-136192857D02*
X64557142Y-136192857D01*
X64557142Y-134992857D01*
X65128571Y-134992857D01*
X66042857Y-135564285D02*
X65642857Y-135564285D01*
X65642857Y-136192857D02*
X65642857Y-134992857D01*
X66214285Y-134992857D01*
X66500000Y-134992857D02*
X67185714Y-134992857D01*
X66842857Y-136192857D02*
X66842857Y-134992857D01*
D13*
X96709523Y-70652380D02*
X96138095Y-70652380D01*
X96423809Y-70652380D02*
X96423809Y-69652380D01*
X96328571Y-69795238D01*
X96233333Y-69890476D01*
X96138095Y-69938095D01*
X97042857Y-69652380D02*
X97709523Y-69652380D01*
X97280952Y-70652380D01*
X37938095Y-55352380D02*
X37938095Y-54352380D01*
X38319047Y-54352380D01*
X38414285Y-54400000D01*
X38461904Y-54447619D01*
X38509523Y-54542857D01*
X38509523Y-54685714D01*
X38461904Y-54780952D01*
X38414285Y-54828571D01*
X38319047Y-54876190D01*
X37938095Y-54876190D01*
X38938095Y-55352380D02*
X38938095Y-54352380D01*
X39366666Y-55352380D02*
X39366666Y-54828571D01*
X39319047Y-54733333D01*
X39223809Y-54685714D01*
X39080952Y-54685714D01*
X38985714Y-54733333D01*
X38938095Y-54780952D01*
X39985714Y-55352380D02*
X39890476Y-55304761D01*
X39842857Y-55257142D01*
X39795238Y-55161904D01*
X39795238Y-54876190D01*
X39842857Y-54780952D01*
X39890476Y-54733333D01*
X39985714Y-54685714D01*
X40128571Y-54685714D01*
X40223809Y-54733333D01*
X40271428Y-54780952D01*
X40319047Y-54876190D01*
X40319047Y-55161904D01*
X40271428Y-55257142D01*
X40223809Y-55304761D01*
X40128571Y-55352380D01*
X39985714Y-55352380D01*
X40604761Y-54685714D02*
X40985714Y-54685714D01*
X40747619Y-54352380D02*
X40747619Y-55209523D01*
X40795238Y-55304761D01*
X40890476Y-55352380D01*
X40985714Y-55352380D01*
X41461904Y-55352380D02*
X41366666Y-55304761D01*
X41319047Y-55257142D01*
X41271428Y-55161904D01*
X41271428Y-54876190D01*
X41319047Y-54780952D01*
X41366666Y-54733333D01*
X41461904Y-54685714D01*
X41604761Y-54685714D01*
X41700000Y-54733333D01*
X41747619Y-54780952D01*
X41795238Y-54876190D01*
X41795238Y-55161904D01*
X41747619Y-55257142D01*
X41700000Y-55304761D01*
X41604761Y-55352380D01*
X41461904Y-55352380D01*
X42080952Y-54685714D02*
X42461904Y-54685714D01*
X42223809Y-54352380D02*
X42223809Y-55209523D01*
X42271428Y-55304761D01*
X42366666Y-55352380D01*
X42461904Y-55352380D01*
X42795238Y-55352380D02*
X42795238Y-54685714D01*
X42795238Y-54876190D02*
X42842857Y-54780952D01*
X42890476Y-54733333D01*
X42985714Y-54685714D01*
X43080952Y-54685714D01*
X43842857Y-55352380D02*
X43842857Y-54828571D01*
X43795238Y-54733333D01*
X43700000Y-54685714D01*
X43509523Y-54685714D01*
X43414285Y-54733333D01*
X43842857Y-55304761D02*
X43747619Y-55352380D01*
X43509523Y-55352380D01*
X43414285Y-55304761D01*
X43366666Y-55209523D01*
X43366666Y-55114285D01*
X43414285Y-55019047D01*
X43509523Y-54971428D01*
X43747619Y-54971428D01*
X43842857Y-54923809D01*
X44319047Y-54685714D02*
X44319047Y-55352380D01*
X44319047Y-54780952D02*
X44366666Y-54733333D01*
X44461904Y-54685714D01*
X44604761Y-54685714D01*
X44700000Y-54733333D01*
X44747619Y-54828571D01*
X44747619Y-55352380D01*
X45176190Y-55304761D02*
X45271428Y-55352380D01*
X45461904Y-55352380D01*
X45557142Y-55304761D01*
X45604761Y-55209523D01*
X45604761Y-55161904D01*
X45557142Y-55066666D01*
X45461904Y-55019047D01*
X45319047Y-55019047D01*
X45223809Y-54971428D01*
X45176190Y-54876190D01*
X45176190Y-54828571D01*
X45223809Y-54733333D01*
X45319047Y-54685714D01*
X45461904Y-54685714D01*
X45557142Y-54733333D01*
X46033333Y-55352380D02*
X46033333Y-54685714D01*
X46033333Y-54352380D02*
X45985714Y-54400000D01*
X46033333Y-54447619D01*
X46080952Y-54400000D01*
X46033333Y-54352380D01*
X46033333Y-54447619D01*
X46461904Y-55304761D02*
X46557142Y-55352380D01*
X46747619Y-55352380D01*
X46842857Y-55304761D01*
X46890476Y-55209523D01*
X46890476Y-55161904D01*
X46842857Y-55066666D01*
X46747619Y-55019047D01*
X46604761Y-55019047D01*
X46509523Y-54971428D01*
X46461904Y-54876190D01*
X46461904Y-54828571D01*
X46509523Y-54733333D01*
X46604761Y-54685714D01*
X46747619Y-54685714D01*
X46842857Y-54733333D01*
X47176190Y-54685714D02*
X47557142Y-54685714D01*
X47319047Y-54352380D02*
X47319047Y-55209523D01*
X47366666Y-55304761D01*
X47461904Y-55352380D01*
X47557142Y-55352380D01*
X48033333Y-55352380D02*
X47938095Y-55304761D01*
X47890476Y-55257142D01*
X47842857Y-55161904D01*
X47842857Y-54876190D01*
X47890476Y-54780952D01*
X47938095Y-54733333D01*
X48033333Y-54685714D01*
X48176190Y-54685714D01*
X48271428Y-54733333D01*
X48319047Y-54780952D01*
X48366666Y-54876190D01*
X48366666Y-55161904D01*
X48319047Y-55257142D01*
X48271428Y-55304761D01*
X48176190Y-55352380D01*
X48033333Y-55352380D01*
X48795238Y-55352380D02*
X48795238Y-54685714D01*
X48795238Y-54876190D02*
X48842857Y-54780952D01*
X48890476Y-54733333D01*
X48985714Y-54685714D01*
X49080952Y-54685714D01*
X50461904Y-55733333D02*
X50414285Y-55685714D01*
X50319047Y-55542857D01*
X50271428Y-55447619D01*
X50223809Y-55304761D01*
X50176190Y-55066666D01*
X50176190Y-54876190D01*
X50223809Y-54638095D01*
X50271428Y-54495238D01*
X50319047Y-54400000D01*
X50414285Y-54257142D01*
X50461904Y-54209523D01*
X50842857Y-55352380D02*
X50842857Y-54352380D01*
X51509523Y-54352380D02*
X51700000Y-54352380D01*
X51795238Y-54400000D01*
X51890476Y-54495238D01*
X51938095Y-54685714D01*
X51938095Y-55019047D01*
X51890476Y-55209523D01*
X51795238Y-55304761D01*
X51700000Y-55352380D01*
X51509523Y-55352380D01*
X51414285Y-55304761D01*
X51319047Y-55209523D01*
X51271428Y-55019047D01*
X51271428Y-54685714D01*
X51319047Y-54495238D01*
X51414285Y-54400000D01*
X51509523Y-54352380D01*
X52557142Y-54352380D02*
X52652380Y-54352380D01*
X52747619Y-54400000D01*
X52795238Y-54447619D01*
X52842857Y-54542857D01*
X52890476Y-54733333D01*
X52890476Y-54971428D01*
X52842857Y-55161904D01*
X52795238Y-55257142D01*
X52747619Y-55304761D01*
X52652380Y-55352380D01*
X52557142Y-55352380D01*
X52461904Y-55304761D01*
X52414285Y-55257142D01*
X52366666Y-55161904D01*
X52319047Y-54971428D01*
X52319047Y-54733333D01*
X52366666Y-54542857D01*
X52414285Y-54447619D01*
X52461904Y-54400000D01*
X52557142Y-54352380D01*
X53271428Y-54447619D02*
X53319047Y-54400000D01*
X53414285Y-54352380D01*
X53652380Y-54352380D01*
X53747619Y-54400000D01*
X53795238Y-54447619D01*
X53842857Y-54542857D01*
X53842857Y-54638095D01*
X53795238Y-54780952D01*
X53223809Y-55352380D01*
X53842857Y-55352380D01*
X54176190Y-55733333D02*
X54223809Y-55685714D01*
X54319047Y-55542857D01*
X54366666Y-55447619D01*
X54414285Y-55304761D01*
X54461904Y-55066666D01*
X54461904Y-54876190D01*
X54414285Y-54638095D01*
X54366666Y-54495238D01*
X54319047Y-54400000D01*
X54223809Y-54257142D01*
X54176190Y-54209523D01*
X50490476Y-83652380D02*
X51109523Y-83652380D01*
X50776190Y-84033333D01*
X50919047Y-84033333D01*
X51014285Y-84080952D01*
X51061904Y-84128571D01*
X51109523Y-84223809D01*
X51109523Y-84461904D01*
X51061904Y-84557142D01*
X51014285Y-84604761D01*
X50919047Y-84652380D01*
X50633333Y-84652380D01*
X50538095Y-84604761D01*
X50490476Y-84557142D01*
X52061904Y-84652380D02*
X51490476Y-84652380D01*
X51776190Y-84652380D02*
X51776190Y-83652380D01*
X51680952Y-83795238D01*
X51585714Y-83890476D01*
X51490476Y-83938095D01*
D12*
X83957142Y-136192857D02*
X83385714Y-136192857D01*
X83385714Y-134992857D01*
X84357142Y-135564285D02*
X84757142Y-135564285D01*
X84928571Y-136192857D02*
X84357142Y-136192857D01*
X84357142Y-134992857D01*
X84928571Y-134992857D01*
X85842857Y-135564285D02*
X85442857Y-135564285D01*
X85442857Y-136192857D02*
X85442857Y-134992857D01*
X86014285Y-134992857D01*
X86300000Y-134992857D02*
X86985714Y-134992857D01*
X86642857Y-136192857D02*
X86642857Y-134992857D01*
D11*
X97371428Y-49594761D02*
X96419047Y-49594761D01*
X96419047Y-47594761D01*
X98323809Y-49594761D02*
X98133333Y-49499523D01*
X98038095Y-49404285D01*
X97942857Y-49213809D01*
X97942857Y-48642380D01*
X98038095Y-48451904D01*
X98133333Y-48356666D01*
X98323809Y-48261428D01*
X98609523Y-48261428D01*
X98800000Y-48356666D01*
X98895238Y-48451904D01*
X98990476Y-48642380D01*
X98990476Y-49213809D01*
X98895238Y-49404285D01*
X98800000Y-49499523D01*
X98609523Y-49594761D01*
X98323809Y-49594761D01*
X100704761Y-48261428D02*
X100704761Y-49880476D01*
X100609523Y-50070952D01*
X100514285Y-50166190D01*
X100323809Y-50261428D01*
X100038095Y-50261428D01*
X99847619Y-50166190D01*
X100704761Y-49499523D02*
X100514285Y-49594761D01*
X100133333Y-49594761D01*
X99942857Y-49499523D01*
X99847619Y-49404285D01*
X99752380Y-49213809D01*
X99752380Y-48642380D01*
X99847619Y-48451904D01*
X99942857Y-48356666D01*
X100133333Y-48261428D01*
X100514285Y-48261428D01*
X100704761Y-48356666D01*
X101657142Y-49594761D02*
X101657142Y-48261428D01*
X101657142Y-47594761D02*
X101561904Y-47690000D01*
X101657142Y-47785238D01*
X101752380Y-47690000D01*
X101657142Y-47594761D01*
X101657142Y-47785238D01*
X103466666Y-49499523D02*
X103276190Y-49594761D01*
X102895238Y-49594761D01*
X102704761Y-49499523D01*
X102609523Y-49404285D01*
X102514285Y-49213809D01*
X102514285Y-48642380D01*
X102609523Y-48451904D01*
X102704761Y-48356666D01*
X102895238Y-48261428D01*
X103276190Y-48261428D01*
X103466666Y-48356666D01*
X105657142Y-48261428D02*
X106133333Y-49594761D01*
X106609523Y-48261428D01*
X107276190Y-47785238D02*
X107371428Y-47690000D01*
X107561904Y-47594761D01*
X108038095Y-47594761D01*
X108228571Y-47690000D01*
X108323809Y-47785238D01*
X108419047Y-47975714D01*
X108419047Y-48166190D01*
X108323809Y-48451904D01*
X107180952Y-49594761D01*
X108419047Y-49594761D01*
X109276190Y-49404285D02*
X109371428Y-49499523D01*
X109276190Y-49594761D01*
X109180952Y-49499523D01*
X109276190Y-49404285D01*
X109276190Y-49594761D01*
X110609523Y-47594761D02*
X110800000Y-47594761D01*
X110990476Y-47690000D01*
X111085714Y-47785238D01*
X111180952Y-47975714D01*
X111276190Y-48356666D01*
X111276190Y-48832857D01*
X111180952Y-49213809D01*
X111085714Y-49404285D01*
X110990476Y-49499523D01*
X110800000Y-49594761D01*
X110609523Y-49594761D01*
X110419047Y-49499523D01*
X110323809Y-49404285D01*
X110228571Y-49213809D01*
X110133333Y-48832857D01*
X110133333Y-48356666D01*
X110228571Y-47975714D01*
X110323809Y-47785238D01*
X110419047Y-47690000D01*
X110609523Y-47594761D01*
X94228571Y-52814761D02*
X94228571Y-50814761D01*
X94228571Y-51576666D02*
X94419047Y-51481428D01*
X94800000Y-51481428D01*
X94990476Y-51576666D01*
X95085714Y-51671904D01*
X95180952Y-51862380D01*
X95180952Y-52433809D01*
X95085714Y-52624285D01*
X94990476Y-52719523D01*
X94800000Y-52814761D01*
X94419047Y-52814761D01*
X94228571Y-52719523D01*
X95847619Y-51481428D02*
X96323809Y-52814761D01*
X96800000Y-51481428D02*
X96323809Y-52814761D01*
X96133333Y-53290952D01*
X96038095Y-53386190D01*
X95847619Y-53481428D01*
X100228571Y-52814761D02*
X99561904Y-51862380D01*
X99085714Y-52814761D02*
X99085714Y-50814761D01*
X99847619Y-50814761D01*
X100038095Y-50910000D01*
X100133333Y-51005238D01*
X100228571Y-51195714D01*
X100228571Y-51481428D01*
X100133333Y-51671904D01*
X100038095Y-51767142D01*
X99847619Y-51862380D01*
X99085714Y-51862380D01*
X101371428Y-52814761D02*
X101180952Y-52719523D01*
X101085714Y-52624285D01*
X100990476Y-52433809D01*
X100990476Y-51862380D01*
X101085714Y-51671904D01*
X101180952Y-51576666D01*
X101371428Y-51481428D01*
X101657142Y-51481428D01*
X101847619Y-51576666D01*
X101942857Y-51671904D01*
X102038095Y-51862380D01*
X102038095Y-52433809D01*
X101942857Y-52624285D01*
X101847619Y-52719523D01*
X101657142Y-52814761D01*
X101371428Y-52814761D01*
X102895238Y-52814761D02*
X102895238Y-50814761D01*
X102895238Y-51576666D02*
X103085714Y-51481428D01*
X103466666Y-51481428D01*
X103657142Y-51576666D01*
X103752380Y-51671904D01*
X103847619Y-51862380D01*
X103847619Y-52433809D01*
X103752380Y-52624285D01*
X103657142Y-52719523D01*
X103466666Y-52814761D01*
X103085714Y-52814761D01*
X102895238Y-52719523D01*
X104990476Y-52814761D02*
X104800000Y-52719523D01*
X104704761Y-52624285D01*
X104609523Y-52433809D01*
X104609523Y-51862380D01*
X104704761Y-51671904D01*
X104800000Y-51576666D01*
X104990476Y-51481428D01*
X105276190Y-51481428D01*
X105466666Y-51576666D01*
X105561904Y-51671904D01*
X105657142Y-51862380D01*
X105657142Y-52433809D01*
X105561904Y-52624285D01*
X105466666Y-52719523D01*
X105276190Y-52814761D01*
X104990476Y-52814761D01*
X106228571Y-51481428D02*
X106990476Y-51481428D01*
X106514285Y-50814761D02*
X106514285Y-52529047D01*
X106609523Y-52719523D01*
X106800000Y-52814761D01*
X106990476Y-52814761D01*
X108514285Y-52814761D02*
X108514285Y-51767142D01*
X108419047Y-51576666D01*
X108228571Y-51481428D01*
X107847619Y-51481428D01*
X107657142Y-51576666D01*
X108514285Y-52719523D02*
X108323809Y-52814761D01*
X107847619Y-52814761D01*
X107657142Y-52719523D01*
X107561904Y-52529047D01*
X107561904Y-52338571D01*
X107657142Y-52148095D01*
X107847619Y-52052857D01*
X108323809Y-52052857D01*
X108514285Y-51957619D01*
X108228571Y-50719523D02*
X107942857Y-51005238D01*
X109466666Y-52814761D02*
X109466666Y-51481428D01*
X109466666Y-51862380D02*
X109561904Y-51671904D01*
X109657142Y-51576666D01*
X109847619Y-51481428D01*
X110038095Y-51481428D01*
X110704761Y-51481428D02*
X110704761Y-52814761D01*
X110704761Y-51671904D02*
X110800000Y-51576666D01*
X110990476Y-51481428D01*
X111276190Y-51481428D01*
X111466666Y-51576666D01*
X111561904Y-51767142D01*
X111561904Y-52814761D01*
X113371428Y-52814761D02*
X113371428Y-51767142D01*
X113276190Y-51576666D01*
X113085714Y-51481428D01*
X112704761Y-51481428D01*
X112514285Y-51576666D01*
X113371428Y-52719523D02*
X113180952Y-52814761D01*
X112704761Y-52814761D01*
X112514285Y-52719523D01*
X112419047Y-52529047D01*
X112419047Y-52338571D01*
X112514285Y-52148095D01*
X112704761Y-52052857D01*
X113180952Y-52052857D01*
X113371428Y-51957619D01*
D13*
X89114285Y-104652380D02*
X88923809Y-104652380D01*
X88828571Y-104700000D01*
X88780952Y-104747619D01*
X88685714Y-104890476D01*
X88638095Y-105080952D01*
X88638095Y-105461904D01*
X88685714Y-105557142D01*
X88733333Y-105604761D01*
X88828571Y-105652380D01*
X89019047Y-105652380D01*
X89114285Y-105604761D01*
X89161904Y-105557142D01*
X89209523Y-105461904D01*
X89209523Y-105223809D01*
X89161904Y-105128571D01*
X89114285Y-105080952D01*
X89019047Y-105033333D01*
X88828571Y-105033333D01*
X88733333Y-105080952D01*
X88685714Y-105128571D01*
X88638095Y-105223809D01*
X90066666Y-104652380D02*
X89876190Y-104652380D01*
X89780952Y-104700000D01*
X89733333Y-104747619D01*
X89638095Y-104890476D01*
X89590476Y-105080952D01*
X89590476Y-105461904D01*
X89638095Y-105557142D01*
X89685714Y-105604761D01*
X89780952Y-105652380D01*
X89971428Y-105652380D01*
X90066666Y-105604761D01*
X90114285Y-105557142D01*
X90161904Y-105461904D01*
X90161904Y-105223809D01*
X90114285Y-105128571D01*
X90066666Y-105080952D01*
X89971428Y-105033333D01*
X89780952Y-105033333D01*
X89685714Y-105080952D01*
X89638095Y-105128571D01*
X89590476Y-105223809D01*
X42838095Y-76747619D02*
X42885714Y-76700000D01*
X42980952Y-76652380D01*
X43219047Y-76652380D01*
X43314285Y-76700000D01*
X43361904Y-76747619D01*
X43409523Y-76842857D01*
X43409523Y-76938095D01*
X43361904Y-77080952D01*
X42790476Y-77652380D01*
X43409523Y-77652380D01*
X44028571Y-76652380D02*
X44123809Y-76652380D01*
X44219047Y-76700000D01*
X44266666Y-76747619D01*
X44314285Y-76842857D01*
X44361904Y-77033333D01*
X44361904Y-77271428D01*
X44314285Y-77461904D01*
X44266666Y-77557142D01*
X44219047Y-77604761D01*
X44123809Y-77652380D01*
X44028571Y-77652380D01*
X43933333Y-77604761D01*
X43885714Y-77557142D01*
X43838095Y-77461904D01*
X43790476Y-77271428D01*
X43790476Y-77033333D01*
X43838095Y-76842857D01*
X43885714Y-76747619D01*
X43933333Y-76700000D01*
X44028571Y-76652380D01*
X58761904Y-97752380D02*
X58285714Y-97752380D01*
X58238095Y-98228571D01*
X58285714Y-98180952D01*
X58380952Y-98133333D01*
X58619047Y-98133333D01*
X58714285Y-98180952D01*
X58761904Y-98228571D01*
X58809523Y-98323809D01*
X58809523Y-98561904D01*
X58761904Y-98657142D01*
X58714285Y-98704761D01*
X58619047Y-98752380D01*
X58380952Y-98752380D01*
X58285714Y-98704761D01*
X58238095Y-98657142D01*
X59190476Y-97847619D02*
X59238095Y-97800000D01*
X59333333Y-97752380D01*
X59571428Y-97752380D01*
X59666666Y-97800000D01*
X59714285Y-97847619D01*
X59761904Y-97942857D01*
X59761904Y-98038095D01*
X59714285Y-98180952D01*
X59142857Y-98752380D01*
X59761904Y-98752380D01*
X111614285Y-90985714D02*
X111614285Y-91652380D01*
X111376190Y-90604761D02*
X111138095Y-91319047D01*
X111757142Y-91319047D01*
X112185714Y-91652380D02*
X112376190Y-91652380D01*
X112471428Y-91604761D01*
X112519047Y-91557142D01*
X112614285Y-91414285D01*
X112661904Y-91223809D01*
X112661904Y-90842857D01*
X112614285Y-90747619D01*
X112566666Y-90700000D01*
X112471428Y-90652380D01*
X112280952Y-90652380D01*
X112185714Y-90700000D01*
X112138095Y-90747619D01*
X112090476Y-90842857D01*
X112090476Y-91080952D01*
X112138095Y-91176190D01*
X112185714Y-91223809D01*
X112280952Y-91271428D01*
X112471428Y-91271428D01*
X112566666Y-91223809D01*
X112614285Y-91176190D01*
X112661904Y-91080952D01*
X66109523Y-70652380D02*
X65538095Y-70652380D01*
X65823809Y-70652380D02*
X65823809Y-69652380D01*
X65728571Y-69795238D01*
X65633333Y-69890476D01*
X65538095Y-69938095D01*
X66442857Y-69652380D02*
X67061904Y-69652380D01*
X66728571Y-70033333D01*
X66871428Y-70033333D01*
X66966666Y-70080952D01*
X67014285Y-70128571D01*
X67061904Y-70223809D01*
X67061904Y-70461904D01*
X67014285Y-70557142D01*
X66966666Y-70604761D01*
X66871428Y-70652380D01*
X66585714Y-70652380D01*
X66490476Y-70604761D01*
X66442857Y-70557142D01*
D11*
X80782302Y-46950737D02*
X83068017Y-49236451D01*
X83068017Y-46950737D02*
X80782302Y-49236451D01*
D13*
X88861904Y-97752380D02*
X88385714Y-97752380D01*
X88338095Y-98228571D01*
X88385714Y-98180952D01*
X88480952Y-98133333D01*
X88719047Y-98133333D01*
X88814285Y-98180952D01*
X88861904Y-98228571D01*
X88909523Y-98323809D01*
X88909523Y-98561904D01*
X88861904Y-98657142D01*
X88814285Y-98704761D01*
X88719047Y-98752380D01*
X88480952Y-98752380D01*
X88385714Y-98704761D01*
X88338095Y-98657142D01*
X89766666Y-97752380D02*
X89576190Y-97752380D01*
X89480952Y-97800000D01*
X89433333Y-97847619D01*
X89338095Y-97990476D01*
X89290476Y-98180952D01*
X89290476Y-98561904D01*
X89338095Y-98657142D01*
X89385714Y-98704761D01*
X89480952Y-98752380D01*
X89671428Y-98752380D01*
X89766666Y-98704761D01*
X89814285Y-98657142D01*
X89861904Y-98561904D01*
X89861904Y-98323809D01*
X89814285Y-98228571D01*
X89766666Y-98180952D01*
X89671428Y-98133333D01*
X89480952Y-98133333D01*
X89385714Y-98180952D01*
X89338095Y-98228571D01*
X89290476Y-98323809D01*
X65628571Y-118980952D02*
X65533333Y-118933333D01*
X65485714Y-118885714D01*
X65438095Y-118790476D01*
X65438095Y-118742857D01*
X65485714Y-118647619D01*
X65533333Y-118600000D01*
X65628571Y-118552380D01*
X65819047Y-118552380D01*
X65914285Y-118600000D01*
X65961904Y-118647619D01*
X66009523Y-118742857D01*
X66009523Y-118790476D01*
X65961904Y-118885714D01*
X65914285Y-118933333D01*
X65819047Y-118980952D01*
X65628571Y-118980952D01*
X65533333Y-119028571D01*
X65485714Y-119076190D01*
X65438095Y-119171428D01*
X65438095Y-119361904D01*
X65485714Y-119457142D01*
X65533333Y-119504761D01*
X65628571Y-119552380D01*
X65819047Y-119552380D01*
X65914285Y-119504761D01*
X65961904Y-119457142D01*
X66009523Y-119361904D01*
X66009523Y-119171428D01*
X65961904Y-119076190D01*
X65914285Y-119028571D01*
X65819047Y-118980952D01*
X66342857Y-118552380D02*
X66961904Y-118552380D01*
X66628571Y-118933333D01*
X66771428Y-118933333D01*
X66866666Y-118980952D01*
X66914285Y-119028571D01*
X66961904Y-119123809D01*
X66961904Y-119361904D01*
X66914285Y-119457142D01*
X66866666Y-119504761D01*
X66771428Y-119552380D01*
X66485714Y-119552380D01*
X66390476Y-119504761D01*
X66342857Y-119457142D01*
X73338095Y-76747619D02*
X73385714Y-76700000D01*
X73480952Y-76652380D01*
X73719047Y-76652380D01*
X73814285Y-76700000D01*
X73861904Y-76747619D01*
X73909523Y-76842857D01*
X73909523Y-76938095D01*
X73861904Y-77080952D01*
X73290476Y-77652380D01*
X73909523Y-77652380D01*
X74766666Y-76985714D02*
X74766666Y-77652380D01*
X74528571Y-76604761D02*
X74290476Y-77319047D01*
X74909523Y-77319047D01*
X73533333Y-126652380D02*
X73723809Y-126652380D01*
X73819047Y-126604761D01*
X73866666Y-126557142D01*
X73961904Y-126414285D01*
X74009523Y-126223809D01*
X74009523Y-125842857D01*
X73961904Y-125747619D01*
X73914285Y-125700000D01*
X73819047Y-125652380D01*
X73628571Y-125652380D01*
X73533333Y-125700000D01*
X73485714Y-125747619D01*
X73438095Y-125842857D01*
X73438095Y-126080952D01*
X73485714Y-126176190D01*
X73533333Y-126223809D01*
X73628571Y-126271428D01*
X73819047Y-126271428D01*
X73914285Y-126223809D01*
X73961904Y-126176190D01*
X74009523Y-126080952D01*
X74866666Y-125985714D02*
X74866666Y-126652380D01*
X74628571Y-125604761D02*
X74390476Y-126319047D01*
X75009523Y-126319047D01*
X88538095Y-76747619D02*
X88585714Y-76700000D01*
X88680952Y-76652380D01*
X88919047Y-76652380D01*
X89014285Y-76700000D01*
X89061904Y-76747619D01*
X89109523Y-76842857D01*
X89109523Y-76938095D01*
X89061904Y-77080952D01*
X88490476Y-77652380D01*
X89109523Y-77652380D01*
X89966666Y-76652380D02*
X89776190Y-76652380D01*
X89680952Y-76700000D01*
X89633333Y-76747619D01*
X89538095Y-76890476D01*
X89490476Y-77080952D01*
X89490476Y-77461904D01*
X89538095Y-77557142D01*
X89585714Y-77604761D01*
X89680952Y-77652380D01*
X89871428Y-77652380D01*
X89966666Y-77604761D01*
X90014285Y-77557142D01*
X90061904Y-77461904D01*
X90061904Y-77223809D01*
X90014285Y-77128571D01*
X89966666Y-77080952D01*
X89871428Y-77033333D01*
X89680952Y-77033333D01*
X89585714Y-77080952D01*
X89538095Y-77128571D01*
X89490476Y-77223809D01*
X73190476Y-83752380D02*
X73809523Y-83752380D01*
X73476190Y-84133333D01*
X73619047Y-84133333D01*
X73714285Y-84180952D01*
X73761904Y-84228571D01*
X73809523Y-84323809D01*
X73809523Y-84561904D01*
X73761904Y-84657142D01*
X73714285Y-84704761D01*
X73619047Y-84752380D01*
X73333333Y-84752380D01*
X73238095Y-84704761D01*
X73190476Y-84657142D01*
X74666666Y-84085714D02*
X74666666Y-84752380D01*
X74428571Y-83704761D02*
X74190476Y-84419047D01*
X74809523Y-84419047D01*
X88290476Y-111552380D02*
X88957142Y-111552380D01*
X88528571Y-112552380D01*
X89766666Y-111552380D02*
X89576190Y-111552380D01*
X89480952Y-111600000D01*
X89433333Y-111647619D01*
X89338095Y-111790476D01*
X89290476Y-111980952D01*
X89290476Y-112361904D01*
X89338095Y-112457142D01*
X89385714Y-112504761D01*
X89480952Y-112552380D01*
X89671428Y-112552380D01*
X89766666Y-112504761D01*
X89814285Y-112457142D01*
X89861904Y-112361904D01*
X89861904Y-112123809D01*
X89814285Y-112028571D01*
X89766666Y-111980952D01*
X89671428Y-111933333D01*
X89480952Y-111933333D01*
X89385714Y-111980952D01*
X89338095Y-112028571D01*
X89290476Y-112123809D01*
X104309523Y-70652380D02*
X103738095Y-70652380D01*
X104023809Y-70652380D02*
X104023809Y-69652380D01*
X103928571Y-69795238D01*
X103833333Y-69890476D01*
X103738095Y-69938095D01*
X104880952Y-70080952D02*
X104785714Y-70033333D01*
X104738095Y-69985714D01*
X104690476Y-69890476D01*
X104690476Y-69842857D01*
X104738095Y-69747619D01*
X104785714Y-69700000D01*
X104880952Y-69652380D01*
X105071428Y-69652380D01*
X105166666Y-69700000D01*
X105214285Y-69747619D01*
X105261904Y-69842857D01*
X105261904Y-69890476D01*
X105214285Y-69985714D01*
X105166666Y-70033333D01*
X105071428Y-70080952D01*
X104880952Y-70080952D01*
X104785714Y-70128571D01*
X104738095Y-70176190D01*
X104690476Y-70271428D01*
X104690476Y-70461904D01*
X104738095Y-70557142D01*
X104785714Y-70604761D01*
X104880952Y-70652380D01*
X105071428Y-70652380D01*
X105166666Y-70604761D01*
X105214285Y-70557142D01*
X105261904Y-70461904D01*
X105261904Y-70271428D01*
X105214285Y-70176190D01*
X105166666Y-70128571D01*
X105071428Y-70080952D01*
X50728571Y-119080952D02*
X50633333Y-119033333D01*
X50585714Y-118985714D01*
X50538095Y-118890476D01*
X50538095Y-118842857D01*
X50585714Y-118747619D01*
X50633333Y-118700000D01*
X50728571Y-118652380D01*
X50919047Y-118652380D01*
X51014285Y-118700000D01*
X51061904Y-118747619D01*
X51109523Y-118842857D01*
X51109523Y-118890476D01*
X51061904Y-118985714D01*
X51014285Y-119033333D01*
X50919047Y-119080952D01*
X50728571Y-119080952D01*
X50633333Y-119128571D01*
X50585714Y-119176190D01*
X50538095Y-119271428D01*
X50538095Y-119461904D01*
X50585714Y-119557142D01*
X50633333Y-119604761D01*
X50728571Y-119652380D01*
X50919047Y-119652380D01*
X51014285Y-119604761D01*
X51061904Y-119557142D01*
X51109523Y-119461904D01*
X51109523Y-119271428D01*
X51061904Y-119176190D01*
X51014285Y-119128571D01*
X50919047Y-119080952D01*
X52061904Y-119652380D02*
X51490476Y-119652380D01*
X51776190Y-119652380D02*
X51776190Y-118652380D01*
X51680952Y-118795238D01*
X51585714Y-118890476D01*
X51490476Y-118938095D01*
X81114285Y-91085714D02*
X81114285Y-91752380D01*
X80876190Y-90704761D02*
X80638095Y-91419047D01*
X81257142Y-91419047D01*
X82114285Y-90752380D02*
X81638095Y-90752380D01*
X81590476Y-91228571D01*
X81638095Y-91180952D01*
X81733333Y-91133333D01*
X81971428Y-91133333D01*
X82066666Y-91180952D01*
X82114285Y-91228571D01*
X82161904Y-91323809D01*
X82161904Y-91561904D01*
X82114285Y-91657142D01*
X82066666Y-91704761D01*
X81971428Y-91752380D01*
X81733333Y-91752380D01*
X81638095Y-91704761D01*
X81590476Y-91657142D01*
D12*
X93014285Y-136192857D02*
X92614285Y-135621428D01*
X92328571Y-136192857D02*
X92328571Y-134992857D01*
X92785714Y-134992857D01*
X92900000Y-135050000D01*
X92957142Y-135107142D01*
X93014285Y-135221428D01*
X93014285Y-135392857D01*
X92957142Y-135507142D01*
X92900000Y-135564285D01*
X92785714Y-135621428D01*
X92328571Y-135621428D01*
X94157142Y-135050000D02*
X94042857Y-134992857D01*
X93871428Y-134992857D01*
X93700000Y-135050000D01*
X93585714Y-135164285D01*
X93528571Y-135278571D01*
X93471428Y-135507142D01*
X93471428Y-135678571D01*
X93528571Y-135907142D01*
X93585714Y-136021428D01*
X93700000Y-136135714D01*
X93871428Y-136192857D01*
X93985714Y-136192857D01*
X94157142Y-136135714D01*
X94214285Y-136078571D01*
X94214285Y-135678571D01*
X93985714Y-135678571D01*
X94557142Y-134992857D02*
X95242857Y-134992857D01*
X94900000Y-136192857D02*
X94900000Y-134992857D01*
D13*
X65690476Y-111652380D02*
X66357142Y-111652380D01*
X65928571Y-112652380D01*
X66642857Y-111652380D02*
X67261904Y-111652380D01*
X66928571Y-112033333D01*
X67071428Y-112033333D01*
X67166666Y-112080952D01*
X67214285Y-112128571D01*
X67261904Y-112223809D01*
X67261904Y-112461904D01*
X67214285Y-112557142D01*
X67166666Y-112604761D01*
X67071428Y-112652380D01*
X66785714Y-112652380D01*
X66690476Y-112604761D01*
X66642857Y-112557142D01*
D12*
X87871428Y-139492857D02*
X87871428Y-138292857D01*
X88157142Y-138292857D01*
X88328571Y-138350000D01*
X88442857Y-138464285D01*
X88500000Y-138578571D01*
X88557142Y-138807142D01*
X88557142Y-138978571D01*
X88500000Y-139207142D01*
X88442857Y-139321428D01*
X88328571Y-139435714D01*
X88157142Y-139492857D01*
X87871428Y-139492857D01*
X88957142Y-138292857D02*
X89242857Y-139492857D01*
X89471428Y-138635714D01*
X89700000Y-139492857D01*
X89985714Y-138292857D01*
X90442857Y-139492857D02*
X90442857Y-138292857D01*
X91128571Y-139492857D01*
X91128571Y-138292857D01*
X88557142Y-131692857D02*
X88557142Y-132664285D01*
X88614285Y-132778571D01*
X88671428Y-132835714D01*
X88785714Y-132892857D01*
X89014285Y-132892857D01*
X89128571Y-132835714D01*
X89185714Y-132778571D01*
X89242857Y-132664285D01*
X89242857Y-131692857D01*
X89814285Y-132892857D02*
X89814285Y-131692857D01*
X90271428Y-131692857D01*
X90385714Y-131750000D01*
X90442857Y-131807142D01*
X90500000Y-131921428D01*
X90500000Y-132092857D01*
X90442857Y-132207142D01*
X90385714Y-132264285D01*
X90271428Y-132321428D01*
X89814285Y-132321428D01*
D13*
X111233333Y-126652380D02*
X111423809Y-126652380D01*
X111519047Y-126604761D01*
X111566666Y-126557142D01*
X111661904Y-126414285D01*
X111709523Y-126223809D01*
X111709523Y-125842857D01*
X111661904Y-125747619D01*
X111614285Y-125700000D01*
X111519047Y-125652380D01*
X111328571Y-125652380D01*
X111233333Y-125700000D01*
X111185714Y-125747619D01*
X111138095Y-125842857D01*
X111138095Y-126080952D01*
X111185714Y-126176190D01*
X111233333Y-126223809D01*
X111328571Y-126271428D01*
X111519047Y-126271428D01*
X111614285Y-126223809D01*
X111661904Y-126176190D01*
X111709523Y-126080952D01*
X112185714Y-126652380D02*
X112376190Y-126652380D01*
X112471428Y-126604761D01*
X112519047Y-126557142D01*
X112614285Y-126414285D01*
X112661904Y-126223809D01*
X112661904Y-125842857D01*
X112614285Y-125747619D01*
X112566666Y-125700000D01*
X112471428Y-125652380D01*
X112280952Y-125652380D01*
X112185714Y-125700000D01*
X112138095Y-125747619D01*
X112090476Y-125842857D01*
X112090476Y-126080952D01*
X112138095Y-126176190D01*
X112185714Y-126223809D01*
X112280952Y-126271428D01*
X112471428Y-126271428D01*
X112566666Y-126223809D01*
X112614285Y-126176190D01*
X112661904Y-126080952D01*
X96290476Y-111652380D02*
X96957142Y-111652380D01*
X96528571Y-112652380D01*
X97242857Y-111652380D02*
X97909523Y-111652380D01*
X97480952Y-112652380D01*
X42890476Y-83752380D02*
X43509523Y-83752380D01*
X43176190Y-84133333D01*
X43319047Y-84133333D01*
X43414285Y-84180952D01*
X43461904Y-84228571D01*
X43509523Y-84323809D01*
X43509523Y-84561904D01*
X43461904Y-84657142D01*
X43414285Y-84704761D01*
X43319047Y-84752380D01*
X43033333Y-84752380D01*
X42938095Y-84704761D01*
X42890476Y-84657142D01*
X44128571Y-83752380D02*
X44223809Y-83752380D01*
X44319047Y-83800000D01*
X44366666Y-83847619D01*
X44414285Y-83942857D01*
X44461904Y-84133333D01*
X44461904Y-84371428D01*
X44414285Y-84561904D01*
X44366666Y-84657142D01*
X44319047Y-84704761D01*
X44223809Y-84752380D01*
X44128571Y-84752380D01*
X44033333Y-84704761D01*
X43985714Y-84657142D01*
X43938095Y-84561904D01*
X43890476Y-84371428D01*
X43890476Y-84133333D01*
X43938095Y-83942857D01*
X43985714Y-83847619D01*
X44033333Y-83800000D01*
X44128571Y-83752380D01*
X111861904Y-97752380D02*
X111385714Y-97752380D01*
X111338095Y-98228571D01*
X111385714Y-98180952D01*
X111480952Y-98133333D01*
X111719047Y-98133333D01*
X111814285Y-98180952D01*
X111861904Y-98228571D01*
X111909523Y-98323809D01*
X111909523Y-98561904D01*
X111861904Y-98657142D01*
X111814285Y-98704761D01*
X111719047Y-98752380D01*
X111480952Y-98752380D01*
X111385714Y-98704761D01*
X111338095Y-98657142D01*
X112385714Y-98752380D02*
X112576190Y-98752380D01*
X112671428Y-98704761D01*
X112719047Y-98657142D01*
X112814285Y-98514285D01*
X112861904Y-98323809D01*
X112861904Y-97942857D01*
X112814285Y-97847619D01*
X112766666Y-97800000D01*
X112671428Y-97752380D01*
X112480952Y-97752380D01*
X112385714Y-97800000D01*
X112338095Y-97847619D01*
X112290476Y-97942857D01*
X112290476Y-98180952D01*
X112338095Y-98276190D01*
X112385714Y-98323809D01*
X112480952Y-98371428D01*
X112671428Y-98371428D01*
X112766666Y-98323809D01*
X112814285Y-98276190D01*
X112861904Y-98180952D01*
X89133333Y-126552380D02*
X89323809Y-126552380D01*
X89419047Y-126504761D01*
X89466666Y-126457142D01*
X89561904Y-126314285D01*
X89609523Y-126123809D01*
X89609523Y-125742857D01*
X89561904Y-125647619D01*
X89514285Y-125600000D01*
X89419047Y-125552380D01*
X89228571Y-125552380D01*
X89133333Y-125600000D01*
X89085714Y-125647619D01*
X89038095Y-125742857D01*
X89038095Y-125980952D01*
X89085714Y-126076190D01*
X89133333Y-126123809D01*
X89228571Y-126171428D01*
X89419047Y-126171428D01*
X89514285Y-126123809D01*
X89561904Y-126076190D01*
X89609523Y-125980952D01*
X90466666Y-125552380D02*
X90276190Y-125552380D01*
X90180952Y-125600000D01*
X90133333Y-125647619D01*
X90038095Y-125790476D01*
X89990476Y-125980952D01*
X89990476Y-126361904D01*
X90038095Y-126457142D01*
X90085714Y-126504761D01*
X90180952Y-126552380D01*
X90371428Y-126552380D01*
X90466666Y-126504761D01*
X90514285Y-126457142D01*
X90561904Y-126361904D01*
X90561904Y-126123809D01*
X90514285Y-126028571D01*
X90466666Y-125980952D01*
X90371428Y-125933333D01*
X90180952Y-125933333D01*
X90085714Y-125980952D01*
X90038095Y-126028571D01*
X89990476Y-126123809D01*
D12*
X92600000Y-137692857D02*
X92600000Y-136492857D01*
X93400000Y-136492857D02*
X93628571Y-136492857D01*
X93742857Y-136550000D01*
X93857142Y-136664285D01*
X93914285Y-136892857D01*
X93914285Y-137292857D01*
X93857142Y-137521428D01*
X93742857Y-137635714D01*
X93628571Y-137692857D01*
X93400000Y-137692857D01*
X93285714Y-137635714D01*
X93171428Y-137521428D01*
X93114285Y-137292857D01*
X93114285Y-136892857D01*
X93171428Y-136664285D01*
X93285714Y-136550000D01*
X93400000Y-136492857D01*
X94942857Y-136892857D02*
X94942857Y-137692857D01*
X94657142Y-136435714D02*
X94371428Y-137292857D01*
X95114285Y-137292857D01*
D13*
X73528571Y-118980952D02*
X73433333Y-118933333D01*
X73385714Y-118885714D01*
X73338095Y-118790476D01*
X73338095Y-118742857D01*
X73385714Y-118647619D01*
X73433333Y-118600000D01*
X73528571Y-118552380D01*
X73719047Y-118552380D01*
X73814285Y-118600000D01*
X73861904Y-118647619D01*
X73909523Y-118742857D01*
X73909523Y-118790476D01*
X73861904Y-118885714D01*
X73814285Y-118933333D01*
X73719047Y-118980952D01*
X73528571Y-118980952D01*
X73433333Y-119028571D01*
X73385714Y-119076190D01*
X73338095Y-119171428D01*
X73338095Y-119361904D01*
X73385714Y-119457142D01*
X73433333Y-119504761D01*
X73528571Y-119552380D01*
X73719047Y-119552380D01*
X73814285Y-119504761D01*
X73861904Y-119457142D01*
X73909523Y-119361904D01*
X73909523Y-119171428D01*
X73861904Y-119076190D01*
X73814285Y-119028571D01*
X73719047Y-118980952D01*
X74766666Y-118885714D02*
X74766666Y-119552380D01*
X74528571Y-118504761D02*
X74290476Y-119219047D01*
X74909523Y-119219047D01*
X73714285Y-91085714D02*
X73714285Y-91752380D01*
X73476190Y-90704761D02*
X73238095Y-91419047D01*
X73857142Y-91419047D01*
X74666666Y-91085714D02*
X74666666Y-91752380D01*
X74428571Y-90704761D02*
X74190476Y-91419047D01*
X74809523Y-91419047D01*
D12*
X43414285Y-52500000D02*
X43985714Y-52500000D01*
X43300000Y-52842857D02*
X43700000Y-51642857D01*
X44100000Y-52842857D01*
D13*
X104061904Y-97752380D02*
X103585714Y-97752380D01*
X103538095Y-98228571D01*
X103585714Y-98180952D01*
X103680952Y-98133333D01*
X103919047Y-98133333D01*
X104014285Y-98180952D01*
X104061904Y-98228571D01*
X104109523Y-98323809D01*
X104109523Y-98561904D01*
X104061904Y-98657142D01*
X104014285Y-98704761D01*
X103919047Y-98752380D01*
X103680952Y-98752380D01*
X103585714Y-98704761D01*
X103538095Y-98657142D01*
X104680952Y-98180952D02*
X104585714Y-98133333D01*
X104538095Y-98085714D01*
X104490476Y-97990476D01*
X104490476Y-97942857D01*
X104538095Y-97847619D01*
X104585714Y-97800000D01*
X104680952Y-97752380D01*
X104871428Y-97752380D01*
X104966666Y-97800000D01*
X105014285Y-97847619D01*
X105061904Y-97942857D01*
X105061904Y-97990476D01*
X105014285Y-98085714D01*
X104966666Y-98133333D01*
X104871428Y-98180952D01*
X104680952Y-98180952D01*
X104585714Y-98228571D01*
X104538095Y-98276190D01*
X104490476Y-98371428D01*
X104490476Y-98561904D01*
X104538095Y-98657142D01*
X104585714Y-98704761D01*
X104680952Y-98752380D01*
X104871428Y-98752380D01*
X104966666Y-98704761D01*
X105014285Y-98657142D01*
X105061904Y-98561904D01*
X105061904Y-98371428D01*
X105014285Y-98276190D01*
X104966666Y-98228571D01*
X104871428Y-98180952D01*
X66314285Y-104652380D02*
X66123809Y-104652380D01*
X66028571Y-104700000D01*
X65980952Y-104747619D01*
X65885714Y-104890476D01*
X65838095Y-105080952D01*
X65838095Y-105461904D01*
X65885714Y-105557142D01*
X65933333Y-105604761D01*
X66028571Y-105652380D01*
X66219047Y-105652380D01*
X66314285Y-105604761D01*
X66361904Y-105557142D01*
X66409523Y-105461904D01*
X66409523Y-105223809D01*
X66361904Y-105128571D01*
X66314285Y-105080952D01*
X66219047Y-105033333D01*
X66028571Y-105033333D01*
X65933333Y-105080952D01*
X65885714Y-105128571D01*
X65838095Y-105223809D01*
X66742857Y-104652380D02*
X67361904Y-104652380D01*
X67028571Y-105033333D01*
X67171428Y-105033333D01*
X67266666Y-105080952D01*
X67314285Y-105128571D01*
X67361904Y-105223809D01*
X67361904Y-105461904D01*
X67314285Y-105557142D01*
X67266666Y-105604761D01*
X67171428Y-105652380D01*
X66885714Y-105652380D01*
X66790476Y-105604761D01*
X66742857Y-105557142D01*
X66033333Y-126552380D02*
X66223809Y-126552380D01*
X66319047Y-126504761D01*
X66366666Y-126457142D01*
X66461904Y-126314285D01*
X66509523Y-126123809D01*
X66509523Y-125742857D01*
X66461904Y-125647619D01*
X66414285Y-125600000D01*
X66319047Y-125552380D01*
X66128571Y-125552380D01*
X66033333Y-125600000D01*
X65985714Y-125647619D01*
X65938095Y-125742857D01*
X65938095Y-125980952D01*
X65985714Y-126076190D01*
X66033333Y-126123809D01*
X66128571Y-126171428D01*
X66319047Y-126171428D01*
X66414285Y-126123809D01*
X66461904Y-126076190D01*
X66509523Y-125980952D01*
X66842857Y-125552380D02*
X67461904Y-125552380D01*
X67128571Y-125933333D01*
X67271428Y-125933333D01*
X67366666Y-125980952D01*
X67414285Y-126028571D01*
X67461904Y-126123809D01*
X67461904Y-126361904D01*
X67414285Y-126457142D01*
X67366666Y-126504761D01*
X67271428Y-126552380D01*
X66985714Y-126552380D01*
X66890476Y-126504761D01*
X66842857Y-126457142D01*
X104076190Y-62552380D02*
X104171428Y-62552380D01*
X104266666Y-62600000D01*
X104314285Y-62647619D01*
X104361904Y-62742857D01*
X104409523Y-62933333D01*
X104409523Y-63171428D01*
X104361904Y-63361904D01*
X104314285Y-63457142D01*
X104266666Y-63504761D01*
X104171428Y-63552380D01*
X104076190Y-63552380D01*
X103980952Y-63504761D01*
X103933333Y-63457142D01*
X103885714Y-63361904D01*
X103838095Y-63171428D01*
X103838095Y-62933333D01*
X103885714Y-62742857D01*
X103933333Y-62647619D01*
X103980952Y-62600000D01*
X104076190Y-62552380D01*
X104980952Y-62980952D02*
X104885714Y-62933333D01*
X104838095Y-62885714D01*
X104790476Y-62790476D01*
X104790476Y-62742857D01*
X104838095Y-62647619D01*
X104885714Y-62600000D01*
X104980952Y-62552380D01*
X105171428Y-62552380D01*
X105266666Y-62600000D01*
X105314285Y-62647619D01*
X105361904Y-62742857D01*
X105361904Y-62790476D01*
X105314285Y-62885714D01*
X105266666Y-62933333D01*
X105171428Y-62980952D01*
X104980952Y-62980952D01*
X104885714Y-63028571D01*
X104838095Y-63076190D01*
X104790476Y-63171428D01*
X104790476Y-63361904D01*
X104838095Y-63457142D01*
X104885714Y-63504761D01*
X104980952Y-63552380D01*
X105171428Y-63552380D01*
X105266666Y-63504761D01*
X105314285Y-63457142D01*
X105361904Y-63361904D01*
X105361904Y-63171428D01*
X105314285Y-63076190D01*
X105266666Y-63028571D01*
X105171428Y-62980952D01*
X111714285Y-104752380D02*
X111523809Y-104752380D01*
X111428571Y-104800000D01*
X111380952Y-104847619D01*
X111285714Y-104990476D01*
X111238095Y-105180952D01*
X111238095Y-105561904D01*
X111285714Y-105657142D01*
X111333333Y-105704761D01*
X111428571Y-105752380D01*
X111619047Y-105752380D01*
X111714285Y-105704761D01*
X111761904Y-105657142D01*
X111809523Y-105561904D01*
X111809523Y-105323809D01*
X111761904Y-105228571D01*
X111714285Y-105180952D01*
X111619047Y-105133333D01*
X111428571Y-105133333D01*
X111333333Y-105180952D01*
X111285714Y-105228571D01*
X111238095Y-105323809D01*
X112285714Y-105752380D02*
X112476190Y-105752380D01*
X112571428Y-105704761D01*
X112619047Y-105657142D01*
X112714285Y-105514285D01*
X112761904Y-105323809D01*
X112761904Y-104942857D01*
X112714285Y-104847619D01*
X112666666Y-104800000D01*
X112571428Y-104752380D01*
X112380952Y-104752380D01*
X112285714Y-104800000D01*
X112238095Y-104847619D01*
X112190476Y-104942857D01*
X112190476Y-105180952D01*
X112238095Y-105276190D01*
X112285714Y-105323809D01*
X112380952Y-105371428D01*
X112571428Y-105371428D01*
X112666666Y-105323809D01*
X112714285Y-105276190D01*
X112761904Y-105180952D01*
D12*
X68071428Y-139492857D02*
X68071428Y-138292857D01*
X68357142Y-138292857D01*
X68528571Y-138350000D01*
X68642857Y-138464285D01*
X68700000Y-138578571D01*
X68757142Y-138807142D01*
X68757142Y-138978571D01*
X68700000Y-139207142D01*
X68642857Y-139321428D01*
X68528571Y-139435714D01*
X68357142Y-139492857D01*
X68071428Y-139492857D01*
X69157142Y-138292857D02*
X69442857Y-139492857D01*
X69671428Y-138635714D01*
X69900000Y-139492857D01*
X70185714Y-138292857D01*
X70642857Y-139492857D02*
X70642857Y-138292857D01*
X71328571Y-139492857D01*
X71328571Y-138292857D01*
X87557142Y-135564285D02*
X87957142Y-135564285D01*
X88128571Y-136192857D02*
X87557142Y-136192857D01*
X87557142Y-134992857D01*
X88128571Y-134992857D01*
X88642857Y-136192857D02*
X88642857Y-134992857D01*
X89328571Y-136192857D01*
X89328571Y-134992857D01*
X89728571Y-134992857D02*
X90414285Y-134992857D01*
X90071428Y-136192857D02*
X90071428Y-134992857D01*
X91500000Y-136192857D02*
X91100000Y-135621428D01*
X90814285Y-136192857D02*
X90814285Y-134992857D01*
X91271428Y-134992857D01*
X91385714Y-135050000D01*
X91442857Y-135107142D01*
X91500000Y-135221428D01*
X91500000Y-135392857D01*
X91442857Y-135507142D01*
X91385714Y-135564285D01*
X91271428Y-135621428D01*
X90814285Y-135621428D01*
D13*
X104214285Y-104652380D02*
X104023809Y-104652380D01*
X103928571Y-104700000D01*
X103880952Y-104747619D01*
X103785714Y-104890476D01*
X103738095Y-105080952D01*
X103738095Y-105461904D01*
X103785714Y-105557142D01*
X103833333Y-105604761D01*
X103928571Y-105652380D01*
X104119047Y-105652380D01*
X104214285Y-105604761D01*
X104261904Y-105557142D01*
X104309523Y-105461904D01*
X104309523Y-105223809D01*
X104261904Y-105128571D01*
X104214285Y-105080952D01*
X104119047Y-105033333D01*
X103928571Y-105033333D01*
X103833333Y-105080952D01*
X103785714Y-105128571D01*
X103738095Y-105223809D01*
X104880952Y-105080952D02*
X104785714Y-105033333D01*
X104738095Y-104985714D01*
X104690476Y-104890476D01*
X104690476Y-104842857D01*
X104738095Y-104747619D01*
X104785714Y-104700000D01*
X104880952Y-104652380D01*
X105071428Y-104652380D01*
X105166666Y-104700000D01*
X105214285Y-104747619D01*
X105261904Y-104842857D01*
X105261904Y-104890476D01*
X105214285Y-104985714D01*
X105166666Y-105033333D01*
X105071428Y-105080952D01*
X104880952Y-105080952D01*
X104785714Y-105128571D01*
X104738095Y-105176190D01*
X104690476Y-105271428D01*
X104690476Y-105461904D01*
X104738095Y-105557142D01*
X104785714Y-105604761D01*
X104880952Y-105652380D01*
X105071428Y-105652380D01*
X105166666Y-105604761D01*
X105214285Y-105557142D01*
X105261904Y-105461904D01*
X105261904Y-105271428D01*
X105214285Y-105176190D01*
X105166666Y-105128571D01*
X105071428Y-105080952D01*
X50776190Y-62652380D02*
X50871428Y-62652380D01*
X50966666Y-62700000D01*
X51014285Y-62747619D01*
X51061904Y-62842857D01*
X51109523Y-63033333D01*
X51109523Y-63271428D01*
X51061904Y-63461904D01*
X51014285Y-63557142D01*
X50966666Y-63604761D01*
X50871428Y-63652380D01*
X50776190Y-63652380D01*
X50680952Y-63604761D01*
X50633333Y-63557142D01*
X50585714Y-63461904D01*
X50538095Y-63271428D01*
X50538095Y-63033333D01*
X50585714Y-62842857D01*
X50633333Y-62747619D01*
X50680952Y-62700000D01*
X50776190Y-62652380D01*
X52061904Y-63652380D02*
X51490476Y-63652380D01*
X51776190Y-63652380D02*
X51776190Y-62652380D01*
X51680952Y-62795238D01*
X51585714Y-62890476D01*
X51490476Y-62938095D01*
X43433333Y-126552380D02*
X43623809Y-126552380D01*
X43719047Y-126504761D01*
X43766666Y-126457142D01*
X43861904Y-126314285D01*
X43909523Y-126123809D01*
X43909523Y-125742857D01*
X43861904Y-125647619D01*
X43814285Y-125600000D01*
X43719047Y-125552380D01*
X43528571Y-125552380D01*
X43433333Y-125600000D01*
X43385714Y-125647619D01*
X43338095Y-125742857D01*
X43338095Y-125980952D01*
X43385714Y-126076190D01*
X43433333Y-126123809D01*
X43528571Y-126171428D01*
X43719047Y-126171428D01*
X43814285Y-126123809D01*
X43861904Y-126076190D01*
X43909523Y-125980952D01*
X44528571Y-125552380D02*
X44623809Y-125552380D01*
X44719047Y-125600000D01*
X44766666Y-125647619D01*
X44814285Y-125742857D01*
X44861904Y-125933333D01*
X44861904Y-126171428D01*
X44814285Y-126361904D01*
X44766666Y-126457142D01*
X44719047Y-126504761D01*
X44623809Y-126552380D01*
X44528571Y-126552380D01*
X44433333Y-126504761D01*
X44385714Y-126457142D01*
X44338095Y-126361904D01*
X44290476Y-126171428D01*
X44290476Y-125933333D01*
X44338095Y-125742857D01*
X44385714Y-125647619D01*
X44433333Y-125600000D01*
X44528571Y-125552380D01*
X58038095Y-76747619D02*
X58085714Y-76700000D01*
X58180952Y-76652380D01*
X58419047Y-76652380D01*
X58514285Y-76700000D01*
X58561904Y-76747619D01*
X58609523Y-76842857D01*
X58609523Y-76938095D01*
X58561904Y-77080952D01*
X57990476Y-77652380D01*
X58609523Y-77652380D01*
X58990476Y-76747619D02*
X59038095Y-76700000D01*
X59133333Y-76652380D01*
X59371428Y-76652380D01*
X59466666Y-76700000D01*
X59514285Y-76747619D01*
X59561904Y-76842857D01*
X59561904Y-76938095D01*
X59514285Y-77080952D01*
X58942857Y-77652380D01*
X59561904Y-77652380D01*
X111676190Y-62552380D02*
X111771428Y-62552380D01*
X111866666Y-62600000D01*
X111914285Y-62647619D01*
X111961904Y-62742857D01*
X112009523Y-62933333D01*
X112009523Y-63171428D01*
X111961904Y-63361904D01*
X111914285Y-63457142D01*
X111866666Y-63504761D01*
X111771428Y-63552380D01*
X111676190Y-63552380D01*
X111580952Y-63504761D01*
X111533333Y-63457142D01*
X111485714Y-63361904D01*
X111438095Y-63171428D01*
X111438095Y-62933333D01*
X111485714Y-62742857D01*
X111533333Y-62647619D01*
X111580952Y-62600000D01*
X111676190Y-62552380D01*
X112485714Y-63552380D02*
X112676190Y-63552380D01*
X112771428Y-63504761D01*
X112819047Y-63457142D01*
X112914285Y-63314285D01*
X112961904Y-63123809D01*
X112961904Y-62742857D01*
X112914285Y-62647619D01*
X112866666Y-62600000D01*
X112771428Y-62552380D01*
X112580952Y-62552380D01*
X112485714Y-62600000D01*
X112438095Y-62647619D01*
X112390476Y-62742857D01*
X112390476Y-62980952D01*
X112438095Y-63076190D01*
X112485714Y-63123809D01*
X112580952Y-63171428D01*
X112771428Y-63171428D01*
X112866666Y-63123809D01*
X112914285Y-63076190D01*
X112961904Y-62980952D01*
X95890476Y-83752380D02*
X96509523Y-83752380D01*
X96176190Y-84133333D01*
X96319047Y-84133333D01*
X96414285Y-84180952D01*
X96461904Y-84228571D01*
X96509523Y-84323809D01*
X96509523Y-84561904D01*
X96461904Y-84657142D01*
X96414285Y-84704761D01*
X96319047Y-84752380D01*
X96033333Y-84752380D01*
X95938095Y-84704761D01*
X95890476Y-84657142D01*
X96842857Y-83752380D02*
X97509523Y-83752380D01*
X97080952Y-84752380D01*
X66314285Y-91085714D02*
X66314285Y-91752380D01*
X66076190Y-90704761D02*
X65838095Y-91419047D01*
X66457142Y-91419047D01*
X66742857Y-90752380D02*
X67361904Y-90752380D01*
X67028571Y-91133333D01*
X67171428Y-91133333D01*
X67266666Y-91180952D01*
X67314285Y-91228571D01*
X67361904Y-91323809D01*
X67361904Y-91561904D01*
X67314285Y-91657142D01*
X67266666Y-91704761D01*
X67171428Y-91752380D01*
X66885714Y-91752380D01*
X66790476Y-91704761D01*
X66742857Y-91657142D01*
X43514285Y-90985714D02*
X43514285Y-91652380D01*
X43276190Y-90604761D02*
X43038095Y-91319047D01*
X43657142Y-91319047D01*
X44228571Y-90652380D02*
X44323809Y-90652380D01*
X44419047Y-90700000D01*
X44466666Y-90747619D01*
X44514285Y-90842857D01*
X44561904Y-91033333D01*
X44561904Y-91271428D01*
X44514285Y-91461904D01*
X44466666Y-91557142D01*
X44419047Y-91604761D01*
X44323809Y-91652380D01*
X44228571Y-91652380D01*
X44133333Y-91604761D01*
X44085714Y-91557142D01*
X44038095Y-91461904D01*
X43990476Y-91271428D01*
X43990476Y-91033333D01*
X44038095Y-90842857D01*
X44085714Y-90747619D01*
X44133333Y-90700000D01*
X44228571Y-90652380D01*
X88914285Y-90985714D02*
X88914285Y-91652380D01*
X88676190Y-90604761D02*
X88438095Y-91319047D01*
X89057142Y-91319047D01*
X89866666Y-90652380D02*
X89676190Y-90652380D01*
X89580952Y-90700000D01*
X89533333Y-90747619D01*
X89438095Y-90890476D01*
X89390476Y-91080952D01*
X89390476Y-91461904D01*
X89438095Y-91557142D01*
X89485714Y-91604761D01*
X89580952Y-91652380D01*
X89771428Y-91652380D01*
X89866666Y-91604761D01*
X89914285Y-91557142D01*
X89961904Y-91461904D01*
X89961904Y-91223809D01*
X89914285Y-91128571D01*
X89866666Y-91080952D01*
X89771428Y-91033333D01*
X89580952Y-91033333D01*
X89485714Y-91080952D01*
X89438095Y-91128571D01*
X89390476Y-91223809D01*
D12*
X38866191Y-49652407D02*
X38866191Y-48452407D01*
X39666191Y-48452407D02*
X39894762Y-48452407D01*
X40009048Y-48509550D01*
X40123334Y-48623835D01*
X40180477Y-48852407D01*
X40180477Y-49252407D01*
X40123334Y-49480978D01*
X40009048Y-49595264D01*
X39894762Y-49652407D01*
X39666191Y-49652407D01*
X39551905Y-49595264D01*
X39437620Y-49480978D01*
X39380477Y-49252407D01*
X39380477Y-48852407D01*
X39437620Y-48623835D01*
X39551905Y-48509550D01*
X39666191Y-48452407D01*
X41209048Y-48852407D02*
X41209048Y-49652407D01*
X40923334Y-48395264D02*
X40637620Y-49252407D01*
X41380477Y-49252407D01*
X42351905Y-48452407D02*
X42123334Y-48452407D01*
X42009048Y-48509550D01*
X41951905Y-48566692D01*
X41837620Y-48738121D01*
X41780477Y-48966692D01*
X41780477Y-49423835D01*
X41837620Y-49538121D01*
X41894762Y-49595264D01*
X42009048Y-49652407D01*
X42237620Y-49652407D01*
X42351905Y-49595264D01*
X42409048Y-49538121D01*
X42466191Y-49423835D01*
X42466191Y-49138121D01*
X42409048Y-49023835D01*
X42351905Y-48966692D01*
X42237620Y-48909550D01*
X42009048Y-48909550D01*
X41894762Y-48966692D01*
X41837620Y-49023835D01*
X41780477Y-49138121D01*
X68757142Y-131692857D02*
X68757142Y-132664285D01*
X68814285Y-132778571D01*
X68871428Y-132835714D01*
X68985714Y-132892857D01*
X69214285Y-132892857D01*
X69328571Y-132835714D01*
X69385714Y-132778571D01*
X69442857Y-132664285D01*
X69442857Y-131692857D01*
X70014285Y-132892857D02*
X70014285Y-131692857D01*
X70471428Y-131692857D01*
X70585714Y-131750000D01*
X70642857Y-131807142D01*
X70700000Y-131921428D01*
X70700000Y-132092857D01*
X70642857Y-132207142D01*
X70585714Y-132264285D01*
X70471428Y-132321428D01*
X70014285Y-132321428D01*
D13*
X65590476Y-83752380D02*
X66209523Y-83752380D01*
X65876190Y-84133333D01*
X66019047Y-84133333D01*
X66114285Y-84180952D01*
X66161904Y-84228571D01*
X66209523Y-84323809D01*
X66209523Y-84561904D01*
X66161904Y-84657142D01*
X66114285Y-84704761D01*
X66019047Y-84752380D01*
X65733333Y-84752380D01*
X65638095Y-84704761D01*
X65590476Y-84657142D01*
X66542857Y-83752380D02*
X67161904Y-83752380D01*
X66828571Y-84133333D01*
X66971428Y-84133333D01*
X67066666Y-84180952D01*
X67114285Y-84228571D01*
X67161904Y-84323809D01*
X67161904Y-84561904D01*
X67114285Y-84657142D01*
X67066666Y-84704761D01*
X66971428Y-84752380D01*
X66685714Y-84752380D01*
X66590476Y-84704761D01*
X66542857Y-84657142D01*
X103690476Y-111652380D02*
X104357142Y-111652380D01*
X103928571Y-112652380D01*
X104880952Y-112080952D02*
X104785714Y-112033333D01*
X104738095Y-111985714D01*
X104690476Y-111890476D01*
X104690476Y-111842857D01*
X104738095Y-111747619D01*
X104785714Y-111700000D01*
X104880952Y-111652380D01*
X105071428Y-111652380D01*
X105166666Y-111700000D01*
X105214285Y-111747619D01*
X105261904Y-111842857D01*
X105261904Y-111890476D01*
X105214285Y-111985714D01*
X105166666Y-112033333D01*
X105071428Y-112080952D01*
X104880952Y-112080952D01*
X104785714Y-112128571D01*
X104738095Y-112176190D01*
X104690476Y-112271428D01*
X104690476Y-112461904D01*
X104738095Y-112557142D01*
X104785714Y-112604761D01*
X104880952Y-112652380D01*
X105071428Y-112652380D01*
X105166666Y-112604761D01*
X105214285Y-112557142D01*
X105261904Y-112461904D01*
X105261904Y-112271428D01*
X105214285Y-112176190D01*
X105166666Y-112128571D01*
X105071428Y-112080952D01*
D12*
X33267142Y-65302857D02*
X32867142Y-64731428D01*
X32581428Y-65302857D02*
X32581428Y-64102857D01*
X33038571Y-64102857D01*
X33152857Y-64160000D01*
X33210000Y-64217142D01*
X33267142Y-64331428D01*
X33267142Y-64502857D01*
X33210000Y-64617142D01*
X33152857Y-64674285D01*
X33038571Y-64731428D01*
X32581428Y-64731428D01*
X33781428Y-64674285D02*
X34181428Y-64674285D01*
X34352857Y-65302857D02*
X33781428Y-65302857D01*
X33781428Y-64102857D01*
X34352857Y-64102857D01*
X34810000Y-65245714D02*
X34981428Y-65302857D01*
X35267142Y-65302857D01*
X35381428Y-65245714D01*
X35438571Y-65188571D01*
X35495714Y-65074285D01*
X35495714Y-64960000D01*
X35438571Y-64845714D01*
X35381428Y-64788571D01*
X35267142Y-64731428D01*
X35038571Y-64674285D01*
X34924285Y-64617142D01*
X34867142Y-64560000D01*
X34810000Y-64445714D01*
X34810000Y-64331428D01*
X34867142Y-64217142D01*
X34924285Y-64160000D01*
X35038571Y-64102857D01*
X35324285Y-64102857D01*
X35495714Y-64160000D01*
X36010000Y-64674285D02*
X36410000Y-64674285D01*
X36581428Y-65302857D02*
X36010000Y-65302857D01*
X36010000Y-64102857D01*
X36581428Y-64102857D01*
X36924285Y-64102857D02*
X37610000Y-64102857D01*
X37267142Y-65302857D02*
X37267142Y-64102857D01*
D13*
X66661904Y-97752380D02*
X66185714Y-97752380D01*
X66138095Y-98228571D01*
X66185714Y-98180952D01*
X66280952Y-98133333D01*
X66519047Y-98133333D01*
X66614285Y-98180952D01*
X66661904Y-98228571D01*
X66709523Y-98323809D01*
X66709523Y-98561904D01*
X66661904Y-98657142D01*
X66614285Y-98704761D01*
X66519047Y-98752380D01*
X66280952Y-98752380D01*
X66185714Y-98704761D01*
X66138095Y-98657142D01*
X67042857Y-97752380D02*
X67661904Y-97752380D01*
X67328571Y-98133333D01*
X67471428Y-98133333D01*
X67566666Y-98180952D01*
X67614285Y-98228571D01*
X67661904Y-98323809D01*
X67661904Y-98561904D01*
X67614285Y-98657142D01*
X67566666Y-98704761D01*
X67471428Y-98752380D01*
X67185714Y-98752380D01*
X67090476Y-98704761D01*
X67042857Y-98657142D01*
X58809523Y-70652380D02*
X58238095Y-70652380D01*
X58523809Y-70652380D02*
X58523809Y-69652380D01*
X58428571Y-69795238D01*
X58333333Y-69890476D01*
X58238095Y-69938095D01*
X59190476Y-69747619D02*
X59238095Y-69700000D01*
X59333333Y-69652380D01*
X59571428Y-69652380D01*
X59666666Y-69700000D01*
X59714285Y-69747619D01*
X59761904Y-69842857D01*
X59761904Y-69938095D01*
X59714285Y-70080952D01*
X59142857Y-70652380D01*
X59761904Y-70652380D01*
X88490476Y-83752380D02*
X89109523Y-83752380D01*
X88776190Y-84133333D01*
X88919047Y-84133333D01*
X89014285Y-84180952D01*
X89061904Y-84228571D01*
X89109523Y-84323809D01*
X89109523Y-84561904D01*
X89061904Y-84657142D01*
X89014285Y-84704761D01*
X88919047Y-84752380D01*
X88633333Y-84752380D01*
X88538095Y-84704761D01*
X88490476Y-84657142D01*
X89966666Y-83752380D02*
X89776190Y-83752380D01*
X89680952Y-83800000D01*
X89633333Y-83847619D01*
X89538095Y-83990476D01*
X89490476Y-84180952D01*
X89490476Y-84561904D01*
X89538095Y-84657142D01*
X89585714Y-84704761D01*
X89680952Y-84752380D01*
X89871428Y-84752380D01*
X89966666Y-84704761D01*
X90014285Y-84657142D01*
X90061904Y-84561904D01*
X90061904Y-84323809D01*
X90014285Y-84228571D01*
X89966666Y-84180952D01*
X89871428Y-84133333D01*
X89680952Y-84133333D01*
X89585714Y-84180952D01*
X89538095Y-84228571D01*
X89490476Y-84323809D01*
X81028571Y-118980952D02*
X80933333Y-118933333D01*
X80885714Y-118885714D01*
X80838095Y-118790476D01*
X80838095Y-118742857D01*
X80885714Y-118647619D01*
X80933333Y-118600000D01*
X81028571Y-118552380D01*
X81219047Y-118552380D01*
X81314285Y-118600000D01*
X81361904Y-118647619D01*
X81409523Y-118742857D01*
X81409523Y-118790476D01*
X81361904Y-118885714D01*
X81314285Y-118933333D01*
X81219047Y-118980952D01*
X81028571Y-118980952D01*
X80933333Y-119028571D01*
X80885714Y-119076190D01*
X80838095Y-119171428D01*
X80838095Y-119361904D01*
X80885714Y-119457142D01*
X80933333Y-119504761D01*
X81028571Y-119552380D01*
X81219047Y-119552380D01*
X81314285Y-119504761D01*
X81361904Y-119457142D01*
X81409523Y-119361904D01*
X81409523Y-119171428D01*
X81361904Y-119076190D01*
X81314285Y-119028571D01*
X81219047Y-118980952D01*
X82314285Y-118552380D02*
X81838095Y-118552380D01*
X81790476Y-119028571D01*
X81838095Y-118980952D01*
X81933333Y-118933333D01*
X82171428Y-118933333D01*
X82266666Y-118980952D01*
X82314285Y-119028571D01*
X82361904Y-119123809D01*
X82361904Y-119361904D01*
X82314285Y-119457142D01*
X82266666Y-119504761D01*
X82171428Y-119552380D01*
X81933333Y-119552380D01*
X81838095Y-119504761D01*
X81790476Y-119457142D01*
X50490476Y-111652380D02*
X51157142Y-111652380D01*
X50728571Y-112652380D01*
X52061904Y-112652380D02*
X51490476Y-112652380D01*
X51776190Y-112652380D02*
X51776190Y-111652380D01*
X51680952Y-111795238D01*
X51585714Y-111890476D01*
X51490476Y-111938095D01*
X51114285Y-90985714D02*
X51114285Y-91652380D01*
X50876190Y-90604761D02*
X50638095Y-91319047D01*
X51257142Y-91319047D01*
X52161904Y-91652380D02*
X51590476Y-91652380D01*
X51876190Y-91652380D02*
X51876190Y-90652380D01*
X51780952Y-90795238D01*
X51685714Y-90890476D01*
X51590476Y-90938095D01*
X81176190Y-62552380D02*
X81271428Y-62552380D01*
X81366666Y-62600000D01*
X81414285Y-62647619D01*
X81461904Y-62742857D01*
X81509523Y-62933333D01*
X81509523Y-63171428D01*
X81461904Y-63361904D01*
X81414285Y-63457142D01*
X81366666Y-63504761D01*
X81271428Y-63552380D01*
X81176190Y-63552380D01*
X81080952Y-63504761D01*
X81033333Y-63457142D01*
X80985714Y-63361904D01*
X80938095Y-63171428D01*
X80938095Y-62933333D01*
X80985714Y-62742857D01*
X81033333Y-62647619D01*
X81080952Y-62600000D01*
X81176190Y-62552380D01*
X82414285Y-62552380D02*
X81938095Y-62552380D01*
X81890476Y-63028571D01*
X81938095Y-62980952D01*
X82033333Y-62933333D01*
X82271428Y-62933333D01*
X82366666Y-62980952D01*
X82414285Y-63028571D01*
X82461904Y-63123809D01*
X82461904Y-63361904D01*
X82414285Y-63457142D01*
X82366666Y-63504761D01*
X82271428Y-63552380D01*
X82033333Y-63552380D01*
X81938095Y-63504761D01*
X81890476Y-63457142D01*
X96476190Y-62652380D02*
X96571428Y-62652380D01*
X96666666Y-62700000D01*
X96714285Y-62747619D01*
X96761904Y-62842857D01*
X96809523Y-63033333D01*
X96809523Y-63271428D01*
X96761904Y-63461904D01*
X96714285Y-63557142D01*
X96666666Y-63604761D01*
X96571428Y-63652380D01*
X96476190Y-63652380D01*
X96380952Y-63604761D01*
X96333333Y-63557142D01*
X96285714Y-63461904D01*
X96238095Y-63271428D01*
X96238095Y-63033333D01*
X96285714Y-62842857D01*
X96333333Y-62747619D01*
X96380952Y-62700000D01*
X96476190Y-62652380D01*
X97142857Y-62652380D02*
X97809523Y-62652380D01*
X97380952Y-63652380D01*
X51209523Y-70552380D02*
X50638095Y-70552380D01*
X50923809Y-70552380D02*
X50923809Y-69552380D01*
X50828571Y-69695238D01*
X50733333Y-69790476D01*
X50638095Y-69838095D01*
X52161904Y-70552380D02*
X51590476Y-70552380D01*
X51876190Y-70552380D02*
X51876190Y-69552380D01*
X51780952Y-69695238D01*
X51685714Y-69790476D01*
X51590476Y-69838095D01*
D12*
X88200000Y-137792857D02*
X88200000Y-136592857D01*
X89000000Y-136592857D02*
X89228571Y-136592857D01*
X89342857Y-136650000D01*
X89457142Y-136764285D01*
X89514285Y-136992857D01*
X89514285Y-137392857D01*
X89457142Y-137621428D01*
X89342857Y-137735714D01*
X89228571Y-137792857D01*
X89000000Y-137792857D01*
X88885714Y-137735714D01*
X88771428Y-137621428D01*
X88714285Y-137392857D01*
X88714285Y-136992857D01*
X88771428Y-136764285D01*
X88885714Y-136650000D01*
X89000000Y-136592857D01*
X90085714Y-137792857D02*
X90314285Y-137792857D01*
X90428571Y-137735714D01*
X90485714Y-137678571D01*
X90600000Y-137507142D01*
X90657142Y-137278571D01*
X90657142Y-136821428D01*
X90600000Y-136707142D01*
X90542857Y-136650000D01*
X90428571Y-136592857D01*
X90200000Y-136592857D01*
X90085714Y-136650000D01*
X90028571Y-136707142D01*
X89971428Y-136821428D01*
X89971428Y-137107142D01*
X90028571Y-137221428D01*
X90085714Y-137278571D01*
X90200000Y-137335714D01*
X90428571Y-137335714D01*
X90542857Y-137278571D01*
X90600000Y-137221428D01*
X90657142Y-137107142D01*
D13*
X65976190Y-62552380D02*
X66071428Y-62552380D01*
X66166666Y-62600000D01*
X66214285Y-62647619D01*
X66261904Y-62742857D01*
X66309523Y-62933333D01*
X66309523Y-63171428D01*
X66261904Y-63361904D01*
X66214285Y-63457142D01*
X66166666Y-63504761D01*
X66071428Y-63552380D01*
X65976190Y-63552380D01*
X65880952Y-63504761D01*
X65833333Y-63457142D01*
X65785714Y-63361904D01*
X65738095Y-63171428D01*
X65738095Y-62933333D01*
X65785714Y-62742857D01*
X65833333Y-62647619D01*
X65880952Y-62600000D01*
X65976190Y-62552380D01*
X66642857Y-62552380D02*
X67261904Y-62552380D01*
X66928571Y-62933333D01*
X67071428Y-62933333D01*
X67166666Y-62980952D01*
X67214285Y-63028571D01*
X67261904Y-63123809D01*
X67261904Y-63361904D01*
X67214285Y-63457142D01*
X67166666Y-63504761D01*
X67071428Y-63552380D01*
X66785714Y-63552380D01*
X66690476Y-63504761D01*
X66642857Y-63457142D01*
X81361904Y-97752380D02*
X80885714Y-97752380D01*
X80838095Y-98228571D01*
X80885714Y-98180952D01*
X80980952Y-98133333D01*
X81219047Y-98133333D01*
X81314285Y-98180952D01*
X81361904Y-98228571D01*
X81409523Y-98323809D01*
X81409523Y-98561904D01*
X81361904Y-98657142D01*
X81314285Y-98704761D01*
X81219047Y-98752380D01*
X80980952Y-98752380D01*
X80885714Y-98704761D01*
X80838095Y-98657142D01*
X82314285Y-97752380D02*
X81838095Y-97752380D01*
X81790476Y-98228571D01*
X81838095Y-98180952D01*
X81933333Y-98133333D01*
X82171428Y-98133333D01*
X82266666Y-98180952D01*
X82314285Y-98228571D01*
X82361904Y-98323809D01*
X82361904Y-98561904D01*
X82314285Y-98657142D01*
X82266666Y-98704761D01*
X82171428Y-98752380D01*
X81933333Y-98752380D01*
X81838095Y-98704761D01*
X81790476Y-98657142D01*
X43661904Y-97652380D02*
X43185714Y-97652380D01*
X43138095Y-98128571D01*
X43185714Y-98080952D01*
X43280952Y-98033333D01*
X43519047Y-98033333D01*
X43614285Y-98080952D01*
X43661904Y-98128571D01*
X43709523Y-98223809D01*
X43709523Y-98461904D01*
X43661904Y-98557142D01*
X43614285Y-98604761D01*
X43519047Y-98652380D01*
X43280952Y-98652380D01*
X43185714Y-98604761D01*
X43138095Y-98557142D01*
X44328571Y-97652380D02*
X44423809Y-97652380D01*
X44519047Y-97700000D01*
X44566666Y-97747619D01*
X44614285Y-97842857D01*
X44661904Y-98033333D01*
X44661904Y-98271428D01*
X44614285Y-98461904D01*
X44566666Y-98557142D01*
X44519047Y-98604761D01*
X44423809Y-98652380D01*
X44328571Y-98652380D01*
X44233333Y-98604761D01*
X44185714Y-98557142D01*
X44138095Y-98461904D01*
X44090476Y-98271428D01*
X44090476Y-98033333D01*
X44138095Y-97842857D01*
X44185714Y-97747619D01*
X44233333Y-97700000D01*
X44328571Y-97652380D01*
X96533333Y-126652380D02*
X96723809Y-126652380D01*
X96819047Y-126604761D01*
X96866666Y-126557142D01*
X96961904Y-126414285D01*
X97009523Y-126223809D01*
X97009523Y-125842857D01*
X96961904Y-125747619D01*
X96914285Y-125700000D01*
X96819047Y-125652380D01*
X96628571Y-125652380D01*
X96533333Y-125700000D01*
X96485714Y-125747619D01*
X96438095Y-125842857D01*
X96438095Y-126080952D01*
X96485714Y-126176190D01*
X96533333Y-126223809D01*
X96628571Y-126271428D01*
X96819047Y-126271428D01*
X96914285Y-126223809D01*
X96961904Y-126176190D01*
X97009523Y-126080952D01*
X97342857Y-125652380D02*
X98009523Y-125652380D01*
X97580952Y-126652380D01*
X81514285Y-104652380D02*
X81323809Y-104652380D01*
X81228571Y-104700000D01*
X81180952Y-104747619D01*
X81085714Y-104890476D01*
X81038095Y-105080952D01*
X81038095Y-105461904D01*
X81085714Y-105557142D01*
X81133333Y-105604761D01*
X81228571Y-105652380D01*
X81419047Y-105652380D01*
X81514285Y-105604761D01*
X81561904Y-105557142D01*
X81609523Y-105461904D01*
X81609523Y-105223809D01*
X81561904Y-105128571D01*
X81514285Y-105080952D01*
X81419047Y-105033333D01*
X81228571Y-105033333D01*
X81133333Y-105080952D01*
X81085714Y-105128571D01*
X81038095Y-105223809D01*
X82514285Y-104652380D02*
X82038095Y-104652380D01*
X81990476Y-105128571D01*
X82038095Y-105080952D01*
X82133333Y-105033333D01*
X82371428Y-105033333D01*
X82466666Y-105080952D01*
X82514285Y-105128571D01*
X82561904Y-105223809D01*
X82561904Y-105461904D01*
X82514285Y-105557142D01*
X82466666Y-105604761D01*
X82371428Y-105652380D01*
X82133333Y-105652380D01*
X82038095Y-105604761D01*
X81990476Y-105557142D01*
D12*
X33381428Y-57674285D02*
X33552857Y-57731428D01*
X33610000Y-57788571D01*
X33667142Y-57902857D01*
X33667142Y-58074285D01*
X33610000Y-58188571D01*
X33552857Y-58245714D01*
X33438571Y-58302857D01*
X32981428Y-58302857D01*
X32981428Y-57102857D01*
X33381428Y-57102857D01*
X33495714Y-57160000D01*
X33552857Y-57217142D01*
X33610000Y-57331428D01*
X33610000Y-57445714D01*
X33552857Y-57560000D01*
X33495714Y-57617142D01*
X33381428Y-57674285D01*
X32981428Y-57674285D01*
X34410000Y-57102857D02*
X34638571Y-57102857D01*
X34752857Y-57160000D01*
X34867142Y-57274285D01*
X34924285Y-57502857D01*
X34924285Y-57902857D01*
X34867142Y-58131428D01*
X34752857Y-58245714D01*
X34638571Y-58302857D01*
X34410000Y-58302857D01*
X34295714Y-58245714D01*
X34181428Y-58131428D01*
X34124285Y-57902857D01*
X34124285Y-57502857D01*
X34181428Y-57274285D01*
X34295714Y-57160000D01*
X34410000Y-57102857D01*
X35667142Y-57102857D02*
X35895714Y-57102857D01*
X36010000Y-57160000D01*
X36124285Y-57274285D01*
X36181428Y-57502857D01*
X36181428Y-57902857D01*
X36124285Y-58131428D01*
X36010000Y-58245714D01*
X35895714Y-58302857D01*
X35667142Y-58302857D01*
X35552857Y-58245714D01*
X35438571Y-58131428D01*
X35381428Y-57902857D01*
X35381428Y-57502857D01*
X35438571Y-57274285D01*
X35552857Y-57160000D01*
X35667142Y-57102857D01*
X36524285Y-57102857D02*
X37210000Y-57102857D01*
X36867142Y-58302857D02*
X36867142Y-57102857D01*
D13*
X88728571Y-118980952D02*
X88633333Y-118933333D01*
X88585714Y-118885714D01*
X88538095Y-118790476D01*
X88538095Y-118742857D01*
X88585714Y-118647619D01*
X88633333Y-118600000D01*
X88728571Y-118552380D01*
X88919047Y-118552380D01*
X89014285Y-118600000D01*
X89061904Y-118647619D01*
X89109523Y-118742857D01*
X89109523Y-118790476D01*
X89061904Y-118885714D01*
X89014285Y-118933333D01*
X88919047Y-118980952D01*
X88728571Y-118980952D01*
X88633333Y-119028571D01*
X88585714Y-119076190D01*
X88538095Y-119171428D01*
X88538095Y-119361904D01*
X88585714Y-119457142D01*
X88633333Y-119504761D01*
X88728571Y-119552380D01*
X88919047Y-119552380D01*
X89014285Y-119504761D01*
X89061904Y-119457142D01*
X89109523Y-119361904D01*
X89109523Y-119171428D01*
X89061904Y-119076190D01*
X89014285Y-119028571D01*
X88919047Y-118980952D01*
X89966666Y-118552380D02*
X89776190Y-118552380D01*
X89680952Y-118600000D01*
X89633333Y-118647619D01*
X89538095Y-118790476D01*
X89490476Y-118980952D01*
X89490476Y-119361904D01*
X89538095Y-119457142D01*
X89585714Y-119504761D01*
X89680952Y-119552380D01*
X89871428Y-119552380D01*
X89966666Y-119504761D01*
X90014285Y-119457142D01*
X90061904Y-119361904D01*
X90061904Y-119123809D01*
X90014285Y-119028571D01*
X89966666Y-118980952D01*
X89871428Y-118933333D01*
X89680952Y-118933333D01*
X89585714Y-118980952D01*
X89538095Y-119028571D01*
X89490476Y-119123809D01*
X81509523Y-70652380D02*
X80938095Y-70652380D01*
X81223809Y-70652380D02*
X81223809Y-69652380D01*
X81128571Y-69795238D01*
X81033333Y-69890476D01*
X80938095Y-69938095D01*
X82414285Y-69652380D02*
X81938095Y-69652380D01*
X81890476Y-70128571D01*
X81938095Y-70080952D01*
X82033333Y-70033333D01*
X82271428Y-70033333D01*
X82366666Y-70080952D01*
X82414285Y-70128571D01*
X82461904Y-70223809D01*
X82461904Y-70461904D01*
X82414285Y-70557142D01*
X82366666Y-70604761D01*
X82271428Y-70652380D01*
X82033333Y-70652380D01*
X81938095Y-70604761D01*
X81890476Y-70557142D01*
X96728571Y-118980952D02*
X96633333Y-118933333D01*
X96585714Y-118885714D01*
X96538095Y-118790476D01*
X96538095Y-118742857D01*
X96585714Y-118647619D01*
X96633333Y-118600000D01*
X96728571Y-118552380D01*
X96919047Y-118552380D01*
X97014285Y-118600000D01*
X97061904Y-118647619D01*
X97109523Y-118742857D01*
X97109523Y-118790476D01*
X97061904Y-118885714D01*
X97014285Y-118933333D01*
X96919047Y-118980952D01*
X96728571Y-118980952D01*
X96633333Y-119028571D01*
X96585714Y-119076190D01*
X96538095Y-119171428D01*
X96538095Y-119361904D01*
X96585714Y-119457142D01*
X96633333Y-119504761D01*
X96728571Y-119552380D01*
X96919047Y-119552380D01*
X97014285Y-119504761D01*
X97061904Y-119457142D01*
X97109523Y-119361904D01*
X97109523Y-119171428D01*
X97061904Y-119076190D01*
X97014285Y-119028571D01*
X96919047Y-118980952D01*
X97442857Y-118552380D02*
X98109523Y-118552380D01*
X97680952Y-119552380D01*
X58714285Y-104652380D02*
X58523809Y-104652380D01*
X58428571Y-104700000D01*
X58380952Y-104747619D01*
X58285714Y-104890476D01*
X58238095Y-105080952D01*
X58238095Y-105461904D01*
X58285714Y-105557142D01*
X58333333Y-105604761D01*
X58428571Y-105652380D01*
X58619047Y-105652380D01*
X58714285Y-105604761D01*
X58761904Y-105557142D01*
X58809523Y-105461904D01*
X58809523Y-105223809D01*
X58761904Y-105128571D01*
X58714285Y-105080952D01*
X58619047Y-105033333D01*
X58428571Y-105033333D01*
X58333333Y-105080952D01*
X58285714Y-105128571D01*
X58238095Y-105223809D01*
X59190476Y-104747619D02*
X59238095Y-104700000D01*
X59333333Y-104652380D01*
X59571428Y-104652380D01*
X59666666Y-104700000D01*
X59714285Y-104747619D01*
X59761904Y-104842857D01*
X59761904Y-104938095D01*
X59714285Y-105080952D01*
X59142857Y-105652380D01*
X59761904Y-105652380D01*
X43228571Y-118980952D02*
X43133333Y-118933333D01*
X43085714Y-118885714D01*
X43038095Y-118790476D01*
X43038095Y-118742857D01*
X43085714Y-118647619D01*
X43133333Y-118600000D01*
X43228571Y-118552380D01*
X43419047Y-118552380D01*
X43514285Y-118600000D01*
X43561904Y-118647619D01*
X43609523Y-118742857D01*
X43609523Y-118790476D01*
X43561904Y-118885714D01*
X43514285Y-118933333D01*
X43419047Y-118980952D01*
X43228571Y-118980952D01*
X43133333Y-119028571D01*
X43085714Y-119076190D01*
X43038095Y-119171428D01*
X43038095Y-119361904D01*
X43085714Y-119457142D01*
X43133333Y-119504761D01*
X43228571Y-119552380D01*
X43419047Y-119552380D01*
X43514285Y-119504761D01*
X43561904Y-119457142D01*
X43609523Y-119361904D01*
X43609523Y-119171428D01*
X43561904Y-119076190D01*
X43514285Y-119028571D01*
X43419047Y-118980952D01*
X44228571Y-118552380D02*
X44323809Y-118552380D01*
X44419047Y-118600000D01*
X44466666Y-118647619D01*
X44514285Y-118742857D01*
X44561904Y-118933333D01*
X44561904Y-119171428D01*
X44514285Y-119361904D01*
X44466666Y-119457142D01*
X44419047Y-119504761D01*
X44323809Y-119552380D01*
X44228571Y-119552380D01*
X44133333Y-119504761D01*
X44085714Y-119457142D01*
X44038095Y-119361904D01*
X43990476Y-119171428D01*
X43990476Y-118933333D01*
X44038095Y-118742857D01*
X44085714Y-118647619D01*
X44133333Y-118600000D01*
X44228571Y-118552380D01*
D12*
X73214285Y-136192857D02*
X72814285Y-135621428D01*
X72528571Y-136192857D02*
X72528571Y-134992857D01*
X72985714Y-134992857D01*
X73100000Y-135050000D01*
X73157142Y-135107142D01*
X73214285Y-135221428D01*
X73214285Y-135392857D01*
X73157142Y-135507142D01*
X73100000Y-135564285D01*
X72985714Y-135621428D01*
X72528571Y-135621428D01*
X74357142Y-135050000D02*
X74242857Y-134992857D01*
X74071428Y-134992857D01*
X73900000Y-135050000D01*
X73785714Y-135164285D01*
X73728571Y-135278571D01*
X73671428Y-135507142D01*
X73671428Y-135678571D01*
X73728571Y-135907142D01*
X73785714Y-136021428D01*
X73900000Y-136135714D01*
X74071428Y-136192857D01*
X74185714Y-136192857D01*
X74357142Y-136135714D01*
X74414285Y-136078571D01*
X74414285Y-135678571D01*
X74185714Y-135678571D01*
X74757142Y-134992857D02*
X75442857Y-134992857D01*
X75100000Y-136192857D02*
X75100000Y-134992857D01*
D13*
X80790476Y-111652380D02*
X81457142Y-111652380D01*
X81028571Y-112652380D01*
X82314285Y-111652380D02*
X81838095Y-111652380D01*
X81790476Y-112128571D01*
X81838095Y-112080952D01*
X81933333Y-112033333D01*
X82171428Y-112033333D01*
X82266666Y-112080952D01*
X82314285Y-112128571D01*
X82361904Y-112223809D01*
X82361904Y-112461904D01*
X82314285Y-112557142D01*
X82266666Y-112604761D01*
X82171428Y-112652380D01*
X81933333Y-112652380D01*
X81838095Y-112604761D01*
X81790476Y-112557142D01*
X42790476Y-111752380D02*
X43457142Y-111752380D01*
X43028571Y-112752380D01*
X44028571Y-111752380D02*
X44123809Y-111752380D01*
X44219047Y-111800000D01*
X44266666Y-111847619D01*
X44314285Y-111942857D01*
X44361904Y-112133333D01*
X44361904Y-112371428D01*
X44314285Y-112561904D01*
X44266666Y-112657142D01*
X44219047Y-112704761D01*
X44123809Y-112752380D01*
X44028571Y-112752380D01*
X43933333Y-112704761D01*
X43885714Y-112657142D01*
X43838095Y-112561904D01*
X43790476Y-112371428D01*
X43790476Y-112133333D01*
X43838095Y-111942857D01*
X43885714Y-111847619D01*
X43933333Y-111800000D01*
X44028571Y-111752380D01*
X115969047Y-55961904D02*
X115969047Y-55161904D01*
X116502380Y-55161904D02*
X116654761Y-55161904D01*
X116730952Y-55200000D01*
X116807142Y-55276190D01*
X116845238Y-55428571D01*
X116845238Y-55695238D01*
X116807142Y-55847619D01*
X116730952Y-55923809D01*
X116654761Y-55961904D01*
X116502380Y-55961904D01*
X116426190Y-55923809D01*
X116350000Y-55847619D01*
X116311904Y-55695238D01*
X116311904Y-55428571D01*
X116350000Y-55276190D01*
X116426190Y-55200000D01*
X116502380Y-55161904D01*
X117530952Y-55428571D02*
X117530952Y-55961904D01*
X117340476Y-55123809D02*
X117150000Y-55695238D01*
X117645238Y-55695238D01*
X118330952Y-55161904D02*
X117950000Y-55161904D01*
X117911904Y-55542857D01*
X117950000Y-55504761D01*
X118026190Y-55466666D01*
X118216666Y-55466666D01*
X118292857Y-55504761D01*
X118330952Y-55542857D01*
X118369047Y-55619047D01*
X118369047Y-55809523D01*
X118330952Y-55885714D01*
X118292857Y-55923809D01*
X118216666Y-55961904D01*
X118026190Y-55961904D01*
X117950000Y-55923809D01*
X117911904Y-55885714D01*
X80738095Y-76747619D02*
X80785714Y-76700000D01*
X80880952Y-76652380D01*
X81119047Y-76652380D01*
X81214285Y-76700000D01*
X81261904Y-76747619D01*
X81309523Y-76842857D01*
X81309523Y-76938095D01*
X81261904Y-77080952D01*
X80690476Y-77652380D01*
X81309523Y-77652380D01*
X82214285Y-76652380D02*
X81738095Y-76652380D01*
X81690476Y-77128571D01*
X81738095Y-77080952D01*
X81833333Y-77033333D01*
X82071428Y-77033333D01*
X82166666Y-77080952D01*
X82214285Y-77128571D01*
X82261904Y-77223809D01*
X82261904Y-77461904D01*
X82214285Y-77557142D01*
X82166666Y-77604761D01*
X82071428Y-77652380D01*
X81833333Y-77652380D01*
X81738095Y-77604761D01*
X81690476Y-77557142D01*
X81033333Y-126552380D02*
X81223809Y-126552380D01*
X81319047Y-126504761D01*
X81366666Y-126457142D01*
X81461904Y-126314285D01*
X81509523Y-126123809D01*
X81509523Y-125742857D01*
X81461904Y-125647619D01*
X81414285Y-125600000D01*
X81319047Y-125552380D01*
X81128571Y-125552380D01*
X81033333Y-125600000D01*
X80985714Y-125647619D01*
X80938095Y-125742857D01*
X80938095Y-125980952D01*
X80985714Y-126076190D01*
X81033333Y-126123809D01*
X81128571Y-126171428D01*
X81319047Y-126171428D01*
X81414285Y-126123809D01*
X81461904Y-126076190D01*
X81509523Y-125980952D01*
X82414285Y-125552380D02*
X81938095Y-125552380D01*
X81890476Y-126028571D01*
X81938095Y-125980952D01*
X82033333Y-125933333D01*
X82271428Y-125933333D01*
X82366666Y-125980952D01*
X82414285Y-126028571D01*
X82461904Y-126123809D01*
X82461904Y-126361904D01*
X82414285Y-126457142D01*
X82366666Y-126504761D01*
X82271428Y-126552380D01*
X82033333Y-126552380D01*
X81938095Y-126504761D01*
X81890476Y-126457142D01*
X43514285Y-104652380D02*
X43323809Y-104652380D01*
X43228571Y-104700000D01*
X43180952Y-104747619D01*
X43085714Y-104890476D01*
X43038095Y-105080952D01*
X43038095Y-105461904D01*
X43085714Y-105557142D01*
X43133333Y-105604761D01*
X43228571Y-105652380D01*
X43419047Y-105652380D01*
X43514285Y-105604761D01*
X43561904Y-105557142D01*
X43609523Y-105461904D01*
X43609523Y-105223809D01*
X43561904Y-105128571D01*
X43514285Y-105080952D01*
X43419047Y-105033333D01*
X43228571Y-105033333D01*
X43133333Y-105080952D01*
X43085714Y-105128571D01*
X43038095Y-105223809D01*
X44228571Y-104652380D02*
X44323809Y-104652380D01*
X44419047Y-104700000D01*
X44466666Y-104747619D01*
X44514285Y-104842857D01*
X44561904Y-105033333D01*
X44561904Y-105271428D01*
X44514285Y-105461904D01*
X44466666Y-105557142D01*
X44419047Y-105604761D01*
X44323809Y-105652380D01*
X44228571Y-105652380D01*
X44133333Y-105604761D01*
X44085714Y-105557142D01*
X44038095Y-105461904D01*
X43990476Y-105271428D01*
X43990476Y-105033333D01*
X44038095Y-104842857D01*
X44085714Y-104747619D01*
X44133333Y-104700000D01*
X44228571Y-104652380D01*
X58290476Y-83652380D02*
X58909523Y-83652380D01*
X58576190Y-84033333D01*
X58719047Y-84033333D01*
X58814285Y-84080952D01*
X58861904Y-84128571D01*
X58909523Y-84223809D01*
X58909523Y-84461904D01*
X58861904Y-84557142D01*
X58814285Y-84604761D01*
X58719047Y-84652380D01*
X58433333Y-84652380D01*
X58338095Y-84604761D01*
X58290476Y-84557142D01*
X59290476Y-83747619D02*
X59338095Y-83700000D01*
X59433333Y-83652380D01*
X59671428Y-83652380D01*
X59766666Y-83700000D01*
X59814285Y-83747619D01*
X59861904Y-83842857D01*
X59861904Y-83938095D01*
X59814285Y-84080952D01*
X59242857Y-84652380D01*
X59861904Y-84652380D01*
X103538095Y-76747619D02*
X103585714Y-76700000D01*
X103680952Y-76652380D01*
X103919047Y-76652380D01*
X104014285Y-76700000D01*
X104061904Y-76747619D01*
X104109523Y-76842857D01*
X104109523Y-76938095D01*
X104061904Y-77080952D01*
X103490476Y-77652380D01*
X104109523Y-77652380D01*
X104680952Y-77080952D02*
X104585714Y-77033333D01*
X104538095Y-76985714D01*
X104490476Y-76890476D01*
X104490476Y-76842857D01*
X104538095Y-76747619D01*
X104585714Y-76700000D01*
X104680952Y-76652380D01*
X104871428Y-76652380D01*
X104966666Y-76700000D01*
X105014285Y-76747619D01*
X105061904Y-76842857D01*
X105061904Y-76890476D01*
X105014285Y-76985714D01*
X104966666Y-77033333D01*
X104871428Y-77080952D01*
X104680952Y-77080952D01*
X104585714Y-77128571D01*
X104538095Y-77176190D01*
X104490476Y-77271428D01*
X104490476Y-77461904D01*
X104538095Y-77557142D01*
X104585714Y-77604761D01*
X104680952Y-77652380D01*
X104871428Y-77652380D01*
X104966666Y-77604761D01*
X105014285Y-77557142D01*
X105061904Y-77461904D01*
X105061904Y-77271428D01*
X105014285Y-77176190D01*
X104966666Y-77128571D01*
X104871428Y-77080952D01*
X96661904Y-97752380D02*
X96185714Y-97752380D01*
X96138095Y-98228571D01*
X96185714Y-98180952D01*
X96280952Y-98133333D01*
X96519047Y-98133333D01*
X96614285Y-98180952D01*
X96661904Y-98228571D01*
X96709523Y-98323809D01*
X96709523Y-98561904D01*
X96661904Y-98657142D01*
X96614285Y-98704761D01*
X96519047Y-98752380D01*
X96280952Y-98752380D01*
X96185714Y-98704761D01*
X96138095Y-98657142D01*
X97042857Y-97752380D02*
X97709523Y-97752380D01*
X97280952Y-98752380D01*
X111290476Y-111652380D02*
X111957142Y-111652380D01*
X111528571Y-112652380D01*
X112385714Y-112652380D02*
X112576190Y-112652380D01*
X112671428Y-112604761D01*
X112719047Y-112557142D01*
X112814285Y-112414285D01*
X112861904Y-112223809D01*
X112861904Y-111842857D01*
X112814285Y-111747619D01*
X112766666Y-111700000D01*
X112671428Y-111652380D01*
X112480952Y-111652380D01*
X112385714Y-111700000D01*
X112338095Y-111747619D01*
X112290476Y-111842857D01*
X112290476Y-112080952D01*
X112338095Y-112176190D01*
X112385714Y-112223809D01*
X112480952Y-112271428D01*
X112671428Y-112271428D01*
X112766666Y-112223809D01*
X112814285Y-112176190D01*
X112861904Y-112080952D01*
X50833333Y-126552380D02*
X51023809Y-126552380D01*
X51119047Y-126504761D01*
X51166666Y-126457142D01*
X51261904Y-126314285D01*
X51309523Y-126123809D01*
X51309523Y-125742857D01*
X51261904Y-125647619D01*
X51214285Y-125600000D01*
X51119047Y-125552380D01*
X50928571Y-125552380D01*
X50833333Y-125600000D01*
X50785714Y-125647619D01*
X50738095Y-125742857D01*
X50738095Y-125980952D01*
X50785714Y-126076190D01*
X50833333Y-126123809D01*
X50928571Y-126171428D01*
X51119047Y-126171428D01*
X51214285Y-126123809D01*
X51261904Y-126076190D01*
X51309523Y-125980952D01*
X52261904Y-126552380D02*
X51690476Y-126552380D01*
X51976190Y-126552380D02*
X51976190Y-125552380D01*
X51880952Y-125695238D01*
X51785714Y-125790476D01*
X51690476Y-125838095D01*
X89109523Y-70652380D02*
X88538095Y-70652380D01*
X88823809Y-70652380D02*
X88823809Y-69652380D01*
X88728571Y-69795238D01*
X88633333Y-69890476D01*
X88538095Y-69938095D01*
X89966666Y-69652380D02*
X89776190Y-69652380D01*
X89680952Y-69700000D01*
X89633333Y-69747619D01*
X89538095Y-69890476D01*
X89490476Y-70080952D01*
X89490476Y-70461904D01*
X89538095Y-70557142D01*
X89585714Y-70604761D01*
X89680952Y-70652380D01*
X89871428Y-70652380D01*
X89966666Y-70604761D01*
X90014285Y-70557142D01*
X90061904Y-70461904D01*
X90061904Y-70223809D01*
X90014285Y-70128571D01*
X89966666Y-70080952D01*
X89871428Y-70033333D01*
X89680952Y-70033333D01*
X89585714Y-70080952D01*
X89538095Y-70128571D01*
X89490476Y-70223809D01*
X80890476Y-83752380D02*
X81509523Y-83752380D01*
X81176190Y-84133333D01*
X81319047Y-84133333D01*
X81414285Y-84180952D01*
X81461904Y-84228571D01*
X81509523Y-84323809D01*
X81509523Y-84561904D01*
X81461904Y-84657142D01*
X81414285Y-84704761D01*
X81319047Y-84752380D01*
X81033333Y-84752380D01*
X80938095Y-84704761D01*
X80890476Y-84657142D01*
X82414285Y-83752380D02*
X81938095Y-83752380D01*
X81890476Y-84228571D01*
X81938095Y-84180952D01*
X82033333Y-84133333D01*
X82271428Y-84133333D01*
X82366666Y-84180952D01*
X82414285Y-84228571D01*
X82461904Y-84323809D01*
X82461904Y-84561904D01*
X82414285Y-84657142D01*
X82366666Y-84704761D01*
X82271428Y-84752380D01*
X82033333Y-84752380D01*
X81938095Y-84704761D01*
X81890476Y-84657142D01*
X111338095Y-76747619D02*
X111385714Y-76700000D01*
X111480952Y-76652380D01*
X111719047Y-76652380D01*
X111814285Y-76700000D01*
X111861904Y-76747619D01*
X111909523Y-76842857D01*
X111909523Y-76938095D01*
X111861904Y-77080952D01*
X111290476Y-77652380D01*
X111909523Y-77652380D01*
X112385714Y-77652380D02*
X112576190Y-77652380D01*
X112671428Y-77604761D01*
X112719047Y-77557142D01*
X112814285Y-77414285D01*
X112861904Y-77223809D01*
X112861904Y-76842857D01*
X112814285Y-76747619D01*
X112766666Y-76700000D01*
X112671428Y-76652380D01*
X112480952Y-76652380D01*
X112385714Y-76700000D01*
X112338095Y-76747619D01*
X112290476Y-76842857D01*
X112290476Y-77080952D01*
X112338095Y-77176190D01*
X112385714Y-77223809D01*
X112480952Y-77271428D01*
X112671428Y-77271428D01*
X112766666Y-77223809D01*
X112814285Y-77176190D01*
X112861904Y-77080952D01*
D12*
X88200000Y-134492857D02*
X88200000Y-133292857D01*
X89000000Y-133292857D02*
X89228571Y-133292857D01*
X89342857Y-133350000D01*
X89457142Y-133464285D01*
X89514285Y-133692857D01*
X89514285Y-134092857D01*
X89457142Y-134321428D01*
X89342857Y-134435714D01*
X89228571Y-134492857D01*
X89000000Y-134492857D01*
X88885714Y-134435714D01*
X88771428Y-134321428D01*
X88714285Y-134092857D01*
X88714285Y-133692857D01*
X88771428Y-133464285D01*
X88885714Y-133350000D01*
X89000000Y-133292857D01*
X90200000Y-133807142D02*
X90085714Y-133750000D01*
X90028571Y-133692857D01*
X89971428Y-133578571D01*
X89971428Y-133521428D01*
X90028571Y-133407142D01*
X90085714Y-133350000D01*
X90200000Y-133292857D01*
X90428571Y-133292857D01*
X90542857Y-133350000D01*
X90600000Y-133407142D01*
X90657142Y-133521428D01*
X90657142Y-133578571D01*
X90600000Y-133692857D01*
X90542857Y-133750000D01*
X90428571Y-133807142D01*
X90200000Y-133807142D01*
X90085714Y-133864285D01*
X90028571Y-133921428D01*
X89971428Y-134035714D01*
X89971428Y-134264285D01*
X90028571Y-134378571D01*
X90085714Y-134435714D01*
X90200000Y-134492857D01*
X90428571Y-134492857D01*
X90542857Y-134435714D01*
X90600000Y-134378571D01*
X90657142Y-134264285D01*
X90657142Y-134035714D01*
X90600000Y-133921428D01*
X90542857Y-133864285D01*
X90428571Y-133807142D01*
D13*
X58190476Y-111652380D02*
X58857142Y-111652380D01*
X58428571Y-112652380D01*
X59190476Y-111747619D02*
X59238095Y-111700000D01*
X59333333Y-111652380D01*
X59571428Y-111652380D01*
X59666666Y-111700000D01*
X59714285Y-111747619D01*
X59761904Y-111842857D01*
X59761904Y-111938095D01*
X59714285Y-112080952D01*
X59142857Y-112652380D01*
X59761904Y-112652380D01*
X104014285Y-91085714D02*
X104014285Y-91752380D01*
X103776190Y-90704761D02*
X103538095Y-91419047D01*
X104157142Y-91419047D01*
X104680952Y-91180952D02*
X104585714Y-91133333D01*
X104538095Y-91085714D01*
X104490476Y-90990476D01*
X104490476Y-90942857D01*
X104538095Y-90847619D01*
X104585714Y-90800000D01*
X104680952Y-90752380D01*
X104871428Y-90752380D01*
X104966666Y-90800000D01*
X105014285Y-90847619D01*
X105061904Y-90942857D01*
X105061904Y-90990476D01*
X105014285Y-91085714D01*
X104966666Y-91133333D01*
X104871428Y-91180952D01*
X104680952Y-91180952D01*
X104585714Y-91228571D01*
X104538095Y-91276190D01*
X104490476Y-91371428D01*
X104490476Y-91561904D01*
X104538095Y-91657142D01*
X104585714Y-91704761D01*
X104680952Y-91752380D01*
X104871428Y-91752380D01*
X104966666Y-91704761D01*
X105014285Y-91657142D01*
X105061904Y-91561904D01*
X105061904Y-91371428D01*
X105014285Y-91276190D01*
X104966666Y-91228571D01*
X104871428Y-91180952D01*
D12*
X38528571Y-60542857D02*
X38528571Y-59342857D01*
X39328571Y-59342857D02*
X39557142Y-59342857D01*
X39671428Y-59400000D01*
X39785714Y-59514285D01*
X39842857Y-59742857D01*
X39842857Y-60142857D01*
X39785714Y-60371428D01*
X39671428Y-60485714D01*
X39557142Y-60542857D01*
X39328571Y-60542857D01*
X39214285Y-60485714D01*
X39100000Y-60371428D01*
X39042857Y-60142857D01*
X39042857Y-59742857D01*
X39100000Y-59514285D01*
X39214285Y-59400000D01*
X39328571Y-59342857D01*
X40871428Y-59742857D02*
X40871428Y-60542857D01*
X40585714Y-59285714D02*
X40300000Y-60142857D01*
X41042857Y-60142857D01*
X42071428Y-59342857D02*
X41500000Y-59342857D01*
X41442857Y-59914285D01*
X41500000Y-59857142D01*
X41614285Y-59800000D01*
X41900000Y-59800000D01*
X42014285Y-59857142D01*
X42071428Y-59914285D01*
X42128571Y-60028571D01*
X42128571Y-60314285D01*
X42071428Y-60428571D01*
X42014285Y-60485714D01*
X41900000Y-60542857D01*
X41614285Y-60542857D01*
X41500000Y-60485714D01*
X41442857Y-60428571D01*
D13*
X65538095Y-76747619D02*
X65585714Y-76700000D01*
X65680952Y-76652380D01*
X65919047Y-76652380D01*
X66014285Y-76700000D01*
X66061904Y-76747619D01*
X66109523Y-76842857D01*
X66109523Y-76938095D01*
X66061904Y-77080952D01*
X65490476Y-77652380D01*
X66109523Y-77652380D01*
X66442857Y-76652380D02*
X67061904Y-76652380D01*
X66728571Y-77033333D01*
X66871428Y-77033333D01*
X66966666Y-77080952D01*
X67014285Y-77128571D01*
X67061904Y-77223809D01*
X67061904Y-77461904D01*
X67014285Y-77557142D01*
X66966666Y-77604761D01*
X66871428Y-77652380D01*
X66585714Y-77652380D01*
X66490476Y-77604761D01*
X66442857Y-77557142D01*
X88976190Y-62652380D02*
X89071428Y-62652380D01*
X89166666Y-62700000D01*
X89214285Y-62747619D01*
X89261904Y-62842857D01*
X89309523Y-63033333D01*
X89309523Y-63271428D01*
X89261904Y-63461904D01*
X89214285Y-63557142D01*
X89166666Y-63604761D01*
X89071428Y-63652380D01*
X88976190Y-63652380D01*
X88880952Y-63604761D01*
X88833333Y-63557142D01*
X88785714Y-63461904D01*
X88738095Y-63271428D01*
X88738095Y-63033333D01*
X88785714Y-62842857D01*
X88833333Y-62747619D01*
X88880952Y-62700000D01*
X88976190Y-62652380D01*
X90166666Y-62652380D02*
X89976190Y-62652380D01*
X89880952Y-62700000D01*
X89833333Y-62747619D01*
X89738095Y-62890476D01*
X89690476Y-63080952D01*
X89690476Y-63461904D01*
X89738095Y-63557142D01*
X89785714Y-63604761D01*
X89880952Y-63652380D01*
X90071428Y-63652380D01*
X90166666Y-63604761D01*
X90214285Y-63557142D01*
X90261904Y-63461904D01*
X90261904Y-63223809D01*
X90214285Y-63128571D01*
X90166666Y-63080952D01*
X90071428Y-63033333D01*
X89880952Y-63033333D01*
X89785714Y-63080952D01*
X89738095Y-63128571D01*
X89690476Y-63223809D01*
X104233333Y-126552380D02*
X104423809Y-126552380D01*
X104519047Y-126504761D01*
X104566666Y-126457142D01*
X104661904Y-126314285D01*
X104709523Y-126123809D01*
X104709523Y-125742857D01*
X104661904Y-125647619D01*
X104614285Y-125600000D01*
X104519047Y-125552380D01*
X104328571Y-125552380D01*
X104233333Y-125600000D01*
X104185714Y-125647619D01*
X104138095Y-125742857D01*
X104138095Y-125980952D01*
X104185714Y-126076190D01*
X104233333Y-126123809D01*
X104328571Y-126171428D01*
X104519047Y-126171428D01*
X104614285Y-126123809D01*
X104661904Y-126076190D01*
X104709523Y-125980952D01*
X105280952Y-125980952D02*
X105185714Y-125933333D01*
X105138095Y-125885714D01*
X105090476Y-125790476D01*
X105090476Y-125742857D01*
X105138095Y-125647619D01*
X105185714Y-125600000D01*
X105280952Y-125552380D01*
X105471428Y-125552380D01*
X105566666Y-125600000D01*
X105614285Y-125647619D01*
X105661904Y-125742857D01*
X105661904Y-125790476D01*
X105614285Y-125885714D01*
X105566666Y-125933333D01*
X105471428Y-125980952D01*
X105280952Y-125980952D01*
X105185714Y-126028571D01*
X105138095Y-126076190D01*
X105090476Y-126171428D01*
X105090476Y-126361904D01*
X105138095Y-126457142D01*
X105185714Y-126504761D01*
X105280952Y-126552380D01*
X105471428Y-126552380D01*
X105566666Y-126504761D01*
X105614285Y-126457142D01*
X105661904Y-126361904D01*
X105661904Y-126171428D01*
X105614285Y-126076190D01*
X105566666Y-126028571D01*
X105471428Y-125980952D01*
X58228571Y-118980952D02*
X58133333Y-118933333D01*
X58085714Y-118885714D01*
X58038095Y-118790476D01*
X58038095Y-118742857D01*
X58085714Y-118647619D01*
X58133333Y-118600000D01*
X58228571Y-118552380D01*
X58419047Y-118552380D01*
X58514285Y-118600000D01*
X58561904Y-118647619D01*
X58609523Y-118742857D01*
X58609523Y-118790476D01*
X58561904Y-118885714D01*
X58514285Y-118933333D01*
X58419047Y-118980952D01*
X58228571Y-118980952D01*
X58133333Y-119028571D01*
X58085714Y-119076190D01*
X58038095Y-119171428D01*
X58038095Y-119361904D01*
X58085714Y-119457142D01*
X58133333Y-119504761D01*
X58228571Y-119552380D01*
X58419047Y-119552380D01*
X58514285Y-119504761D01*
X58561904Y-119457142D01*
X58609523Y-119361904D01*
X58609523Y-119171428D01*
X58561904Y-119076190D01*
X58514285Y-119028571D01*
X58419047Y-118980952D01*
X58990476Y-118647619D02*
X59038095Y-118600000D01*
X59133333Y-118552380D01*
X59371428Y-118552380D01*
X59466666Y-118600000D01*
X59514285Y-118647619D01*
X59561904Y-118742857D01*
X59561904Y-118838095D01*
X59514285Y-118980952D01*
X58942857Y-119552380D01*
X59561904Y-119552380D01*
D14*
X74564285Y-133728571D02*
X73850000Y-133728571D01*
X73850000Y-132228571D01*
D13*
X111828571Y-118980952D02*
X111733333Y-118933333D01*
X111685714Y-118885714D01*
X111638095Y-118790476D01*
X111638095Y-118742857D01*
X111685714Y-118647619D01*
X111733333Y-118600000D01*
X111828571Y-118552380D01*
X112019047Y-118552380D01*
X112114285Y-118600000D01*
X112161904Y-118647619D01*
X112209523Y-118742857D01*
X112209523Y-118790476D01*
X112161904Y-118885714D01*
X112114285Y-118933333D01*
X112019047Y-118980952D01*
X111828571Y-118980952D01*
X111733333Y-119028571D01*
X111685714Y-119076190D01*
X111638095Y-119171428D01*
X111638095Y-119361904D01*
X111685714Y-119457142D01*
X111733333Y-119504761D01*
X111828571Y-119552380D01*
X112019047Y-119552380D01*
X112114285Y-119504761D01*
X112161904Y-119457142D01*
X112209523Y-119361904D01*
X112209523Y-119171428D01*
X112161904Y-119076190D01*
X112114285Y-119028571D01*
X112019047Y-118980952D01*
X112685714Y-119552380D02*
X112876190Y-119552380D01*
X112971428Y-119504761D01*
X113019047Y-119457142D01*
X113114285Y-119314285D01*
X113161904Y-119123809D01*
X113161904Y-118742857D01*
X113114285Y-118647619D01*
X113066666Y-118600000D01*
X112971428Y-118552380D01*
X112780952Y-118552380D01*
X112685714Y-118600000D01*
X112638095Y-118647619D01*
X112590476Y-118742857D01*
X112590476Y-118980952D01*
X112638095Y-119076190D01*
X112685714Y-119123809D01*
X112780952Y-119171428D01*
X112971428Y-119171428D01*
X113066666Y-119123809D01*
X113114285Y-119076190D01*
X113161904Y-118980952D01*
D14*
X85784285Y-133738571D02*
X85284285Y-133024285D01*
X84927142Y-133738571D02*
X84927142Y-132238571D01*
X85498571Y-132238571D01*
X85641428Y-132310000D01*
X85712857Y-132381428D01*
X85784285Y-132524285D01*
X85784285Y-132738571D01*
X85712857Y-132881428D01*
X85641428Y-132952857D01*
X85498571Y-133024285D01*
X84927142Y-133024285D01*
D13*
X58476190Y-62552380D02*
X58571428Y-62552380D01*
X58666666Y-62600000D01*
X58714285Y-62647619D01*
X58761904Y-62742857D01*
X58809523Y-62933333D01*
X58809523Y-63171428D01*
X58761904Y-63361904D01*
X58714285Y-63457142D01*
X58666666Y-63504761D01*
X58571428Y-63552380D01*
X58476190Y-63552380D01*
X58380952Y-63504761D01*
X58333333Y-63457142D01*
X58285714Y-63361904D01*
X58238095Y-63171428D01*
X58238095Y-62933333D01*
X58285714Y-62742857D01*
X58333333Y-62647619D01*
X58380952Y-62600000D01*
X58476190Y-62552380D01*
X59190476Y-62647619D02*
X59238095Y-62600000D01*
X59333333Y-62552380D01*
X59571428Y-62552380D01*
X59666666Y-62600000D01*
X59714285Y-62647619D01*
X59761904Y-62742857D01*
X59761904Y-62838095D01*
X59714285Y-62980952D01*
X59142857Y-63552380D01*
X59761904Y-63552380D01*
X73814285Y-104652380D02*
X73623809Y-104652380D01*
X73528571Y-104700000D01*
X73480952Y-104747619D01*
X73385714Y-104890476D01*
X73338095Y-105080952D01*
X73338095Y-105461904D01*
X73385714Y-105557142D01*
X73433333Y-105604761D01*
X73528571Y-105652380D01*
X73719047Y-105652380D01*
X73814285Y-105604761D01*
X73861904Y-105557142D01*
X73909523Y-105461904D01*
X73909523Y-105223809D01*
X73861904Y-105128571D01*
X73814285Y-105080952D01*
X73719047Y-105033333D01*
X73528571Y-105033333D01*
X73433333Y-105080952D01*
X73385714Y-105128571D01*
X73338095Y-105223809D01*
X74766666Y-104985714D02*
X74766666Y-105652380D01*
X74528571Y-104604761D02*
X74290476Y-105319047D01*
X74909523Y-105319047D01*
X103690476Y-83752380D02*
X104309523Y-83752380D01*
X103976190Y-84133333D01*
X104119047Y-84133333D01*
X104214285Y-84180952D01*
X104261904Y-84228571D01*
X104309523Y-84323809D01*
X104309523Y-84561904D01*
X104261904Y-84657142D01*
X104214285Y-84704761D01*
X104119047Y-84752380D01*
X103833333Y-84752380D01*
X103738095Y-84704761D01*
X103690476Y-84657142D01*
X104880952Y-84180952D02*
X104785714Y-84133333D01*
X104738095Y-84085714D01*
X104690476Y-83990476D01*
X104690476Y-83942857D01*
X104738095Y-83847619D01*
X104785714Y-83800000D01*
X104880952Y-83752380D01*
X105071428Y-83752380D01*
X105166666Y-83800000D01*
X105214285Y-83847619D01*
X105261904Y-83942857D01*
X105261904Y-83990476D01*
X105214285Y-84085714D01*
X105166666Y-84133333D01*
X105071428Y-84180952D01*
X104880952Y-84180952D01*
X104785714Y-84228571D01*
X104738095Y-84276190D01*
X104690476Y-84371428D01*
X104690476Y-84561904D01*
X104738095Y-84657142D01*
X104785714Y-84704761D01*
X104880952Y-84752380D01*
X105071428Y-84752380D01*
X105166666Y-84704761D01*
X105214285Y-84657142D01*
X105261904Y-84561904D01*
X105261904Y-84371428D01*
X105214285Y-84276190D01*
X105166666Y-84228571D01*
X105071428Y-84180952D01*
X73909523Y-70652380D02*
X73338095Y-70652380D01*
X73623809Y-70652380D02*
X73623809Y-69652380D01*
X73528571Y-69795238D01*
X73433333Y-69890476D01*
X73338095Y-69938095D01*
X74766666Y-69985714D02*
X74766666Y-70652380D01*
X74528571Y-69604761D02*
X74290476Y-70319047D01*
X74909523Y-70319047D01*
G04 #@! TO.C,D5*
X65515714Y-50678380D02*
X64944285Y-50678380D01*
X65230000Y-50678380D02*
X65230000Y-49678380D01*
X65134761Y-49821238D01*
X65039523Y-49916476D01*
X64944285Y-49964095D01*
G04 #@! TO.C,D6*
X73115714Y-50628380D02*
X72544285Y-50628380D01*
X72830000Y-50628380D02*
X72830000Y-49628380D01*
X72734761Y-49771238D01*
X72639523Y-49866476D01*
X72544285Y-49914095D01*
G04 #@! TO.C,D3*
X50289714Y-50728380D02*
X49718285Y-50728380D01*
X50004000Y-50728380D02*
X50004000Y-49728380D01*
X49908761Y-49871238D01*
X49813523Y-49966476D01*
X49718285Y-50014095D01*
G04 #@! TO.C,D4*
X57915714Y-50698380D02*
X57344285Y-50698380D01*
X57630000Y-50698380D02*
X57630000Y-49698380D01*
X57534761Y-49841238D01*
X57439523Y-49936476D01*
X57344285Y-49984095D01*
G04 #@! TO.C,D14*
X65515714Y-61635380D02*
X64944285Y-61635380D01*
X65230000Y-61635380D02*
X65230000Y-60635380D01*
X65134761Y-60778238D01*
X65039523Y-60873476D01*
X64944285Y-60921095D01*
G04 #@! TO.C,D13*
X57915714Y-61652380D02*
X57344285Y-61652380D01*
X57630000Y-61652380D02*
X57630000Y-60652380D01*
X57534761Y-60795238D01*
X57439523Y-60890476D01*
X57344285Y-60938095D01*
G04 #@! TO.C,D15*
X73115714Y-61635380D02*
X72544285Y-61635380D01*
X72830000Y-61635380D02*
X72830000Y-60635380D01*
X72734761Y-60778238D01*
X72639523Y-60873476D01*
X72544285Y-60921095D01*
G04 #@! TO.C,D12*
X50322714Y-61635380D02*
X49751285Y-61635380D01*
X50037000Y-61635380D02*
X50037000Y-60635380D01*
X49941761Y-60778238D01*
X49846523Y-60873476D01*
X49751285Y-60921095D01*
G04 #@! TO.C,D110*
X103515714Y-124632380D02*
X102944285Y-124632380D01*
X103230000Y-124632380D02*
X103230000Y-123632380D01*
X103134761Y-123775238D01*
X103039523Y-123870476D01*
X102944285Y-123918095D01*
G04 #@! TO.C,D111*
X111115714Y-124632380D02*
X110544285Y-124632380D01*
X110830000Y-124632380D02*
X110830000Y-123632380D01*
X110734761Y-123775238D01*
X110639523Y-123870476D01*
X110544285Y-123918095D01*
G04 #@! TO.C,D108*
X88315714Y-124592380D02*
X87744285Y-124592380D01*
X88030000Y-124592380D02*
X88030000Y-123592380D01*
X87934761Y-123735238D01*
X87839523Y-123830476D01*
X87744285Y-123878095D01*
G04 #@! TO.C,D105*
X65515714Y-124592380D02*
X64944285Y-124592380D01*
X65230000Y-124592380D02*
X65230000Y-123592380D01*
X65134761Y-123735238D01*
X65039523Y-123830476D01*
X64944285Y-123878095D01*
G04 #@! TO.C,D106*
X73115714Y-124592380D02*
X72544285Y-124592380D01*
X72830000Y-124592380D02*
X72830000Y-123592380D01*
X72734761Y-123735238D01*
X72639523Y-123830476D01*
X72544285Y-123878095D01*
G04 #@! TO.C,D107*
X80715714Y-124592380D02*
X80144285Y-124592380D01*
X80430000Y-124592380D02*
X80430000Y-123592380D01*
X80334761Y-123735238D01*
X80239523Y-123830476D01*
X80144285Y-123878095D01*
G04 #@! TO.C,D109*
X95915714Y-124612380D02*
X95344285Y-124612380D01*
X95630000Y-124612380D02*
X95630000Y-123612380D01*
X95534761Y-123755238D01*
X95439523Y-123850476D01*
X95344285Y-123898095D01*
G04 #@! TO.C,D112*
X118715714Y-124632380D02*
X118144285Y-124632380D01*
X118430000Y-124632380D02*
X118430000Y-123632380D01*
X118334761Y-123775238D01*
X118239523Y-123870476D01*
X118144285Y-123918095D01*
G04 #@! TO.C,D26*
X80715714Y-68652380D02*
X80144285Y-68652380D01*
X80430000Y-68652380D02*
X80430000Y-67652380D01*
X80334761Y-67795238D01*
X80239523Y-67890476D01*
X80144285Y-67938095D01*
G04 #@! TO.C,D18*
X95915714Y-61652380D02*
X95344285Y-61652380D01*
X95630000Y-61652380D02*
X95630000Y-60652380D01*
X95534761Y-60795238D01*
X95439523Y-60890476D01*
X95344285Y-60938095D01*
G04 #@! TO.C,D21*
X118715714Y-61642380D02*
X118144285Y-61642380D01*
X118430000Y-61642380D02*
X118430000Y-60642380D01*
X118334761Y-60785238D01*
X118239523Y-60880476D01*
X118144285Y-60928095D01*
G04 #@! TO.C,D28*
X95915714Y-68702380D02*
X95344285Y-68702380D01*
X95630000Y-68702380D02*
X95630000Y-67702380D01*
X95534761Y-67845238D01*
X95439523Y-67940476D01*
X95344285Y-67988095D01*
G04 #@! TO.C,D24*
X65515714Y-68672380D02*
X64944285Y-68672380D01*
X65230000Y-68672380D02*
X65230000Y-67672380D01*
X65134761Y-67815238D01*
X65039523Y-67910476D01*
X64944285Y-67958095D01*
G04 #@! TO.C,D16*
X80715714Y-61652380D02*
X80144285Y-61652380D01*
X80430000Y-61652380D02*
X80430000Y-60652380D01*
X80334761Y-60795238D01*
X80239523Y-60890476D01*
X80144285Y-60938095D01*
G04 #@! TO.C,D23*
X57915714Y-68672380D02*
X57344285Y-68672380D01*
X57630000Y-68672380D02*
X57630000Y-67672380D01*
X57534761Y-67815238D01*
X57439523Y-67910476D01*
X57344285Y-67958095D01*
G04 #@! TO.C,D20*
X111115714Y-61642380D02*
X110544285Y-61642380D01*
X110830000Y-61642380D02*
X110830000Y-60642380D01*
X110734761Y-60785238D01*
X110639523Y-60880476D01*
X110544285Y-60928095D01*
G04 #@! TO.C,D25*
X73115714Y-68672380D02*
X72544285Y-68672380D01*
X72830000Y-68672380D02*
X72830000Y-67672380D01*
X72734761Y-67815238D01*
X72639523Y-67910476D01*
X72544285Y-67958095D01*
G04 #@! TO.C,D29*
X103515714Y-68712380D02*
X102944285Y-68712380D01*
X103230000Y-68712380D02*
X103230000Y-67712380D01*
X103134761Y-67855238D01*
X103039523Y-67950476D01*
X102944285Y-67998095D01*
G04 #@! TO.C,D27*
X88315714Y-68692380D02*
X87744285Y-68692380D01*
X88030000Y-68692380D02*
X88030000Y-67692380D01*
X87934761Y-67835238D01*
X87839523Y-67930476D01*
X87744285Y-67978095D01*
G04 #@! TO.C,D17*
X88315714Y-61652380D02*
X87744285Y-61652380D01*
X88030000Y-61652380D02*
X88030000Y-60652380D01*
X87934761Y-60795238D01*
X87839523Y-60890476D01*
X87744285Y-60938095D01*
G04 #@! TO.C,D22*
X50315714Y-68672380D02*
X49744285Y-68672380D01*
X50030000Y-68672380D02*
X50030000Y-67672380D01*
X49934761Y-67815238D01*
X49839523Y-67910476D01*
X49744285Y-67958095D01*
G04 #@! TO.C,D19*
X103515714Y-61652380D02*
X102944285Y-61652380D01*
X103230000Y-61652380D02*
X103230000Y-60652380D01*
X103134761Y-60795238D01*
X103039523Y-60890476D01*
X102944285Y-60938095D01*
G04 #@! TO.C,D31*
X118715714Y-68652380D02*
X118144285Y-68652380D01*
X118430000Y-68652380D02*
X118430000Y-67652380D01*
X118334761Y-67795238D01*
X118239523Y-67890476D01*
X118144285Y-67938095D01*
G04 #@! TO.C,D30*
X111115714Y-68652380D02*
X110544285Y-68652380D01*
X110830000Y-68652380D02*
X110830000Y-67652380D01*
X110734761Y-67795238D01*
X110639523Y-67890476D01*
X110544285Y-67938095D01*
G04 #@! TO.C,D36*
X80715714Y-75722380D02*
X80144285Y-75722380D01*
X80430000Y-75722380D02*
X80430000Y-74722380D01*
X80334761Y-74865238D01*
X80239523Y-74960476D01*
X80144285Y-75008095D01*
G04 #@! TO.C,D38*
X95915714Y-75752380D02*
X95344285Y-75752380D01*
X95630000Y-75752380D02*
X95630000Y-74752380D01*
X95534761Y-74895238D01*
X95439523Y-74990476D01*
X95344285Y-75038095D01*
G04 #@! TO.C,D48*
X95915714Y-82752380D02*
X95344285Y-82752380D01*
X95630000Y-82752380D02*
X95630000Y-81752380D01*
X95534761Y-81895238D01*
X95439523Y-81990476D01*
X95344285Y-82038095D01*
G04 #@! TO.C,D32*
X50315714Y-75712380D02*
X49744285Y-75712380D01*
X50030000Y-75712380D02*
X50030000Y-74712380D01*
X49934761Y-74855238D01*
X49839523Y-74950476D01*
X49744285Y-74998095D01*
G04 #@! TO.C,D41*
X118715714Y-75752380D02*
X118144285Y-75752380D01*
X118430000Y-75752380D02*
X118430000Y-74752380D01*
X118334761Y-74895238D01*
X118239523Y-74990476D01*
X118144285Y-75038095D01*
G04 #@! TO.C,D47*
X88315714Y-82752380D02*
X87744285Y-82752380D01*
X88030000Y-82752380D02*
X88030000Y-81752380D01*
X87934761Y-81895238D01*
X87839523Y-81990476D01*
X87744285Y-82038095D01*
G04 #@! TO.C,D37*
X88375714Y-75702380D02*
X87804285Y-75702380D01*
X88090000Y-75702380D02*
X88090000Y-74702380D01*
X87994761Y-74845238D01*
X87899523Y-74940476D01*
X87804285Y-74988095D01*
G04 #@! TO.C,D46*
X80715714Y-82752380D02*
X80144285Y-82752380D01*
X80430000Y-82752380D02*
X80430000Y-81752380D01*
X80334761Y-81895238D01*
X80239523Y-81990476D01*
X80144285Y-82038095D01*
G04 #@! TO.C,D40*
X111115714Y-75752380D02*
X110544285Y-75752380D01*
X110830000Y-75752380D02*
X110830000Y-74752380D01*
X110734761Y-74895238D01*
X110639523Y-74990476D01*
X110544285Y-75038095D01*
G04 #@! TO.C,D34*
X65515714Y-75732380D02*
X64944285Y-75732380D01*
X65230000Y-75732380D02*
X65230000Y-74732380D01*
X65134761Y-74875238D01*
X65039523Y-74970476D01*
X64944285Y-75018095D01*
G04 #@! TO.C,D33*
X57915714Y-75722380D02*
X57344285Y-75722380D01*
X57630000Y-75722380D02*
X57630000Y-74722380D01*
X57534761Y-74865238D01*
X57439523Y-74960476D01*
X57344285Y-75008095D01*
G04 #@! TO.C,D43*
X57915714Y-82742380D02*
X57344285Y-82742380D01*
X57630000Y-82742380D02*
X57630000Y-81742380D01*
X57534761Y-81885238D01*
X57439523Y-81980476D01*
X57344285Y-82028095D01*
G04 #@! TO.C,D49*
X103515714Y-82752380D02*
X102944285Y-82752380D01*
X103230000Y-82752380D02*
X103230000Y-81752380D01*
X103134761Y-81895238D01*
X103039523Y-81990476D01*
X102944285Y-82038095D01*
G04 #@! TO.C,D35*
X73115714Y-75722380D02*
X72544285Y-75722380D01*
X72830000Y-75722380D02*
X72830000Y-74722380D01*
X72734761Y-74865238D01*
X72639523Y-74960476D01*
X72544285Y-75008095D01*
G04 #@! TO.C,D39*
X103515714Y-75752380D02*
X102944285Y-75752380D01*
X103230000Y-75752380D02*
X103230000Y-74752380D01*
X103134761Y-74895238D01*
X103039523Y-74990476D01*
X102944285Y-75038095D01*
G04 #@! TO.C,D42*
X50315714Y-82742380D02*
X49744285Y-82742380D01*
X50030000Y-82742380D02*
X50030000Y-81742380D01*
X49934761Y-81885238D01*
X49839523Y-81980476D01*
X49744285Y-82028095D01*
G04 #@! TO.C,D44*
X65515714Y-82752380D02*
X64944285Y-82752380D01*
X65230000Y-82752380D02*
X65230000Y-81752380D01*
X65134761Y-81895238D01*
X65039523Y-81990476D01*
X64944285Y-82038095D01*
G04 #@! TO.C,D45*
X73115714Y-82752380D02*
X72544285Y-82752380D01*
X72830000Y-82752380D02*
X72830000Y-81752380D01*
X72734761Y-81895238D01*
X72639523Y-81990476D01*
X72544285Y-82038095D01*
G04 #@! TO.C,D79*
X103515714Y-103752380D02*
X102944285Y-103752380D01*
X103230000Y-103752380D02*
X103230000Y-102752380D01*
X103134761Y-102895238D01*
X103039523Y-102990476D01*
X102944285Y-103038095D01*
G04 #@! TO.C,D69*
X103515714Y-96752380D02*
X102944285Y-96752380D01*
X103230000Y-96752380D02*
X103230000Y-95752380D01*
X103134761Y-95895238D01*
X103039523Y-95990476D01*
X102944285Y-96038095D01*
G04 #@! TO.C,D73*
X57915714Y-103732380D02*
X57344285Y-103732380D01*
X57630000Y-103732380D02*
X57630000Y-102732380D01*
X57534761Y-102875238D01*
X57439523Y-102970476D01*
X57344285Y-103018095D01*
G04 #@! TO.C,D81*
X118715714Y-103752380D02*
X118144285Y-103752380D01*
X118430000Y-103752380D02*
X118430000Y-102752380D01*
X118334761Y-102895238D01*
X118239523Y-102990476D01*
X118144285Y-103038095D01*
G04 #@! TO.C,D85*
X73115714Y-110642380D02*
X72544285Y-110642380D01*
X72830000Y-110642380D02*
X72830000Y-109642380D01*
X72734761Y-109785238D01*
X72639523Y-109880476D01*
X72544285Y-109928095D01*
G04 #@! TO.C,D82*
X50315714Y-110722380D02*
X49744285Y-110722380D01*
X50030000Y-110722380D02*
X50030000Y-109722380D01*
X49934761Y-109865238D01*
X49839523Y-109960476D01*
X49744285Y-110008095D01*
G04 #@! TO.C,D68*
X95915714Y-96752380D02*
X95344285Y-96752380D01*
X95630000Y-96752380D02*
X95630000Y-95752380D01*
X95534761Y-95895238D01*
X95439523Y-95990476D01*
X95344285Y-96038095D01*
G04 #@! TO.C,D70*
X111115714Y-96752380D02*
X110544285Y-96752380D01*
X110830000Y-96752380D02*
X110830000Y-95752380D01*
X110734761Y-95895238D01*
X110639523Y-95990476D01*
X110544285Y-96038095D01*
G04 #@! TO.C,D83*
X57915714Y-110682380D02*
X57344285Y-110682380D01*
X57630000Y-110682380D02*
X57630000Y-109682380D01*
X57534761Y-109825238D01*
X57439523Y-109920476D01*
X57344285Y-109968095D01*
G04 #@! TO.C,D77*
X88315714Y-103752380D02*
X87744285Y-103752380D01*
X88030000Y-103752380D02*
X88030000Y-102752380D01*
X87934761Y-102895238D01*
X87839523Y-102990476D01*
X87744285Y-103038095D01*
G04 #@! TO.C,D80*
X111115714Y-103752380D02*
X110544285Y-103752380D01*
X110830000Y-103752380D02*
X110830000Y-102752380D01*
X110734761Y-102895238D01*
X110639523Y-102990476D01*
X110544285Y-103038095D01*
G04 #@! TO.C,D71*
X118715714Y-96752380D02*
X118144285Y-96752380D01*
X118430000Y-96752380D02*
X118430000Y-95752380D01*
X118334761Y-95895238D01*
X118239523Y-95990476D01*
X118144285Y-96038095D01*
G04 #@! TO.C,D72*
X50315714Y-103752380D02*
X49744285Y-103752380D01*
X50030000Y-103752380D02*
X50030000Y-102752380D01*
X49934761Y-102895238D01*
X49839523Y-102990476D01*
X49744285Y-103038095D01*
G04 #@! TO.C,D75*
X73115714Y-103752380D02*
X72544285Y-103752380D01*
X72830000Y-103752380D02*
X72830000Y-102752380D01*
X72734761Y-102895238D01*
X72639523Y-102990476D01*
X72544285Y-103038095D01*
G04 #@! TO.C,D76*
X80715714Y-103752380D02*
X80144285Y-103752380D01*
X80430000Y-103752380D02*
X80430000Y-102752380D01*
X80334761Y-102895238D01*
X80239523Y-102990476D01*
X80144285Y-103038095D01*
G04 #@! TO.C,D78*
X95915714Y-103752380D02*
X95344285Y-103752380D01*
X95630000Y-103752380D02*
X95630000Y-102752380D01*
X95534761Y-102895238D01*
X95439523Y-102990476D01*
X95344285Y-103038095D01*
G04 #@! TO.C,D104*
X57915714Y-124612380D02*
X57344285Y-124612380D01*
X57630000Y-124612380D02*
X57630000Y-123612380D01*
X57534761Y-123755238D01*
X57439523Y-123850476D01*
X57344285Y-123898095D01*
G04 #@! TO.C,D103*
X50315714Y-124622380D02*
X49744285Y-124622380D01*
X50030000Y-124622380D02*
X50030000Y-123622380D01*
X49934761Y-123765238D01*
X49839523Y-123860476D01*
X49744285Y-123908095D01*
G04 #@! TO.C,D91*
X118715714Y-110672380D02*
X118144285Y-110672380D01*
X118430000Y-110672380D02*
X118430000Y-109672380D01*
X118334761Y-109815238D01*
X118239523Y-109910476D01*
X118144285Y-109958095D01*
G04 #@! TO.C,D100*
X103515714Y-117662380D02*
X102944285Y-117662380D01*
X103230000Y-117662380D02*
X103230000Y-116662380D01*
X103134761Y-116805238D01*
X103039523Y-116900476D01*
X102944285Y-116948095D01*
G04 #@! TO.C,D95*
X65515714Y-117682380D02*
X64944285Y-117682380D01*
X65230000Y-117682380D02*
X65230000Y-116682380D01*
X65134761Y-116825238D01*
X65039523Y-116920476D01*
X64944285Y-116968095D01*
G04 #@! TO.C,D90*
X111115714Y-110652380D02*
X110544285Y-110652380D01*
X110830000Y-110652380D02*
X110830000Y-109652380D01*
X110734761Y-109795238D01*
X110639523Y-109890476D01*
X110544285Y-109938095D01*
G04 #@! TO.C,D86*
X80715714Y-110642380D02*
X80144285Y-110642380D01*
X80430000Y-110642380D02*
X80430000Y-109642380D01*
X80334761Y-109785238D01*
X80239523Y-109880476D01*
X80144285Y-109928095D01*
G04 #@! TO.C,D98*
X88315714Y-117672380D02*
X87744285Y-117672380D01*
X88030000Y-117672380D02*
X88030000Y-116672380D01*
X87934761Y-116815238D01*
X87839523Y-116910476D01*
X87744285Y-116958095D01*
G04 #@! TO.C,D101*
X111115714Y-117662380D02*
X110544285Y-117662380D01*
X110830000Y-117662380D02*
X110830000Y-116662380D01*
X110734761Y-116805238D01*
X110639523Y-116900476D01*
X110544285Y-116948095D01*
G04 #@! TO.C,D96*
X73115714Y-117692380D02*
X72544285Y-117692380D01*
X72830000Y-117692380D02*
X72830000Y-116692380D01*
X72734761Y-116835238D01*
X72639523Y-116930476D01*
X72544285Y-116978095D01*
G04 #@! TO.C,D87*
X88315714Y-110632380D02*
X87744285Y-110632380D01*
X88030000Y-110632380D02*
X88030000Y-109632380D01*
X87934761Y-109775238D01*
X87839523Y-109870476D01*
X87744285Y-109918095D01*
G04 #@! TO.C,D94*
X57915714Y-117752380D02*
X57344285Y-117752380D01*
X57630000Y-117752380D02*
X57630000Y-116752380D01*
X57534761Y-116895238D01*
X57439523Y-116990476D01*
X57344285Y-117038095D01*
G04 #@! TO.C,D88*
X95915714Y-110642380D02*
X95344285Y-110642380D01*
X95630000Y-110642380D02*
X95630000Y-109642380D01*
X95534761Y-109785238D01*
X95439523Y-109880476D01*
X95344285Y-109928095D01*
G04 #@! TO.C,D99*
X95915714Y-117682380D02*
X95344285Y-117682380D01*
X95630000Y-117682380D02*
X95630000Y-116682380D01*
X95534761Y-116825238D01*
X95439523Y-116920476D01*
X95344285Y-116968095D01*
G04 #@! TO.C,D93*
X50315714Y-117752380D02*
X49744285Y-117752380D01*
X50030000Y-117752380D02*
X50030000Y-116752380D01*
X49934761Y-116895238D01*
X49839523Y-116990476D01*
X49744285Y-117038095D01*
G04 #@! TO.C,D89*
X103515714Y-110652380D02*
X102944285Y-110652380D01*
X103230000Y-110652380D02*
X103230000Y-109652380D01*
X103134761Y-109795238D01*
X103039523Y-109890476D01*
X102944285Y-109938095D01*
G04 #@! TO.C,D97*
X80715714Y-117682380D02*
X80144285Y-117682380D01*
X80430000Y-117682380D02*
X80430000Y-116682380D01*
X80334761Y-116825238D01*
X80239523Y-116920476D01*
X80144285Y-116968095D01*
G04 #@! TO.C,D102*
X118715714Y-117612380D02*
X118144285Y-117612380D01*
X118430000Y-117612380D02*
X118430000Y-116612380D01*
X118334761Y-116755238D01*
X118239523Y-116850476D01*
X118144285Y-116898095D01*
G04 #@! TO.C,D57*
X88315714Y-89752380D02*
X87744285Y-89752380D01*
X88030000Y-89752380D02*
X88030000Y-88752380D01*
X87934761Y-88895238D01*
X87839523Y-88990476D01*
X87744285Y-89038095D01*
G04 #@! TO.C,D58*
X95915714Y-89752380D02*
X95344285Y-89752380D01*
X95630000Y-89752380D02*
X95630000Y-88752380D01*
X95534761Y-88895238D01*
X95439523Y-88990476D01*
X95344285Y-89038095D01*
G04 #@! TO.C,D62*
X50315714Y-96752380D02*
X49744285Y-96752380D01*
X50030000Y-96752380D02*
X50030000Y-95752380D01*
X49934761Y-95895238D01*
X49839523Y-95990476D01*
X49744285Y-96038095D01*
G04 #@! TO.C,D63*
X57915714Y-96752380D02*
X57344285Y-96752380D01*
X57630000Y-96752380D02*
X57630000Y-95752380D01*
X57534761Y-95895238D01*
X57439523Y-95990476D01*
X57344285Y-96038095D01*
G04 #@! TO.C,D65*
X73115714Y-96752380D02*
X72544285Y-96752380D01*
X72830000Y-96752380D02*
X72830000Y-95752380D01*
X72734761Y-95895238D01*
X72639523Y-95990476D01*
X72544285Y-96038095D01*
G04 #@! TO.C,D50*
X111115714Y-82752380D02*
X110544285Y-82752380D01*
X110830000Y-82752380D02*
X110830000Y-81752380D01*
X110734761Y-81895238D01*
X110639523Y-81990476D01*
X110544285Y-82038095D01*
G04 #@! TO.C,D51*
X118715714Y-82752380D02*
X118144285Y-82752380D01*
X118430000Y-82752380D02*
X118430000Y-81752380D01*
X118334761Y-81895238D01*
X118239523Y-81990476D01*
X118144285Y-82038095D01*
G04 #@! TO.C,D66*
X80715714Y-96722380D02*
X80144285Y-96722380D01*
X80430000Y-96722380D02*
X80430000Y-95722380D01*
X80334761Y-95865238D01*
X80239523Y-95960476D01*
X80144285Y-96008095D01*
G04 #@! TO.C,D55*
X73115714Y-89692380D02*
X72544285Y-89692380D01*
X72830000Y-89692380D02*
X72830000Y-88692380D01*
X72734761Y-88835238D01*
X72639523Y-88930476D01*
X72544285Y-88978095D01*
G04 #@! TO.C,D56*
X80715714Y-89752380D02*
X80144285Y-89752380D01*
X80430000Y-89752380D02*
X80430000Y-88752380D01*
X80334761Y-88895238D01*
X80239523Y-88990476D01*
X80144285Y-89038095D01*
G04 #@! TO.C,D59*
X103515714Y-89752380D02*
X102944285Y-89752380D01*
X103230000Y-89752380D02*
X103230000Y-88752380D01*
X103134761Y-88895238D01*
X103039523Y-88990476D01*
X102944285Y-89038095D01*
G04 #@! TO.C,D64*
X65515714Y-96752380D02*
X64944285Y-96752380D01*
X65230000Y-96752380D02*
X65230000Y-95752380D01*
X65134761Y-95895238D01*
X65039523Y-95990476D01*
X64944285Y-96038095D01*
G04 #@! TO.C,D53*
X57915714Y-89722380D02*
X57344285Y-89722380D01*
X57630000Y-89722380D02*
X57630000Y-88722380D01*
X57534761Y-88865238D01*
X57439523Y-88960476D01*
X57344285Y-89008095D01*
G04 #@! TO.C,D67*
X88315714Y-96752380D02*
X87744285Y-96752380D01*
X88030000Y-96752380D02*
X88030000Y-95752380D01*
X87934761Y-95895238D01*
X87839523Y-95990476D01*
X87744285Y-96038095D01*
G04 #@! TO.C,D61*
X118715714Y-89752380D02*
X118144285Y-89752380D01*
X118430000Y-89752380D02*
X118430000Y-88752380D01*
X118334761Y-88895238D01*
X118239523Y-88990476D01*
X118144285Y-89038095D01*
G04 #@! TO.C,D60*
X111115714Y-89752380D02*
X110544285Y-89752380D01*
X110830000Y-89752380D02*
X110830000Y-88752380D01*
X110734761Y-88895238D01*
X110639523Y-88990476D01*
X110544285Y-89038095D01*
G04 #@! TO.C,D52*
X50315714Y-89722380D02*
X49744285Y-89722380D01*
X50030000Y-89722380D02*
X50030000Y-88722380D01*
X49934761Y-88865238D01*
X49839523Y-88960476D01*
X49744285Y-89008095D01*
G04 #@! TO.C,D54*
X65515714Y-89722380D02*
X64944285Y-89722380D01*
X65230000Y-89722380D02*
X65230000Y-88722380D01*
X65134761Y-88865238D01*
X65039523Y-88960476D01*
X64944285Y-89008095D01*
G04 #@! TO.C,D113*
X80715714Y-50652380D02*
X80144285Y-50652380D01*
X80430000Y-50652380D02*
X80430000Y-49652380D01*
X80334761Y-49795238D01*
X80239523Y-49890476D01*
X80144285Y-49938095D01*
G04 #@! TO.C,D74*
X65535714Y-103752380D02*
X64964285Y-103752380D01*
X65250000Y-103752380D02*
X65250000Y-102752380D01*
X65154761Y-102895238D01*
X65059523Y-102990476D01*
X64964285Y-103038095D01*
G04 #@! TO.C,D84*
X65515714Y-110642380D02*
X64944285Y-110642380D01*
X65230000Y-110642380D02*
X65230000Y-109642380D01*
X65134761Y-109785238D01*
X65039523Y-109880476D01*
X64944285Y-109928095D01*
D10*
G04 #@! TO.C,C8*
X53587836Y-51830000D02*
X53372164Y-51830000D01*
X53587836Y-52550000D02*
X53372164Y-52550000D01*
G04 #@! TO.C,C11*
X55865000Y-130802164D02*
X55865000Y-131017836D01*
X55145000Y-130802164D02*
X55145000Y-131017836D01*
G04 #@! TO.C,C12*
X61540000Y-136192164D02*
X61540000Y-136407836D01*
X62260000Y-136192164D02*
X62260000Y-136407836D01*
G04 #@! TO.C,C13*
X98350000Y-136287164D02*
X98350000Y-136502836D01*
X97630000Y-136287164D02*
X97630000Y-136502836D01*
G04 #@! TO.C,C14*
X121635000Y-136292164D02*
X121635000Y-136507836D01*
X122355000Y-136292164D02*
X122355000Y-136507836D01*
G04 #@! TO.C,C17*
X46040000Y-141692164D02*
X46040000Y-141907836D01*
X45320000Y-141692164D02*
X45320000Y-141907836D01*
G04 #@! TO.C,C18*
X114200000Y-141787164D02*
X114200000Y-142002836D01*
X114920000Y-141787164D02*
X114920000Y-142002836D01*
G04 #@! TO.C,C19*
X115567836Y-131320000D02*
X115352164Y-131320000D01*
X115567836Y-132040000D02*
X115352164Y-132040000D01*
G04 #@! TO.C,C20*
X115567836Y-128740000D02*
X115352164Y-128740000D01*
X115567836Y-129460000D02*
X115352164Y-129460000D01*
G04 #@! TO.C,D5*
X64730000Y-51376000D02*
X57430000Y-51376000D01*
X64730000Y-45876000D02*
X57430000Y-45876000D01*
X57430000Y-45876000D02*
X57430000Y-47026000D01*
G04 #@! TO.C,D6*
X72330000Y-45826000D02*
X65030000Y-45826000D01*
X72330000Y-51326000D02*
X65030000Y-51326000D01*
X65030000Y-45826000D02*
X65030000Y-46976000D01*
G04 #@! TO.C,C9*
X60767836Y-52550000D02*
X60552164Y-52550000D01*
X60767836Y-51830000D02*
X60552164Y-51830000D01*
G04 #@! TO.C,D3*
X42204000Y-45926000D02*
X42204000Y-47076000D01*
X49504000Y-51426000D02*
X42204000Y-51426000D01*
X49504000Y-45926000D02*
X42204000Y-45926000D01*
G04 #@! TO.C,C10*
X68487836Y-51750000D02*
X68272164Y-51750000D01*
X68487836Y-52470000D02*
X68272164Y-52470000D01*
G04 #@! TO.C,D4*
X57130000Y-51396000D02*
X49830000Y-51396000D01*
X57130000Y-45896000D02*
X49830000Y-45896000D01*
X49830000Y-45896000D02*
X49830000Y-47046000D01*
G04 #@! TO.C,C7*
X46047836Y-52550000D02*
X45832164Y-52550000D01*
X46047836Y-51830000D02*
X45832164Y-51830000D01*
G04 #@! TO.C,R5*
X57496359Y-54620000D02*
X57803641Y-54620000D01*
X57496359Y-55380000D02*
X57803641Y-55380000D01*
G04 #@! TO.C,R13*
X64896359Y-55380000D02*
X65203641Y-55380000D01*
X64896359Y-54620000D02*
X65203641Y-54620000D01*
G04 #@! TO.C,C31*
X46187836Y-62740000D02*
X45972164Y-62740000D01*
X46187836Y-63460000D02*
X45972164Y-63460000D01*
G04 #@! TO.C,C32*
X53887836Y-62720000D02*
X53672164Y-62720000D01*
X53887836Y-63440000D02*
X53672164Y-63440000D01*
G04 #@! TO.C,C33*
X61527836Y-62750000D02*
X61312164Y-62750000D01*
X61527836Y-63470000D02*
X61312164Y-63470000D01*
G04 #@! TO.C,D14*
X64730000Y-62333000D02*
X57430000Y-62333000D01*
X57430000Y-56833000D02*
X57430000Y-57983000D01*
X64730000Y-56833000D02*
X57430000Y-56833000D01*
G04 #@! TO.C,C34*
X69087836Y-62720000D02*
X68872164Y-62720000D01*
X69087836Y-63440000D02*
X68872164Y-63440000D01*
G04 #@! TO.C,D13*
X49830000Y-56850000D02*
X49830000Y-58000000D01*
X57130000Y-56850000D02*
X49830000Y-56850000D01*
X57130000Y-62350000D02*
X49830000Y-62350000D01*
G04 #@! TO.C,D15*
X72330000Y-56833000D02*
X65030000Y-56833000D01*
X65030000Y-56833000D02*
X65030000Y-57983000D01*
X72330000Y-62333000D02*
X65030000Y-62333000D01*
G04 #@! TO.C,D12*
X42237000Y-56833000D02*
X42237000Y-57983000D01*
X49537000Y-56833000D02*
X42237000Y-56833000D01*
X49537000Y-62333000D02*
X42237000Y-62333000D01*
G04 #@! TO.C,D110*
X102730000Y-119830000D02*
X95430000Y-119830000D01*
X95430000Y-119830000D02*
X95430000Y-120980000D01*
X102730000Y-125330000D02*
X95430000Y-125330000D01*
G04 #@! TO.C,D111*
X110330000Y-119830000D02*
X103030000Y-119830000D01*
X103030000Y-119830000D02*
X103030000Y-120980000D01*
X110330000Y-125330000D02*
X103030000Y-125330000D01*
G04 #@! TO.C,D108*
X87530000Y-119790000D02*
X80230000Y-119790000D01*
X87530000Y-125290000D02*
X80230000Y-125290000D01*
X80230000Y-119790000D02*
X80230000Y-120940000D01*
G04 #@! TO.C,D105*
X64730000Y-119790000D02*
X57430000Y-119790000D01*
X64730000Y-125290000D02*
X57430000Y-125290000D01*
X57430000Y-119790000D02*
X57430000Y-120940000D01*
G04 #@! TO.C,D106*
X72330000Y-125290000D02*
X65030000Y-125290000D01*
X65030000Y-119790000D02*
X65030000Y-120940000D01*
X72330000Y-119790000D02*
X65030000Y-119790000D01*
G04 #@! TO.C,D107*
X72630000Y-119790000D02*
X72630000Y-120940000D01*
X79930000Y-125290000D02*
X72630000Y-125290000D01*
X79930000Y-119790000D02*
X72630000Y-119790000D01*
G04 #@! TO.C,D109*
X95130000Y-125310000D02*
X87830000Y-125310000D01*
X87830000Y-119810000D02*
X87830000Y-120960000D01*
X95130000Y-119810000D02*
X87830000Y-119810000D01*
G04 #@! TO.C,D112*
X117930000Y-125330000D02*
X110630000Y-125330000D01*
X110630000Y-119830000D02*
X110630000Y-120980000D01*
X117930000Y-119830000D02*
X110630000Y-119830000D01*
G04 #@! TO.C,C21*
X114587836Y-63420000D02*
X114372164Y-63420000D01*
X114587836Y-62700000D02*
X114372164Y-62700000D01*
G04 #@! TO.C,C15*
X99387836Y-63460000D02*
X99172164Y-63460000D01*
X99387836Y-62740000D02*
X99172164Y-62740000D01*
G04 #@! TO.C,C6*
X91887836Y-62740000D02*
X91672164Y-62740000D01*
X91887836Y-63460000D02*
X91672164Y-63460000D01*
G04 #@! TO.C,C42*
X99387836Y-69740000D02*
X99172164Y-69740000D01*
X99387836Y-70460000D02*
X99172164Y-70460000D01*
G04 #@! TO.C,C35*
X46307836Y-70540000D02*
X46092164Y-70540000D01*
X46307836Y-69820000D02*
X46092164Y-69820000D01*
G04 #@! TO.C,C44*
X114487836Y-69740000D02*
X114272164Y-69740000D01*
X114487836Y-70460000D02*
X114272164Y-70460000D01*
G04 #@! TO.C,C37*
X61587836Y-70460000D02*
X61372164Y-70460000D01*
X61587836Y-69740000D02*
X61372164Y-69740000D01*
G04 #@! TO.C,C39*
X76567836Y-70460000D02*
X76352164Y-70460000D01*
X76567836Y-69740000D02*
X76352164Y-69740000D01*
G04 #@! TO.C,C40*
X84287836Y-69770000D02*
X84072164Y-69770000D01*
X84287836Y-70490000D02*
X84072164Y-70490000D01*
G04 #@! TO.C,C50*
X84167836Y-77460000D02*
X83952164Y-77460000D01*
X84167836Y-76740000D02*
X83952164Y-76740000D01*
G04 #@! TO.C,C41*
X91887836Y-69740000D02*
X91672164Y-69740000D01*
X91887836Y-70460000D02*
X91672164Y-70460000D01*
G04 #@! TO.C,C49*
X76537836Y-76740000D02*
X76322164Y-76740000D01*
X76537836Y-77460000D02*
X76322164Y-77460000D01*
G04 #@! TO.C,C3*
X84187836Y-63460000D02*
X83972164Y-63460000D01*
X84187836Y-62740000D02*
X83972164Y-62740000D01*
G04 #@! TO.C,C36*
X53887836Y-69720000D02*
X53672164Y-69720000D01*
X53887836Y-70440000D02*
X53672164Y-70440000D01*
G04 #@! TO.C,C38*
X68987836Y-70460000D02*
X68772164Y-70460000D01*
X68987836Y-69740000D02*
X68772164Y-69740000D01*
G04 #@! TO.C,C46*
X53887836Y-77460000D02*
X53672164Y-77460000D01*
X53887836Y-76740000D02*
X53672164Y-76740000D01*
G04 #@! TO.C,C47*
X61397836Y-76780000D02*
X61182164Y-76780000D01*
X61397836Y-77500000D02*
X61182164Y-77500000D01*
G04 #@! TO.C,C48*
X68937836Y-76820000D02*
X68722164Y-76820000D01*
X68937836Y-77540000D02*
X68722164Y-77540000D01*
G04 #@! TO.C,C2*
X76787836Y-63380000D02*
X76572164Y-63380000D01*
X76787836Y-62660000D02*
X76572164Y-62660000D01*
G04 #@! TO.C,C16*
X106987836Y-62730000D02*
X106772164Y-62730000D01*
X106987836Y-63450000D02*
X106772164Y-63450000D01*
G04 #@! TO.C,C45*
X46307836Y-77520000D02*
X46092164Y-77520000D01*
X46307836Y-76800000D02*
X46092164Y-76800000D01*
G04 #@! TO.C,C43*
X107087836Y-69740000D02*
X106872164Y-69740000D01*
X107087836Y-70460000D02*
X106872164Y-70460000D01*
G04 #@! TO.C,C76*
X53787836Y-97840000D02*
X53572164Y-97840000D01*
X53787836Y-98560000D02*
X53572164Y-98560000D01*
G04 #@! TO.C,C70*
X84287836Y-91490000D02*
X84072164Y-91490000D01*
X84287836Y-90770000D02*
X84072164Y-90770000D01*
G04 #@! TO.C,C67*
X61467836Y-90780000D02*
X61252164Y-90780000D01*
X61467836Y-91500000D02*
X61252164Y-91500000D01*
G04 #@! TO.C,C69*
X76587836Y-90740000D02*
X76372164Y-90740000D01*
X76587836Y-91460000D02*
X76372164Y-91460000D01*
G04 #@! TO.C,C79*
X76687836Y-97780000D02*
X76472164Y-97780000D01*
X76687836Y-98500000D02*
X76472164Y-98500000D01*
G04 #@! TO.C,C84*
X114587836Y-98460000D02*
X114372164Y-98460000D01*
X114587836Y-97740000D02*
X114372164Y-97740000D01*
G04 #@! TO.C,C81*
X91787836Y-97740000D02*
X91572164Y-97740000D01*
X91787836Y-98460000D02*
X91572164Y-98460000D01*
G04 #@! TO.C,C83*
X106987836Y-98460000D02*
X106772164Y-98460000D01*
X106987836Y-97740000D02*
X106772164Y-97740000D01*
G04 #@! TO.C,C86*
X53907836Y-104790000D02*
X53692164Y-104790000D01*
X53907836Y-105510000D02*
X53692164Y-105510000D01*
G04 #@! TO.C,C72*
X99387836Y-90740000D02*
X99172164Y-90740000D01*
X99387836Y-91460000D02*
X99172164Y-91460000D01*
G04 #@! TO.C,C68*
X68987836Y-90740000D02*
X68772164Y-90740000D01*
X68987836Y-91460000D02*
X68772164Y-91460000D01*
G04 #@! TO.C,C80*
X84287836Y-98490000D02*
X84072164Y-98490000D01*
X84287836Y-97770000D02*
X84072164Y-97770000D01*
G04 #@! TO.C,C62*
X99387836Y-84460000D02*
X99172164Y-84460000D01*
X99387836Y-83740000D02*
X99172164Y-83740000D01*
G04 #@! TO.C,C61*
X91867836Y-84460000D02*
X91652164Y-84460000D01*
X91867836Y-83740000D02*
X91652164Y-83740000D01*
G04 #@! TO.C,C51*
X91727836Y-76770000D02*
X91512164Y-76770000D01*
X91727836Y-77490000D02*
X91512164Y-77490000D01*
G04 #@! TO.C,C52*
X99417836Y-77480000D02*
X99202164Y-77480000D01*
X99417836Y-76760000D02*
X99202164Y-76760000D01*
G04 #@! TO.C,C53*
X107037836Y-76740000D02*
X106822164Y-76740000D01*
X107037836Y-77460000D02*
X106822164Y-77460000D01*
G04 #@! TO.C,C54*
X114587836Y-76740000D02*
X114372164Y-76740000D01*
X114587836Y-77460000D02*
X114372164Y-77460000D01*
G04 #@! TO.C,C66*
X53787836Y-91560000D02*
X53572164Y-91560000D01*
X53787836Y-90840000D02*
X53572164Y-90840000D01*
G04 #@! TO.C,C78*
X69217836Y-98480000D02*
X69002164Y-98480000D01*
X69217836Y-97760000D02*
X69002164Y-97760000D01*
G04 #@! TO.C,C73*
X106987836Y-91460000D02*
X106772164Y-91460000D01*
X106987836Y-90740000D02*
X106772164Y-90740000D01*
G04 #@! TO.C,C74*
X114467836Y-91460000D02*
X114252164Y-91460000D01*
X114467836Y-90740000D02*
X114252164Y-90740000D01*
G04 #@! TO.C,C85*
X46287836Y-104840000D02*
X46072164Y-104840000D01*
X46287836Y-105560000D02*
X46072164Y-105560000D01*
G04 #@! TO.C,C75*
X46207836Y-97840000D02*
X45992164Y-97840000D01*
X46207836Y-98560000D02*
X45992164Y-98560000D01*
G04 #@! TO.C,C77*
X61387836Y-97840000D02*
X61172164Y-97840000D01*
X61387836Y-98560000D02*
X61172164Y-98560000D01*
G04 #@! TO.C,C55*
X46187836Y-83840000D02*
X45972164Y-83840000D01*
X46187836Y-84560000D02*
X45972164Y-84560000D01*
G04 #@! TO.C,C56*
X53887836Y-83830000D02*
X53672164Y-83830000D01*
X53887836Y-84550000D02*
X53672164Y-84550000D01*
G04 #@! TO.C,C58*
X68987836Y-83740000D02*
X68772164Y-83740000D01*
X68987836Y-84460000D02*
X68772164Y-84460000D01*
G04 #@! TO.C,C59*
X76507836Y-84460000D02*
X76292164Y-84460000D01*
X76507836Y-83740000D02*
X76292164Y-83740000D01*
G04 #@! TO.C,C63*
X106967836Y-83740000D02*
X106752164Y-83740000D01*
X106967836Y-84460000D02*
X106752164Y-84460000D01*
G04 #@! TO.C,C57*
X61467836Y-83790000D02*
X61252164Y-83790000D01*
X61467836Y-84510000D02*
X61252164Y-84510000D01*
G04 #@! TO.C,C60*
X84187836Y-84560000D02*
X83972164Y-84560000D01*
X84187836Y-83840000D02*
X83972164Y-83840000D01*
G04 #@! TO.C,C64*
X114407836Y-84450000D02*
X114192164Y-84450000D01*
X114407836Y-83730000D02*
X114192164Y-83730000D01*
G04 #@! TO.C,C65*
X46187836Y-91560000D02*
X45972164Y-91560000D01*
X46187836Y-90840000D02*
X45972164Y-90840000D01*
G04 #@! TO.C,C71*
X91787836Y-90740000D02*
X91572164Y-90740000D01*
X91787836Y-91460000D02*
X91572164Y-91460000D01*
G04 #@! TO.C,C82*
X99387836Y-98460000D02*
X99172164Y-98460000D01*
X99387836Y-97740000D02*
X99172164Y-97740000D01*
G04 #@! TO.C,C88*
X68987836Y-104740000D02*
X68772164Y-104740000D01*
X68987836Y-105460000D02*
X68772164Y-105460000D01*
G04 #@! TO.C,C95*
X46187836Y-112530000D02*
X45972164Y-112530000D01*
X46187836Y-111810000D02*
X45972164Y-111810000D01*
G04 #@! TO.C,C103*
X107087836Y-112410000D02*
X106872164Y-112410000D01*
X107087836Y-111690000D02*
X106872164Y-111690000D01*
G04 #@! TO.C,C97*
X61467836Y-112440000D02*
X61252164Y-112440000D01*
X61467836Y-111720000D02*
X61252164Y-111720000D01*
G04 #@! TO.C,C100*
X84187836Y-111640000D02*
X83972164Y-111640000D01*
X84187836Y-112360000D02*
X83972164Y-112360000D01*
G04 #@! TO.C,C104*
X114487836Y-111640000D02*
X114272164Y-111640000D01*
X114487836Y-112360000D02*
X114272164Y-112360000D01*
G04 #@! TO.C,C92*
X99387836Y-104740000D02*
X99172164Y-104740000D01*
X99387836Y-105460000D02*
X99172164Y-105460000D01*
G04 #@! TO.C,C96*
X53787836Y-111790000D02*
X53572164Y-111790000D01*
X53787836Y-112510000D02*
X53572164Y-112510000D01*
G04 #@! TO.C,C101*
X91787836Y-111720000D02*
X91572164Y-111720000D01*
X91787836Y-112440000D02*
X91572164Y-112440000D01*
G04 #@! TO.C,C91*
X91887836Y-105560000D02*
X91672164Y-105560000D01*
X91887836Y-104840000D02*
X91672164Y-104840000D01*
G04 #@! TO.C,C87*
X61487836Y-105530000D02*
X61272164Y-105530000D01*
X61487836Y-104810000D02*
X61272164Y-104810000D01*
G04 #@! TO.C,C93*
X106987836Y-104740000D02*
X106772164Y-104740000D01*
X106987836Y-105460000D02*
X106772164Y-105460000D01*
G04 #@! TO.C,C94*
X114587836Y-105460000D02*
X114372164Y-105460000D01*
X114587836Y-104740000D02*
X114372164Y-104740000D01*
G04 #@! TO.C,C102*
X99507836Y-112360000D02*
X99292164Y-112360000D01*
X99507836Y-111640000D02*
X99292164Y-111640000D01*
G04 #@! TO.C,C89*
X76587836Y-104740000D02*
X76372164Y-104740000D01*
X76587836Y-105460000D02*
X76372164Y-105460000D01*
G04 #@! TO.C,C90*
X84187836Y-105460000D02*
X83972164Y-105460000D01*
X84187836Y-104740000D02*
X83972164Y-104740000D01*
G04 #@! TO.C,C98*
X69007836Y-112400000D02*
X68792164Y-112400000D01*
X69007836Y-111680000D02*
X68792164Y-111680000D01*
G04 #@! TO.C,C99*
X76607836Y-111640000D02*
X76392164Y-111640000D01*
X76607836Y-112360000D02*
X76392164Y-112360000D01*
G04 #@! TO.C,C113*
X107787836Y-119440000D02*
X107572164Y-119440000D01*
X107787836Y-118720000D02*
X107572164Y-118720000D01*
G04 #@! TO.C,C112*
X100267836Y-118720000D02*
X100052164Y-118720000D01*
X100267836Y-119440000D02*
X100052164Y-119440000D01*
G04 #@! TO.C,C115*
X47187836Y-126360000D02*
X46972164Y-126360000D01*
X47187836Y-125640000D02*
X46972164Y-125640000D01*
G04 #@! TO.C,C108*
X68987836Y-119460000D02*
X68772164Y-119460000D01*
X68987836Y-118740000D02*
X68772164Y-118740000D01*
G04 #@! TO.C,C111*
X91787836Y-119430000D02*
X91572164Y-119430000D01*
X91787836Y-118710000D02*
X91572164Y-118710000D01*
G04 #@! TO.C,C116*
X54867836Y-125640000D02*
X54652164Y-125640000D01*
X54867836Y-126360000D02*
X54652164Y-126360000D01*
G04 #@! TO.C,C117*
X62287836Y-125590000D02*
X62072164Y-125590000D01*
X62287836Y-126310000D02*
X62072164Y-126310000D01*
G04 #@! TO.C,C105*
X46187836Y-118740000D02*
X45972164Y-118740000D01*
X46187836Y-119460000D02*
X45972164Y-119460000D01*
G04 #@! TO.C,C106*
X53807836Y-118770000D02*
X53592164Y-118770000D01*
X53807836Y-119490000D02*
X53592164Y-119490000D01*
G04 #@! TO.C,C110*
X84167836Y-119430000D02*
X83952164Y-119430000D01*
X84167836Y-118710000D02*
X83952164Y-118710000D01*
G04 #@! TO.C,C118*
X69887836Y-126310000D02*
X69672164Y-126310000D01*
X69887836Y-125590000D02*
X69672164Y-125590000D01*
G04 #@! TO.C,C114*
X115587836Y-118640000D02*
X115372164Y-118640000D01*
X115587836Y-119360000D02*
X115372164Y-119360000D01*
G04 #@! TO.C,C119*
X77487836Y-126340000D02*
X77272164Y-126340000D01*
X77487836Y-125620000D02*
X77272164Y-125620000D01*
G04 #@! TO.C,C122*
X100357836Y-125630000D02*
X100142164Y-125630000D01*
X100357836Y-126350000D02*
X100142164Y-126350000D01*
G04 #@! TO.C,C107*
X61307836Y-119400000D02*
X61092164Y-119400000D01*
X61307836Y-118680000D02*
X61092164Y-118680000D01*
G04 #@! TO.C,C120*
X84987836Y-125640000D02*
X84772164Y-125640000D01*
X84987836Y-126360000D02*
X84772164Y-126360000D01*
G04 #@! TO.C,C121*
X92787836Y-126360000D02*
X92572164Y-126360000D01*
X92787836Y-125640000D02*
X92572164Y-125640000D01*
G04 #@! TO.C,C109*
X76687836Y-119460000D02*
X76472164Y-119460000D01*
X76687836Y-118740000D02*
X76472164Y-118740000D01*
G04 #@! TO.C,D26*
X79930000Y-63850000D02*
X72630000Y-63850000D01*
X72630000Y-63850000D02*
X72630000Y-65000000D01*
X79930000Y-69350000D02*
X72630000Y-69350000D01*
G04 #@! TO.C,D18*
X95130000Y-56850000D02*
X87830000Y-56850000D01*
X95130000Y-62350000D02*
X87830000Y-62350000D01*
X87830000Y-56850000D02*
X87830000Y-58000000D01*
G04 #@! TO.C,D21*
X117930000Y-56840000D02*
X110630000Y-56840000D01*
X110630000Y-56840000D02*
X110630000Y-57990000D01*
X117930000Y-62340000D02*
X110630000Y-62340000D01*
G04 #@! TO.C,D28*
X95130000Y-69400000D02*
X87830000Y-69400000D01*
X95130000Y-63900000D02*
X87830000Y-63900000D01*
X87830000Y-63900000D02*
X87830000Y-65050000D01*
G04 #@! TO.C,D24*
X64730000Y-69370000D02*
X57430000Y-69370000D01*
X57430000Y-63870000D02*
X57430000Y-65020000D01*
X64730000Y-63870000D02*
X57430000Y-63870000D01*
G04 #@! TO.C,C123*
X107787836Y-126360000D02*
X107572164Y-126360000D01*
X107787836Y-125640000D02*
X107572164Y-125640000D01*
G04 #@! TO.C,C124*
X115567836Y-125660000D02*
X115352164Y-125660000D01*
X115567836Y-126380000D02*
X115352164Y-126380000D01*
G04 #@! TO.C,D16*
X79930000Y-56850000D02*
X72630000Y-56850000D01*
X79930000Y-62350000D02*
X72630000Y-62350000D01*
X72630000Y-56850000D02*
X72630000Y-58000000D01*
G04 #@! TO.C,D23*
X57130000Y-69370000D02*
X49830000Y-69370000D01*
X57130000Y-63870000D02*
X49830000Y-63870000D01*
X49830000Y-63870000D02*
X49830000Y-65020000D01*
G04 #@! TO.C,D20*
X110330000Y-56840000D02*
X103030000Y-56840000D01*
X103030000Y-56840000D02*
X103030000Y-57990000D01*
X110330000Y-62340000D02*
X103030000Y-62340000D01*
G04 #@! TO.C,D25*
X72330000Y-63870000D02*
X65030000Y-63870000D01*
X65030000Y-63870000D02*
X65030000Y-65020000D01*
X72330000Y-69370000D02*
X65030000Y-69370000D01*
G04 #@! TO.C,D29*
X102730000Y-63910000D02*
X95430000Y-63910000D01*
X102730000Y-69410000D02*
X95430000Y-69410000D01*
X95430000Y-63910000D02*
X95430000Y-65060000D01*
G04 #@! TO.C,D27*
X87530000Y-63890000D02*
X80230000Y-63890000D01*
X87530000Y-69390000D02*
X80230000Y-69390000D01*
X80230000Y-63890000D02*
X80230000Y-65040000D01*
G04 #@! TO.C,D17*
X87530000Y-56850000D02*
X80230000Y-56850000D01*
X80230000Y-56850000D02*
X80230000Y-58000000D01*
X87530000Y-62350000D02*
X80230000Y-62350000D01*
G04 #@! TO.C,D22*
X49530000Y-69370000D02*
X42230000Y-69370000D01*
X49530000Y-63870000D02*
X42230000Y-63870000D01*
X42230000Y-63870000D02*
X42230000Y-65020000D01*
G04 #@! TO.C,D19*
X102730000Y-56850000D02*
X95430000Y-56850000D01*
X102730000Y-62350000D02*
X95430000Y-62350000D01*
X95430000Y-56850000D02*
X95430000Y-58000000D01*
G04 #@! TO.C,D31*
X117930000Y-69350000D02*
X110630000Y-69350000D01*
X117930000Y-63850000D02*
X110630000Y-63850000D01*
X110630000Y-63850000D02*
X110630000Y-65000000D01*
G04 #@! TO.C,D30*
X110330000Y-63850000D02*
X103030000Y-63850000D01*
X103030000Y-63850000D02*
X103030000Y-65000000D01*
X110330000Y-69350000D02*
X103030000Y-69350000D01*
G04 #@! TO.C,D36*
X72630000Y-70920000D02*
X72630000Y-72070000D01*
X79930000Y-76420000D02*
X72630000Y-76420000D01*
X79930000Y-70920000D02*
X72630000Y-70920000D01*
G04 #@! TO.C,D38*
X87830000Y-70950000D02*
X87830000Y-72100000D01*
X95130000Y-76450000D02*
X87830000Y-76450000D01*
X95130000Y-70950000D02*
X87830000Y-70950000D01*
G04 #@! TO.C,D48*
X95130000Y-77950000D02*
X87830000Y-77950000D01*
X95130000Y-83450000D02*
X87830000Y-83450000D01*
X87830000Y-77950000D02*
X87830000Y-79100000D01*
G04 #@! TO.C,D32*
X49530000Y-70910000D02*
X42230000Y-70910000D01*
X42230000Y-70910000D02*
X42230000Y-72060000D01*
X49530000Y-76410000D02*
X42230000Y-76410000D01*
G04 #@! TO.C,D41*
X117930000Y-76450000D02*
X110630000Y-76450000D01*
X117930000Y-70950000D02*
X110630000Y-70950000D01*
X110630000Y-70950000D02*
X110630000Y-72100000D01*
G04 #@! TO.C,D47*
X87530000Y-77950000D02*
X80230000Y-77950000D01*
X87530000Y-83450000D02*
X80230000Y-83450000D01*
X80230000Y-77950000D02*
X80230000Y-79100000D01*
G04 #@! TO.C,D37*
X87590000Y-76400000D02*
X80290000Y-76400000D01*
X87590000Y-70900000D02*
X80290000Y-70900000D01*
X80290000Y-70900000D02*
X80290000Y-72050000D01*
G04 #@! TO.C,D46*
X72630000Y-77950000D02*
X72630000Y-79100000D01*
X79930000Y-83450000D02*
X72630000Y-83450000D01*
X79930000Y-77950000D02*
X72630000Y-77950000D01*
G04 #@! TO.C,D40*
X110330000Y-70950000D02*
X103030000Y-70950000D01*
X110330000Y-76450000D02*
X103030000Y-76450000D01*
X103030000Y-70950000D02*
X103030000Y-72100000D01*
G04 #@! TO.C,D34*
X64730000Y-70930000D02*
X57430000Y-70930000D01*
X64730000Y-76430000D02*
X57430000Y-76430000D01*
X57430000Y-70930000D02*
X57430000Y-72080000D01*
G04 #@! TO.C,D33*
X57130000Y-70920000D02*
X49830000Y-70920000D01*
X49830000Y-70920000D02*
X49830000Y-72070000D01*
X57130000Y-76420000D02*
X49830000Y-76420000D01*
G04 #@! TO.C,D43*
X57130000Y-77940000D02*
X49830000Y-77940000D01*
X57130000Y-83440000D02*
X49830000Y-83440000D01*
X49830000Y-77940000D02*
X49830000Y-79090000D01*
G04 #@! TO.C,D49*
X102730000Y-77950000D02*
X95430000Y-77950000D01*
X95430000Y-77950000D02*
X95430000Y-79100000D01*
X102730000Y-83450000D02*
X95430000Y-83450000D01*
G04 #@! TO.C,D35*
X72330000Y-70920000D02*
X65030000Y-70920000D01*
X72330000Y-76420000D02*
X65030000Y-76420000D01*
X65030000Y-70920000D02*
X65030000Y-72070000D01*
G04 #@! TO.C,D39*
X102730000Y-76450000D02*
X95430000Y-76450000D01*
X95430000Y-70950000D02*
X95430000Y-72100000D01*
X102730000Y-70950000D02*
X95430000Y-70950000D01*
G04 #@! TO.C,D42*
X49530000Y-83440000D02*
X42230000Y-83440000D01*
X49530000Y-77940000D02*
X42230000Y-77940000D01*
X42230000Y-77940000D02*
X42230000Y-79090000D01*
G04 #@! TO.C,D44*
X64730000Y-77950000D02*
X57430000Y-77950000D01*
X64730000Y-83450000D02*
X57430000Y-83450000D01*
X57430000Y-77950000D02*
X57430000Y-79100000D01*
G04 #@! TO.C,D45*
X72330000Y-83450000D02*
X65030000Y-83450000D01*
X72330000Y-77950000D02*
X65030000Y-77950000D01*
X65030000Y-77950000D02*
X65030000Y-79100000D01*
G04 #@! TO.C,D79*
X102730000Y-98950000D02*
X95430000Y-98950000D01*
X95430000Y-98950000D02*
X95430000Y-100100000D01*
X102730000Y-104450000D02*
X95430000Y-104450000D01*
G04 #@! TO.C,D69*
X102730000Y-91950000D02*
X95430000Y-91950000D01*
X102730000Y-97450000D02*
X95430000Y-97450000D01*
X95430000Y-91950000D02*
X95430000Y-93100000D01*
G04 #@! TO.C,D73*
X49830000Y-98930000D02*
X49830000Y-100080000D01*
X57130000Y-104430000D02*
X49830000Y-104430000D01*
X57130000Y-98930000D02*
X49830000Y-98930000D01*
G04 #@! TO.C,D81*
X110630000Y-98950000D02*
X110630000Y-100100000D01*
X117930000Y-98950000D02*
X110630000Y-98950000D01*
X117930000Y-104450000D02*
X110630000Y-104450000D01*
G04 #@! TO.C,D85*
X72330000Y-111340000D02*
X65030000Y-111340000D01*
X72330000Y-105840000D02*
X65030000Y-105840000D01*
X65030000Y-105840000D02*
X65030000Y-106990000D01*
G04 #@! TO.C,D82*
X42230000Y-105920000D02*
X42230000Y-107070000D01*
X49530000Y-111420000D02*
X42230000Y-111420000D01*
X49530000Y-105920000D02*
X42230000Y-105920000D01*
G04 #@! TO.C,D68*
X95130000Y-91950000D02*
X87830000Y-91950000D01*
X95130000Y-97450000D02*
X87830000Y-97450000D01*
X87830000Y-91950000D02*
X87830000Y-93100000D01*
G04 #@! TO.C,D70*
X103030000Y-91950000D02*
X103030000Y-93100000D01*
X110330000Y-97450000D02*
X103030000Y-97450000D01*
X110330000Y-91950000D02*
X103030000Y-91950000D01*
G04 #@! TO.C,D83*
X57130000Y-111380000D02*
X49830000Y-111380000D01*
X49830000Y-105880000D02*
X49830000Y-107030000D01*
X57130000Y-105880000D02*
X49830000Y-105880000D01*
G04 #@! TO.C,D77*
X87530000Y-104450000D02*
X80230000Y-104450000D01*
X80230000Y-98950000D02*
X80230000Y-100100000D01*
X87530000Y-98950000D02*
X80230000Y-98950000D01*
G04 #@! TO.C,D80*
X110330000Y-104450000D02*
X103030000Y-104450000D01*
X110330000Y-98950000D02*
X103030000Y-98950000D01*
X103030000Y-98950000D02*
X103030000Y-100100000D01*
G04 #@! TO.C,D71*
X117930000Y-91950000D02*
X110630000Y-91950000D01*
X110630000Y-91950000D02*
X110630000Y-93100000D01*
X117930000Y-97450000D02*
X110630000Y-97450000D01*
G04 #@! TO.C,D72*
X42230000Y-98950000D02*
X42230000Y-100100000D01*
X49530000Y-98950000D02*
X42230000Y-98950000D01*
X49530000Y-104450000D02*
X42230000Y-104450000D01*
G04 #@! TO.C,D75*
X72330000Y-98950000D02*
X65030000Y-98950000D01*
X65030000Y-98950000D02*
X65030000Y-100100000D01*
X72330000Y-104450000D02*
X65030000Y-104450000D01*
G04 #@! TO.C,D76*
X72630000Y-98950000D02*
X72630000Y-100100000D01*
X79930000Y-104450000D02*
X72630000Y-104450000D01*
X79930000Y-98950000D02*
X72630000Y-98950000D01*
G04 #@! TO.C,D78*
X95130000Y-104450000D02*
X87830000Y-104450000D01*
X87830000Y-98950000D02*
X87830000Y-100100000D01*
X95130000Y-98950000D02*
X87830000Y-98950000D01*
G04 #@! TO.C,D104*
X49830000Y-119810000D02*
X49830000Y-120960000D01*
X57130000Y-125310000D02*
X49830000Y-125310000D01*
X57130000Y-119810000D02*
X49830000Y-119810000D01*
G04 #@! TO.C,D103*
X49530000Y-125320000D02*
X42230000Y-125320000D01*
X42230000Y-119820000D02*
X42230000Y-120970000D01*
X49530000Y-119820000D02*
X42230000Y-119820000D01*
G04 #@! TO.C,D91*
X110630000Y-105870000D02*
X110630000Y-107020000D01*
X117930000Y-105870000D02*
X110630000Y-105870000D01*
X117930000Y-111370000D02*
X110630000Y-111370000D01*
G04 #@! TO.C,D100*
X102730000Y-118360000D02*
X95430000Y-118360000D01*
X102730000Y-112860000D02*
X95430000Y-112860000D01*
X95430000Y-112860000D02*
X95430000Y-114010000D01*
G04 #@! TO.C,D95*
X64730000Y-112880000D02*
X57430000Y-112880000D01*
X57430000Y-112880000D02*
X57430000Y-114030000D01*
X64730000Y-118380000D02*
X57430000Y-118380000D01*
G04 #@! TO.C,D90*
X110330000Y-111350000D02*
X103030000Y-111350000D01*
X103030000Y-105850000D02*
X103030000Y-107000000D01*
X110330000Y-105850000D02*
X103030000Y-105850000D01*
G04 #@! TO.C,D86*
X72630000Y-105840000D02*
X72630000Y-106990000D01*
X79930000Y-105840000D02*
X72630000Y-105840000D01*
X79930000Y-111340000D02*
X72630000Y-111340000D01*
G04 #@! TO.C,D98*
X87530000Y-118370000D02*
X80230000Y-118370000D01*
X80230000Y-112870000D02*
X80230000Y-114020000D01*
X87530000Y-112870000D02*
X80230000Y-112870000D01*
G04 #@! TO.C,D101*
X110330000Y-118360000D02*
X103030000Y-118360000D01*
X103030000Y-112860000D02*
X103030000Y-114010000D01*
X110330000Y-112860000D02*
X103030000Y-112860000D01*
G04 #@! TO.C,D96*
X72330000Y-118390000D02*
X65030000Y-118390000D01*
X65030000Y-112890000D02*
X65030000Y-114040000D01*
X72330000Y-112890000D02*
X65030000Y-112890000D01*
G04 #@! TO.C,D87*
X87530000Y-111330000D02*
X80230000Y-111330000D01*
X80230000Y-105830000D02*
X80230000Y-106980000D01*
X87530000Y-105830000D02*
X80230000Y-105830000D01*
G04 #@! TO.C,D94*
X49830000Y-112950000D02*
X49830000Y-114100000D01*
X57130000Y-112950000D02*
X49830000Y-112950000D01*
X57130000Y-118450000D02*
X49830000Y-118450000D01*
G04 #@! TO.C,D88*
X95130000Y-105840000D02*
X87830000Y-105840000D01*
X95130000Y-111340000D02*
X87830000Y-111340000D01*
X87830000Y-105840000D02*
X87830000Y-106990000D01*
G04 #@! TO.C,D99*
X87830000Y-112880000D02*
X87830000Y-114030000D01*
X95130000Y-112880000D02*
X87830000Y-112880000D01*
X95130000Y-118380000D02*
X87830000Y-118380000D01*
G04 #@! TO.C,D93*
X49530000Y-118450000D02*
X42230000Y-118450000D01*
X49530000Y-112950000D02*
X42230000Y-112950000D01*
X42230000Y-112950000D02*
X42230000Y-114100000D01*
G04 #@! TO.C,D89*
X95430000Y-105850000D02*
X95430000Y-107000000D01*
X102730000Y-111350000D02*
X95430000Y-111350000D01*
X102730000Y-105850000D02*
X95430000Y-105850000D01*
G04 #@! TO.C,D97*
X79930000Y-112880000D02*
X72630000Y-112880000D01*
X79930000Y-118380000D02*
X72630000Y-118380000D01*
X72630000Y-112880000D02*
X72630000Y-114030000D01*
G04 #@! TO.C,D102*
X117930000Y-118310000D02*
X110630000Y-118310000D01*
X110630000Y-112810000D02*
X110630000Y-113960000D01*
X117930000Y-112810000D02*
X110630000Y-112810000D01*
G04 #@! TO.C,D57*
X80230000Y-84950000D02*
X80230000Y-86100000D01*
X87530000Y-90450000D02*
X80230000Y-90450000D01*
X87530000Y-84950000D02*
X80230000Y-84950000D01*
G04 #@! TO.C,D58*
X87830000Y-84950000D02*
X87830000Y-86100000D01*
X95130000Y-84950000D02*
X87830000Y-84950000D01*
X95130000Y-90450000D02*
X87830000Y-90450000D01*
G04 #@! TO.C,D62*
X49530000Y-97450000D02*
X42230000Y-97450000D01*
X42230000Y-91950000D02*
X42230000Y-93100000D01*
X49530000Y-91950000D02*
X42230000Y-91950000D01*
G04 #@! TO.C,D63*
X57130000Y-97450000D02*
X49830000Y-97450000D01*
X49830000Y-91950000D02*
X49830000Y-93100000D01*
X57130000Y-91950000D02*
X49830000Y-91950000D01*
G04 #@! TO.C,D65*
X65030000Y-91950000D02*
X65030000Y-93100000D01*
X72330000Y-97450000D02*
X65030000Y-97450000D01*
X72330000Y-91950000D02*
X65030000Y-91950000D01*
G04 #@! TO.C,D50*
X110330000Y-83450000D02*
X103030000Y-83450000D01*
X110330000Y-77950000D02*
X103030000Y-77950000D01*
X103030000Y-77950000D02*
X103030000Y-79100000D01*
G04 #@! TO.C,D51*
X117930000Y-77950000D02*
X110630000Y-77950000D01*
X117930000Y-83450000D02*
X110630000Y-83450000D01*
X110630000Y-77950000D02*
X110630000Y-79100000D01*
G04 #@! TO.C,D66*
X79930000Y-91920000D02*
X72630000Y-91920000D01*
X79930000Y-97420000D02*
X72630000Y-97420000D01*
X72630000Y-91920000D02*
X72630000Y-93070000D01*
G04 #@! TO.C,D55*
X72330000Y-84890000D02*
X65030000Y-84890000D01*
X65030000Y-84890000D02*
X65030000Y-86040000D01*
X72330000Y-90390000D02*
X65030000Y-90390000D01*
G04 #@! TO.C,D56*
X72630000Y-84950000D02*
X72630000Y-86100000D01*
X79930000Y-84950000D02*
X72630000Y-84950000D01*
X79930000Y-90450000D02*
X72630000Y-90450000D01*
G04 #@! TO.C,D59*
X95430000Y-84950000D02*
X95430000Y-86100000D01*
X102730000Y-84950000D02*
X95430000Y-84950000D01*
X102730000Y-90450000D02*
X95430000Y-90450000D01*
G04 #@! TO.C,D64*
X64730000Y-91950000D02*
X57430000Y-91950000D01*
X57430000Y-91950000D02*
X57430000Y-93100000D01*
X64730000Y-97450000D02*
X57430000Y-97450000D01*
G04 #@! TO.C,D53*
X57130000Y-90420000D02*
X49830000Y-90420000D01*
X57130000Y-84920000D02*
X49830000Y-84920000D01*
X49830000Y-84920000D02*
X49830000Y-86070000D01*
G04 #@! TO.C,D67*
X87530000Y-91950000D02*
X80230000Y-91950000D01*
X80230000Y-91950000D02*
X80230000Y-93100000D01*
X87530000Y-97450000D02*
X80230000Y-97450000D01*
G04 #@! TO.C,D61*
X117930000Y-90450000D02*
X110630000Y-90450000D01*
X110630000Y-84950000D02*
X110630000Y-86100000D01*
X117930000Y-84950000D02*
X110630000Y-84950000D01*
G04 #@! TO.C,D60*
X103030000Y-84950000D02*
X103030000Y-86100000D01*
X110330000Y-90450000D02*
X103030000Y-90450000D01*
X110330000Y-84950000D02*
X103030000Y-84950000D01*
G04 #@! TO.C,D52*
X49530000Y-84920000D02*
X42230000Y-84920000D01*
X42230000Y-84920000D02*
X42230000Y-86070000D01*
X49530000Y-90420000D02*
X42230000Y-90420000D01*
G04 #@! TO.C,D54*
X64730000Y-84920000D02*
X57430000Y-84920000D01*
X57430000Y-84920000D02*
X57430000Y-86070000D01*
X64730000Y-90420000D02*
X57430000Y-90420000D01*
G04 #@! TO.C,C125*
X77367836Y-51640000D02*
X77152164Y-51640000D01*
X77367836Y-52360000D02*
X77152164Y-52360000D01*
G04 #@! TO.C,D113*
X72630000Y-45850000D02*
X72630000Y-47000000D01*
X79930000Y-45850000D02*
X72630000Y-45850000D01*
X79930000Y-51350000D02*
X72630000Y-51350000D01*
G04 #@! TO.C,D74*
X57450000Y-98950000D02*
X57450000Y-100100000D01*
X64750000Y-104450000D02*
X57450000Y-104450000D01*
X64750000Y-98950000D02*
X57450000Y-98950000D01*
G04 #@! TO.C,D84*
X64730000Y-111340000D02*
X57430000Y-111340000D01*
X57430000Y-105840000D02*
X57430000Y-106990000D01*
X64730000Y-105840000D02*
X57430000Y-105840000D01*
G04 #@! TO.C,DRA1*
G36*
X88399985Y-47501634D02*
G01*
X88449693Y-47503669D01*
X88499189Y-47506507D01*
X88548468Y-47510141D01*
X88597523Y-47514567D01*
X88646348Y-47519776D01*
X88694936Y-47525763D01*
X88743281Y-47532521D01*
X88791377Y-47540044D01*
X88839217Y-47548326D01*
X88886795Y-47557360D01*
X88934105Y-47567140D01*
X88981140Y-47577659D01*
X89027894Y-47588912D01*
X89074360Y-47600891D01*
X89120532Y-47613591D01*
X89166405Y-47627004D01*
X89211970Y-47641126D01*
X89257222Y-47655949D01*
X89302156Y-47671466D01*
X89346763Y-47687673D01*
X89391038Y-47704561D01*
X89434975Y-47722125D01*
X89478567Y-47740359D01*
X89521808Y-47759256D01*
X89564692Y-47778810D01*
X89607211Y-47799014D01*
X89649360Y-47819862D01*
X89691133Y-47841347D01*
X89732522Y-47863464D01*
X89773522Y-47886206D01*
X89814127Y-47909567D01*
X89854329Y-47933539D01*
X89894123Y-47958118D01*
X89933502Y-47983296D01*
X89972459Y-48009067D01*
X90010990Y-48035425D01*
X90049086Y-48062363D01*
X90086742Y-48089875D01*
X90123951Y-48117955D01*
X90160707Y-48146596D01*
X90197004Y-48175792D01*
X90232835Y-48205536D01*
X90268194Y-48235823D01*
X90303074Y-48266645D01*
X90337470Y-48297997D01*
X90371374Y-48329872D01*
X90404781Y-48362263D01*
X90437684Y-48395165D01*
X90470076Y-48428571D01*
X90501952Y-48462475D01*
X90533305Y-48496870D01*
X90564128Y-48531749D01*
X90594416Y-48567107D01*
X90624161Y-48602938D01*
X90653358Y-48639234D01*
X90682000Y-48675989D01*
X90710080Y-48713198D01*
X90737593Y-48750853D01*
X90764532Y-48788949D01*
X90790891Y-48827478D01*
X90816663Y-48866435D01*
X90841842Y-48905813D01*
X90866422Y-48945607D01*
X90890395Y-48985808D01*
X90913757Y-49026412D01*
X90936500Y-49067412D01*
X90958618Y-49108801D01*
X90980104Y-49150572D01*
X91000953Y-49192721D01*
X91021159Y-49235240D01*
X91040713Y-49278123D01*
X91059611Y-49321363D01*
X91077846Y-49364955D01*
X91095412Y-49408891D01*
X91112301Y-49453166D01*
X91128508Y-49497773D01*
X91144027Y-49542706D01*
X91158851Y-49587958D01*
X91172974Y-49633523D01*
X91186388Y-49679395D01*
X91199089Y-49725567D01*
X91211070Y-49772033D01*
X91222323Y-49818786D01*
X91232844Y-49865821D01*
X91242625Y-49913130D01*
X91251660Y-49960708D01*
X91259943Y-50008548D01*
X91267468Y-50056644D01*
X91274227Y-50104989D01*
X91280215Y-50153577D01*
X91285426Y-50202401D01*
X91289852Y-50251456D01*
X91293488Y-50300735D01*
X91296327Y-50350231D01*
X91298363Y-50399939D01*
X91299589Y-50449851D01*
X91300000Y-50499962D01*
X91299591Y-50550073D01*
X91298365Y-50599986D01*
X91296331Y-50649695D01*
X91293493Y-50699192D01*
X91289858Y-50748472D01*
X91285433Y-50797527D01*
X91280223Y-50846353D01*
X91274236Y-50894942D01*
X91267478Y-50943288D01*
X91259954Y-50991385D01*
X91251672Y-51039225D01*
X91242638Y-51086804D01*
X91232858Y-51134115D01*
X91222338Y-51181150D01*
X91211085Y-51227905D01*
X91199105Y-51274372D01*
X91186405Y-51320545D01*
X91172991Y-51366418D01*
X91158869Y-51411984D01*
X91144046Y-51457237D01*
X91128528Y-51502171D01*
X91112321Y-51546779D01*
X91095432Y-51591054D01*
X91077867Y-51634992D01*
X91059633Y-51678585D01*
X91040736Y-51721826D01*
X91021181Y-51764710D01*
X91000977Y-51807230D01*
X90980128Y-51849379D01*
X90958642Y-51891152D01*
X90936524Y-51932542D01*
X90913781Y-51973543D01*
X90890420Y-52014148D01*
X90866447Y-52054350D01*
X90841868Y-52094145D01*
X90816689Y-52133524D01*
X90790917Y-52172482D01*
X90764559Y-52211012D01*
X90737620Y-52249109D01*
X90710107Y-52286765D01*
X90682026Y-52323975D01*
X90653384Y-52360731D01*
X90624188Y-52397028D01*
X90594442Y-52432860D01*
X90564155Y-52468219D01*
X90533332Y-52503099D01*
X90501979Y-52537495D01*
X90470103Y-52571400D01*
X90437711Y-52604806D01*
X90404808Y-52637709D01*
X90371401Y-52670102D01*
X90337496Y-52701978D01*
X90303101Y-52733330D01*
X90268220Y-52764154D01*
X90232861Y-52794441D01*
X90197030Y-52824186D01*
X90160732Y-52853383D01*
X90123976Y-52882025D01*
X90086766Y-52910106D01*
X90049110Y-52937619D01*
X90011014Y-52964557D01*
X89972483Y-52990916D01*
X89933525Y-53016688D01*
X89894146Y-53041866D01*
X89854352Y-53066446D01*
X89814149Y-53090419D01*
X89773544Y-53113780D01*
X89732544Y-53136523D01*
X89691154Y-53158640D01*
X89649381Y-53180127D01*
X89607231Y-53200975D01*
X89564711Y-53221180D01*
X89521827Y-53240734D01*
X89478586Y-53259632D01*
X89434993Y-53277866D01*
X89391056Y-53295431D01*
X89346780Y-53312320D01*
X89302172Y-53328527D01*
X89257238Y-53344045D01*
X89211985Y-53358868D01*
X89166419Y-53372990D01*
X89120546Y-53386404D01*
X89074373Y-53399104D01*
X89027906Y-53411084D01*
X88981151Y-53422336D01*
X88934116Y-53432856D01*
X88886805Y-53442636D01*
X88839226Y-53451671D01*
X88791385Y-53459953D01*
X88743289Y-53467476D01*
X88694943Y-53474234D01*
X88646354Y-53480221D01*
X88597528Y-53485431D01*
X88548472Y-53489856D01*
X88499193Y-53493491D01*
X88449695Y-53496329D01*
X88399987Y-53498363D01*
X88350074Y-53499589D01*
X88299962Y-53499998D01*
X88249852Y-53499587D01*
X88199939Y-53498361D01*
X88150232Y-53496325D01*
X88100736Y-53493486D01*
X88051457Y-53489850D01*
X88002402Y-53485424D01*
X87953577Y-53480213D01*
X87904989Y-53474225D01*
X87856644Y-53467466D01*
X87808549Y-53459941D01*
X87760709Y-53451658D01*
X87713131Y-53442623D01*
X87665821Y-53432842D01*
X87618787Y-53422322D01*
X87572033Y-53411068D01*
X87525567Y-53399088D01*
X87479395Y-53386387D01*
X87433523Y-53372972D01*
X87387958Y-53358849D01*
X87342706Y-53344026D01*
X87297773Y-53328507D01*
X87253166Y-53312299D01*
X87208892Y-53295410D01*
X87164955Y-53277845D01*
X87121363Y-53259610D01*
X87078123Y-53240712D01*
X87035240Y-53221157D01*
X86992721Y-53200952D01*
X86950573Y-53180103D01*
X86908801Y-53158616D01*
X86867412Y-53136498D01*
X86826412Y-53113755D01*
X86785808Y-53090394D01*
X86745607Y-53066420D01*
X86705814Y-53041841D01*
X86666435Y-53016662D01*
X86627478Y-52990890D01*
X86588949Y-52964531D01*
X86550853Y-52937592D01*
X86513198Y-52910079D01*
X86475989Y-52881998D01*
X86439234Y-52853356D01*
X86402938Y-52824159D01*
X86367107Y-52794414D01*
X86331749Y-52764127D01*
X86296870Y-52733303D01*
X86262475Y-52701951D01*
X86228571Y-52670075D01*
X86195165Y-52637683D01*
X86162263Y-52604780D01*
X86129872Y-52571373D01*
X86097997Y-52537469D01*
X86066645Y-52503073D01*
X86035823Y-52468193D01*
X86005536Y-52432834D01*
X85975792Y-52397003D01*
X85946596Y-52360706D01*
X85917955Y-52323950D01*
X85889875Y-52286740D01*
X85862363Y-52249084D01*
X85835425Y-52210988D01*
X85809067Y-52172458D01*
X85783296Y-52133500D01*
X85758118Y-52094121D01*
X85733540Y-52054328D01*
X85709567Y-52014125D01*
X85686206Y-51973521D01*
X85663465Y-51932521D01*
X85641348Y-51891131D01*
X85619862Y-51849359D01*
X85599014Y-51807210D01*
X85578810Y-51764690D01*
X85559256Y-51721807D01*
X85540359Y-51678566D01*
X85522125Y-51634974D01*
X85504561Y-51591037D01*
X85487673Y-51546762D01*
X85471466Y-51502155D01*
X85455949Y-51457221D01*
X85441126Y-51411969D01*
X85427005Y-51366403D01*
X85413591Y-51320531D01*
X85400891Y-51274359D01*
X85388912Y-51227893D01*
X85377659Y-51181139D01*
X85367140Y-51134104D01*
X85357360Y-51086795D01*
X85348326Y-51039216D01*
X85340044Y-50991376D01*
X85332521Y-50943280D01*
X85325763Y-50894935D01*
X85319776Y-50846347D01*
X85314567Y-50797522D01*
X85310142Y-50748467D01*
X85306507Y-50699188D01*
X85303669Y-50649692D01*
X85302259Y-50615233D01*
X86064086Y-50615233D01*
X86067010Y-50656863D01*
X86070324Y-50701296D01*
X86074139Y-50748089D01*
X86078568Y-50796800D01*
X86083723Y-50846984D01*
X86089717Y-50898199D01*
X86096662Y-50950001D01*
X86104671Y-51001948D01*
X86113856Y-51053595D01*
X86124329Y-51104500D01*
X86136203Y-51154219D01*
X86149591Y-51202309D01*
X86164604Y-51248327D01*
X86181355Y-51291830D01*
X86181432Y-51291981D01*
X86209755Y-51334676D01*
X86240334Y-51354211D01*
X86264718Y-51361434D01*
X86307714Y-51366779D01*
X86344852Y-51366055D01*
X86384161Y-51362731D01*
X86427626Y-51357781D01*
X86474334Y-51351589D01*
X86523142Y-51344578D01*
X86572908Y-51337172D01*
X86622384Y-51329812D01*
X86669906Y-51322957D01*
X86713711Y-51317065D01*
X86752034Y-51312592D01*
X86768195Y-51311534D01*
X86792416Y-51355301D01*
X86817977Y-51398219D01*
X86844850Y-51440267D01*
X86873011Y-51481422D01*
X86902435Y-51521659D01*
X86933095Y-51560957D01*
X86964965Y-51599292D01*
X86998022Y-51636642D01*
X87032238Y-51672983D01*
X87067588Y-51708293D01*
X87104046Y-51742548D01*
X87103221Y-51744400D01*
X87085755Y-51777082D01*
X87064984Y-51814353D01*
X87041965Y-51854739D01*
X87017755Y-51896766D01*
X86993378Y-51939059D01*
X86969693Y-51980627D01*
X86947507Y-52020574D01*
X86927628Y-52058003D01*
X86910724Y-52092218D01*
X86896884Y-52125802D01*
X86886586Y-52169101D01*
X86889367Y-52211570D01*
X86903758Y-52245263D01*
X86934619Y-52278694D01*
X86968644Y-52302187D01*
X87006441Y-52326860D01*
X87047543Y-52352442D01*
X87091485Y-52378662D01*
X87137803Y-52405250D01*
X87186032Y-52431935D01*
X87235707Y-52458446D01*
X87286362Y-52484513D01*
X87337533Y-52509863D01*
X87388755Y-52534228D01*
X87439563Y-52557335D01*
X87489492Y-52578915D01*
X87538076Y-52598696D01*
X87584852Y-52616408D01*
X87629354Y-52631779D01*
X87671116Y-52644539D01*
X87671267Y-52644616D01*
X87716400Y-52648756D01*
X87751032Y-52639397D01*
X87774397Y-52626122D01*
X87809576Y-52593498D01*
X87833161Y-52562343D01*
X87854677Y-52528554D01*
X87876842Y-52490811D01*
X87899585Y-52449946D01*
X87922687Y-52407080D01*
X87945931Y-52363335D01*
X87969020Y-52319947D01*
X87991357Y-52278553D01*
X88012272Y-52240876D01*
X88031097Y-52208638D01*
X88039140Y-52196600D01*
X88083145Y-52203025D01*
X88127232Y-52208869D01*
X88171401Y-52213864D01*
X88215653Y-52217745D01*
X88259988Y-52220246D01*
X88304408Y-52221100D01*
X88305017Y-52221100D01*
X88354188Y-52220047D01*
X88403292Y-52217635D01*
X88452323Y-52214006D01*
X88501277Y-52209300D01*
X88550150Y-52203658D01*
X88598937Y-52197221D01*
X88647634Y-52190131D01*
X88656579Y-52202539D01*
X88675282Y-52233258D01*
X88696076Y-52269693D01*
X88718300Y-52310060D01*
X88741294Y-52352574D01*
X88764482Y-52395556D01*
X88787708Y-52437817D01*
X88810935Y-52478311D01*
X88834126Y-52515991D01*
X88857488Y-52550191D01*
X88884940Y-52582365D01*
X88902598Y-52598677D01*
X88928087Y-52615136D01*
X88969928Y-52628408D01*
X89025580Y-52624079D01*
X89026109Y-52623925D01*
X89068028Y-52608995D01*
X89112920Y-52590869D01*
X89160228Y-52569946D01*
X89209393Y-52546626D01*
X89259860Y-52521308D01*
X89311071Y-52494391D01*
X89362468Y-52466276D01*
X89413496Y-52437361D01*
X89463596Y-52408047D01*
X89512211Y-52378732D01*
X89558785Y-52349816D01*
X89602760Y-52321698D01*
X89643579Y-52294778D01*
X89680686Y-52269455D01*
X89713522Y-52246130D01*
X89713599Y-52246053D01*
X89747007Y-52207431D01*
X89759676Y-52170734D01*
X89759280Y-52130446D01*
X89748003Y-52092108D01*
X89734570Y-52062028D01*
X89718537Y-52030846D01*
X89699854Y-51996403D01*
X89679225Y-51959400D01*
X89657468Y-51920705D01*
X89635401Y-51881187D01*
X89613888Y-51841764D01*
X89593949Y-51803861D01*
X89576640Y-51769103D01*
X89563014Y-51739119D01*
X89561506Y-51734833D01*
X89600242Y-51694720D01*
X89635774Y-51653794D01*
X89668474Y-51612090D01*
X89698713Y-51569645D01*
X89726862Y-51526495D01*
X89753292Y-51482675D01*
X89778375Y-51438220D01*
X89802481Y-51393168D01*
X89825983Y-51347553D01*
X89849250Y-51301411D01*
X89857066Y-51301562D01*
X89890939Y-51305006D01*
X89930548Y-51310247D01*
X89974101Y-51316727D01*
X90019805Y-51323893D01*
X90066028Y-51331188D01*
X90111835Y-51338021D01*
X90156484Y-51343784D01*
X90199232Y-51347864D01*
X90239857Y-51349736D01*
X90281992Y-51346806D01*
X90305820Y-51342063D01*
X90334234Y-51331010D01*
X90368683Y-51305712D01*
X90397375Y-51261181D01*
X90397452Y-51261102D01*
X90411379Y-51221765D01*
X90425833Y-51178344D01*
X90440565Y-51131476D01*
X90455326Y-51081802D01*
X90469865Y-51029961D01*
X90483935Y-50976593D01*
X90497285Y-50922337D01*
X90509666Y-50867834D01*
X90520830Y-50813722D01*
X90530525Y-50760641D01*
X90538504Y-50709231D01*
X90544517Y-50660131D01*
X90548315Y-50613981D01*
X90548315Y-50613902D01*
X90538618Y-50558593D01*
X90515992Y-50523025D01*
X90476454Y-50490326D01*
X90440403Y-50471150D01*
X90402939Y-50455824D01*
X90362062Y-50441287D01*
X90318381Y-50427339D01*
X90272893Y-50413897D01*
X90226595Y-50400875D01*
X90180652Y-50388297D01*
X90136632Y-50376374D01*
X90096138Y-50365315D01*
X90060774Y-50355325D01*
X90060165Y-50355097D01*
X90057200Y-50306439D01*
X90052792Y-50257919D01*
X90046947Y-50209572D01*
X90039672Y-50161437D01*
X90030973Y-50113549D01*
X90020859Y-50065947D01*
X90009334Y-50018668D01*
X89996406Y-49971748D01*
X89982083Y-49925224D01*
X89966369Y-49879135D01*
X89949273Y-49833516D01*
X89930801Y-49788404D01*
X89937341Y-49781261D01*
X89963922Y-49755884D01*
X89995383Y-49727216D01*
X90030183Y-49696310D01*
X90066780Y-49664225D01*
X90103715Y-49631901D01*
X90139866Y-49599855D01*
X90174202Y-49568498D01*
X90205691Y-49538241D01*
X90233574Y-49509299D01*
X90258535Y-49478334D01*
X90281913Y-49434434D01*
X90288399Y-49407902D01*
X90288202Y-49372348D01*
X90273719Y-49331530D01*
X90271761Y-49328302D01*
X90244805Y-49285535D01*
X90217131Y-49243229D01*
X90188748Y-49201397D01*
X90159666Y-49160049D01*
X90129891Y-49119196D01*
X90099435Y-49078850D01*
X90068304Y-49039022D01*
X90036508Y-48999724D01*
X90004056Y-48960965D01*
X89970956Y-48922758D01*
X89937217Y-48885113D01*
X89902847Y-48848042D01*
X89867856Y-48811556D01*
X89832253Y-48775667D01*
X89829633Y-48773286D01*
X89792461Y-48749735D01*
X89757042Y-48741679D01*
X89729209Y-48742393D01*
X89681176Y-48756363D01*
X89645785Y-48774495D01*
X89611796Y-48795902D01*
X89575746Y-48820604D01*
X89538007Y-48847883D01*
X89499203Y-48876815D01*
X89459956Y-48906474D01*
X89421016Y-48935869D01*
X89383611Y-48963754D01*
X89349088Y-48988819D01*
X89318791Y-49009754D01*
X89307890Y-49016210D01*
X89264360Y-48986710D01*
X89220008Y-48958567D01*
X89174865Y-48931794D01*
X89128964Y-48906406D01*
X89082337Y-48882414D01*
X89035018Y-48859832D01*
X88987037Y-48838673D01*
X88938428Y-48818950D01*
X88889223Y-48800676D01*
X88839454Y-48783865D01*
X88789154Y-48768528D01*
X88788255Y-48760115D01*
X88786653Y-48723594D01*
X88785552Y-48681261D01*
X88784657Y-48634927D01*
X88783670Y-48586400D01*
X88782333Y-48537403D01*
X88780162Y-48488938D01*
X88776551Y-48441735D01*
X88770890Y-48396524D01*
X88762414Y-48353309D01*
X88746086Y-48308429D01*
X88731870Y-48283504D01*
X88708201Y-48257089D01*
X88669446Y-48233785D01*
X88620930Y-48223788D01*
X88596107Y-48223528D01*
X88560461Y-48222833D01*
X88515859Y-48221829D01*
X88464163Y-48220644D01*
X88407238Y-48219403D01*
X88346947Y-48218233D01*
X88285155Y-48217262D01*
X88223726Y-48216615D01*
X88164523Y-48216420D01*
X88109411Y-48216803D01*
X88109415Y-48216433D01*
X88056220Y-48217421D01*
X88010072Y-48219784D01*
X87968024Y-48225005D01*
X87920988Y-48242141D01*
X87894634Y-48266890D01*
X87881505Y-48288746D01*
X87866170Y-48329188D01*
X87858489Y-48364539D01*
X87852941Y-48402102D01*
X87848105Y-48443790D01*
X87843788Y-48488687D01*
X87839819Y-48535655D01*
X87836028Y-48583555D01*
X87832271Y-48631151D01*
X87828491Y-48676803D01*
X87824646Y-48718771D01*
X87820693Y-48755315D01*
X87818735Y-48767645D01*
X87770708Y-48782353D01*
X87723162Y-48798403D01*
X87676124Y-48815784D01*
X87629624Y-48834487D01*
X87583692Y-48854502D01*
X87538357Y-48875818D01*
X87493647Y-48898425D01*
X87449592Y-48922314D01*
X87406221Y-48947474D01*
X87363563Y-48973895D01*
X87321648Y-49001568D01*
X87306614Y-48993683D01*
X87275312Y-48974807D01*
X87239725Y-48952350D01*
X87201221Y-48927445D01*
X87161164Y-48901225D01*
X87120817Y-48874788D01*
X87081010Y-48849030D01*
X87042455Y-48824790D01*
X87005866Y-48802906D01*
X86971705Y-48784050D01*
X86937238Y-48768327D01*
X86893039Y-48756368D01*
X86867815Y-48754818D01*
X86834248Y-48761181D01*
X86795847Y-48784255D01*
X86794794Y-48785314D01*
X86756904Y-48819805D01*
X86719811Y-48855150D01*
X86683531Y-48891329D01*
X86648079Y-48928321D01*
X86613473Y-48966105D01*
X86579730Y-49004661D01*
X86546865Y-49043969D01*
X86514895Y-49084009D01*
X86483837Y-49124760D01*
X86453708Y-49166202D01*
X86424524Y-49208315D01*
X86396301Y-49251078D01*
X86369057Y-49294470D01*
X86342807Y-49338473D01*
X86340328Y-49342838D01*
X86325848Y-49390002D01*
X86329442Y-49425324D01*
X86338600Y-49448751D01*
X86361000Y-49485808D01*
X86384339Y-49513896D01*
X86410762Y-49541659D01*
X86440815Y-49571372D01*
X86473698Y-49602650D01*
X86508412Y-49634928D01*
X86543960Y-49667641D01*
X86579265Y-49700140D01*
X86612975Y-49731452D01*
X86643672Y-49760531D01*
X86669942Y-49786330D01*
X86676632Y-49793633D01*
X86658036Y-49841054D01*
X86640836Y-49888974D01*
X86625040Y-49937354D01*
X86610654Y-49986157D01*
X86597685Y-50035347D01*
X86586141Y-50084886D01*
X86576029Y-50134738D01*
X86567355Y-50184865D01*
X86560128Y-50235230D01*
X86554353Y-50285797D01*
X86550039Y-50336528D01*
X86547192Y-50387387D01*
X86513730Y-50396245D01*
X86475061Y-50405717D01*
X86432806Y-50415608D01*
X86388587Y-50425722D01*
X86343579Y-50435996D01*
X86299452Y-50446305D01*
X86257290Y-50456677D01*
X86218181Y-50467140D01*
X86182970Y-50477753D01*
X86149703Y-50490450D01*
X86111292Y-50512701D01*
X86091022Y-50531421D01*
X86070930Y-50564562D01*
X86064086Y-50615079D01*
X86064086Y-50615233D01*
X85302259Y-50615233D01*
X85301635Y-50599985D01*
X85300409Y-50550072D01*
X85300000Y-50499962D01*
X85300411Y-50449852D01*
X85301637Y-50399941D01*
X85303673Y-50350234D01*
X85306512Y-50300738D01*
X85310148Y-50251461D01*
X85314574Y-50202406D01*
X85319784Y-50153583D01*
X85325772Y-50104995D01*
X85332531Y-50056651D01*
X85340055Y-50008556D01*
X85348338Y-49960717D01*
X85357373Y-49913140D01*
X85367154Y-49865831D01*
X85377674Y-49818797D01*
X85388927Y-49772045D01*
X85400907Y-49725579D01*
X85413608Y-49679408D01*
X85427022Y-49633537D01*
X85441144Y-49587972D01*
X85455968Y-49542721D01*
X85471486Y-49497789D01*
X85487693Y-49453182D01*
X85504582Y-49408908D01*
X85522147Y-49364972D01*
X85540381Y-49321381D01*
X85559278Y-49278141D01*
X85578832Y-49235259D01*
X85599037Y-49192741D01*
X85619885Y-49150592D01*
X85641371Y-49108821D01*
X85663489Y-49067433D01*
X85686231Y-49026433D01*
X85709592Y-48985830D01*
X85733565Y-48945629D01*
X85758143Y-48905836D01*
X85783322Y-48866458D01*
X85809093Y-48827501D01*
X85835451Y-48788972D01*
X85862389Y-48750877D01*
X85889901Y-48713222D01*
X85917981Y-48676014D01*
X85946622Y-48639258D01*
X85975818Y-48602962D01*
X86005563Y-48567132D01*
X86035849Y-48531774D01*
X86066672Y-48496895D01*
X86098024Y-48462500D01*
X86129898Y-48428597D01*
X86162290Y-48395191D01*
X86195192Y-48362289D01*
X86228598Y-48329898D01*
X86262501Y-48298023D01*
X86296896Y-48266671D01*
X86331775Y-48235849D01*
X86367133Y-48205562D01*
X86402963Y-48175817D01*
X86439259Y-48146621D01*
X86476014Y-48117980D01*
X86513223Y-48089900D01*
X86550878Y-48062388D01*
X86588973Y-48035450D01*
X86627502Y-48009092D01*
X86666459Y-47983321D01*
X86705837Y-47958143D01*
X86745629Y-47933564D01*
X86785831Y-47909591D01*
X86826434Y-47886230D01*
X86867433Y-47863488D01*
X86908822Y-47841371D01*
X86950593Y-47819884D01*
X86992741Y-47799036D01*
X87035260Y-47778832D01*
X87078142Y-47759277D01*
X87121382Y-47740380D01*
X87164973Y-47722146D01*
X87208909Y-47704581D01*
X87253183Y-47687692D01*
X87297789Y-47671485D01*
X87342722Y-47655967D01*
X87387973Y-47641143D01*
X87433537Y-47627021D01*
X87479409Y-47613607D01*
X87525580Y-47600906D01*
X87572045Y-47588926D01*
X87618798Y-47577673D01*
X87665832Y-47567153D01*
X87713141Y-47557372D01*
X87760718Y-47548337D01*
X87808557Y-47540055D01*
X87856652Y-47532530D01*
X87904996Y-47525771D01*
X87953583Y-47519783D01*
X88002407Y-47514573D01*
X88051461Y-47510147D01*
X88100739Y-47506511D01*
X88150235Y-47503672D01*
X88199941Y-47501636D01*
X88249853Y-47500410D01*
X88299962Y-47499999D01*
X88350073Y-47500409D01*
X88399985Y-47501634D01*
G37*
G36*
X88221981Y-48327190D02*
G01*
X88282033Y-48327837D01*
X88342729Y-48328808D01*
X88402292Y-48329978D01*
X88458945Y-48331218D01*
X88510913Y-48332404D01*
X88556417Y-48333408D01*
X88593682Y-48334103D01*
X88620930Y-48334363D01*
X88637879Y-48342892D01*
X88650612Y-48366659D01*
X88659778Y-48402932D01*
X88666025Y-48448982D01*
X88670001Y-48502077D01*
X88672356Y-48559487D01*
X88673737Y-48618481D01*
X88674794Y-48676329D01*
X88676174Y-48730300D01*
X88678527Y-48777663D01*
X88682500Y-48815687D01*
X88688743Y-48841643D01*
X88697903Y-48852798D01*
X88747699Y-48865884D01*
X88796994Y-48880504D01*
X88845752Y-48896644D01*
X88893942Y-48914285D01*
X88941527Y-48933413D01*
X88988475Y-48954010D01*
X89034751Y-48976061D01*
X89080321Y-48999550D01*
X89125151Y-49024460D01*
X89169207Y-49050775D01*
X89212456Y-49078479D01*
X89254862Y-49107555D01*
X89296392Y-49137987D01*
X89313334Y-49138285D01*
X89341997Y-49125365D01*
X89380023Y-49101888D01*
X89425053Y-49070511D01*
X89474729Y-49033896D01*
X89526691Y-48994701D01*
X89578580Y-48955587D01*
X89628039Y-48919212D01*
X89672708Y-48888237D01*
X89710229Y-48865320D01*
X89738243Y-48853121D01*
X89754391Y-48854301D01*
X89791331Y-48891583D01*
X89827571Y-48929513D01*
X89863104Y-48968080D01*
X89897921Y-49007274D01*
X89932014Y-49047085D01*
X89965376Y-49087503D01*
X89997997Y-49128517D01*
X90029871Y-49170119D01*
X90060989Y-49212296D01*
X90091342Y-49255040D01*
X90120924Y-49298340D01*
X90149726Y-49342186D01*
X90177739Y-49386569D01*
X90175451Y-49402810D01*
X90157740Y-49427854D01*
X90127672Y-49459951D01*
X90088314Y-49497352D01*
X90042734Y-49538308D01*
X89993999Y-49581070D01*
X89945176Y-49623888D01*
X89899331Y-49665013D01*
X89859533Y-49702695D01*
X89828848Y-49735185D01*
X89810343Y-49760735D01*
X89807085Y-49777594D01*
X89828603Y-49825054D01*
X89848451Y-49873145D01*
X89866620Y-49921823D01*
X89883099Y-49971043D01*
X89897878Y-50020761D01*
X89910948Y-50070932D01*
X89922299Y-50121513D01*
X89931920Y-50172458D01*
X89939802Y-50223724D01*
X89945935Y-50275266D01*
X89950308Y-50327039D01*
X89952913Y-50379000D01*
X89953738Y-50431104D01*
X89965092Y-50439815D01*
X89996214Y-50451368D01*
X90042692Y-50465303D01*
X90100114Y-50481161D01*
X90164068Y-50498482D01*
X90230142Y-50516806D01*
X90293924Y-50535673D01*
X90351002Y-50554623D01*
X90396965Y-50573196D01*
X90427400Y-50590933D01*
X90437896Y-50607375D01*
X90434463Y-50647706D01*
X90428781Y-50692143D01*
X90421114Y-50739886D01*
X90411727Y-50790134D01*
X90400886Y-50842088D01*
X90388855Y-50894949D01*
X90375899Y-50947915D01*
X90362283Y-51000188D01*
X90348272Y-51050968D01*
X90334131Y-51099454D01*
X90320124Y-51144846D01*
X90306516Y-51186346D01*
X90293573Y-51223153D01*
X90279249Y-51234445D01*
X90249479Y-51238833D01*
X90207322Y-51237688D01*
X90155840Y-51232382D01*
X90098093Y-51224285D01*
X90037141Y-51214770D01*
X89976045Y-51205206D01*
X89917865Y-51196965D01*
X89865661Y-51191419D01*
X89822495Y-51189938D01*
X89791425Y-51193894D01*
X89775514Y-51204658D01*
X89751599Y-51252047D01*
X89728453Y-51298038D01*
X89705655Y-51342694D01*
X89682786Y-51386075D01*
X89659425Y-51428243D01*
X89635154Y-51469259D01*
X89609551Y-51509185D01*
X89582198Y-51548081D01*
X89552674Y-51586010D01*
X89520559Y-51623032D01*
X89485434Y-51659209D01*
X89446879Y-51694603D01*
X89440976Y-51712326D01*
X89446451Y-51742417D01*
X89461130Y-51782298D01*
X89482842Y-51829391D01*
X89509412Y-51881119D01*
X89538668Y-51934903D01*
X89568437Y-51988166D01*
X89596546Y-52038330D01*
X89620823Y-52082817D01*
X89639095Y-52119049D01*
X89649188Y-52144449D01*
X89648931Y-52156438D01*
X89618491Y-52177945D01*
X89583065Y-52201824D01*
X89543361Y-52227615D01*
X89500091Y-52254861D01*
X89453962Y-52283099D01*
X89405685Y-52311871D01*
X89355969Y-52340717D01*
X89305524Y-52369178D01*
X89255059Y-52396792D01*
X89205283Y-52423101D01*
X89156907Y-52447645D01*
X89110640Y-52469964D01*
X89067191Y-52489598D01*
X89027269Y-52506088D01*
X88991585Y-52518973D01*
X88975692Y-52515100D01*
X88955999Y-52496387D01*
X88933188Y-52465510D01*
X88907943Y-52425144D01*
X88880944Y-52377966D01*
X88852874Y-52326651D01*
X88824415Y-52273874D01*
X88796250Y-52222313D01*
X88769060Y-52174643D01*
X88743527Y-52133539D01*
X88720334Y-52101677D01*
X88700163Y-52081733D01*
X88683696Y-52076383D01*
X88636632Y-52084127D01*
X88589432Y-52090885D01*
X88542112Y-52096656D01*
X88494687Y-52101440D01*
X88447172Y-52105233D01*
X88399584Y-52108036D01*
X88351937Y-52109845D01*
X88304247Y-52110660D01*
X88252624Y-52109923D01*
X88201075Y-52107578D01*
X88149636Y-52103628D01*
X88098345Y-52098075D01*
X88047240Y-52090922D01*
X87996358Y-52082173D01*
X87981334Y-52089456D01*
X87961022Y-52113657D01*
X87936489Y-52151376D01*
X87908796Y-52199213D01*
X87879008Y-52253768D01*
X87848188Y-52311643D01*
X87817401Y-52369437D01*
X87787709Y-52423752D01*
X87760176Y-52471186D01*
X87735867Y-52508342D01*
X87715845Y-52531818D01*
X87701173Y-52538216D01*
X87662060Y-52526058D01*
X87618781Y-52510624D01*
X87572041Y-52492304D01*
X87522549Y-52471485D01*
X87471011Y-52448557D01*
X87418137Y-52423909D01*
X87364632Y-52397928D01*
X87311204Y-52371003D01*
X87258561Y-52343524D01*
X87207410Y-52315879D01*
X87158459Y-52288456D01*
X87112415Y-52261644D01*
X87069986Y-52235831D01*
X87031879Y-52211407D01*
X86998801Y-52188760D01*
X86997428Y-52175271D01*
X87007220Y-52147650D01*
X87025952Y-52108716D01*
X87051399Y-52061287D01*
X87081336Y-52008180D01*
X87113538Y-51952215D01*
X87145780Y-51896210D01*
X87175837Y-51842983D01*
X87201485Y-51795352D01*
X87220497Y-51756136D01*
X87230650Y-51728153D01*
X87229718Y-51714222D01*
X87191499Y-51681655D01*
X87154452Y-51647876D01*
X87118605Y-51612918D01*
X87083982Y-51576813D01*
X87050610Y-51539596D01*
X87018515Y-51501300D01*
X86987722Y-51461957D01*
X86958258Y-51421601D01*
X86930149Y-51380265D01*
X86903420Y-51337982D01*
X86878098Y-51294786D01*
X86854208Y-51250709D01*
X86831777Y-51205785D01*
X86817481Y-51199902D01*
X86785942Y-51199254D01*
X86740619Y-51202790D01*
X86684974Y-51209457D01*
X86622466Y-51218205D01*
X86556554Y-51227980D01*
X86490698Y-51237730D01*
X86428357Y-51246405D01*
X86372993Y-51252952D01*
X86328064Y-51256319D01*
X86297030Y-51255455D01*
X86283350Y-51249307D01*
X86268329Y-51209582D01*
X86254662Y-51165809D01*
X86242282Y-51118655D01*
X86231120Y-51068786D01*
X86221110Y-51016869D01*
X86212185Y-50963569D01*
X86204278Y-50909554D01*
X86197320Y-50855489D01*
X86191246Y-50802041D01*
X86185987Y-50749877D01*
X86181476Y-50699662D01*
X86177647Y-50652064D01*
X86174432Y-50607748D01*
X86184992Y-50596498D01*
X86215237Y-50583937D01*
X86260807Y-50570352D01*
X86317343Y-50556033D01*
X86380485Y-50541271D01*
X86445873Y-50526354D01*
X86509148Y-50511572D01*
X86565951Y-50497216D01*
X86603301Y-50486132D01*
X88051381Y-50486132D01*
X88055779Y-50535179D01*
X88068454Y-50581341D01*
X88088637Y-50623849D01*
X88115557Y-50661931D01*
X88148443Y-50694817D01*
X88186526Y-50721737D01*
X88229033Y-50741920D01*
X88275195Y-50754595D01*
X88324242Y-50758991D01*
X88373288Y-50754595D01*
X88419451Y-50741920D01*
X88461958Y-50721737D01*
X88500040Y-50694817D01*
X88532927Y-50661931D01*
X88559847Y-50623849D01*
X88580030Y-50581341D01*
X88592705Y-50535179D01*
X88597102Y-50486132D01*
X88592706Y-50437085D01*
X88580031Y-50390922D01*
X88559848Y-50348414D01*
X88532928Y-50310332D01*
X88500041Y-50277445D01*
X88461959Y-50250525D01*
X88419451Y-50230342D01*
X88373289Y-50217667D01*
X88324242Y-50213270D01*
X88275195Y-50217667D01*
X88229032Y-50230342D01*
X88186525Y-50250525D01*
X88148442Y-50277445D01*
X88115556Y-50310332D01*
X88088636Y-50348414D01*
X88068453Y-50390922D01*
X88055778Y-50437085D01*
X88051381Y-50486132D01*
X86603301Y-50486132D01*
X86611921Y-50483574D01*
X86642701Y-50470936D01*
X86653930Y-50459592D01*
X86654696Y-50409348D01*
X86656989Y-50359221D01*
X86660802Y-50309245D01*
X86666128Y-50259454D01*
X86672959Y-50209881D01*
X86681287Y-50160561D01*
X86691107Y-50111528D01*
X86702409Y-50062815D01*
X86715187Y-50014456D01*
X86729434Y-49966486D01*
X86745142Y-49918938D01*
X86762303Y-49871847D01*
X86780911Y-49825245D01*
X86800958Y-49779168D01*
X86796868Y-49764672D01*
X86778434Y-49740557D01*
X86748534Y-49708751D01*
X86710046Y-49671179D01*
X86665851Y-49629769D01*
X86618824Y-49586449D01*
X86571846Y-49543145D01*
X86527795Y-49501783D01*
X86489548Y-49464292D01*
X86459985Y-49432597D01*
X86441984Y-49408627D01*
X86438422Y-49394308D01*
X86465389Y-49349186D01*
X86493428Y-49304773D01*
X86522523Y-49261087D01*
X86552659Y-49218146D01*
X86583822Y-49175968D01*
X86615997Y-49134572D01*
X86649169Y-49093976D01*
X86683323Y-49054197D01*
X86718445Y-49015254D01*
X86754519Y-48977165D01*
X86791531Y-48939949D01*
X86829466Y-48903622D01*
X86868309Y-48868205D01*
X86884050Y-48867411D01*
X86912293Y-48878467D01*
X86950550Y-48899015D01*
X86996331Y-48926700D01*
X87047147Y-48959163D01*
X87100508Y-48994047D01*
X87153926Y-49028996D01*
X87204910Y-49061651D01*
X87250972Y-49089657D01*
X87289621Y-49110655D01*
X87318370Y-49122288D01*
X87334728Y-49122200D01*
X87374837Y-49093674D01*
X87415732Y-49066398D01*
X87457383Y-49040384D01*
X87499761Y-49015648D01*
X87542836Y-48992202D01*
X87586578Y-48970062D01*
X87630957Y-48949240D01*
X87675943Y-48929752D01*
X87721507Y-48911610D01*
X87767618Y-48894830D01*
X87814247Y-48879425D01*
X87861363Y-48865409D01*
X87908938Y-48852795D01*
X87917843Y-48838862D01*
X87925452Y-48804876D01*
X87932067Y-48755310D01*
X87937996Y-48694633D01*
X87943543Y-48627317D01*
X87949014Y-48557832D01*
X87954714Y-48490649D01*
X87960948Y-48430240D01*
X87968022Y-48381075D01*
X87976240Y-48347625D01*
X87985910Y-48334360D01*
X88016137Y-48330891D01*
X88058621Y-48328622D01*
X88110914Y-48327375D01*
X88110914Y-48327378D01*
X88164349Y-48326995D01*
X88221981Y-48327190D01*
G37*
G04 #@! TO.C,C126*
X38120000Y-136192164D02*
X38120000Y-136407836D01*
X38840000Y-136192164D02*
X38840000Y-136407836D01*
G04 #@! TO.C,C30*
X45140000Y-130797164D02*
X45140000Y-131012836D01*
X45860000Y-130797164D02*
X45860000Y-131012836D01*
G04 #@! TD*
M02*
